<?xml version="1.0" encoding="utf-8"?>
<!-- Generator: Adobe Illustrator 22.0.1, SVG Export Plug-In . SVG Version: 6.00 Build 0)  -->
<svg version="1.1" id="Layer_1" xmlns="http://www.w3.org/2000/svg" xmlns:xlink="http://www.w3.org/1999/xlink" x="0px" y="0px"
	 viewBox="0 0 283.5 283.5" style="enable-background:new 0 0 283.5 283.5;" xml:space="preserve">
<style type="text/css">
	.st0{fill:#2BACE2;}
	.st1{fill:#EB0D8C;}
	.st2{fill:#FCEE23;}
</style>
<g>
	<path class="st0" d="M203.2,152.6l-135.8,71c-3,1.6-6.4,2.4-9.7,2.4c-3.7,0-7.5-1-10.8-3c-6.2-3.8-10.1-10.6-10.1-17.9V63.6
		c0-7.3,3.8-14.1,10-17.8c6.2-3.8,14-4,20.5-0.7l135.8,70.5c6.9,3.6,11.2,10.7,11.3,18.5C214.4,141.9,210.1,149,203.2,152.6
		L203.2,152.6z"/>
	<path class="st1" d="M213.9,158.3l-135.8,71c-3,1.6-6.4,2.4-9.7,2.4c-3.7,0-7.5-1-10.8-3c-6.2-3.8-10.1-10.6-10.1-17.9V69.3
		c0-7.3,3.8-14.1,10-17.8c6.2-3.8,14-4,20.5-0.7l135.8,70.5c6.9,3.6,11.2,10.7,11.3,18.5C225.1,147.5,220.8,154.7,213.9,158.3
		L213.9,158.3z"/>
	<path class="st2" d="M225.2,164l-135.8,71c-3,1.6-6.4,2.4-9.7,2.4c-3.7,0-7.5-1-10.8-3c-6.2-3.8-10.1-10.6-10.1-17.9V75
		c0-7.3,3.8-14.1,10-17.8c6.2-3.8,14-4,20.5-0.7l135.8,70.5c6.9,3.6,11.2,10.7,11.3,18.5C236.5,153.2,232.1,160.4,225.2,164
		L225.2,164z"/>
	<path d="M235.9,168.9l-135.8,71c-3,1.6-6.4,2.4-9.7,2.4c-3.7,0-7.5-1-10.8-3c-6.2-3.8-10.1-10.6-10.1-17.9V79.9
		c0-7.3,3.8-14.1,10-17.8c6.2-3.8,14-4,20.5-0.7l135.8,70.5c6.9,3.6,11.2,10.7,11.3,18.5C247.1,158.2,242.8,165.3,235.9,168.9
		L235.9,168.9z"/>
</g>
</svg>
