<?xml version="1.0" encoding="UTF-8"?> <!-- Generator: Adobe Illustrator 20.1.0, SVG Export Plug-In . SVG Version: 6.00 Build 0) --> <svg xmlns="http://www.w3.org/2000/svg" xmlns:xlink="http://www.w3.org/1999/xlink" id="Layer_1" x="0px" y="0px" viewBox="0 0 100 100" style="enable-background:new 0 0 100 100;" xml:space="preserve"> <style type="text/css"> .st0{fill:#DA1A35;} </style> <g id="vertical_1_"> <path id="fonem_2_" d="M0,71h1.8v8.9h3V68.3H0V71z M6.8,74.1c0,3.7,2.5,6.1,5.9,6.1c1,0,2.1-0.1,3.1-0.9v-3.3 c-0.6,0.6-1.5,1.3-2.7,1.3c-1.8,0-3-1.4-3-3.1c0-1.9,1.2-3.3,3-3.3c1.2,0,2.1,0.7,2.7,1.4v-3.4c-1-0.7-2.1-0.9-3.2-0.9 C9.5,68,6.8,70.2,6.8,74.1z M29.8,72.8h-1.7v-1.7h5.3v-2.8h-8.5l0,11.6h4.9c0.8,0,4.5,0,4.5-3.6C34.3,72.8,30.7,72.8,29.8,72.8z M29.5,77.6h-1.4v-2.4h1.4c1,0,1.6,0.3,1.6,1.2C31.1,77.3,30.5,77.6,29.5,77.6z M39.1,75.3v-6.9H36v11.6h3.2l4.5-6.9v6.9h3.1V68.3 h-3.2L39.1,75.3z M48.1,71.1h2.5v8.8h3.2v-8.8h2.5v-2.8h-8.3V71.1z M62.6,68.3h-4.9v11.6H61v-3.8h1.6c3.3,0,4.2-2.3,4.2-3.9 C66.8,70.6,65.9,68.3,62.6,68.3z M61.9,73.5H61v-2.7h0.9c1.4,0,1.6,0.7,1.6,1.3C63.5,72.7,63.3,73.5,61.9,73.5z M71.3,75.3v-6.9 h-3.1v11.6h3.2l4.5-6.9v6.9h3.1V68.3h-3.2L71.3,75.3z M91.3,68.3h-3.8L84,73.2v-4.9h-3.2l0,11.6H84v-5l3.3,5h4l-4.5-6L91.3,68.3z M97.3,70.9c1.2,0,2.1,0.7,2.7,1.4v-3.4c-1-0.7-2.1-0.9-3.2-0.9c-3.1,0-5.9,2.2-5.9,6.1c0,3.7,2.5,6.1,5.9,6.1c1,0,2.1-0.1,3.1-0.9 v-3.3c-0.6,0.6-1.5,1.3-2.7,1.3c-1.8,0-3-1.4-3-3.1C94.3,72.3,95.5,70.9,97.3,70.9z M20.3,72.3c-1,0-1.9,0.8-1.9,1.9 c0,1,0.8,1.9,1.9,1.9c1,0,1.9-0.8,1.9-1.9C22.2,73.1,21.4,72.3,20.3,72.3z"></path> <path id="graph_2_" class="st0" d="M51,19.8c-1.4,0-2.7,0.2-4,0.4v18.1c0,2.2,1.8,4,4,4c2.2,0,4-1.8,4-4c0-2.1-1.7-3.9-3.8-4v-3.2 c3.9,0.1,7,3.3,7,7.2c0,4-3.3,7.2-7.2,7.2c-4,0-7.2-3.3-7.2-7.2v-17c-0.5,0.2-0.9,0.4-1.3,0.6v16.4c0,4.7,3.9,8.6,8.6,8.6 c4.7,0,8.6-3.9,8.6-8.6c0-4.6-3.7-8.4-8.3-8.6v-3.2c6.4,0.1,11.5,5.4,11.5,11.8c0,6.5-5.3,11.8-11.8,11.8 c-6.5,0-11.8-5.3-11.8-11.8V24c-4.1,3.4-6.7,8.5-6.7,14.3c0,10.2,8.3,18.5,18.5,18.5c10.2,0,18.5-8.3,18.5-18.5 C69.5,28.1,61.2,19.8,51,19.8z"></path> </g> </svg> 