<?xml version="1.0" encoding="UTF-8"?> <!-- Generator: Adobe Illustrator 22.0.1, SVG Export Plug-In . SVG Version: 6.00 Build 0) --> <svg xmlns="http://www.w3.org/2000/svg" xmlns:xlink="http://www.w3.org/1999/xlink" id="Слой_1" x="0px" y="0px" viewBox="0 0 130 100" style="enable-background:new 0 0 130 100;" xml:space="preserve"> <style type="text/css"> .st0{enable-background:new ;} .st1{fill:#15224A;} .st2{fill:#273F8B;} .st3{clip-path:url(#SVGID_2_);enable-background:new ;} .st4{fill:#16234D;} .st5{fill:#0C405A;} .st6{clip-path:url(#SVGID_4_);enable-background:new ;} .st7{fill:#0D425D;} .st8{fill:#1778A9;} .st9{clip-path:url(#SVGID_6_);enable-background:new ;} .st10{clip-path:url(#SVGID_8_);enable-background:new ;} .st11{clip-path:url(#SVGID_10_);enable-background:new ;} .st12{clip-path:url(#SVGID_12_);enable-background:new ;} .st13{clip-path:url(#SVGID_14_);enable-background:new ;} .st14{clip-path:url(#SVGID_16_);enable-background:new ;} .st15{clip-path:url(#SVGID_18_);enable-background:new ;} .st16{clip-path:url(#SVGID_20_);enable-background:new ;} .st17{clip-path:url(#SVGID_22_);enable-background:new ;} .st18{fill:#7D6509;} .st19{clip-path:url(#SVGID_24_);enable-background:new ;} .st20{fill:#826909;} .st21{clip-path:url(#SVGID_26_);enable-background:new ;} .st22{clip-path:url(#SVGID_28_);enable-background:new ;} .st23{fill:#F5C511;} .st24{clip-path:url(#SVGID_30_);enable-background:new ;} .st25{clip-path:url(#SVGID_32_);enable-background:new ;} .st26{clip-path:url(#SVGID_34_);enable-background:new ;} .st27{clip-path:url(#SVGID_36_);enable-background:new ;} .st28{clip-path:url(#SVGID_38_);enable-background:new ;} .st29{clip-path:url(#SVGID_40_);enable-background:new ;} .st30{clip-path:url(#SVGID_42_);enable-background:new ;} .st31{clip-path:url(#SVGID_44_);enable-background:new ;} .st32{fill:#16709D;} .st33{clip-path:url(#SVGID_46_);enable-background:new ;} .st34{clip-path:url(#SVGID_48_);enable-background:new ;} .st35{clip-path:url(#SVGID_50_);enable-background:new ;} .st36{clip-path:url(#SVGID_52_);enable-background:new ;} .st37{clip-path:url(#SVGID_54_);enable-background:new ;} .st38{clip-path:url(#SVGID_56_);enable-background:new ;} .st39{clip-path:url(#SVGID_58_);enable-background:new ;} .st40{clip-path:url(#SVGID_60_);enable-background:new ;} .st41{clip-path:url(#SVGID_62_);enable-background:new ;} </style> <g> <g> <g class="st0"> <g> <polygon class="st1" points="85.9,9.2 85.1,10.1 88,1.8 88.7,1 "></polygon> </g> <g> <polygon class="st1" points="117.5,32.6 116.8,33.5 108.9,36.3 109.6,35.5 "></polygon> </g> <g> <path class="st2" d="M88.7,1c13.9,6.9,23.2,17.4,28.8,31.6l-8,2.9c-4.5-11.2-12.9-20.6-23.7-26.3L88.7,1z"></path> </g> <g class="st0"> <defs> <path id="SVGID_1_" class="st0" d="M109.6,35.5l-0.7,0.9c-4.5-11.2-12.9-20.6-23.7-26.3l0.7-0.9 C96.7,14.9,105.1,24.3,109.6,35.5z"></path> </defs> <clipPath id="SVGID_2_"> <use xlink:href="#SVGID_1_" style="overflow:visible;"></use> </clipPath> <g class="st3"> <path class="st4" d="M109.6,35.5l-0.7,0.9c-4.5-11.2-12.9-20.6-23.7-26.3l0.7-0.9C96.7,14.9,105.1,24.3,109.6,35.5"></path> </g> </g> <g> <polygon class="st5" points="82,19.9 81.2,20.8 83.9,13.2 84.6,12.3 "></polygon> </g> <g class="st0"> <defs> <path id="SVGID_3_" class="st0" d="M99.3,39.1L98.6,40c-3.3-8.2-9.5-15.1-17.4-19.3l0.7-0.9C89.9,24.1,96,31,99.3,39.1z"></path> </defs> <clipPath id="SVGID_4_"> <use xlink:href="#SVGID_3_" style="overflow:visible;"></use> </clipPath> <g class="st6"> <path class="st7" d="M99.3,39.1L98.6,40c-3.3-8.2-9.5-15.1-17.4-19.3l0.7-0.9C89.9,24.1,96,31,99.3,39.1"></path> </g> </g> <g> <polygon class="st5" points="106.8,36.4 106.1,37.3 98.6,40 99.3,39.1 "></polygon> </g> <g> <path class="st8" d="M84.6,12.3c10.2,5,18.1,13.7,22.2,24.1l-7.5,2.7C96,31,89.9,24.1,82,19.9L84.6,12.3z"></path> </g> <g> <polygon class="st5" points="77.2,30.5 76.5,31.4 79.7,23.9 80.4,23 "></polygon> </g> <g> <polygon class="st5" points="96.8,40 96.1,40.8 88.5,43.8 89.3,43 "></polygon> </g> <g> <path class="st8" d="M80.4,23c7.5,3.7,13.2,9.8,16.4,17l-7.6,3c-2.5-5.2-6.6-9.7-12.1-12.5L80.4,23z"></path> </g> <g class="st0"> <defs> <path id="SVGID_5_" class="st0" d="M89.3,43l-0.7,0.9c-2.5-5.2-6.6-9.7-12.1-12.5l0.7-0.9C82.6,33.3,86.8,37.8,89.3,43z"></path> </defs> <clipPath id="SVGID_6_"> <use xlink:href="#SVGID_5_" style="overflow:visible;"></use> </clipPath> <g class="st9"> <path class="st7" d="M89.3,43l-0.7,0.9c-2.5-5.2-6.6-9.7-12.1-12.5l0.7-0.9C82.6,33.3,86.8,37.8,89.3,43"></path> </g> </g> </g> <g class="st0"> <g class="st0"> <defs> <path id="SVGID_7_" class="st0" d="M73.7,29L73,29.9c-3-1.1-6-1.6-9.1-1.6c-2.8,0-5.6,0.4-8.3,1.3l0.7-0.9 c2.7-0.8,5.5-1.3,8.3-1.3C67.7,27.4,70.8,28,73.7,29z"></path> </defs> <clipPath id="SVGID_8_"> <use xlink:href="#SVGID_7_" style="overflow:visible;"></use> </clipPath> <g class="st10"> <path class="st7" d="M73.7,29L73,29.9c-3-1.1-6-1.6-9.1-1.6c-2.8,0-5.6,0.4-8.3,1.3l0.7-0.9c2.7-0.8,5.5-1.3,8.3-1.3 C67.7,27.4,70.8,28,73.7,29"></path> </g> </g> <g> <polygon class="st5" points="56.4,28.7 55.7,29.6 52.7,22 53.4,21.1 "></polygon> </g> <g> <path class="st8" d="M64.7,19.3c4.1,0,8.3,0.7,12.3,2.2L73.7,29c-3-1.1-6-1.6-9.1-1.6c-2.8,0-5.6,0.4-8.3,1.3l-3-7.6 C57,19.9,60.8,19.3,64.7,19.3z"></path> </g> </g> <g class="st0"> <g class="st0"> <defs> <path id="SVGID_9_" class="st0" d="M52.9,30.1L52.2,31c-2.7,1.3-5.2,3-7.4,5.2l0.7-0.9C47.7,33.2,50.2,31.4,52.9,30.1z"></path> </defs> <clipPath id="SVGID_10_"> <use xlink:href="#SVGID_9_" style="overflow:visible;"></use> </clipPath> <g class="st11"> <path class="st7" d="M52.9,30.1L52.2,31c-2.7,1.3-5.2,3-7.4,5.2l0.7-0.9C47.7,33.2,50.2,31.4,52.9,30.1"></path> </g> </g> <g> <polygon class="st5" points="45.5,35.3 44.8,36.2 34.3,36.2 35,35.3 "></polygon> </g> <g class="st0"> <defs> <path id="SVGID_11_" class="st0" d="M36.8,32.8l0.7-0.9c-0.9,1.1-1.7,2.2-2.5,3.3l-0.7,0.9C35.1,35,35.9,33.9,36.8,32.8z"></path> </defs> <clipPath id="SVGID_12_"> <use xlink:href="#SVGID_11_" style="overflow:visible;"></use> </clipPath> <g class="st12"> <path class="st7" d="M35,35.3l-0.7,0.9c0.8-1.2,1.6-2.3,2.5-3.3l0.7-0.9C36.6,33,35.8,34.1,35,35.3"></path> </g> </g> <g> <path class="st8" d="M49.9,22.5l3,7.6c-2.7,1.3-5.2,3-7.4,5.2H35C38.7,29.6,43.9,25.2,49.9,22.5z"></path> </g> </g> <g class="st0"> <g> <polygon class="st5" points="97.9,67 97.2,67.9 89.7,64.6 90.4,63.8 "></polygon> </g> <g class="st0"> <defs> <path id="SVGID_13_" class="st0" d="M90.4,63.8l-0.7,0.9c2-5.8,2-11.8,0.2-17.3l0.7-0.9C92.4,51.9,92.4,58,90.4,63.8z"></path> </defs> <clipPath id="SVGID_14_"> <use xlink:href="#SVGID_13_" style="overflow:visible;"></use> </clipPath> <g class="st13"> <path class="st7" d="M90.4,63.8l-0.7,0.9c2-5.8,2-11.8,0.2-17.3l0.7-0.9C92.4,51.9,92.4,58,90.4,63.8"></path> </g> </g> <g> <path class="st8" d="M98.2,43.4c2.5,7.5,2.6,15.8-0.3,23.6l-7.5-3.2c2-5.8,2-11.8,0.2-17.3L98.2,43.4z"></path> </g> </g> <g class="st0"> <g class="st0"> <defs> <path id="SVGID_15_" class="st0" d="M95,79.7l-0.7,0.9c1.9-2.3,3.5-4.8,4.9-7.5l0.7-0.9C98.5,74.9,96.9,77.4,95,79.7z"></path> </defs> <clipPath id="SVGID_16_"> <use xlink:href="#SVGID_15_" style="overflow:visible;"></use> </clipPath> <g class="st14"> <path class="st4" d="M95,79.7l-0.7,0.9c1.9-2.3,3.5-4.8,4.9-7.5l0.7-0.9C98.5,74.9,96.9,77.4,95,79.7"></path> </g> </g> <g class="st0"> <defs> <path id="SVGID_17_" class="st0" d="M85.7,72.1L84.9,73c1.2-1.5,2.3-3.1,3.3-4.9l0.7-0.9C88,69,86.9,70.6,85.7,72.1z"></path> </defs> <clipPath id="SVGID_18_"> <use xlink:href="#SVGID_17_" style="overflow:visible;"></use> </clipPath> <g class="st15"> <path class="st7" d="M85.7,72.1L84.9,73c1.2-1.5,2.3-3.1,3.3-4.9l0.7-0.9C88,69,86.9,70.6,85.7,72.1"></path> </g> </g> <g> <polygon class="st5" points="83.8,84.5 83.1,85.4 83,75.1 83.8,74.2 "></polygon> </g> <g class="st0"> <defs> <path id="SVGID_19_" class="st0" d="M91.9,77.4l-0.7,0.9c-2.4,2.8-5.1,5.2-8.2,7.2l0.7-0.9C86.8,82.6,89.6,80.2,91.9,77.4z"></path> </defs> <clipPath id="SVGID_20_"> <use xlink:href="#SVGID_19_" style="overflow:visible;"></use> </clipPath> <g class="st16"> <path class="st7" d="M91.9,77.4l-0.7,0.9c-2.4,2.8-5.1,5.2-8.2,7.2l0.7-0.9C86.8,82.6,89.6,80.2,91.9,77.4"></path> </g> </g> <g> <path class="st8" d="M88.9,67.2l7.5,3.2c-2.9,5.9-7.4,10.7-12.7,14.1l0-10.3C85.8,72.2,87.6,69.9,88.9,67.2z"></path> </g> <g> <polygon class="st1" points="83.7,97.9 82.9,98.8 80,91.2 80.7,90.4 "></polygon> </g> <g class="st0"> <defs> <path id="SVGID_21_" class="st0" d="M101.2,84.9l-0.7,0.9c-4.7,5.6-10.7,10.1-17.5,13l0.7-0.9C90.5,95,96.5,90.5,101.2,84.9z"></path> </defs> <clipPath id="SVGID_22_"> <use xlink:href="#SVGID_21_" style="overflow:visible;"></use> </clipPath> <g class="st17"> <path class="st4" d="M101.2,84.9l-0.7,0.9c-4.7,5.6-10.7,10.1-17.5,13l0.7-0.9C90.5,95,96.5,90.5,101.2,84.9"></path> </g> </g> <g> <path class="st2" d="M99.8,72.2l7.8,2.5c-4.8,10.5-13.5,18.7-23.9,23.2l-3-7.5C89,86.8,95.8,80.4,99.8,72.2z"></path> </g> </g> </g> <g> <g class="st0"> <g> <polygon class="st18" points="81.4,54.2 80.3,55 73.3,55 74.5,54.2 "></polygon> </g> <g class="st0"> <defs> <path id="SVGID_23_" class="st0" d="M59.8,51.7l1.2-0.9c1-0.7,3.3-1.1,6.9-1.1c3.9,0,6.1,0.2,6.6,0.6s0.5,1.6,0,3.9L73.3,55 c0.6-2.2,0.6-3.5,0-3.9c-0.6-0.4-2.8-0.6-6.6-0.6C63.1,50.6,60.8,51,59.8,51.7z"></path> </defs> <clipPath id="SVGID_24_"> <use xlink:href="#SVGID_23_" style="overflow:visible;"></use> </clipPath> <g class="st19"> <path class="st20" d="M74.5,54.2L73.3,55c0.6-2.2,0.6-3.5,0-3.9c-0.6-0.4-2.8-0.6-6.6-0.6c-3.7,0-6,0.4-6.9,1.1l1.2-0.9 c1-0.7,3.3-1.1,6.9-1.1c3.9,0,6.1,0.2,6.6,0.6S75.1,52,74.5,54.2"></path> </g> </g> <g class="st0"> <defs> <path id="SVGID_25_" class="st0" d="M70,68.3l-1.2,0.9c0.6-0.5,1.1-1.6,1.6-3.3l1.2-0.9C71.2,66.8,70.6,67.9,70,68.3z"></path> </defs> <clipPath id="SVGID_26_"> <use xlink:href="#SVGID_25_" style="overflow:visible;"></use> </clipPath> <g class="st21"> <path class="st20" d="M70,68.3l-1.2,0.9c0.6-0.5,1.1-1.6,1.6-3.3l1.2-0.9C71.2,66.8,70.6,67.9,70,68.3"></path> </g> </g> <g> <polygon class="st18" points="71.6,65 70.5,65.9 61.9,65.9 63,65 "></polygon> </g> <g> <polygon class="st18" points="63,65 61.9,65.9 64.1,57.5 65.2,56.6 "></polygon> </g> <g class="st0"> <defs> <path id="SVGID_27_" class="st0" d="M42.1,59.3l-1.2,0.9c-0.1,0.1-0.2,0.1-0.2,0.2l1.2-0.9C41.9,59.4,42,59.3,42.1,59.3z"></path> </defs> <clipPath id="SVGID_28_"> <use xlink:href="#SVGID_27_" style="overflow:visible;"></use> </clipPath> <g class="st22"> <path class="st20" d="M42.1,59.3l-1.2,0.9c-0.1,0.1-0.2,0.1-0.2,0.2l1.2-0.9C41.9,59.4,42,59.3,42.1,59.3"></path> </g> </g> <g> <path class="st23" d="M70.5,40.1c6.8,0,10.7,0.6,11.8,1.9c1.2,1.4,0.9,5.5-0.8,12.2h-7c0.6-2.2,0.6-3.5,0-3.9s-2.8-0.6-6.6-0.6 c-3.9,0-6.2,0.4-7.1,1.2c-0.9,0.8-1.9,3.6-3.2,8.4c-1.3,4.8-1.7,7.6-1.2,8.4S59,69,62.9,69c3.9,0,6.2-0.2,6.9-0.5 c0.7-0.3,1.3-1.5,1.9-3.5H63l2.2-8.4h15.5c-2.1,8.1-3.7,13.3-4.6,15.5c-1.3,3-3.1,4.9-5.3,5.7c-1.6,0.6-5.2,0.8-10.6,0.8 c-7.1,0-11.1-0.9-11.9-2.8c-0.9-1.9-0.1-7.4,2.3-16.5c2.4-9.1,4.5-14.6,6.3-16.4C58.9,41,63.4,40.1,70.5,40.1z"></path> </g> <g class="st0"> <defs> <path id="SVGID_29_" class="st0" d="M72.8,76.8l-1.2,0.9c-0.6,0.4-1.2,0.8-1.9,1c-1.6,0.6-5.2,0.8-10.6,0.8 c-7.1,0-11.1-0.9-11.9-2.8c-0.9-1.9-0.1-7.4,2.3-16.5c2.4-9.1,4.5-14.6,6.3-16.4c0.2-0.2,0.3-0.3,0.5-0.5l1.2-0.9 c-0.2,0.1-0.4,0.3-0.5,0.5c-1.8,1.8-3.9,7.3-6.3,16.4c-2.4,9.1-3.2,14.6-2.3,16.5c0.9,1.9,4.9,2.8,11.9,2.8 c5.4,0,8.9-0.3,10.6-0.8C71.5,77.6,72.2,77.2,72.8,76.8z"></path> </defs> <clipPath id="SVGID_30_"> <use xlink:href="#SVGID_29_" style="overflow:visible;"></use> </clipPath> <g class="st24"> <path class="st20" d="M72.8,76.8l-1.2,0.9c-0.6,0.4-1.2,0.8-1.9,1c-1.6,0.6-5.2,0.8-10.6,0.8c-7.1,0-11.1-0.9-11.9-2.8 c-0.9-1.9-0.1-7.4,2.3-16.5c2.4-9.1,4.5-14.6,6.3-16.4c0.2-0.2,0.3-0.3,0.5-0.5l1.2-0.9c-0.2,0.1-0.4,0.3-0.5,0.5 c-1.8,1.8-3.9,7.3-6.3,16.4c-2.4,9.1-3.2,14.6-2.3,16.5c0.9,1.9,4.9,2.8,11.9,2.8c5.4,0,8.9-0.3,10.6-0.8 C71.5,77.6,72.2,77.2,72.8,76.8"></path> </g> </g> <g class="st0"> <defs> <path id="SVGID_31_" class="st0" d="M38.3,54.6l-1.2,0.9c0.4-0.3,0.8-1,1.1-2.1c0.3-1.3,0.3-2.1-0.1-2.3 c-0.4-0.2-2.3-0.3-5.4-0.3c-3.1,0-5,0.2-5.6,0.5c0,0-0.1,0-0.1,0.1l1.2-0.9c0,0,0.1-0.1,0.1-0.1c0.6-0.4,2.5-0.5,5.6-0.5 c3.2,0,5,0.1,5.4,0.3c0.4,0.2,0.5,1,0.1,2.3C39.1,53.6,38.7,54.3,38.3,54.6z"></path> </defs> <clipPath id="SVGID_32_"> <use xlink:href="#SVGID_31_" style="overflow:visible;"></use> </clipPath> <g class="st25"> <path class="st20" d="M38.3,54.6l-1.2,0.9c0.4-0.3,0.8-1,1.1-2.1c0.3-1.3,0.3-2.1-0.1-2.3c-0.4-0.2-2.3-0.3-5.4-0.3 c-3.1,0-5,0.2-5.6,0.5c0,0-0.1,0-0.1,0.1l1.2-0.9c0,0,0.1-0.1,0.1-0.1c0.6-0.4,2.5-0.5,5.6-0.5c3.2,0,5,0.1,5.4,0.3 c0.4,0.2,0.5,1,0.1,2.3C39.1,53.6,38.7,54.3,38.3,54.6"></path> </g> </g> <g class="st0"> <defs> <path id="SVGID_33_" class="st0" d="M24.4,43.1l1.2-0.9c-2,1.5-3.4,4-4.4,7.6L20,50.7C20.9,47.1,22.4,44.5,24.4,43.1z"></path> </defs> <clipPath id="SVGID_34_"> <use xlink:href="#SVGID_33_" style="overflow:visible;"></use> </clipPath> <g class="st26"> <path class="st20" d="M21.1,49.8L20,50.7c1-3.6,2.4-6.2,4.4-7.6l1.2-0.9C23.5,43.7,22.1,46.2,21.1,49.8"></path> </g> </g> <g class="st0"> <defs> <path id="SVGID_35_" class="st0" d="M34.9,68.5l-1.2,0.9c0.5-0.3,0.8-1.1,1.1-2.3c0.4-1.4,0.3-2.2-0.2-2.4 c-0.5-0.2-2.4-0.4-5.7-0.4l1.2-0.9c3.3,0,5.2,0.1,5.7,0.4c0.5,0.2,0.6,1,0.2,2.4C35.8,67.4,35.4,68.1,34.9,68.5z"></path> </defs> <clipPath id="SVGID_36_"> <use xlink:href="#SVGID_35_" style="overflow:visible;"></use> </clipPath> <g class="st27"> <path class="st20" d="M34.9,68.5l-1.2,0.9c0.5-0.3,0.8-1.1,1.1-2.3c0.4-1.4,0.3-2.2-0.2-2.4c-0.5-0.2-2.4-0.4-5.7-0.4l1.2-0.9 c3.3,0,5.2,0.1,5.7,0.4c0.5,0.2,0.6,1,0.2,2.4C35.8,67.4,35.4,68.1,34.9,68.5"></path> </g> </g> <g> <polygon class="st18" points="30.2,63.5 29.1,64.3 26.3,64.3 27.5,63.5 "></polygon> </g> <g> <polygon class="st18" points="27.5,63.5 26.3,64.3 28.6,55.9 29.7,55.1 "></polygon> </g> <g> <polygon class="st18" points="20,54 18.9,54.9 20,50.7 21.1,49.8 "></polygon> </g> <g> <polygon class="st18" points="26.5,54 25.4,54.9 18.9,54.9 20,54 "></polygon> </g> <g> <polygon class="st18" points="16.1,69 14.9,69.8 16.2,65.1 17.3,64.2 "></polygon> </g> <g class="st0"> <defs> <path id="SVGID_37_" class="st0" d="M37.7,76.6l-1.2,0.9c-1.8,1.4-5.6,2-11.5,2c-3.2,0-5.5-0.2-6.8-0.5 c-1.9-0.5-3.1-1.3-3.6-2.6c-0.6-1.4-0.5-3.6,0.3-6.6l1.2-0.9c-0.8,3-0.9,5.2-0.3,6.6c0.5,1.3,1.7,2.2,3.6,2.6 c1.3,0.3,3.6,0.5,6.8,0.5C32,78.7,35.9,78,37.7,76.6z"></path> </defs> <clipPath id="SVGID_38_"> <use xlink:href="#SVGID_37_" style="overflow:visible;"></use> </clipPath> <g class="st28"> <path class="st20" d="M37.7,76.6l-1.2,0.9c-1.8,1.4-5.6,2-11.5,2c-3.2,0-5.5-0.2-6.8-0.5c-1.9-0.5-3.1-1.3-3.6-2.6 c-0.6-1.4-0.5-3.6,0.3-6.6l1.2-0.9c-0.8,3-0.9,5.2-0.3,6.6c0.5,1.3,1.7,2.2,3.6,2.6c1.3,0.3,3.6,0.5,6.8,0.5 C32,78.7,35.9,78,37.7,76.6"></path> </g> </g> <g> <path class="st23" d="M36.4,40.1c5.7,0,9.2,0.8,10.2,2.4c0.9,1.3,0.7,4.5-0.6,9.5c-0.5,2-1.2,3.6-1.9,4.8s-1.5,2-2.3,2.6 c0.8,0.4,1.3,1.1,1.4,2.2c0.1,1.1-0.1,2.7-0.7,4.9c-1.4,5.4-3,8.8-4.8,10.1c-1.8,1.4-5.6,2.1-11.5,2.1c-3.2,0-5.5-0.2-6.8-0.5 c-1.9-0.5-3.1-1.3-3.6-2.6c-0.6-1.4-0.5-3.6,0.3-6.6l1.2-4.7h6.5c-0.6,2.4-0.7,3.8-0.3,4.1c0.4,0.4,2.2,0.6,5.3,0.6 c3.4,0,5.3-0.1,5.9-0.3c0.6-0.2,1.1-1,1.4-2.4c0.4-1.4,0.3-2.2-0.2-2.4c-0.5-0.2-2.4-0.4-5.7-0.4h-2.7l2.2-8.4h2.7 c3.1,0,5-0.1,5.6-0.3c0.6-0.2,1-1,1.4-2.3c0.3-1.3,0.3-2.1-0.1-2.3c-0.4-0.2-2.3-0.3-5.4-0.3c-3.1,0-5,0.2-5.6,0.5 c-0.6,0.3-1.2,1.6-1.8,3.7H20l1.1-4.2c1.1-4.2,2.9-7,5.4-8.3C28.4,40.6,31.6,40.1,36.4,40.1z"></path> </g> </g> </g> <g> <g class="st0"> <g class="st0"> <defs> <path id="SVGID_39_" class="st0" d="M72.1,87.7L71.6,88c0.1-0.5,0.2-0.9,0.1-1c-0.1-0.2-0.2-0.3-0.5-0.3l0.6-0.3 c0.2,0,0.4,0.1,0.5,0.3C72.3,86.9,72.3,87.2,72.1,87.7z"></path> </defs> <clipPath id="SVGID_40_"> <use xlink:href="#SVGID_39_" style="overflow:visible;"></use> </clipPath> <g class="st29"> <path class="st7" d="M72.1,87.7L71.6,88c0.1-0.5,0.2-0.9,0.1-1c-0.1-0.2-0.2-0.3-0.5-0.3l0.6-0.3c0.2,0,0.4,0.1,0.5,0.3 C72.3,86.9,72.3,87.2,72.1,87.7"></path> </g> </g> <g class="st0"> <defs> <path id="SVGID_41_" class="st0" d="M71.5,88.9l-0.6,0.3c0.1,0,0.2-0.1,0.2-0.2c0.2-0.2,0.3-0.5,0.4-1l0.6-0.3 c-0.1,0.5-0.3,0.9-0.4,1C71.6,88.8,71.5,88.9,71.5,88.9z"></path> </defs> <clipPath id="SVGID_42_"> <use xlink:href="#SVGID_41_" style="overflow:visible;"></use> </clipPath> <g class="st30"> <path class="st7" d="M71.5,88.9l-0.6,0.3c0.1,0,0.2-0.1,0.2-0.2c0.2-0.2,0.3-0.5,0.4-1l0.6-0.3c-0.1,0.5-0.3,0.9-0.4,1 C71.6,88.8,71.5,88.9,71.5,88.9"></path> </g> </g> <g> <polygon class="st5" points="71.8,86.4 71.2,86.7 67.4,86.7 68,86.4 "></polygon> </g> <g class="st0"> <defs> <path id="SVGID_43_" class="st0" d="M70.5,93.7l-0.6,0.3c0.1-0.3,0.1-0.6,0.1-0.9c-0.1-0.3-0.2-0.5-0.5-0.5l0.6-0.3 c0.3,0,0.4,0.2,0.5,0.5C70.6,93.1,70.6,93.4,70.5,93.7z"></path> </defs> <clipPath id="SVGID_44_"> <use xlink:href="#SVGID_43_" style="overflow:visible;"></use> </clipPath> <g class="st31"> <path class="st7" d="M70.5,93.7l-0.6,0.3c0.1-0.3,0.1-0.6,0.1-0.9c-0.1-0.3-0.2-0.5-0.5-0.5l0.6-0.3c0.3,0,0.4,0.2,0.5,0.5 C70.6,93.1,70.6,93.4,70.5,93.7"></path> </g> </g> <g> <polygon class="st5" points="69.9,96.1 69.3,96.4 69.9,94.1 70.5,93.7 "></polygon> </g> <g> <polygon class="st5" points="72.2,96.1 71.7,96.4 69.3,96.4 69.9,96.1 "></polygon> </g> <g> <polygon class="st5" points="70.1,92.4 69.5,92.7 65.8,92.7 66.4,92.4 "></polygon> </g> <g> <polygon class="st5" points="63.7,86.1 63.2,86.5 57.3,86.5 57.9,86.1 "></polygon> </g> <g> <path class="st32" d="M75,83.8c0.2,0.6,0.1,1.6-0.2,3c-0.3,1.1-0.6,2-0.9,2.5c-0.3,0.5-0.7,0.9-1.1,1.2c0.3,0.3,0.5,0.6,0.6,1 c0.1,0.3,0,0.9-0.2,1.7l-0.8,2.9h-2.3l0.6-2.3c0.1-0.3,0.1-0.6,0.1-0.9c-0.1-0.3-0.2-0.5-0.5-0.5h-3.7l-1,3.7h-2.3L66.6,83h6.8 C74.2,83,74.8,83.2,75,83.8z M72.1,87.7c0.1-0.5,0.2-0.9,0.1-1c-0.1-0.2-0.2-0.3-0.5-0.3H68L67.3,89h3.8c0.3,0,0.5-0.1,0.6-0.3 C71.9,88.6,72,88.2,72.1,87.7"></path> </g> <g> <polygon class="st5" points="63.1,96.1 62.5,96.4 66,83.3 66.6,83 "></polygon> </g> <g> <polygon class="st5" points="65.4,96.1 64.8,96.4 62.5,96.4 63.1,96.1 "></polygon> </g> <g> <polygon class="st5" points="62.1,91.1 61.6,91.4 56,91.4 56.6,91.1 "></polygon> </g> <g> <polygon class="st5" points="53.1,87.7 52.5,88.1 50.2,88.1 50.8,87.7 "></polygon> </g> <g> <polygon class="st32" points="64.6,83 63.7,86.1 57.9,86.1 57.4,88 63,88 62.1,91.1 56.6,91.1 56.1,92.9 61.9,92.9 61.1,96.1 52.9,96.1 56.4,83 "></polygon> </g> <g> <polygon class="st5" points="61.1,96.1 60.5,96.4 52.3,96.4 52.9,96.1 "></polygon> </g> <g> <polygon class="st5" points="52.9,96.1 52.3,96.4 55.8,83.3 56.4,83 "></polygon> </g> <g class="st0"> <defs> <path id="SVGID_45_" class="st0" d="M45.8,86.8l0.6-0.3c0.4-0.2,1.1-0.3,2.2-0.3c1.3,0,2,0.1,2.2,0.2c0.2,0.1,0.2,0.6,0,1.3 l-0.6,0.3c0.2-0.8,0.2-1.2,0-1.3c-0.2-0.1-0.9-0.2-2.2-0.2C46.9,86.5,46.1,86.6,45.8,86.8z"></path> </defs> <clipPath id="SVGID_46_"> <use xlink:href="#SVGID_45_" style="overflow:visible;"></use> </clipPath> <g class="st33"> <path class="st7" d="M50.8,87.7l-0.6,0.3c0.2-0.8,0.2-1.2,0-1.3c-0.2-0.1-0.9-0.2-2.2-0.2c-1.1,0-1.9,0.1-2.2,0.3l0.6-0.3 c0.4-0.2,1.1-0.3,2.2-0.3c1.3,0,2,0.1,2.2,0.2C51,86.5,51,87,50.8,87.7"></path> </g> </g> <g class="st0"> <defs> <path id="SVGID_47_" class="st0" d="M49.2,92.7L48.6,93c0.2-0.1,0.4-0.5,0.6-1.2l0.6-0.3C49.6,92.2,49.4,92.6,49.2,92.7z"></path> </defs> <clipPath id="SVGID_48_"> <use xlink:href="#SVGID_47_" style="overflow:visible;"></use> </clipPath> <g class="st34"> <path class="st7" d="M49.2,92.7L48.6,93c0.2-0.1,0.4-0.5,0.6-1.2l0.6-0.3C49.6,92.2,49.4,92.6,49.2,92.7"></path> </g> </g> <g> <polygon class="st5" points="49.8,91.5 49.2,91.8 46.3,91.8 46.9,91.5 "></polygon> </g> <g> <polygon class="st5" points="46.9,91.5 46.3,91.8 47.1,88.9 47.7,88.6 "></polygon> </g> <g> <polygon class="st5" points="41,87.7 40.4,88.1 38.1,88.1 38.7,87.7 "></polygon> </g> <g> <path class="st32" d="M49.5,82.8c2.3,0,3.6,0.2,4,0.7c0.4,0.5,0.3,1.9-0.3,4.2h-2.3c0.2-0.8,0.2-1.2,0-1.3 c-0.2-0.1-0.9-0.2-2.2-0.2s-2.1,0.1-2.4,0.4c-0.3,0.3-0.7,1.3-1.1,2.9c-0.4,1.7-0.6,2.6-0.5,2.9c0.1,0.3,0.9,0.4,2.2,0.4 c1.3,0,2.1-0.1,2.3-0.2c0.2-0.1,0.5-0.5,0.6-1.2h-2.9l0.8-2.9h5.2c-0.8,2.8-1.3,4.6-1.6,5.4c-0.5,1.1-1.1,1.7-1.8,2 c-0.6,0.2-1.7,0.3-3.6,0.3c-2.4,0-3.7-0.3-4-1c-0.3-0.7,0-2.6,0.8-5.8c0.9-3.2,1.6-5.1,2.2-5.7C45.6,83.2,47.1,82.8,49.5,82.8z"></path> </g> <g class="st0"> <defs> <path id="SVGID_49_" class="st0" d="M49.8,95.8l-0.6,0.3c-0.1,0.1-0.2,0.1-0.3,0.2c-0.6,0.2-1.7,0.3-3.6,0.3 c-2.4,0-3.7-0.3-4-1c-0.3-0.7,0-2.6,0.8-5.8c0.9-3.2,1.6-5.1,2.2-5.7c0.1-0.1,0.3-0.2,0.5-0.3l0.6-0.3 c-0.2,0.1-0.3,0.2-0.5,0.3c-0.6,0.6-1.4,2.5-2.2,5.7c-0.9,3.2-1.1,5.1-0.8,5.8c0.3,0.7,1.6,1,4,1c1.8,0,3-0.1,3.6-0.3 C49.6,95.9,49.7,95.9,49.8,95.8z"></path> </defs> <clipPath id="SVGID_50_"> <use xlink:href="#SVGID_49_" style="overflow:visible;"></use> </clipPath> <g class="st35"> <path class="st7" d="M49.8,95.8l-0.6,0.3c-0.1,0.1-0.2,0.1-0.3,0.2c-0.6,0.2-1.7,0.3-3.6,0.3c-2.4,0-3.7-0.3-4-1 c-0.3-0.7,0-2.6,0.8-5.8c0.9-3.2,1.6-5.1,2.2-5.7c0.1-0.1,0.3-0.2,0.5-0.3l0.6-0.3c-0.2,0.1-0.3,0.2-0.5,0.3 c-0.6,0.6-1.4,2.5-2.2,5.7c-0.9,3.2-1.1,5.1-0.8,5.8c0.3,0.7,1.6,1,4,1c1.8,0,3-0.1,3.6-0.3C49.6,95.9,49.7,95.9,49.8,95.8"></path> </g> </g> <g class="st0"> <defs> <path id="SVGID_51_" class="st0" d="M33.6,86.8l0.6-0.3c0.4-0.2,1.1-0.3,2.2-0.3c1.3,0,2,0.1,2.2,0.2c0.2,0.1,0.2,0.6,0,1.3 l-0.6,0.3c0.2-0.8,0.2-1.2,0-1.3c-0.2-0.1-0.9-0.2-2.2-0.2C34.8,86.5,34,86.6,33.6,86.8z"></path> </defs> <clipPath id="SVGID_52_"> <use xlink:href="#SVGID_51_" style="overflow:visible;"></use> </clipPath> <g class="st36"> <path class="st7" d="M38.7,87.7l-0.6,0.3c0.2-0.8,0.2-1.2,0-1.3c-0.2-0.1-0.9-0.2-2.2-0.2c-1.1,0-1.9,0.1-2.2,0.3l0.6-0.3 c0.4-0.2,1.1-0.3,2.2-0.3c1.3,0,2,0.1,2.2,0.2C38.9,86.5,38.9,87,38.7,87.7"></path> </g> </g> <g class="st0"> <defs> <path id="SVGID_53_" class="st0" d="M37,92.7L36.5,93c0.2-0.1,0.4-0.5,0.6-1.2l0.6-0.3C37.5,92.2,37.3,92.6,37,92.7z"></path> </defs> <clipPath id="SVGID_54_"> <use xlink:href="#SVGID_53_" style="overflow:visible;"></use> </clipPath> <g class="st37"> <path class="st7" d="M37,92.7L36.5,93c0.2-0.1,0.4-0.5,0.6-1.2l0.6-0.3C37.5,92.2,37.3,92.6,37,92.7"></path> </g> </g> <g> <polygon class="st5" points="37.6,91.5 37.1,91.8 34.2,91.8 34.7,91.5 "></polygon> </g> <g> <polygon class="st5" points="34.7,91.5 34.2,91.8 35,88.9 35.5,88.6 "></polygon> </g> <g class="st0"> <defs> <path id="SVGID_55_" class="st0" d="M37.7,95.8l-0.6,0.3c-0.1,0.1-0.2,0.1-0.3,0.2c-0.6,0.2-1.7,0.3-3.6,0.3 c-2.4,0-3.7-0.3-4-1c-0.3-0.7,0-2.6,0.8-5.8c0.9-3.2,1.6-5.1,2.2-5.7c0.1-0.1,0.3-0.2,0.5-0.3l0.6-0.3 c-0.2,0.1-0.3,0.2-0.5,0.3c-0.6,0.6-1.4,2.5-2.2,5.7c-0.9,3.2-1.1,5.1-0.8,5.8c0.3,0.7,1.6,1,4,1c1.8,0,3-0.1,3.6-0.3 C37.5,95.9,37.6,95.9,37.7,95.8z"></path> </defs> <clipPath id="SVGID_56_"> <use xlink:href="#SVGID_55_" style="overflow:visible;"></use> </clipPath> <g class="st38"> <path class="st7" d="M37.7,95.8l-0.6,0.3c-0.1,0.1-0.2,0.1-0.3,0.2c-0.6,0.2-1.7,0.3-3.6,0.3c-2.4,0-3.7-0.3-4-1 c-0.3-0.7,0-2.6,0.8-5.8c0.9-3.2,1.6-5.1,2.2-5.7c0.1-0.1,0.3-0.2,0.5-0.3l0.6-0.3c-0.2,0.1-0.3,0.2-0.5,0.3 c-0.6,0.6-1.4,2.5-2.2,5.7c-0.9,3.2-1.1,5.1-0.8,5.8c0.3,0.7,1.6,1,4,1c1.8,0,3-0.1,3.6-0.3C37.5,95.9,37.6,95.9,37.7,95.8"></path> </g> </g> <g> <path class="st32" d="M37.4,82.8c2.3,0,3.6,0.2,4,0.7c0.4,0.5,0.3,1.9-0.3,4.2h-2.3c0.2-0.8,0.2-1.2,0-1.3 c-0.2-0.1-0.9-0.2-2.2-0.2c-1.3,0-2.1,0.1-2.4,0.4c-0.3,0.3-0.7,1.3-1.1,2.9c-0.4,1.7-0.6,2.6-0.5,2.9c0.1,0.3,0.9,0.4,2.2,0.4 c1.3,0,2.1-0.1,2.3-0.2c0.2-0.1,0.5-0.5,0.6-1.2h-2.9l0.8-2.9h5.2c-0.8,2.8-1.3,4.6-1.6,5.4c-0.5,1.1-1.1,1.7-1.8,2 c-0.6,0.2-1.7,0.3-3.6,0.3c-2.4,0-3.7-0.3-4-1c-0.3-0.7,0-2.6,0.8-5.8c0.9-3.2,1.6-5.1,2.2-5.7C33.5,83.2,35,82.8,37.4,82.8z"></path> </g> <g class="st0"> <defs> <path id="SVGID_57_" class="st0" d="M22.2,89.5l-0.6,0.3c0.3-1.2,0.5-2.1,0.4-2.5c-0.1-0.4-0.3-0.7-0.8-0.7l0.6-0.3 c0.5,0,0.8,0.2,0.8,0.7C22.7,87.5,22.6,88.3,22.2,89.5z"></path> </defs> <clipPath id="SVGID_58_"> <use xlink:href="#SVGID_57_" style="overflow:visible;"></use> </clipPath> <g class="st39"> <path class="st7" d="M22.2,89.5l-0.6,0.3c0.3-1.2,0.5-2.1,0.4-2.5c-0.1-0.4-0.3-0.7-0.8-0.7l0.6-0.3c0.5,0,0.8,0.2,0.8,0.7 C22.7,87.5,22.6,88.3,22.2,89.5"></path> </g> </g> <g> <polygon class="st5" points="27.1,96.1 26.5,96.4 24.1,96.4 24.7,96.1 "></polygon> </g> <g> <polygon class="st32" points="30.6,83 27.1,96.1 24.7,96.1 28.2,83 "></polygon> </g> <g> <polygon class="st5" points="24.7,96.1 24.1,96.4 27.6,83.4 28.2,83 "></polygon> </g> <g> <polygon class="st5" points="21.8,86.4 21.2,86.7 17.4,86.7 18,86.4 "></polygon> </g> <g class="st0"> <defs> <path id="SVGID_59_" class="st0" d="M20.8,92.5l-0.6,0.3c0.2-0.1,0.4-0.3,0.5-0.5c0.3-0.4,0.6-1.3,0.9-2.5l0.6-0.3 c-0.3,1.2-0.6,2-0.9,2.5C21.2,92.2,21,92.4,20.8,92.5z"></path> </defs> <clipPath id="SVGID_60_"> <use xlink:href="#SVGID_59_" style="overflow:visible;"></use> </clipPath> <g class="st40"> <path class="st7" d="M20.8,92.5l-0.6,0.3c0.2-0.1,0.4-0.3,0.5-0.5c0.3-0.4,0.6-1.3,0.9-2.5l0.6-0.3c-0.3,1.2-0.6,2-0.9,2.5 C21.2,92.2,21,92.4,20.8,92.5"></path> </g> </g> <g class="st0"> <defs> <path id="SVGID_61_" class="st0" d="M21.6,95.6L21,95.9c-0.5,0.3-1.2,0.5-2,0.5l0.6-0.3C20.4,96.1,21,95.9,21.6,95.6z"></path> </defs> <clipPath id="SVGID_62_"> <use xlink:href="#SVGID_61_" style="overflow:visible;"></use> </clipPath> <g class="st41"> <path class="st7" d="M21.6,95.6L21,95.9c-0.5,0.3-1.2,0.5-2,0.5l0.6-0.3C20.4,96.1,21,95.9,21.6,95.6"></path> </g> </g> <g> <polygon class="st5" points="19.6,96.1 19,96.4 12.5,96.4 13,96.1 "></polygon> </g> <g> <path class="st32" d="M25.4,84.4c0.2,0.9-0.1,2.6-0.8,5.2c-0.7,2.6-1.3,4.3-2,5.1c-0.7,0.9-1.7,1.4-3,1.4H13L16.5,83h6.6 C24.4,83,25.2,83.4,25.4,84.4z M22.2,89.5c0.3-1.2,0.5-2.1,0.4-2.5c-0.1-0.4-0.3-0.7-0.8-0.7H18l-1.7,6.3h3.8 c0.5,0,0.9-0.2,1.2-0.7C21.6,91.6,21.9,90.8,22.2,89.5"></path> </g> <g> <polygon class="st5" points="13,96.1 12.5,96.4 15.9,83.3 16.5,83 "></polygon> </g> </g> </g> </g> </svg> 