<?xml version="1.0" encoding="UTF-8"?> <!-- Generator: Adobe Illustrator 21.0.2, SVG Export Plug-In . SVG Version: 6.00 Build 0) --> <svg xmlns="http://www.w3.org/2000/svg" xmlns:xlink="http://www.w3.org/1999/xlink" id="Layer_1" x="0px" y="0px" viewBox="0 0 100 120" style="enable-background:new 0 0 100 120;" xml:space="preserve"> <style type="text/css"> .st0{fill:url(#SVGID_1_);} .st1{fill:#31C5F0;} </style> <radialGradient id="SVGID_1_" cx="-2225.2542" cy="248.7555" r="0.1277" gradientTransform="matrix(545.6736 0 0 528.3113 1214296.75 -131384.9062)" gradientUnits="userSpaceOnUse"> <stop offset="0" style="stop-color:#34364E;stop-opacity:0.98"></stop> <stop offset="1" style="stop-color:#0C0824"></stop> </radialGradient> <path class="st0" d="M4.2,15.4h91.7v89.2H4.2V15.4z"></path> <path class="st1" d="M4.2,15.4h91.7v89.2H4.2V15.4z M0,108.8h100V11.2H0V108.8z M67.4,51.3c-3.3,0-4.4,1.7-4.4,3 c0,1.5,0.7,2.5,5.2,4.8c6.5,3.2,8.6,6.2,8.6,10.7c0,6.7-5.1,10.3-12,10.3c-3.6,0-6.8-0.7-8.5-1.8c-0.3-0.1-0.3-0.3-0.3-0.7v-6.2 c0-0.4,0.2-0.5,0.5-0.3c2.6,1.7,5.6,2.5,8.4,2.5c3.3,0,4.7-1.4,4.7-3.2c0-1.5-1-2.8-5.2-5c-5.9-2.8-8.4-5.7-8.4-10.5 c0-5.4,4.2-9.8,11.5-9.8c3.6,0,6.1,0.5,7.5,1.2c0.3,0.2,0.4,0.5,0.4,0.8v5.7c0,0.3-0.2,0.5-0.6,0.4C72.8,52,70.1,51.3,67.4,51.3 L67.4,51.3z M31.6,56.2c1,0.1,1.7,0.1,3.4,0.1c4.9,0,9.5-1.7,9.5-8.3c0-5.3-3.3-8-8.8-8c-1.7,0-3.2,0.1-4,0.1L31.6,56.2L31.6,56.2z M24.2,34.1c0-0.3,0.6-0.5,0.9-0.5c2.7-0.1,6.6-0.2,10.7-0.2c11.5,0,16.1,6.3,16.1,14.4c0,10.6-7.7,15.1-17.1,15.1 c-1.6,0-2.1-0.1-3.2-0.1v16c0,0.3-0.1,0.5-0.5,0.5h-6.4c-0.3,0-0.5-0.1-0.5-0.5L24.2,34.1L24.2,34.1z"></path> </svg> 