<?xml version="1.0" encoding="UTF-8"?> <!-- Generator: Adobe Illustrator 22.0.1, SVG Export Plug-In . SVG Version: 6.00 Build 0) --> <svg xmlns="http://www.w3.org/2000/svg" xmlns:xlink="http://www.w3.org/1999/xlink" id="Слой_1" x="0px" y="0px" viewBox="0 0 130 100" style="enable-background:new 0 0 130 100;" xml:space="preserve"> <style type="text/css"> .st0{fill:#FF0000;} </style> <g> <path class="st0" d="M6.9,68.2c1.5,1.3,3.8,1.3,5.7,1.3c0.5,0,1.1-0.1,1.6-0.2c0.7-0.1,0.8,0,1.1-0.7c0.4-0.7,0.5-1.8,0.8-2.6 c-1.5,0.5-3.5,1-5,0.1c-1.1-0.7-1.4-2.1-0.7-3.2c1.6-2.3,5.5-2.1,7.8-3.6c-0.2,4.7-0.4,7.9-0.6,9.6c1.7,0,3.4,0,5.1,0 c0-2.8,0.2-5.7,0.3-8.5c0.1-2.3,0.9-5.4-0.1-7.5c-0.9-2.1-3.5-2.7-5.6-2.9c-3.1-0.2-6.2,0.3-9.3,1L8,51.7l-0.2,1.6l-0.2,1.3 c1.8-0.7,10.5-3.7,10.6,0.4c0,1.4-1.5,2-2.6,2.4c-2.1,0.6-4.4,0.9-6.5,1.8c-1.7,0.7-3.3,1.9-3.8,3.8C4.8,64.8,5.4,67,6.9,68.2z"></path> <path d="M27.3,44.2c-0.1,6-0.7,19-1.2,24.8h0.9l1.9,0c0.6,0,0.7,0,2.5,0c0.1-7.4,0.7-20,1.1-24.8C30.9,44.3,29.1,44.3,27.3,44.2z"></path> <path d="M36,44.2C35.9,50.2,37.7,44.3,36,44.2L36,44.2z"></path> <path d="M37.7,69c0.6,0,0.7,0,2.5,0c0.1-7.4,0.7-20,1.1-24.8c-1.8,0-3.5,0-5.3,0c1.7,0-0.1,6,0,0c-0.1,6-0.7,19-1.2,24.8h0.9 L37.7,69z"></path> <path d="M49.7,47.4l0-1.6c0-0.4,0-0.6,0.1-1.3l0-0.6c-1.8,0-3.5,0-5.3,0c0,1.5,0,1.7-0.1,3.5C46.2,47.3,48,47.3,49.7,47.4z"></path> <path d="M44.4,50.6C44.3,57.4,46.2,50.6,44.4,50.6L44.4,50.6z"></path> <path d="M49.7,50.6c-1.8,0-3.5,0-5.3,0c1.8,0-0.1,6.8,0,0C44.3,57.4,44,65.1,43.5,69c1.8,0,3.7,0,5.5,0 C49,61.3,49.3,55.8,49.7,50.6z"></path> <path d="M52.9,68.2c1.5,1.3,3.8,1.3,5.7,1.3c0.5,0,1.1-0.1,1.6-0.2c0.7-0.1,0.8,0,1.1-0.7c0.4-0.7,0.5-1.8,0.8-2.6 c-1.5,0.5-3.5,1-5,0.1c-1.1-0.7-1.4-2.1-0.7-3.2c1.6-2.3,5.5-2.1,7.8-3.6c-0.2,4.7-0.4,7.9-0.6,9.6c1.7,0,3.4,0,5.1,0 c0-2.8,0.2-5.7,0.3-8.5c0.1-2.3,0.9-5.4-0.1-7.5c-0.9-2.1-3.5-2.7-5.6-2.9c-3.1-0.2-6.2,0.3-9.3,1L54,51.7l-0.2,1.6l-0.2,1.3 c1.8-0.7,10.5-3.7,10.6,0.4c0,1.4-1.5,2-2.6,2.4c-2.1,0.6-4.4,0.9-6.5,1.8c-1.7,0.7-3.3,1.9-3.8,3.8C50.8,64.8,51.4,67,52.9,68.2z"></path> <path d="M77.3,69c0.1-3.1,0.1-6.4,0.5-9.5c0.4-2.7,1.9-5.3,5-5.4c3.5-0.1,4.2,2.7,4.1,5.5c-0.1,3.1-0.3,6.2-0.5,9.3 c1.7,0,3.5,0,5.2,0c0.1-2.9,0.2-5.9,0.3-8.8c0.1-2.5,0.7-5.6-0.8-7.8c-1.4-2-4.1-2.4-6.4-2.3c-2.9,0.1-5.1,1.2-6.7,3.5l0.2-3.1 c-1.7,0-3.4,0-5.2,0c0,5.6-0.5,13.4-1,18.5C73.8,69,75.5,69,77.3,69z"></path> <path d="M96.7,52.8C96.7,52.8,96.7,52.8,96.7,52.8C96,53.6,96.3,53.2,96.7,52.8z"></path> <path d="M96.8,52.8c0,0,0.1-0.1,0.1-0.1C97.2,52.2,97.5,51.9,96.8,52.8z"></path> <path d="M96.8,52.8C96.7,52.8,96.7,52.8,96.8,52.8c0,0,0.1-0.1,0.1-0.1C96.8,52.7,96.8,52.7,96.8,52.8z"></path> <path d="M95.8,66.2c2.8,4,8.5,3.7,12.7,2.7c0.2-1,0.6-2.3,0.6-3.3c0-0.1,0.1-0.4,0.1-0.7c-2.3,0.8-5.4,1.5-7.6,0.1 c-1.9-1.2-2.3-3.5-2.2-5.6c0.2-2.1,1.2-4.2,3.3-5c2.3-0.9,4.9-0.2,7.1,0.5c-0.1-1.3-0.2-2.5-0.2-3.3c0-0.1,0-0.3-0.1-0.7 c-4.1-1-9.5-1.5-12.6,1.8c-0.1,0.1-0.1,0.1-0.2,0.2C93.8,56.2,93.2,62.5,95.8,66.2z"></path> <path d="M120.3,69.5c1.9,0.1,3.9-0.1,5.8-0.4c0.3,0,1-0.1,1.3-0.2c0.4-0.2,0.2-0.1,0.4-0.6c0.2-0.5,0.2-1,0.2-1.5 c0.1-0.6,0.2-1.2,0.3-1.8c-2.6,0.8-5.7,1.8-8.4,0.9c-2.7-0.9-3.7-3.4-3.4-6.1l13.3,0c0.6-3.7-0.7-7.4-4.3-8.9 c-3.4-1.3-8-1-10.8,1.4c-3.2,2.7-4.1,7.9-2.7,11.7C113.1,67.7,116.5,69.2,120.3,69.5z M121.4,53.2c2.6,0.1,3.6,2,3.6,4.4h-8.5 C117,55,118.6,53.1,121.4,53.2z"></path> <path class="st0" d="M2.3,48.1c5,0.4,10.3,0,15.3,0c1.7,0,3.6,0,5.1,1.1c1,0.7,2.6,2.7,2.4,4.1c0.1-0.5,0-1,0-1.5 c0.1-4.4,0.2-8.7,0.3-13.1c0-2,0.3-4.1,0.1-6.1c-0.2-1.4-1.1-2-2.5-2c0,0,0,0,0,0c-5.3,0-10.7,0-16,0c-1.6,0-5-0.4-6,0.8 C0.5,32,0.6,33,0.6,33.7c0,1.3-0.1,2.7-0.1,4c-0.1,2.6-0.3,5.3-0.2,7.9C0.3,47.2,0.7,48,2.3,48.1z M16.9,37h1 c0-0.8-0.1-1.9,0.6-2.5c0.9-0.8,2.5-0.5,3.5-0.3c0,0.6,0,1,0.1,1.4c-1.2-0.4-2.4-0.4-2.4,1.1V37h1.9l-0.1,0.8l0,0.7h-1.8 c-0.1,1.7-0.2,4.3-0.2,6c-0.7,0-1.4,0-2.1,0c0.1-1.5,0.1-1.8,0.3-6h-0.9C16.9,38.1,16.9,37.3,16.9,37z M11.4,37h1 c0-0.8-0.1-1.9,0.6-2.5c0.9-0.8,2.5-0.5,3.5-0.3c0,0.6,0,1,0.1,1.4c-1.2-0.4-2.4-0.4-2.4,1.1V37h1.9L16,37.7l0,0.7h-1.8 c-0.1,1.7-0.2,4.3-0.2,6c-0.7,0-1.4,0-2.1,0c0.1-1.5,0.1-1.8,0.3-6h-0.9C11.3,38.1,11.4,37.3,11.4,37z M5.2,40.2 c0.7-0.2,3.6-0.4,3.1-1.7c-0.5-1.3-3.4-0.2-4.2,0.1l0.1-0.5l0.1-0.6l0-0.2c1.5-0.4,3.6-0.8,5.1-0.1c1.5,0.7,1.1,2.4,1,3.8 c-0.1,0.8-0.1,2.6-0.2,3.6c-0.7,0-1.4,0-2.1,0c0.1-0.7,0.2-2,0.2-3.9c-0.9,0.6-2.5,0.5-3.1,1.4c-1,1.5,1.4,1.6,2.3,1.3 c-0.1,0.3-0.2,0.6-0.4,1.3c-1.4,0.2-3.3,0.4-3.9-1.2C2.6,41.7,3.9,40.7,5.2,40.2z"></path> </g> </svg> 