<?xml version="1.0" encoding="UTF-8"?> <!-- Generator: Adobe Illustrator 22.0.1, SVG Export Plug-In . SVG Version: 6.00 Build 0) --> <svg xmlns="http://www.w3.org/2000/svg" xmlns:xlink="http://www.w3.org/1999/xlink" id="Слой_1" x="0px" y="0px" viewBox="0 0 130 100" style="enable-background:new 0 0 130 100;" xml:space="preserve"> <g> <g> <path d="M6.9,77.9v-1c0-0.9-0.2-1.6-0.7-2c-0.5-0.4-1.2-0.6-2.1-0.6c-0.8,0-1.5,0.2-2,0.6c-0.6,0.5-0.8,1.2-0.8,2.2v3.7v0.6 c0,1,0.3,1.8,0.8,2.2c0.5,0.4,1.1,0.6,2,0.6c0.9,0,1.6-0.2,2.1-0.6c0.5-0.4,0.7-1.1,0.7-2v-0.8v-1.6H3.8v1.5h0.8v0.1v1.1 c0,0.2,0,0.4-0.1,0.5c-0.1,0.2-0.3,0.2-0.5,0.2c-0.2,0-0.4-0.1-0.5-0.2c-0.1-0.1-0.1-0.3-0.1-0.5v-1.1v-4.3c0-0.2,0-0.4,0.1-0.5 c0.1-0.1,0.2-0.2,0.5-0.2c0.2,0,0.4,0.1,0.5,0.2c0.1,0.1,0.1,0.3,0.1,0.5v1.3H6.9z"></path> <path d="M33.9,84h-2.2v-9.6h2.2c1.2,0,2,0.1,2.5,0.4c0.6,0.3,0.9,0.9,0.9,1.9c0,0.6-0.1,1.1-0.4,1.5c-0.3,0.4-0.7,0.6-1.3,0.7 c0.6,0,1,0.2,1.3,0.4c0.3,0.3,0.5,0.8,0.5,1.4v2c0,0.2,0,1.3,0,1.3h-2.2c0,0,0-1.1,0-1.3v-2c0-0.3-0.1-0.6-0.2-0.7 c-0.2-0.2-0.3-0.3-0.6-0.3h-0.4V84z M33.9,75.8v2.5c0.5,0,0.8-0.1,0.9-0.3c0.1-0.2,0.2-0.5,0.2-1c0-0.5-0.1-0.8-0.2-0.9 C34.7,75.9,34.4,75.8,33.9,75.8z"></path> <path d="M67.8,77.1v4.4c0,1-0.3,1.8-0.8,2.2c-0.5,0.4-1.1,0.6-2,0.6c-0.8,0-1.5-0.2-2-0.6c-0.6-0.5-0.9-1.2-0.9-2.2v-4.4 c0-1,0.3-1.8,0.8-2.2c0.5-0.4,1.1-0.6,2-0.6c0.8,0,1.5,0.2,2,0.6C67.5,75.3,67.8,76,67.8,77.1z M64.4,76.5v5.4 c0,0.2,0,0.4,0.1,0.6c0.1,0.1,0.2,0.2,0.5,0.2c0.2,0,0.4-0.1,0.5-0.2c0.1-0.1,0.1-0.3,0.1-0.5v-5.4c0-0.2,0-0.4-0.1-0.5 c-0.1-0.2-0.3-0.2-0.5-0.2c-0.2,0-0.4,0.1-0.5,0.2C64.5,76.1,64.4,76.3,64.4,76.5z"></path> <path d="M98.3,74.4v6.8c0,1-0.2,1.8-0.6,2.2c-0.4,0.5-1.2,0.7-2.2,0.7c-1.2,0-2-0.4-2.4-1.1c-0.3-0.4-0.4-1.1-0.4-2v-6.6h2.2v6.9 c0,0.5,0,0.8,0.1,1c0.1,0.2,0.2,0.3,0.5,0.3s0.4-0.1,0.5-0.4c0.1-0.2,0.1-0.5,0.1-1v-6.9H98.3z"></path> <path d="M125.3,84h-2.2v-9.6h2.7c1,0,1.7,0.1,2.1,0.4c0.5,0.3,0.8,0.9,0.8,1.7v1.7c0,0.7-0.3,1.2-0.8,1.6 c-0.5,0.3-1.1,0.5-1.8,0.5h-0.8V84z M125.3,75.8V79h0.3c0.4,0,0.6-0.1,0.7-0.4c0.1-0.2,0.1-0.6,0.1-1.2c0-0.5,0-0.8-0.1-1 c-0.1-0.4-0.3-0.6-0.8-0.6H125.3z"></path> </g> <path d="M124.3,46.7c-0.6,0.6-1.3,1.1-2.1,1.8c-0.8,0.6-1.7,1.2-2.6,1.7c-0.9,0.5-1.9,1-2.9,1.3c-1,0.3-1.9,0.5-2.8,0.5 c-0.3,0-0.5,0-0.8-0.1c-0.2-0.1-0.5-0.2-0.7-0.3c-0.2-0.1-0.4-0.3-0.7-0.6c-0.2-0.3-0.4-0.6-0.7-1c1.3-0.3,2.5-0.8,3.6-1.5 c1.1-0.6,2.1-1.3,2.9-2.1c0.8-0.8,1.5-1.8,2.1-2.9c0.6-1.1,0.9-2.1,0.9-3c0-0.8-0.1-1.6-0.4-2.3c-0.3-0.7-0.7-1.3-1.2-1.7 c-0.5-0.5-1.1-0.9-1.9-1.1c-0.7-0.3-1.5-0.4-2.3-0.4c-1,0-1.9,0.2-2.8,0.5c-0.8,0.4-1.6,0.8-2.3,1.4c-0.7,0.6-1.3,1.3-1.8,2.1 c-0.5,0.8-0.9,1.6-1.2,2.5c-0.3,0.9-0.7,1.9-1,3c-0.3,1.1-0.5,2.1-0.5,2.9c0,0.4,0,0.7,0,1.1c-0.8,0.6-1.6,1.1-2.5,1.6 c-0.9,0.5-1.9,1-2.9,1.3c-1,0.3-1.9,0.5-2.8,0.5c-0.3,0-0.5,0-0.8-0.1c-0.2-0.1-0.5-0.2-0.7-0.3c-0.2-0.1-0.4-0.3-0.7-0.6 c-0.2-0.3-0.4-0.6-0.7-1c1.3-0.3,2.5-0.8,3.6-1.5c1.1-0.6,2.1-1.3,2.9-2.1c0.8-0.8,1.5-1.8,2.1-2.9c0.6-1.1,0.9-2.1,0.9-3 c0-0.8-0.1-1.6-0.4-2.3c-0.3-0.7-0.7-1.3-1.2-1.7c-0.5-0.5-1.1-0.9-1.9-1.1c-0.7-0.3-1.5-0.4-2.3-0.4c-1,0-1.9,0.2-2.8,0.5 c-0.8,0.4-1.6,0.8-2.3,1.4c-0.7,0.6-1.3,1.3-1.8,2.1c-0.5,0.8-0.9,1.6-1.2,2.5c0,0,0,0.1,0,0.1c-0.3,0.2-0.5,0.3-0.8,0.5 c-0.8,0.4-1.7,0.8-2.8,1.2c-1.1,0.3-5.2,0.8-6.9,0.5l0.3-0.3c0.9-1.2,1.9-2.4,2.8-3.8c0.9-1.3,1.8-2.7,2.6-4.1 c0.8-1.4,1.6-2.8,2.3-4.2c0.7-1.4,1.3-2.7,1.8-4c0.5-1.3,0.9-2.5,1.2-3.6c0.3-1.1,0.4-2.1,0.4-3c0-0.9-0.2-1.7-0.5-2.4 c-0.3-0.6-0.7-1.2-1.1-1.5c-0.5-0.4-1-0.7-1.5-0.8c-0.6-0.2-1.1-0.3-1.6-0.3c-1.3,0-2.5,0.4-3.6,1.2c-1.1,0.8-2.1,1.8-3,3.1 c-0.9,1.3-1.7,2.9-2.4,4.6s-1.3,3.6-1.9,5.6c-0.6,2-1,4-1.4,6.1c-0.4,1.8-0.7,3.6-0.9,5.4c-0.2,0.1-0.3,0.2-0.5,0.3 c-0.8,0.4-1.7,0.8-2.8,1.2c-2.3,0.7-6.2,0.6-6.9,0.5c0,0,2.2-2.8,3.1-4.1c0.9-1.3,1.8-2.7,2.6-4.1c0.8-1.4,1.6-2.8,2.3-4.2 c0.7-1.4,1.3-2.7,1.8-4c0.5-1.3,0.9-2.5,1.2-3.6c0.3-1.1,0.4-2.1,0.4-3c0-0.9-0.2-1.7-0.5-2.4c-0.3-0.6-0.7-1.2-1.1-1.5 c-0.5-0.4-1-0.7-1.5-0.8c-0.6-0.2-1.1-0.3-1.6-0.3c-1.3,0-2.5,0.4-3.6,1.2c-1.1,0.8-2.1,1.8-3,3.1c-0.9,1.3-1.7,2.9-2.4,4.6 s-1.3,3.6-1.9,5.6c-0.6,2-1,4-1.4,6.1c-0.2,1.3-0.5,2.5-0.7,3.8c-0.9-1.1-1.9-2-3-2.8c-1.1-0.7-2.2-1.3-3.5-1.8 c-1.2-0.4-2.6-0.7-4-0.7c-1.6,0-3.1,0.3-4.4,0.9c-1.3,0.6-2.4,1.4-3.3,2.5c-0.9,1-1.6,2.3-2.1,3.7c-0.5,1.4-0.7,3-0.7,4.9 c-1,0.7-2,1.3-3,2.1c-1.1,0.8-2.3,1.7-3.4,2.5c-1.1,0.8-2.3,1.6-3.6,2.2c-1.2,0.7-2.5,1.2-3.9,1.6c-1.4,0.4-2.8,0.6-4.4,0.6 c-1.3,0-2.4-0.2-3.4-0.6c-1-0.4-1.9-1-2.6-1.8c-0.7-0.8-1.2-1.8-1.6-2.9c-0.4-1.2-0.6-2.6-0.6-4.1c0-1.1,0.1-2.3,0.3-3.5 c0.2-1.3,0.5-2.6,0.9-4c0.4-1.4,0.9-2.7,1.5-4.1c0.6-1.4,1.2-2.7,1.9-3.9c0.7-1.3,1.5-2.4,2.3-3.6c0.8-1.1,1.7-2.1,2.7-2.9 c0.9-0.8,1.9-1.4,2.9-1.9c1-0.5,2.1-0.7,3.1-0.7c0.9,0,1.7,0.1,2.3,0.4c0.6,0.3,1.1,0.6,1.5,1.1c0.4,0.5,0.7,1,0.9,1.6 c0.2,0.6,0.3,1.2,0.3,1.9c0,1.3-0.2,2.4-0.7,3.5c-0.5,1-1.1,1.9-1.9,2.7C25.8,34,25,34.5,24,35c-1,0.4-1.9,0.6-2.9,0.6 c-0.4,0-0.6,0-0.9-0.1c-0.2-0.1-0.4-0.1-0.6-0.2c-0.2-0.1-0.3-0.1-0.4-0.2c-0.1-0.1-0.3-0.1-0.5-0.1c-0.3,0-0.5,0.1-0.7,0.2 c-0.2,0.1-0.3,0.3-0.4,0.6c-0.1,0.2-0.1,0.5-0.2,0.8c0,0.3,0,0.6,0,0.8c0,0.2,0,0.3,0,0.5c0,0.2,0,0.3,0,0.4c0,0.7,0.3,1.2,1,1.6 c0.7,0.4,1.7,0.5,3,0.5c1,0,2-0.2,3.1-0.6c1-0.4,2-0.9,3-1.6c0.9-0.7,1.8-1.4,2.7-2.3c0.8-0.9,1.5-1.9,2.1-2.9 c0.6-1,1.1-2.1,1.4-3.2c0.3-1.1,0.5-2.2,0.5-3.3c0-1.6-0.3-3-0.8-4.2c-0.6-1.2-1.3-2.2-2.1-3c-0.9-0.8-1.9-1.4-3-1.7 c-1.1-0.4-2.2-0.6-3.2-0.6c-1.6,0-3.2,0.3-4.8,0.8c-1.5,0.5-3,1.3-4.4,2.2c-1.4,0.9-2.7,2.1-3.9,3.3c-1.2,1.3-2.3,2.7-3.3,4.2 c-1,1.5-1.9,3.1-2.7,4.7c-0.8,1.6-1.5,3.3-2,4.9c-0.6,1.6-1,3.2-1.3,4.8c-0.3,1.6-0.4,3-0.4,4.4c0,2,0.3,3.9,0.9,5.7 c0.6,1.8,1.5,3.4,2.6,4.7c1.1,1.4,2.5,2.4,4.1,3.2c1.6,0.8,3.4,1.2,5.4,1.2c1.8,0,3.5-0.1,4.9-0.4c1.5-0.2,2.9-0.6,4.1-1 c1.2-0.4,2.4-0.9,3.4-1.4c1-0.5,2-1.1,2.8-1.7c0.9-0.6,1.7-1.3,2.4-2c0.7-0.7,1.5-1.4,2.2-2c0.2-0.2,0.5-0.4,0.7-0.6 c0.2,0.6,0.5,1.2,0.9,1.7c0.6,0.9,1.4,1.7,2.3,2.2c0.9,0.6,2,0.9,3.3,0.9c0.9,0,1.8-0.2,2.6-0.5c0.8-0.3,1.5-0.7,2.2-1.3 c0.7-0.5,1.3-1.2,1.8-1.9c0.5-0.7,1-1.5,1.3-2.3c0.4-0.8,0.6-1.7,0.8-2.6c0.2-0.9,0.3-1.8,0.3-2.6c0-1.2-0.1-2.3-0.3-3.2 c-0.2-1-0.5-1.9-1-2.7l0.2-0.2c0.5,0.4,1.2,0.8,1.9,1.3c0.7,0.5,1.5,1.2,2.3,1.9c0.4,0.4,0.7,0.7,1.1,1c-0.2,1.6-0.4,3.1-0.5,4.5 c-0.2,1.8-0.3,3.4-0.4,4.8c-0.1,1.4-0.2,2.5-0.2,3.3c0,0.8-0.1,1.3-0.1,1.4c0,0.9,0,1.8,0.1,2.8c0.1,1,0.2,1.9,0.3,2.8 c0.2,0.9,0.4,1.8,0.7,2.7c0.3,0.8,0.6,1.6,1.1,2.2c0.4,0.6,0.9,1.1,1.5,1.5c0.6,0.4,1.3,0.6,2.1,0.6c0.9,0,1.6-0.2,2.3-0.5 c0.7-0.3,1.3-0.8,1.8-1.3c0.5-0.6,1-1.2,1.4-1.9c0.4-0.7,0.7-1.5,1-2.2c0.3-0.8,0.5-1.5,0.7-2.3c0.2-0.8,0.3-1.4,0.4-2.1 c0.1-0.6,0.2-1.1,0.2-1.6c0-0.4,0.1-0.7,0.1-0.8c0-1.1-0.2-2.3-0.5-3.4c-0.3-1.1-0.7-2.1-1.1-3c-0.5-1.1-1-2.1-1.5-3 c1.1,0,2.1-0.1,3.2-0.3c0.9-0.1,1.9-0.4,3-0.7c0.3-0.1,0.7-0.2,1-0.3c-0.1,0.5-0.1,1.1-0.2,1.6c-0.2,1.8-0.3,3.4-0.4,4.8 c-0.1,1.4-0.2,2.5-0.2,3.3c0,0.8-0.1,1.3-0.1,1.4c0,0.9,0,1.8,0.1,2.8c0.1,1,0.2,1.9,0.3,2.8c0.2,0.9,0.4,1.8,0.7,2.7 c0.3,0.8,0.6,1.6,1.1,2.2c0.4,0.6,0.9,1.1,1.5,1.5c0.6,0.4,1.3,0.6,2.1,0.6c0.9,0,1.6-0.2,2.3-0.5c0.7-0.3,1.3-0.8,1.8-1.3 c0.5-0.6,1-1.2,1.4-1.9c0.4-0.7,0.7-1.5,1-2.2c0.3-0.8,0.5-1.5,0.7-2.3c0.2-0.8,0.3-1.4,0.4-2.1c0.1-0.6,0.2-1.1,0.2-1.6 c0-0.4,0.1-0.7,0.1-0.8c0-1.1-0.2-2.3-0.5-3.4c-0.3-1.1-0.7-2.1-1.1-3c-0.5-1.1-1-2.1-1.5-3c1.1,0,2.1-0.1,3.2-0.3 c0.9-0.1,1.9-0.4,3-0.7c0.2-0.1,0.4-0.1,0.7-0.2c0,0.2,0,0.4,0,0.6c0,1.3,0.2,2.4,0.5,3.6c0.3,1.1,0.9,2.1,1.6,3 c0.7,0.9,1.6,1.6,2.6,2.1c1,0.5,2.3,0.8,3.6,0.8c0.9,0,1.8-0.1,2.6-0.3c0.9-0.2,1.7-0.5,2.5-0.8c0.8-0.3,1.6-0.7,2.3-1.2 c0.7-0.4,1.4-0.9,2.1-1.4c0.1-0.1,0.2-0.2,0.3-0.2c0.2,0.4,0.4,0.7,0.7,1.1c0.7,0.9,1.6,1.6,2.6,2.1c1,0.5,2.3,0.8,3.6,0.8 c0.9,0,1.8-0.1,2.6-0.3c0.9-0.2,1.7-0.5,2.5-0.8c0.8-0.3,1.6-0.7,2.3-1.2c0.7-0.4,1.4-0.9,2.1-1.4c1.5-1.1,2.9-2.3,4.2-3.7 L124.3,46.7z M46.9,47.1c-0.2,1.1-0.5,2-0.9,2.8c-0.4,0.8-0.8,1.4-1.2,1.9c-0.5,0.5-1,0.8-1.5,0.8c-0.6,0-1.1-0.1-1.5-0.4 c-0.4-0.2-0.7-0.6-1-1c-0.3-0.4-0.4-0.9-0.6-1.4c-0.1-0.5-0.2-1.1-0.2-1.8c0-1.2,0.1-2.3,0.4-3.3c0.2-1,0.6-1.9,1-2.7 c0.4-0.8,0.9-1.5,1.4-2c0.5-0.5,1.1-0.8,1.7-0.8c0.5,0,0.9,0.1,1.2,0.4c0.3,0.3,0.6,0.6,0.8,1c0.2,0.4,0.4,0.9,0.5,1.5 c0.1,0.6,0.2,1.2,0.2,1.9C47.2,45,47.1,46,46.9,47.1z M62,36.1c0.1-1,0.3-2.1,0.5-3.3c0.3-1.3,0.6-2.7,1.2-4.3 c0.6-1.8,1.3-3.6,2.2-5.6c0.5-1.2,0.9-1.9,1.1-2.2c0.3-0.4,0.8-0.5,1.6-0.5c0.5,0,0.9,0.2,1.1,0.5c0.2,0.4,0.3,0.9,0.3,1.7 c0,0.6-0.3,1.5-0.8,2.8c-0.5,1.3-1.2,2.7-2,4.1c-0.8,1.4-1.6,2.9-2.7,4.5c-1,1.6-2,3.3-2.9,5C61.8,37.9,61.9,37,62,36.1z M62.9,60.4c-0.1,0.8-0.2,1.6-0.3,2.3c-0.2,0.7-0.4,1.3-0.7,1.7c-0.3,0.5-0.7,0.7-1.2,0.7c-0.2,0-0.3-0.1-0.5-0.3 c-0.2-0.2-0.3-0.6-0.4-1.3c-0.1-0.7-0.2-1.6-0.3-2.9c-0.1-1.3-0.1-3-0.1-5.2c0-0.3,0-0.7,0-1.3c0-0.5,0.1-1.1,0.1-1.7 c0-0.6,0.1-1.4,0.2-2.3c0.1-0.9,0.1-1.7,0.2-2.2c0-0.5,0.1-0.9,0.2-1.3c0.1-0.3,0.1-0.5,0.2-0.5c0.2,0,0.4,0.2,0.6,0.6 c0.2,0.4,0.5,0.9,0.8,1.4c0.3,0.6,0.6,1.4,0.8,2.5c0.2,1.1,0.3,2.1,0.4,3c0.1,0.9,0.1,1.7,0.1,2.4c0,0.8,0,1.4,0,1.9 C63,58.7,63,59.5,62.9,60.4z M78.8,36.1c0.1-1,0.3-2.1,0.5-3.3c0.3-1.3,0.6-2.7,1.2-4.3c0.6-1.8,1.3-3.6,2.2-5.6 c0.5-1.2,0.9-1.9,1.1-2.2c0.3-0.4,0.8-0.5,1.6-0.5c0.5,0,0.9,0.2,1.1,0.5c0.2,0.4,0.3,0.9,0.3,1.7c0,0.6-0.3,1.5-0.8,2.8 c-0.5,1.3-1.2,2.7-2,4.1c-0.8,1.4-1.6,2.9-2.7,4.5s-2,3.3-2.9,5C78.6,37.9,78.7,37,78.8,36.1z M79.7,60.4c-0.1,0.8-0.2,1.6-0.3,2.3 c-0.2,0.7-0.4,1.3-0.7,1.7c-0.3,0.5-0.7,0.7-1.2,0.7c-0.2,0-0.3-0.1-0.5-0.3c-0.2-0.2-0.3-0.6-0.4-1.3c-0.1-0.7-0.2-1.6-0.3-2.9 c-0.1-1.3-0.1-3-0.1-5.2c0-0.3,0-0.7,0-1.3c0-0.5,0.1-1.1,0.1-1.7c0-0.6,0.1-1.4,0.2-2.3c0.1-0.9,0.1-1.7,0.2-2.2 c0-0.5,0.1-0.9,0.2-1.3c0.1-0.3,0.1-0.5,0.2-0.5c0.2,0,0.4,0.2,0.6,0.6c0.2,0.4,0.5,0.9,0.8,1.4c0.3,0.6,0.6,1.4,0.8,2.5 c0.2,1.1,0.3,2.1,0.4,3c0.1,0.9,0.1,1.7,0.1,2.4c0,0.8,0,1.4,0,1.9C79.7,58.7,79.7,59.5,79.7,60.4z M93.8,45.2c0-0.4,0.2-1,0.4-1.7 c0.2-0.7,0.5-1.3,0.6-1.8c0.2-0.5,0.4-0.9,0.7-1.3c0.3-0.4,0.7-0.7,1.1-0.9c0.5-0.2,1-0.3,1.6-0.3c0.4,0,0.7,0.2,0.9,0.6 c0.2,0.4,0.4,1,0.4,1.6c0,0.5-0.3,1.1-0.8,1.8c-0.5,0.7-1.1,1.3-1.6,1.7c-0.5,0.4-1.1,0.8-1.8,1c-0.6,0.3-1.2,0.4-1.8,0.4 C93.7,46,93.7,45.6,93.8,45.2z M110.5,45.2c0-0.4,0.2-1,0.4-1.7c0.2-0.7,0.5-1.3,0.6-1.8c0.2-0.5,0.4-0.9,0.7-1.3 c0.3-0.4,0.7-0.7,1.1-0.9c0.5-0.2,1-0.3,1.6-0.3c0.4,0,0.7,0.2,0.9,0.6c0.2,0.4,0.4,1,0.4,1.6c0,0.5-0.3,1.1-0.8,1.8 c-0.5,0.7-1.1,1.3-1.6,1.7c-0.5,0.4-1.1,0.8-1.8,1c-0.6,0.3-1.2,0.4-1.8,0.4C110.5,46,110.5,45.6,110.5,45.2z"></path> </g> </svg> 