<?xml version="1.0" encoding="UTF-8"?> <!-- Generator: Adobe Illustrator 21.0.2, SVG Export Plug-In . SVG Version: 6.00 Build 0) --> <svg xmlns="http://www.w3.org/2000/svg" xmlns:xlink="http://www.w3.org/1999/xlink" id="Layer_1" x="0px" y="0px" viewBox="0 0 100 120" style="enable-background:new 0 0 100 120;" xml:space="preserve"> <style type="text/css"> .st0{fill:#61A706;} </style> <g> <path d="M8.6,90.2l1.3,0.4c-0.3,1.3-0.7,2.3-1.4,3c-0.7,0.7-1.5,1-2.5,1c-1,0-1.9-0.3-2.5-0.8c-0.6-0.5-1.1-1.3-1.5-2.3 c-0.3-1-0.5-2.1-0.5-3.2c0-1.3,0.2-2.3,0.6-3.3c0.4-0.9,0.9-1.6,1.6-2.1c0.7-0.5,1.5-0.7,2.3-0.7c1,0,1.8,0.3,2.4,0.9 c0.6,0.6,1.1,1.5,1.4,2.6L8.5,86c-0.2-0.9-0.5-1.5-1-1.9c-0.4-0.4-0.9-0.6-1.6-0.6c-0.7,0-1.3,0.2-1.8,0.7c-0.5,0.4-0.8,1-1,1.8 c-0.2,0.7-0.3,1.5-0.3,2.3c0,1,0.1,1.9,0.4,2.7c0.2,0.8,0.6,1.3,1.1,1.7c0.5,0.4,1,0.6,1.6,0.6c0.7,0,1.3-0.3,1.8-0.8 C8.1,92,8.5,91.2,8.6,90.2L8.6,90.2z"></path> <path d="M10.9,90.1c0-1.6,0.4-2.8,1.1-3.6c0.6-0.6,1.3-1,2.2-1c0.9,0,1.7,0.4,2.3,1.2c0.6,0.8,0.9,1.9,0.9,3.3c0,1.1-0.1,2-0.4,2.6 c-0.3,0.6-0.7,1.1-1.2,1.5c-0.5,0.4-1.1,0.5-1.7,0.5c-1,0-1.7-0.4-2.3-1.2C11.2,92.7,10.9,91.5,10.9,90.1L10.9,90.1z M12.1,90.1 c0,1.1,0.2,2,0.6,2.5c0.4,0.6,0.9,0.8,1.5,0.8c0.6,0,1.1-0.3,1.5-0.8c0.4-0.6,0.6-1.4,0.6-2.5c0-1.1-0.2-1.9-0.6-2.4 c-0.4-0.6-0.9-0.8-1.4-0.8c-0.6,0-1.1,0.3-1.5,0.8C12.3,88.1,12.1,89,12.1,90.1L12.1,90.1z"></path> <path d="M18.7,94.4v-8.7h1.1V87c0.3-0.6,0.5-1,0.7-1.2c0.2-0.2,0.5-0.3,0.8-0.3c0.4,0,0.8,0.2,1.2,0.5L22,87.3 c-0.3-0.2-0.6-0.3-0.8-0.3c-0.3,0-0.5,0.1-0.7,0.3c-0.2,0.2-0.3,0.5-0.4,0.8c-0.1,0.5-0.2,1.1-0.2,1.7v4.6L18.7,94.4L18.7,94.4z"></path> <path d="M27.8,91.6l1.2,0.2c-0.2,0.9-0.5,1.6-1.1,2.1c-0.5,0.5-1.2,0.7-2,0.7c-1,0-1.8-0.4-2.4-1.2c-0.6-0.8-0.9-1.9-0.9-3.3 c0-1.5,0.3-2.6,0.9-3.4c0.6-0.8,1.4-1.2,2.3-1.2c0.9,0,1.7,0.4,2.3,1.2c0.6,0.8,0.9,1.9,0.9,3.3c0,0.1,0,0.2,0,0.4h-5.1 c0,1,0.3,1.7,0.6,2.2c0.4,0.5,0.9,0.8,1.4,0.8c0.4,0,0.8-0.1,1.1-0.4C27.4,92.7,27.7,92.2,27.8,91.6L27.8,91.6z M24,89.2h3.8 c-0.1-0.7-0.2-1.3-0.4-1.7C27,87,26.6,86.7,26,86.7c-0.5,0-1,0.2-1.4,0.7C24.3,87.9,24.1,88.5,24,89.2L24,89.2z"></path> <polygon points="30.5,94.4 30.5,82.4 31.7,82.4 31.7,94.4 "></polygon> <path d="M37.3,82.4h3.5c0.8,0,1.4,0.1,1.8,0.2c0.6,0.2,1,0.6,1.4,1.1c0.4,0.5,0.7,1.2,0.9,2c0.2,0.8,0.3,1.7,0.3,2.8 c0,1-0.1,1.8-0.3,2.6c-0.2,0.9-0.6,1.6-1,2.1c-0.3,0.4-0.8,0.7-1.3,1c-0.4,0.2-1,0.3-1.7,0.3h-3.6L37.3,82.4L37.3,82.4z M39.2,84.4 v8h1.4c0.5,0,0.9,0,1.2-0.1c0.3-0.1,0.6-0.3,0.8-0.5c0.2-0.2,0.4-0.6,0.5-1.2c0.1-0.5,0.2-1.3,0.2-2.2c0-0.9-0.1-1.6-0.2-2.1 s-0.3-0.9-0.5-1.2c-0.2-0.3-0.5-0.5-0.9-0.6c-0.3-0.1-0.8-0.1-1.6-0.1L39.2,84.4L39.2,84.4z"></path> <path d="M46.9,94.4v-12h4c1,0,1.8,0.1,2.2,0.3c0.5,0.2,0.8,0.6,1.1,1.2c0.3,0.6,0.4,1.2,0.4,1.9c0,0.9-0.2,1.7-0.6,2.2 c-0.4,0.6-1,1-1.9,1.1c0.4,0.3,0.8,0.6,1,1c0.3,0.4,0.6,1,1.1,2l1.2,2.4h-2.3l-1.4-2.6c-0.5-0.9-0.8-1.5-1-1.8 c-0.2-0.2-0.4-0.4-0.6-0.5c-0.2-0.1-0.5-0.1-1-0.1h-0.4v5L46.9,94.4L46.9,94.4z M48.8,87.5h1.4c0.9,0,1.5-0.1,1.7-0.1 c0.2-0.1,0.4-0.3,0.5-0.5c0.1-0.2,0.2-0.5,0.2-0.9c0-0.4-0.1-0.7-0.3-1c-0.2-0.2-0.4-0.4-0.7-0.5c-0.2,0-0.6,0-1.4,0h-1.5 L48.8,87.5L48.8,87.5z"></path> <path d="M65,94.4H63l-0.8-2.7h-3.8l-0.8,2.7h-2l3.7-12h2L65,94.4L65,94.4z M61.5,89.6l-1.3-4.5l-1.3,4.5H61.5L61.5,89.6z"></path> <polygon points="66.6,94.4 64.4,82.4 66.4,82.4 67.8,90.7 69.5,82.4 71.8,82.4 73.5,90.8 74.9,82.4 76.9,82.4 74.6,94.4 72.5,94.4 70.6,85.4 68.7,94.4 "></polygon> <path d="M35.7,100v-0.7h1.9v2.3c-0.3,0.3-0.6,0.6-0.9,0.7s-0.6,0.2-1,0.2c-0.4,0-0.9-0.1-1.2-0.4c-0.4-0.3-0.6-0.6-0.8-1.1 c-0.2-0.5-0.3-1-0.3-1.7c0-0.6,0.1-1.2,0.3-1.7c0.2-0.5,0.5-0.9,0.8-1.2c0.3-0.3,0.7-0.4,1.2-0.4c0.3,0,0.6,0.1,0.9,0.2 c0.3,0.1,0.5,0.3,0.6,0.6c0.2,0.3,0.3,0.6,0.3,1L37,98.2c-0.1-0.3-0.2-0.6-0.3-0.7c-0.1-0.2-0.2-0.3-0.4-0.4 c-0.2-0.1-0.4-0.2-0.6-0.2c-0.3,0-0.5,0.1-0.7,0.2c-0.2,0.1-0.4,0.3-0.5,0.5c-0.1,0.2-0.2,0.4-0.3,0.6c-0.1,0.4-0.2,0.8-0.2,1.2 c0,0.6,0.1,1,0.2,1.4c0.1,0.4,0.3,0.6,0.6,0.8c0.3,0.2,0.6,0.3,0.8,0.3c0.3,0,0.5-0.1,0.8-0.2c0.2-0.1,0.4-0.3,0.6-0.4V100 L35.7,100L35.7,100z"></path> <path d="M38.5,102.5V98H39v0.7c0.1-0.3,0.2-0.5,0.4-0.6c0.1-0.1,0.2-0.2,0.4-0.2c0.2,0,0.4,0.1,0.6,0.2l-0.2,0.7 c-0.1-0.1-0.3-0.2-0.4-0.2c-0.1,0-0.2,0.1-0.3,0.2c-0.1,0.1-0.2,0.2-0.2,0.4c-0.1,0.3-0.1,0.6-0.1,0.9v2.3L38.5,102.5L38.5,102.5z"></path> <path d="M42.7,101.9c-0.2,0.2-0.4,0.4-0.6,0.5c-0.2,0.1-0.4,0.1-0.6,0.1c-0.4,0-0.6-0.1-0.8-0.4s-0.3-0.5-0.3-0.9 c0-0.2,0-0.4,0.1-0.6c0.1-0.2,0.2-0.3,0.3-0.4c0.1-0.1,0.3-0.2,0.4-0.2c0.1,0,0.3-0.1,0.5-0.1c0.5-0.1,0.8-0.2,1-0.3 c0-0.1,0-0.2,0-0.2c0-0.3-0.1-0.5-0.2-0.7c-0.1-0.2-0.4-0.3-0.6-0.3c-0.3,0-0.5,0.1-0.6,0.2c-0.1,0.1-0.2,0.3-0.3,0.7l-0.5-0.1 c0.1-0.3,0.1-0.6,0.2-0.8c0.1-0.2,0.3-0.3,0.5-0.5c0.2-0.1,0.5-0.2,0.7-0.2s0.5,0,0.7,0.1c0.2,0.1,0.3,0.2,0.4,0.3 c0.1,0.1,0.1,0.3,0.2,0.5c0,0.1,0,0.4,0,0.7v1c0,0.7,0,1.2,0,1.3c0,0.2,0.1,0.4,0.1,0.5h-0.6C42.8,102.3,42.8,102.1,42.7,101.9 L42.7,101.9z M42.7,100.2c-0.2,0.1-0.5,0.2-0.9,0.3c-0.2,0-0.4,0.1-0.5,0.2c-0.1,0.1-0.2,0.1-0.2,0.2c-0.1,0.1-0.1,0.2-0.1,0.4 c0,0.2,0.1,0.4,0.2,0.5c0.1,0.1,0.3,0.2,0.5,0.2c0.2,0,0.4-0.1,0.6-0.2c0.2-0.1,0.3-0.3,0.4-0.5c0.1-0.2,0.1-0.4,0.1-0.8 L42.7,100.2L42.7,100.2z"></path> <path d="M44.1,104.2V98h0.5v0.6c0.1-0.2,0.3-0.4,0.4-0.5c0.2-0.1,0.3-0.2,0.5-0.2c0.3,0,0.5,0.1,0.7,0.3c0.2,0.2,0.4,0.5,0.5,0.8 c0.1,0.4,0.2,0.8,0.2,1.2c0,0.5-0.1,0.9-0.2,1.2c-0.1,0.4-0.3,0.6-0.5,0.8c-0.2,0.2-0.5,0.3-0.7,0.3c-0.2,0-0.4-0.1-0.5-0.2 c-0.1-0.1-0.3-0.2-0.4-0.4v2.2H44.1L44.1,104.2z M44.6,100.2c0,0.6,0.1,1,0.3,1.3c0.2,0.3,0.4,0.4,0.6,0.4c0.2,0,0.5-0.1,0.6-0.4 c0.2-0.3,0.3-0.7,0.3-1.3c0-0.6-0.1-1-0.3-1.3c-0.2-0.3-0.4-0.4-0.6-0.4c-0.2,0-0.4,0.2-0.6,0.5C44.7,99.2,44.6,99.7,44.6,100.2 L44.6,100.2z"></path> <path d="M47.7,102.5v-6.2h0.6v2.2c0.3-0.4,0.6-0.6,1-0.6c0.2,0,0.5,0.1,0.6,0.2c0.2,0.1,0.3,0.3,0.4,0.5c0.1,0.2,0.1,0.6,0.1,1v2.8 h-0.6v-2.8c0-0.4-0.1-0.7-0.2-0.8c-0.1-0.2-0.3-0.3-0.5-0.3c-0.2,0-0.3,0.1-0.5,0.2c-0.1,0.1-0.2,0.3-0.3,0.5 c-0.1,0.2-0.1,0.5-0.1,0.8v2.5L47.7,102.5L47.7,102.5z"></path> <path d="M51.2,97.1v-0.9h0.6v0.9H51.2L51.2,97.1z M51.2,102.5V98h0.6v4.5H51.2L51.2,102.5z"></path> <path d="M54.8,100.8l0.5,0.1c-0.1,0.5-0.2,0.9-0.5,1.2c-0.2,0.3-0.6,0.4-0.9,0.4c-0.5,0-0.8-0.2-1.1-0.6c-0.3-0.4-0.4-1-0.4-1.7 c0-0.5,0.1-0.9,0.2-1.3c0.1-0.4,0.3-0.6,0.5-0.8c0.2-0.2,0.5-0.3,0.8-0.3c0.4,0,0.7,0.1,0.9,0.4c0.2,0.2,0.4,0.6,0.4,1.1l-0.5,0.1 c-0.1-0.3-0.1-0.5-0.3-0.7c-0.1-0.2-0.3-0.2-0.5-0.2c-0.3,0-0.5,0.1-0.7,0.4c-0.2,0.3-0.3,0.7-0.3,1.3c0,0.6,0.1,1,0.3,1.3 c0.2,0.3,0.4,0.4,0.7,0.4c0.2,0,0.4-0.1,0.6-0.3C54.6,101.5,54.7,101.2,54.8,100.8L54.8,100.8z"></path> <path d="M55.6,101.1l0.6-0.1c0,0.3,0.1,0.5,0.3,0.7c0.1,0.2,0.3,0.2,0.6,0.2c0.3,0,0.4-0.1,0.6-0.2c0.1-0.1,0.2-0.3,0.2-0.5 c0-0.2-0.1-0.3-0.2-0.4c-0.1-0.1-0.3-0.2-0.6-0.3c-0.4-0.1-0.7-0.3-0.8-0.4c-0.2-0.1-0.3-0.2-0.4-0.4c-0.1-0.2-0.1-0.4-0.1-0.6 c0-0.2,0-0.4,0.1-0.6c0.1-0.2,0.2-0.3,0.3-0.4c0.1-0.1,0.2-0.2,0.4-0.2c0.2-0.1,0.3-0.1,0.5-0.1c0.3,0,0.5,0.1,0.7,0.2 s0.3,0.2,0.4,0.4c0.1,0.2,0.2,0.4,0.2,0.7l-0.5,0.1c0-0.2-0.1-0.4-0.2-0.5c-0.1-0.1-0.3-0.2-0.5-0.2c-0.3,0-0.4,0.1-0.5,0.2 c-0.1,0.1-0.2,0.3-0.2,0.4c0,0.1,0,0.2,0.1,0.3c0,0.1,0.1,0.1,0.2,0.2c0.1,0,0.2,0.1,0.5,0.2c0.4,0.1,0.7,0.3,0.8,0.4 c0.2,0.1,0.3,0.2,0.4,0.4s0.1,0.4,0.1,0.7c0,0.3-0.1,0.5-0.2,0.7s-0.3,0.4-0.5,0.5c-0.2,0.1-0.4,0.2-0.7,0.2c-0.4,0-0.8-0.1-1-0.4 C55.8,102,55.6,101.6,55.6,101.1L55.6,101.1z"></path> <path d="M60.6,100.5l0.6-0.1c0,0.3,0.1,0.6,0.2,0.8c0.1,0.2,0.3,0.4,0.5,0.5c0.2,0.1,0.4,0.2,0.7,0.2c0.2,0,0.4,0,0.6-0.1 c0.2-0.1,0.3-0.2,0.4-0.4c0.1-0.2,0.1-0.3,0.1-0.5c0-0.2,0-0.4-0.1-0.5c-0.1-0.1-0.2-0.3-0.4-0.4c-0.1-0.1-0.4-0.2-0.8-0.3 c-0.4-0.1-0.7-0.3-0.9-0.4c-0.2-0.2-0.4-0.3-0.5-0.6c-0.1-0.2-0.2-0.5-0.2-0.8c0-0.3,0.1-0.6,0.2-0.9c0.1-0.3,0.3-0.5,0.6-0.6 c0.2-0.1,0.5-0.2,0.8-0.2c0.3,0,0.6,0.1,0.9,0.2c0.3,0.1,0.5,0.4,0.6,0.7c0.1,0.3,0.2,0.6,0.2,1l-0.6,0.1c0-0.4-0.1-0.7-0.3-0.9 c-0.2-0.2-0.4-0.3-0.8-0.3c-0.4,0-0.6,0.1-0.8,0.3c-0.2,0.2-0.2,0.4-0.2,0.7c0,0.2,0.1,0.4,0.2,0.6c0.1,0.1,0.4,0.3,0.9,0.4 c0.5,0.2,0.8,0.3,1,0.4c0.3,0.2,0.5,0.4,0.6,0.6c0.1,0.3,0.2,0.5,0.2,0.9s-0.1,0.6-0.2,0.9c-0.1,0.3-0.3,0.5-0.6,0.7 c-0.3,0.2-0.6,0.2-0.9,0.2c-0.4,0-0.8-0.1-1-0.2c-0.3-0.2-0.5-0.4-0.7-0.7C60.7,101.3,60.6,100.9,60.6,100.5L60.6,100.5z"></path> <path d="M67.1,102.5v-0.7c-0.3,0.5-0.6,0.8-1,0.8c-0.2,0-0.4-0.1-0.5-0.2c-0.2-0.1-0.3-0.2-0.4-0.4c-0.1-0.2-0.1-0.3-0.2-0.6 c0-0.2,0-0.4,0-0.7V98h0.6v2.5c0,0.4,0,0.7,0,0.8c0,0.2,0.1,0.4,0.2,0.5c0.1,0.1,0.3,0.2,0.4,0.2c0.2,0,0.3-0.1,0.5-0.2 c0.1-0.1,0.2-0.3,0.3-0.5c0.1-0.2,0.1-0.5,0.1-0.9V98h0.6v4.5L67.1,102.5L67.1,102.5z"></path> <path d="M68.5,97.1v-0.9h0.6v0.9H68.5L68.5,97.1z M68.5,102.5V98h0.6v4.5H68.5L68.5,102.5z"></path> <path d="M72.1,102.5v-0.7c-0.3,0.5-0.6,0.8-1,0.8c-0.2,0-0.4-0.1-0.5-0.2c-0.2-0.1-0.3-0.2-0.4-0.4c-0.1-0.2-0.1-0.3-0.2-0.6 c0-0.2,0-0.4,0-0.7V98h0.6v2.5c0,0.4,0,0.7,0,0.8c0,0.2,0.1,0.4,0.2,0.5c0.1,0.1,0.3,0.2,0.4,0.2s0.3-0.1,0.5-0.2 c0.1-0.1,0.2-0.3,0.3-0.5c0.1-0.2,0.1-0.5,0.1-0.9V98h0.6v4.5L72.1,102.5L72.1,102.5z"></path> <path d="M74.7,101.8l0.1,0.7c-0.2,0-0.3,0.1-0.4,0.1c-0.2,0-0.4,0-0.5-0.1c-0.1-0.1-0.2-0.2-0.2-0.3s-0.1-0.4-0.1-0.9v-2.6h-0.4V98 h0.4v-1.1l0.6-0.5V98h0.6v0.6h-0.6v2.6c0,0.2,0,0.4,0,0.4c0,0.1,0.1,0.1,0.1,0.1c0,0,0.1,0.1,0.2,0.1 C74.5,101.8,74.6,101.8,74.7,101.8L74.7,101.8z"></path> <path d="M77.5,101l0.6,0.1c-0.1,0.5-0.3,0.8-0.5,1.1c-0.2,0.3-0.6,0.4-0.9,0.4c-0.5,0-0.9-0.2-1.1-0.6c-0.3-0.4-0.4-1-0.4-1.7 c0-0.8,0.1-1.3,0.4-1.8c0.3-0.4,0.7-0.6,1.1-0.6c0.4,0,0.8,0.2,1.1,0.6c0.3,0.4,0.4,1,0.4,1.7c0,0,0,0.1,0,0.2h-2.5 c0,0.5,0.1,0.9,0.3,1.1c0.2,0.3,0.4,0.4,0.7,0.4c0.2,0,0.4-0.1,0.5-0.2C77.3,101.6,77.4,101.3,77.5,101L77.5,101z M75.6,99.8h1.8 c0-0.4-0.1-0.7-0.2-0.8c-0.2-0.3-0.4-0.4-0.7-0.4c-0.3,0-0.5,0.1-0.6,0.3C75.7,99.1,75.6,99.4,75.6,99.8L75.6,99.8z"></path> <path class="st0" d="M81,102.4l3.7-5.6l-3.4-5.2h2.1l1.6,2.5c0.3,0.5,0.5,0.9,0.7,1.2c0.3-0.4,0.5-0.8,0.8-1.2l1.7-2.5h2.1 l-3.4,5.2l3.7,5.6h-2.1L86.3,99l-0.5-0.8l-2.7,4.1L81,102.4L81,102.4z"></path> <path class="st0" d="M93.4,96c-0.6-0.2-1-0.5-1.2-0.9c-0.3-0.4-0.4-0.9-0.4-1.5c0-0.9,0.3-1.6,0.9-2.2c0.6-0.6,1.3-0.9,2.3-0.9 s1.7,0.3,2.3,0.9c0.6,0.6,0.9,1.3,0.9,2.2c0,0.5-0.1,1-0.4,1.4c-0.3,0.4-0.7,0.7-1.2,0.9c0.7,0.2,1.2,0.6,1.5,1.1 c0.4,0.5,0.5,1.1,0.5,1.9c0,1-0.3,1.8-1,2.5c-0.7,0.7-1.5,1-2.6,1s-2-0.3-2.6-1c-0.7-0.7-1-1.5-1-2.6c0-0.8,0.2-1.4,0.5-1.9 C92.2,96.5,92.7,96.2,93.4,96L93.4,96z M93.1,93.6c0,0.6,0.2,1,0.5,1.4c0.3,0.4,0.8,0.5,1.3,0.5c0.5,0,1-0.2,1.3-0.5 c0.3-0.3,0.5-0.8,0.5-1.3c0-0.5-0.2-1-0.5-1.3c-0.3-0.4-0.8-0.5-1.3-0.5c-0.5,0-1,0.2-1.3,0.5C93.2,92.6,93.1,93.1,93.1,93.6 L93.1,93.6z M92.6,99c0,0.4,0.1,0.8,0.3,1.2c0.2,0.4,0.5,0.7,0.8,0.9c0.4,0.2,0.8,0.3,1.2,0.3c0.7,0,1.2-0.2,1.6-0.7 c0.4-0.4,0.6-1,0.6-1.7c0-0.7-0.2-1.3-0.6-1.7c-0.4-0.5-1-0.7-1.6-0.7c-0.6,0-1.2,0.2-1.6,0.7C92.8,97.7,92.6,98.3,92.6,99L92.6,99 z"></path> <polygon class="st0" points="44.6,68.7 45.9,73.8 52,73.8 53.2,68.6 "></polygon> <path class="st0" d="M47.8,65.1l0.2,0.7l0.1,0.3l1.5,0l0.2-0.1l0.2-0.5c0.9-2.3,3.3-12.4,3.8-14.9c1.4-6.9,2.4-14,1.9-21.1 c-0.2-2.7-0.7-5.7-1.7-8.2c-0.8-1.9-1.9-4.1-3.9-5c-2.2-0.9-4.3,1.3-5.3,3.1c-5,9.7-1.8,26.4,0.5,36.3l0.8,3.4 C46.7,61.2,47.2,62.9,47.8,65.1L47.8,65.1z"></path> <path class="st0" d="M47.1,65.6l-0.9-0.7C35.8,55.1,21.5,22.1,44.1,16c0.9-0.2,0.7-0.2,1.6-0.2C28,23.4,39.9,53.2,47.1,65.6 L47.1,65.6z"></path> <path class="st0" d="M50.9,65.6l0.9-0.7C62.2,55.1,76.5,22.1,54,16c-0.9-0.2-0.7-0.2-1.6-0.2C70.1,23.4,58.1,53.2,50.9,65.6 L50.9,65.6z"></path> <path class="st0" d="M36.8,18.4c-4.4,2.1-7.8,6.5-8.6,11.4l-0.2,2.1l0,1.7l0.2,1.8l0.1,0.9c1.7,9.6,9.7,22.2,16.8,28.9 C35.5,52.2,20.8,31.7,36.8,18.4L36.8,18.4z"></path> <path class="st0" d="M61.3,18.4c4.4,2.1,7.8,6.5,8.6,11.4l0.2,2.1l0,1.7l-0.2,1.8l-0.1,0.9c-1.7,9.6-9.7,22.2-16.8,28.9 C62.6,52.2,77.2,31.7,61.3,18.4L61.3,18.4z"></path> </g> </svg> 