<?xml version="1.0" encoding="UTF-8"?> <!-- Generator: Adobe Illustrator 21.0.2, SVG Export Plug-In . SVG Version: 6.00 Build 0) --> <svg xmlns="http://www.w3.org/2000/svg" xmlns:xlink="http://www.w3.org/1999/xlink" id="Layer_1" x="0px" y="0px" viewBox="0 0 100 120" style="enable-background:new 0 0 100 120;" xml:space="preserve"> <style type="text/css"> .Arched_x0020_Green{fill:url(#SVGID_1_);stroke:#FFFFFF;stroke-width:0.25;stroke-miterlimit:1;} .st0{fill:#2062AF;} .st1{fill:#3C9CD7;} .st2{fill:#FFFFFF;} .st3{fill:url(#SVGID_2_);} .st4{fill:url(#SVGID_3_);} .st5{fill:url(#SVGID_4_);} .st6{opacity:5.000000e-02;} .st7{fill:url(#SVGID_5_);} </style> <linearGradient id="SVGID_1_" gradientUnits="userSpaceOnUse" x1="-370.9448" y1="357.6401" x2="-370.2377" y2="356.933"> <stop offset="0" style="stop-color:#20AC4B"></stop> <stop offset="0.9831" style="stop-color:#19361A"></stop> </linearGradient> <g> <polygon class="st0" points="81.8,106.2 50,114.8 18.2,106.2 10.9,26.8 89.1,26.8 "></polygon> <polygon class="st1" points="50,33.2 50,107.9 50.1,108 75.8,101 81.7,33.2 "></polygon> <g> <polygon points="32,15.1 32,10.4 38.9,10.4 38.9,5.2 26.8,5.2 26.8,19.9 38.9,19.9 38.9,15.1 "></polygon> <path d="M51.3,10.4h4.8V5.2H44c0,0,0,2.6,0,5.2c1.6,1.6,2.5,2.4,4.8,4.7c-1.4,0-4.8,0-4.8,0v4.7h12.1v-4.7L51.3,10.4z"></path> <path d="M68.4,10.4h4.8V5.2H61.1c0,0,0,2.6,0,5.2c1.6,1.6,2.5,2.4,4.8,4.7c-1.4,0-4.8,0-4.8,0v4.7h12.1v-4.7L68.4,10.4z"></path> </g> <g> <polygon class="st2" points="50,53.1 27.2,62.6 28,71.9 50,62.5 73.3,52.5 74.3,43 "></polygon> <linearGradient id="SVGID_2_" gradientUnits="userSpaceOnUse" x1="38.6066" y1="71.9288" x2="38.6066" y2="53.0907"> <stop offset="0.3865" style="stop-color:#D1D3D4;stop-opacity:0"></stop> <stop offset="1" style="stop-color:#D1D3D4"></stop> </linearGradient> <polygon class="st3" points="27.2,62.6 28,71.9 50,62.5 50,53.1 "></polygon> <linearGradient id="SVGID_3_" gradientUnits="userSpaceOnUse" x1="62.1438" y1="62.533" x2="62.1438" y2="42.9517"> <stop offset="0.3865" style="stop-color:#D1D3D4;stop-opacity:0"></stop> <stop offset="1" style="stop-color:#D1D3D4"></stop> </linearGradient> <polygon class="st4" points="74.3,43 50,53.1 50,62.5 73.3,52.5 "></polygon> <linearGradient id="SVGID_4_" gradientUnits="userSpaceOnUse" x1="27.2769" y1="80.331" x2="72.5213" y2="80.331"> <stop offset="0" style="stop-color:#E8E7E5"></stop> <stop offset="1" style="stop-color:#FFFFFF"></stop> </linearGradient> <polygon class="st5" points="27.3,62.6 28,71.9 61.7,72 61,84.5 49.9,87.7 39.2,85 38.6,77.2 28.7,77.2 30,92.2 50,98.1 69.9,92.3 72.5,62.6 "></polygon> <g class="st6"> <polygon points="50,62.6 27.2,62.6 28,71.9 50,72 "></polygon> <polygon points="50,87.6 49.9,87.7 39.2,85 38.6,77.2 28.6,77.2 29.9,92.2 50,98.1 "></polygon> </g> <linearGradient id="SVGID_5_" gradientUnits="userSpaceOnUse" x1="25.1952" y1="47.7453" x2="74.3163" y2="47.7453"> <stop offset="0" style="stop-color:#E8E7E5"></stop> <stop offset="1" style="stop-color:#FFFFFF"></stop> </linearGradient> <polygon class="st7" points="25.2,43 74.3,43 73.3,52.5 26.4,52.5 "></polygon> <polygon class="st6" points="50,43 25.2,43 26.4,52.5 50,52.5 "></polygon> </g> </g> </svg> 