<?xml version="1.0" encoding="UTF-8"?> <!-- Generator: Adobe Illustrator 21.0.2, SVG Export Plug-In . SVG Version: 6.00 Build 0) --> <svg xmlns="http://www.w3.org/2000/svg" xmlns:xlink="http://www.w3.org/1999/xlink" id="Слой_1" x="0px" y="0px" viewBox="0 0 100 120" style="enable-background:new 0 0 100 120;" xml:space="preserve"> <style type="text/css"> .st0{fill-rule:evenodd;clip-rule:evenodd;fill:#0071AA;} .st1{clip-path:url(#SVGID_2_);fill-rule:evenodd;clip-rule:evenodd;fill:#008ECC;} .st2{clip-path:url(#SVGID_2_);fill-rule:evenodd;clip-rule:evenodd;fill:#A1D1E4;} .st3{clip-path:url(#SVGID_2_);fill-rule:evenodd;clip-rule:evenodd;fill:#FFFFFF;} .st4{fill:none;stroke:#046193;stroke-width:2.2677;stroke-miterlimit:22.9256;} .st5{fill-rule:evenodd;clip-rule:evenodd;fill:#FFFFFF;} .st6{fill-rule:evenodd;clip-rule:evenodd;fill:#008ECC;} </style> <g> <path class="st0" d="M46.9,5.4c-0.3,2.7-0.6,5.5-2.4,7.5c-3.6,4-8.4,6.4-12.4,8.3C22,26.1,10.5,37.5,10.5,55.7 c0,8.8,3.4,18.3,10,25.6c6.9,7.8,17.3,13.1,29.6,13c11-0.1,20-3.6,26.8-9.4c7.9-6.8,12.7-16.7,12.7-29.3c0-9.3-2.8-17.3-7.9-23.4 C71.6,20.1,63.4,19.1,58.3,16.2C54.6,14.1,51.2,10.5,46.9,5.4L46.9,5.4z"></path> <g> <defs> <path id="SVGID_1_" d="M46.9,5.4c-0.3,2.7-0.6,5.5-2.4,7.5c-3.6,4-8.4,6.4-12.4,8.3C22,26.1,10.5,37.5,10.5,55.7 c0,8.8,3.4,18.3,10,25.6c6.9,7.8,17.3,13.1,29.6,13c11-0.1,20-3.6,26.8-9.4c7.9-6.8,12.7-16.7,12.7-29.3c0-9.3-2.8-17.3-7.9-23.4 C71.6,20.1,63.4,19.1,58.3,16.2C54.6,14.1,51.2,10.5,46.9,5.4L46.9,5.4z"></path> </defs> <clipPath id="SVGID_2_"> <use xlink:href="#SVGID_1_" style="overflow:visible;"></use> </clipPath> <path class="st1" d="M77,24.2c5.3,7.9,5.2,16.5,0.5,24c-3.7,6-10.4,11.1-18.9,16.9C45.7,74,32.6,80.6,21.9,77.9 c-5.2-1.3-9.8-5.4-13.7-11.6L5,0.3l46.3-0.8L77,24.2L77,24.2z"></path> <path class="st2" d="M46.4,5.9c2.1,3.5,2.4,8.5,0,10.3c-1.2,0.9-0.9,1.3-0.5,1.7c0.9,0.7,0.2,2.2-0.7,3.6 c-5.4,7.7-16,13.9-22.4,16.7c-1.7,0.7-4.9,1.7-5.9,0.7c-2.5-2.6,2-6.7,4.5-10.4l19.8-14.1L46.4,5.9L46.4,5.9z"></path> <path class="st3" d="M46.4,4.9c2.8,6.2,2.6,9.8-3.7,12.7c-0.2,0.1-0.7,0.5,0.1,0.7c2.4,0.5-0.8,4.1-2.2,5.4 c-1.6,1.5-3.7,3.6-9.1,7.2s-11.1,5.9-12.6,5c-2.6-1.7,2.7-6.2,5.5-10.6L46.4,4.9L46.4,4.9z"></path> </g> <path class="st4" d="M46.9,5.4c-0.3,2.7-0.6,5.5-2.4,7.5c-3.6,4-8.4,6.4-12.4,8.3C22,26.1,10.5,37.5,10.5,55.7 c0,8.8,3.4,18.3,10,25.6c6.9,7.8,17.3,13.1,29.6,13c11-0.1,20-3.6,26.8-9.4c7.9-6.8,12.7-16.7,12.7-29.3c0-9.3-2.8-17.3-7.9-23.4 C71.6,20.1,63.4,19.1,58.3,16.2C54.6,14.1,51.2,10.5,46.9,5.4L46.9,5.4z"></path> <path class="st5" d="M64.3,66.1c-5.6,0-11-9.6-22.1-9.9c-8.3-0.2-14.9,6.7-14.8,13.3c0.2,8,5.9,9.9,11.2,10 c10.4,0.2,19.7-10.3,26-10.4c4.8-0.1,9.7,9.8,14,10.2c5,0.4,8.8-9.2,8.4-15c-0.2-3.9-2.5-6.7-5.4-6.6 C76.2,57.8,69.8,66.1,64.3,66.1L64.3,66.1z M54.7,78.9c2.4-2.4,4.9-3.7,7.8-3.7c4.6,0.1,4.8,1.2,6.1,3.8c0.3,0.5,0.1,1-0.1,1.3 c-0.1,0.1-0.6,0.6-0.8,0.6c-0.4,0-0.6-0.2-0.8-0.6c-1.1-2.7-2.7-2.7-4.7-2.7c-3.1,0-4.5,1.5-6.4,3C55.4,81,55,81.3,54.6,81 c-0.3-0.2-0.5-0.6-0.5-0.8C54.1,79.6,54.3,79.3,54.7,78.9L54.7,78.9z M48.4,85.3c2.5,2.2,14.1,4.1,21.1-0.5 c0.3-0.2,0.6-0.3,0.9-0.2c0.2,0.1,0.3,0.2,0.4,0.4c0,0.4,0.1,1-0.2,1.2c-4.9,4-18,6.3-24.2,1.2c-0.6-0.5-0.6-1.3-0.2-1.7 c0.3-0.3,0.6-0.5,0.9-0.7C47.4,84.8,48,84.9,48.4,85.3L48.4,85.3z"></path> <path class="st6" d="M27.7,102v2.2c0,5.2-2.3,8-9.2,8h-8.2c-0.1,0-0.2-0.1-0.2-0.2V94.1c0-0.1,0.1-0.2,0.2-0.2h8.2 C25.2,93.9,27.7,96.8,27.7,102L27.7,102z M87.1,93.5l-3.8,0.6c-0.1,0-0.2,0.1-0.2,0.2v14.4c0,3.1,2.8,4,6.2,3.3 c0.1,0,0.3-0.1,0.4-0.1c0.1,0,0.2-0.1,0.2-0.2l-0.4-2c0-0.1-0.1-0.1-0.1-0.1c-1.6,0-2,0-2-0.9v-15c0-0.1,0-0.1-0.1-0.2 C87.2,93.5,87.1,93.5,87.1,93.5L87.1,93.5z M66.9,106.7v-3.2c0-3.1-2.1-4.8-6.7-4.6c-4.6,0.1-6.4,0.5-6.4,4.2v14.1 c0,0.1,0,0.1,0.1,0.2c0,0,0.1,0.1,0.2,0l3.8-0.6c0.1,0,0.2-0.1,0.2-0.2v-2.8c0-0.6-0.4-1-0.4-1.8c1.2,0.4,2.6,0.5,4.3,0.5 C63.9,112.4,66.9,111.4,66.9,106.7L66.9,106.7z M58.1,109.8V103c0-1.3,0.1-1.7,2.2-1.7c2.1,0,2.4,1.2,2.4,2.1v3.8 c0,2-0.7,2.8-2.5,2.8C59.3,110,58.8,109.9,58.1,109.8L58.1,109.8z M42.9,98.9l-3.8,0.6c-0.1,0-0.2,0.1-0.2,0.2v8.6 c0,3.1,2.9,4.1,6.2,4.2c3.3,0.1,6.6-0.9,6.6-4.2v-9.2c0-0.1,0-0.1-0.1-0.2c0,0-0.1-0.1-0.2,0l-3.8,0.6c-0.1,0-0.2,0.1-0.2,0.2v8.6 c0,0.9-0.5,1.7-2.2,1.7c-1.7,0-2.1-0.8-2.1-1.7v-9.2c0-0.1,0-0.1-0.1-0.2C43,98.9,42.9,98.9,42.9,98.9L42.9,98.9z M72.2,107.6v1.3 c0,1.2,2.3,1.2,3.6,1.2c0.7,0,1-0.3,1-0.9v-2.9c0-0.1,0-0.1-0.1-0.1c0,0-0.1-0.1-0.2-0.1C75,106.2,72.2,106.3,72.2,107.6 L72.2,107.6z M68.1,108.9v-1.3c0-3.1,5.2-3.5,8.5-3.8c0.1,0,0.2-0.1,0.2-0.2v-0.7c0-0.7-0.3-1.3-1.4-1.5c-1.9-0.2-3.1,0.1-5.7,0.6 c-0.1,0-0.2,0-0.2-0.1l-0.5-1.8c0-0.1,0-0.2,0.1-0.2c1.6-0.6,3.7-1.1,6.1-1c2.3,0.1,5.6,0,5.6,4v6.3c0,2.7-2,3.2-6.3,3.3 C71.2,112.5,68.1,111.3,68.1,108.9L68.1,108.9z M33.9,112.1h-3.8c-0.1,0-0.2-0.1-0.2-0.2v-11.3c0,0,0-0.1,0-0.1 c0.6-1,4.1-1.5,7.6-1.4c0.1,0,0.2,0.1,0.2,0.2v2.2c0,0.1,0,0.1-0.1,0.1c0,0-0.1,0.1-0.2,0.1c-2-0.1-3.2,0.1-3.3,0.5c0,0,0,0,0,0.1 v9.6C34.1,112,34,112.1,33.9,112.1L33.9,112.1z M23.1,104.2V102c0-4-1.3-5.2-4.6-5.2h-3.8v12.5h3.8 C22.3,109.3,23.1,107.4,23.1,104.2L23.1,104.2z"></path> </g> </svg> 