<?xml version="1.0" encoding="UTF-8"?> <!-- Generator: Adobe Illustrator 22.0.1, SVG Export Plug-In . SVG Version: 6.00 Build 0) --> <svg xmlns="http://www.w3.org/2000/svg" xmlns:xlink="http://www.w3.org/1999/xlink" id="Слой_1" x="0px" y="0px" viewBox="0 0 613 768" style="enable-background:new 0 0 613 768;" xml:space="preserve"> <style type="text/css"> .st0{fill:#FAF8F6;stroke:#000000;stroke-miterlimit:10;} .st1{fill:none;stroke:#000000;stroke-miterlimit:10;} .st2{fill:none;stroke:#878787;stroke-miterlimit:10;} .st3{opacity:0.81;fill:#01A0C6;} </style> <rect class="st0" width="613" height="768"></rect> <g> <g> <circle class="st1" cx="258.7" cy="404.5" r="82.5"></circle> <circle class="st1" cx="258.7" cy="383.9" r="132.9"></circle> <circle class="st1" cx="216.7" cy="383.9" r="132.9"></circle> <circle class="st1" cx="300.6" cy="383.9" r="132.9"></circle> <circle class="st1" cx="189.3" cy="392.1" r="82.5"></circle> <circle class="st1" cx="172" cy="357.7" r="82.5"></circle> <circle class="st1" cx="345.2" cy="357.7" r="82.5"></circle> <circle class="st1" cx="258.7" cy="332.5" r="82.5"></circle> <circle class="st1" cx="326.8" cy="392.1" r="82.5"></circle> <circle class="st1" cx="299.7" cy="295" r="20.1"></circle> <circle class="st1" cx="216.7" cy="295.3" r="20.1"></circle> <line class="st1" x1="54.4" y1="337.8" x2="462.8" y2="337.8"></line> </g> <g> <rect x="124.4" y="249.8" class="st2" width="268.3" height="268.3"></rect> <rect x="124.4" y="249.8" class="st2" width="434.2" height="268.3"></rect> <rect x="392.8" y="249.8" class="st2" width="165.8" height="165.8"></rect> <rect x="456.4" y="415.7" class="st2" width="102.2" height="102.2"></rect> <rect x="392.8" y="454.5" class="st2" width="63.7" height="63.7"></rect> <rect x="392.8" y="415.7" class="st2" width="38.7" height="38.7"></rect> <rect x="431.4" y="415.7" class="st2" width="25" height="25.1"></rect> <rect x="442.8" y="440.9" class="st2" width="13.6" height="13.6"></rect> </g> <path class="st3" d="M425.4,338.1c0-0.1,0-0.2-0.1-0.3h-84.3c0-0.3,0-0.6,0.1-1c0.1-1.4,0.1-2.9,0.1-4.3c0-7.7-1.1-15.1-3-22.2 c-3.3-11.8-9.1-22.6-16.9-31.6c-10.7-12.5-25-21.7-41.4-26c-0.1,0-0.1,0-0.2,0c0,0,0,0,0,0c-6.7-1.8-13.7-2.7-21-2.7 c-7.2,0-14.3,0.9-21,2.7c0,0,0,0,0,0c0,0-0.1,0-0.2,0c-16.3,4.3-30.7,13.6-41.4,26.1c-7.7,9-13.6,19.7-16.8,31.4 c-2,7.1-3.1,14.6-3.1,22.3c0,1.4,0,2.9,0.1,4.3c0,0.3,0,0.7,0.1,1H92.1c-0.2,0.4-0.3,0.8-0.5,1.3c-1.4,6-2.1,12.2-2.1,18.6 c0,20.2,7.3,38.8,19.4,53.1l0,0c7,8.4,15.7,15.3,25.5,20.3c11.3,5.8,24.1,9.1,37.6,9.1c2.7,0,5.3-0.1,8-0.4 c5.8,12.4,13.4,23.8,22.5,33.7c15.1,16.6,34.4,29.3,56.2,36.5c21.7-7.2,41-19.9,56.1-36.3c9.2-10,16.8-21.4,22.6-33.9 c2.6,0.3,5.2,0.4,7.8,0.4c13.6,0,26.5-3.3,37.8-9.1c9-4.6,17.1-10.9,23.8-18.4v0c13.1-14.6,21-33.8,21-55 C427.8,351,427,344.4,425.4,338.1z M234.9,304.2c-2.9,5.9-8.6,10.2-15.4,11.1c-0.9,0.1-1.8,0.2-2.7,0.2c-4.8,0-9.3-1.7-12.8-4.6 c0,0,0,0,0,0c-3.2-2.7-5.6-6.3-6.7-10.5c0,0,0,0,0,0c-0.4-1.6-0.6-3.3-0.6-5c0-5.6,2.3-10.6,5.9-14.3c3.6-3.6,8.7-5.9,14.2-5.9 c2.1,0,4.2,0.3,6.1,0.9c8.1,2.6,14,10.2,14,19.2C236.9,298.5,236.2,301.5,234.9,304.2z M265.3,337.1 C265.3,337.1,265.3,337.1,265.3,337.1c-0.2,0.2-3.4,4.1-5.7,7.2c-0.5,0.7-1,1.4-1.5,2.1c-0.3-0.5-0.7-1-1-1.5 c-2.1-2.9-5.6-7.1-5.6-7.1c-4.2-4.9-9-9.2-14.3-13c3.2-0.8,6.4-1.5,9.7-2c3.9-0.6,7.8-0.8,11.9-0.8c4,0,7.9,0.3,11.7,0.8 c3,0.4,6,1,8.9,1.8C274.2,328.2,269.5,332.4,265.3,337.1z M319.4,299.4c-1,4.6-3.7,8.7-7.3,11.5c-3.4,2.6-7.7,4.2-12.3,4.2 c-0.8,0-1.5,0-2.2-0.1h0c-6.7-0.7-12.3-4.7-15.4-10.3c-1.6-2.9-2.5-6.1-2.5-9.7c0-9.1,6-16.8,14.3-19.3c1.8-0.6,3.8-0.8,5.8-0.8 c5.8,0,11,2.4,14.7,6.3c3.4,3.6,5.5,8.4,5.5,13.8C319.9,296.5,319.7,298,319.4,299.4z"></path> </g> </svg> 