<?xml version="1.0" encoding="UTF-8"?> <!-- Generator: Adobe Illustrator 22.0.1, SVG Export Plug-In . SVG Version: 6.00 Build 0) --> <svg xmlns="http://www.w3.org/2000/svg" xmlns:xlink="http://www.w3.org/1999/xlink" id="Слой_для_рисования" x="0px" y="0px" viewBox="0 0 74.3 69.9" style="enable-background:new 0 0 74.3 69.9;" xml:space="preserve"> <style type="text/css"> .st0{fill:#FDC713;} .st1{fill:#070606;} .st2{fill:#F3267B;} .st3{fill:#438EC0;} </style> <g> <g> <g> <path d="M36.3,37.7c0,4.9-1.7,9-5.2,12.5s-7.6,5.2-12.5,5.2H3.2c-0.6,0-1.1-0.2-1.6-0.7s-0.7-1-0.7-1.6c0-0.6,0.2-1.1,0.6-1.6 l11.2-11.2c-0.4-0.8-0.5-1.7-0.5-2.6c0-1.8,0.7-3.4,2-4.7c1.3-1.3,2.9-2,4.7-2s3.4,0.7,4.7,2c1.3,1.3,2,2.9,2,4.7 c0,1.8-0.7,3.4-2,4.8c-1.3,1.3-2.9,2-4.7,2c-1.1,0-2.1-0.2-3.1-0.8l-7.2,7.2h10.2c3.6,0,6.8-1.3,9.4-3.9c2.6-2.6,3.9-5.7,3.9-9.4 s-1.3-6.8-3.9-9.4s-5.7-3.8-9.4-3.8H5.3v13.3c0,0.6-0.2,1.1-0.7,1.6s-1,0.6-1.5,0.6c-0.6,0-1.1-0.2-1.6-0.6 c-0.5-0.5-0.7-1-0.7-1.6V22.1c0-0.6,0.2-1.1,0.7-1.5c0.5-0.5,1-0.7,1.6-0.7h15.5c4.9,0,9.1,1.7,12.5,5.2S36.3,32.8,36.3,37.7z"></path> <path d="M72.8,36.1c0.5,0.5,0.7,1,0.7,1.6c0,4.9-1.7,9-5.2,12.5c-3.5,3.5-7.6,5.2-12.5,5.2H40.3c-0.6,0-1.1-0.2-1.6-0.7 s-0.7-1-0.7-1.6c0-0.6,0.2-1.1,0.7-1.5c0.5-0.5,1-0.7,1.6-0.7h15.5c3.2,0,6.1-1.1,8.6-3.2c2.5-2.1,4-4.8,4.5-7.9h-6.8 c-0.5,1.4-1.3,2.4-2.4,3.2c-1.1,0.8-2.4,1.2-3.8,1.2s-2.7-0.4-3.8-1.2s-2-1.9-2.4-3.2h-9.3c-0.6,0-1.1-0.2-1.6-0.6 c-0.5-0.5-0.7-1-0.7-1.6c0-4.9,1.7-9,5.2-12.5c3.5-3.5,7.6-5.2,12.5-5.2c0.6,0,1.1,0.2,1.6,0.7c0.5,0.5,0.6,1,0.6,1.6 c0,0.6-0.2,1.1-0.6,1.5c-0.5,0.5-1,0.7-1.6,0.7c-3.6,0-6.8,1.3-9.4,3.9c-2,2-3.2,4.4-3.7,7.2h6.8c0.5-1.4,1.3-2.4,2.4-3.2 c1.1-0.8,2.4-1.2,3.8-1.2s2.7,0.4,3.8,1.2c1.1,0.8,2,1.9,2.4,3.2h9.2C71.9,35.5,72.4,35.6,72.8,36.1z"></path> </g> </g> <g> <g> <path d="M1,60.2h4.2c1.8,0,2.7,0.8,2.7,2.2c0,0.9-0.4,1.5-1.3,1.9c1.1,0.2,1.7,0.9,1.7,2c0,1.7-1,2.5-3.1,2.5H1V60.2z M4.9,63.9 c1.4,0,2.1-0.3,2.1-1.5C7,61.4,6.4,61,5,61H1.9v2.9H4.9z M5.1,68c1.5,0,2.2-0.4,2.2-1.6c0-1.2-0.6-1.7-2-1.7H1.9V68H5.1z"></path> <path d="M12.7,65.1L9,60.2h1.1l3,4.2l3.1-4.2h1.1l-3.7,4.9v3.7h-0.9V65.1z"></path> <path d="M22.9,66L22.9,66c0,1.3,1.1,2.2,2.7,2.2c1.7,0,2.7-0.7,2.7-1.8c0-1-0.7-1.2-2.2-1.5l-1.8-0.3c-1.4-0.2-2-1-2-2.1 c0-1.5,1.2-2.5,3.3-2.5c2.1,0,3.3,1,3.4,2.6h-0.9c-0.1-1.2-1-1.9-2.5-1.9c-1.5,0-2.4,0.7-2.4,1.7c0,0.9,0.7,1.2,2.2,1.5l1.6,0.3 c1.6,0.3,2.3,0.9,2.3,2.2c0,1.6-1.3,2.6-3.5,2.6c-2.3,0-3.7-1.2-3.7-2.9V66H22.9z"></path> <path d="M30.9,60.2h0.9v3.6h5.6v-3.6h0.9v8.6h-0.9v-4.2h-5.6v4.2h-0.9V60.2z"></path> <path d="M43.1,65.1l-3.7-4.9h1.1l3,4.2l3.1-4.2h1.1L44,65.1v3.7h-0.9V65.1z"></path> <path d="M48.9,60.2h0.9V68h5.4v0.8h-6.3V60.2z"></path> <path d="M59.7,69.1c-2.8,0-4.5-1.7-4.5-4.5s1.7-4.5,4.5-4.5s4.5,1.7,4.5,4.5S62.6,69.1,59.7,69.1z M63.4,64.5 c0-2.3-1.4-3.7-3.7-3.7s-3.7,1.4-3.7,3.7c0,2.3,1.4,3.7,3.7,3.7S63.4,66.9,63.4,64.5z"></path> <path d="M64.7,60.2h1l3.5,7.9l3.5-7.9h1l-3.9,8.6h-1.1L64.7,60.2z"></path> </g> </g> <g> <path class="st0" d="M11.9,0.9l10,13.3c0.3,0.4,0,0.9-0.4,0.9H1.4C1,15,0.7,14.5,1,14.1L11,0.9C11.3,0.6,11.7,0.6,11.9,0.9z"></path> <g> <g> <path class="st1" d="M8.2,7C9,6.3,10,5.8,11.1,5.8S13.2,6.3,14,7c0.1,0.1,0.2,0.3,0.2,0.4c0,0.2-0.1,0.3-0.2,0.4l-1.5,1.5 c0.1,0.2,0.2,0.4,0.2,0.7c0,0.4-0.2,0.8-0.4,1.1s-0.6,0.4-1.1,0.4c-0.4,0-0.8-0.2-1.1-0.4s-0.4-0.6-0.4-1.1 c0-0.4,0.2-0.8,0.4-1.1c0.3-0.3,0.6-0.4,1.1-0.4c0.3,0,0.4,0.1,0.6,0.2L13,7.5C12.4,7.1,11.8,7,11.2,7c-0.9,0-1.6,0.3-2.1,0.9 C8.5,8.4,8.2,9.1,8.2,10c0,0.9,0.3,1.6,0.9,2.2c0.6,0.6,1.3,0.9,2.1,0.9c0.9,0,1.6-0.3,2.1-0.9c0.6-0.6,0.9-1.3,0.9-2.2V6.4 c0-0.2,0.1-0.3,0.2-0.4c0.1-0.1,0.2-0.2,0.4-0.2S15,6,15.1,6.1c0.1,0.1,0.2,0.3,0.2,0.4V10c0,1.1-0.4,2.1-1.2,2.9 c-0.8,0.8-1.8,1.2-2.9,1.2S9,13.7,8.2,12.9C7.4,12.1,7,11.2,7,10C7,8.8,7.4,7.8,8.2,7z"></path> </g> </g> <path class="st2" d="M37.3,0.9l10,13.3c0.3,0.4,0,0.9-0.4,0.9H26.8c-0.4,0-0.7-0.5-0.4-0.9l10-13.3C36.6,0.6,37.1,0.6,37.3,0.9z"></path> <g> <g> <path class="st1" d="M32.7,10.3V7.1c0-0.1,0.1-0.3,0.2-0.4c0.1-0.1,0.3-0.2,0.4-0.2c0.2,0,0.3,0.1,0.4,0.2 c0.1,0.1,0.2,0.2,0.2,0.4v3.2c0,0.8,0.4,1.4,1,1.9c0.4,0.4,1.1,0.7,1.7,0.8v-1.4c-0.3-0.1-0.5-0.3-0.8-0.5 c-0.2-0.3-0.3-0.5-0.3-0.8c0-0.4,0.2-0.7,0.4-1C36.2,9.1,36.5,9,37,9s0.8,0.2,1.1,0.4c0.3,0.3,0.4,0.6,0.4,1 c0,0.3-0.1,0.5-0.3,0.8c-0.2,0.3-0.4,0.4-0.8,0.5v1.5h2.6v-6c0-0.1,0.1-0.3,0.2-0.4c0.1-0.1,0.3-0.2,0.4-0.2 c0.2,0,0.3,0.1,0.4,0.2c0.1,0.1,0.2,0.2,0.2,0.4v6.4c0,0.1-0.1,0.3-0.2,0.4C40.9,14,40.7,14,40.6,14H37c-1.1,0-2.2-0.4-3-1.1 C33.1,12.2,32.7,11.3,32.7,10.3z"></path> </g> </g> <path class="st3" d="M63.1,0.9l10.1,13.3c0.3,0.4,0,0.9-0.4,0.9H52.6c-0.4,0-0.7-0.5-0.4-0.9L62.2,0.9C62.5,0.6,62.9,0.6,63.1,0.9 z"></path> <g> <g> <path class="st1" d="M67,9.6c0,1.2-0.4,2.2-1.2,3.1c-0.9,0.9-1.8,1.2-3.1,1.2c-1.3,0-2.4-0.5-3.2-1.5v0.9c0,0.2-0.1,0.3-0.2,0.4 c-0.1,0.1-0.3,0.2-0.4,0.2c-0.2,0-0.3-0.1-0.4-0.2c-0.1-0.1-0.2-0.3-0.2-0.4V9.5c0-0.2,0.1-0.3,0.2-0.4C58.7,9.1,58.9,9,59,9 c0.2,0,0.3,0.1,0.4,0.2c0.1,0.1,0.2,0.3,0.2,0.4c0,0.9,0.4,1.7,1,2.3c0.6,0.6,1.4,1,2.3,1s1.7-0.4,2.3-1c0.6-0.6,1-1.4,1-2.3 s-0.4-1.7-1-2.3s-1.4-1-2.3-1c-0.7,0-1.3,0.2-1.8,0.6l1.1,1.2C62.2,8,62.5,8,62.7,8c0.4,0,0.8,0.2,1.1,0.4 c0.4,0.4,0.4,0.7,0.4,1.1c0,0.4-0.2,0.9-0.4,1.1c-0.4,0.4-0.7,0.4-1.1,0.4s-0.8-0.2-1.1-0.4c-0.4-0.4-0.4-0.7-0.4-1.1 c0-0.3,0.1-0.5,0.2-0.7l-1.6-1.6C59.6,7.2,59.5,7,59.5,7c0-0.2,0.1-0.3,0.2-0.4c0.9-0.9,1.8-1.2,3.1-1.2s2.2,0.4,3.1,1.2 C66.6,7.4,67,8.4,67,9.6z"></path> </g> </g> </g> </g> </svg> 