<?xml version="1.0" encoding="UTF-8"?> <!-- Generator: Adobe Illustrator 21.0.2, SVG Export Plug-In . SVG Version: 6.00 Build 0) --> <svg xmlns="http://www.w3.org/2000/svg" xmlns:xlink="http://www.w3.org/1999/xlink" id="Layer_1" x="0px" y="0px" viewBox="0 0 100 120" style="enable-background:new 0 0 100 120;" xml:space="preserve"> <style type="text/css"> .st0{fill:#E34E26;} .st1{fill:#EF662A;} .st2{fill:#FFFFFF;} .st3{fill:#EBEBEB;} </style> <g> <g> <g> <g> <path d="M16.7,2.4h5.2v5.1h4.8V2.4h5.2v15.5h-5.2v-5.2h-4.8v5.2h-5.2L16.7,2.4L16.7,2.4z"></path> <path d="M38.7,7.5h-4.6V2.4h14.3v5.2h-4.6v10.4h-5.2L38.7,7.5L38.7,7.5z"></path> <path d="M50.7,2.4h5.4l3.3,5.5l3.3-5.5h5.4v15.5H63v-7.7l-3.6,5.5h-0.1l-3.6-5.5v7.7h-5.1V2.4z"></path> <path d="M70.8,2.4H76v10.4h7.3v5.1H70.8V2.4z"></path> </g> </g> </g> <g id="Guides_to_delete"> <g> <polygon class="st0" points="16.5,108.3 9.1,24.7 90.9,24.7 83.5,108.3 50,117.6 "></polygon> <polygon class="st1" points="50,31.6 50,110.5 77.1,103 83.5,31.6 "></polygon> <polygon class="st2" points="24.3,41.8 27.1,72.8 62.6,72.8 61.4,86.1 50,89.2 38.6,86.1 37.8,77.6 27.5,77.6 29,94.1 50,99.9 71,94.1 73.8,62.6 36.5,62.6 35.5,52.1 74.7,52.1 74.8,52.1 75.7,41.8 "></polygon> <g> <polygon class="st3" points="50,41.8 24.3,41.8 27.1,72.8 50,72.8 50,62.6 36.5,62.6 35.5,52.1 50,52.1 "></polygon> <polygon class="st3" points="50,89.2 50,89.2 38.6,86.1 37.8,77.6 27.5,77.6 29,94.1 50,99.9 50,99.9 "></polygon> </g> </g> </g> </g> </svg> 