<?xml version="1.0" encoding="UTF-8"?> <!-- Generator: Adobe Illustrator 21.0.2, SVG Export Plug-In . SVG Version: 6.00 Build 0) --> <svg xmlns="http://www.w3.org/2000/svg" xmlns:xlink="http://www.w3.org/1999/xlink" id="Layer_1" x="0px" y="0px" viewBox="0 0 100 120" style="enable-background:new 0 0 100 120;" xml:space="preserve"> <style type="text/css"> .st0{fill:url(#SVGID_1_);} .st1{fill:#FF408C;} </style> <radialGradient id="SVGID_1_" cx="-2225.2542" cy="248.7555" r="0.1277" gradientTransform="matrix(545.6736 0 0 528.3113 1214296.75 -131384.9062)" gradientUnits="userSpaceOnUse"> <stop offset="0" style="stop-color:#4B2B36;stop-opacity:0.98"></stop> <stop offset="1" style="stop-color:#250012"></stop> </radialGradient> <path class="st0" d="M4.2,15.4h91.6v89.2H4.2V15.4z"></path> <path class="st1" d="M4.2,15.4h91.6v89.2H4.2V15.4z M0,108.7h100V11.3H0V108.7z M63.3,51.8c-0.6-0.3-1.5-0.4-2.5-0.4 c-5.4,0-9.1,4.1-9.1,11c0,7.8,3.8,11,8.6,11c1,0,2.1-0.1,3-0.5L63.3,51.8L63.3,51.8z M61.1,45c0.9,0,1.4,0,2.2,0.1V34 c0-0.3,0.2-0.4,0.4-0.4h6.7c0.3,0,0.4,0.1,0.4,0.3v38.9c0,1.2,0,2.6,0.2,4.2c0,0.3-0.1,0.3-0.4,0.5c-3.6,1.7-7.4,2.5-10.9,2.5 C50.5,80,44,74.3,44,62.7C43.9,52.7,50.5,45,61.1,45z M36.6,78.8c0,0.4-0.1,0.5-0.5,0.5h-6.4c-0.4,0-0.5-0.2-0.5-0.5V34.1 c0-0.4,0.2-0.5,0.5-0.5h6.5c0.3,0,0.5,0.1,0.5,0.5L36.6,78.8L36.6,78.8z"></path> </svg> 