<?xml version="1.0" encoding="UTF-8"?> <!-- Generator: Adobe Illustrator 21.0.2, SVG Export Plug-In . SVG Version: 6.00 Build 0) --> <svg xmlns="http://www.w3.org/2000/svg" xmlns:xlink="http://www.w3.org/1999/xlink" x="0px" y="0px" viewBox="0 0 100 120" style="enable-background:new 0 0 100 120;" xml:space="preserve"> <style type="text/css"> .st0{fill:#E6A329;} .st1{fill:#F1BF22;} .st2{fill:#FFFFFF;} .st3{fill:#EBEBEB;} </style> <g id="Layer_1"> <g id="code_x5F_html5"> </g> <g> <polygon class="st0" points="90.3,25.5 50,25.5 50,25.5 9.7,25.5 17.3,107.4 50,116.7 50,116.7 50,116.7 50,116.7 50,116.7 82.7,107.4 "></polygon> <polygon class="st1" points="50,32.2 50,109.8 50,109.8 76.5,102.2 83,32.2 "></polygon> <polygon class="st2" points="71.1,42.2 30.3,42.2 27.5,72.9 27.5,72.7 62.2,72.7 61,85.7 50,88.9 38.8,85.6 38.1,77.8 27.9,77.8 29.4,93.5 50,99.3 70.6,93.5 73.4,62.7 36.7,62.7 37.2,52.4 62.7,52.4 63.1,58.3 73.3,58.3 "></polygon> <g> <path class="st3" d="M50,42.2H30.3l-2.8,30.7l0.1-0.2H50v-10H38.1l0.5-10.3H50V42.2z M38.1,77.8H27.9l1.5,15.7L50,99.3V88.9 l-11.2-3.2L38.1,77.8z"></path> </g> <g> <polygon points="42.2,13.5 35,13.5 35,18.6 42.2,18.6 46,18.6 47.3,18.6 47.3,3.3 42.2,3.3 "></polygon> <path d="M65,3.4H52.5c0,0,0,2.7,0,5.4c1.7,1.7,2.5,2.5,5,4.9c-1.4,0-5,0-5,0v4.9H65v-4.9l-5-4.9h5V3.4z"></path> </g> </g> </g> <g id="Layer_2"> </g> </svg> 