<?xml version="1.0" encoding="UTF-8"?> <!-- Generator: Adobe Illustrator 20.1.0, SVG Export Plug-In . SVG Version: 6.00 Build 0) --> <svg xmlns="http://www.w3.org/2000/svg" xmlns:xlink="http://www.w3.org/1999/xlink" id="Слой_1" x="0px" y="0px" viewBox="0 0 100 100" style="enable-background:new 0 0 100 100;" xml:space="preserve"> <style type="text/css"> .st0{fill:#F35045;} </style> <g> <path class="st0" d="M62.7,81.2c0.8,1.1,1.3,1,1.9,0.8c0.6-0.3,31.9-10.8,32.8-11.2c1-0.3,0.7-0.7,0.3-1.1 C97.4,69.3,87,55.1,86.5,54.3c-0.5-0.8-0.8-0.7-1.6-0.4l-33.1,8.6C51.7,62.5,61.9,80.1,62.7,81.2z M100,66.8V50.3 c-3.7,1-8.4,2.2-10.3,2.7C92.5,56.8,96.9,62.7,100,66.8z M89.7,32.6c-0.5,0.1-11.8,2.2-12.5,2.3c-0.7,0.1-0.5,0.5-0.2,0.9l9.9,13.6 c0,0,12.2-3,12.9-3.2c0.1,0,0.1,0,0.2,0v-1.8c-2.2-2.8-8.2-10.4-8.8-11.1C90.6,32.4,90.2,32.5,89.7,32.6L89.7,32.6z"></path> <path class="st0" d="M18.5,11.2c2.4-0.1,2.7,0.4,3.7,2l27,45.2l34-8.1C81.4,47.6,72.9,35.5,72,34.3c-0.9-1.3,0-1.9,1.5-2.2 c1.5-0.3,14.5-2.4,15.6-2.6c1.1-0.2,2-0.6,3.8,1.6c0.9,1.1,4.1,5,7,8.7V18.8c0-5.2-1.8-9.6-5.5-13.2C90.8,1.8,86.4,0,81.2,0H18.8 C13.6,0,9.2,1.8,5.5,5.5C3.4,7.6,1.9,10,1,12.6C7.1,12,16.8,11.3,18.5,11.2L18.5,11.2z"></path> <path class="st0" d="M65.7,87.3c-2.9,0.9-4.1,1.3-6-1.3c-1.4-2-9-15.6-12.7-22.3c-7,1.8-19.8,5.2-23.6,6.1 c-3.6,0.9-5.2-1.3-5.7-2.6C17.3,66.3,6.8,43.4,0,28.8v52.5c0,5.2,1.8,9.6,5.5,13.2c3.7,3.7,8.1,5.5,13.2,5.5h62.5 c5.2,0,9.6-1.8,13.2-5.5c3.7-3.7,5.5-8.1,5.5-13.2v-6.2C92.3,77.9,67.7,86.7,65.7,87.3z"></path> <path class="st0" d="M23.6,64.6c1-0.2,20-4.8,20.5-4.9c0.4-0.1,0.7-0.3,0.2-1.1c-0.4-0.8-25.4-43.8-25.4-43.8 c-0.2-0.4-0.2-0.5-0.8-0.5c-0.6,0-14.7,1.3-17.9,1.6C0.1,16.6,0,17.3,0,18c3.3,6.8,22.3,46,22.5,46.3 C22.6,64.7,22.6,64.8,23.6,64.6L23.6,64.6z"></path> </g> </svg> 