<?xml version="1.0" encoding="UTF-8"?> <!-- Generator: Adobe Illustrator 21.0.2, SVG Export Plug-In . SVG Version: 6.00 Build 0) --> <svg xmlns="http://www.w3.org/2000/svg" xmlns:xlink="http://www.w3.org/1999/xlink" id="Слой_1" x="0px" y="0px" viewBox="0 0 100 120" style="enable-background:new 0 0 100 120;" xml:space="preserve"> <style type="text/css"> .st0{fill:#002A64;} .st1{fill:#FFFFFF;} </style> <g> <g id="_209427416848"> <path class="st0" d="M88.9,19.6c-1.3,0-0.9,0.4-3.6,1.1c-2.7,0.7-6.1,0.5-9,1.7c-8.8,3.7-10.6,16.3-18.6,20.9 c-6,3.4-12,3.7-17.5,5.4c-3.6,1.1-7.5,3.4-10.7,6.2c-2.5,2.2-2.6,4.1-5.2,6.8c-2.8,2.9-11.2,0-14.9,4.5c1.2,1.2,1.7,1.6,4.2,1.3 c-0.5,0.9-3.4,1.7-2.9,3.1c0.6,1.5,7.7,2.4,14.1-1.4c3-1.8,5.4-4.4,10.1-5c6-0.8,13,0.5,20,1.5c-1,3.1-3.1,5.2-4.8,7.6 c-0.5,0.6,1,0.6,2.8,0.3c3.2-0.8,5.5-1.4,7.9-2.8c3-1.7,3.4-6.1,7-7.1c2,3.1,7.5,3.8,10.9,1.4c-3-0.9-3.8-7.2-2.8-10 c1-2.7,1.9-6.9,2.9-10.4c1-3.8,1.4-8.5,2.7-10.5c1.9-2.9,4-3.9,5.8-5.5c1.8-1.6,3.5-3.2,3.4-7C90.6,20.2,90,19.5,88.9,19.6z M12,70.1c4.6,0.7,7.4,0,11.1-1.6c3.1-1.4,6.2-4.2,9.9-5.4c5.4-1.7,11.4,0,17.2,0.3c1.4,0.1,2.8,0.1,4.2-0.1 c2.2-1.3,2.1-6.3,4.2-6.8c-0.1,7-2.9,11.2-5.9,15.2c6.3-1.1,10.1-4.8,12.6-9.6c0.8-1.5,1.4-3.1,2-4.7c0.9,0.7,0.4,2.8,0.8,3.9 c4.4-2.4,6.8-7.9,8.5-13.5c1.9-6.5,2.7-13,3.9-14.9c1.2-1.9,3.1-3,4.8-4.2c1.9-1.4,3.7-2.8,4-5.4c-2-0.2-2.5-0.7-2.8-1.7 c-1,0.6-2,0.7-3,0.7c-0.9,0-1.9,0-3.2,0.1C70,23.7,68.7,35,62.1,41.4c-0.5,0.5-1,0.9-1.5,1.3c-2.3,1.7-5.1,2.9-7.7,3.9 c-4.2,1.6-8.2,1.7-12.1,3.1c-2.9,1-5.8,2.5-8.2,4.1c-0.6,0.4-1.1,0.8-1.7,1.2c-1.4,1.1-2.3,2.4-3.2,3.7c-0.9,1.3-1.8,2.7-3.1,4 c-2.2,2.1-10.3,0.6-13.2,2.6c-0.3,0.2-0.6,0.5-0.7,0.8c1.6,0.7,2.6,0.3,4.4,0.5C15.3,68.4,11.4,69.4,12,70.1L12,70.1z M73.9,57.9 L73.9,57.9c0.1,2,1.3,5.8,2.3,6.8c-2,0.5-5.3-0.3-6.2-1.7C70.4,61,72.7,59.1,73.9,57.9z"></path> <path class="st1" d="M12,70.1c4.6,0.7,7.4,0,11.1-1.6c3.1-1.4,6.2-4.2,9.9-5.4c5.4-1.7,11.4,0,17.2,0.3c1.4,0.1,2.8,0.1,4.2-0.1 c2.2-1.3,2.1-6.3,4.2-6.8c-0.1,7-2.9,11.2-5.9,15.2c6.3-1.1,10.1-4.8,12.6-9.6c0.8-1.5,1.4-3.1,2-4.7c0.9,0.7,0.4,2.8,0.8,3.9 c4.4-2.4,6.8-7.9,8.5-13.5c1.9-6.5,2.7-13,3.9-14.9c1.2-1.9,3.1-3,4.8-4.2c1.9-1.4,3.7-2.8,4-5.4c-2-0.2-2.5-0.7-2.8-1.7 c-1,0.6-2,0.7-3,0.7c-0.9,0-1.9,0-3.2,0.1C70,23.7,68.7,35,62.1,41.4c-0.5,0.5-1,0.9-1.5,1.3c-2.3,1.7-5.1,2.9-7.7,3.9 c-4.2,1.6-8.2,1.7-12.1,3.1c-2.9,1-5.8,2.5-8.2,4.1c-0.6,0.4-1.1,0.8-1.7,1.2c-1.4,1.1-2.3,2.4-3.2,3.7c-0.9,1.3-1.8,2.7-3.1,4 c-2.2,2.1-10.3,0.6-13.2,2.6c-0.3,0.2-0.6,0.5-0.7,0.8c1.6,0.7,2.6,0.3,4.4,0.5C15.3,68.4,11.4,69.4,12,70.1L12,70.1z M86.5,23.6 c-0.5,0.8-1.6,2.2-1.7,4.2c0,0.3-0.3,0.6-0.3,0c0.2-2,1.1-3.3,1.7-4.3C86.5,23.1,86.7,23.3,86.5,23.6z M86.2,23.2L86.2,23.2 c-0.5,0.7-2.2,2.4-2.6,4.4c-0.1,0.3-0.4,0.5-0.3,0c0.4-2,1.8-3.5,2.6-4.6C86.2,22.7,86.3,22.9,86.2,23.2z M85.8,22.8L85.8,22.8 c-0.6,0.7-2.6,2.8-3.3,4.8c-0.1,0.3-0.4,0.5-0.3,0c0.6-1.9,2.4-4,3.3-4.9C86,22.3,86.1,22.5,85.8,22.8z M76.8,26.9 c1.4,1.3,4.5,0.2,3.9-2.3C78.5,24.4,77.2,25.2,76.8,26.9z M86.9,24L86.9,24c-0.4,0.8-1.1,1.8-1.1,3.9c0,0.3-0.3,0.6-0.3,0 c0-2,0.6-2.9,1.1-4C86.9,23.4,87,23.6,86.9,24z M73.9,57.9L73.9,57.9c0.1,2,1.3,5.8,2.3,6.8c-2,0.5-5.3-0.3-6.2-1.7 C70.4,61,72.7,59.1,73.9,57.9z"></path> <path class="st0" d="M76.8,26.9c1.4,1.3,4.5,0.2,3.9-2.3C78.5,24.4,77.2,25.2,76.8,26.9z M86.9,24L86.9,24 c-0.4,0.8-1.1,1.8-1.1,3.9c0,0.3-0.3,0.6-0.3,0c0-2,0.6-2.9,1.1-4C86.9,23.4,87,23.6,86.9,24z"></path> <path class="st0" d="M86.5,23.6c-0.5,0.8-1.6,2.2-1.7,4.2c0,0.3-0.3,0.6-0.3,0c0.2-2,1.1-3.3,1.7-4.3 C86.5,23.1,86.7,23.3,86.5,23.6z M86.2,23.2L86.2,23.2c-0.5,0.7-2.2,2.4-2.6,4.4c-0.1,0.3-0.4,0.5-0.3,0c0.4-2,1.8-3.5,2.6-4.6 C86.2,22.7,86.3,22.9,86.2,23.2z M85.8,22.8L85.8,22.8c-0.6,0.7-2.6,2.8-3.3,4.8c-0.1,0.3-0.4,0.5-0.3,0c0.6-1.9,2.4-4,3.3-4.9 C86,22.3,86.1,22.5,85.8,22.8z"></path> </g> <path class="st0" d="M11.6,100.4L5.9,87.3L3.6,99.7H1.5l3.7-19l6.4,15.1L18,80.7l3.7,19h-2.1l-2.3-12.4L11.6,100.4z M33.1,94.1 c0-1.3-0.4-2.3-1.1-3.1c-0.7-0.8-1.6-1.2-2.8-1.2c-1.2,0-2.1,0.4-2.8,1.1c-0.7,0.7-1,1.7-1,3c0,1.4,0.3,2.4,1,3.2 c0.7,0.8,1.6,1.1,2.8,1.1c1.2,0,2.1-0.4,2.7-1.1C32.8,96.4,33.1,95.4,33.1,94.1z M35,88.3v11.5h-1.9v-2.1c-0.5,0.8-1,1.5-1.8,1.9 c-0.7,0.4-1.5,0.7-2.4,0.7c-1.6,0-3-0.6-4-1.7c-1-1.1-1.5-2.6-1.5-4.5c0-1.9,0.5-3.4,1.5-4.5c1-1.1,2.3-1.7,3.9-1.7 c1,0,1.8,0.2,2.5,0.6c0.7,0.4,1.3,1.1,1.7,1.9v-2.2H35z M38.9,99.7V88.3h1.7v2.4c0.5-1,1.1-1.7,1.7-2.1c0.6-0.4,1.3-0.6,2.2-0.6 c0.2,0,0.5,0,0.7,0.1c0.2,0,0.4,0.1,0.7,0.2l-0.7,1.8c-0.2-0.1-0.4-0.1-0.6-0.2c-0.2,0-0.4-0.1-0.6-0.1c-1,0-1.8,0.4-2.3,1.1 c-0.5,0.7-0.8,1.9-0.8,3.4v5.6H38.9z M47.5,82.7c0-0.4,0.1-0.7,0.4-1c0.3-0.3,0.6-0.4,1-0.4c0.4,0,0.7,0.1,1,0.4 c0.3,0.3,0.4,0.6,0.4,1c0,0.4-0.1,0.7-0.4,1c-0.3,0.3-0.6,0.4-1,0.4s-0.7-0.1-1-0.4C47.7,83.5,47.5,83.2,47.5,82.7z M48,99.7V88.3 h2v11.5H48z M62.9,94.1c0-1.3-0.4-2.3-1.1-3.1c-0.7-0.8-1.6-1.2-2.8-1.2c-1.2,0-2.1,0.4-2.7,1.1c-0.7,0.7-1,1.7-1,3 c0,1.4,0.3,2.4,1,3.2c0.7,0.8,1.6,1.1,2.8,1.1c1.2,0,2.1-0.4,2.7-1.1C62.5,96.4,62.9,95.4,62.9,94.1z M64.7,88.3v11.5h-1.9v-2.1 c-0.5,0.8-1,1.5-1.8,1.9c-0.7,0.4-1.5,0.7-2.4,0.7c-1.6,0-3-0.6-4-1.7c-1-1.1-1.5-2.6-1.5-4.5c0-1.9,0.5-3.4,1.5-4.5 c1-1.1,2.3-1.7,3.9-1.7c1,0,1.8,0.2,2.5,0.6c0.7,0.4,1.3,1.1,1.7,1.9v-2.2H64.7z M71.1,97.7h1.4c2.2,0,3.8-0.1,4.7-0.3 c0.9-0.2,1.6-0.5,2.2-1c0.8-0.6,1.3-1.4,1.7-2.4c0.4-1,0.6-2.1,0.6-3.4c0-1.3-0.2-2.4-0.6-3.4c-0.4-1-1-1.8-1.7-2.4 c-0.6-0.5-1.3-0.8-2.2-1c-0.9-0.2-2.4-0.3-4.6-0.3h-1.4V97.7z M68.9,99.7V81.4h3.5c2.6,0,4.4,0.1,5.5,0.4c1.1,0.3,2,0.7,2.8,1.3 c1,0.8,1.8,1.8,2.4,3.1c0.5,1.3,0.8,2.7,0.8,4.4c0,1.6-0.3,3.1-0.8,4.3c-0.5,1.3-1.3,2.3-2.4,3.1c-0.8,0.6-1.7,1.1-2.7,1.3 c-1,0.3-2.6,0.4-4.8,0.4h-0.8H68.9z M87.4,99.7V81.4h3.8c1.3,0,2.3,0.1,3,0.2c0.6,0.1,1.2,0.4,1.6,0.7c0.6,0.4,1,1,1.4,1.7 c0.3,0.7,0.5,1.4,0.5,2.2c0,1-0.2,1.8-0.7,2.4c-0.5,0.6-1.1,1.1-2,1.4c1.1,0.2,1.9,0.7,2.6,1.5c0.6,0.8,0.9,1.8,0.9,3 c0,0.7-0.1,1.4-0.4,2.1c-0.3,0.7-0.6,1.2-1.1,1.7c-0.5,0.5-1.2,0.9-1.9,1.1c-0.8,0.2-2,0.3-3.8,0.3H87.4z M89.6,91.1v6.7h1.7 c1.2,0,2,0,2.5-0.1c0.5-0.1,0.9-0.3,1.2-0.5c0.4-0.3,0.7-0.6,0.9-1.1c0.2-0.5,0.3-1,0.3-1.6c0-0.7-0.1-1.3-0.4-1.7 c-0.3-0.5-0.6-0.9-1.1-1.2c-0.3-0.2-0.6-0.3-1-0.4c-0.4-0.1-1-0.1-1.8-0.1h-0.6H89.6z M89.6,83.3v6.1h1.7c1.6,0,2.6-0.2,3.3-0.7 c0.6-0.4,1-1.2,1-2.3c0-1.2-0.3-2-0.9-2.5c-0.6-0.5-1.7-0.7-3.3-0.7H89.6z"></path> </g> </svg> 