<?xml version="1.0" encoding="UTF-8"?> <!-- Generator: Adobe Illustrator 21.0.2, SVG Export Plug-In . SVG Version: 6.00 Build 0) --> <svg xmlns="http://www.w3.org/2000/svg" xmlns:xlink="http://www.w3.org/1999/xlink" id="Слой_1" x="0px" y="0px" viewBox="0 0 100 120" style="enable-background:new 0 0 100 120;" xml:space="preserve"> <style type="text/css"> .st0{fill-rule:evenodd;clip-rule:evenodd;fill:#00678F;} .st1{fill-rule:evenodd;clip-rule:evenodd;fill:#E38D1A;} </style> <g> <path class="st0" d="M1.5,80.7h3.2V68l5,11.1c0.6,1.3,1.4,1.8,3,1.8c1.6,0,2.3-0.5,2.9-1.8l5-11.1v12.7h3.2V68 c0-1.2-0.5-1.8-1.5-2.1c-2.4-0.7-4.1-0.1-4.8,1.6l-4.9,10.9L7.8,67.4c-0.7-1.6-2.4-2.3-4.8-1.6c-1,0.3-1.5,0.9-1.5,2.1V80.7 L1.5,80.7z"></path> <path class="st0" d="M26.4,70.4h3.2v7c0,0.4,0.1,1.3,1.9,1.3c0.9,0,6.9,0,7,0v-8.3h3.2c0,0,0,11.4,0,11.4c0,2.8-3.5,3.4-5.1,3.4 H26.5V83c0,0,10.1,0,10.2,0c2.1-0.2,1.8-1.3,1.8-1.6v-0.8h-6.8c-3.2,0-5.2-1.4-5.2-3C26.4,77.4,26.5,70.4,26.4,70.4L26.4,70.4z"></path> <path class="st0" d="M95.6,62.3c-2,0-3.5,0.1-4.8,0.7c-0.4,0.1-1,0.1-1,0.6c0.2,0.2,0.2,0.5,0.4,0.8c0.3,0.5,0.8,1.2,1.3,1.5 c0.5,0.4,1,0.8,1.6,1.1c1,0.6,2,0.9,3,1.5c0.5,0.3,1.1,0.8,1.6,1.2c0.3,0.2,0.4,0.5,0.8,0.6c0,0,0,0,0-0.1 c-0.2-0.2-0.2-0.5-0.4-0.8c-0.2-0.2-0.5-0.5-0.7-0.7c-0.7-1-1.6-1.8-2.6-2.5C94,65.8,92.3,65,92,64.1c0,0,0,0,0,0 c0.5,0,1.2-0.2,1.7-0.4c0.8-0.2,1.6-0.2,2.5-0.4c0.4-0.1,0.8-0.2,1.2-0.3c0-0.1,0-0.1,0-0.2c-0.4-0.4-0.8-1-1.2-1.5 c-1.3-1.1-2.6-2.1-4.1-3c-0.8-0.5-1.7-0.8-2.6-1.2c-0.3-0.1-0.8-0.2-1-0.5c-0.4-0.5-0.7-1.3-1-1.9c-0.7-1.4-1.4-2.9-2-4.3 c-0.4-1-0.7-1.9-1.3-2.8c-2.5-4.2-5.3-6.7-9.5-9.2c-0.9-0.5-2-0.7-3.2-1c-0.6,0-1.2-0.1-1.8-0.1c-0.4-0.2-0.8-0.6-1.1-0.9 c-1.4-0.9-5-2.8-6.1-0.3c-0.7,1.6,1,3.2,1.6,4c0.4,0.6,1,1.2,1.3,1.8c0.2,0.4,0.2,0.9,0.4,1.3c0.4,1.1,0.8,2.3,1.3,3.3 c0.3,0.5,0.6,1.1,0.9,1.5c0.2,0.3,0.5,0.4,0.6,0.8c-0.3,0.5-0.4,1.2-0.6,1.8C67,53.5,67.3,57,68.6,59c0.4,0.6,1.3,2,2.6,1.5 c1.1-0.4,0.9-1.8,1.2-3.1c0.1-0.3,0-0.5,0.2-0.7c0,0,0,0,0,0c0.3,0.7,0.7,1.4,1,2c0.8,1.2,2.1,2.5,3.2,3.3c0.6,0.4,1.1,1.2,1.8,1.5 c0,0,0,0,0-0.1c0,0,0,0,0,0c-0.1-0.2-0.4-0.3-0.6-0.5c-0.4-0.4-0.9-1-1.3-1.5c-1-1.4-1.9-2.9-2.8-4.5c-0.4-0.8-0.7-1.6-1.1-2.4 c-0.1-0.3-0.1-0.7-0.4-0.9c-0.4,0.5-0.9,1-1.2,1.7c-0.5,1.1-0.5,2.4-0.7,3.7c-0.1,0,0,0-0.1,0c-0.8-0.2-1.1-1-1.4-1.7 c-0.7-1.7-0.9-4.6-0.2-6.6c0.2-0.5,0.9-2.1,0.6-2.6c-0.1-0.5-0.6-0.7-0.9-1.1c-0.3-0.5-0.7-1.1-0.9-1.6c-0.6-1.4-0.9-2.9-1.5-4.3 c-0.3-0.6-0.8-1.3-1.2-1.9c-0.5-0.7-1-1.1-1.4-1.9c-0.1-0.3-0.3-0.7-0.1-1c0-0.2,0.1-0.3,0.3-0.3c0.3-0.3,1.2,0.1,1.6,0.2 c0.9,0.4,1.7,0.7,2.4,1.2c0.3,0.2,0.7,0.7,1.2,0.8c0.2,0,0.3,0,0.5,0c0.8,0.2,1.7,0,2.4,0.3c1.3,0.4,2.5,1,3.5,1.7 c3.2,2,5.9,4.9,7.7,8.4c0.3,0.6,0.4,1.1,0.7,1.7c0.5,1.2,1.2,2.4,1.7,3.6c0.5,1.2,1,2.3,1.7,3.3c0.4,0.5,1.8,0.8,2.5,1.1 c0.5,0.2,1.3,0.4,1.7,0.7c0.8,0.5,1.7,1.1,2.5,1.7C94.3,61.2,95.6,61.8,95.6,62.3L95.6,62.3z"></path> <path class="st0" d="M70.5,40.9c-0.4,0-0.7,0-1,0.1c0,0,0,0,0,0c0,0,0,0,0,0c0.2,0.4,0.5,0.7,0.8,1c0.2,0.4,0.4,0.8,0.6,1.2 c0,0,0,0,0,0c0.3-0.2,0.5-0.6,0.5-1.2c-0.1-0.2-0.2-0.3-0.3-0.5C71,41.2,70.7,41.1,70.5,40.9L70.5,40.9z"></path> <path class="st1" d="M44.2,80.7h9.3c1.1,0,2.1-0.2,3-0.6c1.4-0.6,2.1-1.5,2.1-2.6v-2.4c0-0.9-0.8-1.8-2.3-2.4 c-0.8-0.3-1.8-0.5-2.7-0.5h-3.9c-1.3,0-1.9-0.4-2.1-1.3c0-0.1,0-0.2,0-0.3v-1.5c0-0.1,0-0.2,0-0.3c0.2-0.7,0.5-0.8,1.6-1 c0.1,0,0.2,0,0.3,0h9.2v-2.1h-9c-1.3,0-2,0.1-2.6,0.3c-1.9,0.6-2.7,1.5-2.7,3.2v1.9c0,1.5,1.6,2.7,4.4,3c0.3,0,0.6,0,0.9,0h3.3 c0.1,0,0.2,0,0.3,0c1,0.1,1.5,0.3,1.7,0.6c0.2,0.2,0.2,0.4,0.2,0.6v1.9c0,0.2-0.1,0.5-0.4,0.8c-0.3,0.2-0.8,0.4-1.4,0.4 c-0.1,0-0.2,0-0.3,0h-8.9V80.7L44.2,80.7z"></path> <path class="st1" d="M78.6,77c0,2.2,1.6,3.4,4.9,3.7c0.3,0,0.6,0,0.9,0h8.4v-2.1h-8.4c-1.9,0-2.6-0.5-2.6-1.6V65.9h-3.2V77L78.6,77 z"></path> <path class="st1" d="M60.6,77.1v-7.6c0-1.9,1.4-3.1,4.1-3.5c0.3,0,0.6,0,0.9,0h6.1c0.3,0,0.6,0,0.9,0c2.7,0.4,4,1.6,4,3.5v7.6 c0,1.6-0.6,2.4-1.9,3l3.2,2.9h-3.7l-2.6-2.3l-2.6,0.1h-3.4c-0.6,0-1.2-0.1-1.9-0.2C61.6,79.9,60.6,78.9,60.6,77.1L60.6,77.1z M64,76.9c0,0.1,0,0.2,0.1,0.3c0.2,0.9,1,1.4,2.3,1.4h2.9l-2.7-2.4h3.7l2.3,2.1c0.4-0.2,0.7-0.6,0.8-1c0-0.1,0-0.2,0-0.3v-7.3 c0-0.1,0-0.2,0-0.3c-0.2-0.8-1-1.3-2.3-1.3h-4.9C65,68,64,68.7,64,69.6V76.9L64,76.9z"></path> <path class="st1" d="M94.3,80.7h0.5v-1.8h0.6v-0.4h-1.7v0.4h0.6V80.7L94.3,80.7z M97.9,80.7h0.4v-2.2h-0.7L97.1,80l-0.6-1.5h-0.6 v2.2h0.4v-1.6h0l0.6,1.6h0.3l0.6-1.6l0,0V80.7L97.9,80.7z"></path> </g> </svg> 