<?xml version="1.0" encoding="UTF-8"?> <!-- Generator: Adobe Illustrator 21.0.2, SVG Export Plug-In . SVG Version: 6.00 Build 0) --> <svg xmlns="http://www.w3.org/2000/svg" xmlns:xlink="http://www.w3.org/1999/xlink" id="Слой_1" x="0px" y="0px" viewBox="0 0 100 120" style="enable-background:new 0 0 100 120;" xml:space="preserve"> <style type="text/css"> .st0{fill:#DC6B26;} .st1{fill:#596667;} </style> <g> <path class="st0" d="M50.1,80.1c-0.1-0.4-0.1-0.7-0.1-1c-0.1-3.8-0.1-7.7-0.1-11.5c0-0.5,0.3-1.2,0.6-1.6c2.9-3.7,5.9-7.2,8.8-10.9 c1-1.3,1.7-2.9,2.6-4.4c0.2-0.4,0.3-0.9,0.4-1.4c-0.1-0.1-0.2-0.2-0.2-0.3c-0.5,0.3-1.1,0.4-1.5,0.8c-2.3,2.2-4.5,4.4-6.7,6.6 c-1.3,1.3-2.5,2.8-3.9,4.3c0-0.5-0.1-0.8-0.1-1.2c0-5.8,0-11.7,0-17.5c0-0.6,0.2-1.3,0.6-1.8c1.6-2.3,3.2-4.6,4.8-6.9 c0.3-0.5,0.3-1.3,0.4-1.9c-0.6,0.3-1.3,0.4-1.7,0.8c-1.4,1.2-2.6,2.4-4.1,3.8c-0.2-5.3,0.4-10.5-1.4-15.7c-1.1,0.8-1.1,1.9-1.2,2.8 c-0.3,2.6-0.5,5.1-0.7,7.7c-0.2,2.8-0.2,5.7-0.3,8.5c-0.2,7-0.3,14-0.5,21c-0.1,6.4-0.3,12.8-0.4,19.2c0,0.2,0,0.4-0.1,0.7 c-0.7-0.3-1.4-0.4-2-0.7c-10.1-5.3-16.6-13.4-18.4-24.8c-1.2-7.9,0.9-15.3,4.2-22.3c2.8-5.9,6.4-11.2,11.5-15.4 c1.8-1.5,3.8-2.9,6.2-3c1.1-0.1,2.3,0.1,3.4,0.4c3.9,1.2,7.1,3.4,10.2,5.9c4.7,3.8,8.6,8.3,11.4,13.7c4.1,7.7,4.7,15.6,1.5,23.6 c-3.9,9.8-10.6,17.1-20.3,21.4C52.2,79.5,51.2,79.8,50.1,80.1z"></path> <g> <path class="st1" d="M18.6,94.1c2.1-4.5,5.7-6,10.3-5.2c3.1,0.6,5.2,2.5,6.2,5.6c-1.2,0-2.4,0-3.5,0c-0.3,0-0.6-0.3-0.8-0.6 c-1.3-1.8-3.1-2.4-5.3-1.9c-1.8,0.4-3.1,2-3.3,4c-0.2,1.4-0.1,2.8,0.5,4.2c0.7,1.7,2,2.5,3.8,2.6c1.8,0.1,3.3-0.3,4.4-1.9 c0.2-0.3,0.5-0.6,0.7-0.6c1.2-0.1,2.3,0,3.5,0c-0.4,2.4-2.9,4.9-5.9,5.5c-4.6,0.9-8.2-0.6-10.4-5.1c-1.1,2.6-2.9,4.3-5.5,5 c-2,0.6-4,0.5-6-0.2c-3.5-1.2-5.6-4.4-5.6-8.5c0-3.6,2.4-6.8,5.9-7.9c2.2-0.7,4.4-0.6,6.6,0.2C16.1,90.2,17.6,91.8,18.6,94.1z M5.4,97.4C5.5,97.4,5.5,97.4,5.4,97.4c0.1,0.3,0.1,0.7,0.1,1c0.2,2.5,1.9,4.3,4.3,4.5c2.6,0.2,4.6-1.2,5.1-3.7 c0.2-0.9,0.2-1.9,0.2-2.8c-0.2-2.6-2-4.4-4.4-4.5c-2.7-0.2-4.5,1.2-5.1,3.8C5.5,96.2,5.5,96.8,5.4,97.4z"></path> <path class="st1" d="M59,88.7c3.1,0.2,6.2,0.2,9.2,0.5c2.4,0.3,3.5,1.9,3.5,4.1c0,1.4-0.6,2.5-1.8,3.1c-0.3,0.2-0.5,0.3-0.9,0.5 c0.2,0.1,0.4,0.2,0.5,0.2c2.9,1.1,3.6,4.3,1.5,6.6c-1.2,1.3-2.7,1.8-4.3,1.9c-2.5,0.1-5.1,0-7.6,0C59,100.2,59,94.6,59,88.7z M62.8,100.7c0,0.5,0,1.1,0,1.6c0,0.2,0.3,0.6,0.5,0.6c1.1,0,2.2,0.1,3.2-0.1c1.2-0.1,1.8-1.1,1.7-2.3c0-1.1-0.6-1.7-1.9-1.8 c-0.5-0.1-1-0.1-1.5-0.1C62.8,98.6,62.8,98.6,62.8,100.7z M62.8,93.9c0,0.5,0,1.1,0,1.6c0,0.2,0.3,0.5,0.4,0.5c1,0,2,0.1,3-0.1 c1.2-0.2,1.7-1,1.7-2.1c0-1.2-0.5-1.8-1.8-2c-0.3-0.1-0.7-0.1-1-0.1C62.8,91.6,62.8,91.6,62.8,93.9z"></path> <path class="st1" d="M58.4,97.4c0,5.1-3.7,8.7-8.9,8.6c-5.1,0-8.7-3.6-8.7-8.7c0-5.2,3.7-8.7,9.1-8.6 C54.8,88.7,58.4,92.4,58.4,97.4z M54.5,97.3c-0.1-0.6-0.1-1.2-0.2-1.8c-0.5-2.3-2.2-3.7-4.4-3.7c-2.5-0.1-4.3,1.1-4.8,3.5 c-0.3,1.1-0.3,2.3-0.2,3.4c0.2,2.4,2.1,4,4.5,4.1c2.6,0.1,4.4-1.3,5-3.7C54.4,98.5,54.4,97.9,54.5,97.3z"></path> <path class="st1" d="M84.8,88.7c2.8,0.2,5.5,0.2,8.2,0.5c2.1,0.3,3.6,1.4,4,3.6c0.4,2.6-0.5,4.3-2.7,5.6c-0.1,0.1-0.3,0.2-0.4,0.3 c0.4,0.4,0.8,0.7,1.1,1.1c1.2,1.9,2.4,3.9,3.6,5.9c-1.4,0-2.7,0.1-4,0c-0.3,0-0.7-0.5-1-0.9c-0.8-1.3-1.6-2.7-2.4-4.1 c-0.7-1.3-1-1.4-2.6-1.2c0,2,0,4.1,0,6.2c-1.3,0-2.5,0-3.8,0C84.8,100.2,84.8,94.6,84.8,88.7z M88.6,96.9c0.9,0,1.6,0,2.3,0 c1.4-0.1,2.3-1,2.4-2.3c0.1-1.3-0.5-2.3-1.7-2.6c-0.8-0.2-1.7-0.2-2.5-0.2c-0.2,0-0.5,0.3-0.5,0.4C88.5,93.7,88.6,95.2,88.6,96.9z "></path> <path class="st1" d="M83.7,88.9c0,1,0,1.9,0,2.9c-2.3,0-4.6,0-6.9,0c0,1.4,0,2.6,0,4c1.7,0,3.4,0,5.2,0c0,1,0,1.8,0,2.9 c-1.1,0-2.2,0-3.3,0c-2,0-2,0-2,2c0,0.7,0,1.4,0,2.2c2.3,0,4.6,0,6.9,0c0,1,0,1.9,0,2.9c-0.2,0-0.5,0.1-0.7,0.1 c-3.1,0-6.2,0-9.3,0c-0.7,0-0.9-0.3-0.9-0.9c0-5.1,0-10.1,0-15.2c0-0.7,0.2-0.9,0.9-0.9C77,88.9,80.3,88.9,83.7,88.9z"></path> <path class="st1" d="M36.2,99c-1.4,0-2.7,0-4,0c-0.7,0-1-0.3-1.1-1c0-2.6-0.1-2.3,2.2-2.3c0.9,0,1.9,0,2.9,0c0-1,0-1.9,0-2.8 c0-1.1,0-2.2,0-3.3c0-0.6,0.2-0.8,0.7-0.7c0.8,0,1.6,0,2.4,0c0.5,0,0.7,0.2,0.7,0.7c0,5.2,0,10.4,0,15.6c0,0.5-0.2,0.7-0.7,0.7 c-0.8,0-1.6,0-2.4,0c-0.6,0-0.7-0.2-0.7-0.7c0-1.7,0-3.3,0-5C36.3,99.8,36.2,99.5,36.2,99z"></path> </g> </g> </svg> 