<?xml version="1.0" encoding="UTF-8"?> <!-- Generator: Adobe Illustrator 21.0.2, SVG Export Plug-In . SVG Version: 6.00 Build 0) --> <svg xmlns="http://www.w3.org/2000/svg" xmlns:xlink="http://www.w3.org/1999/xlink" id="Capa_1" x="0px" y="0px" viewBox="0 0 100 120" style="enable-background:new 0 0 100 120;" xml:space="preserve"> <style type="text/css"> .st0{fill:#92A9ED;} .st1{fill:#94AAD7;} .st2{fill:#3A3654;} .st3{fill:#FFFFFF;} .st4{fill:#FCFCFC;} </style> <g> <ellipse class="st0" cx="92.4" cy="39.8" rx="5.2" ry="1.3"></ellipse> <polygon class="st1" points="94.9,41.6 94.9,43.7 93.8,44.6 91.7,44.1 90.2,43.6 88.9,42.6 88.9,41.9 88.8,41.4 90.3,41.4 93.1,41.6 "></polygon> <polygon class="st1" points="93.5,35.7 90.1,37 90,37.9 92,37.9 93.9,37.9 94.5,37.6 94.4,36.6 "></polygon> <g> <g> <defs> <path id="SVGID_1_" d="M98.4,39.8c0-1.7-1.9-2.2-3.1-2.4c0.1-0.5,0.1-1.1-0.2-1.6c-0.2-0.4-0.7-0.9-1.8-1c0,0,0,0-0.1,0 c-2.8,0-5.1,2.4-5.9,3.3h-8c-1.8-1.8-3.8-3.3-6.2-4.5c-3.9-1.9-8.5-2.9-13.7-2.9l0,0L42.6,31c-2.8-4-6-4.3-8.8-4 c-0.7,0.1-1.8,0.5-2.9,1c-0.6-0.6-1.9-1.3-4.5-1.3c-3.6,0-7.9,4.4-8.8,5.5c-6,0.9-10.4,3-13,6.4c-3,3.7-3,8.1-3.1,10.2 c0,0.4,0,0.7,0,0.9v0.1c0,0.3,0.1,33.4,0.1,35.4c0,0.1,0,0.3,0,0.4c0,1.2,0,2.7,1.1,3.9c1,1,2.5,1.4,4.8,1.4s4-0.6,5-1.7 c0.9-1,0.9-2.2,0.9-2.5L14.8,71c0.2-2.5,1.1-4.3,2.5-5.2c1.1-0.7,2.6-0.9,4.1-0.9v15.6c0,0.3-0.1,2.2,0.8,4.2s2.8,4.4,7.2,4.9 c0.2,0.2,0.4,0.5,0.6,0.7c1.9,2,5.3,3,10,3c4.6,0,7.8-1.1,9.7-3.3c1.8-2.1,1.6-4.4,1.6-4.9V74.8c0.7,0.1,1.8,0.3,3.2,0.4v7.5 c0,0.2,0,1.8,1.1,3.5c1,1.6,3.1,3.5,7.7,3.9c2,1.9,5.3,2.9,9.7,2.9c4.7,0,8-1.1,9.8-3.2c1.6-1.8,1.5-3.8,1.5-4.2v-23 c0-0.2-0.1-0.3-0.1-0.5c2.4-6.6,1.8-14.2-1.8-20.1h5.1c0.6,0.9,2.4,2.9,5.5,3.1l0,0c0.6,0,2.5,0,3-1.2c0.2-0.5,0.1-1.1-0.2-1.6 C96.9,41.9,98.4,41.3,98.4,39.8z M93.7,36.5c0.1,0.2,0.1,0.5,0,0.7c-0.9,0-2.3,0-3.7,0.3c0.9-0.7,2-1.3,3.1-1.3 C93.3,36.3,93.6,36.4,93.7,36.5z M85.9,39.6c-0.1,0.2-0.1,0.4,0,0.6c0,0.1,0.1,0.1,0.1,0.2h-4.7c-0.2-0.3-0.4-0.5-0.6-0.8H85.9z M92.9,43.5c-1.6-0.1-2.8-0.9-3.5-1.6c0.4,0.1,0.8,0.1,1.3,0.2c1.3,0.2,2.5,0.2,3.2,0.3c0.3,0.3,0.5,0.7,0.5,0.9 C94.3,43.3,94,43.5,92.9,43.5z M94.6,40.8c-0.2,0-1.8-0.1-3.5-0.2c-1.8-0.2-2.8-0.5-3.3-0.7c1.9-1.1,5.4-1.1,6.7-1.1l0,0 c1,0.1,2.3,0.5,2.3,1C96.9,40.3,95.6,40.7,94.6,40.8z"></path> </defs> <clipPath id="SVGID_2_"> <use xlink:href="#SVGID_1_" style="overflow:visible;"></use> </clipPath> </g> <g> <defs> <path id="SVGID_3_" d="M98.4,39.8c0-1.7-1.9-2.2-3.1-2.4c0.1-0.5,0.1-1.1-0.2-1.6c-0.2-0.4-0.7-0.9-1.8-1c0,0,0,0-0.1,0 c-2.8,0-5.1,2.4-5.9,3.3h-8c-1.8-1.8-3.8-3.3-6.2-4.5c-3.9-1.9-8.5-2.9-13.7-2.9l0,0L42.6,31c-2.8-4-6-4.3-8.8-4 c-0.7,0.1-1.8,0.5-2.9,1c-0.6-0.6-1.9-1.3-4.5-1.3c-3.6,0-7.9,4.4-8.8,5.5c-6,0.9-10.4,3-13,6.4c-3,3.7-3,8.1-3.1,10.2 c0,0.4,0,0.7,0,0.9v0.1c0,0.3,0.1,33.4,0.1,35.4c0,0.1,0,0.3,0,0.4c0,1.2,0,2.7,1.1,3.9c1,1,2.5,1.4,4.8,1.4s4-0.6,5-1.7 c0.9-1,0.9-2.2,0.9-2.5L14.8,71c0.2-2.5,1.1-4.3,2.5-5.2c1.1-0.7,2.6-0.9,4.1-0.9v15.6c0,0.3-0.1,2.2,0.8,4.2s2.8,4.4,7.2,4.9 c0.2,0.2,0.4,0.5,0.6,0.7c1.9,2,5.3,3,10,3c4.6,0,7.8-1.1,9.7-3.3c1.8-2.1,1.6-4.4,1.6-4.9V74.8c0.7,0.1,1.8,0.3,3.2,0.4v7.5 c0,0.2,0,1.8,1.1,3.5c1,1.6,3.1,3.5,7.7,3.9c2,1.9,5.3,2.9,9.7,2.9c4.7,0,8-1.1,9.8-3.2c1.6-1.8,1.5-3.8,1.5-4.2v-23 c0-0.2-0.1-0.3-0.1-0.5c2.4-6.6,1.8-14.2-1.8-20.1h5.1c0.6,0.9,2.4,2.9,5.5,3.1l0,0c0.6,0,2.5,0,3-1.2c0.2-0.5,0.1-1.1-0.2-1.6 C96.9,41.9,98.4,41.3,98.4,39.8z M93.7,36.5c0.1,0.2,0.1,0.5,0,0.7c-0.9,0-2.3,0-3.7,0.3c0.9-0.7,2-1.3,3.1-1.3 C93.3,36.3,93.6,36.4,93.7,36.5z M85.9,39.6c-0.1,0.2-0.1,0.4,0,0.6c0,0.1,0.1,0.1,0.1,0.2h-4.7c-0.2-0.3-0.4-0.5-0.6-0.8H85.9z M92.9,43.5c-1.6-0.1-2.8-0.9-3.5-1.6c0.4,0.1,0.8,0.1,1.3,0.2c1.3,0.2,2.5,0.2,3.2,0.3c0.3,0.3,0.5,0.7,0.5,0.9 C94.3,43.3,94,43.5,92.9,43.5z M94.6,40.8c-0.2,0-1.8-0.1-3.5-0.2c-1.8-0.2-2.8-0.5-3.3-0.7c1.9-1.1,5.4-1.1,6.7-1.1l0,0 c1,0.1,2.3,0.5,2.3,1C96.9,40.3,95.6,40.7,94.6,40.8z"></path> </defs> <clipPath id="SVGID_4_"> <use xlink:href="#SVGID_3_" style="overflow:visible;"></use> </clipPath> </g> <g> <defs> <path id="SVGID_5_" d="M98.4,39.8c0-1.7-1.9-2.2-3.1-2.4c0.1-0.5,0.1-1.1-0.2-1.6c-0.2-0.4-0.7-0.9-1.8-1c0,0,0,0-0.1,0 c-2.8,0-5.1,2.4-5.9,3.3h-8c-1.8-1.8-3.8-3.3-6.2-4.5c-3.9-1.9-8.5-2.9-13.7-2.9l0,0L42.6,31c-2.8-4-6-4.3-8.8-4 c-0.7,0.1-1.8,0.5-2.9,1c-0.6-0.6-1.9-1.3-4.5-1.3c-3.6,0-7.9,4.4-8.8,5.5c-6,0.9-10.4,3-13,6.4c-3,3.7-3,8.1-3.1,10.2 c0,0.4,0,0.7,0,0.9v0.1c0,0.3,0.1,33.4,0.1,35.4c0,0.1,0,0.3,0,0.4c0,1.2,0,2.7,1.1,3.9c1,1,2.5,1.4,4.8,1.4s4-0.6,5-1.7 c0.9-1,0.9-2.2,0.9-2.5L14.8,71c0.2-2.5,1.1-4.3,2.5-5.2c1.1-0.7,2.6-0.9,4.1-0.9v15.6c0,0.3-0.1,2.2,0.8,4.2s2.8,4.4,7.2,4.9 c0.2,0.2,0.4,0.5,0.6,0.7c1.9,2,5.3,3,10,3c4.6,0,7.8-1.1,9.7-3.3c1.8-2.1,1.6-4.4,1.6-4.9V74.8c0.7,0.1,1.8,0.3,3.2,0.4v7.5 c0,0.2,0,1.8,1.1,3.5c1,1.6,3.1,3.5,7.7,3.9c2,1.9,5.3,2.9,9.7,2.9c4.7,0,8-1.1,9.8-3.2c1.6-1.8,1.5-3.8,1.5-4.2v-23 c0-0.2-0.1-0.3-0.1-0.5c2.4-6.6,1.8-14.2-1.8-20.1h5.1c0.6,0.9,2.4,2.9,5.5,3.1l0,0c0.6,0,2.5,0,3-1.2c0.2-0.5,0.1-1.1-0.2-1.6 C96.9,41.9,98.4,41.3,98.4,39.8z M93.7,36.5c0.1,0.2,0.1,0.5,0,0.7c-0.9,0-2.3,0-3.7,0.3c0.9-0.7,2-1.3,3.1-1.3 C93.3,36.3,93.6,36.4,93.7,36.5z M85.9,39.6c-0.1,0.2-0.1,0.4,0,0.6c0,0.1,0.1,0.1,0.1,0.2h-4.7c-0.2-0.3-0.4-0.5-0.6-0.8H85.9z M92.9,43.5c-1.6-0.1-2.8-0.9-3.5-1.6c0.4,0.1,0.8,0.1,1.3,0.2c1.3,0.2,2.5,0.2,3.2,0.3c0.3,0.3,0.5,0.7,0.5,0.9 C94.3,43.3,94,43.5,92.9,43.5z M94.6,40.8c-0.2,0-1.8-0.1-3.5-0.2c-1.8-0.2-2.8-0.5-3.3-0.7c1.9-1.1,5.4-1.1,6.7-1.1l0,0 c1,0.1,2.3,0.5,2.3,1C96.9,40.3,95.6,40.7,94.6,40.8z"></path> </defs> <clipPath id="SVGID_6_"> <use xlink:href="#SVGID_5_" style="overflow:visible;"></use> </clipPath> </g> <g> <defs> <path id="SVGID_7_" d="M98.4,39.8c0-1.7-1.9-2.2-3.1-2.4c0.1-0.5,0.1-1.1-0.2-1.6c-0.2-0.4-0.7-0.9-1.8-1c0,0,0,0-0.1,0 c-2.8,0-5.1,2.4-5.9,3.3h-8c-1.8-1.8-3.8-3.3-6.2-4.5c-3.9-1.9-8.5-2.9-13.7-2.9l0,0L42.6,31c-2.8-4-6-4.3-8.8-4 c-0.7,0.1-1.8,0.5-2.9,1c-0.6-0.6-1.9-1.3-4.5-1.3c-3.6,0-7.9,4.4-8.8,5.5c-6,0.9-10.4,3-13,6.4c-3,3.7-3,8.1-3.1,10.2 c0,0.4,0,0.7,0,0.9v0.1c0,0.3,0.1,33.4,0.1,35.4c0,0.1,0,0.3,0,0.4c0,1.2,0,2.7,1.1,3.9c1,1,2.5,1.4,4.8,1.4s4-0.6,5-1.7 c0.9-1,0.9-2.2,0.9-2.5L14.8,71c0.2-2.5,1.1-4.3,2.5-5.2c1.1-0.7,2.6-0.9,4.1-0.9v15.6c0,0.3-0.1,2.2,0.8,4.2s2.8,4.4,7.2,4.9 c0.2,0.2,0.4,0.5,0.6,0.7c1.9,2,5.3,3,10,3c4.6,0,7.8-1.1,9.7-3.3c1.8-2.1,1.6-4.4,1.6-4.9V74.8c0.7,0.1,1.8,0.3,3.2,0.4v7.5 c0,0.2,0,1.8,1.1,3.5c1,1.6,3.1,3.5,7.7,3.9c2,1.9,5.3,2.9,9.7,2.9c4.7,0,8-1.1,9.8-3.2c1.6-1.8,1.5-3.8,1.5-4.2v-23 c0-0.2-0.1-0.3-0.1-0.5c2.4-6.6,1.8-14.2-1.8-20.1h5.1c0.6,0.9,2.4,2.9,5.5,3.1l0,0c0.6,0,2.5,0,3-1.2c0.2-0.5,0.1-1.1-0.2-1.6 C96.9,41.9,98.4,41.3,98.4,39.8z M93.7,36.5c0.1,0.2,0.1,0.5,0,0.7c-0.9,0-2.3,0-3.7,0.3c0.9-0.7,2-1.3,3.1-1.3 C93.3,36.3,93.6,36.4,93.7,36.5z M85.9,39.6c-0.1,0.2-0.1,0.4,0,0.6c0,0.1,0.1,0.1,0.1,0.2h-4.7c-0.2-0.3-0.4-0.5-0.6-0.8H85.9z M92.9,43.5c-1.6-0.1-2.8-0.9-3.5-1.6c0.4,0.1,0.8,0.1,1.3,0.2c1.3,0.2,2.5,0.2,3.2,0.3c0.3,0.3,0.5,0.7,0.5,0.9 C94.3,43.3,94,43.5,92.9,43.5z M94.6,40.8c-0.2,0-1.8-0.1-3.5-0.2c-1.8-0.2-2.8-0.5-3.3-0.7c1.9-1.1,5.4-1.1,6.7-1.1l0,0 c1,0.1,2.3,0.5,2.3,1C96.9,40.3,95.6,40.7,94.6,40.8z"></path> </defs> <clipPath id="SVGID_8_"> <use xlink:href="#SVGID_7_" style="overflow:visible;"></use> </clipPath> </g> <g> <defs> <path id="SVGID_9_" d="M98.4,39.8c0-1.7-1.9-2.2-3.1-2.4c0.1-0.5,0.1-1.1-0.2-1.6c-0.2-0.4-0.7-0.9-1.8-1c0,0,0,0-0.1,0 c-2.8,0-5.1,2.4-5.9,3.3h-8c-1.8-1.8-3.8-3.3-6.2-4.5c-3.9-1.9-8.5-2.9-13.7-2.9l0,0L42.6,31c-2.8-4-6-4.3-8.8-4 c-0.7,0.1-1.8,0.5-2.9,1c-0.6-0.6-1.9-1.3-4.5-1.3c-3.6,0-7.9,4.4-8.8,5.5c-6,0.9-10.4,3-13,6.4c-3,3.7-3,8.1-3.1,10.2 c0,0.4,0,0.7,0,0.9v0.1c0,0.3,0.1,33.4,0.1,35.4c0,0.1,0,0.3,0,0.4c0,1.2,0,2.7,1.1,3.9c1,1,2.5,1.4,4.8,1.4s4-0.6,5-1.7 c0.9-1,0.9-2.2,0.9-2.5L14.8,71c0.2-2.5,1.1-4.3,2.5-5.2c1.1-0.7,2.6-0.9,4.1-0.9v15.6c0,0.3-0.1,2.2,0.8,4.2s2.8,4.4,7.2,4.9 c0.2,0.2,0.4,0.5,0.6,0.7c1.9,2,5.3,3,10,3c4.6,0,7.8-1.1,9.7-3.3c1.8-2.1,1.6-4.4,1.6-4.9V74.8c0.7,0.1,1.8,0.3,3.2,0.4v7.5 c0,0.2,0,1.8,1.1,3.5c1,1.6,3.1,3.5,7.7,3.9c2,1.9,5.3,2.9,9.7,2.9c4.7,0,8-1.1,9.8-3.2c1.6-1.8,1.5-3.8,1.5-4.2v-23 c0-0.2-0.1-0.3-0.1-0.5c2.4-6.6,1.8-14.2-1.8-20.1h5.1c0.6,0.9,2.4,2.9,5.5,3.1l0,0c0.6,0,2.5,0,3-1.2c0.2-0.5,0.1-1.1-0.2-1.6 C96.9,41.9,98.4,41.3,98.4,39.8z M93.7,36.5c0.1,0.2,0.1,0.5,0,0.7c-0.9,0-2.3,0-3.7,0.3c0.9-0.7,2-1.3,3.1-1.3 C93.3,36.3,93.6,36.4,93.7,36.5z M85.9,39.6c-0.1,0.2-0.1,0.4,0,0.6c0,0.1,0.1,0.1,0.1,0.2h-4.7c-0.2-0.3-0.4-0.5-0.6-0.8H85.9z M92.9,43.5c-1.6-0.1-2.8-0.9-3.5-1.6c0.4,0.1,0.8,0.1,1.3,0.2c1.3,0.2,2.5,0.2,3.2,0.3c0.3,0.3,0.5,0.7,0.5,0.9 C94.3,43.3,94,43.5,92.9,43.5z M94.6,40.8c-0.2,0-1.8-0.1-3.5-0.2c-1.8-0.2-2.8-0.5-3.3-0.7c1.9-1.1,5.4-1.1,6.7-1.1l0,0 c1,0.1,2.3,0.5,2.3,1C96.9,40.3,95.6,40.7,94.6,40.8z"></path> </defs> <use xlink:href="#SVGID_9_" style="overflow:visible;fill:#92A9ED;"></use> <clipPath id="SVGID_10_"> <use xlink:href="#SVGID_9_" style="overflow:visible;"></use> </clipPath> </g> </g> <g> <g> <path class="st2" d="M24.6,86.5l-0.5-0.1c-0.1,0-2.4-0.3-2.3-4.3l0,0c0.4-3.5,1.6-6,2.8-6c1,0,1.7,2.4,1.9,3.1l0.1,0.3l-0.3,0.1 c-0.5,0.1-0.9,0.6-1.3,1.4c-0.8,1.7-1.1,4.3-0.7,5.2L24.6,86.5z M22.3,82.2c0,2.5,0.9,3.3,1.4,3.6c-0.2-1.3,0.1-3.6,0.8-5.1 c0.4-0.8,0.9-1.4,1.4-1.6c-0.4-1.2-1-2.5-1.3-2.5C23.9,76.6,22.8,78.6,22.3,82.2z"></path> </g> <g> <path class="st2" d="M26.3,87.4L26.3,87.4L26.3,87.4c0,0-0.7,0-1.3-0.6c-0.5-0.5-0.8-1.4-0.8-2.5l0,0c0.3-3,1.4-4.8,2.1-4.8 c0.3,0,1.4,0.4,2.2,4.9l0,0l0,0C28.4,87.4,26.4,87.4,26.3,87.4z M24.7,84.3c0,1,0.2,1.7,0.6,2.1s0.9,0.5,1,0.5v0.3v-0.3 c0.1,0,1.6,0,1.7-2.4c-0.6-3.7-1.4-4.5-1.7-4.5C26,80.1,25,81.6,24.7,84.3z"></path> </g> <g> <path class="st2" d="M32.6,90.9H32c-0.1,0-1.4-0.2-2.3-1.3c-0.6-0.8-0.9-1.9-0.8-3.2l0,0c0.9-3.5,2.5-5.1,3.7-5.1 c0.1,0,0.2,0,0.3,0l0.3,0.1l-0.1,0.3c-1.8,4-2.1,7.2-0.9,8.8L32.6,90.9z M29.5,86.5c-0.1,1.2,0.1,2.1,0.6,2.8 c0.4,0.5,0.9,0.8,1.3,0.9c-1.2-2.4,0-6.1,1-8.4C31.7,81.9,30.3,83,29.5,86.5z"></path> </g> <g> <path class="st2" d="M35.2,92.6c-1.1,0-3-0.5-3.7-3.9l0,0c-0.2-3.3,1.1-6.8,2.5-8.4c0.5-0.5,0.9-0.8,1.3-0.8 c0.3,0,0.6,0.1,0.8,0.4c1.1,1.3,1.4,2,1.6,2.7c0.1,0.2,0.1,0.3,0.2,0.5l0.1,0.2l-0.1,0.1c-1.1,1.2-3.7,5.3-1.3,8.7l0.2,0.3 l-0.3,0.1C36.4,92.4,35.9,92.6,35.2,92.6z M32,88.5c0.6,2.9,2,3.5,3.2,3.5c0.3,0,0.5,0,0.7-0.1c-2.2-3.5,0.3-7.5,1.5-8.9 c0-0.1-0.1-0.2-0.1-0.4c-0.2-0.6-0.5-1.3-1.5-2.5c-0.1-0.1-0.2-0.2-0.4-0.2c-0.3,0-0.6,0.2-0.9,0.6C33.1,82,31.8,85.4,32,88.5z"></path> </g> <g> <path class="st2" d="M37.7,92.3L37.7,92.3c-0.1,0-1.1-0.1-1.8-1c-0.6-0.8-0.8-1.8-0.7-3.2l0,0c0.8-3.8,2.2-5,2.8-5l0,0 c0.6,0,1.9,1.1,2.4,5.1c0.1,1.3-0.1,2.4-0.8,3.1C38.9,92.2,37.8,92.3,37.7,92.3L37.7,92.3z M35.8,88.1c-0.1,1.2,0.1,2.1,0.6,2.8 c0.5,0.7,1.3,0.8,1.4,0.8c0.1,0,1-0.1,1.6-0.8c0.5-0.6,0.7-1.5,0.6-2.7c-0.5-3.8-1.6-4.7-1.9-4.7C37.9,83.6,36.5,84.5,35.8,88.1z "></path> </g> <g> <path class="st2" d="M57.5,86.6L57,86.5c-0.1,0-2.4-0.3-2.3-4.3l0,0c0.4-3.5,1.6-6,2.8-6c1,0,1.7,2.4,1.9,3.1l0.1,0.3l-0.3,0.1 c-0.5,0.1-0.9,0.6-1.3,1.4c-0.8,1.7-1.1,4.3-0.7,5.2L57.5,86.6z M55.3,82.2c0,2.5,0.9,3.4,1.4,3.7c-0.2-1.3,0.1-3.6,0.8-5.1 c0.4-0.8,0.9-1.4,1.4-1.6c-0.4-1.2-1-2.5-1.3-2.5C56.9,76.7,55.7,78.6,55.3,82.2z"></path> </g> <g> <path class="st2" d="M59.1,87.7L59.1,87.7L59.1,87.7c0,0-0.8,0-1.4-0.6c-0.6-0.6-0.8-1.4-0.8-2.6l0,0c0.3-3.1,1.5-5,2.2-5 c0.3,0,1.5,0.4,2.3,5.1l0,0l0,0C61.3,87.7,59.2,87.7,59.1,87.7z M57.4,84.5c0,1,0.2,1.7,0.7,2.2s1,0.5,1,0.5v0.3v-0.3 c0.1,0,1.7,0,1.7-2.5c-0.7-4.3-1.7-4.6-1.7-4.7C58.8,80.1,57.8,81.6,57.4,84.5z"></path> </g> <g> <path class="st2" d="M66.1,90.6h-0.6c-0.1,0-1.4-0.1-2.3-1.1c-0.7-0.8-1-1.8-1-3.2l0,0c0.7-3.7,2.2-5.4,3.4-5.4 c0.1,0,0.1,0,0.2,0l0.3,0.1L66,81.2c-1.5,4.1-1.6,7.3-0.3,8.9L66.1,90.6z M62.7,86.3c-0.1,1.2,0.2,2.1,0.8,2.8 c0.4,0.5,1,0.7,1.4,0.8c-1.4-2.3-0.4-6.1,0.5-8.5C64.6,81.6,63.3,83,62.7,86.3z"></path> </g> <g> <path class="st2" d="M68,91.5c-1,0-2.9-0.5-3.5-3.7l0,0c-0.2-3.1,1.1-6.4,2.4-7.9c0.4-0.5,0.9-0.7,1.3-0.7c0.3,0,0.5,0.1,0.7,0.3 c1.1,1.2,1.3,1.9,1.5,2.5c0.1,0.2,0.1,0.3,0.2,0.4l0.1,0.2l-0.1,0.1c-1,1.1-3.5,5-1.3,8.2l0.2,0.3l-0.3,0.1 C69.1,91.3,68.6,91.5,68,91.5z M65,87.7c0.5,2.7,1.9,3.3,3,3.3c0.3,0,0.5,0,0.6-0.1c-2-3.3,0.3-7.1,1.4-8.4 c0-0.1-0.1-0.2-0.1-0.3c-0.2-0.6-0.4-1.2-1.4-2.4c-0.1-0.1-0.2-0.2-0.3-0.2c-0.2,0-0.6,0.2-0.9,0.5C66,81.6,64.8,84.8,65,87.7z"></path> </g> <g> <path class="st2" d="M70.8,91.7L70.8,91.7c-0.1,0-1.1-0.1-1.8-0.9c-0.6-0.7-0.9-1.8-0.8-3.1l0,0c0.6-3.8,2.1-5.1,2.6-5.1 c0.6,0,1.9,1.1,2.6,5c0.2,1.3,0,2.4-0.6,3.1C72,91.6,70.9,91.7,70.8,91.7L70.8,91.7z M68.7,87.7c-0.1,1.2,0.1,2.1,0.7,2.7 c0.6,0.7,1.3,0.8,1.4,0.8s1-0.1,1.5-0.9c0.5-0.6,0.7-1.6,0.5-2.7C72.2,83.8,71,83,70.7,83C70.6,83,69.3,84,68.7,87.7z"></path> </g> <g> <g> <path class="st2" d="M21.4,64.4c-0.2,0-0.4-0.2-0.5-0.4c-0.1-0.3,0.1-0.6,0.4-0.6c0,0,1.3-0.4,2.6-1.8c1.7-1.9,2.6-4.7,2.6-8.2 c0-0.3,0.2-0.5,0.5-0.5s0.5,0.2,0.5,0.5c0,4.8-1.6,7.5-2.9,9c-1.5,1.6-3,2-3,2C21.5,64.3,21.5,64.4,21.4,64.4z"></path> </g> <g> <path class="st2" d="M26.7,53.7c-1.6,0-2.8-1.3-2.9-1.4c-0.2-0.2-0.2-0.5,0-0.7s0.5-0.2,0.7,0c0,0,1.1,1.2,2.3,1.1 c0.7-0.1,1.4-0.6,2-1.7c0.1-0.2,0.5-0.3,0.7-0.2s0.3,0.5,0.2,0.7c-0.8,1.3-1.7,2.1-2.8,2.2C26.9,53.7,26.8,53.7,26.7,53.7z"></path> </g> <g> <path class="st2" d="M17.9,41.2c0,0,0.4,0.2,0.6-0.2s-0.4-0.5-0.4-0.5s-5.7-2-9,1.9c-0.5,0.7,0.5,1.2,0.5,1.2s0.5,0.4,1.2-0.4 C11.3,42.4,14.2,40.1,17.9,41.2z"></path> </g> <g> <g> <path class="st2" d="M14.8,46.9c0,0,3.3-1.5,4.2,1.5c1,3.3-5.2,5.6-6.1,2.2c-2.5-2.7,0.6-6.1,4.6-6.1 C17.9,45.2,14.8,46.9,14.8,46.9z"></path> </g> <g> <path class="st3" d="M18.5,49.5c0,1.2-0.9,2.1-2.4,2.3c-1.4,0.2-2.9-0.2-2.9-2c0-1.7,1.6-2.9,2.9-2.9 C17.4,46.9,18.8,47.9,18.5,49.5z"></path> </g> <g> <path class="st2" d="M18.5,49.8c0,0-0.2-2-1.8-2c-1.3,0-1.4,0.9-1.4,0.9l1,0.6l-1,0.6c0,0,0.8,1.8,2.5,1 C18.4,50.4,18.5,49.8,18.5,49.8z"></path> </g> <g> <ellipse transform="matrix(0.9499 -0.3125 0.3125 0.9499 -14.4745 7.9172)" class="st4" cx="17.5" cy="49.1" rx="0.5" ry="0.6"></ellipse> </g> </g> </g> </g> <g> <path class="st3" d="M37.1,57.2l-0.9,4.5c0,0-0.5,2.3,1.4,2.3s2.5,0,2.5,0s1.5,0.1,1.8-1.8l0.5-2.4h2.3c0,0,4.5,0.3,7.2-3.2 c-0.7,1.9-0.2,3.2,1.4,3.2c1.5,0,2,0,2,0s1.8,0.1,2.1-2.4l1.3-6.6H61c0,0,0.5,0,0.4,0.8l-1.1,5.8c0,0-0.7,2.5,1.5,2.5s2.3,0,2.3,0 s0.9,0.1,1.3-0.6L64.9,62c0,0-0.6,2.1,1.4,2.1h2.4c0,0,1.5,0.3,1.8-2l0.4-2.2h1.8c7.8,0,9.3-5.1,9.3-8.2c0,0,0.4-5.6-6.8-5.6h-5.3 c0,0-2-0.2-2.3,1.8l-0.3,1.6c0,0,0.2-3.5-5.7-3.5h-1.9l0.4-2.1c0,0,0.6-2.1-1.5-2.1s-2.1,0-2.1,0s-1.6-0.1-2,1.7s-1.2,6.3-1.2,6.3 S53,46,46.2,46c-2.2,2-1.1,4.7-1.1,4.7l1.3,0.1c0,0,1.6-0.1,1.2,1.6c-0.4,1.6-0.5,2.9-4.2,2.9v-1C43.3,54,37.6,56,37.1,57.2z"></path> </g> <g> <path class="st2" d="M38,62.8h2c0,0,0.7,0.1,0.9-0.8c0.2-0.9,0.5-2.7,0.5-2.7s-0.1-0.7,1.1-0.7c2.5,0,8.2,0.7,9.8-5.5 c0-1.4,1.5-6.2-6.3-6.1c-1.3,1.1-0.6,2.4-0.6,2.4s4-0.3,3.5,2.7s-1.5,3.7-3.7,3.9c-2.1,0.2-3.3,0.5-2.9-1.1 c-2.6,0.8-3.7,1.6-3.7,1.6l-1,4.9C37.4,61.5,37,62.8,38,62.8z"></path> </g> <g> <path class="st2" d="M55.5,43.9c0,0,0-1.1,0.7-1.1s2.3,0,2.3,0s0.6,0,0.3,1.3s-0.4,2.1-0.4,2.1S58.1,47,59,47s2.8,0,2.8,0 c3,0.2,4.8,1,4.1,4.3l-1.3,6.6c0,0-0.1,0.8-0.8,0.8s-2.1,0-2.1,0s-0.6,0-0.5-0.7s1.2-6.3,1.2-6.3s0.7-2.2-1.5-2.2s-2,0-2,0 s-1.3-0.3-1.4,1.2l-1.4,7c0,0,0.1,1-1.1,1c-1.2,0-1.8,0-1.8,0s-0.8,0-0.5-1L55.5,43.9z"></path> </g> <g> <path class="st2" d="M69.7,47c0,0-0.8-0.2-1.1,1l-2.7,13.9c0,0-0.3,1,0.4,1c0.8,0,2.1,0,2.1,0s0.7,0,0.9-0.8s0.4-2.5,0.4-2.5 s0-0.9,1.2-0.9s2.1,0,2.1,0c4.7,0.1,7.5-2.9,7.8-6.8c0-4.2-3.5-4.8-5.4-4.8C73.5,47,69.7,47,69.7,47z"></path> </g> <g> <path class="st3" d="M72.7,50.7L71.8,55H73c3.3,0.2,4.2-4.5,1.6-4.3H72.7z"></path> </g> <path class="st2" d="M98.5,39.8c0-1.7-1.9-2.2-3.1-2.4c0.1-0.5,0.1-1.1-0.2-1.6c-0.2-0.4-0.7-0.9-1.8-1c0,0,0,0-0.1,0 c-2.8,0-5.1,2.4-5.9,3.3h-8c-1.8-1.8-3.8-3.3-6.2-4.5c-3.9-1.9-8.5-2.9-13.7-2.9l0,0L42.7,31c-2.8-4-6-4.3-8.8-4 c-0.7,0.1-1.8,0.5-2.9,1c-0.6-0.6-1.9-1.3-4.5-1.3c-3.6,0-7.9,4.4-8.8,5.5c-6,0.9-10.4,3-13,6.4c-3,3.7-3,8.1-3.1,10.2 c0,0.4,0,0.7,0,0.9v0.1c0,0.3,0.1,33.4,0.1,35.4c0,0.1,0,0.3,0,0.4c0,1.2,0,2.7,1.1,3.9c1,1,2.5,1.4,4.8,1.4s4-0.6,5-1.7 c0.9-1,0.9-2.2,0.9-2.5L14.9,71c0.2-2.5,1.1-4.3,2.5-5.2c1.1-0.7,2.6-0.9,4.1-0.9v15.6c0,0.3-0.1,2.2,0.8,4.2s2.8,4.4,7.2,4.9 c0.2,0.2,0.4,0.5,0.6,0.7c1.9,2,5.3,3,10,3c4.6,0,7.8-1.1,9.7-3.3c1.8-2.1,1.6-4.4,1.6-4.9V74.8c0.7,0.1,1.8,0.3,3.2,0.4v7.5 c0,0.2,0,1.8,1.1,3.5c1,1.6,3.1,3.5,7.7,3.9c2,1.9,5.3,2.9,9.7,2.9c4.7,0,8-1.1,9.8-3.2c1.6-1.8,1.5-3.8,1.5-4.2v-23 c0-0.2-0.1-0.3-0.1-0.5c2.4-6.6,1.8-14.2-1.8-20.1h5.1c0.6,0.9,2.4,2.9,5.5,3.1l0,0c0.6,0,2.5,0,3-1.2c0.2-0.5,0.1-1.1-0.2-1.6 C97,41.9,98.5,41.3,98.5,39.8z M26.5,28.2c1.5,0,2.4,0.3,2.9,0.5c-1.8,1-3.8,2.1-5.2,3c-1.4,0-2.8,0.1-4.1,0.2 C21.8,30.2,24.5,28.2,26.5,28.2z M23,80.6L23,80.6V65c2,0.3,3.9,1,5.3,1.5c0,4.9,0,17.9,0,18.8v0.1c0,0.5,0,1.4,0.3,2.5 C22.7,86.5,23,80.9,23,80.6z M56,82.6L56,82.6v-7.5c1.4,0,3.2-0.1,5.1-0.5v10.8c0,0.2,0,1.4,0.7,2.8C56,87.2,56,82.8,56,82.6z M82.4,62.2c-0.1,0.4,0,0.8,0.3,1v22.3v0.1c0,0.1,0.2,1.6-1.1,3.1c-1.5,1.7-4.5,2.6-8.6,2.6c-4.2,0-7.2-0.9-8.9-2.7 c-1.4-1.5-1.4-3-1.4-3.1l0,0V72.1c0-0.4-0.3-0.8-0.8-0.8c-0.4,0-0.8,0.3-0.8,0.8v1c-5.2,0.9-8.6,0.3-9.8,0.1V72 c0-0.4-0.3-0.8-0.8-0.8s-0.8,0.3-0.8,0.8v13.3v0.1c0,0,0.3,2-1.2,3.7c-1.5,1.8-4.4,2.7-8.5,2.7c-4.3,0-7.3-0.8-8.9-2.5 c-1.4-1.4-1.4-3.1-1.4-3.8c0-0.1,0-0.1,0-0.1c0-1.2,0-20.7,0-20.7h-1.5c0,0,0,0.1,0,0.2c-3.1-1.1-8.3-2.6-11.8-0.4 c-1.9,1.2-3,3.4-3.2,6.4l-1.4,15.7c0,0.1,0,0.1,0,0.2c0,0,0.1,0.8-0.5,1.5c-0.7,0.8-2,1.1-3.8,1.1s-3.1-0.3-3.7-1 c-0.7-0.7-0.7-1.8-0.7-2.8c0-0.1,0-0.3,0-0.4c0-2-0.1-34.1-0.1-35.4c0-0.3,0-0.6,0-1c0-3.8,0.2-13,15-15.1h0.1 c1.2-0.2,2.4-0.3,3.8-0.3c-0.1,0.2,0,0.5,0.1,0.7c0.2,0.4,0.7,0.5,1.1,0.2s0.9-0.6,1.5-1l0,0c0.3,0,0.6-0.2,0.7-0.5 c2.9-1.8,7-4.1,8.6-4.3c2.6-0.3,5.3,0,7.7,3.9c2.5,3.9,4.1,16.4,0.1,21.1c-1.6,1.6-3.4,2-5,2.4c-2.1,0.5-4.3,1-4.3,4.6 c0,0.4,0.3,0.8,0.8,0.8c0.4,0,0.8-0.3,0.8-0.8c0-2.4,1-2.6,3.1-3.1c1.7-0.4,3.8-0.9,5.8-2.8l0,0c2.7-3.1,2.9-8.7,2.8-11.8 c-0.2-4-1-7.9-2.3-10.3l15.9-0.3c9.3,0,16.8,3.4,21,9.7C84.4,47.7,85.2,55.5,82.4,62.2z M94.7,40.8c-0.2,0-1.8-0.1-3.5-0.2 c-1.8-0.2-2.8-0.5-3.3-0.7c1.9-1.1,5.4-1.1,6.7-1.1l0,0c1,0.1,2.3,0.5,2.3,1C97,40.3,95.7,40.7,94.7,40.8z"></path> </g> </svg> 