<?xml version="1.0" encoding="UTF-8"?> <!-- Generator: Adobe Illustrator 21.0.2, SVG Export Plug-In . SVG Version: 6.00 Build 0) --> <svg xmlns="http://www.w3.org/2000/svg" xmlns:xlink="http://www.w3.org/1999/xlink" id="Calque_1" x="0px" y="0px" viewBox="0 0 100 120" style="enable-background:new 0 0 100 120;" xml:space="preserve"> <style type="text/css"> .st0{fill:#27245D;} .st1{fill:#E2066F;} .st2{fill:#A0DBE8;} .st3{fill:#525353;} .st4{fill:#AA9678;} .st5{fill:#C0B098;} .st6{fill:#786453;} .st7{fill:#8B7460;} .st8{fill:none;} .st9{fill:#FFFFFF;} .st10{fill:#BBBCBD;} .st11{fill:#676A6A;} .st12{fill:#909393;} .st13{fill:#E2DDDB;} .st14{fill:#FBB040;} .st15{fill:#9F2255;} </style> <g id="XMLID_141_"> <g id="XMLID_142_"> <path id="XMLID_160_" class="st0" d="M20.7,92.6c0-0.1,0-0.2,0-0.4c0-1,0.3-1.8,1-2.3c0.7-0.6,1.4-0.8,2.2-0.8 c1.1,0,1.8,0.4,2.2,1.2L20.7,92.6z M28.5,91.2c0-1.2-0.5-2.1-1.3-2.9c-0.9-0.7-2-1.1-3.3-1.1c-0.8,0-1.7,0.2-2.4,0.6 c-0.8,0.4-1.4,0.9-1.9,1.8c-0.5,0.8-0.8,1.7-0.8,2.7c0,1.5,0.5,2.7,1.5,3.6c1,0.9,2.2,1.4,3.6,1.4c1.6,0,3-0.6,4.1-1.8l-1.2-1.3 C26,95,25.1,95.4,24,95.4c-1.1,0-2-0.4-2.6-1.2L28.5,91.2L28.5,91.2z"></path> <path id="XMLID_138_" class="st0" d="M16.4,87.8c-0.6,0.4-1,0.9-1.3,1.5v-2h-2.1v9.8h2v-4.2c0-1.1,0.3-2,0.8-2.7 c0.5-0.7,1.3-1,2.3-1h0.1l0-2.1C17.5,87.2,16.9,87.4,16.4,87.8"></path> <path id="XMLID_137_" class="st0" d="M35.8,92.2c-0.3-0.2-0.6-0.4-0.9-0.5c-0.3-0.1-0.6-0.2-0.9-0.3c-0.3-0.1-0.7-0.2-1.1-0.3 c-0.4-0.1-0.7-0.2-0.9-0.3c-0.3-0.1-0.5-0.4-0.5-0.7c0-0.4,0.2-0.6,0.5-0.8c0.3-0.2,0.7-0.3,1.2-0.3c0.9,0,1.8,0.3,2.6,0.8 l0.8-1.5c-1-0.7-2.1-1-3.2-1s-2,0.3-2.7,0.8c-0.7,0.6-1.1,1.3-1.1,2.2c0,1.3,1,2.2,3.1,2.8c0,0,0.1,0,0.2,0.1c1.3,0.4,2,0.8,2,1.3 c0,0.3-0.1,0.6-0.4,0.8c-0.3,0.2-0.6,0.3-1.1,0.3c-1.1,0-2.2-0.4-3.3-1.3l-1,1.6c0.6,0.5,1.3,0.8,2,1.1c0.8,0.3,1.5,0.4,2.2,0.4 c1,0,1.9-0.3,2.6-0.8s1-1.3,1-2.2C36.8,93.3,36.5,92.6,35.8,92.2"></path> <path id="XMLID_155_" class="st0" d="M8.6,90.7c-0.4,0.5-1.3,0.7-2.4,0.7H3.7v-5.1h2.2c1.2,0,2,0.2,2.6,0.6c0.6,0.4,0.8,1,0.8,1.9 C9.3,89.6,9.1,90.3,8.6,90.7 M10.2,85.4c-0.9-0.7-2.3-1.1-4.3-1.1H1.5v12.8h2.2v-3.8H6c1.9,0,3.3-0.4,4.2-1.1 c0.9-0.7,1.4-1.9,1.4-3.4C11.5,87.3,11.1,86.2,10.2,85.4"></path> <path id="XMLID_134_" class="st0" d="M41.6,95.5c-0.4,0-0.8-0.1-1-0.4c-0.2-0.3-0.4-0.7-0.4-1.1v-5h2.6v-1.7h-2.6v-3.1h-2v9.6 c0,1,0.3,1.9,0.9,2.4c0.6,0.6,1.4,0.9,2.2,0.9c0.9,0,1.7-0.3,2.4-1l-0.8-1.5C42.5,95.3,42.1,95.5,41.6,95.5"></path> <path id="XMLID_151_" class="st0" d="M51,94.6c-0.6,0.6-1.2,0.9-2,0.9c-0.8,0-1.5-0.3-2.1-0.9C46.3,94,46,93.2,46,92.3 c0-0.9,0.3-1.7,0.9-2.3S48.1,89,49,89c0.8,0,1.5,0.3,2.1,0.9c0.6,0.6,0.8,1.4,0.8,2.3C51.9,93.2,51.6,94,51,94.6 M51.8,89.1 c-0.8-1.2-1.9-1.8-3.2-1.8s-2.4,0.5-3.3,1.4c-0.9,0.9-1.4,2.1-1.4,3.6c0,1.5,0.5,2.7,1.4,3.7c0.9,0.9,2,1.4,3.2,1.4 c0.6,0,1.2-0.2,1.8-0.5c0.6-0.3,1.1-0.7,1.5-1.3v1.6h2v-9.8h-2V89.1z"></path> <path id="XMLID_148_" class="st1" d="M84.4,94.6c-0.6,0.6-1.3,0.9-2.2,0.9c-0.9,0-1.6-0.3-2.2-0.9c-0.6-0.6-0.9-1.4-0.9-2.3 c0-0.9,0.3-1.7,0.9-2.3s1.3-0.9,2.2-0.9c0.9,0,1.6,0.3,2.2,0.9c0.6,0.6,0.9,1.4,0.9,2.3C85.2,93.2,85,94,84.4,94.6 M82.2,87.2 c-1.5,0-2.7,0.5-3.7,1.5c-1,1-1.5,2.2-1.5,3.6c0,1.4,0.5,2.6,1.5,3.6c1,1,2.2,1.5,3.7,1.5s2.7-0.5,3.7-1.5c1-1,1.5-2.2,1.5-3.6 c0-1.4-0.5-2.6-1.5-3.6C84.8,87.7,83.6,87.2,82.2,87.2"></path> <path id="XMLID_145_" class="st1" d="M95.5,94.6c-0.6,0.6-1.3,0.9-2.1,0.9c-0.8,0-1.5-0.3-2-0.9c-0.6-0.6-0.8-1.4-0.8-2.3 s0.3-1.7,0.8-2.3c0.6-0.6,1.3-0.9,2.1-0.9c0.8,0,1.5,0.3,2.1,0.9c0.6,0.6,0.9,1.4,0.9,2.3C96.4,93.2,96.1,94,95.5,94.6 M97.1,88.6 c-0.9-0.9-2-1.4-3.3-1.4c-1.3,0-2.4,0.6-3.2,1.9v-1.7h-2v13.3h2v-5c1,1.1,2.1,1.6,3.3,1.6s2.3-0.5,3.2-1.4 c0.9-0.9,1.4-2.2,1.4-3.7C98.5,90.7,98,89.5,97.1,88.6"></path> <path id="XMLID_127_" class="st1" d="M72.2,87.2c-0.7,0-1.3,0.2-1.9,0.5c-0.6,0.3-1,0.8-1.3,1.4v-5.6h-2v13.6h2v-5.3 c0-0.9,0.3-1.6,0.8-2.1c0.5-0.5,1.1-0.7,1.9-0.7c1.5,0,2.2,0.9,2.2,2.7v5.4h2v-6c0-1.3-0.3-2.2-1-2.9 C74.2,87.6,73.3,87.2,72.2,87.2"></path> <path id="XMLID_126_" class="st1" d="M64.5,91c-0.7-0.6-1.7-1-3-1.3c-1.3-0.3-2.2-0.6-2.6-0.9c-0.4-0.3-0.6-0.7-0.6-1.2 c0-0.5,0.2-0.9,0.6-1.2c0.4-0.3,0.9-0.4,1.6-0.4c0.6,0,1.3,0.1,1.9,0.3c0.7,0.2,1.2,0.5,1.5,0.8l1.2-1.6c-0.6-0.5-1.3-0.9-2.1-1.1 c-0.8-0.3-1.6-0.4-2.4-0.4c-1.3,0-2.3,0.3-3.2,1S56,86.5,56,87.7s0.4,2.1,1.1,2.6c0.4,0.3,0.8,0.6,1.3,0.7 c0.5,0.2,1.2,0.4,2.1,0.6c0.9,0.2,1.6,0.5,2,0.7c0.4,0.3,0.6,0.7,0.6,1.2c0,0.5-0.2,0.9-0.6,1.2c-0.4,0.3-1,0.5-1.7,0.5 c-1.4,0-2.7-0.6-4-1.7l-1.4,1.6c1.6,1.4,3.3,2.1,5.3,2.1c1.4,0,2.5-0.4,3.3-1s1.3-1.6,1.3-2.7C65.5,92.4,65.1,91.5,64.5,91"></path> </g> <g> <path id="XMLID_125_" class="st2" d="M39.6,64.7c0.5-0.2,0.9-0.4,1.4-0.6c0.6-0.2,1.1-0.4,1.7-0.6c0.7-0.2,1.4-0.4,2.1-0.6 c1-0.2,1.9-0.4,2.9-0.5c-0.6,1.7-1.1,3.4-1.8,5.1c0,0.3,0,0.7,0.1,1c1.3-0.3,2.7-0.4,4.1-0.4s2.8,0.1,4.1,0.4c0-0.3,0-0.7,0.1-1 c-0.7-1.7-1.3-3.4-1.8-5.1c1,0.1,2,0.2,2.9,0.5c0.7,0.2,1.4,0.3,2.1,0.6c0.6,0.2,1.1,0.4,1.7,0.6c0.5,0.2,1,0.4,1.4,0.6 c3.3,1.5,6.4,3.7,8.9,6.6c6.3-5.4,10.3-13.4,10.3-22.4c0-16.3-13.2-29.6-29.6-29.6c-16.3,0-29.6,13.2-29.6,29.6 c0,8.9,4,17,10.3,22.4C33.2,68.4,36.2,66.2,39.6,64.7z"></path> <path id="XMLID_124_" class="st3" d="M41.5,70.1c1.4-0.6,2.9-1.1,4.4-1.4c0-0.3,0-0.7-0.1-1c0.7-1.7,1.3-3.4,1.8-5.1 c-1,0.1-2,0.2-2.9,0.5c-0.7,0.2-1.4,0.3-2.1,0.6c-0.6,0.2-1.1,0.4-1.7,0.6l2.1,0.5L41.5,70.1z"></path> <path id="XMLID_123_" class="st3" d="M36.5,73.3c0.1-0.6,0.1-1.1,0.1-1.7c0-0.3,0.3-0.6,0.6-0.6h0.5l1.9-6.3 c-3.3,1.5-6.4,3.7-8.9,6.6c1.4,1.2,2.9,2.3,4.5,3.2C35.6,74.1,36,73.7,36.5,73.3z"></path> <path id="XMLID_122_" class="st3" d="M60.4,64.7l1.9,6.3h0.5c0.3,0,0.6,0.3,0.6,0.6c0,0.6,0,1.1,0.1,1.7c0.5,0.4,0.9,0.8,1.3,1.2 c1.6-0.9,3.1-2,4.5-3.2C66.8,68.4,63.8,66.2,60.4,64.7z"></path> <path id="XMLID_121_" class="st3" d="M56.8,64.7l2.1-0.5c-0.6-0.2-1.1-0.4-1.7-0.6c-0.7-0.2-1.4-0.4-2.1-0.6 c-1-0.2-1.9-0.4-2.9-0.5c0.6,1.7,1.1,3.4,1.8,5.1c0,0.3,0,0.7-0.1,1c1.5,0.3,3,0.8,4.4,1.4L56.8,64.7z"></path> <path id="XMLID_120_" d="M50,71h4.2c-0.1-0.8-0.1-1.5-0.1-2.3c-1.3-0.3-2.7-0.4-4.1-0.4c-1.4,0-2.8,0.1-4.1,0.4 c0,0.8,0,1.5-0.1,2.3H50z"></path> <path id="XMLID_119_" d="M35.1,74.5c0.3,0.2,0.7,0.4,1,0.6c0.1-0.6,0.2-1.2,0.3-1.8C36,73.7,35.6,74.1,35.1,74.5z"></path> <path id="XMLID_118_" d="M41.3,71h4.6c0.1-0.8,0.1-1.5,0.1-2.3c-1.5,0.3-3,0.8-4.4,1.4L41.3,71z"></path> <path id="XMLID_117_" d="M63.5,73.3c0.1,0.6,0.2,1.2,0.3,1.8c0.4-0.2,0.7-0.4,1-0.6C64.4,74.1,64,73.7,63.5,73.3z"></path> <path id="XMLID_116_" d="M58.7,71l-0.3-0.9c-1.4-0.6-2.9-1.1-4.4-1.4c0,0.8,0,1.5,0.1,2.3H58.7L58.7,71z"></path> <path id="XMLID_115_" class="st4" d="M41.3,71l0.3-0.9l1.6-5.4L41,64.1c-0.5,0.2-1,0.4-1.4,0.6L37.7,71h2H41.3L41.3,71z"></path> <path id="XMLID_114_" class="st4" d="M58.5,70.1l0.3,0.9h1.5h2l-1.9-6.3c-0.5-0.2-0.9-0.4-1.4-0.6l-2.1,0.5L58.5,70.1z"></path> <path id="XMLID_113_" class="st5" d="M37.8,72.3C37.8,72.2,37.8,72.2,37.8,72.3L37.8,72.3C37.8,72.2,37.8,72.2,37.8,72.3z"></path> <path id="XMLID_112_" class="st5" d="M50,72.2h-4.4h-4.7h-3.1c0,0,0,0-0.1,0c0,1.2-0.2,2.3-0.5,3.4c3.8,1.8,8.1,2.9,12.7,2.9 L50,72.2L50,72.2z"></path> <path id="XMLID_111_" class="st4" d="M62.2,72.2L62.2,72.2C62.2,72.2,62.2,72.2,62.2,72.2C62.2,72.2,62.2,72.2,62.2,72.2z"></path> <path id="XMLID_110_" class="st4" d="M62.2,72.2h-3.1h-4.8H50l0,0v6.3c4.5,0,8.8-1,12.7-2.9C62.4,74.5,62.3,73.4,62.2,72.2 C62.2,72.2,62.2,72.2,62.2,72.2z"></path> <path id="XMLID_108_" class="st7" d="M63.5,73.3c-0.1-0.6-0.1-1.1-0.1-1.7c0-0.3-0.3-0.6-0.6-0.6h-0.5h-2.1h-1.5h-4.6H50h-4.2 h-4.6h-1.5h-2h-0.5c-0.3,0-0.6,0.3-0.6,0.6c0,0.6,0,1.1-0.1,1.7c-0.1,0.6-0.2,1.2-0.3,1.8c0.4,0.2,0.7,0.4,1.1,0.6 c0.3-1.1,0.4-2.2,0.5-3.4c0,0,0,0,0,0h0.1h3.1h4.7H50l0,0h4.4h4.7h3.1h0.1c0,0,0,0,0,0c0,1.2,0.2,2.3,0.5,3.4 c0.4-0.2,0.7-0.4,1.1-0.6C63.7,74.5,63.6,73.9,63.5,73.3z"></path> <g> <path id="XMLID_107_" class="st8" d="M60,44.4L60,44.4L60,44.4c0.4,1.1,0.8,2.1,1,3.3c0,0.1,0,0.2,0,0.2c0,0.1,0,0.2-0.1,0.3 c0-0.1,0.1-0.3,0.1-0.5C60.8,46.6,60.3,45.5,60,44.4L60,44.4L60,44.4L60,44.4z"></path> <path id="XMLID_106_" class="st8" d="M68.6,51.1C68.6,51.1,68.5,51.1,68.6,51.1C68.5,51.1,68.6,51.1,68.6,51.1z"></path> <path id="XMLID_105_" class="st8" d="M68.8,51C68.7,51,68.7,51,68.8,51C68.7,51,68.7,51,68.8,51z"></path> <path id="XMLID_104_" class="st8" d="M59.1,43.6c-0.7-0.6-1.4-1.1-2.1-1.6l0,0C57.7,42.5,58.4,43.1,59.1,43.6z"></path> <path id="XMLID_102_" class="st8" d="M67.2,52.3C67.2,52.3,67.2,52.4,67.2,52.3C67.2,52.3,67.2,52.3,67.2,52.3z"></path> <path id="XMLID_101_" class="st8" d="M60.9,48.3c0,0.1,0,0.2-0.1,0.2C60.8,48.4,60.8,48.4,60.9,48.3z"></path> <path id="XMLID_100_" class="st8" d="M58,59.1c-0.5,0.7-0.7,1.5-0.9,2.1C57.2,60.5,57.5,59.8,58,59.1c0.2-0.3,0.3-0.5,0.4-0.7 C58.3,58.6,58.1,58.8,58,59.1C58,59.1,58,59.1,58,59.1z"></path> <path id="XMLID_99_" class="st8" d="M60,44.4c0-0.1,0.1-0.1,0.1-0.2l0,0C60,44.3,60,44.4,60,44.4c0.2,0.2,0.4,0.3,0.5,0.5 C60.3,44.7,60.1,44.6,60,44.4z"></path> <path id="XMLID_96_" class="st8" d="M55.9,41.5C55.8,41.5,55.8,41.4,55.9,41.5C55.8,41.4,55.8,41.5,55.9,41.5z"></path> <path id="XMLID_95_" class="st8" d="M56,41.6c0,0-0.1-0.1-0.1-0.1C55.9,41.5,56,41.5,56,41.6z"></path> <path id="XMLID_92_" class="st8" d="M68.4,53.9c0,0,0.1,0.1,0.1,0.1C68.5,54,68.4,53.9,68.4,53.9z"></path> <path id="XMLID_91_" class="st8" d="M57,44.9c0,0.3,0,0.6,0,0.9C57,45.5,57,45.2,57,44.9z"></path> <path id="XMLID_89_" class="st8" d="M56.9,42.1c-0.1-0.1-0.4-0.2-0.7-0.4C56.5,41.8,56.7,42,56.9,42.1z"></path> <path id="XMLID_88_" class="st8" d="M56.2,41.7c-0.1,0-0.1-0.1-0.2-0.1C56.1,41.6,56.1,41.6,56.2,41.7z"></path> <path id="XMLID_85_" class="st8" d="M64.5,49.1C64.6,49.1,64.6,49.1,64.5,49.1L64.5,49.1L64.5,49.1 C64.6,49.2,64.6,49.1,64.5,49.1L64.5,49.1z"></path> <path id="XMLID_84_" class="st8" d="M60.5,44.9c0.4,0.4,0.8,0.7,1.2,1.1C61.3,45.6,60.9,45.2,60.5,44.9z"></path> <path id="XMLID_83_" class="st8" d="M68.2,47.1c0.1,0,0.1,0,0.2,0C68.3,47.2,68.3,47.1,68.2,47.1z"></path> <path id="XMLID_82_" class="st8" d="M67.1,48.6C67.1,48.7,67,48.7,67.1,48.6C67,48.7,67.1,48.7,67.1,48.6z"></path> <path id="XMLID_81_" class="st8" d="M68.5,47.2c0,0,0.1,0,0.1,0.1C68.6,47.3,68.5,47.2,68.5,47.2z"></path> <path id="XMLID_80_" class="st8" d="M68.9,47.6C68.9,47.6,69,47.6,68.9,47.6C68.9,47.6,68.9,47.6,68.9,47.6z"></path> <path id="XMLID_77_" class="st8" d="M67.4,47.6C67.4,47.6,67.4,47.6,67.4,47.6C67.4,47.6,67.4,47.6,67.4,47.6z"></path> <path id="XMLID_76_" class="st8" d="M68,47.2c0.1,0,0.1,0,0.2,0C68.1,47.1,68,47.2,68,47.2z"></path> <path id="XMLID_75_" class="st8" d="M62.7,47.1c-0.2-0.2-0.4-0.4-0.6-0.6C62.4,46.7,62.5,46.9,62.7,47.1z"></path> <path id="XMLID_74_" class="st8" d="M68.2,40.7L68.2,40.7L68.2,40.7v2.7l-1,4.8c0,0,0,0,0,0v0l0,0l0,0l1-4.8V40.7L68.2,40.7 L68.2,40.7L68.2,40.7z"></path> <path id="XMLID_73_" class="st8" d="M63.7,48.1c-0.1-0.1-0.2-0.2-0.3-0.3C63.5,47.9,63.6,48,63.7,48.1z"></path> <path id="XMLID_72_" class="st8" d="M69.2,48.3c0,0,0,0.1,0,0.1l0,0C69.3,48.3,69.3,48.3,69.2,48.3L69.2,48.3L69.2,48.3z"></path> <path id="XMLID_71_" class="st8" d="M67,49.2L67,49.2C67,49.1,67,49.1,67,49.2C67,49.1,67,49.1,67,49.2z"></path> <path id="XMLID_70_" class="st8" d="M67.8,47.3c0,0,0.1-0.1,0.1-0.1C67.9,47.2,67.8,47.3,67.8,47.3z"></path> <path id="XMLID_69_" class="st8" d="M67.6,47.4c0-0.1,0.1-0.1,0.2-0.1C67.7,47.4,67.6,47.4,67.6,47.4z"></path> <path id="XMLID_68_" class="st8" d="M69.3,50L69.3,50c0,0.1-0.1,0.2-0.1,0.3C69.2,50.2,69.3,50.1,69.3,50L69.3,50L69.3,50z"></path> <path id="XMLID_67_" class="st8" d="M33.2,48.3c0-0.1,0.1-0.1,0.1-0.2C33.3,48.1,33.3,48.2,33.2,48.3z"></path> <path id="XMLID_66_" class="st8" d="M68.7,47.3c0.1,0,0.1,0.1,0.2,0.1C68.8,47.4,68.7,47.4,68.7,47.3z"></path> <path id="XMLID_65_" class="st8" d="M34.1,47C34.1,47,34.1,47,34.1,47C34.1,47,34.1,47,34.1,47z"></path> <path id="XMLID_63_" class="st8" d="M31.9,50.6c-0.1,0.1-0.1,0.2-0.2,0.3C31.8,50.8,31.9,50.7,31.9,50.6z"></path> <path id="XMLID_62_" class="st8" d="M31.3,52.1C31.3,52.2,31.3,52.2,31.3,52.1C31.3,52.2,31.3,52.2,31.3,52.1z"></path> <path id="XMLID_59_" class="st8" d="M36,44.8c0.1-0.1,0.1-0.1,0.2-0.2C36.1,44.7,36,44.7,36,44.8z"></path> <path id="XMLID_58_" class="st8" d="M34.9,45.9c0.1-0.1,0.1-0.1,0.2-0.2C35.1,45.8,35,45.9,34.9,45.9z"></path> <path id="XMLID_57_" class="st8" d="M69.2,48.3l-1-4.8L69.2,48.3z"></path> <path id="XMLID_56_" class="st8" d="M50.9,51.9C50.9,51.9,50.8,51.9,50.9,51.9C50.8,51.9,50.9,51.9,50.9,51.9z"></path> <path id="XMLID_55_" class="st8" d="M51.2,51.9C51.1,51.9,51.1,51.9,51.2,51.9C51.1,51.9,51.1,51.9,51.2,51.9z"></path> <path id="XMLID_54_" class="st8" d="M32.6,49.3c-0.1,0.1-0.1,0.2-0.2,0.4C32.5,49.6,32.5,49.5,32.6,49.3z"></path> <path id="XMLID_52_" class="st8" d="M50.6,51.8C50.6,51.8,50.6,51.8,50.6,51.8C50.6,51.8,50.6,51.8,50.6,51.8z"></path> <path id="XMLID_49_" class="st8" d="M48.7,48.5C48.7,48.6,48.7,48.6,48.7,48.5C48.7,48.6,48.7,48.6,48.7,48.5z"></path> <path id="XMLID_46_" class="st8" d="M48.8,48.3C48.8,48.3,48.8,48.3,48.8,48.3C48.8,48.3,48.8,48.3,48.8,48.3z"></path> <path id="XMLID_45_" class="st8" d="M48.9,48C48.9,48,48.9,48.1,48.9,48C48.9,48.1,48.9,48,48.9,48z"></path> <path id="XMLID_35_" class="st8" d="M69,50.7c0,0-0.1,0.1-0.1,0.1C68.9,50.8,69,50.7,69,50.7z"></path> <path id="XMLID_34_" class="st8" d="M48.7,48.8C48.7,48.8,48.7,48.9,48.7,48.8C48.7,48.9,48.7,48.8,48.7,48.8z"></path> <path id="XMLID_32_" class="st8" d="M69.2,50.4c0,0.1-0.1,0.1-0.1,0.2C69.1,50.5,69.1,50.4,69.2,50.4z"></path> <path id="XMLID_31_" class="st3" d="M58.5,66.8c-0.1-0.1-0.2-0.2-0.3-0.3C58.3,66.6,58.4,66.7,58.5,66.8L58.5,66.8z"></path> <path id="XMLID_30_" class="st4" d="M59.2,67.4L59.2,67.4L59.2,67.4c0,0-0.3-0.2-0.7-0.7l0,0C58.9,67.2,59.2,67.4,59.2,67.4z"></path> <path id="XMLID_27_" class="st10" d="M69.7,42.3L69.7,42.3L69.7,42.3C69.7,42.3,69.7,42.3,69.7,42.3L69.7,42.3 c-0.3-0.4-0.5-0.7-0.8-0.9l0,0l0,0l0,0l0,0c-0.1-0.1-0.2-0.3-0.4-0.4c0,0-0.1-0.1-0.1-0.1c-0.1-0.1-0.2-0.1-0.2-0.2l0,0v2.8 l1,4.8l0,0c0,0,0,0.1,0,0.1l0.7,0.8l0,0h0.8c0-0.1,0-0.1,0-0.2l0,0c0-2.3-0.4-4.5-1-6.5l0,0C69.7,42.4,69.7,42.4,69.7,42.3z"></path> <path id="XMLID_25_" class="st11" d="M69.4,48.7L69.4,48.7C69.4,48.7,69.4,48.7,69.4,48.7L69.4,48.7c0,0.2,0,0.3,0,0.4 c0,0,0,0,0,0.1l0,0l0,0c0,0,0,0,0,0.1c0,0.1,0,0.2,0,0.3l0,0v0v0c0,0.1,0,0.2-0.1,0.4l0,0l0,0l0,0l0,0l0,0l0.7-0.8l-0.7-0.8l0,0 C69.3,48.5,69.3,48.6,69.4,48.7z"></path> <path d="M69.3,49.7C69.3,49.6,69.3,49.6,69.3,49.7c0-0.2,0-0.3,0-0.4c0,0,0-0.1,0-0.1c0,0,0,0,0-0.1c0-0.1,0-0.2,0-0.4 c0,0,0,0,0,0c0-0.1,0-0.2-0.1-0.4c0,0,0-0.1,0-0.1c-0.1-0.2-0.2-0.4-0.3-0.6c0,0,0,0,0-0.1c0,0-0.1-0.1-0.1-0.1 c0-0.1-0.1-0.1-0.2-0.1c0,0,0,0-0.1,0c0,0-0.1-0.1-0.1-0.1c0,0,0,0-0.1,0c-0.1,0-0.1,0-0.2,0s-0.1,0-0.2,0c0,0,0,0-0.1,0 c0,0-0.1,0-0.1,0.1c0,0,0,0-0.1,0c-0.1,0-0.1,0.1-0.2,0.1c0,0-0.1,0.1-0.1,0.1c0,0,0,0,0,0.1c-0.1,0.2-0.2,0.4-0.3,0.6v0 c0,0.1-0.1,0.2-0.1,0.3c0,0,0,0.1,0,0.1c0,0.1,0,0.3,0,0.4c0,0,0,0,0,0.1l0,0c0,1.1,0.5,2,1.2,2c0.1,0,0.2,0,0.3-0.1 c0,0,0,0,0.1,0c0,0,0.1-0.1,0.1-0.1c0,0,0,0,0.1-0.1c0.1,0,0.1-0.1,0.2-0.2c0,0,0.1-0.1,0.1-0.1c0,0,0-0.1,0.1-0.1 c0-0.1,0.1-0.1,0.1-0.2c0,0,0,0,0-0.1c0-0.1,0.1-0.2,0.1-0.3C69.3,49.9,69.3,49.8,69.3,49.7z M68.2,48.9c-0.3,0-0.5-0.3-0.5-0.8 c0-0.4,0.2-0.8,0.5-0.8c0.3,0,0.5,0.3,0.5,0.8S68.5,48.9,68.2,48.9z"></path> <ellipse id="XMLID_22_" class="st9" cx="68.2" cy="48.1" rx="0.5" ry="0.8"></ellipse> <path id="XMLID_21_" class="st12" d="M67.1,48.3L67.1,48.3c0.1-0.2,0.2-0.4,0.3-0.6c0,0,0,0,0-0.1c0,0,0.1-0.1,0.1-0.1 c0-0.1,0.1-0.1,0.2-0.1c0,0,0,0,0.1,0c0,0,0.1-0.1,0.1-0.1c0,0,0,0,0.1,0c0.1,0,0.1,0,0.2,0s0.1,0,0.2,0c0,0,0,0,0.1,0 c0,0,0.1,0,0.1,0.1c0,0,0,0,0.1,0c0.1,0,0.1,0.1,0.2,0.1c0,0,0.1,0.1,0.1,0.1c0,0,0,0,0,0.1c0.1,0.2,0.2,0.4,0.3,0.6l0,0l0,0 l-1-4.8L67.1,48.3L67.1,48.3L67.1,48.3z"></path> <path d="M54.2,49.1c0-0.1,0-0.2,0-0.3l0,0c0-0.1,0-0.2,0-0.3l0,0c0-0.1,0-0.2-0.1-0.3l0,0c0-0.1-0.1-0.2-0.1-0.3l0,0 c0-0.1-0.1-0.2-0.1-0.2l0,0c-0.1-0.2-0.3-0.5-0.5-0.6c-0.3-0.2-0.6-0.4-0.9-0.6l0,0c-0.2-0.1-0.3-0.1-0.5-0.2c0,0,0,0,0,0 c-0.2,0-0.4-0.1-0.5-0.1c-0.2,0-0.4,0-0.5,0.1h0c-0.2,0-0.3,0.1-0.5,0.1c0,0,0,0,0,0c-0.2,0.1-0.3,0.1-0.5,0.2l0,0 c-0.1,0.1-0.3,0.2-0.4,0.3l0,0h0c-0.2,0.2-0.4,0.4-0.5,0.7l0,0c0,0.1-0.1,0.2-0.1,0.2c0,0,0,0,0,0c0,0.1-0.1,0.1-0.1,0.2 c0,0,0,0,0,0c0,0.1,0,0.1-0.1,0.2c0,0,0,0,0,0.1c0,0.1,0,0.1,0,0.2c0,0,0,0,0,0.1c0,0.1,0,0.2,0,0.3c0,0.2,0,0.4,0.1,0.5 c0,0,0,0,0,0c0,0.2,0.1,0.3,0.2,0.5l0,0c0.1,0.3,0.3,0.6,0.6,0.9c0.2,0.2,0.4,0.4,0.7,0.5l0,0c0.1,0,0.2,0.1,0.2,0.1h0 c0.1,0,0.2,0.1,0.2,0.1c0,0,0,0,0,0c0.1,0,0.1,0,0.2,0.1c0,0,0,0,0.1,0c0.1,0,0.1,0,0.2,0c0,0,0,0,0.1,0c0.1,0,0.2,0,0.3,0 c0.4,0,0.7-0.1,1.1-0.2c0.2-0.1,0.3-0.2,0.5-0.3c0.3-0.2,0.6-0.5,0.7-0.7c0.1-0.2,0.2-0.3,0.3-0.5C54.1,50,54.2,49.6,54.2,49.1 L54.2,49.1L54.2,49.1C54.2,49.1,54.2,49.1,54.2,49.1L54.2,49.1z M51.4,48.8c-0.6,0-1-0.5-1-1s0.5-1,1-1c0.6,0,1,0.5,1,1 C52.5,48.3,52,48.8,51.4,48.8z"></path> <circle id="XMLID_18_" class="st9" cx="51.4" cy="47.8" r="1"></circle> <path id="XMLID_17_" class="st10" d="M49.5,47.2L49.5,47.2L49.5,47.2L49.5,47.2L49.5,47.2l1.9-5.9c0,0,0-0.4,0-0.7 c0-0.1,0-0.2,0-0.3c0,0,0-0.1,0-0.1c0,0,0-0.1,0-0.1c0,0,0-0.1,0-0.1s0-0.1,0-0.1s0,0,0,0c0,0,0,0,0,0c-1.1-0.2-2.2-0.3-3.3-0.3 c-0.4,0-0.7,0-1.1,0c-0.1,0-0.1,0-0.2,0c-1.9,0.1-3.8,0.7-5.6,1.5c-1.5,0.7-2.9,1.6-4.2,2.7l0,0l0,0c-0.3,0.3-0.7,0.6-1,0.9 c-0.1,0.1-0.1,0.1-0.2,0.2c-0.3,0.3-0.6,0.6-0.9,0.9c-0.1,0.1-0.1,0.1-0.2,0.2c-0.3,0.3-0.6,0.7-0.8,1c0,0,0,0.1-0.1,0.1 c-0.2,0.3-0.5,0.7-0.7,1c0,0.1-0.1,0.1-0.1,0.2c-0.2,0.3-0.4,0.6-0.5,0.9h8.7h0L49.5,47.2z"></path> <path id="XMLID_16_" class="st13" d="M56.9,46.5c0-0.2,0-0.5,0-0.7c0-0.3,0-0.6,0-0.9c0-0.2,0-0.5,0-0.7c0-0.1,0-0.1,0-0.2 c0-0.6,0-1.2-0.1-1.9l0,0l0,0l0,0l0,0c0,0,0,0,0,0c0,0,0,0,0,0c-0.1-0.1-0.4-0.2-0.7-0.4h0c-0.1,0-0.1-0.1-0.2-0.1l0,0 c0,0-0.1-0.1-0.1-0.1l0,0c0,0-0.1,0-0.1-0.1c-0.4-0.2-0.8-0.4-1.2-0.6c-1-0.4-2.3-0.8-3.1-1v0.5v0.1v0c0,0.4,0,0.7,0,0.7l1.9,5.9 l0,0c0.2,0.2,0.4,0.4,0.5,0.6l0,0c0,0.1,0.1,0.2,0.1,0.2l0,0c0,0.1,0.1,0.2,0.1,0.3l0,0c0,0.1,0.1,0.2,0.1,0.3l0,0 c0,0.1,0,0.2,0,0.3l0,0c0,0.1,0,0.2,0,0.3l0,0v0h2.3C56.7,48.2,56.8,47.4,56.9,46.5C56.9,46.5,56.9,46.5,56.9,46.5z"></path> <path id="XMLID_14_" class="st14" d="M54.2,57.5c0.5-0.5,1-1,1.5-1.5c0.3-0.3,0.6-0.6,0.8-0.9c2-2.1,3.4-4.1,4.2-6.6 c0-0.1,0-0.1,0.1-0.2c0,0,0,0,0,0c0-0.1,0-0.2,0.1-0.3c0-0.1,0-0.2,0-0.2c-0.2-1.1-0.6-2.2-1-3.3c0,0,0,0,0,0c0,0,0,0,0,0 c-0.1-0.1-0.1-0.1-0.2-0.2c-0.2-0.2-0.4-0.4-0.7-0.6c-0.7-0.6-1.4-1.1-2.1-1.6l0,0c0,0.6,0.1,1.2,0.1,1.9c0,0.1,0,0.1,0,0.2 c0,0.2,0,0.5,0,0.7c0,0.3,0,0.6,0,0.9c0,0.2,0,0.5,0,0.7c0,0,0,0,0,0.1c-0.1,0.9-0.2,1.7-0.3,2.6l-0.3,1.3 c-0.6,2.3-1.7,4.4-2.7,6.6c-0.3,0.6-0.5,1.2-0.7,1.8c0,0.1,0,0.1-0.1,0.2c0.3-0.3,0.6-0.6,0.8-0.8C53.8,58,54,57.7,54.2,57.5z"></path> <path id="XMLID_13_" class="st12" d="M49.5,47.2L49.5,47.2c0.1-0.1,0.3-0.2,0.4-0.3l0,0c0.1-0.1,0.3-0.2,0.5-0.2c0,0,0,0,0,0 c0.2-0.1,0.3-0.1,0.5-0.1h0c0.2,0,0.4-0.1,0.5-0.1c0.2,0,0.4,0,0.5,0.1c0,0,0,0,0,0c0.2,0,0.3,0.1,0.5,0.2l0,0 c0.3,0.1,0.6,0.3,0.9,0.6l0,0l-1.9-5.9L49.5,47.2z"></path> <path id="XMLID_12_" class="st11" d="M48.9,50.2c-0.1-0.2-0.1-0.3-0.2-0.5c0,0,0,0,0,0c0-0.2-0.1-0.4-0.1-0.5c0-0.1,0-0.2,0-0.3 c0,0,0,0,0-0.1c0-0.1,0-0.1,0-0.2c0,0,0,0,0-0.1c0-0.1,0-0.1,0.1-0.2c0,0,0,0,0,0c0-0.1,0.1-0.2,0.1-0.2c0,0,0,0,0,0 c0-0.1,0.1-0.2,0.1-0.2l0,0c0.1-0.2,0.3-0.5,0.5-0.7l0,0l-8.1,2h0l8,2C49.2,50.9,49,50.6,48.9,50.2L48.9,50.2z"></path> <path id="XMLID_11_" class="st13" d="M67,48.7C67,48.7,67.1,48.6,67,48.7c0-0.2,0.1-0.3,0.1-0.4c0,0,0,0,0,0l1-4.8v-2.8 c-0.9-0.7-1.8-1.1-2.7-1.1c-1.2,0-2.3,0.7-3.2,1.5c-0.9,0.9-1.6,2-2.2,3.2c0,0.1-0.1,0.1-0.1,0.2c0.2,0.2,0.4,0.3,0.5,0.5 c0.4,0.4,0.8,0.7,1.2,1.1c0.2,0.2,0.4,0.4,0.5,0.5c0.2,0.2,0.4,0.4,0.6,0.6c0.2,0.3,0.5,0.5,0.7,0.7c0.1,0.1,0.2,0.2,0.3,0.3 c0.3,0.3,0.6,0.6,0.8,0.9l0,0c0,0,0.1,0.1,0.1,0.1H67c0,0,0,0,0-0.1C67,49,67,48.8,67,48.7z"></path> <path id="XMLID_9_" class="st3" d="M31.3,52.2C31.3,52.2,31.3,52.2,31.3,52.2c0.2-0.5,0.3-0.8,0.5-1.2c0-0.1,0.1-0.2,0.2-0.3 c0.1-0.3,0.3-0.6,0.5-0.9c0.1-0.1,0.1-0.2,0.2-0.4c0-0.1,0.1-0.1,0.1-0.2c0.2-0.3,0.3-0.6,0.5-0.9c0-0.1,0.1-0.1,0.1-0.2 c0.2-0.4,0.5-0.7,0.7-1c0,0,0-0.1,0.1-0.1c0.3-0.4,0.5-0.7,0.8-1c0.1-0.1,0.1-0.1,0.2-0.2c0.3-0.3,0.6-0.6,0.9-0.9 c0.1-0.1,0.1-0.1,0.2-0.2c0.3-0.3,0.6-0.6,1-0.9l0,0c1.3-4.5,5.4-7.7,10.2-7.7c1.9,0,3.9,0.6,5.5,1.6c1.7,1,3.1,2.6,4,4.3 c0,0,0,0,0,0c0,0,0,0.1,0.1,0.1l0,0l0,0l0,0l0,0c0.7,0.5,1.5,1,2.1,1.6c0.2,0.2,0.5,0.4,0.7,0.6c0.1,0.1,0.1,0.1,0.2,0.2l0,0l0,0 c0-0.1,0-0.1,0.1-0.2c0.7-4.3,2.6-7.4,4.8-7.4c1.7,0,3.2,1.8,4.1,4.5v0l0,0c0.3,0.3,0.5,0.6,0.8,0.9l0,0c0,0,0,0,0,0l0,0l0,0 c0,0,0,0.1,0,0.1l0,0l0-0.1C66.9,34.1,59.2,28.2,50,28.2c-11.5,0-20.7,9.3-20.7,20.7c0,2.3,0.4,4.4,1,6.5c0,0,0,0,0,0 c0.1-0.6,0.3-1.2,0.5-1.8C30.9,53.1,31.1,52.7,31.3,52.2z"></path> <path id="XMLID_8_" class="st9" d="M70,49.2L69.3,50l0,0l0,0c0,0.1-0.1,0.2-0.1,0.3c0,0,0,0,0,0.1c0,0.1-0.1,0.1-0.1,0.2 c0,0,0,0.1-0.1,0.1c0,0-0.1,0.1-0.1,0.1c0,0.1-0.1,0.1-0.2,0.2c0,0,0,0-0.1,0.1c0,0-0.1,0.1-0.1,0.1c0,0,0,0-0.1,0 c-0.1,0.1-0.2,0.1-0.3,0.1c-0.7,0-1.2-0.9-1.2-2l0,0l0,0h-2.4l0,0l0,0c0.5,0.5,0.9,1,1.3,1.6l0,0c0.4,0.5,0.8,1,1.2,1.5 c0,0,0,0.1,0.1,0.1c0.4,0.5,0.8,1,1.1,1.5c0,0,0.1,0.1,0.1,0.1c0.4,0.5,0.8,1.1,1.2,1.6c0,0,0,0,0,0c0.7-2,1.1-4.2,1.1-6.4l0,0 L70,49.2L70,49.2z"></path> <path id="XMLID_7_" d="M46.9,39.6c0.1,0,0.1,0,0.2,0c0.4,0,0.7,0,1.1,0c1.1,0,2.2,0.1,3.3,0.3c0,0,0,0,0,0c0,0,0,0,0,0s0,0,0,0.1 c0,0,0,0,0,0.1c0,0,0,0.1,0,0.1c0,0,0,0.1,0,0.1c0,0,0,0.1,0,0.1v-0.5c0.7,0.2,2.1,0.6,3.1,1c0.4,0.2,0.8,0.4,1.2,0.6 c0,0,0.1,0,0.1,0.1c0,0,0,0,0,0c0,0,0.1,0,0.1,0.1l0,0c0.1,0,0.1,0.1,0.2,0.1h0c0.3,0.1,0.5,0.3,0.7,0.4c0,0,0,0,0,0l0,0l0,0 c0,0,0-0.1-0.1-0.1c0,0,0,0,0,0c-0.9-1.8-2.3-3.3-4-4.3c-1.7-1-3.6-1.6-5.5-1.6c-4.8,0-8.9,3.3-10.2,7.7c1.3-1.1,2.7-2,4.2-2.7 C43.1,40.2,45,39.7,46.9,39.6z"></path> <path id="XMLID_5_" d="M62.3,41.1c0.8-0.8,2-1.5,3.2-1.5c1,0,1.9,0.4,2.7,1.1l0,0l0,0l0,0c0.1,0.1,0.2,0.1,0.2,0.2 c0,0,0.1,0.1,0.1,0.1c0.1,0.1,0.2,0.2,0.4,0.4l0,0l0,0l0,0l0,0v0c-0.9-2.7-2.4-4.5-4.1-4.5c-2.2,0-4.1,3.1-4.8,7.4l0,0 C60.6,43.1,61.3,42,62.3,41.1z"></path> <path id="XMLID_4_" class="st9" d="M42.6,68.3c0.2,0.1,0.4,0.1,0.6,0.2c2.1,0.7,4.5,1.2,6.9,1.2c2.7,0,5.4-0.5,7.7-1.5 c0.1-0.1,0.3-0.1,0.4-0.2c0.2-0.1,0.4-0.2,0.6-0.3c0.2-0.1,0.4-0.2,0.5-0.3c0,0-0.1,0-0.1,0l0,0c-0.7,0.1-1.5,0.1-2.2,0 c-4.3-0.6-5.2-2.7-5.1-4.8c-0.3-0.2-0.6-0.4-0.9-0.6c-3.3-2.4-5.2-4.9-5.2-4.9s2.5,2,6.3,3.4c0.1,0,0.2,0.1,0.2,0.1 c0.2-0.6,0.4-1.2,0.6-1.7l0,0c0-0.1,0-0.1,0.1-0.2c0.2-0.6,0.5-1.2,0.7-1.8c0.9-2.2,2.1-4.3,2.7-6.6l0.3-1.3h-2.3l0,0l0,0l0,0 l0,0l0,0v0c0,0.4-0.1,0.7-0.2,1.1c-0.1,0.2-0.2,0.3-0.3,0.5c-0.2,0.3-0.5,0.6-0.7,0.7c-0.2,0.1-0.3,0.2-0.5,0.3 c-0.3,0.1-0.7,0.2-1.1,0.2c-0.1,0-0.2,0-0.3,0c0,0,0,0-0.1,0c-0.1,0-0.1,0-0.2,0c0,0,0,0-0.1,0c-0.1,0-0.1,0-0.2-0.1c0,0,0,0,0,0 c-0.1,0-0.2-0.1-0.2-0.1h0c-0.1,0-0.2-0.1-0.2-0.1l0,0c-0.2-0.1-0.5-0.3-0.7-0.5l-8-2h-8.7c0,0.1-0.1,0.1-0.1,0.2 c-0.1,0.1-0.1,0.2-0.2,0.4c-0.2,0.3-0.3,0.6-0.5,0.9c-0.1,0.1-0.1,0.2-0.2,0.3c-0.2,0.4-0.3,0.8-0.5,1.2c0,0,0,0,0,0.1 c-0.2,0.5-0.3,0.9-0.5,1.4c-0.2,0.6-0.3,1.2-0.5,1.8c1.4,4.2,4,7.8,7.5,10.3c0.1,0.1,0.2,0.1,0.3,0.2c0.6,0.4,1.2,0.8,1.8,1.1 C40.8,67.5,41.7,68,42.6,68.3z"></path> <path id="XMLID_3_" class="st15" d="M56.9,61.9c0,0.2-0.1,0.4-0.1,0.7c0,0.4,0,0.7,0.1,1.1c0,0.2,0.1,0.5,0.1,0.7 c0.1,0.3,0.2,0.6,0.3,0.9c0.1,0.3,0.3,0.5,0.4,0.7c0,0.1,0.1,0.2,0.1,0.2c0.1,0.1,0.1,0.2,0.2,0.3c0.1,0.1,0.2,0.2,0.3,0.3 c0.4,0.4,0.7,0.7,0.7,0.7s0,0,0,0c0,0,0,0,0,0.1l0,0c0,0,0.1,0,0.1,0c0.9-0.1,1.9-0.4,2.8-0.7c0.5-0.2,0.9-0.4,1.4-0.6 c0.1-0.1,0.3-0.1,0.4-0.2c4.7-2.3,8.7-6.4,8.7-6.4C66.7,62.6,60.8,62.5,56.9,61.9z"></path> <path id="XMLID_2_" class="st1" d="M68.4,53.9c-0.4-0.5-0.8-1-1.1-1.5c0,0,0-0.1-0.1-0.1c-0.4-0.5-0.8-1-1.2-1.5l0,0 c-0.4-0.5-0.9-1-1.3-1.6c0,0-0.1-0.1-0.1-0.1c-0.3-0.3-0.6-0.6-0.8-0.9c-0.1-0.1-0.2-0.2-0.3-0.3c-0.2-0.3-0.5-0.5-0.7-0.7 c-0.2-0.2-0.4-0.4-0.6-0.6c-0.2-0.2-0.4-0.4-0.5-0.5c-0.4-0.4-0.8-0.7-1.2-1.1c-0.2-0.2-0.4-0.3-0.5-0.5l0,0 c0.4,1.1,0.8,2.2,1,3.3c0.1,0.3,0.1,0.6,0.1,0.8c0.5,3.9-0.7,6.4-2.7,9.8c-0.1,0.2-0.3,0.5-0.4,0.7c-0.5,0.7-0.7,1.5-0.9,2.1 c-0.1,0.2-0.1,0.4-0.1,0.7c3.9,0.6,9.7,0.7,15.7-2.2c0,0-1.2-1.7-2.9-4.1c-0.4-0.5-0.8-1.1-1.2-1.6C68.5,54,68.4,53.9,68.4,53.9z "></path> <path id="XMLID_1_" d="M59.2,67.4c0,0-0.3-0.2-0.7-0.7c-0.1-0.1-0.2-0.2-0.3-0.3c-0.1-0.1-0.1-0.2-0.2-0.3c0-0.1-0.1-0.1-0.1-0.2 c-0.1-0.2-0.3-0.5-0.4-0.7c-0.1-0.3-0.2-0.6-0.3-0.9c-0.1-0.2-0.1-0.4-0.1-0.7c-0.1-0.3-0.1-0.7-0.1-1.1c0-0.2,0-0.4,0.1-0.7 c0-0.2,0.1-0.4,0.1-0.7c0.2-0.7,0.5-1.4,0.9-2.1l0,0c0.1-0.3,0.3-0.5,0.4-0.7c2-3.3,3.2-5.9,2.7-9.8c0-0.3-0.1-0.6-0.1-0.8 c0,0.2-0.1,0.4-0.1,0.5c0,0,0,0,0,0c0,0.1,0,0.2-0.1,0.2c-0.9,2.5-2.3,4.5-4.2,6.6c-0.3,0.3-0.5,0.6-0.8,0.9 c-0.5,0.5-1,1-1.5,1.5c-0.2,0.2-0.4,0.4-0.7,0.6c-0.2,0.2-0.5,0.5-0.8,0.8l0,0c-0.2,0.5-0.4,1.1-0.6,1.7c-0.1,0-0.2-0.1-0.2-0.1 c-3.8-1.5-6.3-3.4-6.3-3.4s2,2.5,5.2,4.9c0.3,0.2,0.6,0.4,0.9,0.6c-0.1,2.1,0.8,4.2,5.1,4.8C57.7,67.6,58.4,67.6,59.2,67.4 C59.2,67.5,59.2,67.5,59.2,67.4L59.2,67.4z"></path> </g> </g> </g> </svg> 