<?xml version="1.0" encoding="utf-8"?>
<!-- Generator: Adobe Illustrator 22.0.1, SVG Export Plug-In . SVG Version: 6.00 Build 0)  -->
<svg version="1.1" id="Layer_1" xmlns="http://www.w3.org/2000/svg" xmlns:xlink="http://www.w3.org/1999/xlink" x="0px" y="0px"
	 viewBox="0 0 352.5 349.2" style="enable-background:new 0 0 352.5 349.2;" xml:space="preserve">
<style type="text/css">
	.st0{fill:none;stroke:#231F20;stroke-width:2;stroke-miterlimit:10;}
	.st1{fill:#231F20;stroke:#231F20;stroke-width:2;stroke-miterlimit:10;}
	.st2{fill:#FFFFFF;}
</style>
<g>
	<path class="st0" d="M74.5,39.4c-10.2-5.3-22.4-4.9-32.2,1.1S26.5,57.1,26.5,68.6v222.6c0,8.8,3.6,17.2,9.7,23.2
		c-3.7-0.7-7.3-2.1-10.6-4.1c-9.8-6-15.8-16.6-15.8-28.1V59.6c0-11.5,6-22.1,15.8-28.1s22-6.4,32.2-1.1L74.5,39.4z"/>
	<path class="st0" d="M60.2,49.4c8.6-5.2,19-6.2,28.3-2.8l-14-7.3c-10.2-5.3-22.4-4.9-32.2,1.1S26.5,57,26.5,68.5v222.6
		c0,8.8,3.6,17.2,9.7,23.2c1.8,1.8,3.9,3.5,6.2,4.8c3.7,2.2,7.8,3.7,12,4.4c0,0-2.1-0.7-6.5-9c-2.2-4.4-3.4-9.4-3.4-14.5V77.5
		C44.4,66,50.4,55.4,60.2,49.4z"/>
	<path class="st0" d="M104.6,55c-0.1,0-0.2-0.1-0.2-0.1c-9.1-3.2-19.3-2.1-27.7,3c-9.8,6-15.8,16.6-15.8,28.1v222.6
		c0,0.4,0,0.8,0,1.1c0.2,4.9,1.4,9.7,3.6,13.9c1.7,3.2,3.9,6.2,6.6,8.8c-3.8-0.7-7.5-2.1-10.9-4.2c-2.2-1.3-4.2-2.8-5.9-4.6
		c-2.7-2.6-4.9-5.6-6.5-9c-2.2-4.4-3.4-9.4-3.4-14.5V77.5c0-11.5,6-22.1,15.8-28c8.6-5.2,19-6.2,28.3-2.8c0.7,0.2,1.3,0.5,2,0.8
		c0,0,0.1,0,0.2,0.1c0.6,0.3,1.2,0.5,1.8,0.9l14.4,7.6C106.6,55.8,104.8,55.1,104.6,55z"/>
	<path class="st0" d="M323.7,188.4c0,12.2-6.8,23.5-17.6,29.1L92.5,329.1c-4.8,2.5-10,3.7-15.2,3.7c-2.1,0-4.1-0.2-6.1-0.6
		c-2.7-2.6-4.9-5.5-6.6-8.8c3.5-0.5,6.8-1.6,10.1-3.3l213.6-111.6c10.9-5.7,17.6-16.9,17.6-29.1c0-12.3-6.8-23.5-17.7-29.1l17.9,8.9
		C316.9,164.9,323.7,176.1,323.7,188.4z"/>
	<path class="st1" d="M289.1,170.5c0,12.3-6.8,23.5-17.6,29.2L61,309.7c0-0.4,0-0.8,0-1.1V86c0-11.5,6-22.1,15.8-28.1
		c8.4-5.1,18.5-6.1,27.7-3c0,0,0.1,0,0.2,0.1c0.2,0.1,0.4,0.2,0.7,0.4c0.9,0.5,2.6,1.3,4.8,2.5c12.5,6.4,43.8,22.7,75.6,39.1
		c2.1,1.1,4.2,2.2,6.3,3.3c3.9,2,7.8,4,11.6,6c10.3,5.3,20.2,10.5,29.1,15.1c2.2,1.2,4.4,2.3,6.5,3.4c1.6,0.9,3.2,1.7,4.7,2.5
		c4,2.1,7.6,4,10.9,5.6c1,0.5,2,1,2.9,1.5c4.2,2.2,7.6,3.9,9.9,5.1c0.7,0.3,1.2,0.6,1.7,0.9c0.3,0.1,0.5,0.3,0.7,0.3
		c0.2,0.1,0.4,0.2,0.6,0.3c0.4,0.2,0.7,0.3,0.7,0.3c1,0.5,2,1.1,2.9,1.8C283.5,149.2,289.1,159.4,289.1,170.5z"/>
	<path class="st0" d="M340.2,196.9c0,12.2-6.8,23.5-17.6,29.1L109,337.6c-4.8,2.5-10,3.8-15.2,3.8c-5.9,0-11.8-1.6-17-4.8
		c-2.1-1.2-3.9-2.7-5.6-4.3c2,0.4,4.1,0.6,6.1,0.6c5.2,0,10.4-1.2,15.2-3.7l213.6-111.6c10.8-5.7,17.6-16.9,17.6-29.1
		c0-12.2-6.8-23.5-17.7-29.1l16.5,8.5C333.4,173.4,340.2,184.6,340.2,196.9z"/>
	<path class="st0" d="M305.9,179.4c0,12.2-6.8,23.5-17.6,29.1L74.7,320.1c-3.2,1.7-6.6,2.8-10.1,3.3c-2.2-4.2-3.4-9-3.6-13.9
		l210.5-110c10.8-5.7,17.6-16.9,17.6-29.2c0-11.1-8-22.8-17.1-28.8l16.2,8.6C299,156,305.8,167.2,305.9,179.4z"/>
	<g>
		<path d="M60,23.9l1.8-3.5c3.1,2.3,5.2,3.7,6.5,4.3c2.6,1.3,4.2,1.3,4.9,0l0.6-1.2c0.3-0.6,0.4-1.2,0.2-1.7s-0.8-1-1.7-1.5
			l-2.2-1.2c-4.2-2.2-5.4-5-3.7-8.3l0.7-1.4c0.9-1.7,2.2-2.5,4-2.6s4.2,0.7,7.3,2.3c1.6,0.8,3.5,2,5.8,3.5L82.4,16
			c-2.8-1.9-4.7-3.2-5.9-3.7c-1.6-0.8-2.7-1.2-3.3-1.3c-0.7,0-1.2,0.3-1.5,0.9L71,13.3c-0.5,1,0.1,1.9,1.8,2.8l2.3,1.2
			c2.2,1.1,3.6,2.4,4.1,3.7c0.6,1.3,0.4,2.8-0.5,4.5L78,26.8c-1.2,2.3-2.8,3.4-4.9,3.4c-1,0-2-0.2-3.1-0.5c-1-0.3-2.2-0.8-3.6-1.5
			C64.7,27,62.5,25.6,60,23.9z"/>
		<path d="M91.1,20.2l-5.9-3.1l1.7-3.3l16.4,8.6l-1.7,3.3l-5.9-3.1l-8.3,15.9l-4.6-2.4L91.1,20.2z"/>
		<path d="M98.7,37.6l7.3-13.9l4.6,2.4L103.3,40c-0.5,0.9-0.5,1.6-0.1,2.2c0.4,0.6,1.3,1.3,2.7,2s2.4,1,3.1,1c0.7,0,1.3-0.5,1.7-1.4
			l7.3-13.9l4.6,2.4l-7.3,13.9c-1.9,3.7-5.7,4.1-11.2,1.2C98.5,44.6,96.7,41.3,98.7,37.6z"/>
		<path d="M126.6,34.6l8.2,4.3c2.2,1.2,3.9,2.3,5,3.3s1.8,2.1,1.9,3.3c0.2,1.2-0.1,2.5-0.9,4l-4.1,7.8c-0.8,1.5-1.6,2.4-2.6,2.9
			s-2.2,0.6-3.7,0.2c-1.5-0.4-3.4-1.1-5.7-2.3l-8.2-4.3L126.6,34.6z M126.3,54.6c1.3,0.7,2.2,1.1,2.9,1.3s1.3,0.3,1.7,0.1
			c0.5-0.2,0.9-0.6,1.2-1.3l4.1-7.9c0.5-0.9,0.4-1.7-0.1-2.5c-0.5-0.7-1.6-1.5-3.2-2.3l-3.5-1.8l-6.6,12.6L126.3,54.6z"/>
		<path d="M147.6,45.5l4.6,2.4l-10,19.2l-4.6-2.4L147.6,45.5z"/>
		<path d="M152,72.3c-0.8-0.6-1.6-1.3-2.4-2.2c-0.9-0.9-1.4-1.9-1.5-3c-0.2-1.1,0-2.2,0.6-3.4l4.4-8.4c0.5-0.9,1.1-1.7,2-2.2
			c0.8-0.5,1.7-0.8,2.6-0.9c0.8-0.1,1.7,0,2.7,0.2s1.9,0.5,2.7,0.8c0.7,0.3,1.5,0.7,2.2,1.1c0.9,0.5,1.7,0.9,2.3,1.3
			c0.6,0.4,1.3,1,2,1.6c0.8,0.8,1.4,1.5,1.8,2.2c0.4,0.7,0.6,1.5,0.7,2.5c0.1,1-0.2,1.9-0.7,3l-4.4,8.4c-0.6,1.1-1.3,1.8-2.3,2.3
			s-2,0.7-3.2,0.5c-2.1-0.2-4.3-0.9-6.5-2.1C153.8,73.5,152.8,72.9,152,72.3z M158.3,71.6c0.5,0.2,1,0.3,1.5,0.4
			c0.5,0.1,1,0.1,1.4-0.1c0.4-0.2,0.8-0.5,1-1l4.4-8.4c0.5-0.9,0.4-1.7-0.1-2.5s-1.6-1.5-3.1-2.4c-1.5-0.8-2.8-1.2-3.7-1.2
			s-1.6,0.5-2.1,1.4l-4.4,8.4c-0.3,0.5-0.3,1-0.3,1.4c0.1,0.5,0.3,0.9,0.8,1.3c0.4,0.4,0.8,0.7,1.2,1s1,0.6,1.6,0.9
			C157.3,71.2,157.8,71.4,158.3,71.6z"/>
		<path d="M184.7,64.9l7.8,4.1c1.8,1,3.2,1.8,4,2.6c0.9,0.8,1.3,1.6,1.4,2.4c0.1,0.8-0.1,1.7-0.7,2.8l-1.2,2.4
			c-0.3,0.5-0.8,0.9-1.4,1.2c-0.7,0.3-1.3,0.3-2,0.2l-0.1,0.1c0.7,0.5,1.2,1.1,1.6,2c0.3,0.9,0.3,1.7,0,2.4l-1.5,3
			c-0.8,1.6-2,2.3-3.6,2.3s-3.7-0.7-6.3-2l-8-4.2L184.7,64.9z M184.2,84.9c1.1,0.6,2,0.9,2.6,0.9s1.1-0.3,1.4-0.9l0.8-1.5
			c0.4-0.7,0.5-1.3,0.2-1.8c-0.2-0.5-0.8-1-1.7-1.5l-3.9-2l-2.7,5.1L184.2,84.9z M188.4,76.7c0.7,0.4,1.3,0.6,1.7,0.7
			c0.4,0.1,0.8,0,1-0.2c0.3-0.2,0.5-0.6,0.8-1.1l0.5-0.9c0.2-0.5,0.4-0.8,0.4-1.1s-0.2-0.6-0.5-0.9c-0.3-0.3-0.9-0.6-1.7-1.1
			l-3.1-1.6l-2.4,4.5L188.4,76.7z"/>
		<path d="M202.5,88.8l-0.9-15.1l5.2,2.7l0.1,9.6l7.9-5.4l5.3,2.7l-13,7.8l-4,7.7l-4.6-2.4L202.5,88.8z"/>
		<path d="M218.8,106.8l1.8-3.5c3.1,2.3,5.2,3.7,6.5,4.3c2.6,1.3,4.2,1.3,4.9,0l0.6-1.2c0.3-0.6,0.4-1.2,0.2-1.7s-0.8-1-1.7-1.5
			l-2.2-1.2c-4.2-2.2-5.4-5-3.7-8.3l0.7-1.4c0.9-1.7,2.2-2.5,4-2.6s4.2,0.7,7.3,2.3c1.6,0.8,3.5,2,5.8,3.5l-1.8,3.4
			c-2.8-1.9-4.7-3.2-5.9-3.7c-1.6-0.8-2.7-1.2-3.3-1.3c-0.7,0-1.2,0.3-1.5,0.9l-0.7,1.4c-0.5,1,0.1,1.9,1.8,2.8l2.3,1.2
			c2.2,1.1,3.6,2.4,4.1,3.7c0.6,1.3,0.4,2.8-0.5,4.5l-0.7,1.3c-1.2,2.3-2.8,3.4-4.9,3.4c-1,0-2-0.2-3.1-0.5c-1-0.3-2.2-0.8-3.6-1.5
			C223.4,109.9,221.3,108.5,218.8,106.8z"/>
		<path d="M247.1,97.5l4.6,2.4l-4,7.7l8.2,4.3l4-7.7l4.6,2.4l-10,19.2l-4.6-2.4l4.3-8.2l-8.2-4.3l-4.3,8.2l-4.6-2.4L247.1,97.5z"/>
		<path d="M267.8,122.9l-0.9-15.1l5.2,2.7l0.1,9.6l7.9-5.4l5.3,2.7l-13,7.8l-4,7.7l-4.6-2.4L267.8,122.9z"/>
		<path d="M287.7,118.7l4.6,2.4L284,137l9.4,4.9l-1.7,3.3l-14-7.3L287.7,118.7z"/>
		<path d="M300.5,149.9c-0.8-0.6-1.6-1.3-2.4-2.2c-0.9-0.9-1.4-1.9-1.5-3s0-2.2,0.6-3.4l4.4-8.4c0.5-0.9,1.1-1.7,2-2.2
			c0.8-0.5,1.7-0.8,2.6-0.9c0.8-0.1,1.7,0,2.7,0.2s1.9,0.5,2.7,0.8c0.7,0.3,1.5,0.7,2.2,1.1c0.9,0.5,1.7,0.9,2.3,1.3
			c0.6,0.4,1.3,1,2,1.6c0.8,0.8,1.4,1.5,1.8,2.2s0.6,1.5,0.7,2.5s-0.2,1.9-0.7,3l-4.4,8.4c-0.6,1.1-1.3,1.8-2.3,2.3s-2,0.7-3.2,0.5
			c-2.1-0.2-4.3-0.9-6.5-2.1C302.2,151.1,301.3,150.5,300.5,149.9z M306.7,149.1c0.5,0.2,1,0.3,1.5,0.4c0.5,0.1,1,0.1,1.4-0.1
			c0.4-0.2,0.8-0.5,1-1l4.4-8.4c0.5-0.9,0.4-1.7-0.1-2.5s-1.6-1.5-3.1-2.4c-1.5-0.8-2.8-1.2-3.7-1.2c-0.9,0-1.6,0.5-2.1,1.4
			l-4.4,8.4c-0.3,0.5-0.3,1-0.3,1.4c0.1,0.5,0.3,0.9,0.8,1.3c0.4,0.4,0.8,0.7,1.2,1c0.4,0.3,1,0.6,1.6,0.9
			C305.7,148.7,306.3,149,306.7,149.1z"/>
		<path d="M324.2,137.8l4.7,2.4l-2.9,18l0.1,0.1l13.1-12.6l4.5,2.4l-17.1,15.5l-5.6-2.9L324.2,137.8z"/>
	</g>
	<g>
		<path class="st2" d="M71.6,278l2.1-1.1l1.2,2.2l-2.1,1.1L71.6,278z M73.7,282.1l2.1-1.1l5.9,11.3l-2.1,1.1L73.7,282.1z"/>
		<path class="st2" d="M79.5,279.1l2.1-1.1l0.7,1.4c-0.3-1.2,0.6-2.4,2.9-3.6c1.4-0.8,2.6-1,3.5-0.8s1.6,0.9,2.2,2l4.3,8.3l-2.1,1.1
			l-4.3-8.2c-0.2-0.3-0.3-0.5-0.5-0.7c-0.1-0.2-0.3-0.3-0.6-0.4c-0.5-0.2-1.3-0.1-2.4,0.5c-0.8,0.4-1.4,0.8-1.8,1.2
			c-0.4,0.3-0.6,0.7-0.6,1.1s0.1,0.8,0.3,1.3l4.3,8.2l-2.1,1.1L79.5,279.1z"/>
		<path class="st2" d="M101.2,282c-0.7,0.1-1.2-0.1-1.7-0.5s-1-1-1.5-1.9l-3.5-6.6l-2.5,1.3l-0.7-1.4l2.5-1.3l-1.8-3.5l2.1-1.1
			l1.8,3.5l4-2.1l0.7,1.4l-4,2.1l3.5,6.7c0.3,0.6,0.6,0.9,0.9,1.2c0.3,0.2,0.6,0.3,1,0.2c0.4-0.1,0.9-0.3,1.5-0.6
			c0.2-0.1,0.7-0.5,1.6-1.1l0.7,1.4c-0.7,0.5-1.5,1-2.3,1.4C102.6,281.6,101.8,281.9,101.2,282z"/>
		<path class="st2" d="M106,275.5l-2.3-4.5c-0.7-1.4-0.8-2.6-0.4-3.6c0.5-1,1.6-2,3.3-2.9s3-1.2,4.1-1c1,0.2,1.9,1,2.7,2.4l1.3,2.5
			l-7.6,4l0.9,1.7c0.4,0.8,1,1.2,1.7,1.3c0.7,0.1,1.7-0.2,2.8-0.8c1.1-0.6,2.2-1.4,3.5-2.6l0.8,1.6c-1.3,1.1-2.5,1.9-3.8,2.6
			C109.6,278,107.2,277.8,106,275.5z M111.9,268.1l-0.9-1.8c-0.4-0.7-0.8-1-1.4-1.1c-0.5,0-1.3,0.2-2.3,0.7s-1.6,1-1.9,1.5
			c-0.3,0.5-0.3,1.1,0.1,1.8l0.9,1.8L111.9,268.1z"/>
		<path class="st2" d="M123.6,276.6l-0.8-1.5c2-0.8,3.4-1.4,4.3-1.8c1.1-0.6,1.8-1.1,2.1-1.7s0.3-1.3-0.2-2.1l-1.4-2.7
			c0.2,0.5,0.1,1.1-0.4,1.6c-0.5,0.6-1.3,1.1-2.3,1.6c-1.2,0.6-2.1,1-2.9,1.1s-1.4,0-1.9-0.4s-1-1-1.5-1.8l-2.4-4.6
			c-0.7-1.3-0.8-2.5-0.4-3.4c0.4-1,1.5-1.9,3.1-2.7c2-1,3.3-1.2,4.2-0.5l-0.6-1.1l2-1L131,268c0.5,1,0.8,2,0.7,2.8s-0.4,1.5-1.1,2.2
			c-0.7,0.6-1.6,1.3-2.8,2C126,275.6,124.7,276.2,123.6,276.6z M126.7,266.7c0.3-0.5,0.3-1.1-0.1-1.8l-2.7-5.1
			c-0.3-0.5-0.6-0.9-0.9-1s-0.7-0.2-1.2-0.1s-1.2,0.4-2,0.8s-1.4,0.8-1.7,1.1c-0.3,0.3-0.5,0.7-0.5,1s0.1,0.8,0.4,1.3l2.7,5.1
			c0.3,0.5,0.6,0.9,0.9,1.1c0.3,0.2,0.7,0.2,1.1,0.1c0.5-0.1,1.1-0.4,1.9-0.8C125.6,267.8,126.3,267.3,126.7,266.7z"/>
		<path class="st2" d="M128,253.6l2-1l1,1.8c-0.2-0.4-0.2-0.8-0.1-1.3c0.1-0.5,0.4-0.9,0.8-1.4c0.4-0.4,0.8-0.8,1.3-1l1-0.5l0.9,1.8
			l-1.2,0.6c-1,0.5-1.6,1-2,1.5s-0.3,1.1,0.1,1.7l4.2,8l-2.1,1.1L128,253.6z"/>
		<path class="st2" d="M143,260.1c-0.7,0.1-1.3,0-1.8-0.4s-1-1-1.5-2c-0.4-0.9-0.7-1.6-0.7-2.2c0-0.6,0.2-1.2,0.7-1.7s1.3-1,2.3-1.6
			l3.4-1.8l-0.9-1.8c-0.2-0.4-0.5-0.7-0.8-0.8s-0.6-0.2-1.1-0.1c-0.4,0.1-1,0.4-1.7,0.7c-1.2,0.6-2.4,1.4-3.7,2.3l-0.8-1.5
			c1.5-0.9,2.8-1.7,4.1-2.4c1.3-0.7,2.3-1.1,3-1.2s1.3,0,1.8,0.3c0.5,0.4,1,1,1.5,2.1l4.2,8l-2,1.1l-0.6-1.1c0.3,1-0.6,2-2.7,3.1
			C144.6,259.6,143.7,260,143,260.1z M145.3,257.5c0.8-0.4,1.4-0.8,1.9-1.2c0.6-0.5,0.8-1,0.5-1.5l-1.6-3.1l-3.2,1.7
			c-0.7,0.4-1.1,0.7-1.4,0.9c-0.2,0.3-0.3,0.5-0.3,0.9s0.2,0.8,0.6,1.4c0.3,0.6,0.6,1,0.8,1.2c0.3,0.2,0.6,0.4,0.9,0.3
			s0.8-0.2,1.4-0.5L145.3,257.5z"/>
		<path class="st2" d="M157.1,252.7c-0.7,0.1-1.2-0.1-1.7-0.5s-1-1-1.5-1.9l-3.5-6.6l-2.5,1.3l-0.7-1.4l2.5-1.3l-1.8-3.5l2.1-1.1
			l1.8,3.5l4-2.1l0.7,1.4l-4,2.1l3.5,6.7c0.3,0.6,0.6,0.9,0.9,1.2c0.3,0.2,0.6,0.3,1,0.2c0.4-0.1,0.9-0.3,1.5-0.6
			c0.2-0.1,0.7-0.5,1.6-1.1l0.7,1.4c-0.7,0.5-1.5,1-2.3,1.4C158.5,252.3,157.7,252.6,157.1,252.7z"/>
		<path class="st2" d="M161.9,246.1l-2.3-4.5c-0.7-1.4-0.8-2.6-0.4-3.6s1.6-2,3.3-2.9s3-1.2,4.1-1c1,0.2,1.9,1,2.7,2.4l1.3,2.5
			l-7.6,4l0.9,1.7c0.4,0.8,1,1.2,1.7,1.3c0.7,0.1,1.7-0.2,2.8-0.8c1.1-0.6,2.2-1.4,3.5-2.6l0.8,1.6c-1.3,1.1-2.5,1.9-3.8,2.6
			C165.5,248.7,163.1,248.4,161.9,246.1z M167.8,238.8l-0.9-1.8c-0.4-0.7-0.8-1-1.4-1.1c-0.5,0-1.3,0.2-2.3,0.7s-1.6,1-1.9,1.5
			s-0.3,1.1,0.1,1.8l0.9,1.8L167.8,238.8z"/>
		<path class="st2" d="M177.9,241.7c-0.8,0.1-1.4,0-2-0.4s-1.1-1-1.6-1.9l-2.6-5c-0.6-1.1-0.7-2.1-0.2-3c0.4-0.9,1.5-1.7,3.1-2.6
			c1-0.5,1.9-0.8,2.7-1c0.8-0.1,1.4,0,1.6,0.5l0,0l-1.6-2.8l-1.8-3.4l2.1-1.1l8.6,16.3l-2.1,1.1l-0.7-1.3c0.2,0.4,0.1,1-0.4,1.6
			c-0.5,0.7-1.3,1.3-2.5,1.9C179.6,241.3,178.6,241.6,177.9,241.7z M182.7,237.3c0.4-0.5,0.4-1.1,0.1-1.8l-2.9-5.6
			c-0.5-1-1.8-1-3.9,0.1c-1.2,0.7-2,1.2-2.3,1.6s-0.3,0.9,0.1,1.5l2.9,5.6c0.3,0.6,0.8,1,1.4,1c0.6,0,1.4-0.2,2.4-0.7
			C181.5,238.4,182.3,237.8,182.7,237.3z"/>
		<path class="st2" d="M194.8,232.9l-0.8-1.6c2-0.7,3.4-1.2,4.2-1.6c1-0.5,1.7-1,2-1.4s0.4-0.9,0.1-1.4l-0.6-1.1
			c-0.3-0.5-0.6-0.7-1-0.8c-0.4,0-1,0.1-1.7,0.5l-1.3,0.7c-1.2,0.6-2.2,0.8-3.1,0.7c-0.9-0.2-1.5-0.7-2-1.5l-0.6-1
			c-0.9-1.8,0.3-3.5,3.6-5.3c0.2-0.1,1.4-0.7,3.5-1.6l0.8,1.5c-1.5,0.5-2.7,1-3.7,1.5c-1.1,0.6-1.8,1.1-2.1,1.5s-0.3,0.9,0,1.4
			l0.5,1c0.4,0.8,1.3,0.8,2.7,0.1l1.3-0.7c2.4-1.2,4-1,5,0.8l0.5,1c0.6,1.2,0.6,2.2,0.1,3.1s-1.7,1.8-3.3,2.7
			C197.6,231.8,196.2,232.4,194.8,232.9z"/>
		<path class="st2" d="M209.1,225.6c-0.5,0.2-1.1,0.3-1.7,0.3c-0.6,0-1.2-0.1-1.7-0.5s-1-1-1.5-1.9l-2.1-3.9c-0.4-0.7-0.6-1.4-0.7-2
			c-0.1-0.6-0.1-1.1,0-1.6c0.1-0.4,0.3-0.8,0.7-1.2c0.4-0.4,0.8-0.7,1.3-1.1c0.5-0.3,1.1-0.6,1.7-1c0.8-0.4,1.4-0.7,1.9-0.9
			c0.4-0.2,0.9-0.3,1.4-0.4c0.6-0.1,1-0.1,1.5,0c0.4,0.1,0.8,0.4,1.3,0.9s0.9,1,1.2,1.8l2.1,3.9c0.7,1.3,0.9,2.4,0.6,3.4
			c-0.1,0.4-0.4,0.8-0.8,1.1c-0.4,0.4-0.8,0.7-1.3,1c-0.6,0.3-1.2,0.7-1.8,1C210.4,225.1,209.6,225.5,209.1,225.6z M212.1,222.4
			c0.3-0.2,0.5-0.4,0.7-0.7c0.2-0.3,0.3-0.6,0.3-0.9s-0.2-0.8-0.5-1.3l-2.4-4.6c-0.4-0.7-0.7-1.2-1.1-1.4c-0.3-0.2-0.7-0.3-1.2-0.2
			c-0.5,0.1-1.1,0.4-2,0.9s-1.5,0.8-1.8,1.2c-0.4,0.3-0.5,0.7-0.5,1.1s0.2,1,0.5,1.7l2.4,4.6c0.3,0.5,0.5,0.9,0.8,1.1
			s0.6,0.3,0.9,0.3c0.4,0,0.7-0.1,1-0.2s0.8-0.4,1.4-0.7S211.8,222.6,212.1,222.4z"/>
		<path class="st2" d="M211.2,203.6l2.1-1.1l8.6,16.3l-2.1,1.1L211.2,203.6z"/>
		<path class="st2" d="M226.1,215.9c-0.9-0.2-1.6-0.9-2.2-2l-4.3-8.3l2.1-1.1l4.3,8.2c0.2,0.3,0.3,0.5,0.5,0.7s0.3,0.3,0.6,0.4
			c0.5,0.3,1.3,0.1,2.4-0.5c1.2-0.6,1.9-1.1,2.3-1.6c0.3-0.5,0.4-1,0.1-1.5l-4.5-8.5l2.1-1.1l5.9,11.3l-2.1,1.1l-0.7-1.4
			c0.4,1.2-0.6,2.4-2.9,3.6C228.1,215.8,226.9,216.1,226.1,215.9z"/>
		<path class="st2" d="M241.3,208.5c-0.7,0.1-1.2-0.1-1.7-0.5s-1-1-1.5-1.9l-3.5-6.6l-2.5,1.3l-0.7-1.4l2.5-1.3l-1.8-3.5l2.1-1.1
			l1.8,3.5l4-2.1l0.7,1.4l-4,2.1l3.5,6.7c0.3,0.6,0.6,0.9,0.9,1.2s0.6,0.3,1,0.2c0.4-0.1,0.9-0.3,1.5-0.6c0.2-0.1,0.7-0.5,1.6-1.1
			l0.7,1.4c-0.7,0.5-1.5,1-2.3,1.4C242.7,208.1,241.9,208.4,241.3,208.5z"/>
		<path class="st2" d="M240.2,189.6l2.1-1.1l1.2,2.2l-2.1,1.1L240.2,189.6z M242.3,193.6l2.1-1.1l5.9,11.3l-2.1,1.1L242.3,193.6z"/>
		<path class="st2" d="M256.6,200.7c-0.5,0.2-1.1,0.3-1.7,0.3s-1.2-0.1-1.7-0.5s-1-1-1.5-1.9l-2.1-3.9c-0.4-0.7-0.6-1.4-0.7-2
			s-0.1-1.1,0-1.6c0.1-0.4,0.3-0.8,0.7-1.2c0.4-0.4,0.8-0.7,1.3-1.1c0.5-0.3,1.1-0.6,1.7-1c0.8-0.4,1.4-0.7,1.9-0.9
			c0.4-0.2,0.9-0.3,1.4-0.4c0.6-0.1,1-0.1,1.5,0c0.4,0.1,0.8,0.4,1.3,0.9s0.9,1,1.2,1.8l2.1,3.9c0.7,1.3,0.9,2.4,0.6,3.4
			c-0.1,0.4-0.4,0.8-0.8,1.1c-0.4,0.4-0.8,0.7-1.3,1c-0.6,0.3-1.2,0.7-1.7,1C257.9,200.2,257.1,200.5,256.6,200.7z M259.6,197.5
			c0.3-0.2,0.5-0.4,0.7-0.7c0.2-0.3,0.3-0.6,0.3-0.9s-0.2-0.8-0.5-1.3l-2.4-4.6c-0.4-0.7-0.7-1.2-1.1-1.4c-0.3-0.2-0.7-0.3-1.2-0.2
			s-1.1,0.4-2,0.9s-1.5,0.8-1.8,1.2c-0.4,0.3-0.5,0.7-0.5,1.1c0,0.4,0.2,1,0.5,1.7l2.4,4.6c0.3,0.5,0.5,0.9,0.8,1.1s0.6,0.3,0.9,0.3
			c0.4,0,0.7-0.1,1-0.2s0.8-0.4,1.4-0.7S259.3,197.7,259.6,197.5z"/>
		<path class="st2" d="M261.3,183.7l2.1-1.1l0.7,1.4c-0.3-1.2,0.6-2.4,2.9-3.6c1.4-0.8,2.6-1,3.5-0.8s1.6,0.9,2.2,2l4.3,8.3
			l-2.1,1.1l-4.3-8.2c-0.2-0.3-0.3-0.5-0.5-0.7c-0.1-0.2-0.3-0.3-0.6-0.4c-0.5-0.2-1.3-0.1-2.4,0.5c-0.8,0.4-1.4,0.8-1.8,1.2
			c-0.4,0.3-0.6,0.7-0.6,1.1c0,0.4,0.1,0.8,0.3,1.3l4.3,8.2l-2.1,1.1L261.3,183.7z"/>
	</g>
</g>
</svg>
