<?xml version="1.0" encoding="utf-8"?>
<!-- Generator: Adobe Illustrator 22.0.1, SVG Export Plug-In . SVG Version: 6.00 Build 0)  -->
<svg version="1.1" id="Layer_1" xmlns="http://www.w3.org/2000/svg" xmlns:xlink="http://www.w3.org/1999/xlink" x="0px" y="0px"
	 viewBox="0 0 354.1 355.6" style="enable-background:new 0 0 354.1 355.6;" xml:space="preserve">
<style type="text/css">
	.st0{fill:#00ADEE;}
	.st1{fill:#EA008A;}
	.st2{fill:#FFF100;}
	.st3{fill:#FFFFFF;}
</style>
<g>
	<path class="st0" d="M74.4,37.3c-10.5-5.5-23.2-5.1-33.3,1.1c-10.2,6.2-16.4,17.2-16.4,29.1v230.6c0,9.2,3.7,17.8,10,24.1
		c-3.8-0.8-7.6-2.2-11-4.2c-10.2-6.2-16.4-17.2-16.4-29.1V58.3c0-11.9,6.2-22.9,16.4-29.1C33.9,23,46.5,22.6,57,28.1L74.4,37.3z"/>
	<path class="st1" d="M59.6,47.7c8.9-5.4,19.6-6.4,29.3-2.9l-14.5-7.5c-10.5-5.5-23.2-5.1-33.3,1.1c-10.2,6.2-16.4,17.2-16.4,29.1
		v230.6c0,9.2,3.7,17.8,10,24.1c1.9,1.9,4,3.6,6.4,5c3.9,2.3,8.1,3.9,12.4,4.5c1.7,0.3,3.5,0.4,5.2,0.4c1.8,0,3.6-0.1,5.4-0.4
		c-2.3-4.4-3.6-9.3-3.7-14.4l-3.2,1.7c-3.3,1.7-6.8,2.8-10.4,3.4c-2.3-4.6-3.5-9.7-3.5-15V76.8C43.2,64.9,49.4,53.9,59.6,47.7z"/>
	<path class="st2" d="M105.5,53.5c-0.1,0-0.2-0.1-0.2-0.1c-9.5-3.3-20-2.2-28.7,3.1c-10.2,6.2-16.4,17.2-16.4,29.1v230.6
		c0,0.4,0,0.8,0,1.2c0.2,5.1,1.5,10,3.7,14.4c1.7,3.4,4,6.4,6.8,9.1c-3.9-0.8-7.7-2.2-11.3-4.3c-2.3-1.3-4.3-2.9-6.1-4.8
		c-2.8-2.7-5.1-5.9-6.7-9.3c-2.3-4.6-3.5-9.7-3.5-15V76.8c0-11.9,6.2-22.9,16.4-29.1c8.9-5.4,19.6-6.4,29.3-2.9
		c0.7,0.2,1.3,0.5,2,0.8c0,0,0.1,0,0.2,0.1c0.6,0.3,1.2,0.6,1.9,0.9l15,7.9C107.5,54.3,105.7,53.6,105.5,53.5z"/>
	<path class="st1" d="M332.6,191.7c0,12.7-7,24.3-18.2,30.2L93.1,337.6c-5,2.6-10.4,3.9-15.8,3.9c-2.1,0-4.2-0.2-6.3-0.6
		c-2.8-2.6-5.1-5.7-6.8-9.1c3.6-0.6,7.1-1.7,10.4-3.5l221.3-115.6c11.2-5.9,18.3-17.5,18.3-30.2s-7.1-24.3-18.4-30.2l18.5,9.3
		C325.5,167.3,332.6,179,332.6,191.7z"/>
	<path d="M296.7,173.1c0,12.7-7,24.4-18.2,30.2l-218.1,114c0-0.4,0-0.8,0-1.2V85.6c0-11.9,6.2-22.9,16.4-29.1
		c8.7-5.3,19.2-6.3,28.7-3.1c0,0,0.1,0,0.2,0.1c0.2,0.1,0.4,0.2,0.8,0.4c0.9,0.5,2.6,1.4,5,2.6c13,6.7,45.4,23.5,78.3,40.5
		c2.2,1.1,4.4,2.3,6.6,3.4c4.1,2.1,8.1,4.2,12.1,6.2c10.6,5.5,20.9,10.9,30.2,15.7c2.3,1.2,4.6,2.4,6.7,3.5c1.7,0.9,3.3,1.7,4.9,2.5
		c4.1,2.1,7.9,4.1,11.3,5.9c1,0.6,2,1.1,3,1.6c4.4,2.3,7.9,4.1,10.3,5.3c0.7,0.4,1.3,0.7,1.8,0.9c0.3,0.1,0.5,0.3,0.7,0.4
		c0.2,0.1,0.5,0.2,0.6,0.3c0.5,0.2,0.7,0.4,0.7,0.4c1,0.6,2.1,1.1,3,1.8C290.9,151,296.7,161.6,296.7,173.1z"/>
	<path class="st2" d="M349.7,200.5c0,12.7-7,24.3-18.3,30.2L110.1,346.3c-4.9,2.6-10.4,3.9-15.8,3.9c-6.1,0-12.2-1.7-17.6-4.9
		c-2.1-1.3-4.1-2.8-5.8-4.4c2.1,0.4,4.2,0.6,6.3,0.6c5.4,0,10.8-1.3,15.8-3.9l221.3-115.7c11.2-5.9,18.3-17.5,18.2-30.2
		c0-12.7-7.1-24.3-18.3-30.2l17.1,8.8C342.6,176.1,349.7,187.7,349.7,200.5z"/>
	<path class="st0" d="M314.1,182.4c0,12.7-7,24.3-18.3,30.2L74.5,328.2c-3.3,1.8-6.8,2.9-10.4,3.5c-2.3-4.4-3.6-9.3-3.7-14.4
		l218.1-114c11.2-5.9,18.3-17.5,18.2-30.2c0-11.5-8.3-23.6-17.7-29.8l16.8,8.9C307,158.1,314,169.7,314.1,182.4z"/>
</g>
<g>
	<path d="M60.5,22.8l1.8-3.5c3.1,2.3,5.2,3.7,6.5,4.3c2.6,1.3,4.2,1.3,4.9,0l0.6-1.2c0.3-0.6,0.4-1.2,0.2-1.7s-0.8-1-1.7-1.5
		L70.6,18c-4.2-2.2-5.4-5-3.7-8.3l0.7-1.4c0.9-1.7,2.2-2.5,4-2.6s4.2,0.7,7.3,2.3c1.6,0.8,3.5,2,5.8,3.5l-1.8,3.4
		c-2.8-1.9-4.7-3.2-5.9-3.7c-1.6-0.8-2.7-1.2-3.3-1.3c-0.7,0-1.2,0.3-1.5,0.9l-0.7,1.4c-0.5,1,0.1,1.9,1.8,2.8l2.3,1.2
		c2.2,1.1,3.6,2.4,4.1,3.7c0.6,1.3,0.4,2.8-0.5,4.5l-0.7,1.3c-1.2,2.3-2.8,3.4-4.9,3.4c-1,0-2-0.2-3.1-0.5c-1-0.3-2.2-0.8-3.6-1.5
		C65.2,25.9,63,24.5,60.5,22.8z"/>
	<path d="M91.6,19.1L85.7,16l1.7-3.3l16.4,8.6l-1.7,3.3l-5.9-3.1l-8.3,15.9L83.3,35L91.6,19.1z"/>
	<path d="M99.1,36.6l7.3-13.9l4.6,2.4L103.7,39c-0.5,0.9-0.5,1.6-0.1,2.2c0.4,0.6,1.3,1.3,2.7,2s2.4,1,3.1,1c0.7,0,1.3-0.5,1.7-1.4
		l7.3-13.9l4.6,2.4l-7.3,13.9c-1.9,3.7-5.7,4.1-11.2,1.2C99,43.6,97.2,40.3,99.1,36.6z"/>
	<path d="M127.1,33.5l8.2,4.3c2.2,1.2,3.9,2.3,5,3.3s1.8,2.1,1.9,3.3c0.2,1.2-0.1,2.5-0.9,4l-4.1,7.8c-0.8,1.5-1.6,2.4-2.6,2.9
		s-2.2,0.6-3.7,0.2c-1.5-0.4-3.4-1.1-5.7-2.3l-8.2-4.3L127.1,33.5z M126.8,53.5c1.3,0.7,2.2,1.1,2.9,1.3s1.3,0.3,1.7,0.1
		c0.5-0.2,0.9-0.6,1.2-1.3l4.1-7.9c0.5-0.9,0.4-1.7-0.1-2.5c-0.5-0.7-1.6-1.5-3.2-2.3l-3.5-1.8l-6.6,12.6L126.8,53.5z"/>
	<path d="M148.1,44.4l4.6,2.4l-10,19.2l-4.6-2.4L148.1,44.4z"/>
	<path d="M152.5,71.2c-0.8-0.6-1.6-1.3-2.4-2.2c-0.9-0.9-1.4-1.9-1.5-3c-0.2-1.1,0-2.2,0.6-3.4l4.4-8.4c0.5-0.9,1.1-1.7,2-2.2
		c0.8-0.5,1.7-0.8,2.6-0.9c0.8-0.1,1.7,0,2.7,0.2s1.9,0.5,2.7,0.8c0.7,0.3,1.5,0.7,2.2,1.1c0.9,0.5,1.7,0.9,2.3,1.3
		c0.6,0.4,1.3,1,2,1.6c0.8,0.8,1.4,1.5,1.8,2.2c0.4,0.7,0.6,1.5,0.7,2.5c0.1,1-0.2,1.9-0.7,3l-4.4,8.4c-0.6,1.1-1.3,1.8-2.3,2.3
		s-2,0.7-3.2,0.5c-2.1-0.2-4.3-0.9-6.5-2.1C154.2,72.4,153.3,71.8,152.5,71.2z M158.8,70.5c0.5,0.2,1,0.3,1.5,0.4
		c0.5,0.1,1,0.1,1.4-0.1c0.4-0.2,0.8-0.5,1-1l4.4-8.4c0.5-0.9,0.4-1.7-0.1-2.5s-1.6-1.5-3.1-2.4c-1.5-0.8-2.8-1.2-3.7-1.2
		s-1.6,0.5-2.1,1.4l-4.4,8.4c-0.3,0.5-0.3,1-0.3,1.4c0.1,0.5,0.3,0.9,0.8,1.3c0.4,0.4,0.8,0.7,1.2,1s1,0.6,1.6,0.9
		C157.7,70.1,158.3,70.3,158.8,70.5z"/>
	<path d="M185.1,63.8l7.8,4.1c1.8,1,3.2,1.8,4,2.6c0.9,0.8,1.3,1.6,1.4,2.4c0.1,0.8-0.1,1.7-0.7,2.8l-1.2,2.4
		c-0.3,0.5-0.8,0.9-1.4,1.2c-0.7,0.3-1.3,0.3-2,0.2l-0.1,0.1c0.7,0.5,1.2,1.1,1.6,2c0.3,0.9,0.3,1.7,0,2.4l-1.5,3
		c-0.8,1.6-2,2.3-3.6,2.3s-3.7-0.7-6.3-2l-8-4.2L185.1,63.8z M184.7,83.8c1.1,0.6,2,0.9,2.6,0.9s1.1-0.3,1.4-0.9l0.8-1.5
		c0.4-0.7,0.5-1.3,0.2-1.8c-0.2-0.5-0.8-1-1.7-1.5l-3.9-2l-2.7,5.1L184.7,83.8z M188.8,75.6c0.7,0.4,1.3,0.6,1.7,0.7
		c0.4,0.1,0.8,0,1-0.2c0.3-0.2,0.5-0.6,0.8-1.1l0.5-0.9c0.2-0.5,0.4-0.8,0.4-1.1s-0.2-0.6-0.5-0.9c-0.3-0.3-0.9-0.6-1.7-1.1
		l-3.1-1.6l-2.4,4.5L188.8,75.6z"/>
	<path d="M203,87.7l-0.9-15.1l5.2,2.7l0.1,9.6l7.9-5.4l5.3,2.7l-13,7.8l-4,7.7l-4.6-2.4L203,87.7z"/>
	<path d="M219.2,105.7l1.8-3.5c3.1,2.3,5.2,3.7,6.5,4.3c2.6,1.3,4.2,1.3,4.9,0l0.6-1.2c0.3-0.6,0.4-1.2,0.2-1.7s-0.8-1-1.7-1.5
		l-2.2-1.2c-4.2-2.2-5.4-5-3.7-8.3l0.7-1.4c0.9-1.7,2.2-2.5,4-2.6s4.2,0.7,7.3,2.3c1.6,0.8,3.5,2,5.8,3.5l-1.8,3.4
		c-2.8-1.9-4.7-3.2-5.9-3.7c-1.6-0.8-2.7-1.2-3.3-1.3c-0.7,0-1.2,0.3-1.5,0.9l-0.7,1.4c-0.5,1,0.1,1.9,1.8,2.8l2.3,1.2
		c2.2,1.1,3.6,2.4,4.1,3.7c0.6,1.3,0.4,2.8-0.5,4.5l-0.7,1.3c-1.2,2.3-2.8,3.4-4.9,3.4c-1,0-2-0.2-3.1-0.5c-1-0.3-2.2-0.8-3.6-1.5
		C223.9,108.8,221.7,107.4,219.2,105.7z"/>
	<path d="M247.6,96.4l4.6,2.4l-4,7.7l8.2,4.3l4-7.7l4.6,2.4l-10,19.2l-4.6-2.4l4.3-8.2l-8.2-4.3l-4.3,8.2l-4.6-2.4L247.6,96.4z"/>
	<path d="M268.2,121.8l-0.9-15.1l5.2,2.7l0.1,9.6l7.9-5.4l5.3,2.7l-13,7.8l-4,7.7l-4.6-2.4L268.2,121.8z"/>
	<path d="M288.1,117.6l4.6,2.4l-8.3,15.9l9.4,4.9l-1.7,3.3l-14-7.3L288.1,117.6z"/>
	<path d="M300.9,148.8c-0.8-0.6-1.6-1.3-2.4-2.2c-0.9-0.9-1.4-1.9-1.5-3s0-2.2,0.6-3.4l4.4-8.4c0.5-0.9,1.1-1.7,2-2.2
		c0.8-0.5,1.7-0.8,2.6-0.9c0.8-0.1,1.7,0,2.7,0.2s1.9,0.5,2.7,0.8c0.7,0.3,1.5,0.7,2.2,1.1c0.9,0.5,1.7,0.9,2.3,1.3
		c0.6,0.4,1.3,1,2,1.6c0.8,0.8,1.4,1.5,1.8,2.2s0.6,1.5,0.7,2.5s-0.2,1.9-0.7,3l-4.4,8.4c-0.6,1.1-1.3,1.8-2.3,2.3s-2,0.7-3.2,0.5
		c-2.1-0.2-4.3-0.9-6.5-2.1C302.7,150,301.7,149.4,300.9,148.8z M307.2,148.1c0.5,0.2,1,0.3,1.5,0.4c0.5,0.1,1,0.1,1.4-0.1
		c0.4-0.2,0.8-0.5,1-1l4.4-8.4c0.5-0.9,0.4-1.7-0.1-2.5s-1.6-1.5-3.1-2.4c-1.5-0.8-2.8-1.2-3.7-1.2c-0.9,0-1.6,0.5-2.1,1.4l-4.4,8.4
		c-0.3,0.5-0.3,1-0.3,1.4c0.1,0.5,0.3,0.9,0.8,1.3c0.4,0.4,0.8,0.7,1.2,1c0.4,0.3,1,0.6,1.6,0.9
		C306.2,147.6,306.7,147.9,307.2,148.1z"/>
	<path d="M324.7,136.7l4.7,2.4l-2.9,18l0.1,0.1l13.1-12.6l4.5,2.4l-17.1,15.5l-5.6-2.9L324.7,136.7z"/>
</g>
<g>
	<path class="st3" d="M68,282.3l2.1-1.1l1.2,2.2l-2.1,1.1L68,282.3z M70.2,286.4l2.1-1.1l5.9,11.3l-2.1,1.1L70.2,286.4z"/>
	<path class="st3" d="M75.9,283.4l2.1-1.1l0.7,1.4c-0.3-1.2,0.6-2.4,2.9-3.6c1.4-0.8,2.6-1,3.5-0.8s1.6,0.9,2.2,2l4.3,8.3l-2.1,1.1
		l-4.3-8.2c-0.2-0.3-0.3-0.5-0.5-0.7c-0.1-0.2-0.3-0.3-0.6-0.4c-0.5-0.2-1.3-0.1-2.4,0.5c-0.8,0.4-1.4,0.8-1.8,1.2
		c-0.4,0.3-0.6,0.7-0.6,1.1s0.1,0.8,0.3,1.3l4.3,8.2l-2.1,1.1L75.9,283.4z"/>
	<path class="st3" d="M97.7,286.3c-0.7,0.1-1.2-0.1-1.7-0.5s-1-1-1.5-1.9l-3.5-6.6l-2.5,1.3l-0.7-1.4l2.5-1.3l-1.8-3.5l2.1-1.1
		l1.8,3.5l4-2.1l0.7,1.4l-4,2.1l3.5,6.7c0.3,0.6,0.6,0.9,0.9,1.2c0.3,0.2,0.6,0.3,1,0.2c0.4-0.1,0.9-0.3,1.5-0.6
		c0.2-0.1,0.7-0.5,1.6-1.1l0.7,1.4c-0.7,0.5-1.5,1-2.3,1.4C99.1,285.9,98.3,286.2,97.7,286.3z"/>
	<path class="st3" d="M102.5,279.7l-2.3-4.5c-0.7-1.4-0.8-2.6-0.4-3.6c0.5-1,1.6-2,3.3-2.9s3-1.2,4.1-1c1,0.2,1.9,1,2.7,2.4l1.3,2.5
		l-7.6,4l0.9,1.7c0.4,0.8,1,1.2,1.7,1.3c0.7,0.1,1.7-0.2,2.8-0.8c1.1-0.6,2.2-1.4,3.5-2.6l0.8,1.6c-1.3,1.1-2.5,1.9-3.8,2.6
		C106,282.3,103.7,282,102.5,279.7z M108.4,272.4l-0.9-1.8c-0.4-0.7-0.8-1-1.4-1.1c-0.5,0-1.3,0.2-2.3,0.7s-1.6,1-1.9,1.5
		c-0.3,0.5-0.3,1.1,0.1,1.8l0.9,1.8L108.4,272.4z"/>
	<path class="st3" d="M120,280.8l-0.8-1.5c2-0.8,3.4-1.4,4.3-1.8c1.1-0.6,1.8-1.1,2.1-1.7s0.3-1.3-0.2-2.1L124,271
		c0.2,0.5,0.1,1.1-0.4,1.6c-0.5,0.6-1.3,1.1-2.3,1.6c-1.2,0.6-2.1,1-2.9,1.1s-1.4,0-1.9-0.4s-1-1-1.5-1.8l-2.4-4.6
		c-0.7-1.3-0.8-2.5-0.4-3.4c0.4-1,1.5-1.9,3.1-2.7c2-1,3.3-1.2,4.2-0.5l-0.6-1.1l2-1l6.5,12.4c0.5,1,0.8,2,0.7,2.8
		c-0.1,0.8-0.4,1.5-1.1,2.2c-0.7,0.6-1.6,1.3-2.8,2C122.5,279.9,121.2,280.5,120,280.8z M123.1,271c0.3-0.5,0.3-1.1-0.1-1.8
		l-2.7-5.1c-0.3-0.5-0.6-0.9-0.9-1s-0.7-0.2-1.2-0.1s-1.2,0.4-2,0.8s-1.4,0.8-1.7,1.1c-0.3,0.3-0.5,0.7-0.5,1s0.1,0.8,0.4,1.3
		l2.7,5.1c0.3,0.5,0.6,0.9,0.9,1.1c0.3,0.2,0.7,0.2,1.1,0.1c0.5-0.1,1.1-0.4,1.9-0.8C122.1,272,122.8,271.5,123.1,271z"/>
	<path class="st3" d="M124.4,257.9l2-1l1,1.8c-0.2-0.4-0.2-0.8-0.1-1.3c0.1-0.5,0.4-0.9,0.8-1.4c0.4-0.4,0.8-0.8,1.3-1l1-0.5
		l0.9,1.8l-1.2,0.6c-1,0.5-1.6,1-2,1.5c-0.4,0.5-0.3,1.1,0.1,1.7l4.2,8l-2.1,1.1L124.4,257.9z"/>
	<path class="st3" d="M139.5,264.3c-0.7,0.1-1.3,0-1.8-0.4s-1-1-1.5-2c-0.4-0.9-0.7-1.6-0.7-2.2s0.2-1.2,0.7-1.7s1.3-1,2.3-1.6
		l3.4-1.8l-0.9-1.8c-0.2-0.4-0.5-0.7-0.8-0.8s-0.6-0.2-1.1-0.1c-0.4,0.1-1,0.4-1.7,0.7c-1.2,0.6-2.4,1.4-3.7,2.3l-0.8-1.5
		c1.5-0.9,2.8-1.7,4.1-2.4c1.3-0.7,2.3-1.1,3-1.2s1.3,0,1.8,0.3c0.5,0.4,1,1,1.5,2.1l4.2,8l-2,1.1l-0.6-1.1c0.3,1-0.6,2-2.7,3.1
		C141.1,263.9,140.2,264.2,139.5,264.3z M141.8,261.7c0.8-0.4,1.4-0.8,1.9-1.2c0.6-0.5,0.8-1,0.5-1.5l-1.6-3.1l-3.2,1.7
		c-0.7,0.4-1.1,0.7-1.4,0.9c-0.2,0.3-0.3,0.5-0.3,0.9s0.2,0.8,0.6,1.4c0.3,0.6,0.6,1,0.8,1.2c0.3,0.2,0.6,0.4,0.9,0.3
		s0.8-0.2,1.4-0.5L141.8,261.7z"/>
	<path class="st3" d="M153.6,256.9c-0.7,0.1-1.2-0.1-1.7-0.5s-1-1-1.5-1.9l-3.5-6.6l-2.5,1.3l-0.7-1.4l2.5-1.3l-1.8-3.5l2.1-1.1
		l1.8,3.5l4-2.1l0.7,1.4l-4,2.1l3.5,6.7c0.3,0.6,0.6,0.9,0.9,1.2c0.3,0.2,0.6,0.3,1,0.2c0.4-0.1,0.9-0.3,1.5-0.6
		c0.2-0.1,0.7-0.5,1.6-1.1l0.7,1.4c-0.7,0.5-1.5,1-2.3,1.4C155,256.6,154.2,256.8,153.6,256.9z"/>
	<path class="st3" d="M158.4,250.4l-2.3-4.5c-0.7-1.4-0.8-2.6-0.4-3.6s1.6-2,3.3-2.9s3-1.2,4.1-1c1,0.2,1.9,1,2.7,2.4l1.3,2.5
		l-7.6,4l0.9,1.7c0.4,0.8,1,1.2,1.7,1.3c0.7,0.1,1.7-0.2,2.8-0.8c1.1-0.6,2.2-1.4,3.5-2.6l0.8,1.6c-1.3,1.1-2.5,1.9-3.8,2.6
		C161.9,252.9,159.6,252.7,158.4,250.4z M164.3,243l-0.9-1.8c-0.4-0.7-0.8-1-1.4-1.1c-0.5,0-1.3,0.2-2.3,0.7s-1.6,1-1.9,1.5
		s-0.3,1.1,0.1,1.8l0.9,1.8L164.3,243z"/>
	<path class="st3" d="M174.3,246c-0.8,0.1-1.4,0-2-0.4s-1.1-1-1.6-1.9l-2.6-5c-0.6-1.1-0.7-2.1-0.2-3c0.4-0.9,1.5-1.7,3.1-2.6
		c1-0.5,1.9-0.8,2.7-1c0.8-0.1,1.4,0,1.6,0.5l0,0l-1.6-2.8l-1.8-3.4l2.1-1.1l8.6,16.3l-2.1,1.1l-0.7-1.3c0.2,0.4,0.1,1-0.4,1.6
		c-0.5,0.7-1.3,1.3-2.5,1.9C176,245.5,175.1,245.9,174.3,246z M179.1,241.5c0.4-0.5,0.4-1.1,0.1-1.8l-2.9-5.6c-0.5-1-1.8-1-3.9,0.1
		c-1.2,0.7-2,1.2-2.3,1.6s-0.3,0.9,0.1,1.5l2.9,5.6c0.3,0.6,0.8,1,1.4,1c0.6,0,1.4-0.2,2.4-0.7C178,242.6,178.8,242.1,179.1,241.5z"
		/>
	<path class="st3" d="M191.2,237.2l-0.8-1.6c2-0.7,3.4-1.2,4.2-1.6c1-0.5,1.7-1,2-1.4s0.4-0.9,0.1-1.4l-0.6-1.1
		c-0.3-0.5-0.6-0.7-1-0.8c-0.4,0-1,0.1-1.7,0.5l-1.3,0.7c-1.2,0.6-2.2,0.8-3.1,0.7c-0.9-0.2-1.5-0.7-2-1.5l-0.6-1
		c-0.9-1.8,0.3-3.5,3.6-5.3c0.2-0.1,1.4-0.7,3.5-1.6l0.8,1.5c-1.5,0.5-2.7,1-3.7,1.5c-1.1,0.6-1.8,1.1-2.1,1.5s-0.3,0.9,0,1.4l0.5,1
		c0.4,0.8,1.3,0.8,2.7,0.1l1.3-0.7c2.4-1.2,4-1,5,0.8l0.5,1c0.6,1.2,0.6,2.2,0.1,3.1s-1.7,1.8-3.3,2.7
		C194.1,236.1,192.7,236.6,191.2,237.2z"/>
	<path class="st3" d="M205.6,229.9c-0.5,0.2-1.1,0.3-1.7,0.3c-0.6,0-1.2-0.1-1.7-0.5s-1-1-1.5-1.9l-2.1-3.9c-0.4-0.7-0.6-1.4-0.7-2
		c-0.1-0.6-0.1-1.1,0-1.6c0.1-0.4,0.3-0.8,0.7-1.2c0.4-0.4,0.8-0.7,1.3-1.1c0.5-0.3,1.1-0.6,1.7-1c0.8-0.4,1.4-0.7,1.9-0.9
		c0.4-0.2,0.9-0.3,1.4-0.4c0.6-0.1,1-0.1,1.5,0c0.4,0.1,0.8,0.4,1.3,0.9s0.9,1,1.2,1.8l2.1,3.9c0.7,1.3,0.9,2.4,0.6,3.4
		c-0.1,0.4-0.4,0.8-0.8,1.1c-0.4,0.4-0.8,0.7-1.3,1c-0.6,0.3-1.2,0.7-1.8,1C206.9,229.3,206.1,229.7,205.6,229.9z M208.5,226.6
		c0.3-0.2,0.5-0.4,0.7-0.7c0.2-0.3,0.3-0.6,0.3-0.9s-0.2-0.8-0.5-1.3l-2.4-4.6c-0.4-0.7-0.7-1.2-1.1-1.4c-0.3-0.2-0.7-0.3-1.2-0.2
		c-0.5,0.1-1.1,0.4-2,0.9s-1.5,0.8-1.8,1.2c-0.4,0.3-0.5,0.7-0.5,1.1s0.2,1,0.5,1.7l2.4,4.6c0.3,0.5,0.5,0.9,0.8,1.1
		s0.6,0.3,0.9,0.3c0.4,0,0.7-0.1,1-0.2s0.8-0.4,1.4-0.7S208.3,226.8,208.5,226.6z"/>
	<path class="st3" d="M207.6,207.8l2.1-1.1l8.6,16.3l-2.1,1.1L207.6,207.8z"/>
	<path class="st3" d="M222.5,220.1c-0.9-0.2-1.6-0.9-2.2-2l-4.3-8.3l2.1-1.1l4.3,8.2c0.2,0.3,0.3,0.5,0.5,0.7s0.3,0.3,0.6,0.4
		c0.5,0.3,1.3,0.1,2.4-0.5c1.2-0.6,1.9-1.1,2.3-1.6c0.3-0.5,0.4-1,0.1-1.5l-4.5-8.5l2.1-1.1l5.9,11.3l-2.1,1.1l-0.7-1.4
		c0.4,1.2-0.6,2.4-2.9,3.6C224.6,220.1,223.4,220.3,222.5,220.1z"/>
	<path class="st3" d="M237.8,212.7c-0.7,0.1-1.2-0.1-1.7-0.5s-1-1-1.5-1.9l-3.5-6.6l-2.5,1.3l-0.7-1.4l2.5-1.3l-1.8-3.5l2.1-1.1
		l1.8,3.5l4-2.1l0.7,1.4l-4,2.1l3.5,6.7c0.3,0.6,0.6,0.9,0.9,1.2s0.6,0.3,1,0.2c0.4-0.1,0.9-0.3,1.5-0.6c0.2-0.1,0.7-0.5,1.6-1.1
		l0.7,1.4c-0.7,0.5-1.5,1-2.3,1.4C239.2,212.4,238.4,212.7,237.8,212.7z"/>
	<path class="st3" d="M236.6,193.8l2.1-1.1l1.2,2.2l-2.1,1.1L236.6,193.8z M238.8,197.9l2.1-1.1l5.9,11.3l-2.1,1.1L238.8,197.9z"/>
	<path class="st3" d="M253.1,205c-0.5,0.2-1.1,0.3-1.7,0.3s-1.2-0.1-1.7-0.5s-1-1-1.5-1.9l-2.1-3.9c-0.4-0.7-0.6-1.4-0.7-2
		c-0.1-0.6-0.1-1.1,0-1.6c0.1-0.4,0.3-0.8,0.7-1.2s0.8-0.7,1.3-1.1c0.5-0.3,1.1-0.6,1.7-1c0.8-0.4,1.4-0.7,1.9-0.9
		c0.4-0.2,0.9-0.3,1.4-0.4c0.6-0.1,1-0.1,1.5,0c0.4,0.1,0.8,0.4,1.3,0.9s0.9,1,1.2,1.8l2.1,3.9c0.7,1.3,0.9,2.4,0.6,3.4
		c-0.1,0.4-0.4,0.8-0.8,1.1c-0.4,0.4-0.8,0.7-1.3,1c-0.6,0.3-1.2,0.7-1.7,1C254.4,204.4,253.6,204.8,253.1,205z M256,201.7
		c0.3-0.2,0.5-0.4,0.7-0.7c0.2-0.3,0.3-0.6,0.3-0.9s-0.2-0.8-0.5-1.3l-2.4-4.6c-0.4-0.7-0.7-1.2-1.1-1.4c-0.3-0.2-0.7-0.3-1.2-0.2
		s-1.1,0.4-2,0.9s-1.5,0.8-1.8,1.2c-0.4,0.3-0.5,0.7-0.5,1.1c0,0.4,0.2,1,0.5,1.7l2.4,4.6c0.3,0.5,0.5,0.9,0.8,1.1s0.6,0.3,0.9,0.3
		c0.4,0,0.7-0.1,1-0.2s0.8-0.4,1.4-0.7S255.8,201.9,256,201.7z"/>
	<path class="st3" d="M257.8,187.9l2.1-1.1l0.7,1.4c-0.3-1.2,0.6-2.4,2.9-3.6c1.4-0.8,2.6-1,3.5-0.8s1.6,0.9,2.2,2l4.3,8.3l-2.1,1.1
		l-4.3-8.2c-0.2-0.3-0.3-0.5-0.5-0.7c-0.1-0.2-0.3-0.3-0.6-0.4c-0.5-0.2-1.3-0.1-2.4,0.5c-0.8,0.4-1.4,0.8-1.8,1.2
		c-0.4,0.3-0.6,0.7-0.6,1.1c0,0.4,0.1,0.8,0.3,1.3l4.3,8.2l-2.1,1.1L257.8,187.9z"/>
</g>
</svg>
