<?xml version="1.0" encoding="utf-8"?>
<!-- Generator: Adobe Illustrator 20.1.0, SVG Export Plug-In . SVG Version: 6.00 Build 0)  -->
<svg version="1.1" id="Layer_1" xmlns="http://www.w3.org/2000/svg" xmlns:xlink="http://www.w3.org/1999/xlink" x="0px" y="0px"
	 viewBox="0 0 100 100" style="enable-background:new 0 0 100 100;" xml:space="preserve">
<style type="text/css">
	.st0{fill:#563D7C;}
	.st1{enable-background:new    ;}
	.st2{fill:#FFFFFF;}
</style>
<g id="solid" inkscape:version="0.48.1 r9760" sodipodi:docname="twitter_bootstrap_logo.svg" xmlns:cc="http://creativecommons.org/ns#" xmlns:dc="http://purl.org/dc/elements/1.1/" xmlns:inkscape="http://www.inkscape.org/namespaces/inkscape" xmlns:rdf="http://www.w3.org/1999/02/22-rdf-syntax-ns#" xmlns:sodipodi="http://sodipodi.sourceforge.net/DTD/sodipodi-0.dtd" xmlns:svg="http://www.w3.org/2000/svg">
	<path id="bg" class="st0" d="M100,83.3c0,9.2-7.5,16.7-16.7,16.7H16.7C7.5,100,0,92.5,0,83.3V16.7C0,7.5,7.5,0,16.7,0h66.7
		C92.5,0,100,7.5,100,16.7V83.3z"/>
	<g id="B" class="st1">
		<path class="st2" d="M27.2,21.7h28.3c5.2,0,9.4,1.2,12.6,3.6c3.2,2.4,4.7,6,4.7,10.9c0,2.9-0.7,5.5-2.2,7.5
			c-1.4,2.1-3.5,3.7-6.2,4.9v0.2c3.6,0.8,6.3,2.5,8.2,5.1c1.8,2.6,2.8,5.9,2.8,9.9c0,2.3-0.4,4.4-1.2,6.4c-0.8,2-2.1,3.7-3.8,5.1
			c-1.7,1.4-4,2.6-6.7,3.4c-2.7,0.8-6,1.3-9.7,1.3H27.2L27.2,21.7L27.2,21.7z M37.4,46.2h16.7c2.5,0,4.5-0.7,6.1-2.1s2.5-3.4,2.5-6
			c0-2.9-0.7-5-2.2-6.2S56.8,30,54.1,30H37.4V46.2L37.4,46.2z M37.4,71.7h18.1c3.1,0,5.5-0.8,7.2-2.4c1.7-1.6,2.6-3.9,2.6-6.8
			c0-2.9-0.8-5.1-2.6-6.7c-1.7-1.6-4.1-2.3-7.2-2.3H37.4V71.7z"/>
	</g>
</g>
</svg>
