<?xml version="1.0" encoding="utf-8"?>
<!-- Generator: Adobe Illustrator 21.0.2, SVG Export Plug-In . SVG Version: 6.00 Build 0)  -->
<svg version="1.1" id="Слой_1" xmlns="http://www.w3.org/2000/svg" xmlns:xlink="http://www.w3.org/1999/xlink" x="0px" y="0px"
	 viewBox="0 0 100 120" style="enable-background:new 0 0 100 120;" xml:space="preserve">
<style type="text/css">
	.st0{fill-rule:evenodd;clip-rule:evenodd;fill:#414042;}
	.st1{fill:#F9AE41;}
	.st2{fill:#EE4035;}
	.st3{fill:#4F91CD;}
	.st4{fill:#7AC043;}
</style>
<g>
	<path class="st0" d="M21.5,89.6c4.4,0,7.9,2.5,7.9,5.6c0,3.1-3.5,5.6-7.9,5.6c-4.4,0-7.9-2.5-7.9-5.6
		C13.6,92.1,17.1,89.6,21.5,89.6L21.5,89.6z M21.5,91c3.3,0,6,1.8,6,4.1c0,2.3-2.7,4.1-6,4.1c-3.3,0-6-1.8-6-4.1
		C15.5,92.9,18.2,91,21.5,91L21.5,91z M38.1,89.6c4.4,0,7.9,2.5,7.9,5.6c0,3.1-3.5,5.6-7.9,5.6c-4.4,0-7.9-2.5-7.9-5.6
		C30.2,92.1,33.7,89.6,38.1,89.6L38.1,89.6z M38.1,91c3.3,0,6,1.8,6,4.1c0,2.3-2.7,4.1-6,4.1c-3.3,0-6-1.8-6-4.1
		C32.1,92.9,34.8,91,38.1,91L38.1,91z M10.9,85.1h1.9v9.9c0,2.6-0.8,4.4-3.2,5.1c-1.7,0.6-4.3,0.6-8.1-0.3l0.8-1.6
		c2.2,0.6,4.2,1,5.8,0.7c1.7-0.3,2.9-1.3,2.9-3V85.1L10.9,85.1z M48.6,91.1c1.2-1.2,2.6-1.5,4.1-1.5c1.5,0,3.7,0.5,5,1.8
		c1.6-1.7,3.5-1.8,4.7-1.8c2.9,0,5.6,1.6,5.6,3.8v7.1h-1.9v-6.7c0-1.7-1.8-2.6-3.7-2.7c-1.7,0-3.4,1-4,2.2v7.2h-1.9v-7.2
		c0-1.4-2.1-2.2-4.1-2.1c-1.8,0.1-3.4,1.5-3.7,3v6.3h-1.9V89.7h1.8L48.6,91.1L48.6,91.1z M69.6,85.1h1.8v15.4h-1.8V85.1L69.6,85.1z
		 M86.6,89.7h1.8v10.8h-1.8v-2c-1.4,1.2-3.6,2-6.1,2c-4.3,0-7.8-2.4-7.8-5.4c0-3,3.5-5.4,7.8-5.4c2.5,0,4.7,0.8,6.1,2V89.7
		L86.6,89.7z M86.6,96.3v-2.3c-0.8-1.7-3.1-2.9-5.9-2.9c-3.4,0-6.1,1.8-6.1,4c0,2.2,2.7,4,6.1,4C83.5,99.1,85.8,97.9,86.6,96.3
		L86.6,96.3z M91.2,84.7h1.8V97h-1.8V84.7L91.2,84.7z M92.2,98.3c0.8,0,1.4,0.5,1.4,1.1c0,0.6-0.6,1.1-1.4,1.1
		c-0.8,0-1.4-0.5-1.4-1.1C90.7,98.8,91.4,98.3,92.2,98.3L92.2,98.3z M96.4,86.5v-1.9h0.5l0.5,1.6l0.5-1.6h0.5v1.9h-0.3v-1.6
		l-0.6,1.6h-0.3l-0.6-1.7v1.7H96.4L96.4,86.5z M94.9,86.5v-1.7h-0.7v-0.3h1.8v0.3h-0.7v1.7H94.9L94.9,86.5z"/>
	<g>
		<path class="st1" d="M79.5,27.4c0-4.3-3.5-7.8-7.8-7.8c-3.9,0-7.2,2.9-7.7,6.7c-0.1,0-0.1,0-0.1,0c-6.4-2.9-11.8,2.2-11.8,2.2
			L37.9,42.7l5.6,5.4L55,36.9c5.3-5.3,8.3-1.7,8.3-1.7c4,3.4,0.1,7.4,0.1,7.4l5.8,5.6c4.7-5.1,5-9.5,3.5-13
			C76.6,34.6,79.5,31.4,79.5,27.4"/>
		<path class="st2" d="M72.8,63.3C72.8,63.2,72.8,63.2,72.8,63.3c2.9-6.5-2.2-11.8-2.2-11.8L56.3,37.2l-5.4,5.6l11.2,11.4
			c5.3,5.3,1.7,8.3,1.7,8.3c-3.4,4-7.4,0.1-7.4,0.1l-5.6,5.8c5.1,4.7,9.5,5,13,3.5c0.5,3.8,3.8,6.8,7.7,6.8c4.3,0,7.8-3.5,7.8-7.8
			C79.5,67.1,76.6,63.8,72.8,63.3"/>
		<path class="st3" d="M56.4,50L45,61.2c-5.3,5.3-8.3,1.7-8.3,1.7c-4-3.4-0.1-7.4-0.1-7.4L30.8,50c-4.7,5.1-5,9.5-3.5,13
			c-3.8,0.5-6.8,3.8-6.8,7.7c0,4.3,3.5,7.8,7.8,7.8c3.9,0,7.2-2.9,7.7-6.7c0.1,0,0.1,0,0.1,0c6.4,2.9,11.8-2.2,11.8-2.2l14.2-14.3
			L56.4,50"/>
		<path class="st4" d="M37.9,43.8c-5.3-5.3-1.7-8.3-1.7-8.3c3.4-4,7.4-0.1,7.4-0.1l5.6-5.8c-5.1-4.7-9.5-5-13-3.5
			c-0.5-3.8-3.8-6.8-7.7-6.8c-4.3,0-7.8,3.5-7.8,7.8c0,3.9,2.9,7.2,6.7,7.7c0,0.1,0,0.1,0,0.1c-2.9,6.4,2.2,11.8,2.2,11.8l14.3,14.2
			l5.4-5.6L37.9,43.8"/>
	</g>
</g>
</svg>
