<?xml version="1.0" encoding="utf-8"?>
<!-- Generator: Adobe Illustrator 21.0.2, SVG Export Plug-In . SVG Version: 6.00 Build 0)  -->
<svg version="1.1" id="Слой_1" xmlns="http://www.w3.org/2000/svg" xmlns:xlink="http://www.w3.org/1999/xlink" x="0px" y="0px"
	 viewBox="0 0 100 120" style="enable-background:new 0 0 100 120;" xml:space="preserve">
<style type="text/css">
	.st0{fill:#1A1918;}
	.st1{fill:#21609B;}
</style>
<g>
	<g>
		<path class="st0" d="M93.4,78.7l5.1,0c0,0-9.4,12.8-10.2,13.8c-0.3,0.3-0.6,0.7-0.8,1.2c-0.5,1.1-1,3.6-1,3.6l-4.6,0
			c0,0,0.7-2.6,0.7-4c0-1.2-0.6-2.4-1-3.6c-0.3-1.2-0.8-3.6-0.8-3.6h4.8l0.7,2.6L93.4,78.7"/>
		<path class="st0" d="M83.8,81.4c0.9,0.6,1.5,3.7,1.5,3.7s-4.9,0.1-7.6,0.1h-2.3l-2.8,12.2h-4.3c0,0,2.7-13.2,3.3-15.6
			c0.2-0.8,1.4-0.6,3.4-0.6h3.2C80.4,81.1,82.8,80.8,83.8,81.4"/>
		<path class="st0" d="M63.9,87.4c0,0,0.1-0.8-0.5-1.7c-0.5-0.8-1-1-2.3-1c-3.7-0.1-3.6,2.6-3.6,2.6L63.9,87.4L63.9,87.4z
			 M67.9,84.2c0.5,2-0.5,6.6-0.5,6.6s-5.4-0.1-8.4,0c-0.9,0-2-0.1-2.3,0.3c-0.4,0.6,0.1,1.5,0.6,1.9c0.5,0.5,1.5,0.5,1.9,0.5
			c2.4,0.3,7.5,0.1,7.5,0.1l-0.9,3.9c0,0-7.1,0.4-10.7-0.5c-0.7-0.2-1.4-0.5-1.8-1c-0.1-0.1-0.2-0.3-0.3-0.5
			c-0.1-0.1-0.4-0.5-0.5-0.9c-0.8-2.2,0.1-6.3,1-8.6c0.1-0.3,0.2-0.6,0.4-0.9c0.2-0.3,0.3-0.7,0.5-0.9c0.1-0.1,0.2-0.2,0.3-0.4
			c0.1-0.2,0.2-0.3,0.4-0.5c0.3-0.4,0.7-0.7,1.2-1c1.5-1.1,4.2-2,7.4-1.6c1.2,0.1,3.1,0.6,4,1.8C67.7,83.1,67.8,83.7,67.9,84.2
			L67.9,84.2L67.9,84.2z"/>
		<path class="st0" d="M48.3,81.1l4.2,0c0,0-2.3,11-3.5,16.3h-4.8c-3.3,0-6.3,0.4-7.6-2c-1.2-2.3-0.1-6.1,0.5-8.7
			c0.4-1.8,1.2-5.6,1.2-5.6l4.3,0c0,0-1.2,5.8-1.7,8.8c-0.2,1-0.6,2-0.2,2.8c0.4,0.7,0.9,0.8,2.5,0.8c0.5,0,2.1,0,2.1,0L48.3,81.1"
			/>
		<path class="st0" d="M28.8,89c0.4-1.5,1.1-3.2,1-4.6c-0.1-1.5-1.3-2.8-2.1-3.1c-2.4-0.9-4.7,0.3-5.6,1.3c-1.2,1.3-1.6,2.7-2,4.8
			c-0.3,1.5-0.6,3.1,0,4.3c1,2.1,4.1,1.6,7.4,1.6C28,91.9,28.4,90.4,28.8,89L28.8,89L28.8,89z M34.6,82.9c0.5,3.4-1.3,7.3-2.6,10.6
			c1.3,0.1,2.4,0,2.5,0.1c0.1,0.1-0.9,4-1.2,4c-1,0-4.4,0.1-5.8,0.1c-4.6,0-8.9,0.3-11-2c-0.9-0.9-1.5-2.5-1.6-3.6
			c-0.2-1.9,0.1-3.9,0.5-5.6c0.4-1.5,0.9-3,1.6-4.3c1.9-3.4,5.3-5.8,10.9-5.3c1.1,0.1,2.6,0.6,3.6,1.2c0.1,0,0.3,0.2,0.4,0.3
			C33.1,79,34.3,81,34.6,82.9L34.6,82.9L34.6,82.9z"/>
		<path class="st0" d="M14.4,81.1c-0.3,1.3-0.6,2.7-0.8,3.9H8.9c0.4-1.4,0.6-2.8,1-4C11.4,81.1,12.7,81.1,14.4,81.1"/>
		<path class="st0" d="M8.7,86.2h4.4c-0.6,3.2-1.7,8.4-2.6,12c-0.6,2.3-0.9,3.9-2.5,5.1c-0.1,0.1-0.2,0.1-0.3,0.2
			c-0.3,0.3-1.6,0.6-2.3,0.7c-1.2,0.1-2.5,0-3.9,0c0.4-1.4,0.8-3,1.1-4.3c3.5,0.4,3.6-2.9,4.3-6.1C7.3,91.9,8.5,86.9,8.7,86.2"/>
	</g>
	<g transform="translate(0.000000, 8.827586)">
		<path class="st1" d="M74.9,45.4L74.7,46c-4,7.8-11.1,12.5-21.1,12.7c-4.7,0.1-9.2-1.1-12.1-2.4c-6.3-2.8-11.7-8.1-14.6-13.8
			c-4.2-8.1-4.9-19.3,3.7-27.7c0.1,0-1.1,1.8-0.9,1.8l-0.2,0.8c-6.3,19.6,13,36.3,31.7,34.4C65.7,51.5,71.4,49,74.9,45.4"/>
		<path class="st1" d="M63.6,37.4c4.7,0,9.6-2.2,12.5-5.3c-2.5,6.5-9.9,10.6-19.8,9.3c-8.3-1.1-16.2-9.4-17-17.8
			c-0.6-6.1,1.5-9.7,5-14.1c-1.2,2.3-1.7,4.1-1.8,5.2C41.2,27.8,53.1,37.3,63.6,37.4"/>
		<path class="st1" d="M75.7,21c-0.7,1.7-4.9,4.9-6.8,5.2c-7.4,1.6-12.1-1.9-14.6-5.9c-0.4-0.6-1-2.2-1.2-2.6
			c-1-3.3-0.5-8.2,2.3-10.7c-0.9,2.4-1,5.2-0.5,7.1c0.3,1.1,1.1,3,1.9,4.3c1.5,2.2,2.5,2.8,4.5,3.9c0.9,0.5,1.8,1,2.2,1.1
			C65.4,23.9,69.4,25.3,75.7,21"/>
	</g>
</g>
</svg>
