<?xml version="1.0" encoding="utf-8"?>
<!-- Generator: Adobe Illustrator 21.0.2, SVG Export Plug-In . SVG Version: 6.00 Build 0)  -->
<svg version="1.1" id="Слой_1" xmlns="http://www.w3.org/2000/svg" xmlns:xlink="http://www.w3.org/1999/xlink" x="0px" y="0px"
	 viewBox="0 0 100 120" style="enable-background:new 0 0 100 120;" xml:space="preserve">
<style type="text/css">
	.st0{fill:url(#SVGID_1_);}
	.st1{opacity:0.15;enable-background:new    ;}
	.st2{fill:url(#SVGID_2_);}
	.st3{fill:url(#SVGID_3_);}
	.st4{fill:url(#SVGID_4_);}
</style>
<g>
	<g transform="translate(14.769231, 0.000000)">
		
			<linearGradient id="SVGID_1_" gradientUnits="userSpaceOnUse" x1="-2461.5083" y1="41.6574" x2="-2461.7385" y2="41.4008" gradientTransform="matrix(134.1538 0 0 78.3975 330292.875 -3240.0374)">
			<stop  offset="0" style="stop-color:#80C3E6"/>
			<stop  offset="1" style="stop-color:#3380C2"/>
		</linearGradient>
		<path class="st0" d="M61.8,37.9l17.4-27.6H37.6l-5.8,9.3L61.8,37.9z"/>
		<path class="st1" d="M31.8,19.5l2.9-4.8l27.2,23.2L31.8,19.5z"/>
		
			<linearGradient id="SVGID_2_" gradientUnits="userSpaceOnUse" x1="-2449.2195" y1="28.4609" x2="-2449.5122" y2="28.3468" gradientTransform="matrix(78.8972 0 0 133.7526 193314.1562 -3734.4941)">
			<stop  offset="0" style="stop-color:#F38649"/>
			<stop  offset="0.1849" style="stop-color:#F28147"/>
			<stop  offset="0.4091" style="stop-color:#EF7242"/>
			<stop  offset="0.6537" style="stop-color:#EA5A3A"/>
			<stop  offset="0.911" style="stop-color:#E4382E"/>
			<stop  offset="1" style="stop-color:#E12A29"/>
		</linearGradient>
		<path class="st2" d="M71,88.2V46.5L62.1,41L43.2,70.8L71,88.2z"/>
		<path class="st1" d="M43.2,70.8l4.6,2.9L62.1,41L43.2,70.8z"/>
		
			<linearGradient id="SVGID_3_" gradientUnits="userSpaceOnUse" x1="-2464.7314" y1="29.0423" x2="-2464.4617" y2="28.836" gradientTransform="matrix(163.9015 0 0 133.7526 403974.6875 -3844.8848)">
			<stop  offset="0" style="stop-color:#42AB4A"/>
			<stop  offset="1" style="stop-color:#ADD155"/>
		</linearGradient>
		<path class="st3" d="M4,1.9v41.7l9.6,5.6L62,37.9L4,1.9z"/>
		
			<linearGradient id="SVGID_4_" gradientUnits="userSpaceOnUse" x1="-2466.3691" y1="32.6046" x2="-2466.1768" y2="32.0795" gradientTransform="matrix(186.7225 0 0 109.4425 460537.8438 -3479.3291)">
			<stop  offset="0" style="stop-color:#42AB4A"/>
			<stop  offset="1" style="stop-color:#ADD155"/>
		</linearGradient>
		<path class="st4" d="M13.4,52.5L-3.9,79.6h41.7L62.2,41L13.4,52.5z"/>
	</g>
	<path d="M4.9,114.9h2.4l1.2-14.7H6v-2.9h6.6l4.5,11.6c0.3,1,0.5,1.7,0.5,1.7l0,0c0,0,0.1-0.7,0.5-1.7l4.5-11.6h6.6v2.9h-2.2
		l1.2,14.7h2.4v2.8h-8.4v-2.8h2.3l-0.7-10.3c0-0.7,0.1-1.9,0.1-1.9h-0.1c0,0-0.2,1.2-0.5,1.9l-3.9,9.4h-3.3l-3.9-9.4
		c-0.2-0.7-0.5-1.9-0.5-1.9h-0.1c0,0,0.1,1.2,0.1,1.9l-0.7,10.3h2.3v2.8H5.1L4.9,114.9L4.9,114.9z M42.6,96.9
		c6,0,10.6,4.5,10.6,10.5c0,6-4.5,10.7-10.6,10.7c-6,0-10.6-4.6-10.6-10.7C32.1,101.5,36.6,96.9,42.6,96.9z M42.6,114.8
		c3.7,0,6.7-3.3,6.7-7.4c0-4.1-3-7.1-6.7-7.1s-6.7,3.1-6.7,7.1C35.9,111.6,38.9,114.8,42.6,114.8z M55.2,114.9h2.4v-14.7h-2.4v-2.9
		H64c1.6,0,2.9,0.1,4.3,0.5c3.9,1.2,6.6,4.6,6.6,9.8c0,4.9-2.4,8.4-6.4,9.6c-1.4,0.5-2.8,0.6-4.5,0.6h-8.8
		C55.2,117.7,55.2,114.9,55.2,114.9z M63.9,114.7c1.3,0,2.3-0.1,3.4-0.5c2.3-0.9,3.8-3.4,3.8-6.7c0-3.5-1.5-5.8-3.9-6.7
		c-1-0.3-2-0.5-3.3-0.5h-2.4v14.4L63.9,114.7L63.9,114.7z M77,114.9h1.9l5.1-7.5l-5-7.2h-1.9v-2.9h7.8v2.9h-2l2.8,4.2
		c0.3,0.5,0.6,0.8,0.6,0.8l0,0c0,0,0.2-0.3,0.6-0.8l2.8-4.2h-2v-2.9h7.4v2.9h-1.7l-5.2,7.5l5.1,7.3h1.9v2.8h-7.8v-2.8h2l-2.9-4.3
		c-0.3-0.5-0.6-0.9-0.6-0.9l0,0c0,0-0.2,0.3-0.6,0.9l-2.8,4.3h2v2.8H77V114.9z"/>
</g>
</svg>
