<?xml version="1.0" encoding="utf-8"?>
<!-- Generator: Adobe Illustrator 21.0.2, SVG Export Plug-In . SVG Version: 6.00 Build 0)  -->
<svg version="1.1" id="Layer_1" xmlns="http://www.w3.org/2000/svg" xmlns:xlink="http://www.w3.org/1999/xlink" x="0px" y="0px"
	 viewBox="0 0 100 120" style="enable-background:new 0 0 100 120;" xml:space="preserve">
<style type="text/css">
	.st0{fill-rule:evenodd;clip-rule:evenodd;fill:url(#SVGID_1_);}
	.st1{fill-rule:evenodd;clip-rule:evenodd;fill:url(#SVGID_2_);}
	.st2{fill-rule:evenodd;clip-rule:evenodd;fill:url(#SVGID_3_);}
	.st3{fill-rule:evenodd;clip-rule:evenodd;fill:url(#SVGID_4_);}
	.st4{fill-rule:evenodd;clip-rule:evenodd;fill:url(#SVGID_5_);}
	.st5{fill-rule:evenodd;clip-rule:evenodd;fill:url(#SVGID_6_);}
	.st6{fill-rule:evenodd;clip-rule:evenodd;fill:url(#SVGID_7_);}
	.st7{fill-rule:evenodd;clip-rule:evenodd;fill:url(#SVGID_8_);}
	.st8{fill-rule:evenodd;clip-rule:evenodd;fill:url(#SVGID_9_);}
	.st9{fill:url(#SVGID_10_);}
	.st10{fill:url(#SVGID_11_);}
	.st11{fill:url(#SVGID_12_);}
</style>
<g>
	<g>
		<linearGradient id="SVGID_1_" gradientUnits="userSpaceOnUse" x1="1.5" y1="82.9799" x2="14.096" y2="82.9799">
			<stop  offset="0" style="stop-color:#23BAED"/>
			<stop  offset="1" style="stop-color:#3CC6EE"/>
		</linearGradient>
		<path class="st0" d="M10.4,83c0-0.9-0.2-1.6-0.6-2.2c-0.5-0.7-1.1-1-1.9-1c-0.8,0-1.5,0.3-1.9,1c-0.4,0.6-0.6,1.3-0.6,2.2
			c0,0.9,0.2,1.6,0.6,2.2c0.5,0.7,1.1,1,1.9,1c0.8,0,1.5-0.3,1.9-1C10.1,84.6,10.4,83.8,10.4,83z M14.1,83c0,1.9-0.6,3.5-1.7,4.8
			c-1.2,1.4-2.7,2-4.6,2c-1.9,0-3.4-0.7-4.6-2c-1.1-1.3-1.7-2.9-1.7-4.8c0-1.9,0.6-3.5,1.7-4.8c1.2-1.3,2.7-2,4.6-2
			c1.9,0,3.4,0.7,4.6,2C13.5,79.5,14.1,81.1,14.1,83z"/>
		<linearGradient id="SVGID_2_" gradientUnits="userSpaceOnUse" x1="15.036" y1="85.4786" x2="27.632" y2="85.4786">
			<stop  offset="0" style="stop-color:#23BAED"/>
			<stop  offset="1" style="stop-color:#3CC6EE"/>
		</linearGradient>
		<path class="st1" d="M23.9,83c0-0.9-0.2-1.6-0.6-2.2c-0.5-0.7-1.1-1-1.9-1c-0.8,0-1.5,0.3-1.9,1c-0.4,0.6-0.6,1.3-0.6,2.2
			c0,0.9,0.2,1.6,0.6,2.2c0.5,0.7,1.1,1,1.9,1c0.8,0,1.5-0.3,1.9-1C23.7,84.6,23.9,83.8,23.9,83z M27.6,83c0,1.8-0.5,3.3-1.5,4.6
			c-1.1,1.5-2.5,2.2-4.2,2.2c-1.2,0-2.2-0.4-3.1-1.1c0,0.2,0,0.6,0.1,1.2c0,0.6,0.1,1.1,0.1,1.5c0,2.2-0.7,3.3-2,3.3
			c-0.5,0-1-0.2-1.3-0.6c-0.3-0.4-0.5-0.8-0.5-1.4V78.4c0-0.5,0.2-1,0.5-1.4c0.4-0.4,0.8-0.6,1.3-0.6c0.8,0,1.4,0.4,1.7,1.2
			c0.8-1,1.9-1.4,3.2-1.4c1.7,0,3.1,0.7,4.2,2.2C27.1,79.6,27.6,81.2,27.6,83z"/>
		<linearGradient id="SVGID_3_" gradientUnits="userSpaceOnUse" x1="28.6574" y1="82.9799" x2="41.2529" y2="82.9799">
			<stop  offset="0" style="stop-color:#23BAED"/>
			<stop  offset="1" style="stop-color:#3CC6EE"/>
		</linearGradient>
		<path class="st2" d="M37.5,81.6c0-0.6-0.3-1.1-0.8-1.6c-0.5-0.5-1.1-0.7-1.6-0.7c-0.6,0-1.1,0.2-1.7,0.7c-0.5,0.5-0.8,1-0.8,1.6
			H37.5z M41.3,82.6c0,0.6-0.1,1.1-0.4,1.3c-0.3,0.2-0.8,0.4-1.4,0.4h-6.8c0,0.7,0.3,1.3,1,1.7c0.5,0.3,1.2,0.5,2,0.5
			c0.6,0,1.3-0.2,2.2-0.6c0.9-0.4,1.4-0.6,1.6-0.6c0.4,0,0.8,0.2,1.1,0.5c0.3,0.3,0.5,0.7,0.5,1.1c0,1-0.8,1.8-2.3,2.4
			c-1.2,0.4-2.4,0.6-3.6,0.6c-2,0-3.5-0.6-4.7-1.9c-1.2-1.3-1.8-2.9-1.8-4.9c0-1.9,0.6-3.5,1.9-4.8c1.2-1.3,2.8-2,4.7-2
			c1.7,0,3.2,0.6,4.3,1.9C40.7,79.3,41.3,80.8,41.3,82.6z"/>
		<linearGradient id="SVGID_4_" gradientUnits="userSpaceOnUse" x1="42.2469" y1="82.8569" x2="53.8308" y2="82.8569">
			<stop  offset="0" style="stop-color:#23BAED"/>
			<stop  offset="1" style="stop-color:#3CC6EE"/>
		</linearGradient>
		<path class="st3" d="M53.8,87.6c0,0.5-0.2,1-0.5,1.4c-0.4,0.4-0.8,0.6-1.3,0.6c-1.3,0-2-1-2-3.1c0-0.4,0-1,0.1-1.9
			c0.1-0.9,0.1-1.5,0.1-1.9c0-2.2-0.7-3.3-2.1-3.3c-1.4,0-2.1,1.1-2.1,3.3c0,0.4,0,1,0.1,1.9c0,0.9,0.1,1.5,0.1,1.9
			c0,2.1-0.6,3.1-1.9,3.1c-0.5,0-1-0.2-1.3-0.6c-0.4-0.4-0.5-0.8-0.5-1.4v-9.2c0-0.5,0.2-1,0.5-1.4c0.3-0.4,0.8-0.6,1.3-0.6
			c0.9,0,1.5,0.4,1.9,1.2c0.6-1,1.7-1.4,3.2-1.4c1.4,0,2.5,0.4,3.4,1.1c0.8,0.8,1.3,1.9,1.3,3.3V87.6z"/>
		<g>
			<linearGradient id="SVGID_5_" gradientUnits="userSpaceOnUse" x1="54.8428" y1="82.9799" x2="65.5752" y2="82.9799">
				<stop  offset="0" style="stop-color:#23BAED"/>
				<stop  offset="1" style="stop-color:#3CC6EE"/>
			</linearGradient>
			<path class="st4" d="M65.6,87.2c0,0.8-0.5,1.5-1.7,2c-0.9,0.4-1.8,0.6-2.8,0.6c-1.9,0-3.4-0.7-4.6-2c-1.1-1.3-1.7-2.9-1.7-4.8
				c0-1.9,0.6-3.5,1.7-4.8c1.2-1.3,2.7-2,4.6-2c1.1,0,2,0.2,2.8,0.5c1.1,0.4,1.6,1.1,1.6,2c0,0.5-0.1,0.9-0.4,1.2
				c-0.3,0.3-0.7,0.5-1.1,0.5c-0.3,0-0.7-0.1-1.3-0.3c-0.6-0.2-1-0.3-1.4-0.3c-0.9,0-1.6,0.3-2.1,1c-0.5,0.6-0.7,1.3-0.7,2.2
				c0,0.9,0.2,1.6,0.6,2.2c0.5,0.7,1.1,1,1.9,1c0.4,0,0.9-0.1,1.5-0.3c0.6-0.2,1.1-0.3,1.4-0.3c0.4,0,0.8,0.2,1.1,0.5
				C65.4,86.4,65.6,86.8,65.6,87.2z"/>
			<linearGradient id="SVGID_6_" gradientUnits="userSpaceOnUse" x1="66.5882" y1="82.9799" x2="79.1832" y2="82.9799">
				<stop  offset="0" style="stop-color:#23BAED"/>
				<stop  offset="1" style="stop-color:#3CC6EE"/>
			</linearGradient>
			<path class="st5" d="M75.4,83c0-0.9-0.2-1.6-0.6-2.2c-0.5-0.7-1.1-1-1.9-1c-0.8,0-1.5,0.3-1.9,1c-0.4,0.6-0.6,1.3-0.6,2.2
				c0,0.9,0.2,1.6,0.6,2.2c0.5,0.7,1.1,1,2,1c0.8,0,1.5-0.3,1.9-1C75.2,84.6,75.4,83.8,75.4,83z M79.2,87.6c0,0.5-0.2,1-0.5,1.4
				c-0.4,0.4-0.8,0.6-1.3,0.6c-0.8,0-1.4-0.4-1.7-1.2c-0.8,1-1.9,1.4-3.2,1.4c-1.7,0-3.2-0.7-4.3-2.2c-1-1.3-1.5-2.9-1.5-4.6
				c0-1.8,0.5-3.3,1.5-4.7c1.1-1.4,2.5-2.2,4.3-2.2c1.4,0,2.4,0.5,3.2,1.4c0.3-0.8,0.9-1.2,1.7-1.2c0.5,0,1,0.2,1.3,0.6
				c0.4,0.4,0.5,0.8,0.5,1.4V87.6z"/>
			<linearGradient id="SVGID_7_" gradientUnits="userSpaceOnUse" x1="80.4953" y1="82.8569" x2="88.7342" y2="82.8569">
				<stop  offset="0" style="stop-color:#23BAED"/>
				<stop  offset="1" style="stop-color:#3CC6EE"/>
			</linearGradient>
			<path class="st6" d="M88.7,78.1c0,0.8-0.4,1.4-1.2,1.7c-0.7,0.2-1.4,0.5-2.2,0.7c-0.8,0.4-1.2,1.3-1.2,2.5v4.6
				c0,0.5-0.2,1-0.5,1.4c-0.4,0.4-0.8,0.6-1.3,0.6c-0.5,0-1-0.2-1.3-0.6c-0.4-0.4-0.5-0.8-0.5-1.4v-9.2c0-0.5,0.2-1,0.5-1.4
				c0.4-0.4,0.8-0.6,1.3-0.6c0.9,0,1.5,0.4,1.9,1.2c0.8-1,1.7-1.4,2.6-1.4c0.5,0,1,0.2,1.4,0.6C88.5,77.1,88.7,77.6,88.7,78.1z"/>
			<linearGradient id="SVGID_8_" gradientUnits="userSpaceOnUse" x1="89.3738" y1="80.8353" x2="98.5" y2="80.8353">
				<stop  offset="0" style="stop-color:#23BAED"/>
				<stop  offset="1" style="stop-color:#3CC6EE"/>
			</linearGradient>
			<path class="st7" d="M98.5,78.3c0,0.8-0.3,1.4-1,1.6c-0.3,0.1-1,0.2-2,0.2v7.6c0,0.5-0.2,1-0.5,1.4c-0.4,0.4-0.8,0.6-1.3,0.6
				c-0.5,0-1-0.2-1.3-0.6c-0.4-0.4-0.5-0.8-0.5-1.4V80c-0.8,0-1.3-0.1-1.7-0.3c-0.5-0.3-0.7-0.8-0.7-1.5c0-0.7,0.2-1.2,0.7-1.4
				c0.3-0.2,0.9-0.3,1.7-0.3v-0.8v-0.9c0-1.9,0.6-2.8,1.9-2.8c1.2,0,1.9,0.9,1.9,2.8v0.9v0.8c1,0,1.7,0.1,2,0.2
				C98.2,76.9,98.5,77.5,98.5,78.3z"/>
		</g>
		<g>
			<linearGradient id="SVGID_9_" gradientUnits="userSpaceOnUse" x1="53.1099" y1="73.0977" x2="57.5695" y2="73.0977">
				<stop  offset="0" style="stop-color:#23BAED"/>
				<stop  offset="1" style="stop-color:#3CC6EE"/>
			</linearGradient>
			<path class="st8" d="M55.3,72h-0.5V73h0.5c0.3,0,0.5,0,0.6-0.1s0.2-0.2,0.2-0.4c0-0.2-0.1-0.3-0.2-0.3C55.8,72,55.6,72,55.3,72z
				 M55.4,71.8c0.4,0,0.6,0.1,0.8,0.2c0.2,0.1,0.3,0.3,0.3,0.5c0,0.2-0.1,0.3-0.2,0.5c-0.1,0.1-0.3,0.2-0.4,0.2l0.6,1.2H56l-0.6-1.2
				h-0.6v1.2h-0.4v-2.6H55.4z M57.4,73.1c0-0.3,0-0.5-0.2-0.8c-0.1-0.2-0.2-0.5-0.4-0.6c-0.2-0.2-0.4-0.3-0.7-0.4
				c-0.2-0.1-0.5-0.2-0.8-0.2c-0.3,0-0.5,0-0.8,0.2c-0.2,0.1-0.5,0.2-0.6,0.4c-0.2,0.2-0.3,0.4-0.4,0.7c-0.1,0.2-0.2,0.5-0.2,0.8
				c0,0.3,0,0.5,0.2,0.8c0.1,0.2,0.2,0.5,0.4,0.6c0.2,0.2,0.4,0.3,0.7,0.4c0.2,0.1,0.5,0.2,0.8,0.2s0.5-0.1,0.8-0.2
				c0.2-0.1,0.5-0.3,0.7-0.4c0.2-0.2,0.3-0.4,0.4-0.6C57.3,73.6,57.4,73.4,57.4,73.1z M55.3,70.9c0.3,0,0.6,0.1,0.9,0.2
				c0.3,0.1,0.5,0.3,0.7,0.5c0.2,0.2,0.4,0.4,0.5,0.7c0.1,0.3,0.2,0.6,0.2,0.9c0,0.3-0.1,0.6-0.2,0.9c-0.1,0.3-0.3,0.5-0.5,0.7
				c-0.2,0.2-0.5,0.4-0.7,0.5c-0.3,0.1-0.6,0.2-0.9,0.2s-0.6-0.1-0.8-0.2c-0.3-0.1-0.5-0.3-0.7-0.5c-0.2-0.2-0.4-0.5-0.5-0.7
				c-0.1-0.3-0.2-0.6-0.2-0.9s0.1-0.6,0.2-0.9c0.1-0.3,0.3-0.5,0.5-0.7c0.2-0.2,0.4-0.4,0.7-0.5C54.7,70.9,55,70.9,55.3,70.9z"/>
		</g>
	</g>
	<g>
		<linearGradient id="SVGID_10_" gradientUnits="userSpaceOnUse" x1="23.0707" y1="39.2257" x2="76.9293" y2="39.2257">
			<stop  offset="0" style="stop-color:#23BAED"/>
			<stop  offset="1" style="stop-color:#3CC6EE"/>
		</linearGradient>
		<path class="st9" d="M23.1,25.2c6.9,7.3,13.4,8.4,38.8,8.4c25.4,0,14.3,5.7-1.5,19.7c5-8.7,22.1-16.3-6-15.9
			C27.6,37.8,26,29.6,23.1,25.2z"/>
		<linearGradient id="SVGID_11_" gradientUnits="userSpaceOnUse" x1="33.4847" y1="60.1305" x2="41.1761" y2="60.1305">
			<stop  offset="0" style="stop-color:#23BAED"/>
			<stop  offset="1" style="stop-color:#3CC6EE"/>
		</linearGradient>
		<path class="st10" d="M41.2,60.1c0,2.1-1.7,3.8-3.8,3.8c-2.1,0-3.8-1.7-3.8-3.8c0-2.1,1.7-3.9,3.8-3.9
			C39.5,56.3,41.2,58,41.2,60.1z"/>
		<linearGradient id="SVGID_12_" gradientUnits="userSpaceOnUse" x1="51.0062" y1="60.1305" x2="58.6976" y2="60.1305">
			<stop  offset="0" style="stop-color:#23BAED"/>
			<stop  offset="1" style="stop-color:#3CC6EE"/>
		</linearGradient>
		<path class="st11" d="M58.7,60.1c0,2.1-1.7,3.8-3.8,3.8c-2.1,0-3.8-1.7-3.8-3.8c0-2.1,1.7-3.9,3.8-3.9C57,56.3,58.7,58,58.7,60.1z
			"/>
	</g>
</g>
</svg>
