<?xml version="1.0" encoding="utf-8"?>
<!-- Generator: Adobe Illustrator 21.0.2, SVG Export Plug-In . SVG Version: 6.00 Build 0)  -->
<svg version="1.1" id="Слой_1" xmlns="http://www.w3.org/2000/svg" xmlns:xlink="http://www.w3.org/1999/xlink" x="0px" y="0px"
	 viewBox="0 0 100 120" style="enable-background:new 0 0 100 120;" xml:space="preserve">
<style type="text/css">
	.st0{fill:#1E6EAA;}
	.st1{fill-rule:evenodd;clip-rule:evenodd;fill:#1E6EAA;}
	.st2{fill:#00AEEF;}
	.st3{fill-rule:evenodd;clip-rule:evenodd;fill:#00AEEF;}
	.st4{fill:#CBCFCE;}
</style>
<g>
	<path class="st0" d="M10.3,75.1H8.5l-7-18.9h3.6l4.3,12.6C16.1,51.6,31.1,44.3,44.9,42l0.4,0.6c-9,2.1-17.4,5.6-24,12.4l-0.2,0
		l-0.2,0l-0.2,0l-0.2,0l-0.2,0L19.9,55l-0.2,0.1l-0.2,0.1l-0.2,0.1L19,55.5l-0.2,0.2l-0.2,0.2L18.5,56l-0.1,0.2l-0.1,0.2l-0.1,0.2
		L18.1,57l0,0.2l0,0.2l0,0.2l0,0.2l0.1,0.2l0.1,0.2l0,0.1c-0.2,0.2-0.4,0.5-0.5,0.7h-0.9v1.3C14.2,64.5,12,69.2,10.3,75.1L10.3,75.1
		z"/>
	<path class="st1" d="M58,66.5h-7.9c0,0.9,0.4,1.6,0.9,2c0.6,0.5,1.3,0.7,2.2,0.7c1.2,0,2.1-0.3,2.7-0.9l1,2c-0.9,0.7-2.3,1.1-4,1.1
		c-1.7,0-3-0.5-4-1.5c-1-1-1.5-2.4-1.5-4.1c0-1.7,0.5-3.1,1.6-4.2c1.1-1.1,2.4-1.6,3.9-1.6c1.6,0,2.9,0.5,3.8,1.4
		c1,1,1.4,2.2,1.4,3.6C58.2,65.4,58.1,65.9,58,66.5L58,66.5z M20.6,56c0.4,0,0.8,0.1,1.1,0.4c0.3,0.3,0.4,0.6,0.4,1.1
		c0,0.4-0.1,0.8-0.4,1.1c-0.3,0.3-0.6,0.4-1.1,0.4c-0.4,0-0.8-0.1-1.1-0.4c-0.3-0.3-0.4-0.6-0.4-1.1c0-0.4,0.1-0.8,0.4-1.1
		C19.9,56.1,20.2,56,20.6,56L20.6,56z M19.3,71.2v-8.9h-1.4v-2.1h4v11H19.3L19.3,71.2z M28.1,62.4c-0.6,0-1.1,0.1-1.6,0.6
		c-0.5,0.5-0.7,1.2-0.7,2v6.3h-2.6v-11h2.6v1c0.7-0.8,1.7-1,2.9-1c0.6,0,1.1-0.1,1.6,0h0.3V58l2.6-0.9v3.2h3v2.1h-3v4.8
		c0,0.8,0.1,1.3,0.4,1.7c0.2,0.3,0.7,0.5,1.3,0.5c0.6,0,1.2-0.2,1.7-0.5v2.4c-0.6,0.2-1.4,0.3-2.5,0.3c-1.1,0-1.9-0.3-2.5-0.9
		c-0.6-0.6-0.9-1.5-0.9-2.6v-5.6C29.5,62.3,29.2,62.4,28.1,62.4L28.1,62.4z M44.3,71.2v-0.9c-0.4,0.3-0.9,0.6-1.5,0.8
		c-0.6,0.2-1.2,0.3-1.8,0.3c-2.6,0-3.8-1.4-3.8-4.1v-7.1h2.6v7c0,1.4,0.6,2.1,1.9,2.1c0.6,0,1.1-0.2,1.6-0.5c0.5-0.3,0.8-0.6,1-1
		v-7.6h2.6v11H44.3L44.3,71.2z M50.2,64.6h5.4c-0.2-1.6-1.1-2.4-2.7-2.4C51.5,62.2,50.6,63,50.2,64.6L50.2,64.6z"/>
	<polygon class="st2" points="73.6,71.2 71,71.2 69.5,63.1 66.4,71.4 65.5,71.4 62.4,63.1 60.8,71.2 58.2,71.2 61.3,56.2 62.7,56.2 
		65.9,66.3 69.1,56.2 70.5,56.2 73.6,71.2 	"/>
	<path class="st2" d="M81.2,70.1c-0.2,0.4-0.6,0.7-1.2,0.9c-0.6,0.2-1.2,0.4-1.8,0.4c-1.2,0-2.1-0.3-2.8-0.9c-0.7-0.6-1-1.4-1-2.5
		c0-1.3,0.5-2.3,1.4-3c1-0.7,2.3-1.1,4.1-1.1c0.3,0,0.7,0,1.1,0.2c0-1.3-0.8-1.9-2.5-1.9c-1,0-1.8,0.2-2.4,0.5l-0.6-2
		c0.9-0.4,1.9-0.6,3.2-0.6c1.7,0,2.9,0.4,3.7,1.1c0.8,0.8,1.2,2.2,1.2,4.3v2.4c0,1.5,0.3,2.4,0.9,2.8c-0.2,0.4-0.4,0.6-0.7,0.7
		c-0.3,0.1-0.6,0.1-0.9,0.1c-0.4,0-0.7-0.1-1-0.4C81.5,70.8,81.3,70.5,81.2,70.1L81.2,70.1z M81,66.1c-0.4-0.1-0.8-0.1-1-0.1
		c-2,0-3,0.7-3,2c0,1,0.6,1.5,1.7,1.5c1.5,0,2.3-0.8,2.3-2.3V66.1L81,66.1z"/>
	<path class="st3" d="M89.9,62.3c-0.6,0-1.1,0.1-1.6,0.7c-0.5,0.5-0.7,1.2-0.7,2v6.3H85v-11h2.6v1c0.7-0.8,1.7-1.1,2.9-1.1
		c0.6,0,1.1-0.1,1.6,0.1h0.5V58l2.6-0.9v3.2h3v2.1h-3v4.8c0,0.8,0.1,1.3,0.4,1.7c0.2,0.3,0.7,0.5,1.3,0.5c0.6,0,1.2-0.2,1.7-0.5v2.4
		c-0.6,0.2-1.4,0.3-2.5,0.3c-1.1,0-1.9-0.3-2.5-0.9c-0.6-0.6-0.9-1.5-0.9-2.6v-5.6C91.4,62.3,91.1,62.3,89.9,62.3L89.9,62.3z"/>
	<path class="st4" d="M18.8,76.9l0.2-0.4c0.1,0.1,0.1,0.1,0.3,0.2c0.1,0,0.2,0.1,0.3,0.1c0.1,0,0.2,0,0.3-0.1
		c0.1-0.1,0.1-0.2,0.1-0.3c0-0.1,0-0.1-0.1-0.2c0,0-0.1-0.1-0.2-0.2l-0.3-0.2c-0.1-0.1-0.2-0.1-0.2-0.2c0-0.1-0.1-0.2-0.1-0.3
		c0-0.2,0.1-0.4,0.3-0.5c0.2-0.1,0.4-0.2,0.6-0.2c0.2,0,0.4,0.1,0.6,0.2l-0.2,0.4C20.3,75,20.1,75,20,75c-0.1,0-0.2,0-0.3,0.1
		c-0.1,0.1-0.1,0.1-0.1,0.2c0,0.1,0,0.1,0.1,0.2c0,0,0.1,0.1,0.2,0.2l0.3,0.2c0.1,0.1,0.2,0.1,0.2,0.2c0,0.1,0.1,0.2,0.1,0.3
		c0,0.3-0.1,0.5-0.3,0.6c-0.2,0.1-0.4,0.2-0.7,0.2C19.2,77.1,19,77,18.8,76.9L18.8,76.9z"/>
	<path class="st4" d="M23.2,77l0.3-1.5c0-0.1,0-0.1,0-0.2c0-0.3-0.1-0.4-0.4-0.4c-0.1,0-0.2,0-0.3,0.1c-0.1,0.1-0.2,0.1-0.3,0.2
		L22.2,77h-0.4l0.6-3.4h0.4l-0.2,1.3c0.1-0.1,0.2-0.2,0.3-0.2c0.1-0.1,0.3-0.1,0.4-0.1c0.2,0,0.4,0.1,0.5,0.2
		c0.1,0.1,0.2,0.3,0.2,0.5c0,0.1,0,0.2,0,0.2L23.7,77H23.2L23.2,77z"/>
	<path class="st4" d="M25.3,76.2c0-0.4,0.1-0.8,0.4-1.1c0.3-0.3,0.6-0.5,1-0.5c0.3,0,0.5,0.1,0.7,0.2c0.2,0.2,0.2,0.4,0.2,0.7
		c0,0.2,0,0.5-0.1,0.7c-0.1,0.2-0.2,0.5-0.5,0.6c-0.2,0.2-0.5,0.2-0.8,0.2c-0.3,0-0.5-0.1-0.7-0.2C25.3,76.7,25.3,76.5,25.3,76.2
		L25.3,76.2z M25.7,76.1c0,0.4,0.2,0.6,0.5,0.6c0.3,0,0.5-0.1,0.6-0.4c0.1-0.2,0.2-0.5,0.2-0.9c0-0.4-0.2-0.6-0.5-0.6
		c-0.2,0-0.3,0.1-0.5,0.2c-0.1,0.1-0.2,0.3-0.3,0.5C25.8,75.8,25.7,76,25.7,76.1L25.7,76.1z"/>
	<path class="st4" d="M29.1,76.9L28.9,78h-0.4l0.5-2.6c0-0.1,0-0.2,0-0.3c0-0.1,0-0.2,0-0.3l0.4-0.1c0,0,0,0.1,0,0.3
		c0.1-0.1,0.2-0.2,0.3-0.2c0.1-0.1,0.3-0.1,0.4-0.1c0.3,0,0.5,0.1,0.7,0.2c0.1,0.1,0.2,0.4,0.2,0.7c0,0.5-0.1,0.8-0.4,1.1
		c-0.3,0.3-0.6,0.5-1,0.5c-0.1,0-0.2,0-0.3-0.1C29.2,77,29.1,77,29.1,76.9L29.1,76.9z M29.2,76.6c0,0,0.1,0.1,0.2,0.1
		c0.1,0,0.2,0,0.2,0c0.3,0,0.6-0.1,0.7-0.3c0.2-0.2,0.3-0.5,0.3-0.9c0-0.2,0-0.3-0.1-0.4C30.3,75,30.2,75,30,75
		c-0.1,0-0.2,0-0.3,0.1c-0.1,0.1-0.2,0.1-0.2,0.2L29.2,76.6L29.2,76.6z"/>
	<path class="st4" d="M32.6,76.9L32.4,78H32l0.5-2.6c0-0.1,0-0.2,0-0.3c0-0.1,0-0.2,0-0.3l0.4-0.1c0,0,0,0.1,0,0.3
		c0.1-0.1,0.2-0.2,0.3-0.2c0.1-0.1,0.3-0.1,0.4-0.1c0.3,0,0.5,0.1,0.7,0.2c0.1,0.1,0.2,0.4,0.2,0.7c0,0.5-0.1,0.8-0.4,1.1
		c-0.3,0.3-0.6,0.5-1,0.5c-0.1,0-0.2,0-0.3-0.1C32.7,77,32.7,77,32.6,76.9L32.6,76.9z M32.7,76.6c0,0,0.1,0.1,0.2,0.1
		c0.1,0,0.2,0,0.2,0c0.3,0,0.6-0.1,0.7-0.3c0.2-0.2,0.3-0.5,0.3-0.9c0-0.2,0-0.3-0.1-0.4C33.8,75,33.7,75,33.5,75
		c-0.1,0-0.2,0-0.3,0.1c-0.1,0.1-0.2,0.1-0.2,0.2L32.7,76.6L32.7,76.6z"/>
	<path class="st4" d="M36.6,73.7c0.1,0,0.2,0,0.2,0.1c0.1,0.1,0.1,0.1,0.1,0.2c0,0.1,0,0.2-0.1,0.2c-0.1,0.1-0.1,0.1-0.2,0.1
		c-0.1,0-0.2,0-0.2-0.1c-0.1-0.1-0.1-0.1-0.1-0.2c0-0.1,0-0.2,0.1-0.2C36.4,73.7,36.5,73.7,36.6,73.7L36.6,73.7z M35.9,77l0.4-2
		h-0.3l0.1-0.4h0.7L36.3,77H35.9L35.9,77z"/>
	<path class="st4" d="M39.6,77l0.3-1.4c0-0.1,0-0.2,0-0.3c0-0.3-0.1-0.4-0.4-0.4c-0.1,0-0.2,0-0.3,0.1c-0.1,0.1-0.2,0.1-0.3,0.2
		L38.6,77h-0.4l0.3-1.8c0,0,0-0.1,0-0.1c0-0.2,0-0.3,0-0.4l0.4-0.1c0,0.2,0.1,0.3,0.1,0.4c0.2-0.2,0.4-0.4,0.8-0.4
		c0.4,0,0.7,0.2,0.7,0.7c0,0.1,0,0.2,0,0.3L40,77H39.6L39.6,77z"/>
	<path class="st4" d="M41.4,77.7l0.2-0.3c0.3,0.1,0.5,0.2,0.7,0.2c0.2,0,0.4,0,0.5-0.1c0.1-0.1,0.2-0.2,0.2-0.3c0-0.1,0-0.1-0.1-0.2
		c0,0-0.1-0.1-0.2-0.1l-0.4-0.1c-0.2,0-0.2-0.1-0.2-0.2c0-0.1,0.1-0.2,0.4-0.3l-0.1,0c-0.2,0-0.3-0.1-0.5-0.2
		c-0.1-0.1-0.2-0.3-0.2-0.5c0-0.3,0.1-0.6,0.3-0.8c0.2-0.2,0.5-0.3,0.8-0.3c0.2,0,0.4,0.1,0.5,0.2l0.2-0.2l0.2,0.2L43.5,75
		c0,0.1,0.1,0.2,0.1,0.3c0,0.3-0.1,0.5-0.2,0.7c-0.1,0.2-0.3,0.3-0.5,0.4c-0.2,0.1-0.3,0.1-0.3,0.2c0,0.1,0,0.1,0.1,0.1
		c0,0,0.1,0,0.1,0c0,0,0.1,0,0.1,0c0.4,0,0.6,0.2,0.6,0.5c0,0.3-0.1,0.5-0.4,0.6c-0.2,0.2-0.5,0.2-0.8,0.2
		C41.9,78,41.6,77.9,41.4,77.7L41.4,77.7z M42.7,74.9c-0.2,0-0.3,0.1-0.4,0.2c-0.1,0.1-0.2,0.3-0.2,0.5c0,0.3,0.1,0.5,0.4,0.5
		c0.2,0,0.3-0.1,0.4-0.2c0.1-0.2,0.2-0.3,0.2-0.5c0-0.1,0-0.2-0.1-0.3C42.9,75,42.8,74.9,42.7,74.9L42.7,74.9z"/>
	<path class="st4" d="M48.2,74.7l-0.1,0.4C48,75,47.8,75,47.6,75c-0.3,0-0.5,0.1-0.7,0.3c-0.2,0.2-0.3,0.5-0.3,0.8
		c0,0.2,0.1,0.4,0.2,0.5c0.1,0.1,0.2,0.2,0.4,0.2c0.2,0,0.4-0.1,0.6-0.2l0,0.4c-0.2,0.1-0.4,0.1-0.6,0.1c-0.3,0-0.5-0.1-0.7-0.3
		c-0.2-0.2-0.2-0.4-0.2-0.7c0-0.5,0.1-0.8,0.4-1.1s0.6-0.4,1-0.4C47.8,74.6,48,74.6,48.2,74.7L48.2,74.7z"/>
	<path class="st4" d="M51.5,74.8l-0.3,1.4c0,0.1,0,0.1,0,0.2c0,0.2,0,0.5,0.1,0.6h-0.4c0,0,0-0.1-0.1-0.2c-0.1,0.1-0.2,0.2-0.3,0.2
		c-0.1,0.1-0.3,0.1-0.4,0.1c-0.2,0-0.4-0.1-0.6-0.2c-0.1-0.1-0.2-0.3-0.2-0.6c0-0.4,0.1-0.8,0.4-1.2c0.3-0.3,0.6-0.5,1-0.5
		C51.1,74.6,51.3,74.7,51.5,74.8L51.5,74.8z M51,75c0-0.1-0.2-0.1-0.4-0.1c-0.2,0-0.4,0.1-0.6,0.4c-0.2,0.3-0.3,0.6-0.3,0.9
		c0,0.3,0.1,0.5,0.4,0.5c0.1,0,0.3-0.1,0.4-0.2c0.1-0.2,0.2-0.3,0.3-0.6L51,75L51,75z"/>
	<path class="st4" d="M54.4,75.1C54.3,75,54.2,75,54.1,75c-0.2,0-0.3,0.1-0.4,0.2c-0.1,0.1-0.2,0.3-0.3,0.5L53.1,77h-0.4l0.4-2.4
		h0.4L53.5,75c0.2-0.3,0.5-0.4,0.8-0.4c0.1,0,0.1,0,0.2,0L54.4,75.1L54.4,75.1z"/>
	<path class="st4" d="M56.1,75h-0.3l0.1-0.3h0.3l0.1-0.5l0.5-0.2l-0.2,0.7h0.7L57.2,75h-0.7l-0.3,1.2c0,0.1,0,0.2,0,0.2
		c0,0.2,0.1,0.3,0.3,0.3c0.1,0,0.2,0,0.4-0.1l0,0.4c-0.1,0-0.3,0.1-0.6,0.1c-0.2,0-0.3-0.1-0.4-0.2c-0.1-0.1-0.1-0.3-0.1-0.4
		c0,0,0-0.1,0-0.2L56.1,75L56.1,75z"/>
	<path class="st4" d="M59.7,76.9l0.2-0.4c0.1,0.1,0.1,0.1,0.3,0.2c0.1,0,0.2,0.1,0.3,0.1c0.1,0,0.2,0,0.3-0.1
		c0.1-0.1,0.1-0.2,0.1-0.3c0-0.1,0-0.1-0.1-0.2c0,0-0.1-0.1-0.2-0.2l-0.3-0.2c-0.1-0.1-0.2-0.1-0.2-0.2c0-0.1-0.1-0.2-0.1-0.3
		c0-0.2,0.1-0.4,0.3-0.5c0.2-0.1,0.4-0.2,0.6-0.2c0.2,0,0.4,0.1,0.6,0.2l-0.2,0.4C61.2,75,61,75,60.9,75c-0.1,0-0.2,0-0.3,0.1
		c-0.1,0.1-0.1,0.1-0.1,0.2c0,0.1,0,0.1,0.1,0.2c0,0,0.1,0.1,0.2,0.2l0.3,0.2c0.1,0.1,0.2,0.1,0.2,0.2c0,0.1,0.1,0.2,0.1,0.3
		c0,0.3-0.1,0.5-0.3,0.6c-0.2,0.1-0.4,0.2-0.7,0.2C60.1,77.1,59.9,77,59.7,76.9L59.7,76.9z"/>
	<path class="st4" d="M62.7,76.2c0-0.4,0.1-0.8,0.4-1.1c0.3-0.3,0.6-0.5,1-0.5c0.3,0,0.5,0.1,0.7,0.2c0.2,0.2,0.2,0.4,0.2,0.7
		c0,0.2,0,0.5-0.1,0.7c-0.1,0.2-0.2,0.5-0.5,0.6c-0.2,0.2-0.5,0.2-0.8,0.2c-0.3,0-0.5-0.1-0.7-0.2C62.7,76.7,62.7,76.5,62.7,76.2
		L62.7,76.2z M63.1,76.1c0,0.4,0.2,0.6,0.5,0.6c0.3,0,0.5-0.1,0.6-0.4c0.1-0.2,0.2-0.5,0.2-0.9c0-0.4-0.2-0.6-0.5-0.6
		c-0.2,0-0.3,0.1-0.5,0.2c-0.1,0.1-0.2,0.3-0.3,0.5C63.1,75.8,63.1,76,63.1,76.1L63.1,76.1z"/>
	<path class="st4" d="M67.9,74.1c-0.1,0-0.2-0.1-0.3-0.1c-0.3,0-0.4,0.2-0.5,0.6h0.6l0,0.3h-0.6l-0.4,2.3c0,0.2-0.1,0.4-0.3,0.5
		c-0.2,0.1-0.4,0.2-0.6,0.2l0-0.3c0.1,0,0.2-0.1,0.3-0.2c0.1-0.1,0.2-0.2,0.2-0.3l0.4-2.3h-0.3l0-0.3h0.3c0.1-0.7,0.5-1,1-1
		c0.1,0,0.2,0,0.3,0.1L67.9,74.1L67.9,74.1z"/>
	<path class="st4" d="M69.4,75h-0.3l0.1-0.3h0.3l0.1-0.5l0.5-0.2l-0.2,0.7h0.7L70.5,75h-0.7l-0.3,1.2c0,0.1,0,0.2,0,0.2
		c0,0.2,0.1,0.3,0.3,0.3c0.1,0,0.2,0,0.4-0.1l0,0.4c-0.1,0-0.3,0.1-0.6,0.1c-0.2,0-0.3-0.1-0.4-0.2c-0.1-0.1-0.1-0.3-0.1-0.4
		c0,0,0-0.1,0-0.2L69.4,75L69.4,75z"/>
	<path class="st4" d="M73.9,77.1h-0.1l-0.4-1.6l-1,1.6h-0.1l-0.4-2.5h0.4l0.3,1.5l0.9-1.5h0.1l0.4,1.5l0.8-1.5h0.4
		C74.7,75.6,74.3,76.4,73.9,77.1L73.9,77.1z"/>
	<path class="st4" d="M78.4,74.8l-0.3,1.4c0,0.1,0,0.1,0,0.2c0,0.2,0,0.5,0.1,0.6h-0.4c0,0,0-0.1-0.1-0.2c-0.1,0.1-0.2,0.2-0.3,0.2
		c-0.1,0.1-0.3,0.1-0.4,0.1c-0.2,0-0.4-0.1-0.6-0.2c-0.1-0.1-0.2-0.3-0.2-0.6c0-0.4,0.1-0.8,0.4-1.2c0.3-0.3,0.6-0.5,1-0.5
		C77.9,74.6,78.2,74.7,78.4,74.8L78.4,74.8z M77.9,75c0-0.1-0.2-0.1-0.4-0.1c-0.2,0-0.4,0.1-0.6,0.4c-0.2,0.3-0.3,0.6-0.3,0.9
		c0,0.3,0.1,0.5,0.4,0.5c0.1,0,0.3-0.1,0.4-0.2c0.1-0.2,0.2-0.3,0.3-0.6L77.9,75L77.9,75z"/>
	<path class="st4" d="M81.2,75.1C81.1,75,81,75,80.9,75c-0.2,0-0.3,0.1-0.4,0.2c-0.1,0.1-0.2,0.3-0.3,0.5L80,77h-0.4l0.4-2.4h0.4
		L80.3,75c0.2-0.3,0.5-0.4,0.8-0.4c0.1,0,0.1,0,0.2,0L81.2,75.1L81.2,75.1z"/>
	<path class="st4" d="M82.9,75.9c0,0.1,0,0.1,0,0.2c0,0.2,0.1,0.3,0.2,0.5c0.1,0.1,0.3,0.2,0.5,0.2c0.2,0,0.4-0.1,0.5-0.2l0,0.4
		c-0.2,0.1-0.5,0.1-0.6,0.1c-0.6,0-0.9-0.3-0.9-1c0-0.4,0.1-0.8,0.4-1c0.3-0.3,0.6-0.4,1-0.4c0.2,0,0.4,0.1,0.6,0.2
		c0.1,0.1,0.2,0.2,0.2,0.4c0,0.3-0.1,0.5-0.3,0.6C84.1,76,83.8,76,83.5,76C83.3,76,83.1,76,82.9,75.9L82.9,75.9z M83,75.6
		c0.1,0.1,0.2,0.1,0.4,0.1c0.2,0,0.4,0,0.6-0.1c0.1-0.1,0.2-0.2,0.2-0.3c0-0.2-0.1-0.3-0.4-0.3C83.4,75,83.2,75.2,83,75.6L83,75.6z"
		/>
</g>
</svg>
