<?xml version="1.0" encoding="utf-8"?>
<!-- Generator: Adobe Illustrator 21.0.2, SVG Export Plug-In . SVG Version: 6.00 Build 0)  -->
<svg version="1.1" id="Слой_1" xmlns="http://www.w3.org/2000/svg" xmlns:xlink="http://www.w3.org/1999/xlink" x="0px" y="0px"
	 viewBox="0 0 100 120" style="enable-background:new 0 0 100 120;" xml:space="preserve">
<style type="text/css">
	.st0{fill-rule:evenodd;clip-rule:evenodd;fill:#9C5C8F;}
	.st1{fill-rule:evenodd;clip-rule:evenodd;fill:#FFFFFF;}
	.st2{fill-rule:evenodd;clip-rule:evenodd;}
</style>
<g>
	<g>
		<path class="st0" d="M2.2,26.5c1.3-3.2,4.7-5.5,8.2-5.5c26.3,0,52.6,0,78.9,0c2.3-0.1,4.6,0.8,6.2,2.3c1.9,1.7,3,4.3,3,6.9
			c0,10.1,0,20.2,0,30.2c0,4.6-4,8.6-8.6,8.7c-9.6,0-19.2,0-28.8,0c1.3,3.2,2.6,6.3,3.9,9.5c-5.7-3.1-11.4-6.4-17.1-9.5
			c-12.6-0.1-25.2,0-37.9-0.1c-4.5-0.1-8.5-4.2-8.5-8.7c0-9.9,0-19.7,0-29.6C1.5,29.4,1.6,27.8,2.2,26.5L2.2,26.5z"/>
		<path class="st1" d="M40.8,27.2c1.5-1.5,4.2-1,5.3,0.7c0.6,0.9,0.6,2.1,0.2,3.1c-2,4-2.9,8.4-3.7,12.8c-0.9,5.7-1.7,11.5-1.4,17.2
			c0.1,1.5-0.6,3.3-2.2,3.6C37.5,65,36.1,64,35.2,63c-4.3-4.6-6.7-10.6-8.5-16.6c-1.8,3.5-3.6,7-5.3,10.5c-1.2,2.4-2.5,4.8-4.4,6.7
			c-0.8,0.8-2.2,1.5-3.2,0.7c-1.6-1.4-2-3.6-2.6-5.5c-2.5-8.7-4-17.8-5.4-26.7c-0.3-1.5,0.3-3.3,1.8-3.9c1.2-0.5,2.7-0.5,3.8,0.4
			c0.7,0.6,0.9,1.6,1,2.5c1,6.9,2.3,13.9,3.9,20.7c2.9-5.4,5.7-10.9,8.6-16.4c0.4-0.8,0.9-1.6,1.7-2.1c1-0.7,2.6-0.6,3.5,0.3
			c0.7,0.8,1,1.8,1.2,2.9c0.9,4.5,2,9,3.7,13.2c0.7-6.4,1.6-13,4-19C39.5,29.5,39.9,28.2,40.8,27.2L40.8,27.2z M56.9,30.7
			c3.1-0.4,6.4,0.6,8.5,3c1.7,1.9,2.7,4.5,3,7c0.5,4.4-0.3,8.9-2.4,12.8c-1.2,2.2-2.7,4.3-4.9,5.6c-3.2,1.9-7.5,1.7-10.6-0.3
			c-2.5-1.7-3.9-4.6-4.4-7.5C45,44.7,47,37.5,51.9,32.9C53.3,31.7,55.1,30.9,56.9,30.7L56.9,30.7z M57.6,37.4
			c-1.5,0.5-2.4,1.9-3.2,3.1c-2,3.2-2.6,7.5-1,11c0.4,0.9,1.1,1.9,2.2,2.1c1.1,0.2,2.2-0.5,3-1.2c1.8-1.6,2.7-3.9,3.2-6.2
			c0.5-2.6,0.2-5.6-1.3-7.8C59.9,37.4,58.6,37,57.6,37.4L57.6,37.4z M81.8,30.7c3-0.4,6.3,0.6,8.4,2.8c1.9,2,2.9,4.8,3.2,7.5
			c0.4,4.2-0.3,8.6-2.3,12.3c-1.2,2.3-2.8,4.5-5,5.8c-3.1,1.8-7.1,1.7-10.2-0.1c-2.1-1.2-3.4-3.4-4.2-5.6c-2.2-6.8-0.3-14.8,4.6-20
			C77.7,31.9,79.7,30.9,81.8,30.7L81.8,30.7z M82.4,37.4c-1.6,0.6-2.6,2.1-3.4,3.5c-1.8,3.2-2.3,7.4-0.6,10.7
			c0.4,0.9,1.2,1.9,2.4,1.9c1.2,0,2.3-0.7,3.1-1.5c1.8-1.8,2.7-4.4,3-6.9c0.3-2.4-0.1-4.9-1.5-6.8C84.7,37.4,83.5,37,82.4,37.4
			L82.4,37.4z"/>
	</g>
	<path class="st2" d="M6.9,84.2c1.4-0.3,2.9-0.3,4.3,0.1c0,1.1,0,2.3,0,3.4c-1.1-0.3-2.4-0.5-3.5,0c-1.3,0.6-2,2.1-2.1,3.6
		c-0.1,1.4,0.4,3,1.7,3.8c1.2,0.8,2.6,0.6,3.9,0.2c0,1.1,0,2.3,0,3.4c-1.7,0.5-3.5,0.4-5.2-0.2c-2-0.7-3.5-2.4-4.1-4.5
		c-0.5-1.5-0.5-3.2-0.1-4.8C2.3,86.8,4.4,84.8,6.9,84.2L6.9,84.2z M17.2,84c1.7-0.2,3.6,0.1,5,1.2c1.3,1,2,2.7,2.2,4.4
		c0.2,1.8,0.2,3.7-0.4,5.4c-0.5,1.5-1.5,2.8-2.9,3.5c-1.4,0.7-3.1,0.7-4.7,0.4c-1.4-0.3-2.7-1.3-3.4-2.5c-1-1.7-1.2-3.8-1.1-5.7
		c0.1-1.7,0.5-3.4,1.6-4.7C14.5,84.8,15.9,84.2,17.2,84L17.2,84z M17.7,87.3c-0.7,0.2-1.2,0.9-1.3,1.6c-0.4,1.4-0.3,2.8-0.2,4.2
		c0.1,0.7,0.2,1.6,0.7,2.2c0.7,0.8,2.1,0.7,2.8-0.1c0.4-0.5,0.5-1.2,0.6-1.9c0.1-1.2,0.2-2.4,0-3.5c-0.1-0.7-0.3-1.4-0.8-2
		C19,87.3,18.3,87.1,17.7,87.3L17.7,87.3z M85.1,84.3c1.5-0.4,3-0.3,4.5,0c0,1.1,0,2.3,0,3.4c-1.1-0.3-2.3-0.5-3.4,0
		c-1.3,0.6-2,1.9-2.1,3.3c-0.2,1.5,0.3,3.2,1.6,4.1c1.2,0.8,2.7,0.6,4,0.3c0,1.1,0,2.3,0,3.4c-1.8,0.5-3.8,0.4-5.5-0.3
		c-1.9-0.8-3.3-2.5-3.9-4.5c-0.4-1.5-0.5-3.1-0.1-4.7C80.7,86.8,82.7,84.9,85.1,84.3L85.1,84.3z M26.7,84.4c1.6,0,3.2,0,4.9,0
		c0.6,2.6,1.1,5.3,1.6,7.9c0.5-2.7,1.1-5.3,1.7-7.9c1.7,0,3.3,0,5,0c0.6,4.8,1.3,9.5,1.9,14.3c-1.3,0-2.5,0-3.8,0
		c-0.4-3.3-0.7-6.5-1-9.8c-0.8,3.3-1.6,6.5-2.4,9.8c-0.9,0-1.7,0-2.6,0c-0.8-3.3-1.7-6.5-2.5-9.8c-0.3,3.3-0.7,6.5-1,9.8
		c-1.2,0-2.4,0-3.7,0C25.5,93.9,26.1,89.1,26.7,84.4L26.7,84.4z M44.2,84.4c1.6,0,3.2,0,4.9,0c0.6,2.6,1.1,5.3,1.6,7.9
		c0.5-2.7,1.1-5.3,1.7-7.9c1.7,0,3.3,0,5,0c0.6,4.8,1.3,9.5,1.9,14.3c-1.3,0-2.5,0-3.8,0c-0.4-3.3-0.7-6.5-1-9.8
		c-0.8,3.3-1.6,6.5-2.4,9.8c-0.9,0-1.7,0-2.6,0c-0.8-3.3-1.7-6.5-2.5-9.8c-0.3,3.3-0.7,6.5-1,9.8c-1.2,0-2.4,0-3.7,0
		C42.9,93.9,43.6,89.1,44.2,84.4L44.2,84.4z M60.4,84.4c2.6-0.1,5.2,0,7.8,0c0,1,0,2,0,3c-1.3,0-2.6,0-4,0c0,0.9,0,1.7,0,2.6
		c1.1,0,2.3,0,3.4,0c0,1,0,2,0,3c-1.1,0-2.3,0-3.4,0c0,0.9,0,1.7,0,2.6c1.3,0,2.6,0,4,0c0,1,0,2,0,3c-2.6,0-5.2,0-7.8,0
		C60.4,93.9,60.4,89.2,60.4,84.4L60.4,84.4z M69.3,84.4c1.6,0,3.3,0,4.9,0c1.5,0,3.2,0.4,4.3,1.5c1,1,1.4,2.5,1,3.9
		c-0.3,1.1-1.1,2-2.2,2.5c1,2.1,2.1,4.3,3.1,6.4c-1.4,0-2.7,0-4.1,0c-1.1-2.2-2.1-4.4-3.2-6.6c0,2.2,0,4.4,0,6.6c-1.3,0-2.6,0-3.9,0
		C69.3,93.9,69.3,89.1,69.3,84.4L69.3,84.4z M73.2,87.1c0,1.1,0,2.3,0,3.4c0.7,0,1.5-0.1,2.1-0.5c0.7-0.5,0.6-1.5,0.2-2.2
		C74.9,87.2,74,87.2,73.2,87.1L73.2,87.1z M90.7,84.4c2.6,0,5.2,0,7.8,0c0,1,0,2,0,3.1c-1.3,0-2.6,0-4,0c0,0.9,0,1.7,0,2.6
		c1.1,0,2.3,0,3.4,0c0,1,0,2,0,3c-1.1,0-2.3,0-3.4,0c0,0.9,0,1.7,0,2.6c1.3,0,2.7,0,4,0c0,1,0,2,0,3c-2.6,0-5.2,0-7.8,0
		C90.7,93.9,90.7,89.1,90.7,84.4L90.7,84.4z"/>
</g>
</svg>
