<?xml version="1.0" encoding="utf-8"?>
<!-- Generator: Adobe Illustrator 21.0.2, SVG Export Plug-In . SVG Version: 6.00 Build 0)  -->
<svg version="1.1" id="svg2" xmlns="http://www.w3.org/2000/svg" xmlns:xlink="http://www.w3.org/1999/xlink" x="0px" y="0px"
	 viewBox="0 0 100 120" style="enable-background:new 0 0 100 120;" xml:space="preserve">
<style type="text/css">
	.st0{clip-path:url(#SVGID_2_);}
	.st1{fill:#00749A;}
	.st2{fill:#464342;}
</style>
<g>
	<g>
		<g>
			<g>
				<g>
					<defs>
						<rect id="SVGID_1_" x="20.5" y="21.4" width="59" height="59"/>
					</defs>
					<clipPath id="SVGID_2_">
						<use xlink:href="#SVGID_1_"  style="overflow:visible;"/>
					</clipPath>
					<g class="st0">
						<path class="st1" d="M107.8,56.1l3.9-11.7c1.1-3.4,0.6-4.3-3-4.3v-1.1h10.7v1.1c-3.6,0-4.5,0.9-5.9,5l-6.5,19.5h-0.7
							l-5.8-17.9l-5.9,17.9h-0.7l-6.3-19.5c-1.4-4.2-2.3-5-5.6-5v-1.1h12.7v1.1c-3.4,0-4.3,0.8-3.1,4.3l3.8,11.7l5.8-17.1h1.1
							L107.8,56.1z"/>
						<g>
							<path class="st1" d="M24.7,50.9c0,10,5.8,18.7,14.3,22.8L26.9,40.6C25.5,43.8,24.7,47.2,24.7,50.9z"/>
							<path class="st1" d="M67.1,49.6c0-3.1-1.1-5.3-2.1-7c-1.3-2.1-2.5-3.8-2.5-5.9c0-2.3,1.8-4.5,4.2-4.5c0.1,0,0.2,0,0.3,0
								c-4.5-4.1-10.5-6.6-17.1-6.6c-8.8,0-16.6,4.5-21.1,11.4c0.6,0,1.2,0,1.6,0c2.6,0,6.7-0.3,6.7-0.3c1.4-0.1,1.5,1.9,0.2,2.1
								c0,0-1.4,0.2-2.9,0.2l9.2,27.4l5.5-16.6l-3.9-10.8c-1.4-0.1-2.7-0.2-2.7-0.2c-1.4-0.1-1.2-2.2,0.2-2.1c0,0,4.2,0.3,6.7,0.3
								c2.6,0,6.7-0.3,6.7-0.3c1.4-0.1,1.5,1.9,0.2,2.1c0,0-1.4,0.2-2.9,0.2l9.1,27.2l2.5-8.4C66.2,54.3,67.1,51.8,67.1,49.6z"/>
							<path class="st1" d="M50.4,53.1l-7.6,22.1c2.3,0.7,4.7,1,7.1,1c2.9,0,5.8-0.5,8.4-1.4c-0.1-0.1-0.1-0.2-0.2-0.3L50.4,53.1z"
								/>
							<path class="st1" d="M72.2,38.8c0.1,0.8,0.2,1.7,0.2,2.6c0,2.6-0.5,5.5-1.9,9.1l-7.7,22.3c7.5-4.4,12.6-12.5,12.6-21.9
								C75.3,46.5,74.2,42.4,72.2,38.8z"/>
							<path class="st1" d="M50,21.4c-16.3,0-29.5,13.2-29.5,29.5c0,16.3,13.2,29.5,29.5,29.5c16.3,0,29.5-13.2,29.5-29.5
								C79.5,34.7,66.3,21.4,50,21.4z M50,79c-15.5,0-28.1-12.6-28.1-28.1c0-15.5,12.6-28.1,28.1-28.1c15.5,0,28.1,12.6,28.1,28.1
								C78.1,66.4,65.5,79,50,79z"/>
						</g>
					</g>
				</g>
			</g>
		</g>
	</g>
	<g>
		<path class="st1" d="M45.2,88.8h-5v0.5c1.6,0,1.8,0.3,1.8,2.3v3.6c0,2-0.3,2.3-1.8,2.3c-1.2-0.2-2-0.8-3.1-2l-1.3-1.4
			c1.7-0.3,2.7-1.4,2.7-2.6c0-1.5-1.3-2.7-3.8-2.7h-4.9v0.5c1.6,0,1.8,0.3,1.8,2.3v3.6c0,2-0.3,2.3-1.8,2.3v0.5h5.6v-0.5
			c-1.6,0-1.8-0.4-1.8-2.3v-1h0.5l3.1,3.9h8.1c4,0,5.7-2.1,5.7-4.7C50.9,90.9,49.2,88.8,45.2,88.8z M33.5,93.3v-3.7h1.1
			c1.3,0,1.8,0.9,1.8,1.9c0,1-0.6,1.8-1.8,1.8H33.5z M45.3,97.2h-0.2c-1,0-1.1-0.3-1.1-1.5v-6.1c0,0,1.2,0,1.3,0
			c2.9,0,3.4,2.1,3.4,3.8C48.7,95.1,48.2,97.2,45.3,97.2z"/>
		<path class="st1" d="M14.2,94.4l1.9-5.7c0.6-1.6,0.3-2.1-1.5-2.1V86h5.2v0.6c-1.8,0-2.2,0.4-2.9,2.5l-3.2,9.5h-0.4l-2.8-8.7
			l-2.9,8.7H7.3L4.2,89c-0.7-2-1.1-2.5-2.7-2.5V86h6.2v0.6c-1.6,0-2.1,0.4-1.5,2.1l1.9,5.7l2.8-8.4h0.5L14.2,94.4z"/>
		<path class="st1" d="M23.7,98.5c-3.1,0-5.6-2.3-5.6-5c0-2.7,2.5-5,5.6-5c3.1,0,5.6,2.3,5.6,5C29.3,96.2,26.7,98.5,23.7,98.5z
			 M23.7,89.3c-2.6,0-3.5,2.3-3.5,4.1c0,1.8,0.9,4.1,3.5,4.1c2.6,0,3.5-2.3,3.5-4.1C27.2,91.6,26.3,89.3,23.7,89.3z"/>
		<path class="st2" d="M57.8,97.5v0.6h-6.4v-0.6c1.9,0,2.2-0.5,2.2-3.3v-4.5c0-2.8-0.3-3.2-2.2-3.2V86h5.8c2.9,0,4.5,1.5,4.5,3.5
			c0,1.9-1.6,3.4-4.5,3.4h-1.6v1.4C55.6,97.1,55.9,97.5,57.8,97.5z M57.2,87h-1.6v4.9h1.6c1.6,0,2.3-1.1,2.3-2.4
			C59.5,88.1,58.7,87,57.2,87z"/>
		<path class="st2" d="M80.8,95.5L80.7,96c-0.3,0.9-0.6,1.3-2.5,1.3h-0.4c-1.5,0-1.7-0.3-1.7-2.3v-1.3c2.2,0,2.3,0.2,2.3,1.6h0.5
			v-4.2h-0.5c0,1.5-0.2,1.6-2.3,1.6v-3.1h1.5c2,0,2.3,0.3,2.5,1.3l0.1,0.5h0.4l-0.2-2.6h-8.2v0.5c1.6,0,1.8,0.3,1.8,2.3v3.6
			c0,1.8-0.2,2.3-1.4,2.3c-1.2-0.2-2-0.8-3.1-2l-1.3-1.4c1.7-0.3,2.7-1.4,2.7-2.6c0-1.5-1.3-2.7-3.8-2.7h-4.9v0.5
			c1.6,0,1.8,0.3,1.8,2.3v3.6c0,2-0.3,2.3-1.8,2.3v0.5h5.6v-0.5c-1.6,0-1.8-0.4-1.8-2.3v-1h0.5l3.1,3.9h11.5l0.2-2.6H80.8z M66,93.3
			v-3.7h1.1c1.3,0,1.8,0.9,1.8,1.9c0,1-0.6,1.8-1.8,1.8H66z"/>
		<path class="st2" d="M86.5,98.5c-1.1,0-2.1-0.6-2.5-0.9c-0.1,0.1-0.4,0.6-0.4,0.9H83v-3.9h0.6c0.2,1.8,1.5,2.9,3.2,2.9
			c0.9,0,1.6-0.5,1.6-1.3c0-0.7-0.6-1.3-1.8-1.8L85,93.6c-1.1-0.5-2-1.5-2-2.7c0-1.3,1.3-2.5,3-2.5c0.9,0,1.7,0.3,2.2,0.7
			c0.1-0.1,0.3-0.4,0.4-0.8h0.5v3.3h-0.6c-0.2-1.3-0.9-2.4-2.4-2.4c-0.8,0-1.5,0.4-1.5,1.1c0,0.7,0.6,1.1,1.9,1.7L88,93
			c1.3,0.6,1.9,1.7,1.9,2.5C89.9,97.2,88.4,98.5,86.5,98.5z"/>
		<path class="st2" d="M95.1,98.5c-1.1,0-2.1-0.6-2.5-0.9c-0.1,0.1-0.4,0.6-0.4,0.9h-0.5v-3.9h0.6c0.2,1.8,1.5,2.9,3.2,2.9
			c0.9,0,1.6-0.5,1.6-1.3c0-0.7-0.6-1.3-1.8-1.8l-1.6-0.8c-1.1-0.5-2-1.5-2-2.7c0-1.3,1.3-2.5,3-2.5c0.9,0,1.7,0.3,2.2,0.7
			c0.1-0.1,0.3-0.4,0.4-0.8h0.5v3.3h-0.6c-0.2-1.3-0.9-2.4-2.4-2.4c-0.8,0-1.5,0.4-1.5,1.1c0,0.7,0.6,1.1,1.9,1.7l1.5,0.8
			c1.3,0.6,1.9,1.7,1.9,2.5C98.5,97.2,97,98.5,95.1,98.5z"/>
	</g>
</g>
</svg>
