<?xml version="1.0" encoding="utf-8"?>
<!-- Generator: Adobe Illustrator 22.0.1, SVG Export Plug-In . SVG Version: 6.00 Build 0)  -->
<svg version="1.1" id="Layer_1" xmlns="http://www.w3.org/2000/svg" xmlns:xlink="http://www.w3.org/1999/xlink" x="0px" y="0px"
	 viewBox="0 0 334.7 318.7" style="enable-background:new 0 0 334.7 318.7;" xml:space="preserve">
<style type="text/css">
	.st0{fill:#51A3CB;}
	.st1{fill:#EF0A80;}
	.st2{fill:#F5FA17;}
	.st3{fill:#070606;}
	.st4{fill:#51A3CB;stroke:#070606;stroke-width:3;stroke-linecap:round;stroke-linejoin:round;stroke-miterlimit:10;}
	.st5{fill:none;stroke:#070606;stroke-width:3;stroke-linecap:round;stroke-linejoin:round;stroke-miterlimit:10;}
	.st6{fill:#EF0A80;stroke:#070606;stroke-width:3;stroke-linecap:round;stroke-linejoin:round;stroke-miterlimit:10;}
	.st7{fill:#F5FA17;stroke:#070606;stroke-width:3;stroke-linecap:round;stroke-linejoin:round;stroke-miterlimit:10;}
	.st8{enable-background:new    ;}
	.st9{clip-path:url(#SVGID_2_);enable-background:new    ;}
	.st10{fill:#8B064A;}
	.st11{fill:#860548;}
	.st12{fill:#810545;}
	.st13{fill:#7C0543;}
	.st14{clip-path:url(#SVGID_4_);enable-background:new    ;}
	.st15{fill:#8E064C;}
	.st16{clip-path:url(#SVGID_6_);enable-background:new    ;}
	.st17{fill:#990652;}
	.st18{fill:#94064F;}
	.st19{fill:#90064D;}
	.st20{clip-path:url(#SVGID_8_);enable-background:new    ;}
	.st21{fill:#780540;}
	.st22{clip-path:url(#SVGID_10_);enable-background:new    ;}
	.st23{fill:#D20870;}
	.st24{clip-path:url(#SVGID_12_);enable-background:new    ;}
	.st25{fill:#01A0C6;}
	.st26{fill:#EF047F;}
	.st27{fill:#FFFF00;}
	.st28{fill:none;stroke:#01A0C6;stroke-width:4;stroke-miterlimit:10;}
	.st29{fill:none;stroke:#EF047F;stroke-width:4;stroke-miterlimit:10;}
	.st30{fill:none;stroke:#FFFF00;stroke-width:4;stroke-miterlimit:10;}
	.st31{fill:none;stroke:#000000;stroke-width:2;stroke-miterlimit:10;}
	.st32{stroke:#000000;stroke-width:2;stroke-miterlimit:10;}
	.st33{fill:none;stroke:#01A0C6;stroke-width:2;stroke-miterlimit:10;}
	.st34{fill:none;stroke:#EF047F;stroke-width:2;stroke-miterlimit:10;}
	.st35{fill:none;stroke:#FFFF00;stroke-width:2;stroke-miterlimit:10;}
</style>
<g>
	<path class="st25" d="M66.9,14.7c-10.2-5.3-22.4-4.9-32.2,1.1c-9.8,6-15.8,16.6-15.8,28.1v222.6c0,8.8,3.6,17.2,9.7,23.2
		c-3.7-0.7-7.3-2.1-10.6-4.1c-9.8-6-15.8-16.6-15.8-28.1V34.9c0-11.5,6-22.1,15.8-28.1s22-6.4,32.2-1.1L66.9,14.7z"/>
	<path class="st26" d="M52.6,24.7c8.6-5.2,19-6.2,28.3-2.8l-14-7.3c-10.2-5.3-22.4-4.9-32.2,1.1c-9.8,6-15.8,16.6-15.8,28.1v222.6
		c0,8.8,3.6,17.2,9.7,23.2c1.8,1.8,3.9,3.5,6.2,4.8c3.7,2.2,7.8,3.7,12,4.4c1.7,0.3,3.3,0.4,5,0.4c1.7,0,3.5-0.1,5.2-0.4
		c-2.2-4.2-3.4-9-3.6-13.9l-3.1,1.6c-3.2,1.7-6.6,2.7-10,3.3c-2.2-4.4-3.4-9.4-3.4-14.5V52.8C36.8,41.3,42.8,30.6,52.6,24.7z"/>
	<path class="st27" d="M96.9,30.3c-0.1,0-0.2-0.1-0.2-0.1c-9.1-3.2-19.3-2.1-27.7,3c-9.8,6-15.8,16.6-15.8,28.1v222.6
		c0,0.4,0,0.8,0,1.1c0.2,4.9,1.4,9.7,3.6,13.9c1.7,3.2,3.9,6.2,6.6,8.8c-3.8-0.7-7.5-2.1-10.9-4.2c-2.2-1.3-4.2-2.8-5.9-4.6
		c-2.7-2.6-4.9-5.6-6.5-9c-2.2-4.4-3.4-9.4-3.4-14.5V52.8c0-11.5,6-22.1,15.8-28c8.6-5.2,19-6.2,28.3-2.8c0.7,0.2,1.3,0.5,2,0.8
		c0,0,0.1,0,0.2,0.1c0.6,0.3,1.2,0.5,1.8,0.9l14.4,7.6C98.9,31.1,97.1,30.4,96.9,30.3z"/>
	<path class="st26" d="M316.1,163.6c0,12.2-6.8,23.5-17.6,29.1L84.9,304.4c-4.8,2.5-10,3.7-15.2,3.7c-2.1,0-4.1-0.2-6.1-0.6
		c-2.7-2.6-4.9-5.5-6.6-8.8c3.5-0.5,6.8-1.6,10.1-3.3l213.6-111.6c10.9-5.7,17.6-16.9,17.6-29.1c0-12.3-6.8-23.5-17.7-29.1l17.9,8.9
		C309.2,140.2,316.1,151.4,316.1,163.6z"/>
	<path d="M281.4,145.8c0,12.3-6.8,23.5-17.6,29.2l-210.5,110c0-0.4,0-0.8,0-1.1V61.2c0-11.5,6-22.1,15.8-28.1
		c8.4-5.1,18.5-6.1,27.7-3c0,0,0.1,0,0.2,0.1c0.2,0.1,0.4,0.2,0.7,0.4c0.9,0.5,2.6,1.3,4.8,2.5c12.5,6.4,43.8,22.7,75.6,39.1
		c2.1,1.1,4.2,2.2,6.3,3.3c3.9,2,7.8,4,11.6,6c10.3,5.3,20.2,10.5,29.1,15.1c2.2,1.2,4.4,2.3,6.5,3.4c1.6,0.9,3.2,1.7,4.7,2.5
		c4,2.1,7.6,4,10.9,5.6c1,0.5,2,1,2.9,1.5c4.2,2.2,7.6,3.9,9.9,5.1c0.7,0.3,1.2,0.6,1.7,0.9c0.3,0.1,0.5,0.3,0.7,0.3
		c0.2,0.1,0.4,0.2,0.6,0.3c0.4,0.2,0.7,0.3,0.7,0.3c1,0.5,2,1.1,2.9,1.8C275.8,124.4,281.4,134.6,281.4,145.8z"/>
	<path class="st27" d="M332.6,172.1c0,12.2-6.8,23.5-17.6,29.1L101.3,312.9c-4.8,2.5-10,3.8-15.2,3.8c-5.9,0-11.8-1.6-17-4.8
		c-2.1-1.2-3.9-2.7-5.6-4.3c2,0.4,4.1,0.6,6.1,0.6c5.2,0,10.4-1.2,15.2-3.7l213.6-111.6c10.8-5.7,17.6-16.9,17.6-29.1
		c0-12.2-6.8-23.5-17.7-29.1l16.5,8.5C325.7,148.7,332.6,159.9,332.6,172.1z"/>
	<path class="st25" d="M298.2,154.7c0,12.2-6.8,23.5-17.6,29.1L67,295.5c-3.2,1.7-6.6,2.8-10.1,3.3c-2.2-4.2-3.4-9-3.6-13.9
		l210.5-110c10.8-5.7,17.6-16.9,17.6-29.2c0-11.1-8-22.8-17.1-28.8l16.2,8.6C291.4,131.2,298.2,142.4,298.2,154.7z"/>
</g>
</svg>
