<?xml version="1.0" encoding="utf-8"?>
<!-- Generator: Adobe Illustrator 21.1.0, SVG Export Plug-In . SVG Version: 6.00 Build 0)  -->
<svg version="1.1" id="Слой_для_рисования"
	 xmlns="http://www.w3.org/2000/svg" xmlns:xlink="http://www.w3.org/1999/xlink" x="0px" y="0px" viewBox="0 0 176.7 384"
	 style="enable-background:new 0 0 176.7 384;" xml:space="preserve">
<style type="text/css">
	.st0{fill:#616160;}
	.st1{clip-path:url(#SVGID_2_);}
	.st2{fill:#13110C;}
	.st3{clip-path:url(#SVGID_4_);}
	.st4{fill:none;stroke:#DEB7D8;stroke-miterlimit:10;}
	.st5{fill:#E6007E;stroke:#E6007E;stroke-miterlimit:10;}
	.st6{fill:none;stroke:#E6007E;stroke-miterlimit:10;}
	.st7{fill:none;stroke:#FFED00;stroke-miterlimit:10;}
	.st8{fill:none;stroke:#FFF7BB;stroke-miterlimit:10;}
	.st9{fill:none;stroke:#F8C9DF;stroke-miterlimit:10;}
	.st10{fill:none;stroke:#009FE3;stroke-miterlimit:10;}
	.st11{fill:none;stroke:#BEDDF5;stroke-miterlimit:10;}
	.st12{fill:#E6007E;}
	.st13{fill:#F8C9DF;}
	.st14{fill:#009FE3;}
	.st15{fill:#FFED00;}
	.st16{fill:#FFF7BB;}
	.st17{fill:#B3B9DE;}
	.st18{fill:#FFFFFF;}
	.st19{opacity:0.12;fill:#FFED00;}
	.st20{opacity:0.12;fill:#FFF7BB;}
	.st21{opacity:0.12;fill:#E6007E;}
	.st22{opacity:0.12;}
	.st23{opacity:0.12;fill:#B3B9DE;}
	.st24{fill:none;}
	.st25{opacity:0.12;fill:#F8C9DF;}
	.st26{fill:none;stroke:#000000;stroke-miterlimit:10;}
	.st27{fill:none;stroke:#DEB7D8;stroke-width:2.0085;stroke-miterlimit:10;}
	.st28{fill:#E6007E;stroke:#E6007E;stroke-width:2.0085;stroke-miterlimit:10;}
	.st29{fill:none;stroke:#E6007E;stroke-width:2.0085;stroke-miterlimit:10;}
	.st30{fill:none;stroke:#FFED00;stroke-width:2.0085;stroke-miterlimit:10;}
	.st31{fill:none;stroke:#FFF7BB;stroke-width:2.0085;stroke-miterlimit:10;}
	.st32{fill:none;stroke:#F8C9DF;stroke-width:2.0085;stroke-miterlimit:10;}
	.st33{fill:none;stroke:#009FE3;stroke-width:2.0085;stroke-miterlimit:10;}
	.st34{fill:none;stroke:#BEDDF5;stroke-width:2.0085;stroke-miterlimit:10;}
	.st35{opacity:0.12;fill:#686867;}
	.st36{opacity:0.8;fill:#C8C8C8;}
	.st37{fill:#BEBEBE;}
	.st38{opacity:0.8;fill:#C3DBE5;}
	.st39{fill:none;stroke:#DEB7D8;stroke-width:1.5586;stroke-miterlimit:10;}
	.st40{fill:#E6007E;stroke:#E6007E;stroke-width:1.5586;stroke-miterlimit:10;}
	.st41{fill:none;stroke:#E6007E;stroke-width:1.5586;stroke-miterlimit:10;}
	.st42{fill:none;stroke:#FFED00;stroke-width:1.5586;stroke-miterlimit:10;}
	.st43{fill:none;stroke:#FFF7BB;stroke-width:1.5586;stroke-miterlimit:10;}
	.st44{fill:none;stroke:#F8C9DF;stroke-width:1.5586;stroke-miterlimit:10;}
	.st45{fill:none;stroke:#009FE3;stroke-width:1.5586;stroke-miterlimit:10;}
	.st46{fill:none;stroke:#BEDDF5;stroke-width:1.5586;stroke-miterlimit:10;}
	.st47{fill:#FEC900;}
	.st48{fill:#E83A80;}
	.st49{fill:#231F20;}
	.st50{fill:#231F20;stroke:#FFFFFF;stroke-width:0.6149;stroke-miterlimit:10;}
	.st51{fill:url(#SVGID_5_);}
	.st52{opacity:0.92;}
	.st53{fill:#FDC804;}
	.st54{fill:#E83B81;}
	.st55{fill:#1E9CD8;}
	.st56{fill:#FFFFFF;stroke:#000000;stroke-width:3.0257;stroke-miterlimit:10;}
	.st57{fill:none;stroke:#757474;stroke-width:1.487;stroke-miterlimit:10;}
	.st58{fill:none;stroke:#BDBCBC;stroke-width:1.4641;stroke-miterlimit:10;}
	.st59{opacity:0.4;}
	.st60{fill:#FFFFFF;stroke:#000000;stroke-width:1.7122;stroke-miterlimit:10;}
	.st61{fill:none;stroke:#757474;stroke-width:0.8414;stroke-miterlimit:10;}
	.st62{fill:none;stroke:#BDBCBC;stroke-width:0.8285;stroke-miterlimit:10;}
	.st63{fill:#D8D8D8;}
	.st64{fill:#C0C0C0;}
	.st65{fill:#E5E5E5;}
	.st66{fill:#A8A8A7;}
	.st67{fill:#F1881F;}
	.st68{fill:#E84626;}
	.st69{fill:#FAC115;}
	.st70{fill:#A52622;}
	.st71{fill:#454444;}
	.st72{fill:#504F4E;}
	.st73{fill:none;stroke:#E84626;stroke-miterlimit:10;}
	.st74{fill:#FBB927;}
	.st75{fill:#231F20;stroke:#FFFFFF;stroke-width:0.8263;stroke-miterlimit:10;}
	.st76{fill:#E2E1E1;}
	.st77{fill:#A9A9A9;}
	.st78{fill:#C8C8C8;}
	.st79{fill:#D2D2D2;}
	.st80{fill:#B9B8B8;}
	.st81{fill:#A0A09F;}
	.st82{fill:#C4C4C4;}
	.st83{fill:#A3A2A2;}
	.st84{fill:#EBEBEB;}
	.st85{fill:#FDC907;}
	.st86{fill:#E83C81;}
	.st87{fill:#1F9CD8;}
	.st88{fill:none;stroke:#000000;stroke-width:7;}
	.st89{fill:none;stroke:#000000;stroke-width:4;stroke-miterlimit:10;}
</style>
<g>
	<g>
		<path d="M86.4,47.6c0,11.3-4,20.9-12,28.9s-17.6,12-29,12H9.8c-1.4,0-2.6-0.5-3.7-1.6c-1-1-1.6-2.3-1.6-3.7c0-1.4,0.5-2.6,1.4-3.7
			l25.8-25.8c-0.9-1.9-1.2-4-1.2-6.1c0-4.2,1.6-7.8,4.5-10.8c3-3,6.6-4.5,10.8-4.5S53.8,34,56.8,37c3,3,4.5,6.6,4.5,10.8
			s-1.6,7.8-4.5,11c-3,3-6.6,4.5-10.8,4.5c-2.4,0-4.9-0.5-7.2-1.7L22,78.3h23.6c8.4,0,15.7-3,21.6-9.1c5.9-6.1,9.1-13.3,9.1-21.8
			s-3-15.7-9.1-21.8S54,17,45.6,17H14.9v30.9c0,1.4-0.5,2.6-1.6,3.7s-2.3,1.4-3.5,1.4c-1.4,0-2.6-0.5-3.7-1.4c-1-1-1.6-2.3-1.6-3.7
			V11.7c0-1.4,0.5-2.6,1.6-3.5c1-1,2.3-1.6,3.7-1.6h35.8c11.3,0,20.9,4,29,12S86.4,36.3,86.4,47.6z"/>
		<path d="M170.9,44c1,1,1.6,2.3,1.6,3.7c0,11.3-4,20.9-12,28.9s-17.6,12-29,12H95.8c-1.4,0-2.6-0.5-3.7-1.6c-1-1-1.6-2.3-1.6-3.7
			c0-1.4,0.5-2.6,1.6-3.5c1-1,2.3-1.6,3.7-1.6h35.8c7.5,0,14.1-2.4,19.9-7.3c5.8-4.9,9.2-11,10.5-18.3h-15.7c-1,3.1-3,5.6-5.6,7.5
			c-2.6,1.9-5.6,2.8-8.9,2.8s-6.3-0.9-8.9-2.8c-2.6-1.9-4.5-4.4-5.6-7.5H95.8c-1.4,0-2.6-0.5-3.7-1.4c-1-1-1.6-2.3-1.6-3.7
			c0-11.3,4-20.9,12-28.9s17.6-12,29-12c1.4,0,2.6,0.5,3.7,1.6c1,1,1.4,2.3,1.4,3.7s-0.5,2.6-1.4,3.5c-1,1-2.3,1.6-3.7,1.6
			c-8.4,0-15.7,3-21.6,9.1c-4.7,4.7-7.5,10.3-8.5,16.7h15.7c1-3.1,3-5.6,5.6-7.5s5.6-2.8,8.9-2.8s6.3,0.9,8.9,2.8s4.5,4.4,5.6,7.3
			h21.3C168.8,42.6,170,42.9,170.9,44z"/>
	</g>
</g>
<g>
	<path d="M18.5,101.2c0-0.3,0.1-0.5,0.3-0.7s0.4-0.3,0.7-0.3s0.5,0.1,0.7,0.3c0.2,0.2,0.3,0.4,0.3,0.7v11.7c0,1.9-0.7,3.5-2,4.8
		c-1.3,1.3-2.9,2-4.8,2s-3.5-0.7-4.8-2c-1.3-1.3-2-2.9-2-4.8c0-1.9,0.7-3.5,2-4.8c1.3-1.3,2.9-2,4.8-2s3.5,0.7,4.8,2c0,0,0,0,0,0
		V101.2z M18.5,112.9c0-1.4-0.5-2.5-1.4-3.5c-1-1-2.1-1.4-3.5-1.4s-2.5,0.5-3.5,1.4c-1,1-1.4,2.1-1.4,3.5c0,1.4,0.5,2.5,1.4,3.5
		c1,1,2.1,1.4,3.5,1.4s2.5-0.5,3.5-1.4C18,115.4,18.5,114.3,18.5,112.9z"/>
	<path d="M33,116.5c0.3,0,0.5,0.1,0.7,0.3s0.3,0.4,0.3,0.7s-0.1,0.5-0.3,0.7c-1.3,1.1-2.7,1.6-4.5,1.6c-1.9,0-3.5-0.7-4.8-2
		c-1.3-1.3-2-2.9-2-4.8c0-1.9,0.7-3.5,2-4.8c1.3-1.3,2.9-2,4.8-2s3.5,0.7,4.8,2c1.3,1.3,2,2.9,2,4.8c0,0.3-0.1,0.5-0.3,0.7
		c-0.2,0.2-0.4,0.3-0.7,0.3H24.4c0.2,0.9,0.6,1.8,1.3,2.5c1,1,2.1,1.4,3.5,1.4c1.2,0,2.3-0.4,3.2-1.2
		C32.6,116.5,32.8,116.5,33,116.5z M34,112c-0.2-0.9-0.6-1.8-1.3-2.5c-1-1-2.1-1.4-3.5-1.4s-2.5,0.5-3.5,1.4
		c-0.7,0.7-1.2,1.5-1.3,2.5H34z"/>
	<path d="M40.5,112.9c-0.7-0.3-1.3-0.6-1.6-0.9c-0.6-0.6-0.9-1.3-0.9-2.1s0.3-1.5,0.9-2.1c1.2-1.2,2.7-1.8,4.6-1.8
		c2,0,3.8,0.8,5.3,2.5c0.1,0.2,0.2,0.3,0.2,0.6c0,0.3-0.1,0.5-0.3,0.7c-0.2,0.2-0.4,0.3-0.7,0.3s-0.5-0.1-0.6-0.3s-0.3-0.3-0.4-0.4
		c-1-1-2.1-1.4-3.5-1.4s-2.4,0.4-3.2,1.3c-0.2,0.2-0.3,0.5-0.3,0.8c0,0.4,0.2,0.6,0.6,0.8l6,2c0.7,0.3,1.3,0.6,1.6,0.9
		c0.6,0.6,0.9,1.3,0.9,2.1s-0.3,1.5-0.9,2.1c-1.2,1.2-2.7,1.8-4.6,1.8c-2.1,0-3.8-0.8-5.3-2.5c-0.1-0.2-0.2-0.4-0.2-0.6
		c0-0.3,0.1-0.5,0.3-0.7c0.2-0.2,0.4-0.3,0.7-0.3c0.3,0,0.5,0.1,0.6,0.3s0.3,0.3,0.4,0.4c1,1,2.1,1.4,3.5,1.4s2.4-0.4,3.2-1.3
		c0.2-0.2,0.3-0.5,0.3-0.8c0-0.4-0.2-0.6-0.6-0.8L40.5,112.9z"/>
	<path d="M54.2,103.2c0,0.3-0.1,0.6-0.4,0.9c-0.2,0.2-0.5,0.4-0.9,0.4c-0.3,0-0.6-0.1-0.9-0.4c-0.2-0.2-0.4-0.5-0.4-0.9
		c0-0.3,0.1-0.6,0.4-0.9s0.5-0.4,0.9-0.4c0.3,0,0.6,0.1,0.9,0.4S54.2,102.8,54.2,103.2z M52,107.1c0-0.3,0.1-0.5,0.3-0.7
		s0.4-0.3,0.7-0.3c0.3,0,0.5,0.1,0.7,0.3s0.3,0.4,0.3,0.7v11.7c0,0.3-0.1,0.5-0.3,0.7c-0.2,0.2-0.4,0.3-0.7,0.3
		c-0.3,0-0.5-0.1-0.7-0.3c-0.2-0.2-0.3-0.4-0.3-0.7V107.1z"/>
	<path d="M68.6,117.7C68.6,117.7,68.5,117.8,68.6,117.7c-1.4,1.4-3,2.1-4.9,2.1c-1.9,0-3.5-0.7-4.8-2c-1.3-1.3-2-2.9-2-4.8
		c0-1.9,0.7-3.5,2-4.8c1.3-1.3,2.9-2,4.8-2c1.9,0,3.5,0.7,4.8,2c1.3,1.3,2,2.9,2,4.8v6.8c0,1.4-0.5,2.7-1.5,3.7
		c-1.4,1.4-3.2,2.1-5.2,2.1c-2,0-3.8-0.7-5.2-2.1c-0.5-0.5-1-1.1-1.3-1.7c-0.1-0.1-0.1-0.3-0.1-0.5c0-0.3,0.1-0.5,0.3-0.7
		s0.4-0.3,0.7-0.3s0.5,0.1,0.7,0.3c0.1,0.1,0.2,0.2,0.2,0.3c0.2,0.4,0.6,0.9,0.9,1.2c1.1,1,2.3,1.6,3.8,1.6c1.5,0,2.7-0.5,3.8-1.6
		c0.7-0.8,1-1.6,1-2.3V117.7z M63.7,108.1c-1.4,0-2.5,0.5-3.5,1.4c-1,1-1.4,2.1-1.4,3.5c0,1.4,0.5,2.5,1.4,3.5c1,1,2.1,1.4,3.5,1.4
		c1.4,0,2.5-0.5,3.5-1.4c1-1,1.4-2.1,1.4-3.5c0-1.4-0.5-2.5-1.4-3.5C66.2,108.5,65,108.1,63.7,108.1z"/>
	<path d="M72.5,107.1c0-0.3,0.1-0.5,0.3-0.7s0.4-0.3,0.7-0.3s0.5,0.1,0.7,0.3c0.2,0.2,0.3,0.4,0.3,0.7v0.8c1.2-1.2,2.7-1.8,4.4-1.8
		c1.8,0,3.2,0.6,4.5,1.9c1.2,1.2,1.9,2.7,1.9,4.5v6.3c0,0.3-0.1,0.5-0.3,0.7c-0.2,0.2-0.4,0.3-0.7,0.3c-0.3,0-0.5-0.1-0.7-0.3
		c-0.2-0.2-0.3-0.4-0.3-0.7v-6.3c0-1.2-0.4-2.2-1.3-3.1c-0.9-0.9-1.9-1.3-3.1-1.3c-1.2,0-2.3,0.4-3.1,1.3c-0.9,0.9-1.3,1.9-1.3,3.1
		v6.3c0,0.3-0.1,0.5-0.3,0.7c-0.2,0.2-0.4,0.3-0.7,0.3s-0.5-0.1-0.7-0.3c-0.2-0.2-0.3-0.4-0.3-0.7V107.1z"/>
	<path d="M96.4,112.9c-0.7-0.3-1.3-0.6-1.6-0.9c-0.6-0.6-0.9-1.3-0.9-2.1s0.3-1.5,0.9-2.1c1.2-1.2,2.7-1.8,4.6-1.8
		c2,0,3.8,0.8,5.3,2.5c0.1,0.2,0.2,0.3,0.2,0.6c0,0.3-0.1,0.5-0.3,0.7c-0.2,0.2-0.4,0.3-0.7,0.3s-0.5-0.1-0.6-0.3s-0.3-0.3-0.4-0.4
		c-1-1-2.1-1.4-3.5-1.4s-2.4,0.4-3.2,1.3c-0.2,0.2-0.3,0.5-0.3,0.8c0,0.4,0.2,0.6,0.6,0.8l6,2c0.7,0.3,1.3,0.6,1.6,0.9
		c0.6,0.6,0.9,1.3,0.9,2.1s-0.3,1.5-0.9,2.1c-1.2,1.2-2.7,1.8-4.6,1.8c-2.1,0-3.8-0.8-5.3-2.5c-0.1-0.2-0.2-0.4-0.2-0.6
		c0-0.3,0.1-0.5,0.3-0.7c0.2-0.2,0.4-0.3,0.7-0.3c0.3,0,0.5,0.1,0.6,0.3s0.3,0.3,0.4,0.4c1,1,2.1,1.4,3.5,1.4s2.4-0.4,3.2-1.3
		c0.2-0.2,0.3-0.5,0.3-0.8c0-0.4-0.2-0.6-0.6-0.8L96.4,112.9z"/>
	<path d="M113.8,117.8c0.3,0,0.5,0.1,0.7,0.3c0.2,0.2,0.3,0.4,0.3,0.7s-0.1,0.5-0.3,0.7c-0.2,0.2-0.4,0.3-0.7,0.3
		c-3.3,0-4.9-1.6-4.9-4.9v-6.8h-1c-0.3,0-0.5-0.1-0.7-0.3s-0.3-0.4-0.3-0.7s0.1-0.5,0.3-0.7s0.4-0.3,0.7-0.3h1v-4.9
		c0-0.3,0.1-0.5,0.3-0.7s0.4-0.3,0.7-0.3s0.5,0.1,0.7,0.3c0.2,0.2,0.3,0.4,0.3,0.7v4.9h2c0.3,0,0.5,0.1,0.7,0.3
		c0.2,0.2,0.3,0.4,0.3,0.7s-0.1,0.5-0.3,0.7c-0.2,0.2-0.4,0.3-0.7,0.3h-2v6.8C110.8,116.8,111.8,117.8,113.8,117.8z"/>
	<path d="M129.4,118.8c0,0.3-0.1,0.5-0.3,0.7c-0.2,0.2-0.4,0.3-0.7,0.3c-0.3,0-0.5-0.1-0.7-0.3c-0.2-0.2-0.3-0.4-0.3-0.7V118
		c-1.2,1.2-2.7,1.8-4.4,1.8c-1.8,0-3.2-0.6-4.5-1.9c-1.2-1.2-1.9-2.7-1.9-4.5v-6.3c0-0.3,0.1-0.5,0.3-0.7s0.4-0.3,0.7-0.3
		s0.5,0.1,0.7,0.3c0.2,0.2,0.3,0.4,0.3,0.7v6.3c0,1.2,0.4,2.2,1.3,3.1c0.9,0.9,1.9,1.3,3.1,1.3c1.2,0,2.2-0.4,3.1-1.3
		c0.9-0.9,1.3-1.9,1.3-3.1v-6.3c0-0.3,0.1-0.5,0.3-0.7s0.4-0.3,0.7-0.3c0.3,0,0.5,0.1,0.7,0.3s0.3,0.4,0.3,0.7V118.8z"/>
	<path d="M143.1,101.2c0-0.3,0.1-0.5,0.3-0.7s0.4-0.3,0.7-0.3s0.5,0.1,0.7,0.3c0.2,0.2,0.3,0.4,0.3,0.7v11.7c0,1.9-0.7,3.5-2,4.8
		c-1.3,1.3-2.9,2-4.8,2s-3.5-0.7-4.8-2c-1.3-1.3-2-2.9-2-4.8c0-1.9,0.7-3.5,2-4.8c1.3-1.3,2.9-2,4.8-2s3.5,0.7,4.8,2c0,0,0,0,0,0
		V101.2z M143.1,112.9c0-1.4-0.5-2.5-1.4-3.5c-1-1-2.1-1.4-3.5-1.4s-2.5,0.5-3.5,1.4c-1,1-1.4,2.1-1.4,3.5c0,1.4,0.5,2.5,1.4,3.5
		c1,1,2.1,1.4,3.5,1.4s2.5-0.5,3.5-1.4C142.6,115.4,143.1,114.3,143.1,112.9z"/>
	<path d="M150.2,103.2c0,0.3-0.1,0.6-0.4,0.9c-0.2,0.2-0.5,0.4-0.9,0.4c-0.3,0-0.6-0.1-0.9-0.4c-0.2-0.2-0.4-0.5-0.4-0.9
		c0-0.3,0.1-0.6,0.4-0.9s0.5-0.4,0.9-0.4c0.3,0,0.6,0.1,0.9,0.4S150.2,102.8,150.2,103.2z M148,107.1c0-0.3,0.1-0.5,0.3-0.7
		s0.4-0.3,0.7-0.3c0.3,0,0.5,0.1,0.7,0.3s0.3,0.4,0.3,0.7v11.7c0,0.3-0.1,0.5-0.3,0.7c-0.2,0.2-0.4,0.3-0.7,0.3
		c-0.3,0-0.5-0.1-0.7-0.3c-0.2-0.2-0.3-0.4-0.3-0.7V107.1z"/>
	<path d="M166.5,112.9c0,1.9-0.7,3.5-2,4.8c-1.3,1.3-2.9,2-4.8,2s-3.5-0.7-4.8-2c-1.3-1.3-2-2.9-2-4.8c0-1.9,0.7-3.5,2-4.8
		c1.3-1.3,2.9-2,4.8-2s3.5,0.7,4.8,2C165.8,109.4,166.5,111.1,166.5,112.9z M159.7,108.1c-1.4,0-2.5,0.5-3.5,1.4
		c-1,1-1.4,2.1-1.4,3.5c0,1.4,0.5,2.5,1.4,3.5c1,1,2.1,1.4,3.5,1.4s2.5-0.5,3.5-1.4c1-1,1.4-2.1,1.4-3.5c0-1.4-0.5-2.5-1.4-3.5
		C162.2,108.5,161,108.1,159.7,108.1z"/>
</g>
<g>
	<g>
		<polygon class="st85" points="45.5,155.4 86.2,209.2 4.9,209.2 		"/>
		<g>
			<g>
				<path class="st2" d="M33.7,180.1c2.9-2.9,6.4-4.5,10.6-4.5s7.7,1.6,10.6,4.5c0.3,0.3,0.6,1,0.6,1.3c0,0.6-0.3,1-0.6,1.3
					l-5.4,5.4c0.3,0.6,0.6,1.6,0.6,2.6c0,1.6-0.6,2.9-1.6,3.8c-1,1-2.2,1.6-3.8,1.6c-1.6,0-2.9-0.6-3.8-1.6c-1-1-1.6-2.2-1.6-3.8
					s0.6-2.9,1.6-3.8c1-1,2.2-1.6,3.8-1.6c1,0,1.6,0.3,2.2,0.6l4.2-4.2c-1.9-1.3-4.2-1.9-6.4-1.9c-3.2,0-5.8,1-7.7,3.2
					c-2.2,2.2-3.2,4.8-3.2,8c0,3.2,1,5.8,3.2,8c2.2,2.2,4.8,3.2,7.7,3.2c3.2,0,5.8-1,7.7-3.2c2.2-2.2,3.2-4.8,3.2-8v-13.1
					c0-0.6,0.3-1,0.6-1.3c0.3-0.3,0.6-0.6,1.3-0.6c0.6,0,1,0.3,1.3,0.6c0.3,0.3,0.6,1,0.6,1.3v13.1c0,4.2-1.6,7.7-4.5,10.6
					c-2.9,2.9-6.4,4.5-10.6,4.5s-7.7-1.6-10.6-4.5c-2.9-2.9-4.5-6.4-4.5-10.6C29.2,186.5,30.8,182.9,33.7,180.1z"/>
			</g>
		</g>
	</g>
	<g>
		<polygon class="st86" points="45.3,239.7 86,293.5 4.7,293.5 		"/>
		<g>
			<g>
				<path class="st2" d="M30.3,276.2v-11.5c0-0.3,0.3-1,0.6-1.3c0.3-0.3,1-0.6,1.3-0.6c0.6,0,1,0.3,1.3,0.6c0.3,0.3,0.6,0.6,0.6,1.3
					v11.8c0,2.9,1.3,5.1,3.5,7c1.6,1.6,3.8,2.6,6.1,2.9v-5.1c-1-0.3-1.9-1-2.9-1.9c-0.6-1-1-1.9-1-2.9c0-1.3,0.6-2.6,1.6-3.5
					c1.3-1,2.6-1.6,4.2-1.6c1.6,0,2.9,0.6,4.2,1.6c1,1,1.6,2.2,1.6,3.5c0,1-0.3,1.9-1,2.9c-0.6,1-1.6,1.6-2.9,1.9v5.4h9.6v-22.1
					c0-0.3,0.3-1,0.6-1.3c0.3-0.3,1-0.6,1.3-0.6c0.6,0,1,0.3,1.3,0.6c0.3,0.3,0.6,0.6,0.6,1.3V288c0,0.3-0.3,1-0.6,1.3
					c-0.3,0.3-1,0.6-1.3,0.6H45.7c-4.2,0-8-1.3-10.9-3.8C31.6,283.2,30.3,280,30.3,276.2z"/>
			</g>
		</g>
	</g>
	<g>
		<polygon class="st87" points="45.7,325 86.3,378.7 5,378.7 		"/>
		<g>
			<g>
				<path class="st2" d="M61.7,358.9c0,4.5-1.6,8-4.5,11.2c-3.2,3.2-6.7,4.5-11.2,4.5c-4.8,0-8.6-1.9-11.8-5.4v3.2
					c0,0.6-0.3,1-0.6,1.3c-0.3,0.3-1,0.6-1.3,0.6c-0.6,0-1-0.3-1.3-0.6s-0.6-1-0.6-1.3v-13.8c0-0.6,0.3-1,0.6-1.3s1-0.6,1.3-0.6
					c0.6,0,1,0.3,1.3,0.6s0.6,1,0.6,1.3c0,3.2,1.3,6.1,3.5,8.3s5.1,3.5,8.3,3.5c3.2,0,6.1-1.3,8.3-3.5c2.2-2.2,3.5-5.1,3.5-8.3
					c0-3.2-1.3-6.1-3.5-8.3s-5.1-3.5-8.3-3.5c-2.6,0-4.8,0.6-6.7,2.2l4.2,4.5c0.6-0.3,1.6-0.3,2.2-0.3c1.6,0,2.9,0.6,4.2,1.6
					c1.3,1.3,1.6,2.6,1.6,4.2s-0.6,3.2-1.6,4.2c-1.3,1.3-2.6,1.6-4.2,1.6c-1.6,0-2.9-0.6-4.2-1.6c-1.3-1.3-1.6-2.6-1.6-4.2
					c0-1,0.3-1.9,0.6-2.6l-5.8-5.8c-0.3-0.3-0.6-1-0.6-1.3c0-0.6,0.3-1,0.6-1.3c3.2-3.2,6.7-4.5,11.2-4.5s8,1.6,11.2,4.5
					C60.1,350.9,61.7,354.7,61.7,358.9z"/>
			</g>
		</g>
	</g>
</g>
</svg>
