<?xml version="1.0" encoding="utf-8"?>
<!-- Generator: Adobe Illustrator 22.0.1, SVG Export Plug-In . SVG Version: 6.00 Build 0)  -->
<svg version="1.1" id="Слой_1" xmlns="http://www.w3.org/2000/svg" xmlns:xlink="http://www.w3.org/1999/xlink" x="0px" y="0px"
	 viewBox="0 0 130 100" style="enable-background:new 0 0 130 100;" xml:space="preserve">
<style type="text/css">
	.st0{fill:#F7C712;}
	.st1{fill-rule:evenodd;clip-rule:evenodd;fill:#5499C6;}
	.st2{fill:url(#SVGID_1_);}
	.st3{fill:url(#SVGID_2_);}
	.st4{filter:url(#Adobe_OpacityMaskFilter);}
	.st5{fill:url(#SVGID_4_);}
	.st6{opacity:0.3;mask:url(#SVGID_3_);fill:#010103;}
	.st7{fill:#2E58A6;}
</style>
<g>
	<g>
		<g>
			<path class="st0" d="M6.9,75.7L5.5,82h-4l7.4-31.4h6.2L22.5,82h-4.3l-1.5-6.3H6.9z M7.5,72.7h8.6l-4.4-18.1L7.5,72.7z"/>
			<path class="st0" d="M34.6,50.6c6,0,8.4,2.3,8.4,7v1.5c0,3.3-1.2,5.4-4.5,6.2c3.8,0.9,5.2,3.3,5.2,6.7v2.6c0,4.7-2.8,7.4-8.8,7.4
				h-8.9V50.6H34.6z M33.5,64c3.4,0,5.2-0.9,5.2-4.2v-1.8c0-2.8-1.2-4.1-4.3-4.1h-4.3V64H33.5z M34.8,78.9c3.1,0,4.6-1.3,4.6-4.3
				v-2.8c0-3.5-1.7-4.7-5.4-4.7h-3.8v11.7H34.8z"/>
			<path class="st0" d="M51.9,53.8V82h-4.3V50.6H63v3.2H51.9z"/>
			<path class="st0" d="M78.8,75.1c-1.3,4.7-3.3,7.2-10.3,7v-3.1c3.3,0.1,4.8-0.7,5.5-3.1l0.9-2.1L66,50.6h4.3l3.9,10.9l2.7,7.9
				l2.3-7.9l3.5-10.9h4.5L78.8,75.1z"/>
			<path class="st0" d="M107.4,58.2V61h-4.1v-3c0-2.8-1.4-4.5-4.5-4.5c-3.1,0-4.5,1.7-4.5,4.5v16.6c0,2.8,1.4,4.5,4.5,4.5
				c3.1,0,4.5-1.7,4.5-4.5v-4.1h4.1v3.9c0,4.8-2.8,7.9-8.7,7.9c-5.9,0-8.7-3.1-8.7-7.9V58.2c0-4.8,2.8-7.9,8.7-7.9
				C104.6,50.3,107.4,53.5,107.4,58.2z"/>
			<path class="st0" d="M117.2,82V53.8h-7.1v-3.2h18.6v3.2h-7.1V82H117.2z"/>
		</g>
	</g>
	<g>
		<g>
			<g>
				<path class="st1" d="M54.2,5.4c0.2,0.2-0.5,1.1-1.5,2c-0.1,0.1-0.1,0.1-0.2,0.2l0.1,4.2L52.4,12l-1-3.5
					c-0.8,0.6-1.6,1.3-2.2,1.7l0.3,1.5l-0.1,0.1l-0.6-1.4c-0.1,0-0.2,0.1-0.2,0c0,0,0-0.1,0.1-0.2l-1.3-0.7l0.1-0.1l1.5,0.4
					c0.4-0.5,1.2-1.3,1.9-2l-3.4-1.3l0.3-0.2l4.2,0.5C52,6.8,52,6.8,52.1,6.7C53.1,5.8,54,5.2,54.2,5.4L54.2,5.4z"/>
			</g>
			<radialGradient id="SVGID_1_" cx="62.0481" cy="25.1281" r="14.5492" gradientUnits="userSpaceOnUse">
				<stop  offset="0" style="stop-color:#A6DDE3"/>
				<stop  offset="0.4263" style="stop-color:#52AED0"/>
				<stop  offset="0.9842" style="stop-color:#2F4A83"/>
			</radialGradient>
			<path class="st2" d="M73.7,20.4c0,0,2.2-12.3-6.3-12c0,0-6.7-0.5-12.2,10.6c0,0-4.7,10.5-5.1,23c0,0,2.7-7.8,8.7-18.2
				c0,0,5.1-8.2,8.7-11.3C67.6,12.5,74.4,5.9,73.7,20.4z"/>
			<path class="st0" d="M61.6,35.9c0,0,9,6,14.2,0c2.2-3,2.4-8.4-4.5-17.2c0,0-8.3-10.1-17.1-16.4c0,0,8.8,11.1,12.2,18.6
				c0,0,4.2,7.5,5.2,12.3C71.6,33.2,74,42.3,61.6,35.9z"/>
			<radialGradient id="SVGID_2_" cx="65" cy="21.6106" r="14.1498" gradientUnits="userSpaceOnUse">
				<stop  offset="0" style="stop-color:#A6DDE3"/>
				<stop  offset="0.4263" style="stop-color:#52AED0"/>
				<stop  offset="0.9842" style="stop-color:#2F4A83"/>
			</radialGradient>
			<path class="st3" d="M57.9,10.6c0,0-11.5,5.9-9.4,15.9c0,0,0.7,8.2,15.8,5.5c0,0,11-2.3,17.4-5.3c0,0-8.5,2-22-0.6
				c0,0-11.5-1.6-9.3-7.3C51,16.1,54.2,13.7,57.9,10.6z"/>
			<defs>
				<filter id="Adobe_OpacityMaskFilter" filterUnits="userSpaceOnUse" x="10" y="36.6" width="110" height="12.3">
					<feColorMatrix  type="matrix" values="1 0 0 0 0  0 1 0 0 0  0 0 1 0 0  0 0 0 1 0"/>
				</filter>
			</defs>
			<mask maskUnits="userSpaceOnUse" x="10" y="36.6" width="110" height="12.3" id="SVGID_3_">
				<g class="st4">
					
						<radialGradient id="SVGID_4_" cx="411.6025" cy="530.75" r="32.529" gradientTransform="matrix(-1.6783 0 0 -0.1983 755.7924 147.9932)" gradientUnits="userSpaceOnUse">
						<stop  offset="0" style="stop-color:#FFFFFF"/>
						<stop  offset="1" style="stop-color:#100D0F;stop-opacity:0"/>
					</radialGradient>
					<path class="st5" d="M10,42.8c0-3.4,24.6-6.2,55-6.2c30.4,0,55,2.8,55,6.2c0,3.4-24.6,6.2-55,6.2C34.6,48.9,10,46.2,10,42.8z"
						/>
				</g>
			</mask>
			<path class="st6" d="M10,42.8c0-3.4,24.6-6.2,55-6.2c30.4,0,55,2.8,55,6.2c0,3.4-24.6,6.2-55,6.2C34.6,48.9,10,46.2,10,42.8z"/>
		</g>
		<g>
			<path class="st7" d="M89.2,32.3c0,0.1,0,0.1,0,0.2c-0.3,0.7-0.7,1.4-1.2,2.1c-0.6,0.9-1.2,1.4-1.7,1.5c-0.9,0.2-1.5-0.7-1.9-2.6
				c-0.1-0.3-0.1-0.6-0.2-1c-0.5,0.7-1.1,1.9-1.6,3.6c-0.2,0.6-0.4,0.9-0.7,1c-0.1,0-0.2,0-0.3-0.1c-0.1-0.2-0.2-0.4-0.2-0.7
				c-0.1-0.5-0.2-1.5-0.2-3c0-0.7-0.1-1.2-0.1-1.4c0-0.1-0.1-0.2-0.1-0.2c-0.3,0.3-0.6,1-1.1,2.1c-0.5,1.1-1.1,2.5-1.7,4
				c-0.1,0.2-0.1,0.3-0.2,0.3c-0.1,0-0.3-0.1-0.3-0.4c0-0.1,0-0.2,0-0.2c0.2-1.1,0.4-2.5,0.4-4.4c0-0.3,0-0.6,0-1.1
				c0-0.1,0.1-0.3,0.3-0.5c0.2-0.2,0.3-0.3,0.5-0.3c0.1,0,0.2,0,0.2,0.1c0,0.2-0.1,1.7-0.4,4.4c0.5-1,1-2.1,1.5-3.1
				c0.2-0.3,0.4-0.8,0.7-1.5c0.2-0.4,0.5-0.6,0.7-0.7c0.3-0.1,0.5,0.1,0.5,0.4c0,0.2,0.1,0.7,0.1,1.4c0,0.7,0.1,1.8,0.2,3.2
				c0.4-0.8,0.9-2.1,1.7-3.7c0.2-0.4,0.5-0.6,0.8-0.7c0.3-0.1,0.4,0.1,0.5,0.4c0.1,0.3,0.1,0.7,0.1,1.3c0,0.6,0.1,1,0.1,1.3
				c0.2,0.9,0.5,1.4,1,1.3c0.7-0.1,1.4-1.1,2.2-2.8c0.1-0.2,0.1-0.3,0.2-0.3C89.1,32.1,89.1,32.2,89.2,32.3z M85.3,27.8
				c-2.4-0.1-4.1,0.3-5,1.1c-0.2,0.2-0.3,0.4-0.4,0.6c0,0.1,0,0.3,0,0.5c0,0.2,0.1,0.4,0,0.5l-0.1,0.1c-0.2,0.2-0.3,0-0.3-0.3
				c-0.1-0.4,0-0.7,0.1-1.1c0.1-0.5,0.3-0.8,0.7-1.2c0.7-0.6,1.7-1,3.1-1.2c0.3-0.1,1.5-0.1,3.4-0.2c1.2,0,1.9-0.2,2.3-0.5
				c0.2-0.2,0.3-0.4,0.4-0.6c0.1-0.3,0-0.5-0.1-0.7c-0.1-0.2-0.1-0.4-0.1-0.5l0,0c0.1-0.1,0.2,0,0.3,0.5c0.1,0.5,0.1,0.8,0,1
				c-0.2,0.6-0.4,1-0.6,1.3c-0.4,0.4-1.1,0.5-2.1,0.6c-0.1,0-0.3,0-0.7,0C86.1,27.9,85.8,27.9,85.3,27.8z"/>
			<path class="st7" d="M95.4,34.8c0,0.1,0,0.2,0,0.2c0,0-0.1,0-0.3-0.1c-0.2-0.1-0.4-0.1-0.8,0c-0.2,0-0.4,0.1-0.5,0.1
				c-0.1,2.9-0.6,5.2-1.3,6.9c-1.4,3.3-3.2,5.2-5.4,5.6c-0.9,0.2-1.7,0.1-2.4-0.3c-0.7-0.4-1.1-1-1.3-1.9c-0.4-2,0.6-4.1,3-6.5
				c2-2,4.1-3.4,6.2-4.2c0-1.2,0-2.9-0.2-5.2c-0.1,0.6-0.4,1.4-0.7,2.3c-0.4,1-0.7,1.7-1,2.2c-0.4,0.6-0.8,0.9-1.2,1
				c-0.6,0.1-1-0.3-1.2-1.4c-0.1-0.6-0.1-1.3,0.1-2.2c0.2-1,0.6-1.6,1.1-1.7c0.3-0.1,0.4,0,0.4,0.1c0,0-0.1,0.5-0.4,1.4
				c-0.3,0.9-0.4,1.6-0.3,2c0.1,0.6,0.3,0.8,0.7,0.8c0.6-0.1,1.4-2.2,2.6-6.3c0-0.3,0.2-0.5,0.6-0.6c0.3-0.1,0.5,0,0.5,0.1
				c0,0.2,0.1,1,0.1,2.4c0,1.6,0.1,3.2,0,4.6l0.1,0C94.8,34.3,95.3,34.4,95.4,34.8z M92.7,35.3c-1.2,0.5-2.5,1.3-4,2.4
				c-1.5,1.2-2.6,2.3-3.3,3.3c-1.1,1.6-1.5,3-1.3,4.3c0.1,0.7,0.5,1.2,1,1.6c0.5,0.3,1.2,0.4,1.9,0.3c1.1-0.2,2.1-0.9,3-2.1
				c0.7-0.9,1.3-2,1.7-3.4C92.5,39.9,92.7,37.8,92.7,35.3z"/>
			<path class="st7" d="M105.6,28.7c0,0.1,0,0.3-0.1,0.5c-0.3,0.9-0.9,1.8-1.9,2.8c-1,1.1-1.9,1.8-2.7,1.9c-0.2,0-0.4,0.1-0.7,0.1
				c-0.3,0.1-0.5,0.1-0.7,0.1c-0.1,0-0.4,0-0.9,0c-0.3,1.6-0.7,3.3-1.3,5.1c-0.9,2.5-1.8,3.9-2.6,4c-0.5,0.1-0.8-0.2-0.9-0.9
				c-0.2-0.9,0.3-2.7,1.4-5.5c0.8-1.8,1.7-3.7,2.5-5.6l0-0.2c-0.1-0.7-0.3-1.2-0.4-1.7c-0.5,1.3-0.8,1.9-1,2c-0.1,0-0.2,0-0.2-0.2
				c0-0.1,0-0.2,0-0.2c0.6-1.3,0.8-2.4,0.6-3.3c0-0.2-0.1-0.3-0.2-0.4c-0.1-0.1-0.2-0.2-0.2-0.3c0-0.1,0.3-0.2,0.8-0.3
				c0.6-0.1,1.1,0.4,1.3,1.7c0,0.2,0.1,0.5,0.1,0.8c0,0.4,0.1,0.6,0.1,0.8c0.3-1,0.7-2,1.2-2.9c0.7-1.4,1.4-2.1,2-2.2
				c0.6-0.1,1,0.2,1.1,1.1c0.2,1.1,0.1,2.4-0.4,4c-0.5,1.6-1.1,2.7-1.9,3.5c1.6-0.4,3.1-2,4.5-4.8c0.1-0.1,0.1-0.2,0.1-0.2
				C105.5,28.5,105.6,28.6,105.6,28.7z M97.8,32.9C97.8,32.9,97.7,32.9,97.8,32.9c-0.1,0-0.2,0.1-0.3,0.3c-0.3,0.7-0.8,1.8-1.4,3.3
				c-0.3,0.6-0.6,1.6-0.9,2.8c-0.4,1.4-0.6,2.3-0.5,2.7c0,0.2,0.1,0.2,0.2,0.2c0.8-0.2,1.6-1.7,2.5-4.6c0.2-0.8,0.4-2,0.4-3.8
				c0-0.1-0.1-0.2-0.1-0.3C97.7,33.3,97.7,33.1,97.8,32.9z M101.9,26.8c-0.1-0.6-0.3-0.8-0.6-0.8c-0.1,0-0.2,0.1-0.3,0.1
				c-0.6,0.4-1.1,1.4-1.6,3c-0.3,1.2-0.5,2.3-0.7,3.5c0.2,0.2,0.6,0.5,1.2,0.8c0.7-0.5,1.3-1.5,1.7-3.1
				C102,29,102.1,27.8,101.9,26.8z"/>
		</g>
	</g>
	<g>
		<path class="st7" d="M19,88.4c-0.6,0.5-1.3,1.2-2.1,2.3c-0.6,0.7-1.1,1.4-1.6,2.1s-0.9,1.3-1.3,1.9c-0.1,0.2-0.2,0.4-0.3,0.6
			c-0.1,0.2-0.2,0.3-0.3,0.5c0,0.1-0.1,0.1-0.1,0.2c0,0.1-0.1,0.2-0.2,0.3c0,0-0.1,0-0.2,0c-0.4,0-0.6-0.2-0.6-0.5
			c0-0.1,0-0.1,0.1-0.2c0,0,0.1-0.1,0.2-0.3c0.1-0.2,0.2-0.5,0.3-0.8c0.1-0.3,0.3-0.6,0.4-0.9c0.1-0.3,0.3-0.6,0.4-0.9
			c0.1-0.5,0.3-1,0.4-1.6c0.2-0.5,0.3-1,0.5-1.4c0.1-0.4,0.3-0.8,0.4-1.2c0.1-0.4,0.2-0.7,0.3-0.9c0.1-0.3,0.1-0.5,0.1-0.6
			c0-0.1-0.2,0-0.4,0.2c-0.1,0.1-0.5,0.7-1.3,1.7c-0.2,0.3-0.4,0.6-0.6,0.9c-0.2,0.3-0.4,0.5-0.6,0.8c-0.2,0.2-0.5,0.6-0.9,1.1
			c-0.4,0.5-0.9,1.2-1.6,2C8.8,95,7.6,96,6.3,96.7c-1.6,0.9-3.1,1.2-4.4,0.9c-0.6-0.1-1.1-0.4-1.4-0.7c-0.4-0.4-0.6-0.9-0.4-1.5
			c0.2-0.9,1-1.8,2.6-2.7c1.4-0.8,2.6-1.2,3.6-1c0.1,0,0.2,0.1,0.1,0.2C6.3,91.9,6.2,92,6,92c-1.6,0.2-3,0.8-4.1,1.8
			c-0.7,0.6-1.1,1.2-1.2,1.8c-0.2,0.8,0.2,1.4,1.2,1.6c1.3,0.3,2.8-0.1,4.3-1.1c1.2-0.7,2.3-1.8,3.5-3.1c1.1-1.3,1.9-2.2,2.4-2.8
			c0.2-0.3,0.5-0.5,0.7-0.8c0.2-0.3,0.4-0.6,0.7-0.9c0.1-0.2,0.3-0.4,0.5-0.6c0.2-0.3,0.4-0.5,0.7-0.9c0.1-0.3,0.3-0.5,0.6-0.6
			c0.3-0.1,0.5-0.2,0.8-0.2c0.2,0,0.4,0,0.6,0c0.1,0,0.2,0.1,0.1,0.1c0.1,0,0.2,0.1,0.2,0.2c0,0,0,0.1-0.1,0.2
			c-0.1,0.1-0.2,0.3-0.2,0.4c-0.1,0.1-0.1,0.3-0.2,0.4c-0.2,0.4-0.4,0.8-0.5,1.2c-0.2,0.4-0.3,0.8-0.4,1.2c-0.1,0.4-0.3,0.9-0.4,1.3
			c-0.1,0.5-0.3,1-0.4,1.6c0.8-1,1.7-2.1,2.7-3.1c0.3-0.3,0.6-0.6,0.9-0.9c0.3-0.3,0.7-0.6,1-0.8c0.3-0.2,0.6-0.4,0.9-0.5
			c0.3-0.1,0.6-0.2,0.8-0.2c0.1,0,0.2,0.1,0.2,0.2c0,0.1,0,0.3-0.1,0.5c-0.1,0.2-0.2,0.4-0.3,0.6c-0.1,0.2-0.2,0.4-0.3,0.6
			c-0.1,0.2-0.2,0.4-0.2,0.5c-0.2,0.5-0.4,1-0.5,1.6c-0.2,0.5-0.4,1.1-0.5,1.6c-0.4,1.5-0.7,2.5-0.7,3.1c0,0.5,0.2,0.8,0.6,0.8
			c0.2,0,0.4-0.1,0.7-0.4c0.3-0.2,0.5-0.3,0.5-0.3c0.1,0,0.1,0,0.1,0.1c0,0.3-0.1,0.5-0.5,0.7c-0.3,0.2-0.6,0.3-0.9,0.3
			c-0.7,0-1.1-0.5-1.1-1.4c0-0.6,0.1-1.4,0.4-2.4c0.1-0.4,0.2-0.8,0.4-1.3c0.2-0.5,0.3-1,0.5-1.6c0.1-0.2,0.2-0.4,0.3-0.7
			c0.1-0.3,0.2-0.6,0.3-1c0.1-0.3,0.1-0.5-0.1-0.6C19.4,88.1,19.2,88.2,19,88.4z"/>
		<path class="st7" d="M26.9,94.4c0,0,0,0.1,0,0.1c-0.3,0.5-0.9,1-1.5,1.5c-0.7,0.5-1.4,0.7-2,0.7c-0.9,0-1.3-0.5-1.3-1.6
			c0-0.7,0.3-1.5,0.9-2.3c0.7-0.9,1.3-1.3,2-1.3c0.1,0,0.3,0.1,0.4,0.2c0.1,0.1,0.2,0.3,0.2,0.4c0,0.4-0.3,0.9-1,1.5
			c-0.6,0.5-1.1,0.9-1.6,1.1c-0.1,0.3-0.1,0.6-0.1,0.9c0,0.6,0.3,0.8,0.8,0.8c0.5,0,1-0.2,1.6-0.6c0.5-0.3,1-0.7,1.3-1.2
			C26.6,94.4,26.7,94.4,26.9,94.4C26.8,94.4,26.9,94.4,26.9,94.4z M24.9,92.3c0-0.2-0.1-0.2-0.2-0.2c-0.2,0-0.5,0.3-0.9,0.9
			c-0.3,0.5-0.6,0.9-0.6,1.2c0.4-0.2,0.7-0.4,1.1-0.8C24.6,93,24.9,92.6,24.9,92.3z"/>
		<path class="st7" d="M34.1,94.2c0,0.1,0,0.2-0.1,0.3c-1.1,1.7-2.1,2.5-3.2,2.5c-0.8,0-1.1-0.4-1.1-1.3c0-0.8,0.3-1.7,0.9-2.7
			c-0.1,0-0.2,0-0.3,0c-0.2,0-0.4-0.1-0.6-0.2c-0.2-0.1-0.4-0.3-0.4-0.5c-0.1,0.3-0.4,0.8-0.8,1.4c-0.5,0.8-0.8,1.2-1,1.2
			c-0.1,0-0.1,0-0.1-0.1c0-0.1,0-0.1,0.1-0.2c0.5-0.7,1.1-1.7,1.6-2.8c0-0.1,0-0.3,0-0.4c0-0.3,0.1-0.7,0.2-1.1
			c0.1-0.5,0.3-0.8,0.6-0.8c0.1,0,0.3,0.1,0.4,0.4c0.1,0.2,0.1,0.4,0.1,0.6c0,0.3-0.3,0.8-0.8,1.5c0.1,0.4,0.4,0.6,0.7,0.6
			c0.2,0,0.5-0.1,0.7-0.4c0.2-0.3,0.4-0.4,0.5-0.4c0.1,0,0.2,0.1,0.3,0.2c0.1,0.1,0.1,0.2,0.1,0.4c0,0-0.2,0.4-0.7,1.4
			c-0.5,0.9-0.7,1.6-0.7,2.1c0,0.5,0.2,0.7,0.7,0.7c0.4,0,0.8-0.2,1.3-0.7c0.3-0.3,0.7-0.7,1.1-1.2c0.3-0.4,0.5-0.7,0.5-0.7
			C34,94.1,34.1,94.1,34.1,94.2z"/>
		<path class="st7" d="M42.8,94.4c0,0.1,0,0.1,0,0.1c-0.3,0.5-0.7,0.9-1.1,1.3c-0.6,0.5-1.1,0.8-1.5,0.8c-0.6,0-1-0.7-1-2.1
			c0-0.2,0-0.5,0-0.7c-0.5,0.4-1,1.2-1.7,2.3c-0.2,0.4-0.4,0.6-0.7,0.6c-0.1,0-0.1,0-0.2-0.1c0-0.1-0.1-0.3-0.1-0.6
			c0-0.4,0.1-1.1,0.3-2.2c0.1-0.5,0.1-0.9,0.1-1c0-0.1,0-0.2-0.1-0.2c-0.2,0.2-0.6,0.6-1.1,1.3c-0.6,0.7-1.2,1.6-1.8,2.6
			c-0.1,0.1-0.2,0.2-0.2,0.2c-0.1,0-0.2-0.1-0.2-0.4c0-0.1,0-0.1,0-0.2c0.3-0.7,0.6-1.8,1-3.1c0-0.2,0.1-0.5,0.2-0.8
			c0-0.1,0.1-0.2,0.3-0.3c0.2-0.1,0.3-0.1,0.4-0.1c0.1,0,0.1,0,0.1,0.1c0,0.1-0.3,1.2-1,3.1c0.5-0.7,1-1.3,1.5-2
			c0.2-0.2,0.4-0.5,0.7-1c0.2-0.2,0.4-0.4,0.6-0.4c0.2,0,0.3,0.1,0.3,0.4c0,0.2,0,0.5-0.1,1.1c-0.1,0.5-0.2,1.3-0.3,2.3
			c0.4-0.5,1-1.3,1.8-2.4c0.2-0.3,0.4-0.4,0.7-0.4c0.2,0,0.3,0.1,0.3,0.4c0,0.2,0,0.5-0.1,1c-0.1,0.4-0.1,0.8-0.1,1
			c0,0.7,0.2,1.1,0.6,1.1c0.5,0,1.2-0.6,2-1.7c0.1-0.1,0.1-0.2,0.2-0.2C42.8,94.2,42.8,94.3,42.8,94.4z M40.7,90.6
			c-1.7-0.4-3-0.4-3.8,0.1c-0.2,0.1-0.3,0.2-0.4,0.4c0,0.1-0.1,0.2-0.1,0.4c0,0.2,0,0.3-0.1,0.4l-0.1,0.1c-0.1,0.1-0.2,0-0.2-0.3
			c0-0.3,0.1-0.5,0.2-0.7c0.1-0.3,0.4-0.6,0.7-0.7c0.6-0.4,1.4-0.5,2.4-0.4c0.2,0,1.1,0.1,2.5,0.3c0.9,0.2,1.4,0.2,1.7,0
			c0.2-0.1,0.3-0.2,0.3-0.4c0.1-0.2,0.1-0.3,0.1-0.5c0-0.1,0-0.3,0-0.4l0,0c0.1-0.1,0.2,0.1,0.2,0.4c0,0.3-0.1,0.6-0.1,0.8
			c-0.2,0.4-0.4,0.7-0.7,0.8c-0.3,0.2-0.9,0.2-1.6,0.1c-0.1,0-0.2-0.1-0.5-0.1C41.3,90.8,41,90.7,40.7,90.6z"/>
		<path class="st7" d="M53.1,94.3c0,0.1,0,0.2-0.1,0.3c-1.2,1.6-2.3,2.5-3.2,2.5c-0.7,0-1.1-0.4-1.1-1.2c0-0.4,0.1-0.9,0.3-1.5
			c-0.4,0.3-0.9,0.6-1.4,0.8c-0.2,0.2-0.4,0.5-0.6,0.7c-0.2,0.2-0.5,0.4-0.8,0.5c-0.3,0.2-0.6,0.3-0.8,0.4c-0.3,0.1-0.6,0.2-0.8,0.2
			c-0.8,0.1-1.2-0.3-1.2-1.2c0-0.4,0.1-0.8,0.2-1.2c0.1-0.4,0.3-0.9,0.5-1.4c0.2-0.5,0.4-0.9,0.7-1.3c0.2-0.4,0.5-0.8,0.7-1
			c0.1-0.1,0.1-0.1,0.2-0.1c0.1,0,0.2,0.1,0.3,0.1c0.1,0.1,0.2,0.1,0.2,0.2c0.1,0.1,0.1,0.2,0.1,0.2c0,0.1,0,0.1-0.1,0.2
			c0,0.1-0.1,0.2-0.2,0.4c-0.1,0.2-0.2,0.4-0.4,0.6c-0.1,0.2-0.3,0.4-0.4,0.6c-0.1,0.2-0.2,0.3-0.2,0.3c-0.2,0.5-0.4,0.9-0.6,1.4
			c-0.2,0.5-0.3,0.9-0.3,1.1c0,0.5,0.2,0.7,0.7,0.7c0.3,0,0.6-0.1,1-0.4c0.4-0.2,0.7-0.5,0.9-0.8c-0.4,0-0.6,0-0.9-0.2
			c-0.2-0.1-0.4-0.4-0.4-0.9c0-0.2,0-0.5,0.1-0.7c0.1-0.2,0.3-0.4,0.5-0.6c0.2-0.2,0.4-0.3,0.7-0.3c0.2-0.1,0.5-0.1,0.7,0
			c0.2,0.1,0.4,0.2,0.5,0.4c0.1,0.2,0.2,0.5,0.1,0.9c0,0.2-0.1,0.4-0.1,0.6c0.3-0.1,0.5-0.3,0.8-0.5c0.3-0.2,0.5-0.4,0.7-0.6
			c0.1-0.2,0.2-0.4,0.3-0.5c0.1-0.2,0.2-0.3,0.3-0.4c0.1-0.1,0.2-0.2,0.3-0.2c0.1,0,0.2,0.1,0.3,0.2c0.1,0.1,0.2,0.2,0.2,0.3
			c0,0.1,0,0.2-0.1,0.2c-0.7,1.1-1,2-1,2.7c0,0.5,0.2,0.7,0.5,0.7c0.4,0,0.8-0.2,1.3-0.7c0.2-0.1,0.3-0.3,0.5-0.5
			c0.2-0.2,0.4-0.4,0.6-0.7l0.5-0.7C53,94.1,53.1,94.2,53.1,94.3z M47.1,94.7c0.1-0.3,0.2-0.5,0.2-0.7c0-0.2-0.1-0.3-0.2-0.4
			c-0.1-0.1-0.3-0.1-0.4-0.1c-0.2,0-0.3,0.1-0.5,0.2c-0.1,0.1-0.3,0.2-0.3,0.4c-0.1,0.2-0.1,0.3,0,0.6c0.1,0.2,0.2,0.4,0.4,0.4
			c0.2,0.1,0.5,0,0.7,0c0,0,0.1-0.1,0.1-0.1C47.1,94.8,47.1,94.8,47.1,94.7z"/>
		<path class="st7" d="M62.8,94.2c0,0.1,0,0.1-0.1,0.2c-0.5,0.7-1.1,1.3-2,1.9c-0.5,0.3-1,0.5-1.6,0.5c-1,0-1.5-0.5-1.5-1.6
			c0-0.7,0.4-1.4,1.1-2.2c0.7-0.8,1.4-1.2,2.1-1.2c0.4,0,0.7,0.2,0.7,0.5c0,0.1-0.1,0.4-0.3,0.7c-0.2,0.3-0.4,0.5-0.5,0.5
			c-0.1,0-0.1,0-0.1-0.1c0-0.1,0-0.1,0.1-0.3c0-0.1,0.1-0.2,0.1-0.3c0-0.3-0.2-0.4-0.5-0.4c-0.5,0-0.9,0.3-1.3,1
			c-0.4,0.6-0.6,1.1-0.6,1.7c0,0.8,0.4,1.3,1.1,1.3c0.9,0,1.9-0.6,2.9-1.9C62.5,94.3,62.6,94.2,62.8,94.2
			C62.8,94.2,62.8,94.2,62.8,94.2z"/>
		<path class="st7" d="M71.8,87.6c-0.2,0.3-0.5,0.5-1,0.7s-1.2,0.3-2.2,0.4c-0.6,0-1.1,0.2-1.6,0.6c-0.5,0.4-1,0.9-1.4,1.8
			c-0.2,0.4-0.4,0.7-0.6,1c-0.1,0.3-0.3,0.5-0.4,0.7c-0.1,0.2-0.2,0.4-0.2,0.6c-0.1,0.2-0.1,0.4-0.2,0.6c0.3-0.6,0.8-1.2,1.2-1.8
			c0.7-0.7,1.2-1.1,1.7-1.1c0.4,0,0.6,0.3,0.6,0.9c0,0.8-0.3,1.8-0.8,2.9c-0.4,0.7-0.8,1.4-1.4,1.9c-0.7,0.6-1.4,1-2.1,1
			c-0.5,0-0.8-0.1-0.8-0.3c0-0.1,0-0.1,0.1-0.1c0,0,0.1,0,0.3,0.1c0.2,0,0.3,0.1,0.4,0.1c0.6,0,1.2-0.3,1.8-1
			c0.4-0.5,0.8-1.1,1.1-1.9c0.3-0.6,0.4-1.3,0.4-2c0-0.4-0.1-0.7-0.3-0.7c-0.4,0-1,0.6-1.8,1.9c-0.7,1.2-1.1,2-1.1,2.6
			c0,0.2,0.1,0.3,0.2,0.3c0.1,0.1,0.2,0.2,0.2,0.2c0,0.1,0,0.1-0.1,0.1c-0.5,0-0.8-0.4-0.8-1.1c0-0.5,0.1-1.2,0.4-1.9
			c0.3-0.8,0.6-1.5,1.1-2.3c0.5-0.8,1-1.4,1.6-2.1c0.6-0.6,1.2-1.1,1.8-1.4c0.3-0.1,0.6-0.2,0.9-0.3c0.3-0.1,0.5-0.1,0.8-0.2
			c0.2,0,0.5-0.1,0.6-0.1c0.2,0,0.4-0.1,0.5-0.2c0.2-0.1,0.4-0.2,0.5-0.3c0.1-0.1,0.3-0.1,0.3-0.2c0.1,0,0.1,0,0.1,0.2
			C71.9,87.1,71.9,87.3,71.8,87.6z"/>
		<path class="st7" d="M78.9,94.3c0,0.1,0,0.2-0.1,0.3c-1.2,1.6-2.3,2.5-3.2,2.5c-0.7,0-1.1-0.4-1.1-1.2c0-0.4,0.1-0.9,0.3-1.5
			c-0.4,0.3-0.9,0.6-1.4,0.8c-0.2,0.2-0.4,0.5-0.6,0.7c-0.2,0.2-0.5,0.4-0.8,0.5c-0.3,0.2-0.6,0.3-0.8,0.4c-0.3,0.1-0.6,0.2-0.8,0.2
			c-0.8,0.1-1.2-0.3-1.2-1.2c0-0.4,0.1-0.8,0.2-1.2c0.1-0.4,0.3-0.9,0.5-1.4c0.2-0.5,0.4-0.9,0.7-1.3c0.2-0.4,0.5-0.8,0.7-1
			c0.1-0.1,0.1-0.1,0.2-0.1c0.1,0,0.2,0.1,0.3,0.1c0.1,0.1,0.2,0.1,0.2,0.2c0.1,0.1,0.1,0.2,0.1,0.2c0,0.1,0,0.1-0.1,0.2
			c0,0.1-0.1,0.2-0.2,0.4c-0.1,0.2-0.2,0.4-0.4,0.6c-0.1,0.2-0.3,0.4-0.4,0.6c-0.1,0.2-0.2,0.3-0.2,0.3c-0.2,0.5-0.4,0.9-0.6,1.4
			c-0.2,0.5-0.3,0.9-0.3,1.1c0,0.5,0.2,0.7,0.7,0.7c0.3,0,0.6-0.1,1-0.4c0.4-0.2,0.7-0.5,0.9-0.8c-0.4,0-0.6,0-0.9-0.2
			c-0.2-0.1-0.4-0.4-0.4-0.9c0-0.2,0-0.5,0.1-0.7c0.1-0.2,0.3-0.4,0.5-0.6c0.2-0.2,0.4-0.3,0.7-0.3c0.2-0.1,0.5-0.1,0.7,0
			c0.2,0.1,0.4,0.2,0.5,0.4c0.1,0.2,0.2,0.5,0.1,0.9c0,0.2-0.1,0.4-0.1,0.6c0.3-0.1,0.5-0.3,0.8-0.5c0.3-0.2,0.5-0.4,0.7-0.6
			c0.1-0.2,0.2-0.4,0.3-0.5c0.1-0.2,0.2-0.3,0.3-0.4c0.1-0.1,0.2-0.2,0.3-0.2c0.1,0,0.2,0.1,0.3,0.2c0.1,0.1,0.2,0.2,0.2,0.3
			c0,0.1,0,0.2-0.1,0.2c-0.7,1.1-1,2-1,2.7c0,0.5,0.2,0.7,0.5,0.7c0.4,0,0.8-0.2,1.3-0.7c0.2-0.1,0.3-0.3,0.5-0.5
			c0.2-0.2,0.4-0.4,0.6-0.7l0.5-0.7C78.9,94.1,78.9,94.2,78.9,94.3z M73,94.7c0.1-0.3,0.2-0.5,0.2-0.7c0-0.2-0.1-0.3-0.2-0.4
			c-0.1-0.1-0.3-0.1-0.4-0.1c-0.2,0-0.3,0.1-0.5,0.2c-0.1,0.1-0.3,0.2-0.3,0.4c-0.1,0.2-0.1,0.3,0,0.6c0.1,0.2,0.2,0.4,0.4,0.4
			c0.2,0.1,0.5,0,0.7,0c0,0,0.1-0.1,0.1-0.1C72.9,94.8,73,94.8,73,94.7z"/>
		<path class="st7" d="M81.8,91c-0.2,0.4-0.5,0.8-0.7,1.3c-0.2,0.5-0.4,1-0.6,1.5c0.3-0.6,0.8-1.2,1.2-1.8c0.7-0.7,1.2-1.1,1.7-1.1
			c0.4,0,0.6,0.3,0.6,0.9c0,0.8-0.3,1.8-0.8,2.9c-0.4,0.7-0.8,1.4-1.4,1.9c-0.7,0.6-1.4,1-2.1,1c-0.5,0-0.8-0.1-0.8-0.3
			c0-0.1,0-0.1,0.1-0.1c0,0,0.1,0,0.3,0.1c0.2,0,0.3,0.1,0.4,0.1c0.6,0,1.2-0.3,1.8-1c0.4-0.5,0.8-1.1,1.1-1.9
			c0.3-0.6,0.4-1.3,0.4-2c0-0.4-0.1-0.7-0.3-0.7c-0.4,0-1,0.6-1.8,1.9c-0.7,1.2-1.1,2-1.1,2.6c0,0.2,0.1,0.3,0.2,0.3
			c0.1,0.1,0.2,0.2,0.2,0.2c0,0.1,0,0.1-0.1,0.1c-0.5,0-0.8-0.4-0.8-1.1c0-0.5,0.1-1.2,0.4-2c0.3-0.8,0.6-1.8,1.2-2.8
			c0.4-0.9,1.2-2.1,2.3-3.9c1.7-2.7,3-4,4.1-4c0.6,0,0.9,0.3,0.9,0.8c0,1-0.9,2.3-2.6,4.1C84.5,89.1,83.3,90.1,81.8,91z M87.8,84.2
			c0-0.3-0.1-0.4-0.3-0.4c-0.4,0-0.9,0.3-1.7,0.9c-1.3,1-2.5,2.7-3.4,4.8c-0.2,0.4-0.3,0.7-0.3,0.9c1-0.6,2.1-1.5,3.4-2.8
			C87,86.1,87.8,85,87.8,84.2z"/>
		<path class="st7" d="M91.9,94.4c0,0.1,0,0.2-0.1,0.3c-0.6,1-1.2,1.6-1.7,1.9c-0.2,0.1-0.5,0.2-0.7,0.2c-0.8,0-1.2-0.6-1.2-1.8
			c0-0.2,0-0.4,0-0.6c-0.9,1.6-1.7,2.4-2.4,2.4c-0.4,0-0.6-0.2-0.6-0.7c0-0.7,0.3-1.6,1-2.6c0.7-1,1.3-1.6,2-1.8
			c0.2-0.1,0.5-0.1,0.7-0.1c0.5,0,0.8,0.2,1.1,0.5c0,0.1,0.1,0.1,0.1,0.1c0,0,0,0-0.1,0.1c-0.1,0-0.2,0.1-0.2,0.1
			c-0.3,0.5-0.5,1.3-0.5,2.4c0,1,0.2,1.5,0.6,1.5c0.3,0,0.7-0.3,1.3-1c0.6-0.7,0.8-1,0.9-1C91.8,94.3,91.9,94.3,91.9,94.4z
			 M88.9,92.2c-0.1,0-0.1,0-0.2,0c-0.5,0-1.1,0.3-1.7,1c-0.8,1-1.2,1.8-1.2,2.5c0,0.3,0.1,0.4,0.3,0.4c0.3,0,0.7-0.3,1.2-0.9
			C87.8,94.4,88.4,93.4,88.9,92.2z"/>
		<path class="st7" d="M99.9,94.6C99.9,94.6,99.9,94.6,99.9,94.6c-0.2,0.4-0.5,0.6-0.9,0.9c-0.4,0.2-0.8,0.3-1.2,0.3
			c-0.3,0-0.6-0.1-0.8-0.2c-0.6,0.9-1.3,1.4-2,1.4c-0.5,0-0.7-0.3-0.7-0.8c0-0.6,0.3-1.4,0.8-2.2c-0.4,0.1-0.8,0.2-1.2,0.3
			c-0.4,0.1-0.7,0.2-1.1,0.4c-0.1,0.2-0.2,0.4-0.2,0.6c-0.2,0.6-0.3,1-0.5,1.2c-0.2,0.2-0.3,0.3-0.5,0.3c-0.1,0-0.1-0.1-0.1-0.3
			c0-0.1,0-0.1,0-0.1c0.4-0.6,0.8-1.6,1.2-2.8c0-0.1,0.1-0.2,0.1-0.4c0-0.1,0.1-0.3,0.2-0.5c0.1-0.1,0.2-0.2,0.3-0.3
			c0.2-0.1,0.3-0.1,0.4-0.1c0.1,0,0.1,0,0.1,0.1c0,0.1-0.1,0.3-0.3,0.8c-0.1,0.3-0.3,0.7-0.5,1.2c0.4-0.1,1-0.3,1.7-0.5
			c0.1,0,0.3-0.1,0.5-0.1c0.1,0,0.2,0,0.2-0.1l0,0c0-0.1-0.1-0.3-0.1-0.4c0-0.5,0.2-0.9,0.5-1.3c0.3-0.4,0.8-0.7,1.2-0.7
			c0.3,0,0.6,0.2,0.8,0.5c0.1,0.3,0.2,0.6,0.2,0.9c0,0.7-0.3,1.6-0.9,2.6c0.2,0.1,0.4,0.2,0.7,0.2c0.5,0,0.9-0.2,1.3-0.5
			c0.4-0.3,0.6-0.5,0.6-0.5C99.9,94.4,99.9,94.5,99.9,94.6z M96.7,95.4c-0.5-0.3-0.8-0.6-1.1-1c-0.4,0.8-0.6,1.4-0.6,1.7
			c0,0.3,0.1,0.4,0.3,0.4c0.2,0,0.4-0.1,0.8-0.4C96.4,95.8,96.6,95.6,96.7,95.4z M97.4,93.1c0-0.3,0-0.6-0.1-0.9
			c-0.2-0.4-0.3-0.6-0.6-0.6c-0.3,0-0.6,0.2-0.8,0.5c-0.1,0.3-0.2,0.6-0.2,0.9c0.2-0.2,0.5-0.3,0.7-0.3c0.2,0,0.4,0.1,0.5,0.2V93
			c0,0,0,0.1,0,0.1c0,0-0.1,0.1-0.2,0.1c-0.3,0-0.5,0.2-0.8,0.7c0.2,0.5,0.5,0.9,1,1.2C97.2,94.3,97.4,93.6,97.4,93.1z"/>
		<path class="st7" d="M108.6,94.4c0,0.1,0,0.1,0,0.1c-0.3,0.5-0.7,0.9-1.1,1.3c-0.6,0.5-1.1,0.8-1.5,0.8c-0.6,0-1-0.7-1-2.1
			c0-0.2,0-0.5,0-0.7c-0.5,0.4-1,1.2-1.7,2.3c-0.2,0.4-0.4,0.6-0.7,0.6c-0.1,0-0.1,0-0.2-0.1c0-0.1-0.1-0.3-0.1-0.6
			c0-0.4,0.1-1.1,0.3-2.2c0.1-0.5,0.1-0.9,0.1-1c0-0.1,0-0.2-0.1-0.2c-0.2,0.2-0.6,0.6-1.1,1.3c-0.6,0.7-1.2,1.6-1.8,2.6
			c-0.1,0.1-0.2,0.2-0.2,0.2c-0.1,0-0.2-0.1-0.2-0.4c0-0.1,0-0.1,0-0.2c0.3-0.7,0.6-1.8,1-3.1c0-0.2,0.1-0.5,0.2-0.8
			c0-0.1,0.1-0.2,0.3-0.3c0.2-0.1,0.3-0.1,0.4-0.1c0.1,0,0.1,0,0.1,0.1c0,0.1-0.3,1.2-1,3.1c0.5-0.7,1-1.3,1.5-2
			c0.2-0.2,0.4-0.5,0.7-1c0.2-0.2,0.4-0.4,0.6-0.4c0.2,0,0.3,0.1,0.3,0.4c0,0.2,0,0.5-0.1,1.1c-0.1,0.5-0.2,1.3-0.3,2.3
			c0.4-0.5,1-1.3,1.8-2.4c0.2-0.3,0.4-0.4,0.7-0.4c0.2,0,0.3,0.1,0.3,0.4c0,0.2,0,0.5-0.1,1c-0.1,0.4-0.1,0.8-0.1,1
			c0,0.7,0.2,1.1,0.6,1.1c0.5,0,1.2-0.6,2-1.7c0.1-0.1,0.1-0.2,0.2-0.2C108.6,94.2,108.6,94.3,108.6,94.4z M106.6,90.6
			c-1.7-0.4-3-0.4-3.8,0.1c-0.2,0.1-0.3,0.2-0.4,0.4c0,0.1-0.1,0.2-0.1,0.4c0,0.2,0,0.3-0.1,0.4l-0.1,0.1c-0.1,0.1-0.2,0-0.2-0.3
			c0-0.3,0.1-0.5,0.2-0.7c0.1-0.3,0.4-0.6,0.7-0.7c0.6-0.4,1.4-0.5,2.4-0.4c0.2,0,1.1,0.1,2.5,0.3c0.9,0.2,1.4,0.2,1.7,0
			c0.2-0.1,0.3-0.2,0.3-0.4c0.1-0.2,0.1-0.3,0.1-0.5c0-0.1,0-0.3,0-0.4l0,0c0.1-0.1,0.2,0.1,0.2,0.4c0,0.3-0.1,0.6-0.1,0.8
			c-0.2,0.4-0.4,0.7-0.7,0.8c-0.3,0.2-0.9,0.2-1.6,0.1c-0.1,0-0.2-0.1-0.5-0.1C107.1,90.8,106.9,90.7,106.6,90.6z"/>
		<path class="st7" d="M114.2,94.2c0,0.1,0,0.1-0.1,0.2c-0.5,0.7-1.1,1.3-2,1.9c-0.5,0.3-1,0.5-1.6,0.5c-1,0-1.5-0.5-1.5-1.6
			c0-0.7,0.4-1.4,1.1-2.2c0.7-0.8,1.4-1.2,2.1-1.2c0.4,0,0.7,0.2,0.7,0.5c0,0.1-0.1,0.4-0.3,0.7c-0.2,0.3-0.4,0.5-0.5,0.5
			c-0.1,0-0.1,0-0.1-0.1c0-0.1,0-0.1,0.1-0.3c0-0.1,0.1-0.2,0.1-0.3c0-0.3-0.2-0.4-0.5-0.4c-0.5,0-0.9,0.3-1.3,1
			c-0.4,0.6-0.6,1.1-0.6,1.7c0,0.8,0.4,1.3,1.1,1.3c0.9,0,1.9-0.6,2.9-1.9C114,94.3,114.1,94.2,114.2,94.2
			C114.2,94.2,114.2,94.2,114.2,94.2z"/>
		<path class="st7" d="M119.9,93.4c0.3,0,0.4,0.2,0.4,0.5c0,0,0,0.1-0.1,0.2c-0.2,0.3-0.3,0.6-0.4,0.8c-0.1,0.2-0.2,0.5-0.2,0.7
			c0,0.5,0.2,0.8,0.7,0.8c0.4,0,0.8-0.2,1.2-0.6c0.3-0.3,0.6-0.6,1-1.1c0.3-0.4,0.4-0.6,0.5-0.6c0,0,0.1,0,0.1,0.1
			c0,0.1,0,0.2-0.1,0.3c-0.9,1.5-1.9,2.3-2.9,2.3c-0.8,0-1.2-0.5-1.2-1.5c0-0.1,0-0.2,0-0.3c0-0.1,0-0.2,0-0.3
			c0.1-0.2,0.1-0.4,0.2-0.6c-0.1,0-0.2,0-0.2,0.1c-0.1,0-0.2,0-0.2,0c-0.2,0.3-0.5,0.6-0.7,0.9c-0.2,0.3-0.4,0.5-0.4,0.5
			c-0.4,0.4-0.8,0.6-1.1,0.7c-0.4,0.1-0.7,0.1-1,0.1c-0.3-0.1-0.5-0.3-0.6-0.6c-0.1-0.3-0.1-0.7-0.1-1.3c0-0.3,0.1-0.4,0.2-0.5
			c0.1-0.1,0.2-0.1,0.3-0.1s0.2,0,0.3,0.1c0.1,0.1,0.2,0.2,0.2,0.3c-0.2,0.6-0.3,1-0.3,1.3c0,0.3,0.1,0.5,0.3,0.6
			c0.2,0.1,0.4,0,0.8-0.2c0.3-0.2,0.7-0.6,1.1-1.2c0.1-0.1,0.2-0.3,0.4-0.5c-0.4,0-0.8-0.1-1.1-0.3c-0.3-0.2-0.5-0.4-0.6-0.7
			c-0.1-0.3-0.1-0.6,0.1-0.9c0.1-0.3,0.5-0.6,1-0.9c0.4-0.2,0.7-0.3,0.9-0.3c0.3,0,0.5,0.1,0.6,0.2c0.2,0.1,0.3,0.3,0.3,0.5
			c0.1,0.2,0.1,0.5,0.1,0.7c0,0.3-0.1,0.5-0.1,0.7c-0.1,0.2-0.2,0.4-0.3,0.6c0.1,0,0.1,0,0.2,0c0.1,0,0.1,0,0.2,0
			c0.2-0.3,0.3-0.5,0.4-0.6C119.9,93.4,119.9,93.4,119.9,93.4z M118.9,92.2c-0.6-0.2-1-0.2-1.2-0.1c-0.3,0.1-0.4,0.3-0.4,0.6
			c0,0.3,0.1,0.5,0.3,0.8c0.2,0.3,0.5,0.5,0.9,0.6c0.1-0.2,0.2-0.4,0.3-0.6c0.1-0.2,0.2-0.4,0.2-0.6c0-0.2,0.1-0.3,0.1-0.4
			C119,92.3,119,92.2,118.9,92.2z"/>
		<path class="st7" d="M125.1,96.5c0,0.3-0.2,0.5-0.5,0.5c-0.4,0-0.5-0.2-0.5-0.5c0-0.3,0.2-0.5,0.5-0.5
			C125,96,125.1,96.2,125.1,96.5z M130,87.2l-0.1,0.2l-0.6,0.9c-1.5,2.3-2.5,4.1-3.2,5.4c-0.1,0.2-0.2,0.4-0.4,0.8
			c-0.1,0.2-0.2,0.3-0.3,0.3c-0.1,0-0.1,0-0.1-0.1c0-0.2,0.6-1.5,1.8-3.8c1.1-2.1,1.8-3.5,2.2-4c0,0,0,0,0.1,0
			c0.1,0,0.2,0.1,0.4,0.2C129.9,87,130,87.1,130,87.2z"/>
	</g>
</g>
</svg>
