<?xml version="1.0" encoding="utf-8"?>
<!-- Generator: Adobe Illustrator 22.0.1, SVG Export Plug-In . SVG Version: 6.00 Build 0)  -->
<svg version="1.1" id="Слой_1" xmlns="http://www.w3.org/2000/svg" xmlns:xlink="http://www.w3.org/1999/xlink" x="0px" y="0px"
	 viewBox="0 0 130 100" style="enable-background:new 0 0 130 100;" xml:space="preserve">
<style type="text/css">
	.st0{fill:#FF5400;}
	.st1{fill:#184C37;}
	.st2{fill:url(#SVGID_1_);stroke:#000000;stroke-width:0.25;stroke-miterlimit:10;}
	.st3{fill:url(#SVGID_2_);stroke:#000000;stroke-width:0.25;stroke-miterlimit:10;}
	.st4{fill:url(#SVGID_3_);stroke:#000000;stroke-width:0.25;stroke-miterlimit:10;}
	.st5{fill:url(#SVGID_4_);stroke:#000000;stroke-width:0.25;stroke-miterlimit:10;}
	.st6{fill:url(#SVGID_5_);stroke:#000000;stroke-width:0.25;stroke-miterlimit:10;}
	.st7{fill:url(#SVGID_6_);stroke:#000000;stroke-width:0.25;stroke-miterlimit:10;}
	.st8{fill:#FF0400;}
	.st9{fill:url(#SVGID_7_);stroke:#000000;stroke-width:0.25;stroke-miterlimit:10;}
	.st10{fill:url(#SVGID_8_);stroke:#000000;stroke-width:0.25;stroke-miterlimit:10;}
	.st11{fill:url(#SVGID_9_);stroke:#000000;stroke-width:0.25;stroke-miterlimit:10;}
	.st12{fill:url(#SVGID_10_);stroke:#000000;stroke-width:0.25;stroke-miterlimit:10;}
	.st13{fill:url(#SVGID_11_);stroke:#000000;stroke-width:0.25;stroke-miterlimit:10;}
	.st14{fill:url(#SVGID_12_);stroke:#000000;stroke-width:0.25;stroke-miterlimit:10;}
	.st15{fill:url(#SVGID_13_);stroke:#000000;stroke-width:0.25;stroke-miterlimit:10;}
	.st16{fill:url(#SVGID_14_);stroke:#000000;stroke-width:0.25;stroke-miterlimit:10;}
	.st17{fill:url(#SVGID_15_);stroke:#000000;stroke-width:0.25;stroke-miterlimit:10;}
	.st18{fill:url(#SVGID_16_);stroke:#000000;stroke-width:0.25;stroke-miterlimit:10;}
	.st19{fill:url(#SVGID_17_);stroke:#000000;stroke-width:0.25;stroke-miterlimit:10;}
	.st20{fill:url(#SVGID_18_);stroke:#000000;stroke-width:0.25;stroke-miterlimit:10;}
	.st21{fill:url(#SVGID_19_);stroke:#000000;stroke-width:0.25;stroke-miterlimit:10;}
	.st22{fill:url(#SVGID_20_);stroke:#000000;stroke-width:0.25;stroke-miterlimit:10;}
	.st23{fill:url(#SVGID_21_);stroke:#000000;stroke-width:0.25;stroke-miterlimit:10;}
	.st24{fill:url(#SVGID_22_);stroke:#000000;stroke-width:0.25;stroke-miterlimit:10;}
	.st25{fill:url(#SVGID_23_);stroke:#000000;stroke-width:0.25;stroke-miterlimit:10;}
	.st26{fill:url(#SVGID_24_);stroke:#000000;stroke-width:0.25;stroke-miterlimit:10;}
	.st27{clip-path:url(#SVGID_26_);}
	.st28{fill:#FFFFFF;}
	.st29{opacity:0.5;fill:url(#SVGID_27_);}
	.st30{clip-path:url(#SVGID_29_);}
	.st31{clip-path:url(#SVGID_31_);fill:#161881;}
	.st32{clip-path:url(#SVGID_31_);fill:#F0C81E;}
	.st33{opacity:0.3;fill:url(#SVGID_32_);}
</style>
<g>
	<path class="st0" d="M44.9,26.1c0,1.3,0.1,1.5,0.2,1.7s0.2,4.7-0.5,5.9c-0.6,1.2-1.8,1.9-2.3,2c-0.5,0.1-2-1.1-3.4-1.5
		c-1.4-0.5-1.3-0.4-1.9-0.4c-0.6,0-1.9,0.5-2.3,0.9c-0.2,0-0.3-0.2-0.4,0c-0.1,0.2-0.7,0.8-0.9,1.2c-0.1,0.4-0.5,1.9-1,2.1
		c-0.4,0.2-1.6,1.5-2.4,1.5c-0.8,0.1-0.6,0-1.1-0.1c-0.5,0-0.6-0.6-1.1-1c-0.5-0.3-0.7-0.6-0.7-0.6s-0.1-0.6-0.4-0.6
		c-0.2,0-0.4,1.1-0.4,1.5c0,0.3,0.6,1.5,0.9,1.8s0.3,1.7,0.1,2.1c-0.1,0.4,0.3,0.8,0.4,1.2c0.1,0.4-0.4,0.7-0.2,0.8
		c0.2,0.1,0.5,0.6,0.5,1.1c0,0.5,1.1,0.7,1.3,1.1c0.2,0.5,0.3,1.3,0.4,1.8c0.1,0.5,0.3,0.3,0.4,1.5c0.4,0.2,0.9,0.6,1.3,0.8
		c0.4,0.2,0.4,0.8,1,1.1s0.6,0,0.9,0.1c0.3,0.1-0.1,0.2,0.4,0.3c0.5,0.2,0.7-0.1,1.2,0.2c0.4,0.2,0.7,0.8,1,1
		c0.3,0.2,1.5,0.6,1.6,0.7c0.1,0.1,0.9,0.4,1,0.4c0.1,0,0.6-0.3,0.6-0.3s0.5,0.2,1,0s0.7-0.6,1-0.6c0.3,0,0.4,0.2,0.7,0.2
		c0.3,0,0.7-0.2,0.7-0.2s0.7-0.2,1.2,0.2s1.7,1.9,1.7,2.5s-0.1,1-0.1,1s0.6-0.1,0.8,0.1c0.2,0.2,0.2-0.1,1.8,0.2
		c-0.1-0.4-1.7-1.7-0.2-3.5c1.5-1.8,1.6-1,1.9-1.4c0.4-0.3,1.7-1.3,4-0.4c2.2-0.4,0.6-0.7,1.8-0.8c0.2-0.1,0.6,0,1.1,0.2
		c0.1-0.3,0.5-0.6,1-0.5c0.1-0.3,0.7-0.7,1.3-0.7c0.1-0.5,1.7-1.2,2.6-1.3c0.4-0.4,0.8-2,2.8-1.2c0.1-0.5,0.4-1.4,1-1.5
		c0.1-1.1-0.2-3.3,0.8-4c1-1,1.9-0.8,3.6-0.7c1.1,0.3,1.7,1.2,2.1,1.3c0.4,0.1,0.5,0.1,1-0.2c0.4-0.3-0.1-1,0.3-1
		c0.4,0,0.2,0.1,0.8,0c0.6-0.1,0.5-0.3,0.9-0.4c0.6,0.3,1.3,0.1,1.6,0.3c0.3,0.2,0.3,0.2,1,0.3c0.2,0.4,0.8,0.4,0.8,0.4
		s-0.4-0.2-0.3-0.4c0.1-0.2,0-1-0.3-1.3c-0.3-0.3-0.4-0.4-0.7-0.7c-0.2-0.3,0.1-0.3-0.3-0.7c-0.4-0.4-1.2-0.8-1.4-1.3
		c-0.2-0.5-0.1-0.8-0.5-1.2c-0.4-0.4-1.8-1.8-1.9-3.2c-0.1-1.5,0.1-2.8,1-3.3c0-0.8,0.2-1,1-1.5c0.8-0.5,0.9-0.2,1.4-0.2
		c0.5,0,0.8,0.1,1.3-0.3s0.1-1.3,1.4-2.6c1.3-1.3,1.9-1.9,2.3-2c0.4-0.1,2.1-1.3,2.7-1.2c0.5-0.6,1-1.4,1.6-1.9
		c0.6-0.5,1.3-0.5,1.6-0.9s0.2-1.1,1.1-1.8c0.9-0.6,1.6-1,2-1.4s1.2-0.1,1.5-0.4c0.3-0.3,0.3-1.5,0.6-1.8c0.3-0.2-1,0.6-1.6,0.9
		c-0.7,0.3-1.6,0.9-2.4,0.8c-0.8-0.1-0.4,0.5-0.8,0.6c-0.4,0.2-1.2,0.1-1.5,0.4c-0.3,0.3-0.8,1.1-1.3,1.5c-0.4,0.3-0.7,0.2-1.1,0.5
		c-0.4,0.2-0.8,0.5-1.2,0.6s-1.5,0.1-1.5,0.1s-1,1.4-1.4,1.9c-0.4,0.5-1,0.4-1.4,0.6c-0.4,0.2-4.2,2.9-6.8,3.3s-1.4-0.2-2.2,0
		c-0.8,0.2-2,1.9-3,2c-1,0.1-1.3,0-1.5,0s-1.4,0.8-2.1,0.6c-1.1,0.4-1.9,0.3-2.2,0.2c-0.3,0-0.9,0.4-1.7,0c-0.6-0.2-0.6,0.3-1.8-0.2
		c-1.2-0.4-2.1,0.2-2.7-0.2c-0.6-0.3-0.5-0.6-1-0.6c-0.4,0-0.4,0.3-1,0.3c-0.5,0-0.6-0.3-1-0.3c-0.4,0-1,0.3-1.6,0.2
		c-0.7-0.1-0.9-0.4-1.3-0.4C47.4,27.3,44.9,26.1,44.9,26.1L44.9,26.1z"/>
	<g>
		<path class="st1" d="M52.8,75.2c1.3-0.9,2.4-1.2,4.2-1.5c1.7-0.3,3.6-0.8,4.6-1.1c1-0.3-3.3,1.2-4.4,1.5
			C56,74.4,52.8,75.2,52.8,75.2z"/>
		<path class="st1" d="M59.8,72.5c-0.4-2.2,0.5-4.5,2.5-5.4C62.8,68.6,61.3,71.3,59.8,72.5L59.8,72.5z"/>
		<path class="st1" d="M63.2,71.3c-1.1-1.8,0.7-4.2,2.1-5.3C65.8,67.1,64.8,70.4,63.2,71.3z"/>
		<path class="st1" d="M66.3,69.9c-1.1-1.6,0.2-4.3,1.6-5.4C68.5,66,67.9,68.8,66.3,69.9z"/>
		<path class="st1" d="M69.4,67.9c-1-1.5-0.3-3.8,1.2-5.3C71.7,63.9,70.8,66.6,69.4,67.9z"/>
		<path class="st1" d="M71.9,65.9c-0.9-1.4,0.2-4.7,1.6-5.6C74.2,61.5,73.7,65,71.9,65.9z"/>
		<path class="st1" d="M74,65.4c-0.3-2,3.2-4.2,4.7-4.2C78.5,62.9,77,64.7,74,65.4z"/>
		<path class="st1" d="M72,67.7c1.6-1.7,4.8-1.7,6-1.3C77.6,67.3,73.9,69.5,72,67.7z"/>
		<path class="st1" d="M69.7,69.4c2.3-0.6,3.8-1.1,5.2,0.3C74,70.9,70.2,70.6,69.7,69.4z"/>
		<path class="st1" d="M66.5,70.9c2.2-1.2,4.9,0.6,5.3,1.6C69.3,73.5,66.4,71.1,66.5,70.9z"/>
		<path class="st1" d="M63.4,72.6c2-0.8,4.3,0.3,5.2,1.4C67.6,74.5,64.8,75,63.4,72.6z"/>
		<path class="st1" d="M60.7,73.4c2.3-0.3,4.5,1.5,5,2.5C62.7,76.2,61.6,75.3,60.7,73.4z"/>
		<path class="st1" d="M59.9,75.2c-1.3-0.9-2.4-1.2-4.2-1.5c-1.7-0.3-3.6-0.8-4.6-1.1c-1-0.3,3.3,1.2,4.4,1.5
			C56.6,74.4,59.9,75.2,59.9,75.2z"/>
		<path class="st1" d="M52.9,72.5c0.4-2.2-0.5-4.5-2.5-5.4C49.9,68.6,51.3,71.3,52.9,72.5z"/>
		<path class="st1" d="M49.5,71.3c1.1-1.8-0.7-4.2-2.1-5.3C46.8,67.1,47.9,70.4,49.5,71.3z"/>
		<path class="st1" d="M46.4,69.9c1.1-1.6-0.2-4.3-1.6-5.4C44.2,66,44.7,68.8,46.4,69.9L46.4,69.9z"/>
		<path class="st1" d="M43.2,67.9c1-1.5,0.3-3.8-1.2-5.3C41,63.9,41.9,66.6,43.2,67.9z"/>
		<path class="st1" d="M40.7,65.9c0.9-1.4-0.2-4.7-1.6-5.6C38.5,61.5,39,65,40.7,65.9L40.7,65.9z"/>
		<path class="st1" d="M38.7,65.4c0.3-2-3.2-4.2-4.7-4.2C34.2,62.9,35.7,64.7,38.7,65.4L38.7,65.4z"/>
		<path class="st1" d="M40.7,67.7c-1.6-1.7-4.8-1.7-6-1.3C35,67.3,38.8,69.5,40.7,67.7L40.7,67.7z"/>
		<path class="st1" d="M42.9,69.4c-2.3-0.6-3.8-1.1-5.2,0.3C38.7,70.9,42.5,70.6,42.9,69.4z"/>
		<path class="st1" d="M46.2,70.9c-2.2-1.2-4.9,0.6-5.3,1.6C43.4,73.5,46.3,71.1,46.2,70.9z"/>
		<path class="st1" d="M49.2,72.6c-2-0.8-4.3,0.3-5.2,1.4C45.1,74.5,47.9,75,49.2,72.6z"/>
		<path class="st1" d="M52,73.4c-2.3-0.3-4.5,1.5-5,2.5C50,76.2,51.1,75.3,52,73.4z"/>
	</g>
	<linearGradient id="SVGID_1_" gradientUnits="userSpaceOnUse" x1="17.5731" y1="40.7748" x2="17.5731" y2="16.2868">
		<stop  offset="0" style="stop-color:#8A8A8A"/>
		<stop  offset="2.572792e-02" style="stop-color:#7A7A7A"/>
		<stop  offset="7.555804e-02" style="stop-color:#525252"/>
		<stop  offset="0.1436" style="stop-color:#121212"/>
		<stop  offset="0.1597" style="stop-color:#171717"/>
		<stop  offset="0.1795" style="stop-color:#262626"/>
		<stop  offset="0.2012" style="stop-color:#3F3F3F"/>
		<stop  offset="0.2243" style="stop-color:#626262"/>
		<stop  offset="0.2485" style="stop-color:#8E8E8E"/>
		<stop  offset="0.2732" style="stop-color:#C4C4C4"/>
		<stop  offset="0.2797" style="stop-color:#D4D4D4"/>
		<stop  offset="0.3594" style="stop-color:#CACACA"/>
		<stop  offset="0.4956" style="stop-color:#AEAEAE"/>
		<stop  offset="0.6717" style="stop-color:#828282"/>
		<stop  offset="0.8788" style="stop-color:#454545"/>
		<stop  offset="1" style="stop-color:#1F1F1F"/>
	</linearGradient>
	<path class="st2" d="M20.2,30.5V31h0.3c0.9,0,1.6,0.2,2.1,0.6c0.5,0.4,0.7,1,0.7,1.8l0,4.6c-0.7,0.6-1.6,0.8-2.4,1.1
		c-0.3,0.1-1,0.2-1.3,0.2c-0.3,0-0.7,0-1.1,0c-2.9,0-5.1-1-6.8-3.1c-1.7-2.1-2-4.8-2-8.1c0-3.3,0.6-5.8,2.3-7.7
		c1.8-1.9,3.7-2.9,6.2-2.9c2,0,3.8,0.6,5.3,1.6c1.5,1.1,2.4,2.5,3,4.4h0.5v-7.1h-0.5c0,0.4-0.2,0.8-0.4,1c-0.2,0.2-0.5,0.4-0.8,0.4
		c-0.4,0-1.2-0.3-2.5-0.8c-1.3-0.5-2.8-0.8-4.5-0.8c-3.8,0-7.1,1.1-9.7,3.4c-2.5,2.3-3.9,5.1-3.9,8.8c0,3.7,1.5,6.9,4,9
		c2.5,2.1,5.7,3.2,9.6,3.2c0.4,0,0.7,0,1.1,0v0c1.1-0.1,1.9-0.2,2.8-0.5c1.6-0.4,3.2-1.2,4.6-2.1v-4.8c0-0.8,0.2-1.4,0.7-1.8
		c0.5-0.4,1.2-0.6,2.2-0.6h0.3v-0.5H20.2z"/>
	<linearGradient id="SVGID_2_" gradientUnits="userSpaceOnUse" x1="34.5973" y1="40.36" x2="34.5973" y2="35.5816">
		<stop  offset="0" style="stop-color:#828282"/>
		<stop  offset="5.436685e-02" style="stop-color:#626262"/>
		<stop  offset="0.1155" style="stop-color:#454545"/>
		<stop  offset="0.181" style="stop-color:#2E2E2E"/>
		<stop  offset="0.2518" style="stop-color:#1E1E1E"/>
		<stop  offset="0.3318" style="stop-color:#151515"/>
		<stop  offset="0.4406" style="stop-color:#121212"/>
		<stop  offset="0.5371" style="stop-color:#2D2D2D"/>
		<stop  offset="1" style="stop-color:#EDEDED"/>
	</linearGradient>
	<path class="st3" d="M32.2,38c0-0.6,0.2-1.2,0.7-1.7c0.5-0.5,1-0.7,1.7-0.7c0.6,0,1.2,0.2,1.7,0.7c0.5,0.5,0.7,1,0.7,1.7
		c0,0.7-0.3,1.2-0.7,1.7c-0.5,0.5-1,0.7-1.7,0.7c-0.7,0-1.2-0.2-1.7-0.7C32.4,39.2,32.2,38.6,32.2,38z"/>
	<linearGradient id="SVGID_3_" gradientUnits="userSpaceOnUse" x1="57.5956" y1="40.7743" x2="57.5956" y2="16.2865">
		<stop  offset="0" style="stop-color:#8A8A8A"/>
		<stop  offset="2.572792e-02" style="stop-color:#7A7A7A"/>
		<stop  offset="7.555804e-02" style="stop-color:#525252"/>
		<stop  offset="0.1436" style="stop-color:#121212"/>
		<stop  offset="0.1597" style="stop-color:#171717"/>
		<stop  offset="0.1795" style="stop-color:#262626"/>
		<stop  offset="0.2012" style="stop-color:#3F3F3F"/>
		<stop  offset="0.2243" style="stop-color:#626262"/>
		<stop  offset="0.2485" style="stop-color:#8E8E8E"/>
		<stop  offset="0.2732" style="stop-color:#C4C4C4"/>
		<stop  offset="0.2797" style="stop-color:#D4D4D4"/>
		<stop  offset="0.3594" style="stop-color:#CACACA"/>
		<stop  offset="0.4956" style="stop-color:#AEAEAE"/>
		<stop  offset="0.6717" style="stop-color:#828282"/>
		<stop  offset="0.8788" style="stop-color:#454545"/>
		<stop  offset="1" style="stop-color:#1F1F1F"/>
	</linearGradient>
	<path class="st4" d="M63.9,16.3V24h-0.5c-0.1-1.7-0.8-3.2-2-4.4c-1.2-1.2-2.7-1.9-4.4-1.9c-1.2,0-2.1,0.3-2.9,1
		c-0.8,0.7-1.1,1.4-1.1,2.3c0,0.8,0.3,1.6,0.9,2.3c0.6,0.7,2.5,2,5.7,3.8c2.2,1.2,3.7,2.5,4.6,3.7c0.9,1.2,1.3,2.6,1.3,4.1
		c0,1.7-0.7,3.2-2.2,4.3c-1.5,1.1-3.4,1.7-5.7,1.7c-1.1,0-2.2-0.2-3.2-0.6c-1.1-0.4-1.8-0.6-2.2-0.6c-0.1,0-0.2,0-0.3,0
		c-0.1,0-0.2,0-0.2,0c-0.3,0.1-0.6,0.2-0.8,0.4c-0.2,0.2-0.4,0.5-0.4,0.8h-0.5l0-8.1h0.5c0.3,2,1.1,3.6,2.3,4.8
		c1.2,1.2,2.7,1.8,4.4,1.8c1.4,0,2.5-0.3,3.4-0.9c0.9-0.6,1.4-1.5,1.4-2.6c0-1.1-0.4-2.1-1.2-3c-0.8-0.9-2.3-2-4.6-3.2
		c-2.5-1.3-4.1-2.5-5-3.6c-0.9-1.1-1.3-2.3-1.3-3.6c0-1.8,0.7-3.3,2.1-4.4c1.4-1.1,3.1-1.7,5.2-1.7c1.1,0,2.3,0.2,3.3,0.6
		c1.1,0.4,1.7,0.6,2,0.6c0.3,0,0.5-0.1,0.8-0.3c0.2-0.2,0.4-0.5,0.5-0.8H63.9z"/>
	<linearGradient id="SVGID_4_" gradientUnits="userSpaceOnUse" x1="71.5868" y1="40.36" x2="71.5868" y2="35.5816">
		<stop  offset="0" style="stop-color:#828282"/>
		<stop  offset="5.436685e-02" style="stop-color:#626262"/>
		<stop  offset="0.1155" style="stop-color:#454545"/>
		<stop  offset="0.181" style="stop-color:#2E2E2E"/>
		<stop  offset="0.2518" style="stop-color:#1E1E1E"/>
		<stop  offset="0.3318" style="stop-color:#151515"/>
		<stop  offset="0.4406" style="stop-color:#121212"/>
		<stop  offset="0.5371" style="stop-color:#2D2D2D"/>
		<stop  offset="1" style="stop-color:#EDEDED"/>
	</linearGradient>
	<path class="st5" d="M69.2,38c0-0.6,0.2-1.2,0.7-1.7c0.5-0.5,1-0.7,1.7-0.7c0.6,0,1.2,0.2,1.7,0.7c0.5,0.5,0.7,1,0.7,1.7
		c0,0.7-0.3,1.2-0.7,1.7c-0.5,0.5-1,0.7-1.7,0.7c-0.7,0-1.2-0.2-1.7-0.7C69.4,39.2,69.2,38.6,69.2,38z"/>
	<linearGradient id="SVGID_5_" gradientUnits="userSpaceOnUse" x1="91.9067" y1="40.453" x2="91.9067" y2="16.6079">
		<stop  offset="0" style="stop-color:#8A8A8A"/>
		<stop  offset="2.572792e-02" style="stop-color:#7A7A7A"/>
		<stop  offset="7.555804e-02" style="stop-color:#525252"/>
		<stop  offset="0.1436" style="stop-color:#121212"/>
		<stop  offset="0.1597" style="stop-color:#171717"/>
		<stop  offset="0.1795" style="stop-color:#262626"/>
		<stop  offset="0.2012" style="stop-color:#3F3F3F"/>
		<stop  offset="0.2243" style="stop-color:#626262"/>
		<stop  offset="0.2485" style="stop-color:#8E8E8E"/>
		<stop  offset="0.2732" style="stop-color:#C4C4C4"/>
		<stop  offset="0.2797" style="stop-color:#D4D4D4"/>
		<stop  offset="0.3594" style="stop-color:#CACACA"/>
		<stop  offset="0.4956" style="stop-color:#AEAEAE"/>
		<stop  offset="0.6717" style="stop-color:#828282"/>
		<stop  offset="0.8788" style="stop-color:#454545"/>
		<stop  offset="1" style="stop-color:#1F1F1F"/>
	</linearGradient>
	<path class="st6" d="M85.8,16.6H98v0.4h-0.7c-1.1,0-1.9,0.2-2.5,0.6c-0.5,0.4-0.8,1-0.8,1.8v18.1c0,0.9,0.2,1.5,0.8,1.8
		c0.6,0.4,1.4,0.6,2.5,0.6H98v0.5H85.8V40h0.7c1.1,0,1.9-0.2,2.4-0.5c0.6-0.4,0.8-1,0.8-1.9V19.5c0-0.8-0.3-1.4-0.8-1.8
		c-0.5-0.4-1.3-0.6-2.4-0.6h-0.7V16.6z"/>
	<linearGradient id="SVGID_6_" gradientUnits="userSpaceOnUse" x1="103.5299" y1="40.36" x2="103.5299" y2="35.5816">
		<stop  offset="0" style="stop-color:#828282"/>
		<stop  offset="5.436685e-02" style="stop-color:#626262"/>
		<stop  offset="0.1155" style="stop-color:#454545"/>
		<stop  offset="0.181" style="stop-color:#2E2E2E"/>
		<stop  offset="0.2518" style="stop-color:#1E1E1E"/>
		<stop  offset="0.3318" style="stop-color:#151515"/>
		<stop  offset="0.4406" style="stop-color:#121212"/>
		<stop  offset="0.5371" style="stop-color:#2D2D2D"/>
		<stop  offset="1" style="stop-color:#EDEDED"/>
	</linearGradient>
	<path class="st7" d="M101.1,38c0-0.6,0.2-1.2,0.7-1.7c0.5-0.5,1-0.7,1.7-0.7c0.6,0,1.2,0.2,1.7,0.7c0.5,0.5,0.7,1,0.7,1.7
		c0,0.7-0.3,1.2-0.7,1.7c-0.5,0.5-1,0.7-1.7,0.7c-0.7,0-1.2-0.2-1.7-0.7C101.3,39.2,101.1,38.6,101.1,38z"/>
	<g>
		<path class="st8" d="M13.4,83.3h2L15,85.2c-0.2,0.2-0.5,0.3-0.9,0.4c-0.3,0.1-0.7,0.2-1,0.2c-0.6,0-1-0.1-1.3-0.4
			c-0.4-0.3-0.5-0.8-0.5-1.5c0-0.5,0.1-1,0.4-1.5c0.2-0.5,0.6-0.8,0.9-1c0.4-0.2,0.8-0.3,1.2-0.3c0.5,0,0.9,0.1,1.2,0.4
			s0.5,0.6,0.6,1.1l-0.9,0.1c-0.2-0.5-0.5-0.8-1-0.8c-0.3,0-0.5,0.1-0.8,0.2c-0.2,0.1-0.4,0.4-0.6,0.7c-0.2,0.3-0.2,0.7-0.2,1.1
			c0,0.4,0.1,0.7,0.3,0.8c0.2,0.2,0.4,0.3,0.8,0.3c0.2,0,0.4,0,0.5-0.1c0.2-0.1,0.4-0.1,0.6-0.2l0.1-0.7h-1.1L13.4,83.3z"/>
		<path class="st8" d="M15.8,85.7l0.9-4.5h0.9l-0.8,3.8h2.3L19,85.7H15.8z"/>
		<path class="st8" d="M19.9,83.9c0-0.4,0.1-0.8,0.2-1.2c0.2-0.5,0.5-0.9,0.9-1.2c0.4-0.3,0.9-0.4,1.4-0.4c0.5,0,1,0.2,1.3,0.5
			c0.3,0.3,0.5,0.8,0.5,1.4c0,0.5-0.1,1-0.4,1.5c-0.2,0.4-0.6,0.8-0.9,1c-0.4,0.2-0.8,0.3-1.2,0.3c-0.5,0-1-0.2-1.3-0.5
			C20.1,84.9,19.9,84.5,19.9,83.9z M20.8,83.9c0,0.3,0.1,0.6,0.3,0.8c0.2,0.2,0.4,0.3,0.7,0.3c0.2,0,0.5-0.1,0.7-0.2
			c0.2-0.1,0.4-0.4,0.6-0.7c0.2-0.3,0.2-0.7,0.2-1c0-0.4-0.1-0.7-0.3-0.9c-0.2-0.2-0.4-0.3-0.7-0.3c-0.2,0-0.5,0.1-0.7,0.2
			c-0.2,0.1-0.4,0.4-0.6,0.7C20.9,83.1,20.8,83.5,20.8,83.9z"/>
		<path class="st8" d="M24.5,85.7l0.9-4.5H27c0.4,0,0.7,0,0.9,0.1c0.3,0.1,0.5,0.2,0.6,0.4s0.2,0.4,0.2,0.7c0,0.3-0.1,0.5-0.2,0.7
			c-0.1,0.2-0.4,0.3-0.6,0.4c0.2,0.1,0.4,0.2,0.5,0.3c0.1,0.2,0.2,0.3,0.2,0.6c0,0.3-0.1,0.6-0.2,0.8c-0.2,0.2-0.4,0.4-0.6,0.5
			c-0.3,0.1-0.6,0.2-1.1,0.2H24.5z M25.6,84.9h0.9c0.3,0,0.6,0,0.7-0.1c0.1,0,0.2-0.1,0.3-0.2c0.1-0.1,0.1-0.2,0.1-0.4
			c0-0.2-0.1-0.3-0.2-0.4c-0.1-0.1-0.3-0.1-0.5-0.1h-1.1L25.6,84.9z M26,83h0.7c0.3,0,0.5,0,0.7-0.1c0.1,0,0.2-0.1,0.3-0.2
			c0.1-0.1,0.1-0.2,0.1-0.3c0-0.1,0-0.2-0.1-0.3c-0.1-0.1-0.1-0.1-0.2-0.1c-0.1,0-0.3,0-0.6,0h-0.7L26,83z"/>
		<path class="st8" d="M31.9,84.7h-1.8l-0.5,1h-0.9l2.5-4.5h1l0.7,4.5h-0.9L31.9,84.7z M31.8,83.9l-0.3-1.8l-1,1.8H31.8z"/>
		<path class="st8" d="M33.5,85.7l0.9-4.5h0.9l-0.8,3.8h2.3l-0.2,0.8H33.5z"/>
		<path class="st8" d="M39.1,84.2l0.9,0c0,0.2,0,0.4,0.1,0.5c0.1,0.1,0.1,0.2,0.3,0.2c0.1,0.1,0.3,0.1,0.5,0.1
			c0.3,0,0.5-0.1,0.6-0.2c0.1-0.1,0.2-0.2,0.2-0.4c0-0.1,0-0.2-0.1-0.3c-0.1-0.1-0.3-0.2-0.6-0.3c-0.4-0.2-0.7-0.3-0.9-0.4
			c-0.1-0.1-0.3-0.2-0.3-0.4c-0.1-0.2-0.1-0.3-0.1-0.5c0-0.4,0.1-0.7,0.4-1c0.3-0.2,0.7-0.4,1.2-0.4c0.5,0,0.9,0.1,1.2,0.4
			s0.5,0.6,0.5,1l-0.9,0c0-0.4-0.3-0.7-0.8-0.7c-0.2,0-0.4,0-0.5,0.1c-0.1,0.1-0.2,0.2-0.2,0.4c0,0.1,0.1,0.2,0.2,0.3
			c0.1,0.1,0.3,0.2,0.6,0.3c0.4,0.2,0.7,0.3,0.9,0.4c0.1,0.1,0.3,0.2,0.3,0.4c0.1,0.2,0.1,0.3,0.1,0.5c0,0.4-0.2,0.8-0.5,1
			c-0.3,0.3-0.8,0.4-1.3,0.4c-0.4,0-0.7-0.1-1-0.2c-0.3-0.1-0.5-0.3-0.6-0.6S39.1,84.5,39.1,84.2z"/>
		<path class="st8" d="M43.1,85.7l0.9-4.5h3.3l-0.2,0.8h-2.4l-0.2,1h2.3l-0.2,0.8h-2.3l-0.3,1.2h2.6l-0.2,0.8H43.1z"/>
		<path class="st8" d="M48.2,85.7h-0.9l0.9-4.5h2c0.4,0,0.6,0,0.8,0.1c0.2,0.1,0.3,0.2,0.4,0.4c0.1,0.2,0.2,0.4,0.2,0.7
			c0,0.4-0.1,0.7-0.4,1c-0.2,0.2-0.6,0.4-1,0.4c0.1,0.1,0.2,0.3,0.4,0.5c0.2,0.3,0.4,0.8,0.7,1.4h-1c0-0.1-0.2-0.5-0.4-1
			c-0.1-0.3-0.2-0.5-0.3-0.6c-0.1-0.1-0.1-0.1-0.2-0.2s-0.2,0-0.4,0h-0.4L48.2,85.7z M48.7,83.1h0.5c0.5,0,0.8,0,0.9-0.1
			c0.2,0,0.3-0.1,0.4-0.3c0.1-0.1,0.2-0.3,0.2-0.4c0-0.2-0.1-0.3-0.2-0.4c-0.1,0-0.3-0.1-0.5-0.1h-1L48.7,83.1z"/>
		<path class="st8" d="M53.9,85.7h-1l-0.8-4.5H53l0.6,3.4l1.8-3.4h0.9L53.9,85.7z"/>
		<path class="st8" d="M55.7,85.7l1-4.5h0.9l-1,4.5H55.7z"/>
		<path class="st8" d="M60.8,84l0.9,0.1c-0.2,0.5-0.5,0.9-0.8,1.2c-0.4,0.3-0.8,0.4-1.3,0.4c-0.5,0-1-0.2-1.3-0.5
			c-0.3-0.3-0.5-0.8-0.5-1.5c0-0.6,0.1-1,0.3-1.5c0.2-0.4,0.5-0.7,0.9-0.9s0.7-0.3,1.1-0.3c0.5,0,0.9,0.1,1.2,0.4
			c0.3,0.3,0.5,0.6,0.5,1.1l-0.9,0.1c-0.1-0.3-0.1-0.5-0.3-0.6c-0.1-0.1-0.3-0.2-0.5-0.2c-0.2,0-0.5,0.1-0.7,0.2
			c-0.2,0.1-0.4,0.4-0.5,0.7c-0.1,0.3-0.2,0.7-0.2,1.1c0,0.4,0.1,0.6,0.3,0.8c0.2,0.2,0.4,0.3,0.6,0.3c0.2,0,0.5-0.1,0.7-0.2
			C60.5,84.6,60.7,84.4,60.8,84z"/>
		<path class="st8" d="M62.1,85.7l0.9-4.5h3.3l-0.2,0.8h-2.4l-0.2,1h2.3l-0.2,0.8h-2.3l-0.3,1.2h2.6l-0.2,0.8H62.1z"/>
		<path class="st8" d="M67.8,85.7l1-4.5h0.9l-1,4.5H67.8z"/>
		<path class="st8" d="M73.3,85.7h-0.9l-1.2-3l-0.6,3h-0.9l0.9-4.5h0.9l1.2,3l0.6-3h0.9L73.3,85.7z"/>
		<path class="st8" d="M74.2,85.7l0.9-4.5h1.2c0.4,0,0.7,0,0.9,0c0.3,0.1,0.5,0.2,0.7,0.3c0.2,0.2,0.3,0.4,0.4,0.6s0.2,0.6,0.2,0.9
			c0,0.4-0.1,0.7-0.2,1c-0.1,0.3-0.3,0.6-0.5,0.8c-0.2,0.2-0.4,0.4-0.6,0.5c-0.2,0.1-0.4,0.2-0.7,0.2c-0.2,0-0.4,0-0.7,0H74.2z
			 M75.3,84.9h0.5c0.3,0,0.6,0,0.7-0.1c0.2,0,0.3-0.2,0.5-0.3c0.2-0.2,0.3-0.4,0.4-0.6c0.1-0.3,0.2-0.6,0.2-0.9c0-0.3,0-0.5-0.1-0.7
			C77.3,82.1,77.2,82,77,82c-0.1,0-0.3-0.1-0.6-0.1h-0.5L75.3,84.9z"/>
		<path class="st8" d="M79.6,81.1h0.9L80,83.6l-0.1,0.6c0,0.1,0,0.1,0,0.2c0,0.2,0.1,0.3,0.2,0.5c0.1,0.1,0.3,0.2,0.5,0.2
			c0.2,0,0.4,0,0.5-0.1c0.1-0.1,0.3-0.2,0.3-0.3c0.1-0.2,0.2-0.5,0.3-0.9l0.5-2.5h0.9l-0.5,2.5c-0.1,0.5-0.2,0.9-0.3,1.1
			c-0.2,0.3-0.4,0.6-0.7,0.8c-0.3,0.2-0.6,0.3-1.1,0.3c-0.5,0-0.9-0.1-1.2-0.4c-0.3-0.2-0.4-0.6-0.4-1c0-0.1,0-0.4,0.1-0.8
			L79.6,81.1z"/>
		<path class="st8" d="M83.3,84.2l0.9,0c0,0.2,0,0.4,0.1,0.5c0.1,0.1,0.1,0.2,0.3,0.2c0.1,0.1,0.3,0.1,0.5,0.1
			c0.3,0,0.5-0.1,0.6-0.2c0.1-0.1,0.2-0.2,0.2-0.4c0-0.1,0-0.2-0.1-0.3c-0.1-0.1-0.3-0.2-0.6-0.3c-0.4-0.2-0.7-0.3-0.9-0.4
			c-0.1-0.1-0.3-0.2-0.3-0.4c-0.1-0.2-0.1-0.3-0.1-0.5c0-0.4,0.1-0.7,0.4-1c0.3-0.2,0.7-0.4,1.2-0.4c0.5,0,0.9,0.1,1.2,0.4
			s0.5,0.6,0.5,1l-0.9,0c0-0.4-0.3-0.7-0.8-0.7c-0.2,0-0.4,0-0.5,0.1c-0.1,0.1-0.2,0.2-0.2,0.4c0,0.1,0.1,0.2,0.2,0.3
			c0.1,0.1,0.3,0.2,0.6,0.3c0.4,0.2,0.7,0.3,0.9,0.4c0.1,0.1,0.3,0.2,0.3,0.4c0.1,0.2,0.1,0.3,0.1,0.5c0,0.4-0.2,0.8-0.5,1
			c-0.3,0.3-0.8,0.4-1.3,0.4c-0.4,0-0.7-0.1-1-0.2c-0.3-0.1-0.5-0.3-0.6-0.6C83.4,84.7,83.3,84.5,83.3,84.2z"/>
		<path class="st8" d="M89.3,85.7h-0.9l0.8-3.8h-1.3l0.2-0.8h3.6l-0.2,0.8h-1.3L89.3,85.7z"/>
		<path class="st8" d="M92.1,85.7h-0.9l0.9-4.5h2c0.4,0,0.6,0,0.8,0.1c0.2,0.1,0.3,0.2,0.4,0.4c0.1,0.2,0.2,0.4,0.2,0.7
			c0,0.4-0.1,0.7-0.4,1c-0.2,0.2-0.6,0.4-1,0.4c0.1,0.1,0.2,0.3,0.4,0.5c0.2,0.3,0.4,0.8,0.7,1.4h-1c0-0.1-0.2-0.5-0.4-1
			c-0.1-0.3-0.2-0.5-0.3-0.6c-0.1-0.1-0.1-0.1-0.2-0.2c-0.1,0-0.2,0-0.4,0h-0.4L92.1,85.7z M92.7,83.1h0.5c0.5,0,0.8,0,0.9-0.1
			c0.2,0,0.3-0.1,0.4-0.3c0.1-0.1,0.2-0.3,0.2-0.4c0-0.2-0.1-0.3-0.2-0.4c-0.1,0-0.3-0.1-0.5-0.1h-1L92.7,83.1z"/>
		<path class="st8" d="M97.7,85.7h-0.9l0.4-1.8l-1.2-2.8h1l0.6,1.3c0.1,0.3,0.2,0.5,0.3,0.7c0.1-0.1,0.2-0.3,0.3-0.4l0.4-0.6
			l0.6-0.9h1.1L98,84L97.7,85.7z"/>
	</g>
	<g>
		<linearGradient id="SVGID_7_" gradientUnits="userSpaceOnUse" x1="3.7641" y1="56.1853" x2="3.7641" y2="49.4485">
			<stop  offset="8.415841e-02" style="stop-color:#303030"/>
			<stop  offset="0.1053" style="stop-color:#3B3B3B"/>
			<stop  offset="0.2842" style="stop-color:#8C8C8C"/>
			<stop  offset="0.4108" style="stop-color:#C0C0C0"/>
			<stop  offset="0.4728" style="stop-color:#D4D4D4"/>
			<stop  offset="0.5887" style="stop-color:#A4A4A4"/>
			<stop  offset="0.7227" style="stop-color:#747474"/>
			<stop  offset="0.8409" style="stop-color:#505050"/>
			<stop  offset="0.9373" style="stop-color:#3B3B3B"/>
			<stop  offset="1" style="stop-color:#333333"/>
		</linearGradient>
		<path class="st9" d="M4,53.7v-1.1h2.8v2.6c-0.3,0.3-0.7,0.5-1.2,0.7c-0.5,0.2-1,0.3-1.6,0.3c-0.6,0-1.2-0.1-1.7-0.4
			s-0.9-0.6-1.2-1.2c-0.3-0.5-0.4-1.1-0.4-1.8c0-0.7,0.1-1.3,0.4-1.8s0.7-0.9,1.1-1.1c0.5-0.3,1-0.4,1.7-0.4c0.8,0,1.4,0.2,1.9,0.5
			c0.5,0.3,0.8,0.8,0.9,1.4l-1.3,0.2c-0.1-0.3-0.3-0.6-0.5-0.8c-0.3-0.2-0.6-0.3-0.9-0.3c-0.6,0-1,0.2-1.4,0.5
			c-0.3,0.4-0.5,0.9-0.5,1.6c0,0.8,0.2,1.4,0.6,1.8c0.3,0.4,0.8,0.5,1.3,0.5c0.3,0,0.5,0,0.8-0.1c0.3-0.1,0.5-0.2,0.7-0.4v-0.8H4z"
			/>
		<linearGradient id="SVGID_8_" gradientUnits="userSpaceOnUse" x1="10.9435" y1="56.0743" x2="10.9435" y2="49.5596">
			<stop  offset="8.415841e-02" style="stop-color:#303030"/>
			<stop  offset="0.1053" style="stop-color:#3B3B3B"/>
			<stop  offset="0.2842" style="stop-color:#8C8C8C"/>
			<stop  offset="0.4108" style="stop-color:#C0C0C0"/>
			<stop  offset="0.4728" style="stop-color:#D4D4D4"/>
			<stop  offset="0.5887" style="stop-color:#A4A4A4"/>
			<stop  offset="0.7227" style="stop-color:#747474"/>
			<stop  offset="0.8409" style="stop-color:#505050"/>
			<stop  offset="0.9373" style="stop-color:#3B3B3B"/>
			<stop  offset="1" style="stop-color:#333333"/>
		</linearGradient>
		<path class="st10" d="M8,56.1v-6.5h2.8c0.7,0,1.2,0.1,1.5,0.2c0.3,0.1,0.6,0.3,0.7,0.6c0.2,0.3,0.3,0.6,0.3,1
			c0,0.5-0.1,0.9-0.4,1.2c-0.3,0.3-0.7,0.5-1.3,0.6c0.3,0.2,0.5,0.3,0.7,0.5c0.2,0.2,0.4,0.6,0.8,1.1l0.8,1.3h-1.6l-1-1.4
			c-0.3-0.5-0.6-0.8-0.7-1c-0.1-0.1-0.3-0.2-0.4-0.3c-0.1,0-0.4-0.1-0.7-0.1H9.3v2.7H8z M9.3,52.3h1c0.6,0,1,0,1.1-0.1
			c0.2,0,0.3-0.1,0.4-0.3c0.1-0.1,0.2-0.3,0.2-0.5c0-0.2-0.1-0.4-0.2-0.5c-0.1-0.1-0.2-0.2-0.4-0.3c-0.1,0-0.5,0-1.1,0h-1V52.3z"/>
		<linearGradient id="SVGID_9_" gradientUnits="userSpaceOnUse" x1="17.463" y1="56.1853" x2="17.463" y2="49.4485">
			<stop  offset="8.415841e-02" style="stop-color:#303030"/>
			<stop  offset="0.1053" style="stop-color:#3B3B3B"/>
			<stop  offset="0.2842" style="stop-color:#8C8C8C"/>
			<stop  offset="0.4108" style="stop-color:#C0C0C0"/>
			<stop  offset="0.4728" style="stop-color:#D4D4D4"/>
			<stop  offset="0.5887" style="stop-color:#A4A4A4"/>
			<stop  offset="0.7227" style="stop-color:#747474"/>
			<stop  offset="0.8409" style="stop-color:#505050"/>
			<stop  offset="0.9373" style="stop-color:#3B3B3B"/>
			<stop  offset="1" style="stop-color:#333333"/>
		</linearGradient>
		<path class="st11" d="M14.3,52.9c0-0.8,0.1-1.4,0.4-1.9s0.6-0.9,1.1-1.1c0.5-0.2,1-0.4,1.6-0.4c0.9,0,1.7,0.3,2.3,0.9
			c0.6,0.6,0.9,1.4,0.9,2.5c0,1.1-0.3,1.9-0.9,2.6c-0.5,0.5-1.3,0.8-2.2,0.8c-0.9,0-1.7-0.3-2.2-0.8C14.6,54.8,14.3,53.9,14.3,52.9z
			 M15.7,52.8c0,0.7,0.2,1.3,0.5,1.7c0.3,0.4,0.8,0.6,1.3,0.6c0.5,0,0.9-0.2,1.3-0.6c0.3-0.4,0.5-0.9,0.5-1.7c0-0.8-0.2-1.3-0.5-1.7
			c-0.3-0.4-0.8-0.5-1.3-0.5s-1,0.2-1.3,0.5C15.8,51.5,15.7,52,15.7,52.8z"/>
		<linearGradient id="SVGID_10_" gradientUnits="userSpaceOnUse" x1="24.2286" y1="56.1853" x2="24.2286" y2="49.5596">
			<stop  offset="8.415841e-02" style="stop-color:#303030"/>
			<stop  offset="0.1053" style="stop-color:#3B3B3B"/>
			<stop  offset="0.2842" style="stop-color:#8C8C8C"/>
			<stop  offset="0.4108" style="stop-color:#C0C0C0"/>
			<stop  offset="0.4728" style="stop-color:#D4D4D4"/>
			<stop  offset="0.5887" style="stop-color:#A4A4A4"/>
			<stop  offset="0.7227" style="stop-color:#747474"/>
			<stop  offset="0.8409" style="stop-color:#505050"/>
			<stop  offset="0.9373" style="stop-color:#3B3B3B"/>
			<stop  offset="1" style="stop-color:#333333"/>
		</linearGradient>
		<path class="st12" d="M21.6,49.6h1.3v3.5c0,0.5,0,0.9,0,1.1c0.1,0.3,0.2,0.5,0.4,0.7c0.2,0.2,0.5,0.2,0.9,0.2
			c0.3,0,0.6-0.1,0.7-0.2c0.2-0.1,0.3-0.3,0.4-0.5c0.1-0.2,0.1-0.6,0.1-1.3v-3.6h1.3V53c0,0.9-0.1,1.5-0.2,1.9
			c-0.1,0.4-0.4,0.7-0.8,0.9c-0.4,0.2-0.9,0.4-1.6,0.4c-0.7,0-1.2-0.1-1.6-0.3c-0.4-0.2-0.7-0.5-0.8-0.8c-0.2-0.4-0.3-1-0.3-2V49.6z
			"/>
		<linearGradient id="SVGID_11_" gradientUnits="userSpaceOnUse" x1="30.6939" y1="56.0743" x2="30.6939" y2="49.5596">
			<stop  offset="8.415841e-02" style="stop-color:#303030"/>
			<stop  offset="0.1053" style="stop-color:#3B3B3B"/>
			<stop  offset="0.2842" style="stop-color:#8C8C8C"/>
			<stop  offset="0.4108" style="stop-color:#C0C0C0"/>
			<stop  offset="0.4728" style="stop-color:#D4D4D4"/>
			<stop  offset="0.5887" style="stop-color:#A4A4A4"/>
			<stop  offset="0.7227" style="stop-color:#747474"/>
			<stop  offset="0.8409" style="stop-color:#505050"/>
			<stop  offset="0.9373" style="stop-color:#3B3B3B"/>
			<stop  offset="1" style="stop-color:#333333"/>
		</linearGradient>
		<path class="st13" d="M28.2,56.1v-6.5h2.1c0.8,0,1.3,0,1.5,0.1c0.4,0.1,0.7,0.3,1,0.6c0.3,0.3,0.4,0.8,0.4,1.3
			c0,0.5-0.1,0.9-0.3,1.2c-0.2,0.3-0.5,0.5-0.8,0.7c-0.3,0.1-0.9,0.2-1.7,0.2h-0.9v2.5H28.2z M29.5,50.7v1.9h0.7c0.5,0,0.8,0,1-0.1
			c0.2-0.1,0.3-0.2,0.4-0.3c0.1-0.1,0.2-0.3,0.2-0.5c0-0.2-0.1-0.4-0.2-0.5c-0.1-0.1-0.3-0.2-0.4-0.3c-0.2-0.1-0.5-0.1-1.1-0.1H29.5
			z"/>
		<linearGradient id="SVGID_12_" gradientUnits="userSpaceOnUse" x1="37.2485" y1="56.0743" x2="37.2485" y2="49.5596">
			<stop  offset="8.415841e-02" style="stop-color:#303030"/>
			<stop  offset="0.1053" style="stop-color:#3B3B3B"/>
			<stop  offset="0.2842" style="stop-color:#8C8C8C"/>
			<stop  offset="0.4108" style="stop-color:#C0C0C0"/>
			<stop  offset="0.4728" style="stop-color:#D4D4D4"/>
			<stop  offset="0.5887" style="stop-color:#A4A4A4"/>
			<stop  offset="0.7227" style="stop-color:#747474"/>
			<stop  offset="0.8409" style="stop-color:#505050"/>
			<stop  offset="0.9373" style="stop-color:#3B3B3B"/>
			<stop  offset="1" style="stop-color:#333333"/>
		</linearGradient>
		<path class="st14" d="M36.6,56.1v-6.5h1.3v6.5H36.6z"/>
		<linearGradient id="SVGID_13_" gradientUnits="userSpaceOnUse" x1="41.7553" y1="56.0743" x2="41.7553" y2="49.5596">
			<stop  offset="8.415841e-02" style="stop-color:#303030"/>
			<stop  offset="0.1053" style="stop-color:#3B3B3B"/>
			<stop  offset="0.2842" style="stop-color:#8C8C8C"/>
			<stop  offset="0.4108" style="stop-color:#C0C0C0"/>
			<stop  offset="0.4728" style="stop-color:#D4D4D4"/>
			<stop  offset="0.5887" style="stop-color:#A4A4A4"/>
			<stop  offset="0.7227" style="stop-color:#747474"/>
			<stop  offset="0.8409" style="stop-color:#505050"/>
			<stop  offset="0.9373" style="stop-color:#3B3B3B"/>
			<stop  offset="1" style="stop-color:#333333"/>
		</linearGradient>
		<path class="st15" d="M39.2,56.1v-6.5h1.3l2.7,4.4v-4.4h1.2v6.5H43l-2.6-4.2v4.2H39.2z"/>
		<linearGradient id="SVGID_14_" gradientUnits="userSpaceOnUse" x1="48.4343" y1="56.0743" x2="48.4343" y2="49.5596">
			<stop  offset="8.415841e-02" style="stop-color:#303030"/>
			<stop  offset="0.1053" style="stop-color:#3B3B3B"/>
			<stop  offset="0.2842" style="stop-color:#8C8C8C"/>
			<stop  offset="0.4108" style="stop-color:#C0C0C0"/>
			<stop  offset="0.4728" style="stop-color:#D4D4D4"/>
			<stop  offset="0.5887" style="stop-color:#A4A4A4"/>
			<stop  offset="0.7227" style="stop-color:#747474"/>
			<stop  offset="0.8409" style="stop-color:#505050"/>
			<stop  offset="0.9373" style="stop-color:#3B3B3B"/>
			<stop  offset="1" style="stop-color:#333333"/>
		</linearGradient>
		<path class="st16" d="M45.7,49.6h2.4c0.6,0,1.1,0.1,1.4,0.2c0.3,0.1,0.6,0.3,0.9,0.6c0.3,0.3,0.5,0.6,0.6,1
			c0.1,0.4,0.2,0.9,0.2,1.6c0,0.6-0.1,1.1-0.2,1.5c-0.2,0.4-0.4,0.7-0.6,1c-0.2,0.2-0.5,0.4-0.9,0.5c-0.3,0.1-0.8,0.2-1.3,0.2h-2.5
			V49.6z M47,50.7V55h1c0.4,0,0.7,0,0.9-0.1c0.2-0.1,0.3-0.2,0.5-0.3c0.1-0.1,0.2-0.3,0.3-0.6c0.1-0.3,0.1-0.7,0.1-1.1
			c0-0.5,0-0.9-0.1-1.1c-0.1-0.3-0.2-0.5-0.4-0.7c-0.2-0.2-0.4-0.3-0.6-0.3c-0.2,0-0.5-0.1-1.1-0.1H47z"/>
		<linearGradient id="SVGID_15_" gradientUnits="userSpaceOnUse" x1="54.8564" y1="56.1853" x2="54.8564" y2="49.5596">
			<stop  offset="8.415841e-02" style="stop-color:#303030"/>
			<stop  offset="0.1053" style="stop-color:#3B3B3B"/>
			<stop  offset="0.2842" style="stop-color:#8C8C8C"/>
			<stop  offset="0.4108" style="stop-color:#C0C0C0"/>
			<stop  offset="0.4728" style="stop-color:#D4D4D4"/>
			<stop  offset="0.5887" style="stop-color:#A4A4A4"/>
			<stop  offset="0.7227" style="stop-color:#747474"/>
			<stop  offset="0.8409" style="stop-color:#505050"/>
			<stop  offset="0.9373" style="stop-color:#3B3B3B"/>
			<stop  offset="1" style="stop-color:#333333"/>
		</linearGradient>
		<path class="st17" d="M52.3,49.6h1.3v3.5c0,0.5,0,0.9,0,1.1c0.1,0.3,0.2,0.5,0.4,0.7c0.2,0.2,0.5,0.2,0.9,0.2
			c0.3,0,0.6-0.1,0.7-0.2c0.2-0.1,0.3-0.3,0.4-0.5c0.1-0.2,0.1-0.6,0.1-1.3v-3.6h1.3V53c0,0.9-0.1,1.5-0.2,1.9
			c-0.1,0.4-0.4,0.7-0.8,0.9c-0.4,0.2-0.9,0.4-1.6,0.4c-0.7,0-1.2-0.1-1.6-0.3c-0.4-0.2-0.7-0.5-0.8-0.8c-0.2-0.4-0.3-1-0.3-2V49.6z
			"/>
		<linearGradient id="SVGID_16_" gradientUnits="userSpaceOnUse" x1="61.1432" y1="56.1853" x2="61.1432" y2="49.4485">
			<stop  offset="8.415841e-02" style="stop-color:#303030"/>
			<stop  offset="0.1053" style="stop-color:#3B3B3B"/>
			<stop  offset="0.2842" style="stop-color:#8C8C8C"/>
			<stop  offset="0.4108" style="stop-color:#C0C0C0"/>
			<stop  offset="0.4728" style="stop-color:#D4D4D4"/>
			<stop  offset="0.5887" style="stop-color:#A4A4A4"/>
			<stop  offset="0.7227" style="stop-color:#747474"/>
			<stop  offset="0.8409" style="stop-color:#505050"/>
			<stop  offset="0.9373" style="stop-color:#3B3B3B"/>
			<stop  offset="1" style="stop-color:#333333"/>
		</linearGradient>
		<path class="st18" d="M58.5,54l1.3-0.1c0.1,0.8,0.6,1.2,1.4,1.2c0.4,0,0.7-0.1,0.9-0.3c0.2-0.2,0.3-0.4,0.3-0.6
			c0-0.1,0-0.3-0.1-0.4c-0.1-0.1-0.2-0.2-0.4-0.3c-0.2-0.1-0.6-0.2-1.2-0.3c-0.6-0.1-1-0.3-1.2-0.5c-0.3-0.2-0.5-0.4-0.6-0.6
			c-0.2-0.3-0.2-0.5-0.2-0.9c0-0.4,0.1-0.7,0.3-1c0.2-0.3,0.5-0.5,0.8-0.6c0.3-0.1,0.8-0.2,1.3-0.2c0.8,0,1.4,0.2,1.8,0.5
			c0.4,0.3,0.7,0.8,0.7,1.5l-1.3,0.1c-0.1-0.3-0.2-0.6-0.4-0.7c-0.2-0.1-0.5-0.2-0.8-0.2c-0.4,0-0.6,0.1-0.8,0.2S60,51,60,51.2
			c0,0.2,0.1,0.3,0.3,0.4c0.2,0.1,0.6,0.3,1.2,0.4c0.7,0.2,1.1,0.3,1.4,0.5c0.3,0.2,0.5,0.4,0.7,0.7c0.2,0.3,0.2,0.6,0.2,1
			c0,0.6-0.2,1-0.6,1.4c-0.4,0.4-1.1,0.6-2,0.6C59.6,56.2,58.7,55.4,58.5,54z"/>
		<linearGradient id="SVGID_17_" gradientUnits="userSpaceOnUse" x1="67.0079" y1="56.0743" x2="67.0079" y2="49.5596">
			<stop  offset="8.415841e-02" style="stop-color:#303030"/>
			<stop  offset="0.1053" style="stop-color:#3B3B3B"/>
			<stop  offset="0.2842" style="stop-color:#8C8C8C"/>
			<stop  offset="0.4108" style="stop-color:#C0C0C0"/>
			<stop  offset="0.4728" style="stop-color:#D4D4D4"/>
			<stop  offset="0.5887" style="stop-color:#A4A4A4"/>
			<stop  offset="0.7227" style="stop-color:#747474"/>
			<stop  offset="0.8409" style="stop-color:#505050"/>
			<stop  offset="0.9373" style="stop-color:#3B3B3B"/>
			<stop  offset="1" style="stop-color:#333333"/>
		</linearGradient>
		<path class="st19" d="M66.4,56.1v-5.4h-1.9v-1.1h5.2v1.1h-1.9v5.4H66.4z"/>
		<linearGradient id="SVGID_18_" gradientUnits="userSpaceOnUse" x1="73.3678" y1="56.0743" x2="73.3678" y2="49.5596">
			<stop  offset="8.415841e-02" style="stop-color:#303030"/>
			<stop  offset="0.1053" style="stop-color:#3B3B3B"/>
			<stop  offset="0.2842" style="stop-color:#8C8C8C"/>
			<stop  offset="0.4108" style="stop-color:#C0C0C0"/>
			<stop  offset="0.4728" style="stop-color:#D4D4D4"/>
			<stop  offset="0.5887" style="stop-color:#A4A4A4"/>
			<stop  offset="0.7227" style="stop-color:#747474"/>
			<stop  offset="0.8409" style="stop-color:#505050"/>
			<stop  offset="0.9373" style="stop-color:#3B3B3B"/>
			<stop  offset="1" style="stop-color:#333333"/>
		</linearGradient>
		<path class="st20" d="M70.4,56.1v-6.5h2.8c0.7,0,1.2,0.1,1.5,0.2c0.3,0.1,0.6,0.3,0.7,0.6c0.2,0.3,0.3,0.6,0.3,1
			c0,0.5-0.1,0.9-0.4,1.2s-0.7,0.5-1.3,0.6c0.3,0.2,0.5,0.3,0.7,0.5c0.2,0.2,0.4,0.6,0.8,1.1l0.8,1.3h-1.6l-1-1.4
			c-0.3-0.5-0.6-0.8-0.7-1c-0.1-0.1-0.3-0.2-0.4-0.3c-0.1,0-0.4-0.1-0.7-0.1h-0.3v2.7H70.4z M71.8,52.3h1c0.6,0,1,0,1.1-0.1
			c0.2,0,0.3-0.1,0.4-0.3c0.1-0.1,0.2-0.3,0.2-0.5c0-0.2-0.1-0.4-0.2-0.5c-0.1-0.1-0.2-0.2-0.4-0.3c-0.1,0-0.5,0-1.1,0h-1V52.3z"/>
		<linearGradient id="SVGID_19_" gradientUnits="userSpaceOnUse" x1="77.615" y1="56.0743" x2="77.615" y2="49.5596">
			<stop  offset="8.415841e-02" style="stop-color:#303030"/>
			<stop  offset="0.1053" style="stop-color:#3B3B3B"/>
			<stop  offset="0.2842" style="stop-color:#8C8C8C"/>
			<stop  offset="0.4108" style="stop-color:#C0C0C0"/>
			<stop  offset="0.4728" style="stop-color:#D4D4D4"/>
			<stop  offset="0.5887" style="stop-color:#A4A4A4"/>
			<stop  offset="0.7227" style="stop-color:#747474"/>
			<stop  offset="0.8409" style="stop-color:#505050"/>
			<stop  offset="0.9373" style="stop-color:#3B3B3B"/>
			<stop  offset="1" style="stop-color:#333333"/>
		</linearGradient>
		<path class="st21" d="M77,56.1v-6.5h1.3v6.5H77z"/>
		<linearGradient id="SVGID_20_" gradientUnits="userSpaceOnUse" x1="82.0026" y1="56.0743" x2="82.0026" y2="49.5596">
			<stop  offset="8.415841e-02" style="stop-color:#303030"/>
			<stop  offset="0.1053" style="stop-color:#3B3B3B"/>
			<stop  offset="0.2842" style="stop-color:#8C8C8C"/>
			<stop  offset="0.4108" style="stop-color:#C0C0C0"/>
			<stop  offset="0.4728" style="stop-color:#D4D4D4"/>
			<stop  offset="0.5887" style="stop-color:#A4A4A4"/>
			<stop  offset="0.7227" style="stop-color:#747474"/>
			<stop  offset="0.8409" style="stop-color:#505050"/>
			<stop  offset="0.9373" style="stop-color:#3B3B3B"/>
			<stop  offset="1" style="stop-color:#333333"/>
		</linearGradient>
		<path class="st22" d="M79.5,56.1v-6.5h4.8v1.1h-3.5v1.4h3.3v1.1h-3.3V55h3.6v1.1H79.5z"/>
		<linearGradient id="SVGID_21_" gradientUnits="userSpaceOnUse" x1="87.8972" y1="56.1853" x2="87.8972" y2="49.4485">
			<stop  offset="8.415841e-02" style="stop-color:#303030"/>
			<stop  offset="0.1053" style="stop-color:#3B3B3B"/>
			<stop  offset="0.2842" style="stop-color:#8C8C8C"/>
			<stop  offset="0.4108" style="stop-color:#C0C0C0"/>
			<stop  offset="0.4728" style="stop-color:#D4D4D4"/>
			<stop  offset="0.5887" style="stop-color:#A4A4A4"/>
			<stop  offset="0.7227" style="stop-color:#747474"/>
			<stop  offset="0.8409" style="stop-color:#505050"/>
			<stop  offset="0.9373" style="stop-color:#3B3B3B"/>
			<stop  offset="1" style="stop-color:#333333"/>
		</linearGradient>
		<path class="st23" d="M85.3,54l1.3-0.1c0.1,0.8,0.6,1.2,1.4,1.2c0.4,0,0.7-0.1,0.9-0.3c0.2-0.2,0.3-0.4,0.3-0.6
			c0-0.1,0-0.3-0.1-0.4c-0.1-0.1-0.2-0.2-0.4-0.3c-0.2-0.1-0.6-0.2-1.2-0.3c-0.6-0.1-1-0.3-1.2-0.5c-0.3-0.2-0.5-0.4-0.6-0.6
			c-0.2-0.3-0.2-0.5-0.2-0.9c0-0.4,0.1-0.7,0.3-1c0.2-0.3,0.5-0.5,0.8-0.6c0.3-0.1,0.8-0.2,1.3-0.2c0.8,0,1.4,0.2,1.8,0.5
			c0.4,0.3,0.7,0.8,0.7,1.5L89,51.5c-0.1-0.3-0.2-0.6-0.4-0.7c-0.2-0.1-0.5-0.2-0.8-0.2c-0.4,0-0.6,0.1-0.8,0.2
			c-0.2,0.1-0.3,0.3-0.3,0.5c0,0.2,0.1,0.3,0.3,0.4c0.2,0.1,0.6,0.3,1.2,0.4c0.7,0.2,1.1,0.3,1.4,0.5c0.3,0.2,0.5,0.4,0.7,0.7
			c0.2,0.3,0.2,0.6,0.2,1c0,0.6-0.2,1-0.6,1.4c-0.4,0.4-1.1,0.6-2,0.6C86.3,56.2,85.4,55.4,85.3,54z"/>
		<linearGradient id="SVGID_22_" gradientUnits="userSpaceOnUse" x1="96.497" y1="56.0743" x2="96.497" y2="49.6128">
			<stop  offset="8.415841e-02" style="stop-color:#303030"/>
			<stop  offset="0.1053" style="stop-color:#3B3B3B"/>
			<stop  offset="0.2842" style="stop-color:#8C8C8C"/>
			<stop  offset="0.4108" style="stop-color:#C0C0C0"/>
			<stop  offset="0.4728" style="stop-color:#D4D4D4"/>
			<stop  offset="0.5887" style="stop-color:#A4A4A4"/>
			<stop  offset="0.7227" style="stop-color:#747474"/>
			<stop  offset="0.8409" style="stop-color:#505050"/>
			<stop  offset="0.9373" style="stop-color:#3B3B3B"/>
			<stop  offset="1" style="stop-color:#333333"/>
		</linearGradient>
		<path class="st24" d="M94.2,56.1v-6.5h1.3V55h3.3v1.1H94.2z"/>
		<linearGradient id="SVGID_23_" gradientUnits="userSpaceOnUse" x1="101.1742" y1="56.0743" x2="101.1742" y2="49.5596">
			<stop  offset="8.415841e-02" style="stop-color:#303030"/>
			<stop  offset="0.1053" style="stop-color:#3B3B3B"/>
			<stop  offset="0.2842" style="stop-color:#8C8C8C"/>
			<stop  offset="0.4108" style="stop-color:#C0C0C0"/>
			<stop  offset="0.4728" style="stop-color:#D4D4D4"/>
			<stop  offset="0.5887" style="stop-color:#A4A4A4"/>
			<stop  offset="0.7227" style="stop-color:#747474"/>
			<stop  offset="0.8409" style="stop-color:#505050"/>
			<stop  offset="0.9373" style="stop-color:#3B3B3B"/>
			<stop  offset="1" style="stop-color:#333333"/>
		</linearGradient>
		<path class="st25" d="M100.5,56.1v-5.4h-1.9v-1.1h5.2v1.1h-1.9v5.4H100.5z"/>
		<linearGradient id="SVGID_24_" gradientUnits="userSpaceOnUse" x1="107.3258" y1="56.0743" x2="107.3258" y2="49.5596">
			<stop  offset="8.415841e-02" style="stop-color:#303030"/>
			<stop  offset="0.1053" style="stop-color:#3B3B3B"/>
			<stop  offset="0.2842" style="stop-color:#8C8C8C"/>
			<stop  offset="0.4108" style="stop-color:#C0C0C0"/>
			<stop  offset="0.4728" style="stop-color:#D4D4D4"/>
			<stop  offset="0.5887" style="stop-color:#A4A4A4"/>
			<stop  offset="0.7227" style="stop-color:#747474"/>
			<stop  offset="0.8409" style="stop-color:#505050"/>
			<stop  offset="0.9373" style="stop-color:#3B3B3B"/>
			<stop  offset="1" style="stop-color:#333333"/>
		</linearGradient>
		<path class="st26" d="M104.6,49.6h2.4c0.6,0,1.1,0.1,1.4,0.2c0.3,0.1,0.6,0.3,0.9,0.6c0.3,0.3,0.5,0.6,0.6,1
			c0.1,0.4,0.2,0.9,0.2,1.6c0,0.6-0.1,1.1-0.2,1.5c-0.2,0.4-0.4,0.7-0.6,1c-0.2,0.2-0.5,0.4-0.9,0.5c-0.3,0.1-0.8,0.2-1.3,0.2h-2.5
			V49.6z M105.9,50.7V55h1c0.4,0,0.7,0,0.9-0.1c0.2-0.1,0.3-0.2,0.5-0.3c0.1-0.1,0.2-0.3,0.3-0.6c0.1-0.3,0.1-0.7,0.1-1.1
			c0-0.5,0-0.9-0.1-1.1c-0.1-0.3-0.2-0.5-0.4-0.7c-0.2-0.2-0.4-0.3-0.6-0.3c-0.2,0-0.5-0.1-1.1-0.1H105.9z"/>
	</g>
	<g>
		<g>
			<defs>
				<path id="SVGID_25_" d="M128.7,27.1c0,5.4-4.4,9.9-9.9,9.9c-5.4,0-9.9-4.4-9.9-9.9c0-5.4,4.4-9.9,9.9-9.9
					C124.3,17.2,128.7,21.7,128.7,27.1z"/>
			</defs>
			<clipPath id="SVGID_26_">
				<use xlink:href="#SVGID_25_"  style="overflow:visible;"/>
			</clipPath>
			<g class="st27">
				<g>
					<polygon class="st28" points="115.5,17.2 122.1,17.2 122.1,24 138.6,23.8 138.6,30.4 122.1,30.6 122.1,37.2 115.5,37.2 
						115.5,30.6 99,30.4 99,23.8 115.5,24 					"/>
					<polygon class="st28" points="99,17.2 103.5,17.4 138.6,35 138.6,37 134.2,37.2 99,19.4 					"/>
					<g>
						<polygon class="st28" points="138.6,17.2 134.2,17.4 99,35 99,37 103.5,37.2 138.6,19.4 						"/>
					</g>
				</g>
			</g>
		</g>
		<linearGradient id="SVGID_27_" gradientUnits="userSpaceOnUse" x1="118.8025" y1="28.6624" x2="118.8236" y2="20.4103">
			<stop  offset="0" style="stop-color:#FFFFFF;stop-opacity:0"/>
			<stop  offset="1" style="stop-color:#FFFFFF"/>
		</linearGradient>
		<path class="st29" d="M126.5,23.3c0,3-3.5,5.4-7.7,5.4c-4.3,0-7.7-2.4-7.7-5.4c0-3,3.5-5.4,7.7-5.4
			C123.1,17.9,126.5,20.3,126.5,23.3z"/>
		<g>
		</g>
		<g>
			<defs>
				<path id="SVGID_28_" d="M129.3,27.1c0,5.6-4.6,10.2-10.2,10.2c-5.6,0-10.2-4.6-10.2-10.2c0-5.6,4.6-10.2,10.2-10.2
					C124.7,16.9,129.3,21.5,129.3,27.1z"/>
			</defs>
			<clipPath id="SVGID_29_">
				<use xlink:href="#SVGID_28_"  style="overflow:visible;"/>
			</clipPath>
			<g class="st30">
				<g>
					<defs>
						<rect id="SVGID_30_" x="100.8" y="16.4" width="37" height="21.6"/>
					</defs>
					<clipPath id="SVGID_31_">
						<use xlink:href="#SVGID_30_"  style="overflow:visible;"/>
					</clipPath>
					<rect x="100.8" y="16.4" class="st31" width="37" height="21.6"/>
					<polygon class="st32" points="119.3,18.8 119.1,19.6 118.2,19.6 118.9,20.1 118.6,20.9 119.3,20.4 120,20.9 119.8,20.1 
						120.5,19.6 119.6,19.6 					"/>
					<polygon class="st32" points="119.6,34 119.3,33.2 119.1,34 118.2,34 118.9,34.5 118.6,35.3 119.3,34.8 120,35.3 119.8,34.5 
						120.5,34 					"/>
					<polygon class="st32" points="112.1,27.6 112.8,28.1 112.6,27.3 113.3,26.8 112.4,26.8 112.1,26 111.9,26.8 111,26.8 
						111.7,27.3 111.4,28.1 					"/>
					<polygon class="st32" points="115.7,19.7 115.5,20.6 114.6,20.6 115.3,21.1 115,21.9 115.7,21.4 116.4,21.9 116.2,21.1 
						116.9,20.6 116,20.6 					"/>
					<polygon class="st32" points="113.1,22.4 112.8,23.2 112,23.2 112.7,23.7 112.4,24.5 113.1,24 113.8,24.5 113.5,23.7 
						114.2,23.2 113.4,23.2 					"/>
					<polygon class="st32" points="113.4,30.4 113.1,29.6 112.8,30.4 112,30.4 112.7,30.9 112.4,31.7 113.1,31.2 113.8,31.7 
						113.5,30.9 114.2,30.4 					"/>
					<polygon class="st32" points="116,33 115.7,32.2 115.5,33 114.6,33 115.3,33.5 115,34.4 115.7,33.9 116.4,34.4 116.2,33.5 
						116.9,33 					"/>
					<polygon class="st32" points="127.7,26.8 126.8,26.8 126.5,26 126.3,26.8 125.4,26.8 126.1,27.3 125.8,28.1 126.5,27.6 
						127.2,28.1 127,27.3 					"/>
					<polygon class="st32" points="122.9,19.7 122.7,20.6 121.8,20.6 122.5,21.1 122.2,21.9 122.9,21.4 123.6,21.9 123.4,21.1 
						124.1,20.6 123.2,20.6 					"/>
					<polygon class="st32" points="125.1,23.7 124.9,24.5 125.6,24 126.3,24.5 126,23.7 126.7,23.2 125.8,23.2 125.6,22.4 
						125.3,23.2 124.4,23.2 					"/>
					<polygon class="st32" points="125.8,30.4 125.6,29.6 125.3,30.4 124.4,30.4 125.1,30.9 124.9,31.7 125.6,31.2 126.3,31.7 
						126,30.9 126.7,30.4 					"/>
					<polygon class="st32" points="123.2,33 122.9,32.2 122.7,33 121.8,33 122.5,33.5 122.2,34.4 122.9,33.9 123.6,34.4 123.4,33.5 
						124.1,33 					"/>
				</g>
			</g>
		</g>
		<linearGradient id="SVGID_32_" gradientUnits="userSpaceOnUse" x1="119.1587" y1="27.9514" x2="119.1798" y2="19.6992">
			<stop  offset="0" style="stop-color:#FFFFFF;stop-opacity:0"/>
			<stop  offset="1" style="stop-color:#FFFFFF"/>
		</linearGradient>
		<path class="st33" d="M126.9,22.6c0,3-3.5,5.4-7.7,5.4c-4.3,0-7.7-2.4-7.7-5.4c0-3,3.5-5.4,7.7-5.4
			C123.4,17.2,126.9,19.6,126.9,22.6z"/>
	</g>
</g>
</svg>
