<?xml version="1.0" encoding="utf-8"?>
<!-- Generator: Adobe Illustrator 22.0.1, SVG Export Plug-In . SVG Version: 6.00 Build 0)  -->
<svg version="1.1" id="Слой_1" xmlns="http://www.w3.org/2000/svg" xmlns:xlink="http://www.w3.org/1999/xlink" x="0px" y="0px"
	 viewBox="0 0 130 100" style="enable-background:new 0 0 130 100;" xml:space="preserve">
<style type="text/css">
	.st0{fill-rule:evenodd;clip-rule:evenodd;}
</style>
<g>
	<path class="st0" d="M114.4,42.1c0.6-0.1,0.7-0.4,0.7-0.9c0-0.4-0.5-0.7-1.3-0.7h-1v2.9h0.3v-1.2c0.2,0,0.5,0,0.7,0
		c0.3,0,0.8,0.2,0.8,0.5v0.6h0.3v-0.6C115,42.4,114.7,42.1,114.4,42.1 M113.2,41.9v-1.1c0,0,0.2,0,0.6,0c0.3,0,1,0.1,1,0.5
		c0,0.4-0.4,0.7-0.8,0.7H113.2z"/>
	<path class="st0" d="M46.7,32.3c-0.1-0.7-0.3-1.9-1.2-3.1c-1.4,1.1-4.3,3-5,3.4c-0.7-1.1-2.3-3.3-6-3.3c-8.9,0-11.8,11.1-18.8,13.2
		c1.3,0.6,3.3,2.7,2.8,9.7c-0.2,4.3,2.6,8.9,8.1,8.9c2.7,0,5.8-1.2,7.1-2.4c-0.3,0.8-2.7,6-3.7,8.4c-1,2.4-12.7,29.6-12.7,29.6h4.2
		c0,0,12-26.4,13.5-30c1.5-3.6,2.4-5.4,11.1-8.7c-0.3,0.8,0.6,2.8,3.1,2.8c2.5,0,4.6-1,6.9-3c0.1,1.6,1,2.9,2.9,2.9
		c1.9,0,4.8-0.9,7.8-4c-0.3,1.2-0.6,3.9,2.9,3.9c3.5,0,5.9-2.2,6.8-3.1c-0.2,1.7,1.3,3.4,4,3.4c2.6,0,6.7-1.7,9-3.6
		c0,1.4,0.5,3.4,2.9,3.4c2.4,0,4.4-1.3,6.2-2.5c0.1,1,2.3,3.2,5,3.2c3.2,0,6.2-2.4,6.2-6.2c0-0.9-0.5-1.5-0.5-2.6
		c0-1.1,0.6-1.6,0.6-1.6s-0.6,0.3-1.3,0.3c-0.8,0-2-0.7-2-2.1c0-1,0.5-1.6,1.5-1.6c1,0,3.3,1.3,3.8,2.7c0.4-0.9,1.9-2.4,2.2-2.7
		c-0.5,0-0.2-0.8,0.6-1.3c-0.8,0.3-1.3-0.1-1.7-0.3c-0.4-0.2-2.3-1.9-4.4-1.9c-3.4,0-5.2,3.2-5.2,5.9c0,2.7,1.7,2.9,0.7,5.2
		c0.8-0.3,2.1,0.3,2.1,1.6c0,0.7-0.8,1.5-1.7,1.5c-0.9,0-3-1.2-3.2-4.6c-1.2,1.6-4.5,4.2-6.4,4.2c-0.5,0-1-0.2-1-1
		c0-0.5,0.5-1.5,0.7-2c0.2-0.5,0.3-1.1,0.7-1.8c0.4-0.7,0.9-1.3,1.7-1.4c-0.5-0.5-0.8-1-0.2-2.2c0.7-1.2,2.2-4.5,2.2-4.5h-4.5
		c0,0-1.5,3.3-2,4.4c-0.5,1.1-1.5,1.9-2.3,2c0.7,0.3,0.8,0.7,0.8,1c0,0.8-0.9,2.3-1.6,2.7c-0.7,0.4-4.1,3-6.9,3c-1,0-1.8-0.7-1.8-2
		c0-1.2,1-3.2,1.4-4.1c0.4-0.9,1.7-3.6,2.5-4.9c0.7-1.3,1.7-3.4,2.4-5c0.7-1.6,17.7-38.4,17.7-38.4h-3.7c0,0-21.5,46-22.8,48.6
		c-1.3,2.6-4.2,5.1-6.2,5.1c-0.6,0-1.1-0.2-1.1-0.8c0-0.6,0.8-2.4,1.3-3.2c0.4-0.7,1.5-1.8,2.4-1.8c-0.8-0.2-1.5-0.6-0.7-2.3
		c0.8-1.7,2.1-4.7,2.1-4.7h-4c0,0-1.5,3.5-2.1,4.6c-0.6,1.1-1.3,2-2.6,2.3c2.8,0.9-3.4,5.7-5.2,5.7c-0.7,0-1-0.1-1-0.9
		c0-0.8,1-2.8,1.5-3.6c0.5-0.8,1.2-1.3,1.9-1.3c-0.5-0.2-1.1-0.9-0.4-2.3c0.7-1.4,2.2-4.6,2.2-4.6l-4.6,0.1c0,0-1.6,3.8-2.1,4.8
		c-0.5,1-1.2,1.6-2.3,1.8c0.8,0.3,0.9,0.7,0.9,1c0,1.5-4.3,5.2-6.7,5.2c-0.6,0-1.2-0.2-1.2-0.9c0-0.4,1-2.6,1.5-3.5
		c0.5-0.9,1.1-1.6,2.1-1.5c-0.6-0.5-1-1-0.4-2.2c0.5-1.2,2-4.7,2-4.7h-4.2c0,0-1.7,3.6-2.1,4.5c-0.5,0.9-1.5,1.9-2.3,2
		c0.7,0.2,0.9,1,0.5,1.8c-0.3,0.7-0.8,1.8-0.9,2.2c-0.8,0-5.8,1.9-8.7,3.8c0.7-2.4,2.2-5.4,2.6-6.2c0.4-0.8,1.5-1.5,2-1.6
		c-0.5-0.4-1-0.7-0.2-2.6c0.8-1.9,1.8-3.8,1.8-3.8h-4.4c0,0-2.4,5.5-3.8,8.3c-1.4,2.8-4.9,5.4-8.6,5.4c-3.7,0-5.7-2.1-5.7-5.5
		c0-3.4,2.5-9,7-9.7c-2-1-2.3-2.8-2.3-3.9c0-3.6,4.4-8.1,8.4-8.1c1.7,0,3.6,0.7,3.6,2.4c0,1.3-1.5,4-6,6.7c0.7,1.6,1.4,3.3,1.4,3.3
		C38.7,41.6,39.5,35.9,46.7,32.3"/>
	<path class="st0" d="M76.5,33.5c-2.4,0-4.3,1.9-4.3,4.3c0,2.4,1.9,4.3,4.3,4.3c2.4,0,4.3-1.9,4.3-4.3
		C80.8,35.4,78.9,33.5,76.5,33.5 M76.5,41.3c-1.9,0-3.5-1.6-3.5-3.5c0-1.9,1.6-3.5,3.5-3.5c1.9,0,3.5,1.6,3.5,3.5
		C80,39.7,78.4,41.3,76.5,41.3"/>
	<path class="st0" d="M74.4,37.8c0-1.1,1-2,2.1-2c1.1,0,2,1,2,2.1c0,1.1-1,2-2.1,2C75.3,39.8,74.4,38.9,74.4,37.8"/>
	<path class="st0" d="M99.1,33c-2.4,0-4.3,1.9-4.3,4.3c0,2.4,1.9,4.3,4.3,4.3c2.4,0,4.3-1.9,4.3-4.3C103.5,34.9,101.5,33,99.1,33
		 M99.1,40.8c-1.9,0-3.5-1.6-3.5-3.5c0-1.9,1.6-3.5,3.5-3.5c1.9,0,3.5,1.6,3.5,3.5C102.6,39.3,101.1,40.8,99.1,40.8"/>
	<path class="st0" d="M97.1,37.3c0-1.1,0.9-2.1,2.1-2.1c1.1,0,2.1,0.9,2.1,2.1c0,1.1-0.9,2.1-2.1,2.1C98,39.4,97.1,38.5,97.1,37.3"
		/>
	<polygon class="st0" points="75.1,53.1 73.8,53.6 72.7,55.1 73.4,55.8 75.6,53.8 	"/>
	<path class="st0" d="M66.8,52.6c-1.5,0.4-2.3,0.6-2.6,0.7c-0.3,0.1-1.3,1.7-1.3,1.7l0.6,0.7C63.6,55.6,65.4,54.5,66.8,52.6"/>
	<path class="st0" d="M53.2,53.4l-2,3.8c0,0,2.6-1.4,3.4-2.1c0.8-0.7,2.1-2.1,2.1-2.1L53.2,53.4z"/>
	<path class="st0" d="M100.7,52.4l-0.2,0.2L100.7,52.4z"/>
	<path class="st0" d="M73.5,12l4.3,1.2c0,0,0-1.4,0-2.5c0-1.1-0.4-3-1.9-3.5c-1.4-0.5-4.2-1.6-5.2-2c-1-0.4-4.2-0.7-4.5,2.5
		c-0.2,3.2-0.8,7.1,1.3,7.7C69.7,16,72,16.5,73,18c0,1.7-0.1,4.1-0.2,4.9c0,0.8-0.3,1.2-1.1,1.2c-0.8,0-1.5-0.8-1.5-1.5v-1.8
		l-4.5-1.6c0,0-0.2,2.1-0.2,3.2c0,1.1,0,2,1.2,2.4c1.2,0.4,5.7,1.8,6.7,2.1c1,0.3,2.2,0.5,3-0.3c0.8-0.8,1.1-3.1,1.1-6.8
		c0-1.4,0-3.3-2.4-4.1c-2.3-0.8-4.3-1.5-4.3-3.7v-2c0-1.1,0.4-1.7,1.3-1.7c0.9,0,1.3,0.8,1.3,1.5C73.4,10.6,73.5,12,73.5,12"/>
	<polygon class="st0" points="54.5,2 64.5,3.9 64.5,6.1 59,5.1 58.6,11.3 64.2,12.5 64,14.9 58.5,13.7 58.1,20.7 63.7,21.9 63.7,24 
		53.6,22.1 	"/>
	<polygon class="st0" points="60.3,0.8 60.4,2.1 64.6,2.8 64.6,1.5 	"/>
	<polygon class="st0" points="41.9,1.8 52.6,2.1 52.5,4.5 46,4.4 45.7,10.2 49.7,10.3 49.6,12.7 45.6,12.6 45.2,21.5 40.9,21.7 	"/>
	<path class="st0" d="M35.6,2.5l-5.5,0.4l-4.2,20.7l2.2-0.4l0.8-4l5.4-0.3c0.2,1.3,0.4,2.5,0.5,3.5c1-0.1,4.3-0.6,4.3-0.6L35.6,2.5z
		 M29.3,17l2.4-11.8c0,0,1.3,6.1,2.3,11.6L29.3,17z"/>
	<path class="st0" d="M20.6,10.9c0.4-0.2,3.7-1,3.7-1s0-0.9,0-1.4c0-2.3-0.3-3.6-2.5-3.6c-1.6,0-3.5,0.5-4.5,0.9
		c-1.9,0.7-3.4,1-3.6,4C13.5,13,13.1,20.6,13,22.4c-0.1,1.9,0.3,4.2,2.7,4.2c1.2,0,2.4-0.3,4.3-1.1c1.9-0.7,3.9-1,4-4.7
		c0-1.8,0-2.5,0-2.5L20,19.5c0,0,0,0.7,0,1.5c0,0.8-0.3,2.3-1.6,2.3c-0.7,0-1.1-0.3-1.1-1.6c0-1.3,0.3-10.1,0.4-11.7
		c0.1-1.6,0.5-2.5,1.5-2.5C20.1,7.6,20.6,8.9,20.6,10.9"/>
	<path class="st0" d="M44.5,51.7l-3.1,2l-1.6,3c0,0,3.8-2,5.6-2.3c0.3-0.8,0.7-1.7,0.7-1.7L44.5,51.7z M44.6,53.7l-2.6,1l0.3-0.7
		l2.2-1.4l0.5,0.5L44.6,53.7z"/>
	<path class="st0" d="M117.5,42.1c0-1.7-1.3-3.6-3.6-3.6c-2.3,0-3.8,1.7-3.8,3.8c-4-1.2-9.5,1.8-9.2,8.8c-0.7,0.6-0.9,0.9-0.9,0.9
		l-1.4-1.3l3.1-6.6l-0.1-1l-8.6,0.1c0,0-2.5,5-2.7,5.5c-0.3,0.6,0,0.5-0.9,0.9c-0.8,0.4-2,0.8-2.4,1c-0.4,0.1-0.5,0.7,0.1,1.2
		c0.6,0.5,0.8,0.8,1,1c0.2,0.2,0.6,1.3-5.2,3.5c-0.2-0.3,0.2-0.9,0.4-1.4c0.2-0.5,2.9-5.4,4-8c1.2-2.6,20.9-45.2,20.9-45.2h-8.9
		L76.1,50.4c0,0-0.5,0.3-0.1-0.6c0.4-1,2.3-5.2,2.6-5.6c0.2-0.5,0-1.1-0.5-1.1h-7.2c-0.4,0-0.7,0-1,0.7c-0.3,0.7-2.2,4.7-2.5,5.3
		c-0.3,0.6-0.5,0.9-1.3,0.9c0.8-1.7,2.5-5.2,2.7-5.8c0.3-0.6,0.1-1.1-0.6-1.1c-0.7,0-7.2,0.1-7.7,0.1c-0.5,0-0.7,0-1.1,0.9
		c-0.4,0.9-2.1,4.6-2.3,5c-0.2,0.5-0.2,0.6-0.6,0.7c-0.4,0.1-1,0.3-1,0.3l2.4-5.6c0.3-0.6,0.2-1.3-0.5-1.3c-0.6,0-6.7,0-7.2,0
		c-0.4,0-0.8,0.3-1.1,1c-0.3,0.8-2.2,4.3-2.4,4.8c-0.2,0.4-0.3,0.5-0.9,0.8c-0.6,0.3-2,0.9-2,0.9l-0.2-0.3c0,0,2.4-5.3,2.7-6
		c0.3-0.7,0.1-1.2-0.4-1.2c-0.4,0-6.2,0.1-7.8,0.1c0.8-0.7,1.5-1.5,2.1-2.2c2.6-3.5,5.2-5.5,8.3-7.3c0.4-0.3,0.4-0.7,0.4-0.7
		c0-0.6-0.6-2.9-2.3-6.2c-0.2-0.3-1-0.1-1.4,0.1c-0.4,0.3-3.9,2.4-4.3,2.9c-1-1.1-3-2.5-6.5-2.5c-5,0-8.8,2.9-14.1,9
		c-1.9,2.2-3.8,4-7.9,5.6c0,0.5,0,0.8,0,0.8c1.3,1.3,3.7,1.9,3.7,5.9c0,0.5,0,1.3,0,3.6c0,4.3,2,11,10.5,11.3
		c1.5,0.1,2.6-0.1,2.6-0.1s-1.2,1.9-2.1,4c-0.9,2.1-13.9,31.9-13.9,31.9h8.7c0.4,0,0.9-0.1,1.3-1.1c0.4-1,14.2-31.9,14.6-32.7
		c0.3-0.8,0.9-1.8,2-2.5c1.1-0.7,4.3-2.3,4.3-2.3c1.3,1.3,3.8,4.2,10.5,0.6c1.1,1,3.9,3.2,10.2-0.4c1,1.5,4.2,3.5,10.2,0.2
		c1.3,1.5,4.7,3.6,12.7-0.3c1.4,1.7,3.8,3.6,9.7,0.4c1.3,1.4,3.5,2.3,5.7,2.3c2.3,0,8.6-1.4,8.2-9.3c1.6-2.6,5.8-8.9,5.8-8.9v-1
		h-0.6C116.9,44.3,117.5,43.1,117.5,42.1 M116.6,45.1c-0.8,1.2-3.9,6-5.4,8.3l-0.6,0l0.2,0.8c0.3,7.2-5.3,8.4-7.4,8.4
		c-2,0-4-0.9-5.1-2.1l-0.4-0.4l-0.5,0.3c-5.6,2.9-7.6,1.1-8.7-0.2l-0.4-0.5L87.7,60c-7.8,3.8-10.7,1.6-11.7,0.5L75.5,60l-0.6,0.3
		c-5.7,3.1-8.4,1.1-9.1,0l-0.4-0.6l-0.6,0.4c-7.4,4.4-9.4,0-9.4,0l-0.7,0.4c-3.3,1.8-5.4,1.8-6.7,1.5c-1.9-0.5-3.1-2.5-3.1-2.5
		s-4,2.1-5.1,2.8c-1.3,0.8-2,2-2.4,2.9c-0.3,0.8-14.1,31.7-14.6,32.7c-0.2,0.4-0.3,0.5-0.4,0.6c0,0-0.1,0-0.2,0h-7.5
		c2.6-6.1,12.6-28.9,13.4-30.8c0.8-2,3-5.3,3-5.3s-2.8,0.4-4.2,0.3c-7.8-0.3-9.7-6.3-9.7-10.5c0-2.3,0-3.1,0-3.6
		c0-2.2-0.7-3.6-1.6-4.6c-0.4-0.5-0.9-0.8-1.3-1.1c-0.2-0.1-0.4-0.3-0.6-0.4l-0.1-0.1c3.9-1.6,5.8-3.5,7.6-5.6
		c5.3-6.1,8.9-8.7,13.5-8.7c3.2,0,5,1.3,5.9,2.3l0.6,0.6l0.6-0.6c0,0,0.1-0.1,0.2-0.2c0.1-0.1,0.3-0.2,0.5-0.3
		c0.4-0.3,0.9-0.6,1.4-0.9c1-0.6,2-1.2,2.1-1.4c0.1,0,0.2-0.1,0.4-0.1c1.6,3.1,2.1,5.2,2.1,5.6c-3.2,1.9-5.8,4-8.5,7.5
		c-0.4,0.6-1,1.2-1.7,1.8l-1,0.9c-1.7,1.5-3.5,2.7-3.9,2.9c-0.2,0.1-0.3,0.2-0.4,0.2c-0.1-0.2-2-4.7-2-4.7c-0.2-0.6-0.4-1-0.5-1.2
		c0,0,0.1,0,0.2-0.1c0.6-0.3,2-1.2,3.3-2.2c0.6-0.5,1.3-1.1,1.8-1.7c0.4-0.5,0.9-1.2,0.9-2c0-0.8-0.6-1.2-1.1-1.3
		c-0.2,0-0.4,0-0.6,0c-0.1,0-0.3,0-0.4,0c-2.6,0-7,3.4-7,6.6c0,1,0.5,2.2,1.4,2.7l2.5,1.6l-1.2,0.4c-0.5,0.2-1.1,0.3-1.6,0.5
		c-0.8,0.3-1.7,0.6-2.1,1c-2.4,1.8-3.7,4.8-3.7,7.6c0,3.2,2.2,4.1,4.1,4.1c4.1,0,6.6-2.9,7.7-4.9c0.8-1.5,3-6.6,3.9-8.5l0.3-0.3
		c1.7,0,5.9-0.1,7.2-0.1c-0.4,0.8-2.9,6.4-2.9,6.4l0.7,1.4c0,0,2.1-0.9,2.8-1.2c0.8-0.4,0.9-0.6,1.2-1.2c0.2-0.4,2.1-4,2.4-4.8
		c0.2-0.3,0.3-0.5,0.3-0.5c0.4,0,5.7-0.1,7-0.1c0,0,0,0.1,0,0.1L54,51.4c0,0,2.1-0.7,2.9-1c0.3-0.1,0.6-0.2,0.8-0.5
		c0.1-0.1,0.1-0.2,0.2-0.3l0.1-0.3c0.2-0.5,2-4.2,2.3-5c0.1-0.2,0.2-0.3,0.2-0.4c0,0,0.1,0,0.1,0c0.4,0,6.2-0.1,7.5-0.1
		c-0.3,0.7-2,4-2.7,5.7l-0.9,2.1c1-0.5,3-0.7,3.7-2.1c0.3-0.6,2.1-4.7,2.4-5.4c0-0.1,0.1-0.2,0.1-0.2l0.1,0h6.9
		c-0.3,0.6-3.3,7.1-3.3,7.1l2.2,0.4L99.8,2.4h7.1c-3.2,6.9-19.3,41.7-20.4,44c-1.2,2.6-3.8,7.5-4,8.1c-0.1,0.3-0.2,0.5-0.3,0.8
		c-0.3,0.6-0.3,1.9-0.3,1.9l1.3-0.2c2.9-1.1,4.4-1.9,5.1-2.6c0.8-0.8,1.3-1.4,0.7-2c-0.2-0.2-0.8-0.7-1.4-1.2
		c0.6-0.2,1.5-0.5,2.1-0.8c0.2-0.1,0.4-0.2,0.5-0.3c0.1-0.1,0.3-0.2,0.4-0.4c0.1-0.1,0.1-0.2,0.2-0.4c0-0.1,0-0.1,0.1-0.2
		c0.2-0.5,1.9-3.8,2.5-5l7.4-0.1l-3.2,6.9l1.3,1.2l-2.7,1.6l-1.7,3.7c0,0,2.3-1.6,3.1-2.1c0.5-0.4,1.6-1.4,2.4-2
		c0,0,0.2-0.2,0.4-0.5l0.2-0.2c0.2-0.3,0.5-0.5,0.8-0.8l0.3-0.3l0-0.4c-0.3-6.4,4.7-9,8.1-7.9c0,0,1,0.4,1.7,0.9
		c-0.5-0.5-0.8-1.2-0.8-2c0-1.6,1.3-2.9,3-2.9c1.6,0,2.9,1.3,2.9,2.9c0,0.4-0.1,0.9-0.3,1.3c-0.1,0.4-0.5,0.8-0.5,0.8
		c-0.5,0.6-1.3,0.9-2.2,0.9c-0.1,0-0.1,0-0.2,0l-0.5,0.2H116.6z M37.6,43.7c-0.8,1.8-3.1,7.1-3.9,8.6c-1,1.9-3.3,4.5-7,4.5
		c-1.6,0-3.3-0.7-3.3-3.3c0-2.6,1.2-5.3,3.3-6.9c0.7-0.5,2.9-1.2,4.4-1.6c0.4,0.9,0.7,1.7,0.7,1.8c0.1,0.4,0.7,0.6,1.5,0.1
		C34,46.6,35.9,45.2,37.6,43.7 M29.4,40.6c0,0.2,0.3,0.8,0.7,1.7l-0.9-0.5c-0.6-0.3-1-1.2-1-1.9c0-2.6,3.9-5.8,6.2-5.8
		c0.5,0,1.2-0.1,1.2,0.5c0,1.6-4.5,4.7-5.5,5.2C29.7,39.8,29.2,40.1,29.4,40.6 M98.6,53.2L96,55.5l1-1.5L98.6,53.2z"/>
	<g>
		<path d="M47.8,81.1c-1.2,0-2.2-1-2.2-2.3c0-1.3,1-2.3,2.3-2.3c0.7,0,1.4,0.3,1.8,0.9c0.4,0.5,0.4,0.8,0.4,1.9V81h-1.5v-1.5
			c0-1.2-0.2-1.5-0.8-1.5c-0.4,0-0.8,0.4-0.8,0.8c0,0.5,0.4,0.8,0.8,0.8c0.2,0,0.3,0,0.5-0.1V81C48.1,81.1,48,81.1,47.8,81.1z"/>
		<path d="M50.7,79c0-0.9,0.1-1.3,0.5-1.7c0.4-0.4,0.9-0.7,1.5-0.7c0.4,0,0.8,0.1,1.2,0.4c0.4-0.3,0.8-0.4,1.2-0.4
			c0.6,0,1.1,0.3,1.5,0.7c0.3,0.4,0.5,0.8,0.5,1.7v2h-1.4v-2.1c0-0.7-0.1-0.9-0.5-0.9c-0.4,0-0.5,0.2-0.5,0.8V81h-1.5v-2.1
			c0-0.6-0.1-0.8-0.5-0.8c-0.4,0-0.5,0.2-0.5,0.9V81h-1.4V79z"/>
		<path d="M59.7,81.1c-1.2,0-2.2-1-2.2-2.3c0-1.3,1-2.3,2.3-2.3c0.7,0,1.4,0.3,1.8,0.9c0.4,0.5,0.4,0.8,0.4,1.9V81h-1.5v-1.5
			c0-1.2-0.2-1.5-0.8-1.5c-0.4,0-0.8,0.4-0.8,0.8c0,0.5,0.4,0.8,0.8,0.8c0.2,0,0.3,0,0.5-0.1V81C60,81.1,59.9,81.1,59.7,81.1z"/>
		<path d="M62.5,78.8c0-1.4,0.8-2.2,2-2.2c1.2,0,2,0.8,2,2.2V81H65v-2.2c0-0.5-0.2-0.8-0.5-0.8c-0.4,0-0.5,0.3-0.5,0.8V81h-1.4V78.8
			z"/>
		<path d="M69,81.1c-0.6,0-1.1-0.2-1.4-0.6c-0.4-0.4-0.5-0.8-0.5-1.3c0-0.2,0-0.5,0-0.8v-3h1.4v1.3h0.8v1.5h-0.8v0.5
			c0,0.8,0.1,1,0.6,1c0.1,0,0.1,0,0.2,0v1.4C69.2,81.1,69.1,81.1,69,81.1z"/>
		<path d="M72,81.1c-1.4,0-2.5-1-2.5-2.3c0-1.2,1-2.3,2.3-2.3c0.6,0,1.1,0.2,1.5,0.6c0.2,0.2,0.2,0.3,0.4,0.5l-1.8,2
			c0.1,0,0.2,0,0.3,0c0.3,0,0.5-0.1,1-0.4l0.4,1.4C73,81,72.6,81.1,72,81.1z M72.2,78.1C72,78.1,71.9,78,71.8,78
			c-0.4,0-0.8,0.4-0.8,0.8c0,0.2,0,0.2,0.1,0.4L72.2,78.1z"/>
		<path d="M73.8,79.7L73.8,79.7c0.5,0,0.7-0.2,0.7-0.7c0-0.7,0.1-0.9,0.2-1.3c0.1-0.3,0.4-0.6,0.7-0.8c0.3-0.2,0.7-0.3,1.2-0.3
			c0.1,0,0.1,0,0.2,0V78h0c-0.6,0-0.7,0.1-0.7,1.1c0,0.7-0.2,1.1-0.5,1.4c-0.1,0.1-0.3,0.3-0.5,0.3c-0.3,0.1-0.6,0.2-1,0.2
			c-0.1,0-0.1,0-0.3,0V79.7z"/>
		<path d="M82.1,78.1c-0.2-0.1-0.3-0.1-0.5-0.1c-0.5,0-0.8,0.4-0.8,0.8c0,0.5,0.4,0.8,0.8,0.8c0.6,0,0.8-0.3,0.8-1.5V75h1.5v3.3
			c0,1.1-0.1,1.4-0.4,1.9c-0.4,0.5-1.1,0.8-1.8,0.8c-1.3,0-2.3-1-2.3-2.3c0-1.2,1-2.3,2.2-2.3c0.2,0,0.3,0,0.6,0.1V78.1z"/>
		<path d="M86.8,81.1c-1.4,0-2.5-1-2.5-2.3c0-1.2,1-2.3,2.3-2.3c0.6,0,1.1,0.2,1.5,0.6c0.2,0.2,0.2,0.3,0.4,0.5l-1.8,2
			c0.1,0,0.2,0,0.3,0c0.3,0,0.5-0.1,1-0.4l0.4,1.4C87.8,81,87.3,81.1,86.8,81.1z M86.9,78.1c-0.2-0.1-0.2-0.1-0.4-0.1
			c-0.4,0-0.8,0.4-0.8,0.8c0,0.2,0,0.2,0.1,0.4L86.9,78.1z"/>
		<path d="M88.8,75h1.4v6h-1.4V75z"/>
		<path d="M96.8,80.7c-0.4,0.3-0.8,0.4-1.3,0.4c-1.3,0-2.2-1-2.2-2.2c0-1.3,1-2.3,2.2-2.3c0.5,0,0.9,0.1,1.3,0.4l-0.7,1.3
			c-0.2-0.2-0.3-0.3-0.6-0.3c-0.4,0-0.8,0.4-0.8,0.8c0,0.5,0.4,0.8,0.8,0.8c0.2,0,0.4-0.1,0.6-0.3L96.8,80.7z"/>
		<path d="M99.1,81.1c-1.2,0-2.2-1-2.2-2.3c0-1.3,1-2.3,2.3-2.3c0.7,0,1.4,0.3,1.8,0.9c0.4,0.5,0.4,0.8,0.4,1.9V81H100v-1.5
			c0-1.2-0.2-1.5-0.8-1.5c-0.4,0-0.8,0.4-0.8,0.8c0,0.5,0.4,0.8,0.8,0.8c0.2,0,0.3,0,0.5-0.1V81C99.4,81.1,99.3,81.1,99.1,81.1z"/>
		<path d="M102,81v-3v-0.7c0-0.9,0.2-1.4,0.6-1.8c0.4-0.4,0.9-0.6,1.6-0.6c0,0,0.1,0,0.2,0v1.2c-0.6,0-0.9,0.2-0.9,0.6h0.9V78h-0.9
			v3H102z"/>
		<path d="M106.9,81.1c-1.4,0-2.5-1-2.5-2.3c0-1.2,1-2.3,2.3-2.3c0.6,0,1.1,0.2,1.5,0.6c0.2,0.2,0.2,0.3,0.4,0.5l-1.8,2
			c0.1,0,0.2,0,0.3,0c0.3,0,0.5-0.1,1-0.4l0.4,1.4C107.9,81,107.5,81.1,106.9,81.1z M107,78.1c-0.2-0.1-0.2-0.1-0.4-0.1
			c-0.4,0-0.8,0.4-0.8,0.8c0,0.2,0,0.2,0.1,0.4L107,78.1z M106.2,76l0.7-1.2h1.5l-1.1,1.2H106.2z"/>
	</g>
	<g>
		<path d="M99.9,31.2c-0.6-0.3-0.8-0.4-0.9-0.8c-0.2-0.4-0.2-0.8,0-1.2c0.1-0.3,0.3-0.4,0.6-0.6c-0.1-0.4,0-0.6,0.1-0.9
			c0.2-0.4,0.5-0.6,0.9-0.7c0.4-0.1,0.6,0,1.2,0.2l1.3,0.6l-0.4,0.9l-1.3-0.6c-0.4-0.2-0.6-0.2-0.7,0.1c-0.1,0.2,0,0.4,0.4,0.6
			l1.3,0.6l-0.4,0.9l-1.3-0.6c-0.4-0.2-0.6-0.2-0.7,0.1c-0.1,0.2,0,0.4,0.4,0.6l1.3,0.6l-0.4,0.9L99.9,31.2z"/>
		<path d="M103.8,26.2c-0.4,0.8-1.3,1.1-2.1,0.7c-0.8-0.4-1.1-1.3-0.7-2.1c0.2-0.4,0.6-0.8,1-0.9c0.4-0.1,0.6,0,1.3,0.3l1,0.5
			l-0.4,0.9l-0.9-0.4c-0.7-0.3-1-0.3-1.2,0c-0.1,0.3,0,0.6,0.3,0.7c0.3,0.1,0.6,0,0.8-0.3c0-0.1,0.1-0.2,0.1-0.3l0.9,0.4
			C103.9,26,103.9,26.1,103.8,26.2z"/>
		<path d="M103.6,21.9c-0.1,0.1-0.2,0.2-0.2,0.3c-0.1,0.3,0,0.6,0.3,0.8c0.3,0.1,0.6,0,0.8-0.3c0.2-0.4,0-0.6-0.7-0.9l-2-0.9
			l0.4-0.9l2.1,1c0.7,0.3,0.9,0.5,1.1,0.8c0.2,0.4,0.2,0.9,0,1.3c-0.4,0.8-1.3,1.2-2.1,0.8c-0.8-0.4-1.1-1.3-0.8-2
			c0.1-0.1,0.1-0.2,0.2-0.3L103.6,21.9z"/>
		<path d="M104.9,20.8c-0.4-0.2-0.6-0.3-0.7-0.4c-0.2-0.1-0.3-0.3-0.4-0.6c-0.1-0.4-0.1-0.7,0.1-1.1c0,0,0-0.1,0.1-0.1l0.9,0.4
			c0,0.1-0.1,0.1-0.1,0.1c-0.1,0.2,0,0.4,0.3,0.6l1.4,0.6l-0.4,0.9L104.9,20.8z"/>
		<path d="M103.2,17.5c0.1-0.3,0.5-0.4,0.7-0.3c0.3,0.1,0.4,0.4,0.3,0.7c-0.1,0.3-0.5,0.4-0.7,0.3C103.2,18.1,103,17.8,103.2,17.5z
			 M104.1,18.4l0.4-0.9l2.7,1.3l-0.4,0.9L104.1,18.4z"/>
		<path d="M106.4,15.9c-0.1,0.1-0.2,0.2-0.2,0.3c-0.1,0.3,0,0.6,0.3,0.8c0.3,0.1,0.6,0,0.8-0.3c0.2-0.4,0-0.6-0.7-0.9l-2-0.9
			l0.4-0.9l2.1,1c0.7,0.3,0.9,0.5,1.1,0.8c0.2,0.4,0.2,0.9,0,1.3c-0.4,0.8-1.3,1.2-2.1,0.8c-0.8-0.4-1.1-1.3-0.8-2
			c0.1-0.1,0.1-0.2,0.2-0.3L106.4,15.9z"/>
		<path d="M105.8,12l0.5-1l3.8,1.8l-0.5,1L105.8,12z"/>
		<path d="M107.9,11.4c-0.9-0.4-1.2-1.4-0.8-2.3c0.4-0.8,1.4-1.3,2.2-0.9c0.3,0.1,0.6,0.4,0.9,0.8l1,1.2l-0.5,1.1l-1.3-1.7
			c-0.2-0.2-0.3-0.4-0.5-0.4c-0.3-0.1-0.7,0-0.8,0.3c-0.1,0.3,0,0.7,0.3,0.8c0.3,0.2,0.7,0,0.9-0.3c0,0,0-0.1,0-0.1l0.7,0.9
			C109.5,11.5,108.6,11.7,107.9,11.4z"/>
		<path d="M110.5,6.7c-0.2-0.3-0.3-0.4-0.4-0.5c-0.2-0.1-0.5,0-0.6,0.2c-0.1,0.2,0,0.5,0.2,0.7c0.2,0.1,0.4,0.1,0.5-0.1l0.5,0.9
			c-0.5,0.3-1,0.4-1.5,0.1c-0.7-0.3-1.1-1.3-0.7-2.1c0.4-0.8,1.3-1.1,2-0.8c0.3,0.2,0.5,0.3,0.8,0.9l0.4,0.6l0.3-0.7l0.9,0.4
			l-1.2,2.5L110.5,6.7z"/>
		<path d="M110.5,4.6c-0.6-0.3-0.9-1-0.6-1.6c0.3-0.6,1-0.9,1.6-0.6c0.2,0.1,0.3,0.2,0.5,0.5c0.5-0.2,0.8-0.2,1.2,0
			c0.7,0.3,1.1,1.2,0.7,2c-0.4,0.8-1.2,1.1-2,0.8c-0.4-0.2-0.6-0.4-0.8-0.9C110.8,4.7,110.7,4.7,110.5,4.6z M111.1,3.2
			c-0.2-0.1-0.4,0-0.5,0.2c-0.1,0.2,0,0.4,0.2,0.4c0.2,0.1,0.4,0,0.5-0.2C111.3,3.4,111.3,3.2,111.1,3.2z M112.7,3.7
			c-0.2-0.1-0.5,0-0.7,0.2c-0.1,0.2,0,0.5,0.2,0.6c0.2,0.1,0.5,0,0.7-0.2C113.1,4.1,113,3.8,112.7,3.7z"/>
	</g>
</g>
</svg>
