<?xml version="1.0" encoding="utf-8"?>
<!-- Generator: Adobe Illustrator 22.0.1, SVG Export Plug-In . SVG Version: 6.00 Build 0)  -->
<svg version="1.1" id="Слой_1" xmlns="http://www.w3.org/2000/svg" xmlns:xlink="http://www.w3.org/1999/xlink" x="0px" y="0px"
	 viewBox="0 0 130 100" style="enable-background:new 0 0 130 100;" xml:space="preserve">
<style type="text/css">
	.st0{fill:#153B4E;}
	.st1{fill:#C50500;}
</style>
<g>
	<g>
		<g>
			<path class="st0" d="M52.6,32h2.9v22.2h-2.9v5.9h13.8v-5.9h-2.9V32h2.9V26H52.6V32z M89.7,41.8L89.7,41.8c2-0.6,3.6-1.6,4.9-3
				c1.3-1.4,1.9-3,1.9-4.8c0-2.5-1.1-4.5-3.2-5.9c-2.1-1.4-5.1-2.1-9.1-2.1H71.5v34.1H85c4,0,7.1-0.9,9.5-2.7
				c2.3-1.8,3.5-4.3,3.5-7.4c0-2.1-0.7-4-2.2-5.4C94.2,43,92.2,42.1,89.7,41.8z M79.4,31.7h3c3.9,0,5.8,1.3,5.8,3.8
				c0,1.3-0.5,2.4-1.4,3.2c-0.9,0.8-2.2,1.2-3.9,1.2h-3.5V31.7z M88,53.2c-1,0.8-2.5,1.2-4.3,1.2h-4.3v-9h4.3c1.8,0,3.3,0.4,4.3,1.2
				c1,0.8,1.5,1.8,1.5,3.2C89.6,51.3,89,52.4,88,53.2z M120.9,32.1c3,0,5.7,0.7,8.1,2v-7.4c-2.4-0.8-5.3-1.3-8.7-1.3
				c-5.6,0-10.1,1.7-13.5,5.1c-3.5,3.4-5.2,7.8-5.2,13.3c0,5.1,1.5,9.2,4.6,12.3c3.1,3.1,7.3,4.6,12.7,4.6c4.1,0,7.5-0.6,10.1-1.8
				v-7c-2.6,1.5-5.4,2.2-8.5,2.2c-3.2,0-5.8-1-7.7-2.9c-1.9-2-2.9-4.6-2.9-7.9c0-3.4,1-6.2,3-8.2C114.9,33.1,117.6,32.1,120.9,32.1z
				 M17.3,40.1v16.8c-5.5-1.7-9.5-6.8-9.5-12.7c0-4.2,2-8,5.2-10.5v-8.5c-7.5,3.2-12.8,10.5-12.8,19c0,11.4,9.5,20.7,21.3,20.7
				c11.8,0,21.3-9.3,21.3-20.7c0-1.4-0.1-2.8-0.4-4.1H17.3z M25.6,56.9v-8.5h8.9C33.1,52.5,29.8,55.7,25.6,56.9z M32.4,36.1h8.7
				c-2.2-5-6.3-8.9-11.4-11v8.4C30.7,34.2,31.7,35.1,32.4,36.1z"/>
		</g>
	</g>
	<path class="st1" d="M26.4,23.4c-1.3-0.3-2.7-0.4-4.1-0.4c-1.5,0-3,0.2-4.5,0.5v8c1.4-0.5,2.9-0.7,4.5-0.7c1.4,0,2.8,0.2,4.1,0.6
		V23.4z"/>
	<g>
		<path class="st0" d="M2.6,70.1v0.7H1.9v5.4h0.7v0.7H0.5v-0.7h0.7v-5.4H0.5v-0.7H2.6z"/>
		<path class="st0" d="M9.1,76.8h-1l-3.4-5.3c-0.1-0.1-0.2-0.3-0.2-0.4h0c0,0.1,0,0.4,0,0.9v4.8H3.7v-6.7h1l3.4,5.3
			c0.1,0.2,0.2,0.4,0.3,0.4h0c0-0.2,0-0.5,0-1v-4.7h0.8V76.8z"/>
		<path class="st0" d="M14.8,70.9h-1.9v6h-0.8v-6h-1.9v-0.7h4.7V70.9z"/>
		<path class="st0" d="M19.4,76.8h-3.6v-6.7h3.4v0.7h-2.6v2.2h2.4v0.7h-2.4v2.3h2.8V76.8z"/>
		<path class="st0" d="M25.5,76.8h-0.9L23.4,75c-0.1-0.2-0.2-0.3-0.3-0.4c-0.1-0.1-0.2-0.2-0.3-0.3c-0.1-0.1-0.2-0.1-0.3-0.2
			c-0.1,0-0.2-0.1-0.4-0.1h-0.6v2.9h-0.8v-6.7h2c0.3,0,0.6,0,0.8,0.1c0.2,0.1,0.5,0.2,0.6,0.3c0.2,0.1,0.3,0.3,0.4,0.6
			c0.1,0.2,0.2,0.5,0.2,0.8c0,0.2,0,0.4-0.1,0.6c-0.1,0.2-0.2,0.4-0.3,0.5c-0.1,0.2-0.3,0.3-0.5,0.4c-0.2,0.1-0.4,0.2-0.6,0.3v0
			c0.1,0,0.2,0.1,0.3,0.2c0.1,0.1,0.2,0.1,0.2,0.2c0.1,0.1,0.1,0.2,0.2,0.3c0.1,0.1,0.2,0.2,0.2,0.4L25.5,76.8z M21.5,70.9v2.4h1.1
			c0.2,0,0.4,0,0.5-0.1c0.2-0.1,0.3-0.1,0.4-0.3c0.1-0.1,0.2-0.2,0.3-0.4c0.1-0.2,0.1-0.3,0.1-0.5c0-0.4-0.1-0.6-0.3-0.8
			c-0.2-0.2-0.6-0.3-1-0.3H21.5z"/>
		<path class="st0" d="M29,76.8v-6.7H31c0.6,0,1,0.1,1.4,0.4c0.3,0.3,0.5,0.7,0.5,1.1c0,0.4-0.1,0.7-0.3,1c-0.2,0.3-0.5,0.5-0.9,0.6
			v0c0.5,0.1,0.8,0.2,1.1,0.5c0.3,0.3,0.4,0.7,0.4,1.1c0,0.6-0.2,1-0.6,1.4c-0.4,0.4-0.9,0.5-1.6,0.5H29z M29.8,70.9V73h0.8
			c0.4,0,0.8-0.1,1-0.3c0.2-0.2,0.4-0.5,0.4-0.9c0-0.7-0.4-1-1.3-1H29.8z M29.8,73.7v2.4h1.1c0.5,0,0.8-0.1,1.1-0.3
			c0.3-0.2,0.4-0.5,0.4-0.9c0-0.8-0.5-1.2-1.6-1.2H29.8z"/>
		<path class="st0" d="M39.4,74.1c0,1.9-0.8,2.8-2.5,2.8c-1.6,0-2.4-0.9-2.4-2.7v-4.1h0.8v4c0,1.4,0.6,2.1,1.7,2.1
			c1.1,0,1.7-0.7,1.7-2v-4.1h0.8V74.1z"/>
		<path class="st0" d="M40.8,76.6v-0.9c0.1,0.1,0.2,0.2,0.4,0.3c0.1,0.1,0.3,0.1,0.5,0.2c0.2,0.1,0.3,0.1,0.5,0.1c0.2,0,0.3,0,0.5,0
			c0.5,0,0.8-0.1,1.1-0.3c0.2-0.2,0.4-0.4,0.4-0.8c0-0.2,0-0.3-0.1-0.5c-0.1-0.1-0.2-0.3-0.3-0.4c-0.1-0.1-0.3-0.2-0.5-0.3
			c-0.2-0.1-0.4-0.2-0.6-0.3c-0.2-0.1-0.5-0.2-0.7-0.4c-0.2-0.1-0.4-0.3-0.5-0.4c-0.1-0.1-0.3-0.3-0.4-0.5c-0.1-0.2-0.1-0.4-0.1-0.7
			c0-0.3,0.1-0.6,0.2-0.8c0.1-0.2,0.3-0.4,0.5-0.6c0.2-0.1,0.5-0.3,0.7-0.3c0.3-0.1,0.6-0.1,0.9-0.1c0.7,0,1.1,0.1,1.4,0.2v0.9
			c-0.4-0.3-0.9-0.4-1.5-0.4c-0.2,0-0.3,0-0.5,0.1c-0.2,0-0.3,0.1-0.5,0.2c-0.1,0.1-0.2,0.2-0.3,0.3c-0.1,0.1-0.1,0.3-0.1,0.5
			c0,0.2,0,0.3,0.1,0.4c0.1,0.1,0.2,0.2,0.3,0.3c0.1,0.1,0.3,0.2,0.5,0.3c0.2,0.1,0.4,0.2,0.6,0.3c0.2,0.1,0.5,0.2,0.7,0.4
			c0.2,0.1,0.4,0.3,0.6,0.4c0.2,0.2,0.3,0.3,0.4,0.5c0.1,0.2,0.1,0.4,0.1,0.7c0,0.3-0.1,0.6-0.2,0.8c-0.1,0.2-0.3,0.4-0.5,0.6
			c-0.2,0.1-0.5,0.2-0.8,0.3c-0.3,0.1-0.6,0.1-0.9,0.1c-0.1,0-0.2,0-0.4,0c-0.2,0-0.3,0-0.5-0.1c-0.2,0-0.3-0.1-0.5-0.1
			C41,76.7,40.9,76.6,40.8,76.6z"/>
		<path class="st0" d="M47.6,70.1v0.7H47v5.4h0.7v0.7h-2.1v-0.7h0.7v-5.4h-0.7v-0.7H47.6z"/>
		<path class="st0" d="M54.1,76.8h-1l-3.4-5.3c-0.1-0.1-0.2-0.3-0.2-0.4h0c0,0.1,0,0.4,0,0.9v4.8h-0.8v-6.7h1l3.4,5.3
			c0.1,0.2,0.2,0.4,0.3,0.4h0c0-0.2,0-0.5,0-1v-4.7h0.8V76.8z"/>
		<path class="st0" d="M59.5,76.8h-3.6v-6.7h3.4v0.7h-2.6v2.2h2.4v0.7h-2.4v2.3h2.8V76.8z"/>
		<path class="st0" d="M60.4,76.6v-0.9c0.1,0.1,0.2,0.2,0.4,0.3c0.1,0.1,0.3,0.1,0.5,0.2c0.2,0.1,0.3,0.1,0.5,0.1c0.2,0,0.3,0,0.5,0
			c0.5,0,0.8-0.1,1.1-0.3c0.2-0.2,0.4-0.4,0.4-0.8c0-0.2,0-0.3-0.1-0.5c-0.1-0.1-0.2-0.3-0.3-0.4c-0.1-0.1-0.3-0.2-0.5-0.3
			c-0.2-0.1-0.4-0.2-0.6-0.3c-0.2-0.1-0.5-0.2-0.7-0.4c-0.2-0.1-0.4-0.3-0.5-0.4c-0.1-0.1-0.3-0.3-0.4-0.5c-0.1-0.2-0.1-0.4-0.1-0.7
			c0-0.3,0.1-0.6,0.2-0.8c0.1-0.2,0.3-0.4,0.5-0.6c0.2-0.1,0.5-0.3,0.7-0.3c0.3-0.1,0.6-0.1,0.9-0.1c0.7,0,1.1,0.1,1.4,0.2v0.9
			c-0.4-0.3-0.9-0.4-1.5-0.4c-0.2,0-0.3,0-0.5,0.1c-0.2,0-0.3,0.1-0.5,0.2s-0.2,0.2-0.3,0.3c-0.1,0.1-0.1,0.3-0.1,0.5
			c0,0.2,0,0.3,0.1,0.4c0.1,0.1,0.2,0.2,0.3,0.3c0.1,0.1,0.3,0.2,0.5,0.3c0.2,0.1,0.4,0.2,0.6,0.3c0.2,0.1,0.5,0.2,0.7,0.4
			c0.2,0.1,0.4,0.3,0.6,0.4c0.2,0.2,0.3,0.3,0.4,0.5c0.1,0.2,0.1,0.4,0.1,0.7c0,0.3-0.1,0.6-0.2,0.8c-0.1,0.2-0.3,0.4-0.5,0.6
			c-0.2,0.1-0.5,0.2-0.8,0.3c-0.3,0.1-0.6,0.1-0.9,0.1c-0.1,0-0.2,0-0.4,0c-0.2,0-0.3,0-0.5-0.1c-0.2,0-0.3-0.1-0.5-0.1
			C60.6,76.7,60.5,76.6,60.4,76.6z"/>
		<path class="st0" d="M65.5,76.6v-0.9c0.1,0.1,0.2,0.2,0.4,0.3c0.1,0.1,0.3,0.1,0.5,0.2c0.2,0.1,0.3,0.1,0.5,0.1c0.2,0,0.3,0,0.5,0
			c0.5,0,0.8-0.1,1.1-0.3c0.2-0.2,0.4-0.4,0.4-0.8c0-0.2,0-0.3-0.1-0.5c-0.1-0.1-0.2-0.3-0.3-0.4c-0.1-0.1-0.3-0.2-0.5-0.3
			c-0.2-0.1-0.4-0.2-0.6-0.3c-0.2-0.1-0.5-0.2-0.7-0.4c-0.2-0.1-0.4-0.3-0.5-0.4s-0.3-0.3-0.4-0.5c-0.1-0.2-0.1-0.4-0.1-0.7
			c0-0.3,0.1-0.6,0.2-0.8c0.1-0.2,0.3-0.4,0.5-0.6c0.2-0.1,0.5-0.3,0.7-0.3c0.3-0.1,0.6-0.1,0.9-0.1c0.7,0,1.1,0.1,1.4,0.2v0.9
			c-0.4-0.3-0.9-0.4-1.5-0.4c-0.2,0-0.3,0-0.5,0.1c-0.2,0-0.3,0.1-0.5,0.2c-0.1,0.1-0.2,0.2-0.3,0.3c-0.1,0.1-0.1,0.3-0.1,0.5
			c0,0.2,0,0.3,0.1,0.4c0.1,0.1,0.2,0.2,0.3,0.3c0.1,0.1,0.3,0.2,0.5,0.3c0.2,0.1,0.4,0.2,0.6,0.3c0.2,0.1,0.5,0.2,0.7,0.4
			c0.2,0.1,0.4,0.3,0.6,0.4c0.2,0.2,0.3,0.3,0.4,0.5c0.1,0.2,0.1,0.4,0.1,0.7c0,0.3-0.1,0.6-0.2,0.8c-0.1,0.2-0.3,0.4-0.5,0.6
			c-0.2,0.1-0.5,0.2-0.8,0.3c-0.3,0.1-0.6,0.1-0.9,0.1c-0.1,0-0.2,0-0.4,0c-0.2,0-0.3,0-0.5-0.1c-0.2,0-0.3-0.1-0.5-0.1
			C65.7,76.7,65.6,76.6,65.5,76.6z"/>
		<path class="st0" d="M78.1,76.6C77.6,76.8,77,77,76.3,77c-1,0-1.7-0.3-2.3-0.9c-0.6-0.6-0.9-1.4-0.9-2.4c0-1.1,0.3-1.9,1-2.6
			c0.6-0.7,1.5-1,2.5-1c0.6,0,1.2,0.1,1.6,0.3v0.8c-0.5-0.3-1-0.4-1.6-0.4c-0.8,0-1.4,0.3-1.9,0.8c-0.5,0.5-0.7,1.2-0.7,2.1
			c0,0.8,0.2,1.5,0.7,2c0.4,0.5,1,0.7,1.8,0.7c0.7,0,1.3-0.1,1.7-0.4V76.6z"/>
		<path class="st0" d="M82.2,77c-1,0-1.7-0.3-2.3-0.9c-0.6-0.6-0.9-1.4-0.9-2.4c0-1.1,0.3-1.9,0.9-2.6s1.4-1,2.4-1
			c0.9,0,1.7,0.3,2.2,0.9c0.6,0.6,0.8,1.4,0.8,2.4c0,1.1-0.3,2-0.9,2.6C83.9,76.6,83.1,77,82.2,77z M82.2,70.7
			c-0.7,0-1.3,0.3-1.7,0.8c-0.4,0.5-0.7,1.2-0.7,2c0,0.8,0.2,1.5,0.6,2c0.4,0.5,1,0.8,1.7,0.8c0.7,0,1.3-0.2,1.7-0.7
			c0.4-0.5,0.6-1.2,0.6-2c0-0.9-0.2-1.6-0.6-2.1C83.5,71,82.9,70.7,82.2,70.7z"/>
		<path class="st0" d="M92.1,76.8h-1l-3.4-5.3c-0.1-0.1-0.2-0.3-0.2-0.4h0c0,0.1,0,0.4,0,0.9v4.8h-0.8v-6.7h1l3.4,5.3
			c0.1,0.2,0.2,0.4,0.3,0.4h0c0-0.2,0-0.5,0-1v-4.7h0.8V76.8z"/>
		<path class="st0" d="M93.5,76.6v-0.9c0.1,0.1,0.2,0.2,0.4,0.3c0.1,0.1,0.3,0.1,0.5,0.2c0.2,0.1,0.3,0.1,0.5,0.1c0.2,0,0.3,0,0.5,0
			c0.5,0,0.8-0.1,1.1-0.3c0.2-0.2,0.4-0.4,0.4-0.8c0-0.2,0-0.3-0.1-0.5c-0.1-0.1-0.2-0.3-0.3-0.4c-0.1-0.1-0.3-0.2-0.5-0.3
			c-0.2-0.1-0.4-0.2-0.6-0.3c-0.2-0.1-0.5-0.2-0.7-0.4c-0.2-0.1-0.4-0.3-0.5-0.4c-0.1-0.1-0.3-0.3-0.4-0.5c-0.1-0.2-0.1-0.4-0.1-0.7
			c0-0.3,0.1-0.6,0.2-0.8c0.1-0.2,0.3-0.4,0.5-0.6c0.2-0.1,0.5-0.3,0.7-0.3c0.3-0.1,0.6-0.1,0.9-0.1c0.7,0,1.1,0.1,1.4,0.2v0.9
			c-0.4-0.3-0.9-0.4-1.5-0.4c-0.2,0-0.3,0-0.5,0.1c-0.2,0-0.3,0.1-0.5,0.2s-0.2,0.2-0.3,0.3s-0.1,0.3-0.1,0.5c0,0.2,0,0.3,0.1,0.4
			c0.1,0.1,0.2,0.2,0.3,0.3c0.1,0.1,0.3,0.2,0.5,0.3c0.2,0.1,0.4,0.2,0.6,0.3c0.2,0.1,0.5,0.2,0.7,0.4c0.2,0.1,0.4,0.3,0.6,0.4
			c0.2,0.2,0.3,0.3,0.4,0.5c0.1,0.2,0.1,0.4,0.1,0.7c0,0.3-0.1,0.6-0.2,0.8c-0.1,0.2-0.3,0.4-0.5,0.6c-0.2,0.1-0.5,0.2-0.8,0.3
			c-0.3,0.1-0.6,0.1-0.9,0.1c-0.1,0-0.2,0-0.4,0c-0.2,0-0.3,0-0.5-0.1c-0.2,0-0.3-0.1-0.5-0.1C93.7,76.7,93.6,76.6,93.5,76.6z"/>
		<path class="st0" d="M103.8,74.1c0,1.9-0.8,2.8-2.5,2.8c-1.6,0-2.4-0.9-2.4-2.7v-4.1h0.8v4c0,1.4,0.6,2.1,1.7,2.1
			c1.1,0,1.7-0.7,1.7-2v-4.1h0.8V74.1z"/>
		<path class="st0" d="M109,76.8h-3.5v-6.7h0.8v6h2.7V76.8z"/>
		<path class="st0" d="M114,70.9H112v6h-0.8v-6h-1.9v-0.7h4.7V70.9z"/>
		<path class="st0" d="M116.5,70.1v0.7h-0.7v5.4h0.7v0.7h-2.1v-0.7h0.7v-5.4h-0.7v-0.7H116.5z"/>
		<path class="st0" d="M123,76.8h-1l-3.4-5.3c-0.1-0.1-0.2-0.3-0.2-0.4h0c0,0.1,0,0.4,0,0.9v4.8h-0.8v-6.7h1l3.4,5.3
			c0.1,0.2,0.2,0.4,0.3,0.4h0c0-0.2,0-0.5,0-1v-4.7h0.8V76.8z"/>
		<path class="st0" d="M129.7,76.4c-0.7,0.4-1.4,0.6-2.2,0.6c-1,0-1.7-0.3-2.3-0.9c-0.6-0.6-0.9-1.4-0.9-2.4c0-1,0.3-1.9,1-2.6
			c0.7-0.7,1.5-1,2.5-1c0.7,0,1.3,0.1,1.8,0.4v0.9c-0.5-0.3-1.2-0.5-1.9-0.5c-0.8,0-1.4,0.3-1.8,0.8s-0.7,1.2-0.7,2
			c0,0.8,0.2,1.5,0.7,2c0.4,0.5,1.1,0.7,1.8,0.7c0.5,0,1-0.1,1.4-0.3v-1.9h-1.5v-0.7h2.3V76.4z"/>
	</g>
</g>
</svg>
