<?xml version="1.0" encoding="utf-8"?>
<!-- Generator: Adobe Illustrator 22.0.1, SVG Export Plug-In . SVG Version: 6.00 Build 0)  -->
<svg version="1.1" id="Слой_1" xmlns="http://www.w3.org/2000/svg" xmlns:xlink="http://www.w3.org/1999/xlink" x="0px" y="0px"
	 viewBox="0 0 130 100" style="enable-background:new 0 0 130 100;" xml:space="preserve">
<style type="text/css">
	.st0{fill:#033E5D;}
	.st1{fill:#333333;}
</style>
<g>
	<g>
		<path class="st0" d="M44.9,57.5v-4.8h0.5V57H49v0.5H44.9z"/>
		<path class="st0" d="M58,55.9c0,0.7-0.1,1.1-0.4,1.3c-0.2,0.2-0.7,0.3-1.3,0.3h-2.1c-0.7,0-1.1-0.1-1.4-0.4
			c-0.3-0.2-0.4-0.7-0.4-1.3v-1.5c0-0.6,0.1-1.1,0.4-1.3c0.3-0.3,0.7-0.4,1.4-0.4h2.1c0.6,0,1,0.1,1.3,0.3c0.3,0.3,0.4,0.7,0.4,1.4
			V55.9z M57.5,54.4c0-0.5-0.1-0.8-0.3-0.9c-0.2-0.2-0.5-0.2-1-0.2h-2.1c-0.5,0-0.8,0.1-1,0.3c-0.2,0.2-0.3,0.5-0.3,0.9v1.5
			c0,0.5,0.1,0.8,0.3,0.9c0.2,0.2,0.5,0.2,1,0.2h2.1c0.5,0,0.8-0.1,1-0.2c0.2-0.2,0.2-0.5,0.2-0.9V54.4z"/>
		<path class="st0" d="M65.3,57.5h-2.1c-0.6,0-1.1-0.1-1.4-0.4c-0.3-0.3-0.4-0.7-0.4-1.2v-1.4c0-0.6,0.1-1.1,0.4-1.3
			c0.3-0.3,0.7-0.4,1.4-0.4h2.1c1.1,0,1.7,0.5,1.7,1.4h-0.5c0-0.3-0.1-0.5-0.3-0.6c-0.2-0.2-0.5-0.2-1-0.2h-2.1
			c-0.5,0-0.8,0.1-1,0.3c-0.2,0.2-0.3,0.5-0.3,1v1.4c0,0.4,0.1,0.7,0.3,0.9c0.2,0.2,0.5,0.2,1,0.2h2.1c0.5,0,0.8-0.1,0.9-0.2
			c0.2-0.2,0.3-0.5,0.3-0.9v-0.2h-2.4v-0.5H67v0.4c0,0.7-0.1,1.2-0.4,1.5C66.4,57.4,65.9,57.5,65.3,57.5z"/>
		<path class="st0" d="M71.2,57.5h-0.5v-4.8h0.5V57.5z"/>
		<path class="st0" d="M75.1,54.1c0-0.5,0.1-0.8,0.4-1c0.2-0.2,0.6-0.3,1.2-0.3H79c1.1,0,1.6,0.5,1.6,1.4h-0.5
			c0-0.3-0.1-0.5-0.3-0.6c-0.2-0.2-0.5-0.2-1-0.2h-2.3c-0.4,0-0.7,0.1-0.9,0.2c-0.1,0.1-0.2,0.3-0.2,0.7c0,0.3,0.1,0.5,0.2,0.6
			c0.2,0.1,0.5,0.2,1,0.2h2.1c0.6,0,1.1,0.1,1.3,0.3c0.3,0.2,0.4,0.5,0.4,1v0.1c0,0.5-0.1,0.8-0.4,1c-0.2,0.2-0.6,0.3-1.2,0.3h-2.5
			c-0.5,0-0.9-0.1-1.1-0.3c-0.3-0.2-0.4-0.6-0.4-1h0.5c0,0.3,0.1,0.5,0.3,0.6c0.2,0.2,0.5,0.2,1,0.2h2.3c0.4,0,0.7-0.1,0.8-0.2
			c0.2-0.1,0.3-0.4,0.3-0.7c0-0.3-0.1-0.5-0.2-0.7s-0.5-0.2-0.9-0.2h-2.4c-0.6,0-1-0.1-1.3-0.3C75.2,54.8,75.1,54.5,75.1,54.1z"/>
		<path class="st0" d="M83.9,52.8h5.1v0.5h-2.3v4.3h-0.5v-4.3h-2.3V52.8z"/>
		<path class="st0" d="M93.2,57.5h-0.5v-4.8h0.5V57.5z"/>
		<path class="st0" d="M100.8,57.5h-2.1c-0.6,0-1.1-0.1-1.4-0.4c-0.3-0.3-0.4-0.7-0.4-1.3v-1.4c0-0.6,0.1-1.1,0.4-1.3
			c0.3-0.3,0.7-0.4,1.4-0.4h2.1c1.2,0,1.7,0.5,1.7,1.4H102c0-0.3-0.1-0.5-0.3-0.6c-0.2-0.2-0.5-0.2-1-0.2h-2.1c-0.5,0-0.8,0.1-1,0.3
			c-0.2,0.2-0.3,0.5-0.3,1v1.4c0,0.5,0.1,0.8,0.3,1c0.2,0.2,0.5,0.3,1,0.3h2.1c0.4,0,0.8-0.1,0.9-0.2c0.2-0.1,0.3-0.4,0.3-0.7h0.5
			c0,0.5-0.1,0.8-0.4,1C101.8,57.4,101.4,57.5,100.8,57.5z"/>
	</g>
</g>
<g>
	<path class="st0" d="M122.1,45.2c0-0.3-0.1-0.5-0.3-0.7c-0.2-0.2-0.5-0.3-0.8-0.3c-0.3,0-0.6,0.1-0.8,0.3c-0.2,0.2-0.3,0.5-0.3,0.8
		s0.1,0.6,0.3,0.8c0.2,0.2,0.5,0.3,0.8,0.3c0.3,0,0.6-0.1,0.8-0.3C122,45.8,122.1,45.6,122.1,45.2z"/>
	<path class="st0" d="M115.9,45.3c0-0.3-0.1-0.6-0.3-0.8c-0.2-0.2-0.5-0.3-0.8-0.3c-0.3,0-0.6,0.1-0.8,0.3c-0.2,0.2-0.3,0.5-0.3,0.7
		c0,0.3,0.1,0.6,0.3,0.8c0.2,0.2,0.5,0.3,0.8,0.3c0.3,0,0.6-0.1,0.8-0.3C115.8,45.8,115.9,45.6,115.9,45.3z"/>
	<path class="st0" d="M116.5,35.9C116.5,35.9,116.6,35.9,116.5,35.9l2.7,0.1c0.1,0,0.1,0,0.2-0.1c0.1-0.1,0.1-0.1,0.1-0.2v-1
		c0-0.1,0-0.1-0.1-0.2c-0.1-0.1-0.1-0.1-0.2-0.1h-2.6c-0.1,0-0.1,0-0.2,0.1c-0.1,0.1-0.1,0.1-0.1,0.2v0.9c0,0.1,0,0.1,0.1,0.2
		C116.4,35.8,116.5,35.9,116.5,35.9z"/>
	<path class="st0" d="M114.6,40.5c0,0,0.1,0,0.1,0c0.1,0,0.1,0,0.1,0h6.3c0.1,0,0.2,0,0.4-0.1c0.1-0.1,0.2-0.1,0.3-0.2
		c0.1-0.1,0.2-0.2,0.3-0.3c0.1-0.1,0.1-0.2,0.1-0.4v-2.2c0-0.1,0-0.2-0.1-0.3c-0.1-0.1-0.1-0.2-0.2-0.3c-0.1-0.1-0.2-0.2-0.3-0.2
		c-0.1-0.1-0.2-0.1-0.4-0.1h-6.4c-0.1,0-0.3,0-0.4,0.1c-0.1,0.1-0.2,0.2-0.3,0.3c-0.1,0.1-0.2,0.2-0.2,0.4c-0.1,0.1-0.1,0.3-0.1,0.4
		v1.9c0,0.2,0.1,0.5,0.3,0.7C114.1,40.3,114.3,40.4,114.6,40.5z"/>
	<path class="st0" d="M117.7,30.5c-12.4,0.1-11.1,21.2-11.1,21.2s4.6,2,11.5,1.8c7-0.2,11.3-1.8,11.3-1.8S131.3,30.4,117.7,30.5z
		 M118.6,32.3h0.1h0.1c0.2,0,0.4,0.1,0.5,0.2c0.1,0.1,0.2,0.3,0.2,0.5c0,0.2-0.1,0.4-0.2,0.5c-0.1,0.1-0.3,0.2-0.5,0.2
		c-0.2,0-0.4-0.1-0.5-0.2c-0.1-0.1-0.2-0.3-0.2-0.5C118.2,32.6,118.3,32.4,118.6,32.3z M116.3,32.8
		C116.3,32.8,116.3,32.8,116.3,32.8c0-0.1,0-0.1,0-0.1c0.1-0.2,0.2-0.3,0.4-0.4h0.1h0.1c0.2,0,0.4,0.1,0.5,0.2
		c0.1,0.1,0.2,0.3,0.2,0.5c0,0.2-0.1,0.4-0.2,0.5c-0.1,0.1-0.3,0.2-0.5,0.2c-0.2,0-0.3-0.1-0.5-0.2c-0.1-0.1-0.2-0.3-0.2-0.5V32.8z
		 M107.2,50.2l5.2-2.3l-5.2,3.3V50.2z M122.8,52l-2-3h-5.7l-2,3h-1.6l2.8-4.3c0,0-0.1-0.1-0.2-0.1c-0.2-0.1-0.3-0.1-0.4-0.1
		c-0.1-0.1-0.3-0.2-0.4-0.3c-0.1-0.1-0.3-0.3-0.4-0.4c-0.1-0.2-0.2-0.3-0.3-0.5c-0.1-0.2-0.1-0.3-0.1-0.5V36c0-0.2,0.1-0.5,0.2-0.7
		c0.1-0.2,0.3-0.5,0.5-0.6c0.2-0.2,0.4-0.3,0.7-0.5c0.3-0.1,0.5-0.2,0.7-0.2h6.9c0.2,0,0.5,0.1,0.7,0.2c0.3,0.1,0.5,0.3,0.7,0.5
		c0.2,0.2,0.4,0.4,0.5,0.7c0.1,0.2,0.2,0.5,0.2,0.7v9.6c0,0.2-0.1,0.3-0.1,0.4c-0.1,0.5-0.3,0.8-0.6,1.1c-0.3,0.2-0.7,0.4-1.1,0.6
		c0,0,0,0,0,0c0,0,0,0,0,0c0,0,0,0.1,0,0.1l2.8,4.2H122.8z M128.9,51l-5.2-3.3l5.2,2.3V51z"/>
	<polygon class="st0" points="116.3,46.4 115,47.5 120.9,47.5 119.7,46.4 	"/>
</g>
<g>
	<path class="st0" d="M128.3,54.8c-0.9,1.4-2,3-3.3,4c-2.1,0.3-4.6,0.5-7.9,0.4c-5.6-0.1-10.4-1.2-13.1-2.4c0.1-0.1,0.4-0.3,0.5-0.3
		c1.7-1.3,1.6-2.5,1.6-2.5s6.5,1.6,11.7,1.6C123.1,55.7,128.3,54.8,128.3,54.8z"/>
	<path class="st0" d="M57.6,67.8c-9.4-1.3-18.6-3.2-24.7-4.4c-15.2-3-28.6-8.5-31.5-9.2c0-0.1,0-0.1,0.1-0.2
		c1.2,0.2,2.5,0.5,3.7,0.6c4.4,0.7,8.8,1.3,13.2,1.9c4.8,0.7,9.6,1.3,14.4,1.9c6,0.8,12,1.4,18.1,1.9C52.2,62.3,54.4,65.1,57.6,67.8
		z"/>
	<path class="st0" d="M81.1,69.4c-3.6-0.1-7.5-0.2-12-0.5c-2-0.1-4.1-0.3-6.2-0.5c-0.1,0-0.1-0.1-0.2-0.1c-3.7-2.4-6.5-5.4-8.2-7.7
		c5.6,0.4,11.3,0.7,17,0.8C72.5,62.9,75.8,66.6,81.1,69.4z"/>
	<path class="st0" d="M105.2,67.8c-5.6,1-11.1,1.6-17.9,1.6c-0.6-0.2-1.2-0.5-1.8-0.7c-4.8-2.1-8.4-5.2-10.5-7.3
		c3.6,0,7.2-0.1,10.8-0.4c1.3-0.1,2.9-0.2,4.7-0.3c0,0,0.1,0.1,0.2,0.2c1.5,1.2,6.6,5.2,14,6.8C104.9,67.8,105,67.8,105.2,67.8z"/>
	<path class="st0" d="M122,61.7c-2.8,1.9-6.2,3.6-10.3,4.7c-1.6-0.2-3.5-0.5-5.5-0.9c-5.3-1.1-9.5-3.5-11.9-5.2
		c2.4-0.4,4.9-1,7.4-2.1c1.7,0.9,7.5,3.7,15.2,3.7c0.3,0,0.5,0,0.8,0C119.3,61.9,120.7,61.8,122,61.7z"/>
</g>
<path class="st1" d="M0.5,39.6v-1h5v1c-0.3,0-0.5,0.1-0.6,0.2c-0.1,0.1-0.2,0.3-0.2,0.6v9.2c0,0.3,0,0.5,0.2,0.6
	c0.1,0.1,0.3,0.2,0.6,0.2v1h-5v-1c0.3,0,0.5-0.1,0.6-0.2c0.1-0.1,0.2-0.3,0.2-0.6v-9.2C1.2,40,1,39.7,0.5,39.6z"/>
<path class="st1" d="M6.8,51.6v-1c0.3,0,0.5-0.1,0.6-0.2c0.1-0.1,0.2-0.3,0.2-0.6v-9.2c0-0.3-0.1-0.5-0.2-0.7
	c-0.1-0.1-0.3-0.2-0.6-0.2v-1h4.6l5.3,5.1v-3.3c0-0.3-0.1-0.5-0.2-0.6c-0.1-0.1-0.3-0.2-0.6-0.2v-1h3.8v1c-0.3,0-0.5,0.1-0.6,0.2
	s-0.2,0.3-0.2,0.6v9.2c0,0.3,0,0.5,0.2,0.6c0.1,0.1,0.3,0.2,0.6,0.2v1h-3.8v-1l0.2,0c0.4-0.1,0.6-0.3,0.6-0.7v-1.4l-7-6.7v8.1
	c0,0.3,0.1,0.5,0.2,0.6c0.1,0.1,0.3,0.2,0.6,0.2v1H6.8z"/>
<path class="st1" d="M20.9,38.7h10.9v3h-1c-0.1-0.3-0.2-0.5-0.3-0.7c-0.1-0.1-0.2-0.2-0.3-0.3c-0.2-0.1-0.4-0.2-0.7-0.2
	c0,0-0.1,0-0.3,0c-0.2,0-0.3,0-0.5,0l-0.7,0v9.2c0,0.3,0.1,0.5,0.2,0.6c0.1,0.1,0.3,0.2,0.6,0.2v1h-4.9v-1c0.3,0,0.5-0.1,0.6-0.2
	c0.1-0.1,0.2-0.3,0.2-0.6v-9.2H24c-0.1,0-0.3,0-0.5,0c-0.2,0-0.3,0-0.3,0c-0.2,0-0.5,0.1-0.7,0.2c-0.3,0.1-0.5,0.5-0.6,1h-1V38.7z"
	/>
<path class="st1" d="M33,51.6v-1c0.3,0,0.5-0.1,0.6-0.2c0.1-0.1,0.2-0.3,0.2-0.6v-9.2c0-0.3,0-0.5-0.1-0.7c-0.1-0.1-0.3-0.2-0.6-0.2
	v-1h11v3h-1c-0.1-0.3-0.2-0.5-0.3-0.7c-0.2-0.2-0.4-0.3-0.6-0.4c-0.2,0-0.6-0.1-1.3-0.1h-3.7v2.9h3.4c0.4,0,0.7-0.1,0.9-0.2
	c0.2-0.1,0.3-0.3,0.4-0.6h1v3.6h-1c0-0.3-0.2-0.6-0.4-0.7c-0.2-0.1-0.5-0.2-1-0.2h-3.3v4.5h4.4c0.5,0,0.8,0,1.1-0.1
	c0.3-0.1,0.4-0.2,0.6-0.4c0.1-0.2,0.2-0.4,0.3-0.7h1v3.1H33z"/>
<path class="st1" d="M54.3,45.6l2.6,4.1c0.3,0.4,0.6,0.7,1,0.8v1h-3.8L50.7,46h-1.1v3.7c0,0.3,0.1,0.5,0.2,0.6
	c0.1,0.1,0.3,0.2,0.6,0.2v1h-4.9v-1c0.3,0,0.5-0.1,0.6-0.2c0.1-0.1,0.2-0.3,0.2-0.6v-9.2c0-0.5-0.3-0.8-0.8-0.9v-1h5.7
	c1,0,1.8,0,2.4,0.1c0.6,0.1,1,0.1,1.3,0.3c0.4,0.1,0.7,0.4,1.1,0.6c0.4,0.3,0.7,0.7,0.9,1.1c0.2,0.5,0.3,1,0.3,1.5
	C57.2,43.8,56.2,45,54.3,45.6z M49.6,40.5v3.7h1.6c0.8,0,1.4-0.2,1.9-0.5c0.4-0.3,0.7-0.8,0.7-1.4c0-0.6-0.2-1-0.6-1.4
	c-0.3-0.3-1-0.5-1.9-0.5H49.6z"/>
<path class="st1" d="M68,45.6l2.6,4.1c0.3,0.4,0.6,0.7,1,0.8v1h-3.8L64.4,46h-1.1v3.7c0,0.3,0.1,0.5,0.2,0.6
	c0.1,0.1,0.3,0.2,0.6,0.2v1h-4.9v-1c0.3,0,0.5-0.1,0.6-0.2c0.1-0.1,0.2-0.3,0.2-0.6v-9.2c0-0.5-0.3-0.8-0.8-0.9v-1h5.7
	c1,0,1.8,0,2.4,0.1c0.6,0.1,1,0.1,1.3,0.3c0.4,0.1,0.7,0.4,1.1,0.6c0.4,0.3,0.7,0.7,0.9,1.1c0.2,0.5,0.3,1,0.3,1.5
	C70.9,43.8,69.9,45,68,45.6z M63.3,40.5v3.7h1.6c0.8,0,1.4-0.2,1.9-0.5c0.4-0.3,0.7-0.8,0.7-1.4c0-0.6-0.2-1-0.6-1.4
	c-0.3-0.3-1-0.5-1.9-0.5H63.3z"/>
<path class="st1" d="M81.2,47.2H77l-0.9,2.6c0,0,0,0.1,0,0.1c0,0.1-0.1,0.1-0.1,0.2c0,0.1,0.1,0.2,0.2,0.3c0.1,0.1,0.3,0.1,0.5,0.2
	v1h-3.9v-1c0.4-0.2,0.7-0.5,0.9-0.9l4.2-11h3.3l4.2,11.1c0.1,0.4,0.4,0.6,0.8,0.8v1h-4.9v-1c0.2,0,0.3-0.1,0.5-0.2
	c0.1-0.1,0.2-0.2,0.2-0.3v0l0-0.1l0-0.1L81.2,47.2z M80.5,45.3L79,41.2l-1.4,4.1H80.5z"/>
<path class="st1" d="M87.6,39.6v-1h5v1c-0.3,0-0.5,0.1-0.6,0.2c-0.1,0.1-0.2,0.3-0.2,0.6v9.2c0,0.3,0,0.5,0.2,0.6
	c0.1,0.1,0.3,0.2,0.6,0.2v1h-5v-1c0.3,0,0.5-0.1,0.6-0.2c0.1-0.1,0.2-0.3,0.2-0.6v-9.2C88.4,40,88.1,39.7,87.6,39.6z"/>
<path class="st1" d="M93.9,38.7h4.9v1c-0.5,0.1-0.8,0.3-0.8,0.9v9.1h3.6c0.5,0,0.9-0.1,1.2-0.3c0.3-0.2,0.5-0.5,0.5-1h1v3.2H93.9v-1
	c0.3,0,0.5-0.1,0.6-0.2c0.1-0.1,0.2-0.3,0.2-0.6v-9.2c0-0.3-0.1-0.5-0.2-0.6c-0.1-0.1-0.3-0.2-0.6-0.2V38.7z"/>
</svg>
