<?xml version="1.0" encoding="utf-8"?>
<!-- Generator: Adobe Illustrator 22.0.1, SVG Export Plug-In . SVG Version: 6.00 Build 0)  -->
<svg version="1.1" id="Слой_1" xmlns="http://www.w3.org/2000/svg" xmlns:xlink="http://www.w3.org/1999/xlink" x="0px" y="0px"
	 viewBox="0 0 130 100" style="enable-background:new 0 0 130 100;" xml:space="preserve">
<style type="text/css">
	.st0{fill:#021A32;}
	.st1{fill:#2E58A6;}
</style>
<g>
	<g>
		<path class="st0" d="M38.7,52.9l-5.4-6.2v6.2H30V38.3h3.3v6l5-6h4l-5.9,6.9l6.8,7.7H38.7z"/>
		<path class="st0" d="M47.2,43.6c1.2,0,2.2,0.4,3,1.1v-0.9h3.1v9.1h-3.1v-1h0c-0.7,0.7-1.7,1.3-3,1.3c-2.7,0-4.5-2.1-4.5-4.8
			S44.6,43.6,47.2,43.6z M48.1,50.5c1.2,0,2.1-0.9,2.1-2.1c0-1.3-0.9-2.1-2.1-2.1c-1.2,0-2.1,0.9-2.1,2.1
			C46,49.6,46.9,50.5,48.1,50.5z"/>
		<path class="st0" d="M55.4,43.9h3.1v1h0c0.7-0.7,1.6-1.2,2.6-1.2c1.2,0,2.5,0.4,3.2,1.7c1-1.1,2-1.7,3-1.7c1.7,0,3.5,0.8,3.5,3.4
			v6h-3.1v-5.1c0-0.9-0.5-1.7-1.6-1.7c-1,0-1.4,0.7-1.4,1.4v5.4h-3.1v-5.1c0-0.9-0.5-1.7-1.6-1.7c-1,0-1.4,0.8-1.4,1.5v5.3h-3.1
			V43.9z"/>
		<path class="st0" d="M72.8,43.9H76v1h0c0.7-0.7,1.6-1.2,2.6-1.2c1.2,0,2.5,0.4,3.2,1.7c1-1.1,2-1.7,3-1.7c1.7,0,3.5,0.8,3.5,3.4v6
			h-3.1v-5.1c0-0.9-0.5-1.7-1.6-1.7c-1,0-1.4,0.7-1.4,1.4v5.4H79v-5.1c0-0.9-0.5-1.7-1.6-1.7c-1,0-1.4,0.8-1.4,1.5v5.3h-3.1V43.9z"
			/>
		<path class="st0" d="M93.7,40.1c0,1-0.8,1.9-1.9,1.9c-1,0-1.9-0.8-1.9-1.9c0-1,0.8-1.9,1.9-1.9C92.9,38.3,93.7,39.1,93.7,40.1z
			 M90.2,52.9h3.1v-9.1h-3.1V52.9z"/>
		<path class="st0" d="M95.6,43.9h3.1v1h0c0.7-0.7,1.6-1.2,2.6-1.2c1.7,0,4,0.8,4,3.4v6h-3.1v-5.1c0-0.9-0.6-1.8-1.6-1.8
			c-0.9,0-1.9,0.9-1.9,1.8v5.1h-3.1V43.9z"/>
		<path class="st0" d="M109.4,53.9c0.3,0.5,1.1,1.2,2.5,1.2c0.9,0,2.2-0.5,2.2-2.1v-0.7c-0.7,0.7-1.7,0.9-3,0.9
			c-2.7,0-4.5-2.1-4.5-4.8s1.9-4.8,4.5-4.8c1.2,0,2.2,0.4,2.9,1.1h0.1v-0.8h3.1v9.3c0,3-2.2,4.6-5.3,4.6c-1.9,0-4.1-0.4-5-2.6
			L109.4,53.9z M112.1,50.5c1.2,0,2.1-0.9,2.1-2.1c0-1.3-0.9-2.1-2.1-2.1c-1.2,0-2.1,0.9-2.1,2.1C109.9,49.6,110.8,50.5,112.1,50.5z
			"/>
		<path class="st0" d="M123.2,43.6c1.2,0,2.2,0.4,3,1.1v-0.9h3.1v9.1h-3.1v-1h0c-0.7,0.7-1.7,1.3-3,1.3c-2.7,0-4.5-2.1-4.5-4.8
			S120.5,43.6,123.2,43.6z M124.1,50.5c1.2,0,2.1-0.9,2.1-2.1c0-1.3-0.9-2.1-2.1-2.1c-1.2,0-2.1,0.9-2.1,2.1
			C122,49.6,122.9,50.5,124.1,50.5z"/>
	</g>
	<g>
		<path class="st1" d="M68,60c0.2-0.2,0.3-0.3,0.4-0.4c0.1-0.1,0.2-0.1,0.3-0.2c0.1,0,0.2-0.1,0.3-0.1c0.2,0,0.3,0.1,0.5,0.2
			c0.1,0.1,0.2,0.3,0.3,0.5c0.2-0.3,0.4-0.4,0.6-0.5c0.1-0.1,0.3-0.1,0.5-0.1c0.2,0,0.3,0,0.4,0.1c0.1,0.1,0.2,0.2,0.3,0.4
			c0,0.1,0.1,0.3,0.1,0.6v1.2c0,0.2,0,0.3,0,0.4c0,0,0.1,0.1,0.1,0.1c0.1,0,0.1,0,0.3,0v0.1h-1.4v-0.1h0.1c0.1,0,0.2,0,0.3-0.1
			c0,0,0.1-0.1,0.1-0.2c0,0,0-0.1,0-0.3v-1.2c0-0.2,0-0.4-0.1-0.5c-0.1-0.1-0.2-0.2-0.4-0.2c-0.1,0-0.2,0-0.3,0.1
			c-0.1,0.1-0.2,0.2-0.4,0.3l0,0l0,0.1v1.4c0,0.2,0,0.3,0,0.4c0,0,0.1,0.1,0.1,0.1c0.1,0,0.2,0,0.3,0v0.1h-1.5v-0.1
			c0.2,0,0.3,0,0.3-0.1c0.1,0,0.1-0.1,0.1-0.2c0,0,0-0.1,0-0.3v-1.2c0-0.2,0-0.4-0.1-0.5c-0.1-0.1-0.2-0.2-0.4-0.2
			c-0.1,0-0.2,0-0.3,0.1c-0.2,0.1-0.3,0.2-0.4,0.3v1.6c0,0.2,0,0.3,0,0.4c0,0.1,0.1,0.1,0.1,0.1c0.1,0,0.2,0,0.3,0v0.1H67v-0.1
			c0.1,0,0.2,0,0.3,0c0.1,0,0.1-0.1,0.1-0.1c0-0.1,0-0.2,0-0.4v-1.1c0-0.3,0-0.5,0-0.6c0-0.1,0-0.1-0.1-0.1c0,0-0.1,0-0.1,0
			c-0.1,0-0.1,0-0.2,0l0-0.1l0.9-0.4H68V60z"/>
		<path class="st1" d="M73.8,61.9c-0.3,0.2-0.5,0.4-0.6,0.4c-0.1,0.1-0.2,0.1-0.4,0.1c-0.2,0-0.4-0.1-0.5-0.2
			c-0.1-0.1-0.2-0.3-0.2-0.5c0-0.1,0-0.3,0.1-0.4c0.1-0.1,0.2-0.3,0.5-0.4c0.2-0.1,0.6-0.3,1.1-0.5v-0.1c0-0.3,0-0.5-0.1-0.6
			c-0.1-0.1-0.2-0.2-0.4-0.2c-0.1,0-0.2,0-0.3,0.1c-0.1,0.1-0.1,0.2-0.1,0.2l0,0.2c0,0.1,0,0.2-0.1,0.2c0,0.1-0.1,0.1-0.2,0.1
			c-0.1,0-0.1,0-0.2-0.1c0-0.1-0.1-0.1-0.1-0.2c0-0.2,0.1-0.3,0.3-0.5c0.2-0.2,0.4-0.2,0.8-0.2c0.3,0,0.5,0,0.6,0.1
			c0.1,0.1,0.2,0.2,0.3,0.3c0,0.1,0.1,0.3,0.1,0.6v1c0,0.3,0,0.4,0,0.5c0,0.1,0,0.1,0.1,0.1c0,0,0.1,0,0.1,0c0,0,0.1,0,0.1,0
			c0,0,0.1-0.1,0.3-0.2v0.2c-0.2,0.3-0.5,0.5-0.7,0.5c-0.1,0-0.2,0-0.2-0.1S73.8,62.1,73.8,61.9z M73.8,61.7v-1.1
			c-0.3,0.1-0.5,0.2-0.6,0.3c-0.2,0.1-0.3,0.2-0.4,0.3c-0.1,0.1-0.1,0.2-0.1,0.3c0,0.2,0,0.3,0.1,0.4C72.9,62,73,62,73.2,62
			C73.3,62,73.5,61.9,73.8,61.7z"/>
		<path class="st1" d="M75.9,57.8v2.9l0.7-0.7c0.2-0.1,0.2-0.2,0.3-0.3c0,0,0-0.1,0-0.1c0,0,0-0.1-0.1-0.1c0,0-0.1,0-0.2-0.1v-0.1
			H78v0.1c-0.2,0-0.3,0-0.4,0.1c-0.1,0-0.2,0.1-0.4,0.3l-0.7,0.7l0.7,0.9c0.2,0.3,0.3,0.4,0.4,0.5c0.1,0.1,0.2,0.2,0.3,0.2
			c0.1,0,0.1,0,0.3,0v0.1h-1.4v-0.1c0.1,0,0.1,0,0.2,0c0,0,0-0.1,0-0.1c0,0,0-0.1-0.1-0.2l-0.9-1.1v1c0,0.2,0,0.3,0,0.4
			c0,0.1,0.1,0.1,0.1,0.1c0,0,0.2,0,0.3,0v0.1h-1.5v-0.1c0.1,0,0.3,0,0.3-0.1c0,0,0.1-0.1,0.1-0.1c0-0.1,0-0.2,0-0.4v-2.6
			c0-0.3,0-0.5,0-0.6c0-0.1,0-0.1-0.1-0.2c0,0-0.1,0-0.1,0c0,0-0.1,0-0.2,0.1l-0.1-0.1l0.9-0.4H75.9z"/>
		<path class="st1" d="M78.8,60.5c0,0.4,0.1,0.8,0.3,1c0.2,0.2,0.5,0.4,0.7,0.4c0.2,0,0.4-0.1,0.5-0.2c0.1-0.1,0.3-0.3,0.4-0.5
			l0.1,0.1c0,0.3-0.2,0.6-0.4,0.8c-0.2,0.2-0.5,0.4-0.8,0.4c-0.3,0-0.6-0.1-0.9-0.4c-0.2-0.3-0.4-0.6-0.4-1.1c0-0.5,0.1-0.9,0.4-1.2
			c0.3-0.3,0.6-0.4,1-0.4c0.3,0,0.6,0.1,0.8,0.3c0.2,0.2,0.3,0.5,0.3,0.9H78.8z M78.8,60.3h1.3c0-0.2,0-0.3-0.1-0.4
			c-0.1-0.1-0.1-0.2-0.2-0.3c-0.1-0.1-0.2-0.1-0.3-0.1c-0.2,0-0.3,0.1-0.5,0.2C78.9,59.9,78.8,60.1,78.8,60.3z"/>
		<path class="st1" d="M82.1,57.8v3.8c0,0.2,0,0.3,0,0.4c0,0.1,0.1,0.1,0.1,0.1c0.1,0,0.2,0,0.3,0v0.1h-1.4v-0.1c0.1,0,0.2,0,0.3,0
			c0,0,0.1-0.1,0.1-0.1c0-0.1,0-0.2,0-0.4V59c0-0.3,0-0.5,0-0.6c0-0.1,0-0.1-0.1-0.2c0,0-0.1,0-0.1,0c-0.1,0-0.1,0-0.2,0.1l-0.1-0.1
			l0.9-0.4H82.1z"/>
		<path class="st1" d="M84.6,61.9c-0.3,0.2-0.5,0.4-0.6,0.4c-0.1,0.1-0.2,0.1-0.4,0.1c-0.2,0-0.4-0.1-0.5-0.2
			C83,62.1,83,61.9,83,61.6c0-0.1,0-0.3,0.1-0.4c0.1-0.1,0.2-0.3,0.5-0.4c0.2-0.1,0.6-0.3,1.1-0.5v-0.1c0-0.3,0-0.5-0.1-0.6
			c-0.1-0.1-0.2-0.2-0.4-0.2c-0.1,0-0.2,0-0.3,0.1c-0.1,0.1-0.1,0.2-0.1,0.2l0,0.2c0,0.1,0,0.2-0.1,0.2c0,0.1-0.1,0.1-0.2,0.1
			c-0.1,0-0.1,0-0.2-0.1c0-0.1-0.1-0.1-0.1-0.2c0-0.2,0.1-0.3,0.3-0.5c0.2-0.2,0.4-0.2,0.8-0.2c0.3,0,0.5,0,0.6,0.1
			c0.1,0.1,0.2,0.2,0.3,0.3c0,0.1,0.1,0.3,0.1,0.6v1c0,0.3,0,0.4,0,0.5c0,0.1,0,0.1,0.1,0.1c0,0,0.1,0,0.1,0c0,0,0.1,0,0.1,0
			c0,0,0.1-0.1,0.3-0.2v0.2c-0.2,0.3-0.5,0.5-0.7,0.5c-0.1,0-0.2,0-0.2-0.1S84.6,62.1,84.6,61.9z M84.6,61.7v-1.1
			c-0.3,0.1-0.5,0.2-0.6,0.3c-0.2,0.1-0.3,0.2-0.4,0.3c-0.1,0.1-0.1,0.2-0.1,0.3c0,0.2,0,0.3,0.1,0.4C83.7,62,83.8,62,84,62
			C84.1,62,84.3,61.9,84.6,61.7z"/>
		<path class="st1" d="M87.5,61.9c-0.3,0.2-0.5,0.4-0.6,0.4c-0.1,0.1-0.2,0.1-0.4,0.1c-0.2,0-0.4-0.1-0.5-0.2
			c-0.1-0.1-0.2-0.3-0.2-0.5c0-0.1,0-0.3,0.1-0.4c0.1-0.1,0.2-0.3,0.5-0.4c0.2-0.1,0.6-0.3,1.1-0.5v-0.1c0-0.3,0-0.5-0.1-0.6
			c-0.1-0.1-0.2-0.2-0.4-0.2c-0.1,0-0.2,0-0.3,0.1c-0.1,0.1-0.1,0.2-0.1,0.2l0,0.2c0,0.1,0,0.2-0.1,0.2c0,0.1-0.1,0.1-0.2,0.1
			c-0.1,0-0.1,0-0.2-0.1c0-0.1-0.1-0.1-0.1-0.2c0-0.2,0.1-0.3,0.3-0.5c0.2-0.2,0.4-0.2,0.8-0.2c0.3,0,0.5,0,0.6,0.1
			c0.1,0.1,0.2,0.2,0.3,0.3c0,0.1,0.1,0.3,0.1,0.6v1c0,0.3,0,0.4,0,0.5c0,0.1,0,0.1,0.1,0.1c0,0,0.1,0,0.1,0c0,0,0.1,0,0.1,0
			c0,0,0.1-0.1,0.3-0.2v0.2c-0.2,0.3-0.5,0.5-0.7,0.5c-0.1,0-0.2,0-0.2-0.1S87.5,62.1,87.5,61.9z M87.5,61.7v-1.1
			c-0.3,0.1-0.5,0.2-0.6,0.3c-0.2,0.1-0.3,0.2-0.4,0.3c-0.1,0.1-0.1,0.2-0.1,0.3c0,0.2,0,0.3,0.1,0.4c0.1,0.1,0.2,0.2,0.3,0.2
			C87,62,87.2,61.9,87.5,61.7z"/>
		<path class="st1" d="M89.5,59.3V60c0.2-0.4,0.5-0.7,0.7-0.7c0.1,0,0.2,0,0.3,0.1c0.1,0.1,0.1,0.2,0.1,0.2c0,0.1,0,0.2-0.1,0.2
			C90.6,60,90.5,60,90.4,60c-0.1,0-0.2,0-0.2-0.1c-0.1-0.1-0.2-0.1-0.2-0.1c0,0-0.1,0-0.1,0.1c-0.1,0.1-0.2,0.2-0.3,0.4v1.4
			c0,0.2,0,0.3,0.1,0.4c0,0.1,0.1,0.1,0.1,0.1c0.1,0,0.2,0.1,0.3,0.1v0.1h-1.5v-0.1c0.1,0,0.3,0,0.3-0.1c0.1,0,0.1-0.1,0.1-0.2
			c0,0,0-0.1,0-0.3v-1.1c0-0.3,0-0.5,0-0.6c0-0.1,0-0.1-0.1-0.1c0,0-0.1,0-0.1,0c-0.1,0-0.1,0-0.2,0l0-0.1l0.9-0.4H89.5z"/>
		<path class="st1" d="M92.7,59.3v1h-0.1c-0.1-0.3-0.2-0.5-0.3-0.6c-0.1-0.1-0.3-0.2-0.5-0.2c-0.1,0-0.3,0-0.4,0.1
			c-0.1,0.1-0.1,0.2-0.1,0.3c0,0.1,0,0.2,0.1,0.3c0.1,0.1,0.2,0.2,0.4,0.3l0.5,0.2c0.4,0.2,0.6,0.5,0.6,0.8c0,0.3-0.1,0.5-0.3,0.6
			c-0.2,0.2-0.4,0.2-0.7,0.2c-0.2,0-0.4,0-0.6-0.1c-0.1,0-0.1,0-0.2,0c0,0-0.1,0-0.1,0.1H91v-1h0.1c0.1,0.3,0.2,0.5,0.3,0.7
			c0.2,0.1,0.4,0.2,0.6,0.2c0.1,0,0.3,0,0.4-0.1c0.1-0.1,0.1-0.2,0.1-0.3c0-0.1-0.1-0.3-0.2-0.4c-0.1-0.1-0.3-0.2-0.6-0.4
			s-0.5-0.3-0.6-0.4C91,60.5,91,60.4,91,60.2c0-0.2,0.1-0.4,0.2-0.6c0.2-0.2,0.4-0.2,0.6-0.2c0.1,0,0.3,0,0.4,0.1c0.1,0,0.2,0,0.2,0
			c0,0,0.1,0,0.1,0c0,0,0,0,0.1-0.1H92.7z"/>
	</g>
	<g>
		<rect x="30" y="60" class="st0" width="32.1" height="0.6"/>
	</g>
	<g>
		<rect x="97.5" y="60" class="st0" width="32.1" height="0.6"/>
	</g>
	<polygon class="st0" points="11.7,50.4 17.1,37.6 6.8,43.8 6.5,44.3 3.2,50.7 4.3,50.6 6.2,56.6 12.7,60.3 12.9,51.1 13,51.1 
		20.3,50.1 11.7,50.4 	"/>
	<polygon class="st0" points="3.6,51.2 2.1,51.1 4.6,46.3 0.4,46.8 2.5,53 4.3,53.3 3.6,51.2 	"/>
	<polygon class="st0" points="19.9,44.6 21.9,50.2 21.2,50.2 21,50.8 20,55.2 21.4,55.5 24.8,43.9 19.9,44.6 	"/>
</g>
</svg>
