<?xml version="1.0" encoding="utf-8"?>
<!-- Generator: Adobe Illustrator 22.0.1, SVG Export Plug-In . SVG Version: 6.00 Build 0)  -->
<svg version="1.1" id="Слой_1" xmlns="http://www.w3.org/2000/svg" xmlns:xlink="http://www.w3.org/1999/xlink" x="0px" y="0px"
	 viewBox="0 0 130 100" style="enable-background:new 0 0 130 100;" xml:space="preserve">
<style type="text/css">
	.st0{fill:#8F014D;}
	.st1{fill:#CF976C;stroke:#000000;stroke-miterlimit:10;}
	.st2{fill:#381807;}
	.st3{fill:#FE6E1B;}
	.st4{fill:#A54712;}
	.st5{fill:#D9D9D9;}
	.st6{clip-path:url(#SVGID_2_);fill:#CF976C;}
	.st7{clip-path:url(#SVGID_2_);fill:#D0986D;}
	.st8{clip-path:url(#SVGID_2_);fill:#D1996F;}
	.st9{clip-path:url(#SVGID_2_);fill:#D19B70;}
	.st10{clip-path:url(#SVGID_2_);fill:#D29C72;}
	.st11{clip-path:url(#SVGID_2_);fill:#D39D73;}
	.st12{clip-path:url(#SVGID_2_);fill:#D49E75;}
	.st13{clip-path:url(#SVGID_2_);fill:#D49F76;}
	.st14{clip-path:url(#SVGID_2_);fill:#D5A178;}
	.st15{clip-path:url(#SVGID_2_);fill:#D6A279;}
	.st16{clip-path:url(#SVGID_2_);fill:#D7A37B;}
	.st17{clip-path:url(#SVGID_2_);fill:#D7A47C;}
	.st18{clip-path:url(#SVGID_2_);fill:#D8A57E;}
	.st19{clip-path:url(#SVGID_2_);fill:#D9A77F;}
	.st20{clip-path:url(#SVGID_2_);fill:#D9A881;}
	.st21{clip-path:url(#SVGID_2_);fill:#DAA983;}
	.st22{clip-path:url(#SVGID_2_);fill:#DBAA84;}
	.st23{clip-path:url(#SVGID_2_);fill:#DCAB86;}
	.st24{clip-path:url(#SVGID_2_);fill:#DCAD87;}
	.st25{clip-path:url(#SVGID_2_);fill:#DDAE89;}
	.st26{clip-path:url(#SVGID_2_);fill:#DEAF8A;}
	.st27{clip-path:url(#SVGID_2_);fill:#DEB08C;}
	.st28{clip-path:url(#SVGID_2_);fill:#DFB18E;}
	.st29{clip-path:url(#SVGID_2_);fill:#E0B38F;}
	.st30{clip-path:url(#SVGID_2_);fill:#E1B491;}
	.st31{clip-path:url(#SVGID_2_);fill:#E1B592;}
	.st32{clip-path:url(#SVGID_2_);fill:#E2B694;}
	.st33{clip-path:url(#SVGID_2_);fill:#E3B796;}
	.st34{clip-path:url(#SVGID_2_);fill:#E3B997;}
	.st35{clip-path:url(#SVGID_2_);fill:#E4BA99;}
	.st36{clip-path:url(#SVGID_2_);fill:#E5BB9A;}
	.st37{clip-path:url(#SVGID_2_);fill:#E5BC9C;}
	.st38{clip-path:url(#SVGID_2_);fill:#E6BD9D;}
	.st39{clip-path:url(#SVGID_2_);fill:#E7BE9F;}
	.st40{clip-path:url(#SVGID_2_);fill:#E7C0A1;}
	.st41{clip-path:url(#SVGID_2_);fill:#E8C1A2;}
	.st42{clip-path:url(#SVGID_2_);fill:#E9C2A4;}
	.st43{clip-path:url(#SVGID_2_);fill:#E9C3A5;}
	.st44{clip-path:url(#SVGID_2_);fill:#EAC4A7;}
	.st45{clip-path:url(#SVGID_2_);fill:#EBC5A9;}
	.st46{clip-path:url(#SVGID_2_);fill:#EBC6AA;}
	.st47{clip-path:url(#SVGID_2_);fill:#ECC8AC;}
	.st48{clip-path:url(#SVGID_2_);fill:#EDC9AD;}
	.st49{clip-path:url(#SVGID_2_);fill:#EDCAAF;}
	.st50{clip-path:url(#SVGID_2_);fill:#EECBB0;}
	.st51{clip-path:url(#SVGID_2_);fill:#EECCB2;}
	.st52{clip-path:url(#SVGID_2_);fill:#EFCDB4;}
	.st53{clip-path:url(#SVGID_2_);fill:#F0CEB5;}
	.st54{clip-path:url(#SVGID_2_);fill:#F0CFB7;}
	.st55{clip-path:url(#SVGID_2_);fill:#F1D0B8;}
	.st56{clip-path:url(#SVGID_2_);fill:#F1D1BA;}
	.st57{clip-path:url(#SVGID_2_);fill:#F2D2BB;}
	.st58{clip-path:url(#SVGID_2_);fill:#F3D4BD;}
	.st59{clip-path:url(#SVGID_2_);fill:#F3D5BE;}
	.st60{clip-path:url(#SVGID_2_);fill:#F4D6C0;}
	.st61{clip-path:url(#SVGID_2_);fill:#F4D7C1;}
	.st62{clip-path:url(#SVGID_2_);fill:#F5D8C3;}
	.st63{clip-path:url(#SVGID_2_);fill:#F6D9C4;}
	.st64{clip-path:url(#SVGID_2_);fill:#F6DAC6;}
	.st65{clip-path:url(#SVGID_2_);fill:#F7DBC7;}
	.st66{clip-path:url(#SVGID_2_);fill:#F7DCC8;}
	.st67{clip-path:url(#SVGID_2_);fill:#F8DDCA;}
	.st68{clip-path:url(#SVGID_2_);fill:#F8DECB;}
	.st69{clip-path:url(#SVGID_2_);fill:#F9DFCD;}
	.st70{clip-path:url(#SVGID_2_);fill:#F9E0CE;}
	.st71{clip-path:url(#SVGID_2_);fill:#FAE0CF;}
	.st72{clip-path:url(#SVGID_2_);fill:#FAE1D1;}
	.st73{clip-path:url(#SVGID_2_);fill:#FBE2D2;}
	.st74{clip-path:url(#SVGID_2_);fill:#FBE3D3;}
	.st75{clip-path:url(#SVGID_2_);fill:#FBE4D4;}
	.st76{clip-path:url(#SVGID_2_);fill:#FCE5D6;}
	.st77{clip-path:url(#SVGID_2_);fill:#FCE5D7;}
	.st78{clip-path:url(#SVGID_2_);fill:#FDE6D8;}
	.st79{clip-path:url(#SVGID_2_);fill:#FDE7D9;}
	.st80{clip-path:url(#SVGID_2_);fill:#FDE7DA;}
	.st81{clip-path:url(#SVGID_2_);fill:#FEE8DB;}
	.st82{fill:#FFFFFF;}
	.st83{opacity:0.5;}
	.st84{fill:#431C0B;}
	.st85{opacity:0.5;fill:#431C0B;}
	.st86{fill:none;stroke:#000000;stroke-width:0.1;stroke-miterlimit:10;}
	.st87{fill:#13678B;}
	.st88{fill:#0B1D32;}
	.st89{fill:#0E4A63;}
	.st90{opacity:0.41;fill:#444444;}
	.st91{opacity:0.47;fill:#444444;}
	.st92{fill:#0F2743;}
	.st93{opacity:0.18;fill:#431C0B;}
	.st94{opacity:0.42;fill:#0B3A4D;}
	.st95{fill:#A1D657;}
	.st96{fill:#79C349;}
	.st97{fill:#76C5AB;}
	.st98{fill:#54B88B;}
	.st99{fill:#6AAE3E;}
	.st100{fill:#FEBE3E;}
	.st101{fill:#FE9427;}
	.st102{fill:#4EA580;}
	.st103{fill:#F34146;}
	.st104{fill:#D9222F;}
	.st105{fill:#F62936;}
	.st106{fill:#FEE2AC;}
	.st107{fill:#C6E36B;}
	.st108{fill:#30100B;}
	.st109{fill:#444444;}
</style>
<g>
	<g>
		<path class="st0" d="M24.1,32.5l5.4,3.7l-1.2,1.7l-10.7-7.2l-1,1.8l-1.8-1.1l2-3.7l5.4,3.4l-2.1-8.6l2.1-0.6l1.7,6.4l0,0
			c0.2-0.1,0.5-0.1,0.8-0.1c0.4,0.1,0.8,0.2,1.3,0.4c0.5,0.2,1,0.4,1.5,0.6c0.5,0.2,1,0.4,1.5,0.5c0.5,0.1,0.9,0.2,1.3,0.2
			c0.4,0,0.7-0.2,0.9-0.5c0.1-0.1,0-0.2-0.1-0.3c-0.1-0.1-0.3-0.3-0.5-0.5c-0.2-0.2-0.4-0.3-0.6-0.5c-0.2-0.1-0.3-0.3-0.4-0.4
			l1.6-1.3c0.4,0.2,0.7,0.5,1,0.8c0.3,0.3,0.6,0.6,0.8,1c0.2,0.3,0.3,0.7,0.3,1.1c0,0.4-0.1,0.8-0.3,1.1c-0.3,0.5-0.7,0.8-1.1,1.1
			c-0.4,0.2-0.9,0.4-1.5,0.4c-0.5,0-1.1,0-1.7-0.1c-0.6-0.1-1.2-0.2-1.7-0.4c-0.6-0.2-1.1-0.3-1.6-0.5c-0.5-0.2-1-0.3-1.4-0.5
			L24.1,32.5z"/>
		<path class="st0" d="M34.4,15c0.2,0.2,0.4,0.5,0.6,0.8c0.2,0.3,0.5,0.6,0.8,1c0.3,0.4,0.6,0.7,0.9,1.1c0.3,0.4,0.6,0.7,0.9,1
			c0.3,0.3,0.5,0.5,0.8,0.7c0.2,0.2,0.5,0.3,0.7,0.4l1.7-2.3l2.1,1.5l-3,3.7L39,22.3c-0.2,0.8-0.5,1.5-0.9,2.2
			c-0.4,0.6-0.8,1.2-1.2,1.6c-0.4,0.4-0.9,0.7-1.4,0.9c-0.5,0.2-1,0.3-1.5,0.3c-0.5,0-1-0.1-1.4-0.3c-0.5-0.2-0.9-0.5-1.3-0.9
			c-0.5-0.5-0.8-1.1-1-1.8c-0.2-0.7-0.3-1.4-0.2-2.1c0-0.7,0.2-1.4,0.5-2.1c0.3-0.7,0.7-1.2,1.2-1.7c0.4-0.3,0.8-0.6,1.4-0.9
			c-0.2-0.4-0.4-0.7-0.6-1L34.4,15z M35.6,24c0.3-0.5,0.6-1,0.7-1.4c0.2-0.4,0.3-0.7,0.4-1.1c0.1-0.4,0-0.7-0.2-0.8
			c-0.3-0.3-0.6-0.5-0.9-0.6C35.3,20,35,20,34.6,20c-0.3,0-0.7,0.1-0.9,0.2c-0.3,0.1-0.5,0.3-0.7,0.4c-0.2,0.2-0.4,0.5-0.6,0.8
			c-0.1,0.3-0.2,0.6-0.3,0.9c0,0.3,0,0.6,0.1,1c0.1,0.3,0.3,0.6,0.5,0.9c0.4,0.4,0.9,0.6,1.4,0.6C34.6,24.7,35.1,24.5,35.6,24z"/>
		<path class="st0" d="M48.5,23c0.7-0.1,1.4-0.3,1.9-0.6c0.4-0.2,0.7-0.4,1-0.6c0.3-0.2,0.5-0.5,0.7-0.8c0.2-0.3,0.3-0.5,0.4-0.8
			c0.1-0.3,0-0.5-0.1-0.8c-0.2-0.4-0.5-0.7-0.8-1c-0.3-0.2-0.7-0.4-1.2-0.5c-0.4-0.1-0.9-0.2-1.4-0.2c-0.5,0-1,0-1.6,0.1L47,16.3
			c0.1-0.2,0.2-0.4,0.5-0.7c0.2-0.3,0.4-0.6,0.6-0.9c0.2-0.4,0.3-0.7,0.3-1.2c0-0.4-0.1-0.9-0.4-1.5c-0.2-0.3-0.4-0.6-0.8-0.8
			c-0.3-0.2-0.7-0.3-1.1-0.4c-0.4-0.1-0.8-0.1-1.2,0c-0.4,0.1-0.8,0.2-1.2,0.4c-0.6,0.3-1.1,0.7-1.5,1.3c-0.4,0.6-0.7,1.2-0.8,1.8
			c-0.3-0.4-0.6-0.7-0.9-0.9c-0.2-0.2-0.5-0.5-0.6-0.8c0.1-0.5,0.3-0.9,0.5-1.2c0.2-0.3,0.4-0.7,0.7-0.9c0.3-0.3,0.6-0.6,1-0.8
			c0.4-0.3,0.9-0.6,1.5-0.9C44,8.7,44.4,8.6,45,8.6c0.6,0,1.2,0.1,1.8,0.3C47.4,9,48,9.3,48.6,9.6c0.6,0.4,1,0.9,1.3,1.5
			c0.4,0.8,0.6,1.6,0.6,2.4c0,0.8-0.4,1.6-1.2,2.5c0.6-0.3,1.2-0.5,1.8-0.5c0.5,0,1,0,1.5,0.2c0.4,0.2,0.8,0.4,1.2,0.7
			s0.6,0.7,0.8,1.1c0.3,0.7,0.5,1.4,0.5,2s-0.2,1.3-0.5,1.9c-0.3,0.6-0.7,1.2-1.2,1.6c-0.5,0.5-1.1,0.9-1.8,1.3
			c-0.9,0.5-1.9,0.8-3,0.9c-1.1,0.1-2.1,0-3.2-0.4l0.9-2.2C47.1,23,47.8,23.1,48.5,23z"/>
		<path class="st0" d="M55.1,7.7c0.1-0.7,0.2-1.4,0.4-2.1c0.2-0.7,0.4-1.3,0.7-1.8c0.3-0.5,0.5-1,0.8-1.4c0.3-0.4,0.6-0.6,0.8-0.8
			c0.1,0.1,0.3,0.1,0.5,0.3c0.2,0.1,0.4,0.2,0.6,0.4c0.2,0.1,0.4,0.3,0.7,0.4c0.2,0.1,0.5,0.3,0.7,0.3c-0.3,0.3-0.6,0.6-1,1
			c-0.4,0.4-0.7,0.8-1,1.2c-0.3,0.4-0.6,0.9-0.7,1.4c-0.2,0.5-0.2,1-0.1,1.6c0,0.1,0.1,0.3,0.2,0.4c0.1,0.2,0.3,0.4,0.5,0.6
			c0.2,0.2,0.5,0.5,0.9,0.8c0.4,0.3,0.8,0.5,1.3,0.8l2.3-0.8l0.7,2.3l-3.4,0.9L55.5,10l1.2,4.6l-2.1,0.5L51.8,4.5l-1,0.4l-0.7-2
			l3-1.4L55.1,7.7z"/>
		<path class="st0" d="M68.3,13.8c-0.5-0.1-1-0.3-1.5-0.5c-0.5-0.2-1-0.5-1.4-0.7c-0.5-0.3-0.9-0.6-1.2-1c-0.3-0.4-0.6-0.8-0.8-1.2
			c-0.2-0.4-0.3-0.9-0.3-1.5c0-0.7,0.2-1.4,0.6-2s0.8-1.3,1.4-1.8c0.6-0.5,1.2-0.9,2-1.2c0.7-0.3,1.5-0.4,2.3-0.4
			c0.8,0,1.5,0.2,2.2,0.7c0.7,0.4,1.3,0.9,1.8,1.6c0.5,0.6,0.9,1.3,1.2,2c0.3,0.7,0.4,1.4,0.4,2c0,0.6-0.2,1.2-0.4,1.8
			c-0.3,0.5-0.6,1-1.1,1.4c-0.5,0.4-1,0.7-1.6,0.9c-0.6,0.2-1.3,0.3-2.1,0.3C69.2,13.9,68.8,13.9,68.3,13.8z M70.2,11.4
			c0.4-0.1,0.7-0.2,1-0.3c0.3-0.2,0.5-0.4,0.7-0.6c0.2-0.3,0.3-0.5,0.3-0.9c0-0.3-0.1-0.7-0.2-1.1c-0.2-0.4-0.4-0.8-0.7-1.2
			c-0.3-0.4-0.6-0.7-1-0.9c-0.4-0.3-0.8-0.4-1.2-0.4c-0.5,0-0.9,0.1-1.3,0.2c-0.4,0.2-0.9,0.4-1.2,0.7c-0.4,0.3-0.7,0.6-0.9,1
			c-0.2,0.4-0.3,0.7-0.4,1.1c0,0.4,0.1,0.8,0.4,1.1c0.3,0.3,0.6,0.6,1,0.8c0.4,0.2,0.8,0.4,1.3,0.5c0.5,0.1,0.9,0.2,1.3,0.2
			C69.4,11.5,69.8,11.5,70.2,11.4z"/>
		<path class="st0" d="M77.1,3L78,3.2c2,0.5,3.4,1.1,4.2,1.8c0.8,0.7,1.1,1.5,0.8,2.3c-0.1,0.4-0.2,0.7-0.4,0.9
			c-0.2,0.2-0.4,0.3-0.6,0.3c-0.2,0.1-0.4,0.1-0.7,0.1c-0.2,0-0.5,0.1-0.7,0.2c0.2,0.2,0.4,0.5,0.6,0.8c0.2,0.3,0.4,0.6,0.6,0.9
			c0.2,0.3,0.3,0.6,0.4,0.9c0.1,0.3,0.1,0.6,0,0.8c-0.2,0.6-0.4,1.1-0.7,1.4c-0.3,0.3-0.7,0.5-1.2,0.7c-0.5,0.1-1,0.1-1.7,0.1
			c-0.6-0.1-1.4-0.2-2.1-0.4c-0.7-0.2-1.4-0.4-2.2-0.6L77.1,3z M76.8,12.4c0.2,0.1,0.5,0.2,0.7,0.3c0.3,0.1,0.7,0.1,0.9,0.1
			c0.3,0,0.5-0.1,0.8-0.3c0.2-0.1,0.4-0.3,0.6-0.5c0.1-0.2,0.3-0.4,0.3-0.7c0.1-0.5,0.1-0.9-0.2-1.4c-0.2-0.5-0.7-0.8-1.4-0.9
			c-0.2-0.1-0.5-0.1-0.7-0.1L76.8,12.4z M78,7.5c0.1,0,0.1,0.1,0.2,0.1c0.1,0,0.1,0,0.2,0c0.6,0.1,1.1,0.1,1.5,0
			c0.4-0.2,0.7-0.5,0.8-0.9c0.1-0.4,0-0.8-0.3-1C80.1,5.4,79.6,5.2,79,5L78.7,5L78,7.5z"/>
		<path class="st0" d="M85.7,17.9c-0.4-0.3-0.8-0.6-1.1-1c-0.4-0.4-0.7-0.8-1-1.3c-0.3-0.5-0.5-0.9-0.7-1.4c-0.2-0.5-0.2-1-0.2-1.5
			c0-0.5,0.1-1,0.4-1.4c0.3-0.6,0.8-1.2,1.4-1.6c0.6-0.5,1.3-0.8,2-1c0.7-0.2,1.5-0.3,2.3-0.3c0.8,0,1.5,0.2,2.2,0.6
			c0.7,0.3,1.2,0.8,1.7,1.5c0.4,0.7,0.7,1.4,0.9,2.2c0.2,0.8,0.3,1.5,0.2,2.3c0,0.8-0.2,1.4-0.5,2c-0.3,0.6-0.7,1-1.1,1.4
			c-0.5,0.4-1,0.6-1.6,0.8c-0.6,0.2-1.2,0.2-1.9,0.1c-0.7-0.1-1.3-0.3-2-0.6C86.5,18.5,86.1,18.2,85.7,17.9z M88.4,16.6
			c0.4,0.1,0.7,0.1,1,0.1c0.3,0,0.6-0.1,0.9-0.3c0.3-0.2,0.5-0.4,0.6-0.7c0.1-0.3,0.2-0.7,0.3-1.1c0-0.4,0-0.9-0.1-1.4
			c-0.1-0.5-0.3-0.9-0.5-1.3c-0.2-0.4-0.6-0.7-0.9-0.9c-0.4-0.2-0.8-0.3-1.3-0.4c-0.5,0-0.9,0-1.4,0.1c-0.4,0.1-0.8,0.3-1.2,0.5
			c-0.4,0.2-0.6,0.5-0.8,0.8c-0.2,0.4-0.3,0.8-0.2,1.2c0.1,0.4,0.3,0.8,0.5,1.1c0.3,0.4,0.6,0.7,0.9,1c0.4,0.3,0.7,0.5,1.1,0.7
			C87.6,16.4,88,16.5,88.4,16.6z"/>
	</g>
	<g>
		<path class="st1" d="M73.4,53.4c0,0-1,1.5-1,2c0,0.5,0.3,2.3,0.5,3.6c0.1,1.3-0.8,3.6-3.3,10c-0.6,1.5,0.5,3.9,0.7,5
			c0.2,1.1,0.5,2.4,0.6,3.5c0,1.2-0.7,4.8-0.7,4.8s0.6,0.8,0.9,1.2c0.3,0.4,0.6,1.2,0.9,1.5c0.8,0.9,1.3,2.9,1.3,2.9
			s-0.9,2.1-1.5,2.4c-0.9,0.4-5.3,0.3-5.7,0.3c0,0,0.4-1.3-0.1-2c-0.5-0.7-2-2.4-2.5-2.7c-0.4-0.3-0.9-1.3-1.1-1.6s-1.6-2.7-1.6-2.7
			s1.3,6.9,1.3,7.3c0.1,0.9-0.1,1.4-0.6,1.7c-0.5,0.2-6.3,0.2-6.6,0.1c0,0,0.7-6.3-0.1-8.6c-0.4-1.1-0.5-5.8-0.4-6.9
			c0.1-1.1,1-7.3,1.4-8.5c0.4-1.1,0.6-5.5,1.7-7c1.3-1.9,6.6-3.9,7.2-5.7c0.6-1.8,1.1-5.2,1.1-5.2L73.4,53.4z"/>
		<path class="st2" d="M63.8,64.8l4.4-1.4c0,0,0,2.6-1,3.8c-0.3,0.4-1.3,0.6-2.1-0.2C64.9,66.8,63.8,64.8,63.8,64.8z"/>
		<path class="st3" d="M66.6,57.8c0,0,1.9-1.3,3.3-1.3c0.9,0,2.2,0.5,2.4,1.9c0.2,1.2,0.2,3.1-0.3,3.9c-0.4,0.8-1.6,3.5-1.7,4.1
			s-1.1,2.9-2.2,3.7c-1,0.7-2.6,0.7-3.2,0.4c-0.8-0.4-2.8-2.9-2.1-5.7l1.3-0.1c0,0,1.1,2.5,2.2,2.6s1.7-1.7,1.9-3.1
			c0.2-1.4-0.6-3.5-1.3-4.3c-0.6-0.8-1.8-1-2-0.9C64.5,59.1,66.6,57.8,66.6,57.8z"/>
		<path class="st4" d="M68.5,69.8c-1,0.7-3,1.1-3.7,0.7c-0.8-0.4-2.8-2.9-2.1-5.7l0.9-0.1c0.2,0.7,0.3,1.6,0.6,2.3
			c0.1,0.3,0.2,0.7,0.5,1c0.3,0.3,0.7,0.4,1,0.5c0.4,0.1,0.7,0.1,1.1,0.1c0.2,0,0.4,0,0.6-0.1c0.2-0.1,0.4-0.2,0.5-0.4
			c0.3-0.3,0.5-0.9,0.6-1.1c0.2-0.1,1-0.6,1.3-1c0.3-0.4,1-1.8,1-1.8S69.1,69,68.5,69.8z"/>
		<path class="st5" d="M62,89.1c0,0,1,0.1,1.2,0.4c0.2,0.4,0.2,1,0.2,1.4c0,0.4,0.4,1.1,0.4,1.3c0.1,0.2,0.4,0.6,0.4,1.1
			s0,1.1-0.2,1.4c-0.2,0.3-2.4,2.1-2.9,2.3c-0.5,0.2-1.8,0.7-2.5,0.7s-5.7,0-6.2-0.1c-0.6,0-2.5-0.2-2.9-0.5
			c-0.4-0.3-0.8-0.8-0.8-1.4c0-0.7,0.1-1.4,0.5-1.5c0.4-0.1,0.9-0.4,0.9-0.4s0.1-0.9,0.4-1.1c0.3-0.2,1.5-0.9,1.5-0.9
			s0.5-0.7,0.9-1.1c0.5-0.4,1.4-1,1.4-1s0.4-1.2,0.8-1.3c0.9-0.3,2.3,0,3.1,0c0.9,0,1.6,0.2,1.7,0.2c0.6,0.2,0.4,1.9,0.5,1.9
			C62,90.7,62,89.1,62,89.1z"/>
		<path d="M73.5,54c0,0,8.2,3.8,12.3,3.5c1.7-0.1,0.5-1.1,0.5-1.1C77.4,55.3,73.5,54,73.5,54z"/>
		<g>
			<g>
				<defs>
					<path id="SVGID_1_" d="M63.2,38.1c0,2.3,1.8,9.6,2.8,11c1,1.4,2.9,3.3,7.4,4.9c4.5,1.5,13.3,2.6,13.3,2.6s0.1,0.9,0.5,1.2
						c0.4,0.3,2.8,0,3.6-0.3c0.9-0.4,2-1.3,2.6-1.9c0.7-0.8,2.3-3.5,1.6-4.2c-1-0.9-2,0.5-2,0.5s1.5-2.6,2.1-3.8
						c0.6-1.2,1.1-4.2,1-5.3c-0.1-1.1-1.2-5.4-2.7-7.4c-1.5-2-2.7-4.7-7.4-8.1c-3.5-2.5-8.6-4-10.4-3.9c-1.8,0.1-3.4,0.4-4.2,1.1
						c-0.8,0.6-3.3,2.7-4.4,4.4C65.9,30.4,63.2,33.2,63.2,38.1z"/>
				</defs>
				<clipPath id="SVGID_2_">
					<use xlink:href="#SVGID_1_"  style="overflow:visible;"/>
				</clipPath>
				<rect x="63.2" y="23" class="st6" width="33" height="34.9"/>
				<circle class="st6" cx="79.6" cy="40.4" r="16.9"/>
				<circle class="st7" cx="79.6" cy="40.4" r="16.7"/>
				<circle class="st8" cx="79.6" cy="40.4" r="16.5"/>
				<circle class="st9" cx="79.6" cy="40.4" r="16.2"/>
				<circle class="st10" cx="79.6" cy="40.4" r="16"/>
				<circle class="st11" cx="79.6" cy="40.4" r="15.8"/>
				<circle class="st12" cx="79.6" cy="40.4" r="15.6"/>
				<circle class="st13" cx="79.6" cy="40.4" r="15.4"/>
				<circle class="st14" cx="79.6" cy="40.4" r="15.1"/>
				<circle class="st15" cx="79.6" cy="40.4" r="14.9"/>
				<circle class="st16" cx="79.6" cy="40.4" r="14.7"/>
				<circle class="st17" cx="79.6" cy="40.4" r="14.5"/>
				<circle class="st18" cx="79.6" cy="40.4" r="14.3"/>
				<circle class="st19" cx="79.6" cy="40.4" r="14"/>
				<circle class="st20" cx="79.6" cy="40.4" r="13.8"/>
				<circle class="st21" cx="79.6" cy="40.4" r="13.6"/>
				<circle class="st22" cx="79.6" cy="40.4" r="13.4"/>
				<circle class="st23" cx="79.6" cy="40.4" r="13.2"/>
				<circle class="st24" cx="79.6" cy="40.4" r="12.9"/>
				<circle class="st25" cx="79.6" cy="40.4" r="12.7"/>
				<circle class="st26" cx="79.6" cy="40.4" r="12.5"/>
				<circle class="st27" cx="79.6" cy="40.4" r="12.3"/>
				<circle class="st28" cx="79.6" cy="40.4" r="12.1"/>
				<circle class="st29" cx="79.6" cy="40.4" r="11.8"/>
				<circle class="st30" cx="79.6" cy="40.4" r="11.6"/>
				<circle class="st31" cx="79.8" cy="38.8" r="11.4"/>
				<circle class="st32" cx="79.6" cy="40.4" r="11.2"/>
				<circle class="st33" cx="79.6" cy="40.4" r="11"/>
				<circle class="st34" cx="79.6" cy="40.4" r="10.7"/>
				<circle class="st35" cx="79.6" cy="40.4" r="10.5"/>
				<circle class="st36" cx="79.6" cy="40.4" r="10.3"/>
				<circle class="st37" cx="79.6" cy="40.4" r="10.1"/>
				<circle class="st38" cx="79.6" cy="40.4" r="9.9"/>
				<circle class="st39" cx="79.6" cy="40.4" r="9.7"/>
				<circle class="st40" cx="79.6" cy="40.4" r="9.4"/>
				<circle class="st41" cx="79.6" cy="40.4" r="9.2"/>
				<circle class="st42" cx="79.6" cy="40.4" r="9"/>
				<circle class="st43" cx="79.6" cy="40.4" r="8.8"/>
				<circle class="st44" cx="79.6" cy="40.4" r="8.6"/>
				<circle class="st45" cx="79.6" cy="40.4" r="8.3"/>
				<circle class="st46" cx="79.6" cy="40.4" r="8.1"/>
				<circle class="st47" cx="79.6" cy="40.4" r="7.9"/>
				<circle class="st48" cx="79.6" cy="40.4" r="7.7"/>
				<circle class="st49" cx="79.6" cy="40.4" r="7.5"/>
				<circle class="st50" cx="79.6" cy="40.4" r="7.2"/>
				<circle class="st51" cx="79.6" cy="40.4" r="7"/>
				<circle class="st52" cx="79.6" cy="40.4" r="6.8"/>
				<circle class="st53" cx="79.6" cy="40.4" r="6.6"/>
				<circle class="st54" cx="79.6" cy="40.4" r="6.4"/>
				<circle class="st55" cx="79.6" cy="40.4" r="6.1"/>
				<circle class="st56" cx="79.6" cy="40.4" r="5.9"/>
				<circle class="st57" cx="79.6" cy="40.4" r="5.7"/>
				<circle class="st58" cx="79.6" cy="40.4" r="5.5"/>
				<circle class="st59" cx="79.6" cy="40.4" r="5.3"/>
				<circle class="st60" cx="79.6" cy="40.4" r="5"/>
				<circle class="st61" cx="79.6" cy="40.4" r="4.8"/>
				<circle class="st62" cx="79.6" cy="40.4" r="4.6"/>
				<circle class="st63" cx="79.6" cy="40.4" r="4.4"/>
				<circle class="st64" cx="79.6" cy="40.4" r="4.2"/>
				<circle class="st65" cx="79.6" cy="40.4" r="3.9"/>
				<circle class="st66" cx="79.6" cy="40.4" r="3.7"/>
				<circle class="st67" cx="79.6" cy="40.4" r="3.5"/>
				<circle class="st68" cx="79.6" cy="40.4" r="3.3"/>
				<circle class="st69" cx="79.6" cy="40.4" r="3.1"/>
				<circle class="st70" cx="79.6" cy="40.4" r="2.9"/>
				<circle class="st71" cx="79.6" cy="40.4" r="2.6"/>
				<circle class="st72" cx="79.6" cy="40.4" r="2.4"/>
				<circle class="st73" cx="79.6" cy="40.4" r="2.2"/>
				<circle class="st74" cx="79.6" cy="40.4" r="2"/>
				<circle class="st75" cx="79.6" cy="40.4" r="1.8"/>
				<circle class="st76" cx="79.6" cy="40.4" r="1.5"/>
				<circle class="st77" cx="79.6" cy="40.4" r="1.3"/>
				<circle class="st78" cx="79.6" cy="40.4" r="1.1"/>
				<circle class="st79" cx="79.6" cy="40.4" r="0.9"/>
				<circle class="st80" cx="79.6" cy="40.4" r="0.7"/>
				<circle class="st81" cx="79.6" cy="40.4" r="0.4"/>
				<circle class="st81" cx="79.6" cy="40.4" r="0.2"/>
			</g>
			<path d="M87.9,57.9c-0.4,0-0.7,0-0.8-0.1c-0.4-0.2-0.6-0.9-0.6-1.1c-1.1-0.1-9-1.2-13.2-2.6c-3.5-1.2-6.1-2.8-7.5-4.9
				c-1-1.4-2.8-8.9-2.8-11.1l0,0l0,0c0-4.1,1.9-6.7,3.2-8.5c0.3-0.4,0.5-0.7,0.7-1c1.1-1.7,3.4-3.6,4.3-4.4l0.1-0.1
				c0.8-0.6,2.3-1,4.3-1.1c1.9-0.1,7.1,1.4,10.5,4c3.8,2.8,5.3,5.1,6.6,6.9c0.3,0.4,0.6,0.8,0.8,1.2c1.5,2.1,2.6,6.4,2.7,7.5
				c0.1,1.1-0.4,4.1-1,5.4c-0.4,0.8-1.1,2.1-1.6,2.9c0.1-0.1,0.3-0.1,0.5-0.1c0.3,0,0.6,0.1,0.9,0.3c0.2,0.1,0.2,0.4,0.2,0.6
				c0,1.1-1.2,3.1-1.8,3.8c-0.5,0.5-1.7,1.5-2.7,1.9C90.2,57.7,88.8,57.9,87.9,57.9z M75.8,23.3c-0.1,0-0.1,0-0.2,0
				c-1.9,0.1-3.4,0.5-4.1,1l-0.1,0.1c-0.9,0.7-3.2,2.6-4.3,4.3c-0.2,0.3-0.4,0.7-0.7,1.1c-1.2,1.7-3.1,4.3-3.1,8.3l0,0
				c0,2.3,1.8,9.6,2.7,10.9c1.4,2,3.9,3.6,7.3,4.8c4.4,1.5,13.1,2.6,13.2,2.6l0.1,0l0,0.1c0,0.2,0.1,0.8,0.4,1
				c0.3,0.2,2.6,0,3.5-0.3c0.9-0.4,2.1-1.4,2.5-1.8c0.6-0.6,1.8-2.6,1.7-3.6c0-0.2,0-0.3-0.1-0.4c-0.2-0.2-0.4-0.3-0.6-0.2
				c-0.6,0.1-1,0.7-1,0.7l-0.3-0.2c0,0,1.5-2.6,2.1-3.8c0.6-1.2,1-4.2,1-5.2c-0.1-1.1-1.2-5.3-2.6-7.3c-0.3-0.4-0.6-0.8-0.9-1.2
				c-1.2-1.8-2.7-4.1-6.5-6.8C82.6,24.8,77.8,23.3,75.8,23.3z"/>
		</g>
		<path d="M96.3,54.3c0.5-1.2,2.2-2.6,2.9-4.1c0.7-1.4,1.7-3,2.1-6.6c0.5-4.9-2.9-11.5-3-11.5c-0.1,0,5.8-3.4,8.8-4.4
			c1.9-0.6,4-0.8,4-0.8s-1-0.2-3,0.1c-1.2,0.2-3.3,0.8-3.3,0.8s2.1-0.8,3.1-1c1.7-0.4,4.5-0.3,4.5-0.3s-2.3-0.3-3.9-0.2
			c-0.6,0.1-1.6,0.3-1.6,0.3c0.9-0.4,1.3-0.5,3.1-0.9c2.2-0.5,5.3-0.6,5.3-0.6s-2.9-0.7-5.2-0.3c-2.2,0.4-3.3,0.7-3.3,0.7
			s1.1-0.7,2.6-1.3c1-0.4,4.2-1.2,4.2-1.2s-3.4,0.4-4.3,0.7c-1.9,0.5-3.8,1.7-3.8,1.7s1.7-1.3,2.5-1.9c1.4-1,3.6-2.2,3.6-2.2
			s-2,0.7-3.7,1.6c-0.8,0.4-2,1.1-2,1.1s0.9-0.8,1.9-1.7c1.1-0.9,3.7-2.8,3.7-2.8s-2.5,1.2-4.7,2.6c-1.4,0.9-4.6,3.2-4.6,3.2
			s1.5-1.2,2.1-1.6c1.2-0.9,5.1-3.8,5.1-3.8s-2.2,1.1-3.4,1.9c-1.2,0.8-2.1,1.5-2.1,1.5s2-1.8,2.7-2.4c1.3-1.2,3.7-2.9,3.7-2.9
			s-2.6,1.6-3.9,2.5c-0.7,0.5-1.1,0.7-1.1,0.7l3.8-4c0,0-2.2,1.9-3.1,2.6c-0.5,0.4-1.8,1.6-1.8,1.6s0.5-0.7,1-1.2
			c1.2-1.1,2.6-2.5,2.6-2.5s-2.9,1.8-4.2,3.1c-0.7,0.7-2.5,2.8-2.5,2.8s1.7-2.2,2.4-2.9c2-2.2,4.3-4.1,4.3-4.1s-2,1.1-3.7,2.4
			c-1.1,0.9-2.4,2.4-2.4,2.4s1.4-1.7,1.8-2.3c0.8-1,3-2.9,3-2.9s-1.4,0.6-2.6,1.6c-0.6,0.4-1.9,1.9-1.9,1.9s1.2-1.7,2-2.6
			c0.6-0.6,2.4-2.2,2.4-2.2s-1.7,0.9-2.7,1.8c-0.4,0.3-1.3,1.4-1.3,1.4s0.3-0.8,0.4-0.9c0.1-0.3,0.5-1.2,0.5-1.2s-2.6,3.2-3.1,3.8
			c-1.6,2.2-4.8,7.9-4.8,7.9s-1.9-2.6-6.4-5.1c-4-2.2-7.2-3.1-11.3-2.4c-4,0.7-9.2,3.5-11.3,8.2c-0.6,1.4-1.2,2.9-1.2,2.9
			s1.5-2.3,3.6-4.8c1.4-1.6,3.5-3,7-3.4c2.6-0.3,9.4,3,11.9,5.2c9.7,8.9,8,17.1,7.4,18.5c-0.5,1.1-1.4,3.4-2.5,4.6
			c-0.2,0.2-1.4,2.4-1.4,2.4c1.1-0.6,2.4-1.4,2.4-1.2c0.4,2.2-0.9,4.5-1,7c-0.2,4.6,1.5,4.2,1.5,4.2s-1.2,0.2-1.1-3.3
			c0-1.5,0.6-3,1.1-4.8s0.7-2.2,0.7-2.2s-0.4,5.7-0.3,8.1c0.2,2.4,0.8,4.5,2.7,4.8c0,0-1.6-0.7-1.9-3C94.6,58.4,95.9,55.2,96.3,54.3
			z"/>
		<g>
			<path class="st82" d="M77.5,31.7c0,0.2-0.1,0.5-0.2,0.7c-0.3,0.7-1,1.5-2.2,1.6c-1,0.1-1.9-0.2-2.7-0.7c-0.6-0.4-1.2-1-1.7-1.6
				c-1-1.2-0.5-2.7,0-3.2c0.7-0.7,2.2-2.2,4.6-1.3C77.9,28.2,77.6,31,77.5,31.7z"/>
			<path d="M74.8,34.2c-0.8,0-1.7-0.3-2.4-0.8c-0.6-0.4-1.1-0.9-1.7-1.6c-1-1.2-0.6-2.7,0-3.4c1.4-1.5,3-2,4.7-1.3
				c2.8,1.1,2.3,4.2,2.2,4.6c0,0.2-0.1,0.5-0.2,0.7c-0.2,0.5-0.9,1.6-2.2,1.7C75,34.2,74.9,34.2,74.8,34.2z M73.8,27
				c-1.1,0-2.1,0.5-3,1.6c-0.5,0.5-0.9,1.9,0,3.1c0.5,0.7,1.1,1.2,1.6,1.6c0.8,0.6,1.7,0.8,2.6,0.7c1.2-0.1,1.8-1,2.1-1.6
				c0.1-0.2,0.2-0.5,0.2-0.7l0,0c0.1-0.3,0.6-3.4-2.1-4.4C74.8,27.1,74.3,27,73.8,27z"/>
		</g>
		<path d="M87.9,29.2c-0.1,0-0.1,1,0,1.3c0,0.1,1.8,2.4,2.1,2.8c0.3,0.4,1.2,1.6,1.4,2.2c0.3,0.6,0.7,3.5,0.7,3.5l0.2,0.3
			c0,0,0.1-3.7-0.1-4.2c-0.2-0.6-1.6-2.7-2.1-3.4C89.1,30.2,88.1,29.2,87.9,29.2z"/>
		<path d="M81.7,25.9c0,0,0.5,0.3,0.7,0.3s1-0.2,0.9-0.4c-0.1-0.1-3.9-1.8-4.6-2.1c-1-0.3-2.6-0.5-3.4-0.5C74.7,23.3,73,24,73,24
			s2.4-0.4,3.2-0.3S81.7,25.9,81.7,25.9z"/>
		<g>
			<path class="st82" d="M88.7,41.1c-0.1,0.7-0.6,2.3-1.9,2.2c-0.7-0.1-1.9-0.6-3.1-1.5c-0.4-0.3-0.8-0.6-1.2-1
				c-0.3-0.3-0.5-0.6-0.8-0.9c-0.2-0.3-0.4-0.5-0.6-0.8c-0.1-0.2-0.2-0.4-0.3-0.5c-0.1-0.4-0.1-0.7-0.1-0.9c0.1-0.6,0.8-1.6,2-2
				c1.1-0.4,3-0.4,4.9,1.4C89.1,38.5,88.8,40.4,88.7,41.1z"/>
			<path d="M87,43.3c-0.1,0-0.1,0-0.2,0c-0.7-0.1-2-0.6-3.2-1.5c-0.4-0.3-0.8-0.6-1.2-1c-0.3-0.3-0.6-0.6-0.8-0.9
				c-0.2-0.3-0.4-0.5-0.6-0.8c-0.1-0.2-0.2-0.4-0.3-0.6c-0.1-0.3-0.2-0.6-0.1-1c0.1-0.7,0.8-1.6,2.1-2.1c0.8-0.3,2.8-0.7,5,1.5
				c1.1,1.1,1.4,2.4,1.1,4.1l0,0C88.6,41.6,88.2,43.3,87,43.3z M84.1,35.5c-0.6,0-1,0.1-1.3,0.2c-1.2,0.4-1.8,1.3-1.9,1.9
				c0,0.3,0,0.6,0.1,0.9c0.1,0.2,0.1,0.3,0.3,0.5c0.2,0.3,0.4,0.6,0.6,0.8c0.2,0.3,0.5,0.6,0.8,0.9c0.4,0.4,0.7,0.7,1.1,1
				c1.2,0.9,2.4,1.4,3.1,1.5c1.2,0.2,1.7-1.5,1.8-2.1c0.3-1.6,0-3-1-4C86.2,35.8,85,35.5,84.1,35.5z"/>
		</g>
		<g class="st83">
			<path class="st84" d="M73.6,37c0-0.4,0.2-0.9,0.6-1.1c0.2-0.1,0.4-0.1,0.7-0.1c0.2,0,0.4,0,0.7,0.1c0.4,0.1,0.8,0.3,1.1,0.7
				c0.3,0.3,0.5,0.7,0.5,1.2c-0.1-0.4-0.3-0.8-0.6-1.1c-0.3-0.3-0.7-0.5-1.1-0.6c-0.2-0.1-0.4-0.1-0.6-0.1c-0.2,0-0.4,0-0.6,0.1
				C73.9,36.2,73.7,36.6,73.6,37z"/>
		</g>
		<ellipse transform="matrix(0.4037 -0.9149 0.9149 0.4037 10.2676 92.3211)" class="st85" cx="76" cy="38.3" rx="0.3" ry="0.5"/>
		<ellipse transform="matrix(0.7778 -0.6285 0.6285 0.7778 -6.9226 54.7696)" class="st85" cx="74" cy="37.2" rx="0.3" ry="0.5"/>
		<path d="M68.6,38.4C68.6,38.4,68.7,38.4,68.6,38.4c0.1,0.3,5.7,4.9,7.1,5.8c0.6,0.4,1.7,1,2.3,1.4c0.1,0.1,0.2,0.2,0,0.3
			c-0.9,0.6-3.6,2.1-5.7,2.8c-1.7,0.5-3.5,0.3-4.6-0.6c-1.1-0.9-1-2.5-1-3.3C66.8,42.8,68.3,39.1,68.6,38.4z"/>
		<path class="st82" d="M68.4,39.9c0.2,0.2,0.4,0.1,0.4,0.1s-0.2,0.2,0,0.4c0.1,0.2,0.8,0.7,1,0.5c0.2-0.2-0.1,0.4,0.1,0.7
			c0.2,0.4,0.9,0.8,1.2,0.9c0.2,0.1,0.4-0.1,0.4-0.1s-0.1,0.1-0.1,0.3c0,0.2,0.5,0.6,1,1c0.5,0.3,0.9,0.4,1,0.4
			c0.1,0,0.2-0.2,0.2-0.2s-0.2,0.3-0.1,0.4c0.1,0.2,0.8,0.9,1.2,1c0.3,0,0.5-0.3,0.5-0.3s-0.2,0.3-0.2,0.5c0.1,0.2,0.5,0.4,0.7,0.4
			c0.1,0,0.3-0.1,0.3-0.1s0,0.3,0.1,0.4c0.3,0.2,0.5,0.2,0.8,0.2c0.2,0,1.1-0.6,1.1-0.6s-2.2-1.2-5.5-3.9c-2.7-2.2-3.4-2.9-3.9-3.4
			C68.7,38.5,68.1,39.7,68.4,39.9z"/>
		<g>
			<path class="st84" d="M77.2,32.4c-0.3,0.7-0.9,1.4-1.9,1.6c-0.1,0-0.2,0-0.3,0c-0.3,0-0.6,0-0.9,0c-0.6-0.1-1.2-0.3-1.8-0.7
				c-0.1-0.2-0.1-0.5-0.1-0.7c0-1.4,1.1-2.5,2.5-2.5C76.1,30,77.1,31.1,77.2,32.4z"/>
			<path d="M76.1,32.7c0,0.5-0.3,1-0.8,1.2c-0.1,0-0.2,0-0.3,0c-0.3,0-0.6,0-0.9,0c-0.5-0.2-0.8-0.7-0.8-1.2c0-0.8,0.6-1.4,1.4-1.4
				C75.5,31.4,76.1,32,76.1,32.7z"/>
		</g>
		<g>
			<path class="st84" d="M85.7,39.2c0,1.2-0.9,2.2-2.1,2.4c-0.4-0.3-0.8-0.6-1.2-1c-0.3-0.3-0.5-0.6-0.8-0.9
				c-0.2-0.3-0.4-0.5-0.6-0.8c-0.1-0.2-0.2-0.4-0.3-0.5c0.3-1,1.3-1.7,2.4-1.7C84.6,36.8,85.7,37.9,85.7,39.2z"/>
			<path d="M84.4,39.4c0,0.8-0.6,1.4-1.4,1.4c-0.2,0-0.4,0-0.5-0.1c-0.3-0.3-0.5-0.6-0.8-0.9c0-0.1-0.1-0.3-0.1-0.4
				c0-0.8,0.6-1.4,1.4-1.4C83.8,38.1,84.4,38.7,84.4,39.4z"/>
		</g>
		<path class="st82" d="M70.8,48.8c0,0-0.8-0.6-1-0.7c-0.2-0.1-0.4,0.2-0.4,0.2s0.2-0.2,0.1-0.4c-0.1-0.1-0.6-0.8-0.9-0.7
			c-0.1,0-0.3,0.3-0.3,0.3s0.2-0.3,0.2-0.4c0-0.2-0.7-0.8-0.9-0.8c-0.1,0-0.3,0.2-0.3,0.2s0.2-0.2,0.1-0.4c0-0.1-0.4-0.5-0.5-0.6
			c-0.1-0.1-0.2,0.1-0.2,0.2c0,0.3,0.2,1.1,0.3,1.4c0.2,0.3,0.7,0.9,1.3,1.2c0.3,0.2,1,0.3,1.4,0.4C70.1,48.8,70.8,48.8,70.8,48.8z"
			/>
		<g>
			<ellipse transform="matrix(0.9939 -0.11 0.11 0.9939 -3.8046 9.5314)" class="st82" cx="84.5" cy="39.2" rx="0.5" ry="0.6"/>
		</g>
		<g>
			<ellipse transform="matrix(0.9606 -0.278 0.278 0.9606 -5.9335 22.347)" class="st82" cx="75.8" cy="32.1" rx="0.4" ry="0.5"/>
		</g>
		<line class="st86" x1="71.1" y1="42.9" x2="72.1" y2="41.5"/>
		<line class="st86" x1="69.4" y1="41.4" x2="70.5" y2="40.1"/>
		<line class="st86" x1="68" y1="48" x2="69.1" y2="46.8"/>
		<line class="st86" x1="69.2" y1="48.6" x2="70.4" y2="47.4"/>
		<line class="st86" x1="67.1" y1="47" x2="68.3" y2="45.7"/>
		<line class="st86" x1="73.1" y1="44.5" x2="74.2" y2="43.1"/>
		<line class="st86" x1="74.7" y1="45.6" x2="75.8" y2="44.3"/>
		<line class="st86" x1="75.7" y1="46.3" x2="76.8" y2="45"/>
		<line class="st86" x1="68.4" y1="40.6" x2="69.4" y2="39.2"/>
		<path d="M70.6,49c-1.1,0-2.2-0.3-2.9-0.9c-1-0.9-1-2.4-1.1-3.2l0-0.1c0-2,1.5-5.6,1.8-6.4l0,0c0-0.1,0.1-0.1,0.1-0.1
			c0.1,0,0.1,0,0.1,0.1c0.2,0.3,5.5,4.8,6.9,5.7c0.3,0.2,0.8,0.5,1.3,0.8c0.4,0.2,0.8,0.4,1.1,0.6c0.1,0.1,0.2,0.2,0.2,0.3
			c0,0.1,0,0.1-0.1,0.2c-1,0.6-3.7,2.1-5.7,2.8C71.8,48.9,71.2,49,70.6,49z M68.7,38.5c-0.4,0.9-1.8,4.3-1.8,6.2l0,0.1
			c0,0.8,0,2.2,1,3.1c1,0.9,2.8,1.1,4.5,0.6c2-0.6,4.4-2.1,5.5-2.7c0,0,0.2-0.1,0.2-0.1c0,0,0,0-0.1,0c-0.3-0.2-0.6-0.3-1-0.6
			c-0.5-0.3-1-0.6-1.3-0.8C74.5,43.6,69.3,39.2,68.7,38.5z M68.6,38.4C68.6,38.4,68.6,38.4,68.6,38.4S68.6,38.4,68.6,38.4z
			 M68.6,38.4L68.6,38.4L68.6,38.4z M68.6,38.4L68.6,38.4L68.6,38.4z"/>
		<path d="M87.1,43.2l0.6,0.2l-0.1-0.2l0.9,0.4L88,42.9l1,0.2l-0.6-0.7l1,0l-0.6-0.6l1,0l-0.6-0.7l0.9,0l-0.8-0.6l0.8-0.2l-0.8-0.6
			l0.7-0.1l-0.8-0.5l0.6-0.1l-0.8-0.5l0.5-0.4l-0.9-0.3l0.5-0.2l-0.6-0.3l0.3-0.2l-0.6-0.2l0.2-0.2l-0.6-0.2l0.3-0.2l-0.5-0.1
			l0.1-0.2L87,36l0.1-0.2l-0.5,0l0.1-0.3l-0.5,0.1v-0.3l-0.7,0.1l0-0.3l-1.5,0.1l0-0.2c0,0-0.8,0.3-1.1,0.5c-0.6,0.3-1.2,0.7-1.5,1
			c-0.4,0.4-0.4,0.7-0.4,0.7s0.9-1.4,2.7-1.6c0.8-0.1,2.6,0.3,3.5,1.1c1,0.8,1.4,1.5,1.5,2.4c0.2,0.9,0.2,1.2,0,2.1
			C88.2,42.9,87.1,43.2,87.1,43.2z"/>
		<path d="M70.2,29.7L70,28.8l0.3,0.1L69.9,28l0.5,0.2l-0.3-0.8l0.6,0.3L70.7,27l0.6,0.3l-0.2-0.8l0.7,0.5l-0.1-0.8l0.7,0.6l0-0.7
			l0.7,0.5L73,26.1l0.5,0.5l0.1-0.5l0.5,0.5l0.2-0.4l0.4,0.4l0.1-0.3l0.4,0.5l0.1-0.3l0.3,0.5l0.1-0.2l0.3,0.5l0.1-0.3l0.2,0.5
			l0.1-0.2l0.1,0.4l0.2-0.2l0.1,0.4l0.2-0.2l0.1,0.6l0.2-0.1l0.1,0.7l0.3,0l0,1.4L78,30c0,0-0.1,0.6-0.1,0.8
			c-0.1,0.6-0.4,1.1-0.4,1.1s0.2-0.7,0-2c-0.1-0.7-0.5-1.6-1.3-2.2c-0.9-0.7-1.6-0.8-2.5-0.8c-0.8,0.1-1,0.1-1.8,0.5
			C70.3,28.4,70.2,29.7,70.2,29.7z"/>
		<g>
			<path class="st87" d="M68.2,57c0.7-0.3,1.6-0.5,2.1-0.3c1,0.2,1.8,0.8,1.9,2c0.2,1.2,0,3.3-0.6,4.3c-0.6,1.1-2.2,5.1-2.4,5.4
				s-0.5,1.6-1.7,1.9s-2.2,0.4-2.8,0c-0.6-0.4-2-3-2-3.8c0-0.9,0-1.7,0-1.7l-6.9-0.1c0,0-2.1,8.7-2,10.3c0.1,1.6,0,9.4,0,10.5
				c0,1.1-0.3,1.6,0,2c0.5,0.7,2,0.9,3.5,0.8c1.5-0.1,3.1-0.6,3.6-0.6c0.6-0.1,1.2-0.2,1.2-0.5c0.1-0.7-0.4-2.1-0.8-3.2
				c-0.3-0.8-1.3-4.2-1.3-4.2l0.3,0.3l1.1,4.1l1.3,2.8c0,0,0.3,0.9,0.7,1.4c0.4,0.5,1.1,1.3,1.6,1.3c0.4,0,2.3-0.2,3.9-1.3
				c1.6-1.2,2.3-2.3,2.6-2.7c0.3-0.4,0.1-1.9-0.3-3.3c-0.2-0.7-0.8-0.5-0.8-0.5s0.7-3.1,0.6-4.4c-0.2-1.9-1.1-4.9-1.1-7.2
				c0-3.3,2-5.3,2.6-7.3c0.4-1.2,0.4-4.2,0.4-5.3c0-1.1-0.9-1.9-1.9-2.4s-3.3,0-4,0.5c-0.6,0.4-3.7,4.4-3.7,4.4s0.9-1,1.7-1.3
				C66,58.4,67.4,57.2,68.2,57z"/>
			<path d="M65.1,89.8c-0.6,0-1.4-0.9-1.7-1.3C63,87.9,62.7,87,62.6,87l-0.4-0.8c0.1,0.4,0.1,0.8,0.1,1c-0.1,0.4-0.5,0.6-1.4,0.7
				c-0.2,0-0.5,0.1-0.8,0.2c-0.8,0.2-1.8,0.4-2.8,0.5c-2,0.1-3.2-0.2-3.6-0.9c-0.2-0.3-0.2-0.7-0.1-1.1c0-0.3,0.1-0.6,0.1-1
				c0-0.3,0-1,0-1.9c0-2.7,0.1-7.3,0-8.5c-0.1-1.6,1.9-10,2-10.4l0-0.1l7.2,0.1v1.8c0,0.8,1.4,3.4,2,3.7c0.6,0.3,1.6,0.3,2.7,0
				c0.8-0.2,1.1-1,1.4-1.5c0.1-0.2,0.1-0.3,0.2-0.4c0.1-0.1,0.5-1.1,0.9-1.9c0.6-1.3,1.2-2.8,1.6-3.5c0.6-1,0.8-3,0.6-4.2
				c-0.1-1-0.7-1.6-1.8-1.9c-0.5-0.1-1.2,0-2,0.3c-0.4,0.1-0.9,0.5-1.4,0.9c-0.6,0.4-1.1,0.8-1.6,1c-0.7,0.3-1.7,1.3-1.7,1.3
				L63.3,60c0.1-0.2,3.1-4,3.7-4.5c0.8-0.5,3-1,4.2-0.5c1,0.4,2.1,1.3,2.1,2.5v0.2c0,1.3,0,3.9-0.4,5.1c-0.2,0.6-0.6,1.3-0.9,1.9
				c-0.8,1.4-1.7,3.1-1.7,5.3c0,1.4,0.3,3,0.6,4.5c0.2,1,0.4,1.9,0.5,2.7c0.1,1.2-0.4,3.5-0.6,4.3c0.1,0,0.2,0,0.3,0.1
				c0.2,0.1,0.4,0.3,0.4,0.6c0.4,1.3,0.7,2.9,0.3,3.4c-0.1,0.1-0.1,0.2-0.2,0.3c-0.4,0.5-1.1,1.5-2.5,2.5
				C67.2,89.8,65.1,89.8,65.1,89.8z M59.8,79.2l0.8,0.8l1.1,4.1l1.3,2.8c0,0,0.3,0.9,0.7,1.4c0.4,0.5,1.1,1.2,1.4,1.2
				c0.6,0,2.3-0.2,3.8-1.3c1.3-0.9,2-1.9,2.4-2.4c0.1-0.1,0.1-0.2,0.2-0.3c0.2-0.2,0.2-1.2-0.4-3.1C71,82.1,71,82,70.8,81.9
				c-0.1-0.1-0.3,0-0.3,0L70.3,82l0.1-0.3c0,0,0.7-3.1,0.6-4.4c-0.1-0.7-0.3-1.7-0.4-2.6c-0.3-1.5-0.6-3.2-0.6-4.6
				c0-2.3,0.9-4,1.7-5.5c0.4-0.7,0.7-1.3,0.9-1.9c0.4-1.1,0.4-3.9,0.4-5v-0.2c0-1.1-0.9-1.8-1.8-2.2c-1-0.4-3.1,0-3.8,0.5
				c-0.3,0.2-1.6,1.8-2.6,3.1c0.2-0.1,0.3-0.2,0.5-0.3c0.4-0.2,1-0.6,1.5-0.9c0.6-0.4,1.1-0.8,1.5-0.9c0.7-0.2,1.6-0.5,2.2-0.3
				c0.8,0.2,1.9,0.6,2.1,2.1c0.2,1.3,0,3.4-0.6,4.5c-0.3,0.6-1,2.2-1.5,3.4c-0.5,1.2-0.8,1.9-0.9,2c0,0.1-0.1,0.2-0.2,0.3
				c-0.2,0.5-0.6,1.4-1.6,1.7c-1.2,0.4-2.3,0.4-3,0c-0.7-0.4-2.1-3.1-2.1-4V65L56,64.9C55.7,66,53.9,73.6,54,75c0.1,1.2,0,5.8,0,8.6
				c0,0.9,0,1.7,0,1.9c0,0.4,0,0.8-0.1,1.1c-0.1,0.4-0.1,0.7,0,0.9c0.4,0.6,1.5,0.8,3.3,0.7c1-0.1,2-0.3,2.7-0.4
				c0.4-0.1,0.7-0.2,0.9-0.2c0.8-0.1,1.1-0.3,1.1-0.4c0.1-0.5-0.2-1.6-0.8-3.1c-0.3-0.8-1.2-4.1-1.3-4.2L59.8,79.2z"/>
		</g>
		<g>
			<path class="st88" d="M67.6,84.9c0-0.1,0.1-1.2-0.1-2.5c-0.2-1.5-0.6-3.3-0.6-3.9c0-0.7,0.1-1.6,0.3-2.4c0.1-0.6,0.2-1.1,0.2-1.6
				c0.1-1.1-0.3-3.8-0.3-3.8l0.3-0.1c0,0.1,0.5,2.8,0.3,3.9c0,0.5-0.1,1-0.2,1.6c-0.1,0.8-0.3,1.6-0.3,2.3c0,0.7,0.4,2.4,0.6,3.9
				c0.2,1.3,0.1,2.4,0.1,2.4L67.6,84.9z"/>
		</g>
		<g>
			<path class="st87" d="M53.5,85.2c-0.4,0.3,0,1.6,0.1,1.9c0.1,0.4,0.5,1.3,1.8,1.3c1.9,0,5-0.4,5.9-0.7c1-0.3,0.9-0.4,0.8-1.5
				s-0.6-2-0.6-2s-2.5,0.6-3.8,0.6C56.8,84.9,54,84.7,53.5,85.2z"/>
			<path d="M55.4,88.6c-1.4,0-1.9-1.1-2-1.5c0-0.1,0-0.2-0.1-0.3c-0.2-0.8-0.3-1.5,0-1.8c0.4-0.4,1.9-0.4,3.5-0.3c0.3,0,0.6,0,0.8,0
				c1.2,0,3.7-0.6,3.7-0.6l0.1,0l0.1,0.1c0,0,0.5,1,0.6,2l0,0.1c0.1,1,0.1,1.2-0.9,1.5C60.4,88.2,57.2,88.6,55.4,88.6
				C55.4,88.6,55.4,88.6,55.4,88.6z M55.9,85c-1,0-2,0-2.3,0.3l0,0c-0.2,0.2,0,1.1,0.1,1.5c0,0.1,0.1,0.2,0.1,0.3
				c0,0,0.2,1.2,1.6,1.2c0,0,0,0,0,0c2,0,5-0.4,5.9-0.7c0.8-0.3,0.8-0.3,0.7-1.2l0-0.1c-0.1-0.8-0.4-1.5-0.5-1.8
				c-0.6,0.1-2.6,0.6-3.7,0.6c-0.2,0-0.5,0-0.8,0C56.6,85,56.3,85,55.9,85z"/>
		</g>
		<path class="st89" d="M59.8,79.3l-0.6-0.7c-0.3,0.7,0.2,5.9,0.2,5.9l1.8-0.4L59.8,79.3z"/>
		<path class="st1" d="M65.3,58.8c0,0,1,0,1.7,1.1c0.8,1.2,0.9,3.4,0.9,3.4s-2.9,1.1-4,1.4c-1.1,0.3-7.9,0.5-7.9,0.5
			s2.1-1.9,2.8-2.8c0.8-1,3.2-2.7,3.2-2.7s0.8-0.1,1.5-0.1C64.3,59.5,65.3,58.8,65.3,58.8z"/>
		<g>
			<path d="M63,64.1c0-0.3,0.1-0.4,0.3-0.5c0.2-0.1,0.4,0,0.5,0.3c-0.1,0.1-0.2,0.1-0.2,0.1c-0.1,0-0.1,0.1-0.2,0.1
				C63.3,64.2,63.2,64.2,63,64.1z"/>
		</g>
		<path class="st90" d="M52.7,91.1c0,0,1.4-0.8,2.6-0.6c1.7,0.3,2.8,0.6,3.5,0.9c0.3,0.1,0.8,1.5,1,1.6c0.3,0.2,0.6,0,0.8,0.2
			c0.3,0.3-0.7,1.1-0.8,1.9c-0.3,1.4-1.4,1.8-2.5,2c-1.2,0.2-4.9,0-5.8,0s-2-0.2-2.7-1.5c0,0-0.4,1.1,0.6,1.7
			c1.2,0.8,6.7,0.5,8.5,0.5c1.9,0,4.4-1.3,6.3-3c0.9-0.8-1.1-2.1-1-4.4c0-0.7,0-1.1-1.3-1.2c0,0,0.2,1.6-1.5,1.7
			c0,0,0.1-1.6-0.4-1.9c-0.4-0.2-3.5-0.5-4.9-0.3c-0.4,0.1-0.8,1.3-0.8,1.3S53.1,90.6,52.7,91.1z"/>
		<path class="st91" d="M51.9,92.1c0.2-0.2,0.6-0.2,0.8-0.2c0.2,0,1.8,0.1,2.1,0c0.7-0.2,2.1-0.2,2.1-0.2s-0.5,0.3-1.2,0.6
			c-0.7,0.3-1.5,0.5-2.2,0.5c-0.5,0-2.1-0.1-2.2-0.3C51.3,92.4,51.9,92.1,51.9,92.1z"/>
		<path d="M60.6,90.8c0,0,1,0,1.5-0.5c0.7-0.6,0.5-1.3-0.2-1.3c-0.1,0-0.1,0.7-0.3,1C61.4,90.6,60.6,90.8,60.6,90.8z"/>
		<g>
			<path d="M53.2,92.3c-0.5,0-1,0-1.1-0.1c0,0-0.1-0.1-0.1-0.1c0-0.2,0.6-0.8,1-0.9c0.5-0.2,1.7-0.3,2.2-0.2
				c0.5,0.1,1.6,0.6,1.7,0.6l0.4,0.2H56c-0.1,0.1-0.9,0.4-1.4,0.4C54.4,92.3,53.8,92.3,53.2,92.3z M52.3,92.1c0.3,0,1.9,0,2.4,0
				c0.5-0.1,1.3-0.4,1.3-0.4l0,0h0.4c-0.4-0.2-0.9-0.4-1.2-0.4c-0.5-0.1-1.6-0.1-2.1,0.1C52.8,91.5,52.4,92,52.3,92.1z"/>
		</g>
		<g>
			<g>
				<path d="M56.9,95.3c-0.6,0-1.8-0.1-2.7-0.1c-0.7,0-1.3-0.1-1.5-0.1c-0.6,0-2.4-0.3-3-0.4c-0.5-0.1-0.1-0.5-0.1-0.5
					c0,0-0.3,0.3,0.5,0.5c0.5,0.1,3.4,0.4,4.1,0.4c1.1,0.1,2.6,0.1,3,0.1c0.7,0,1.1-0.3,1.8-0.6c0.2-0.1,1.1-0.5,1.1-0.5
					s-2.2,1.2-2.9,1.2C57.1,95.3,57,95.3,56.9,95.3z"/>
			</g>
			<g>
				<path d="M56.3,94.5c-0.9,0-5.7-0.4-5.9-0.4c-0.2-0.1-0.2-0.2-0.2-0.2c0,0,0,0.1,0.4,0.2c1.6,0.1,5.8,0.4,6.3,0.3
					c0.6,0,2.3-0.7,2.3-0.7l1.2-0.4c-0.1,0-2.4,1.1-3,1.3C56.9,94.6,56.3,94.5,56.3,94.5z"/>
			</g>
		</g>
		<path d="M53.3,90.7c0.3-0.2,0.7-0.2,1.1-0.3c0.4,0,0.8,0,1.2,0.1c0.4,0.1,0.8,0.1,1.1,0.2c0.4,0.1,0.8,0.2,1.1,0.3
			c-0.4-0.1-0.8-0.1-1.1-0.2c-0.4-0.1-0.8-0.1-1.1-0.2c-0.4-0.1-0.8-0.1-1.1-0.1C54.1,90.5,53.7,90.6,53.3,90.7z"/>
		<g>
			<path d="M61.4,92.7c0.3-0.3,0.7-0.6,1-0.9c0.2-0.1,0.3-0.2,0.5-0.4c0.2-0.1,0.3-0.3,0.5-0.4c-0.1,0.2-0.3,0.3-0.4,0.5
				c-0.2,0.2-0.4,0.3-0.5,0.4C62.1,92.2,62,92.3,61.4,92.7z"/>
			<path d="M61.5,93.3c0.3-0.3,0.6-0.6,0.9-0.9c0.2-0.1,0.3-0.3,0.5-0.4c0.2-0.1,0.3-0.3,0.5-0.4c-0.1,0.2-0.8,0.7-1,0.9
				C62.1,92.7,62,92.9,61.5,93.3z"/>
		</g>
		<path class="st87" d="M55.1,70.4c0.7,1,4.2,0.8,4.9,0.3c0.9-0.8,1.5-4.7,1.5-4.7s-1.8,0.5-3.7,0.3c-1-0.1-1.8-0.3-1.8-0.3
			S54.8,70,55.1,70.4z"/>
		<g>
			<path class="st92" d="M60.7,87.7c0,0,0-0.2-0.2-1.1c-0.1-0.9-0.5-1.6-0.6-1.8l0.3-0.1c0,0.1,0.4,0.9,0.6,1.8
				c0.1,0.9,0.1,0.8,0.2,1.1L60.7,87.7z"/>
		</g>
		<path d="M69.1,63.9c0,0.7,0,1.5-0.2,2.2c-0.1,0.2-0.1,0.4-0.2,0.6c0,0.1-0.1,0.3-0.2,0.4c-0.1,0.3-0.3,0.7-0.6,1
			c-0.1,0.1-0.3,0.3-0.5,0.4c-0.2,0.1-0.4,0.1-0.6,0.1c-0.4,0-0.8,0-1.1-0.1c-0.4-0.1-0.7-0.2-1-0.5c-0.3-0.3-0.4-0.7-0.5-1
			c-0.2-0.7-0.4-1.6-0.6-2.3c0,0,0-0.1,0-0.1c0,0,0,0.1,0,0.1c0.2,0.7,0.4,1.6,0.7,2.2c0.1,0.3,0.3,0.7,0.5,0.9
			c0.2,0.2,0.6,0.3,0.9,0.4c0.3,0.1,0.7,0.1,1.1,0c0.2,0,0.4,0,0.5-0.1c0.1,0,0.3-0.2,0.4-0.3c0.4-0.4,0.6-1,0.7-1.6
			c0-0.1,0.1-0.2,0.1-0.3c0.2-0.7,0.2-1.4,0.2-2.1c0-0.7,0-1.4-0.1-2.2c0-0.4-0.1-0.7-0.3-1c-0.1-0.3-0.3-0.7-0.5-1
			c-0.4-0.6-0.9-1.2-1.6-1.4c0.4,0.1,0.7,0.3,1,0.5c0.3,0.2,0.5,0.5,0.8,0.8c0.2,0.3,0.4,0.6,0.5,1c0.2,0.3,0.3,0.7,0.3,1.1
			C69.1,62.4,69.1,63.2,69.1,63.9z"/>
		<path class="st93" d="M72.8,53.9c0,0-2.1-0.8-3.3-1.5c-2.5-1.4-3.6-3.2-3.6-3.2l-0.4,2.1c0,0,2.7,3.7,3.3,3.6c2-0.2,2.6,0,3.5,0.8
			c0,0,0-0.5,0.1-0.7C72.4,54.7,72.8,53.9,72.8,53.9z"/>
		<path class="st93" d="M64.3,59.8c0,0-3.1,4.1-3.3,4.3c-0.6,0.6-1.8,0.8-1.8,0.8l-1,0L64.3,59.8z"/>
		<path class="st94" d="M55.9,65.4l6.7-0.3c0,0-0.6,3.1,2.2,5.5c0,0-4.1,3.5-5.3,4c-3.5,1.6-5.2-1.2-5.2-1.2L55.9,65.4z"/>
		<path class="st88" d="M57.6,71.3c-0.3,0-0.6,0-0.9-0.1c-0.6-0.1-1.4-0.3-1.7-0.8l0,0c-0.3-0.4,0.4-3.4,0.8-4.6l0-0.2l0.2,0.1
			c0,0,0.8,0.3,1.7,0.3c1.9,0.1,3.7-0.3,3.7-0.3l0.3-0.1l0,0.3c0,0.2-0.6,4-1.5,4.8C59.7,71.1,58.6,71.3,57.6,71.3z M55.2,70.3
			c0.2,0.3,0.7,0.5,1.5,0.6c1.3,0.2,2.8-0.1,3.1-0.4c0.6-0.6,1.2-3.1,1.4-4.3c-0.6,0.1-2,0.4-3.5,0.3c-0.7-0.1-1.4-0.2-1.7-0.3
			C55.5,68,55.1,70.1,55.2,70.3z"/>
		<g>
			<path class="st95" d="M51,42.5c-6.8-0.4-19.7-1.1-20.1-1.2c-0.3-0.1-0.4-0.3-0.4-0.4c1.9-0.2,13.7-1.7,14.2-1.8
				c0.4,0,12.1,0.6,19,1C60.4,40.6,51.4,42.4,51,42.5z"/>
			<path class="st96" d="M51.9,45.4c-0.1-1.4-0.5-2.3-0.7-2.7c1.4-0.3,11.8-2.3,13.4-2.6c0.1,0.1,0.4,0.8,0.4,1.9
				c0,0.6-0.1,2.2-1,2.6c-0.2,0.1-8.2,2.3-12.7,3.5C51.5,47.6,52,46.6,51.9,45.4z"/>
			<path class="st97" d="M62.9,45C62.9,45,62.9,45,62.9,45c0,0,1.2,0.4,1.8,0.8c-1.5,0.3-8,1.3-12.7,2.2
				C54.4,47.4,60.3,45.7,62.9,45z"/>
			<path class="st98" d="M56.2,51.8c-4.4,1-7.9,1.8-8.7,1.8c0.1-0.6,0.4-2.9,0-4.3c1.2-0.5,11.9-2.4,17.5-3.3
				c0.1,0.2,0.2,0.7,0.2,1.6c0,0.9-0.1,1.7-0.3,2C64.6,49.8,61,50.7,56.2,51.8z"/>
			<path class="st82" d="M31.1,42c1.1,0.2,5.6,0.4,10,0.6c4.2,0.2,9,0.5,9.5,0.6C51,44,51,45.2,51,45.8c0,0.9-0.2,1.5-0.3,1.6h0
				c-0.4,0-7.1-0.5-12.5-0.8c-3.2-0.2-6.1-0.4-7.2-0.5c0,0,0,0,0,0C31.4,44.1,31.2,42.6,31.1,42z"/>
			<path class="st82" d="M36.4,48.7c4.4,0.4,10,1,10.4,1.1c0.2,0.2,0.3,0.7,0.3,1.4c0,0.9-0.2,1.6-0.3,1.7c-0.4,0-5.2-0.6-9.6-1.1
				c-3.7-0.4-6.2-0.7-7.2-0.8c0.2-1.5,0.2-2.7,0.1-3C31.1,48.2,33.3,48.4,36.4,48.7z"/>
			<path class="st97" d="M30.4,46.9c0.5,0.1,17.7,1.2,20.3,1.4c-1.8,0.4-3.1,0.7-3.4,0.8c-6.1-0.6-17.6-1.8-18.1-1.9c0,0,0,0,0,0
				c0-0.1,0.2-0.3,0.8-0.5C30.1,46.8,30.2,46.9,30.4,46.9z"/>
			<path class="st99" d="M30.8,41.5c0.5,0.2,17.8,1.1,20.1,1.2c0.1,0.2,0.6,1.2,0.7,2.7c0.1,1.5-0.6,2.5-0.7,2.7
				c-1.2-0.1-20-1.3-20.5-1.4c-0.2,0-0.2-0.1-0.2-0.2c0-0.1,0.1-0.2,0.3-0.2c0.2,0,3.8,0.3,7.7,0.5c7.2,0.5,12.4,0.9,12.6,0.8
				c0.1,0,0.2-0.1,0.2-0.2c0.3-0.6,0.6-3-0.2-4.3c0-0.1-0.1-0.1-3.1-0.3c-1.8-0.1-4.2-0.2-6.5-0.4c-4.7-0.3-9.5-0.5-10.1-0.7
				c-0.2-0.1-0.4-0.2-0.4-0.5C30.6,41.4,30.7,41.5,30.8,41.5z"/>
			<path class="st100" d="M52.6,53.6l-2.7-0.2c1.8-0.4,4.2-0.9,6.5-1.4c2.3-0.5,4.4-1,5.9-1.4c2.7-0.7,2.8-0.8,2.8-0.9
				c0-0.1,0.1-0.1,0.1-0.2L66,50L52.6,53.6z"/>
			<path class="st101" d="M52.8,53.8l13.5-3.7c0,0.6-0.3,3.3-0.8,4.1c-0.5,0.3-11.2,4.3-12.9,4.9C52.7,58.3,53.1,55.2,52.8,53.8z"/>
			<path class="st102" d="M29.4,51.2c0.1,0,4,0.4,7.7,0.8c5.7,0.6,9.4,1.1,9.6,1.1c0.1,0,0.2-0.1,0.3-0.4c0.3-0.7,0.5-2.6-0.1-3.1
				c0,0-0.1-0.1-3.5-0.4c-2-0.2-4.5-0.5-7-0.7c-3.5-0.4-6.8-0.7-7-0.7c-0.1,0-0.2-0.2-0.2-0.3c0.3,0.1,1.9,0.2,9.1,1
				c4.2,0.4,8.3,0.8,8.9,0.9c0.5,1.4,0.1,3.8,0,4.3l-17.7-2.1c0,0,0,0,0,0c-0.2,0-0.3-0.1-0.3-0.1C29.2,51.3,29.3,51.2,29.4,51.2z"
				/>
			<path class="st82" d="M47.3,53.9l4.6,0.6c0.5,1,0,3.6-0.1,4c-0.6,0-5.5-0.6-9.8-1c-3.7-0.4-6.4-0.7-7.9-0.8c0,0,0-0.1,0-0.2
				c0.1-0.7,0.5-2.8,0.3-4.2L47.3,53.9z"/>
			<path class="st103" d="M53.3,59.1c1.2-0.4,3.6-1.3,5.9-2.2c2.6-1,4.1-1.6,5-1.9c-1.9,1.3-6.4,4.2-7,4.5L53.3,59.1z"/>
			<path class="st3" d="M51.8,58.7c0.1,0,0.1-0.1,0.1-0.2c0.2-0.6,0.6-3.3,0.1-4.2c0,0,0-0.1-0.1-0.1l-3.8-0.5
				c0.3-0.1,0.6-0.1,1-0.2c0,0,0,0,0.1,0l3.3,0.3c0.3,1.3-0.1,4.7-0.2,5.3c-1.6-0.2-19.5-1.9-19.8-1.9c0,0-0.1-0.1-0.1-0.2
				c0-0.1,0.1-0.3,0.2-0.3c0.2,0,4.8,0.5,9.2,0.9C51.3,58.7,51.8,58.8,51.8,58.7z"/>
			<path class="st82" d="M56.7,60.3c0.9,1.7,0.4,4.2,0.2,4.6c-0.6,0-6.3-0.6-11.4-1.1c-5-0.5-8.4-0.8-9.9-0.9c0.2-0.6,1.2-3.1,0.8-5
				L56.7,60.3z"/>
			<path class="st82" d="M56.7,60.3c0.9,1.7,0.4,4.2,0.2,4.6c-0.6,0-6.3-0.6-11.4-1.1c-5-0.5-8.4-0.8-9.9-0.9c0.2-0.6,1.2-3.1,0.8-5
				L56.7,60.3z"/>
			<path class="st104" d="M57,65.1c0.1,0,0.1-0.1,0.2-0.2c0.2-0.6,0.7-3.1-0.2-4.7c0,0,0-0.1-0.1-0.1l-10.6-1.3
				c3.3,0.3,5.9,0.6,6.2,0.6c0,0,0,0,0,0h0h0h0c0,0,0,0,0,0c0,0,0,0,0,0c0.1,0,0.2-0.1,0.4-0.1c0,0,0,0,0.1,0l4.3,0.4
				c0.2,0.4,1.5,3.1,0.2,5.7c-1.6-0.2-21.8-2-22.3-2c-0.2,0-0.3-0.1-0.3-0.1c0-0.1,0.1-0.2,0.2-0.2c0.2,0,5.5,0.5,10.5,1
				C54.9,64.9,56.9,65.1,57,65.1z"/>
			<path class="st105" d="M58,61.5c-0.2-0.9-0.5-1.6-0.6-1.8c1-0.6,7-4.5,7.7-5c1,0.7,0.4,3.5,0.4,3.8c-0.3,0.3-4.6,4-7.7,6.7
				C58.3,63.8,58.2,62.4,58,61.5z"/>
			<path class="st104" d="M58.1,61.9c0.1,0,0.2-0.1,0.4-0.1c1.3-0.3,2.6-0.8,3.8-1.4c1.1-0.6,1.9-1.8,2.5-2.9c0.3-0.5,0.5-1,0.8-1.5
				c0-0.1,0.1-0.1,0.1-0.2c0.2,1.1-0.1,2.5-0.1,2.7c-0.3,0.3-4.6,4-7.7,6.7C58.2,64,58.2,62.8,58.1,61.9z"/>
			<path class="st103" d="M65.1,54.7C65.1,54.7,65.1,54.7,65.1,54.7c-0.1,0.3-0.5,0.8-0.7,0.9c-0.4,0.3-0.9,0.4-1.3,0.6
				c-0.5,0.3-0.8,0.7-1.2,1.1c-0.4,0.4-1,0.8-1.5,1.1c-0.7,0.4-1.3,0.8-1.9,1.1c-0.3,0.1-0.5,0.3-0.8,0.4c0,0-0.1,0-0.1,0
				c-0.1-0.2-0.1-0.3-0.2-0.4C58.4,59.1,64.3,55.2,65.1,54.7z"/>
			<path class="st105" d="M59.2,56.9c2.6-1,4.1-1.6,5-1.9c-0.5,0.3-1.1,0.7-1.7,1.1c-0.1,0-0.2,0-0.2,0c-0.6,0.1-1.1,0.3-1.6,0.6
				c-0.4,0.2-0.9,0.2-1.4,0.4c-0.4,0.2-0.7,0.4-1.1,0.6c-0.5,0.2-0.9,0.4-1.3,0.6c-0.3,0.1-0.6,0.2-0.9,0.4
				c-0.3,0.2-0.4,0.4-0.4,0.6l-2.1-0.2C54.5,58.7,56.9,57.8,59.2,56.9z"/>
			<path class="st106" d="M35.6,62.9c0.1-0.2,0.2-0.4,0.3-0.8c1.1,0.1,2.2,0.2,3.2,0.2c0.8,0,1.5-0.1,2.2,0.1
				c0.8,0.1,1.7,0.2,2.5,0.3c1.1,0.1,2.2,0.1,3.3,0.3c1.1,0.2,2.2,0.4,3.4,0.6c1,0.1,5.3,0.6,4.7-1.4c-0.5-1.8-2.6-1.3-4-1.6
				c-1.2-0.3-2.4-0.7-3.6-0.8c-1.9-0.2-3.8-0.4-5.7-0.6c-1.8-0.2-3.6-0.8-5.4-0.7c0-0.2,0-0.3-0.1-0.5l20.3,2.4
				c0.9,1.7,0.4,4.2,0.2,4.6c-0.6,0-6.3-0.6-11.4-1.1C40.5,63.3,37,63,35.6,62.9z"/>
			<path class="st106" d="M38.9,59.9c0.5,0,1.1,0.1,1.6,0.2c0.6,0.1,1.2,0.2,1.8,0.2c1.2,0.1,2.3,0.2,3.5,0.4
				c2.3,0.2,4.6,0.4,6.9,0.7c0.1,0,0.1,0.1,0,0.1c-2.3,0-4.6-0.3-6.9-0.5c-1.2-0.1-2.3-0.3-3.5-0.4c-0.6-0.1-1.1-0.1-1.7-0.2
				c-0.6-0.1-1.2-0.1-1.7-0.2C38.8,60.1,38.8,59.9,38.9,59.9z"/>
			<path class="st106" d="M36.8,61c0.3,0,0.7,0,1,0.1c0.4,0,0.7,0.1,1.1,0.1c0.8,0.1,1.6,0.1,2.4,0.2c1.5,0.1,3.1,0.2,4.6,0.5
				c0.1,0,0,0.1,0,0.1c-1.5,0-3.1-0.2-4.6-0.3c-0.7-0.1-1.5-0.1-2.2-0.2c-0.4,0-0.7-0.1-1.1-0.1c-0.4,0-0.8,0-1.2-0.1
				C36.7,61.2,36.7,61,36.8,61z"/>
			<path class="st106" d="M37.3,58.8c0.7,0,1.5,0.1,2.2,0.2c0.8,0.1,1.5,0.3,2.2,0.5c0.1,0,0,0.1,0,0.1c-0.7-0.1-1.5-0.2-2.2-0.3
				c-0.7-0.1-1.5-0.1-2.2-0.3C37.2,59,37.2,58.8,37.3,58.8z"/>
			<path class="st106" d="M47.3,61.9c1,0,2.1,0.1,3.1,0.2c0.5,0,1,0.1,1.6,0.2c0.5,0.1,1.1,0.1,1.6,0.2c0.1,0,0.1,0.2,0,0.2
				c-0.5,0-1-0.1-1.6-0.1c-0.5,0-1-0.1-1.6-0.2C49.3,62.2,48.3,62.1,47.3,61.9C47.2,62,47.2,61.9,47.3,61.9z"/>
			<path class="st106" d="M34,56.7c0,0,0-0.1,0-0.2c0-0.1,0-0.1,0-0.2c0.7,0.2,1.3,0.3,2,0.4c0.9,0,1.7,0,2.6,0.2
				c1.6,0.3,3.3,0.2,4.9,0.3c1.2,0.1,2.4,0.2,3.6,0.2c0.7,0.1,1.7,0.1,2.4-0.1c-0.1-0.3-0.6-0.3-0.8-0.4c-0.8-0.2-1.7-0.3-2.5-0.3
				c-2.3-0.2-4.8-0.3-7-0.9c1.5,0.2,3,0,4.5,0.2c1.6,0.2,3.2,0.3,4.8,0.5c0.7,0.1,1.5,0.1,2.1,0c-0.2-0.4-1-0.5-1.3-0.6
				c-0.4-0.1-1.5,0.1-1.6-0.3c0.3-0.1,2.8,0.2,2.3-0.4c-0.3-0.4-1.5-0.4-1.9-0.5c-1-0.1-1.9-0.2-2.9-0.3c-2.2-0.1-4.5-0.5-6.7-0.8
				c-0.9-0.1-1.8-0.3-2.7-0.5c-0.4-0.1-0.8-0.2-1.2-0.3c0,0-0.1,0-0.1,0c0-0.1,0-0.3,0-0.4l13.1,1.6l4.6,0.6c0.5,1,0,3.6-0.1,4
				c-0.6,0-5.5-0.6-9.8-1C38.2,57.1,35.5,56.8,34,56.7z"/>
			<path class="st106" d="M35.2,55c0.9,0.2,1.9,0.4,2.9,0.4c0,0,0,0.1,0,0.1C37.1,55.5,36.1,55.4,35.2,55C35.1,55.1,35.2,55,35.2,55
				z"/>
			<path class="st106" d="M39.3,54.3c1.2,0.1,2.5,0.4,3.7,0.6c1.3,0.2,2.5,0.2,3.8,0.4c0.1,0,0.1,0.2,0,0.2c-1.2,0-2.5-0.2-3.7-0.3
				c-1.2-0.2-2.5-0.3-3.8-0.6C39.1,54.5,39.1,54.3,39.3,54.3z"/>
			<path class="st106" d="M35.2,53.8c0.5,0,1,0.1,1.5,0.2c0,0,0,0,0,0c-0.5,0-1-0.1-1.5-0.2C35.1,53.9,35.1,53.8,35.2,53.8z"/>
			<path class="st3" d="M65.4,54.2c-0.5,0.3-11.2,4.3-12.9,4.9c0.1-0.4,0.2-1.5,0.3-2.5c0.4,0,0.9,0,1.3,0c0.5-0.1,0.9-0.2,1.4-0.4
				c1-0.3,2-0.5,3.1-0.8c0.5-0.1,1-0.3,1.6-0.4c0.7-0.2,1.4-0.3,2.1-0.5c0.7-0.2,1.3-0.2,2-0.6c0.4-0.3,0.9-0.5,1.3-0.8
				c0.1-0.1,0.3-0.2,0.4-0.3C65.7,53.4,65.6,54,65.4,54.2z"/>
			<path class="st100" d="M66.2,50.2c0,0.1,0,0.2,0,0.3c-0.3,0.1-0.6,0.2-0.9,0.2c-0.3,0.1-0.6,0.2-0.9,0.3
				c-0.5,0.2-1.1,0.3-1.7,0.4c-0.5,0.1-0.9,0.4-1.4,0.5c-0.4,0.2-0.9,0.3-1.4,0.3c-0.5,0.1-1,0.3-1.6,0.4c-0.7,0.2-1.4,0.4-2,0.6
				c-0.4,0.1-0.8,0.2-1.2,0.3c-0.4,0.1-0.7,0.3-1.1,0.4c-0.4,0.1-0.8,0.3-1.2,0.4c0-0.2,0-0.4-0.1-0.5L66.2,50.2z"/>
			<path class="st102" d="M64.9,49.6c-0.3,0.2-3.9,1.1-8.7,2.2c-4.4,1-7.9,1.8-8.7,1.8c0.1-0.3,0.2-1.1,0.2-2
				c0.2,0.1,0.4,0.1,0.7,0.2c0.8,0.1,1.7,0,2.5-0.1c0.9-0.1,1.7-0.2,2.6-0.4c0.7-0.2,1.4-0.5,2.1-0.6c0.8-0.2,1.7-0.3,2.5-0.5
				c1.1-0.3,2.2-0.7,3.4-1c1.1-0.3,2.2-0.4,3.2-0.8c0.1-0.1,0.4-0.1,0.6-0.2C65.1,48.8,65,49.3,64.9,49.6z"/>
			<path class="st97" d="M65,46c0,0.1,0.1,0.2,0.1,0.4c-0.6,0.1-1.2,0.3-1.7,0.5c-1.3,0.3-2.8,0.1-4.1,0.3c-0.4,0.1-0.8,0.2-1.3,0.3
				c-0.6,0.1-1.2,0.2-1.7,0.3c-0.4,0.1-0.8,0.3-1.2,0.4c-0.5,0.1-1,0-1.5,0.2c-0.6,0.2-1.3,0.4-2,0.5c-0.4,0.1-0.8,0-1.2,0.1
				c-0.3,0.1-0.6,0.2-0.9,0.3c-0.6,0.1-1.2,0.1-1.8,0.2c0-0.1-0.1-0.2-0.1-0.3C48.7,48.8,59.3,46.9,65,46z"/>
			<path class="st98" d="M62.9,45C62.9,45,62.9,45,62.9,45c0,0,0.2,0.1,0.5,0.2c0,0-0.1,0-0.1,0.1c-0.4,0.2-0.8,0.3-1.2,0.4
				c-0.5,0.2-1.1,0.4-1.6,0.6c-0.3,0.1-0.8,0.3-1.2,0.5c-2.3,0.4-5,0.9-7.2,1.3C54.4,47.4,60.3,45.7,62.9,45z"/>
			<path class="st98" d="M48.7,48.7c-1.3-0.4-2.7-0.4-4-0.6c-1.4-0.2-2.8,0-4.2-0.1c-0.5,0-1,0-1.6,0c-0.7,0-1.3-0.3-2-0.3
				c-1.1,0-2.2-0.1-3.2-0.2c-0.8-0.1-1.6-0.3-2.4-0.4c-0.6-0.1-1.2,0-1.8-0.1c0.1-0.1,0.3-0.1,0.4-0.2c0.1,0.1,0.2,0.2,0.4,0.2
				c0.5,0.1,17.7,1.2,20.3,1.4C49.9,48.5,49.2,48.6,48.7,48.7z"/>
			<path class="st106" d="M29.9,51c0-0.1,0-0.2,0-0.3c0.4,0.1,0.9,0.1,1.3,0.2c1,0.1,1.9,0.1,2.9,0.3c0.9,0.2,1.9,0.1,2.9,0.2
				c1.1,0.1,2.6,0.6,3.7,0.2c-0.9-0.1-1.8-0.2-2.8-0.4c-0.5-0.1-1-0.3-1.4-0.5c-0.6-0.2-1.2-0.3-1.7-0.7c1,0.3,2.2,0.4,3.2,0.6
				c1.5,0.2,3,0.3,4.4,0.5c0.9,0.2,1.7,0.7,2.5,0.7c0.3,0,0.6,0,0.4-0.3c-0.3-0.4-1.2-0.4-1.6-0.7c0.7-0.1,2,0.5,2.6-0.1
				c-0.3-0.3-0.7-0.5-1.1-0.7c-0.4-0.2-0.7-0.2-1.2-0.2c-0.7,0-1.3-0.2-2-0.3c-0.9-0.1-1.8,0.1-2.7,0.1c-0.8,0-1.6-0.3-2.4-0.5
				c-0.9-0.1-1.9-0.2-2.8-0.3c-1-0.1-2-0.3-3.1-0.5c-0.2,0-0.6-0.2-0.9-0.2c1.1,0.1,3.2,0.3,6.1,0.6c4.4,0.4,10,1,10.4,1.1
				c0.2,0.2,0.3,0.7,0.3,1.4c0,0.9-0.2,1.6-0.3,1.7c-0.4,0-5.2-0.6-9.6-1.1C33.5,51.4,30.9,51.1,29.9,51z"/>
			<path class="st106" d="M30.9,49.5c0.5,0,1,0.1,1.4,0.2c0.5,0.1,1,0.2,1.5,0.3c0.1,0,0,0.1,0,0.1c-0.5-0.1-1-0.1-1.5-0.2
				c-0.5-0.1-1-0.1-1.4-0.2C30.8,49.6,30.8,49.5,30.9,49.5z"/>
			<path class="st106" d="M30.5,50.2c0.3,0,0.5,0.1,0.8,0.1c0.3,0,0.6,0.1,0.9,0.2c0,0,0,0.1,0,0.1c-0.3,0-0.6,0-0.9,0
				c-0.3,0-0.6,0-0.8-0.1C30.4,50.3,30.4,50.2,30.5,50.2z"/>
			<path class="st106" d="M35.5,49.6c1.1,0.1,2.3,0.2,3.4,0.4c0.6,0.1,1.2,0.2,1.8,0.2c0.3,0,0.6,0.1,0.9,0.1c0.3,0,0.6,0,0.8,0
				c0,0,0,0,0,0c-0.4,0.2-1,0.1-1.5,0.1c-0.6-0.1-1.3-0.1-1.9-0.2c-1.2-0.1-2.4-0.3-3.6-0.5C35.4,49.7,35.4,49.6,35.5,49.6z"/>
			<path class="st106" d="M30.5,48.8c0.4,0,0.9,0,1.3,0.1c0.4,0,0.7,0.1,1,0.3c0.1,0,0,0.1,0,0.1c-0.8-0.1-1.6-0.1-2.3-0.3
				C30.4,49,30.4,48.8,30.5,48.8z"/>
			<path class="st99" d="M63.9,44.5c-0.2,0.1-8.2,2.3-12.7,3.5c0.3-0.4,0.7-1.2,0.6-2.3c0.3,0,0.5,0.1,0.8,0c0.5,0,1-0.1,1.4-0.2
				c1.1-0.2,2.1-0.5,3.2-0.7c1.1-0.2,2.1-0.4,3.2-0.7c1.4-0.5,3.3-0.8,4.4-1.8C64.9,43.1,64.7,44.2,63.9,44.5z"/>
			<path class="st95" d="M64.6,40.1c0,0,0.1,0.1,0.1,0.2c-0.1,0-0.2,0-0.3,0c-0.3,0.1-0.6,0.3-1,0.4c-0.7,0.2-1.6,0.4-2.3,0.5
				c-1,0.1-1.9,0.2-2.9,0.4c-0.4,0.1-0.9,0.1-1.3,0.2c-0.4,0.1-0.8,0.3-1.3,0.4c-0.4,0.1-0.8,0.1-1.3,0.2c-0.4,0.1-0.8,0.2-1.3,0.2
				c-0.5,0-1.2,0-1.6,0.2c-0.1,0-0.1,0.1-0.2,0.1c-0.1-0.1-0.1-0.2-0.1-0.3C52.6,42.4,62.9,40.4,64.6,40.1z"/>
			<path class="st96" d="M36.2,40.8c0.9-0.1,1.8-0.2,2.8-0.2c1.6,0,3.2,0.2,4.7,0.4c2,0.3,4.1,0.8,6.2,0.8c1.6,0,3.1-0.2,4.5-0.7
				c0.8-0.3,2.7-0.3,3.1-1.2c0-0.1,0-0.1,0-0.2c2.1,0.1,4.2,0.2,6,0.3c-3.2,0.6-12.2,2.4-12.6,2.5c-6.8-0.4-19.7-1.1-20.1-1.2
				c-0.3-0.1-0.4-0.3-0.4-0.4c0.6-0.1,2.1-0.3,3.9-0.5C34.9,40.8,35.6,40.9,36.2,40.8z"/>
			<path class="st106" d="M31,46.1C31,46.1,31,46.1,31,46.1c0-0.2,0.1-0.4,0.1-0.6c0.3,0.1,0.5,0.2,0.6,0.2c0.7,0.2,1.3,0.3,2.1,0.3
				c1,0,1.9-0.1,2.9,0c0.6,0.1,1.2,0.1,1.8,0.2c0.3,0,0.9,0.2,1.2,0C39.6,46,39.3,46,39.1,46c-0.4,0-0.9-0.2-1.3-0.3
				c-0.6-0.2-1.1-0.3-1.7-0.5c1.5-0.1,3,0.2,4.5,0.4c1,0.2,2.1,0.1,3.1,0.1c1,0,2.1,0,3.1,0c0.2,0,1.9,0.2,1.9-0.2
				c0-0.3-0.4-0.3-0.6-0.3c-0.7-0.1-1.3-0.3-1.9-0.5c0.5,0,0.9,0,1.4,0c0.6,0,1.2,0.2,1.7,0c0.6-0.2,0.2-0.4-0.2-0.5
				c-0.7-0.2-1.5-0.5-2.2-0.6c-0.5,0-1.1,0.1-1.6,0.1c-0.6,0-1.1,0-1.7,0c-2.7,0-5.6-0.2-8.3-0.7c-0.5-0.1-1-0.1-1.5-0.2
				c-0.4-0.1-0.8-0.2-1.2-0.3c-0.4-0.1-1-0.1-1.5-0.2c0-0.1,0-0.3-0.1-0.4c1.1,0.2,5.6,0.4,10,0.6c4.2,0.2,9,0.5,9.5,0.6
				C51,44,51,45.2,51,45.8c0,0.9-0.2,1.5-0.3,1.6h0c-0.4,0-7.1-0.5-12.5-0.8C35,46.4,32.1,46.2,31,46.1z"/>
			<path class="st106" d="M32.1,44.7c0.4,0,0.8,0.1,1.2,0.2c0.5,0.1,1,0.2,1.5,0.2c0,0,0.1,0.1,0,0.1c-0.9,0-1.9,0.1-2.8-0.2
				C31.9,44.9,31.9,44.7,32.1,44.7z"/>
			<path class="st106" d="M37.3,44.1c1.3,0.1,2.6,0.3,3.9,0.4c0.7,0,1.3,0.1,2,0.1c0.7,0,1.3,0,2,0c0,0,0.1,0.1,0,0.1
				c-0.6,0.1-1.3,0.1-1.9,0.1c-0.7,0-1.3,0-2-0.1c-1.3-0.1-2.7-0.2-4-0.5C37.2,44.2,37.2,44.1,37.3,44.1z"/>
			<path class="st106" d="M32.8,43.6c0.3,0,0.6,0.1,0.9,0.2c0.3,0.1,0.7,0.1,1,0.1c0.1,0,0.1,0.1,0,0.1c-0.6,0-1.4,0-2-0.3
				C32.6,43.7,32.7,43.5,32.8,43.6z"/>
			<path class="st107" d="M44.6,39.2c0.4-0.1,5.1,0.2,5.2,0.3c0.1,0.2-4.7,0.1-5.1,0.2c-0.4,0.1-3.1,0.2-3.4,0.2
				C41.1,39.8,43.9,39.3,44.6,39.2z"/>
			<g>
				<path class="st82" d="M60.4,62.9c0-0.2,0-0.3,0-0.5c0-0.5-0.1-1.1-0.2-1.6c-0.1-0.5-0.2-1-0.4-1.5c-0.1-0.3-0.2-0.5-0.3-0.7
					c0,0,0-0.1-0.1-0.1c0.1-0.1,0.3-0.2,0.4-0.3c0.2,0.3,0.3,0.7,0.4,0.9c0.2,0.5,0.4,1,0.5,1.5c0.1,0.5,0.2,1.1,0.2,1.6
					c0,0,0,0.1,0,0.1C60.8,62.6,60.6,62.7,60.4,62.9z"/>
				<path class="st82" d="M59.6,63.1c0-0.3,0-0.5,0.1-0.8c0-0.5,0-1.1-0.1-1.6c-0.1-0.5-0.2-1-0.4-1.5c0,0-0.1-0.2-0.2-0.4
					c0.1-0.1,0.2-0.1,0.3-0.2c0,0,0,0,0,0c0.1,0.2,0.2,0.4,0.3,0.7c0.2,0.5,0.3,1,0.4,1.5c0.1,0.5,0.1,1,0.1,1.5c0,0.3,0,0.6,0,0.9
					c-0.2,0.1-0.3,0.3-0.5,0.4C59.5,63.4,59.6,63.3,59.6,63.1z"/>
			</g>
			<g>
				<path class="st82" d="M64.3,53.4c0-0.5,0-1,0-1.5c0-0.4-0.1-0.8-0.2-1.2l0.4-0.1c0.3,0.9,0.3,1.9,0.3,2.7c0,0.4-0.1,0.8-0.2,1.2
					c-0.2,0.1-0.4,0.1-0.6,0.2C64.2,54.3,64.3,53.9,64.3,53.4z"/>
				<path class="st82" d="M62.9,54.9c0.1-0.4,0.2-0.9,0.3-1.3c0.2-0.9,0.2-1.7,0.2-2.6l0.3-0.1c0.1,0.9,0.1,1.8,0,2.7
					c-0.1,0.5-0.1,0.9-0.2,1.4c0,0,0,0.1,0,0.1c-0.2,0.1-0.4,0.2-0.7,0.3C62.8,55.2,62.9,55,62.9,54.9z"/>
			</g>
			<g>
				<path class="st82" d="M51.2,52.9c0-0.1,0-0.2,0-0.2c0-0.5,0-1.1-0.1-1.6c-0.1-0.9-0.2-1.7-0.6-2.5c0.2,0,0.3-0.1,0.5-0.1
					c0.4,0.8,0.6,1.7,0.7,2.5c0.1,0.6,0.1,1.2,0.1,1.8C51.6,52.8,51.4,52.9,51.2,52.9z"/>
				<path class="st82" d="M50.1,52.8c0.1-0.5,0.1-1,0.1-1.5c0-0.9-0.1-1.8-0.5-2.6c0.1,0,0.3-0.1,0.5-0.1c0.4,0.8,0.6,1.8,0.6,2.7
					c0,0.5,0,1.1,0,1.6c0,0,0,0,0,0c-0.2,0.1-0.5,0.1-0.7,0.1C50.1,53,50.1,52.9,50.1,52.8z"/>
			</g>
			<g>
				<path class="st82" d="M62.1,44.3c0.1-0.5,0.1-0.9,0.1-1.4c0-0.5,0-0.9,0-1.4c0-0.3-0.1-0.6-0.2-0.9c0.1,0,0.3-0.1,0.4-0.1
					c0.1,0.2,0.1,0.5,0.2,0.8c0.1,0.5,0.1,1,0.1,1.5c0,0.5,0,1.1-0.1,1.6c0,0.2,0,0.3-0.1,0.5c-0.2,0-0.4,0.1-0.5,0.2
					C62,44.8,62.1,44.5,62.1,44.3z"/>
				<path class="st82" d="M63,43.4c0-0.5,0-1.1,0-1.6c0-0.4-0.1-0.9-0.2-1.3c0.2,0,0.3-0.1,0.4-0.1c0.4,0.9,0.5,2.1,0.4,3
					c0,0.4-0.1,0.9-0.2,1.3c-0.2,0.1-0.4,0.1-0.7,0.2C62.8,44.4,62.9,43.9,63,43.4z"/>
				<path class="st82" d="M61.2,44.6c0.1-0.5,0.1-1,0.1-1.5c0-0.5,0-1-0.1-1.5c0-0.3-0.1-0.5-0.1-0.8c0,0,0-0.1,0-0.1
					c0.1,0,0.3-0.1,0.4-0.1c0,0,0,0,0,0.1c0.1,0.3,0.1,0.6,0.2,0.8c0.1,0.5,0.1,1.1,0.1,1.7c0,0.5,0,1-0.1,1.6c0,0.1,0,0.2-0.1,0.4
					c-0.2,0.1-0.4,0.1-0.6,0.2C61.2,45.1,61.2,44.8,61.2,44.6z"/>
			</g>
			<g>
				<path class="st108" d="M50.9,48.3c0,0,0-0.1,0-0.1c0,0,0.9-1.1,0.8-2.7c-0.2-1.7-0.7-2.7-0.7-2.7c0,0,0-0.1,0-0.1
					c0,0,0-0.1,0.1-0.1c0.1,0,11.8-2.3,13.6-2.7c0,0,0,0,0,0c0.2,0,0.3,0.3,0.5,0.8c0.2,1.1,0.3,3.5-1,4c-0.3,0.1-12.5,3.5-13,3.6
					C51,48.3,51,48.3,50.9,48.3C50.9,48.3,50.9,48.3,50.9,48.3z M51.2,42.7c0.2,0.3,0.6,1.3,0.7,2.7c0.1,1.3-0.3,2.2-0.6,2.6
					c4.5-1.2,12.4-3.4,12.7-3.5c0.9-0.4,1-1.9,1-2.6c0-1-0.2-1.8-0.4-1.9C62.9,40.4,52.6,42.4,51.2,42.7z"/>
			</g>
			<g>
				<path class="st108" d="M51,42.7c0.1,0,0.1,0,0.1-0.1c0-0.1,0-0.1-0.1-0.1c-6.8-0.4-19.7-1.1-20.1-1.2c-0.3-0.1-0.4-0.3-0.4-0.4
					c1.9-0.2,13.7-1.7,14.2-1.8c0.4,0,13.2,0.7,19.9,1c0.1,0,0.1,0,0.1-0.1c0-0.1,0-0.1-0.1-0.1c-4.6-0.3-19.8-1.1-20-1
					c-0.3,0.1-9.5,1.2-14.3,1.8c0,0-0.1,0-0.1,0c0,0,0,0.1,0,0.1c0,0,0.1,0.5,0.6,0.7C31.3,41.7,49,42.6,51,42.7
					C51,42.7,51,42.7,51,42.7z"/>
			</g>
			<g>
				<path class="st108" d="M51,48.3c0.1,0,0.1,0,0.1-0.1c0-0.1,0-0.1-0.1-0.1c-0.2,0-20.1-1.3-20.6-1.4c-0.2,0-0.2-0.1-0.2-0.2
					c0-0.1,0.1-0.2,0.3-0.2c0.2,0,3.8,0.3,7.7,0.5c7.2,0.5,12.4,0.9,12.6,0.8c0.1,0,0.2-0.1,0.2-0.2c0.3-0.6,0.6-3-0.2-4.3
					c0-0.1-0.1-0.1-3.1-0.3c-1.8-0.1-4.2-0.2-6.5-0.4c-4.7-0.3-9.5-0.5-10.1-0.7c-0.4-0.1-0.5-0.6-0.5-1c0-0.1-0.1-0.1-0.1-0.1
					c-0.1,0-0.1,0.1-0.1,0.1c0,0.4,0.1,1.1,0.7,1.2c0.6,0.1,5.5,0.4,10.1,0.7c4.2,0.2,9,0.5,9.5,0.6C51,44,51,45.2,51,45.8
					c0,0.9-0.2,1.5-0.3,1.6h0c-0.4,0-7.1-0.5-12.5-0.8c-4-0.3-7.5-0.5-7.7-0.5c-0.3,0-0.5,0.2-0.5,0.4c0,0.2,0.1,0.4,0.4,0.4
					C30.9,47,50.1,48.3,51,48.3C51,48.3,51,48.3,51,48.3z"/>
			</g>
			<g>
				<path class="st108" d="M30.8,46.2c0.1,0,0.1,0,0.1-0.1c0.6-2.3,0.1-4.1,0.1-4.2c0-0.1-0.1-0.1-0.1-0.1c-0.1,0-0.1,0.1-0.1,0.1
					c0,0,0.5,1.8-0.1,4.1C30.7,46.1,30.8,46.2,30.8,46.2C30.8,46.2,30.8,46.2,30.8,46.2z"/>
			</g>
			<g>
				<path class="st108" d="M47.3,53.9C47.3,53.9,47.3,53.8,47.3,53.9c-0.1-0.1-0.1-0.1-0.1-0.1c0,0,0.5-2.9,0-4.5c0-0.1,0-0.1,0-0.1
					c0.9-0.6,15.1-2.9,17.5-3.3c-0.6-0.3-1.8-0.8-1.8-0.8c-0.1,0-0.1-0.1-0.1-0.1c0-0.1,0.1-0.1,0.1-0.1c0.1,0,1.7,0.6,2.1,0.9l0,0
					c0.5,0.4,0.5,3.1,0,3.9c0,0.1-0.1,0.2-2.8,0.9c-1.5,0.4-3.6,0.9-5.9,1.4C52.4,52.9,47.9,53.9,47.3,53.9
					C47.3,53.9,47.3,53.9,47.3,53.9z M65.2,47.6c0-0.8-0.1-1.4-0.2-1.6c-5.7,0.9-16.3,2.8-17.5,3.3c0.5,1.4,0.1,3.7,0,4.3
					c0.7-0.1,4.3-0.8,8.7-1.8c4.8-1.1,8.4-2,8.7-2.2C65.1,49.2,65.2,48.5,65.2,47.6z"/>
			</g>
			<g>
				<path class="st108" d="M47.3,49.3c0.1,0,0.1,0,0.1-0.1c0-0.1,0-0.1-0.1-0.1c-6.1-0.6-17.6-1.8-18.1-1.9c0,0,0,0,0,0
					c0-0.1,0.2-0.3,0.9-0.5c0.1,0,0.1-0.1,0.1-0.1c0-0.1-0.1-0.1-0.1-0.1c-0.6,0.2-1,0.4-1,0.7c0,0.1,0,0.2,0.1,0.3
					c0.1,0,0.1,0.1,9.2,1C42.7,48.9,47.2,49.3,47.3,49.3C47.3,49.3,47.3,49.3,47.3,49.3z"/>
			</g>
			<g>
				<path class="st108" d="M29.8,51.1c0.1,0,0.1,0,0.1-0.1c0.3-1.7,0.1-3,0.1-3.1c0-0.1-0.1-0.1-0.1-0.1c-0.1,0-0.1,0.1-0.1,0.1
					c0,0,0.1,1.3-0.1,3C29.7,51.1,29.7,51.1,29.8,51.1C29.8,51.1,29.8,51.1,29.8,51.1z"/>
			</g>
			<g>
				<path class="st108" d="M65.3,48.7"/>
			</g>
			<g>
				<path class="st108" d="M52.3,59.4c0,0,0-0.1,0-0.1c0,0,0.6-4.1,0.2-5.5c0,0,0-0.1,0-0.1c0,0,0,0,0.1-0.1l13.7-3.7
					c0.1,0,0.1,0,0.1,0.1c0.1,0.1-0.1,1.2-0.2,1.9c-0.1,0.9-0.4,2-0.7,2.5c0,0.1-0.1,0.1-6.4,2.5c-3.2,1.2-6.4,2.4-6.7,2.5
					C52.4,59.4,52.4,59.4,52.3,59.4C52.4,59.4,52.3,59.4,52.3,59.4z M66.2,50.2l-13.5,3.7c0.3,1.3-0.1,4.5-0.2,5.3
					c1.6-0.6,12.3-4.6,12.9-4.9C65.9,53.5,66.2,50.8,66.2,50.2z"/>
			</g>
			<g>
				<path class="st108" d="M66.3,50.1c0,0,0.1,0,0.1-0.1c0-0.1,0-0.1,0-0.2l-1.2-0.6c-0.1,0-0.1,0-0.2,0c0,0.1,0,0.1,0,0.2
					L66.3,50.1C66.3,50.1,66.3,50.1,66.3,50.1z"/>
			</g>
			<g>
				<path class="st108" d="M52.6,53.9c0.1,0,0.1,0,0.1-0.1c0-0.1,0-0.1-0.1-0.1l-3.4-0.3c-0.1,0-0.1,0-0.1,0.1c0,0.1,0,0.1,0.1,0.1
					L52.6,53.9C52.6,53.9,52.6,53.9,52.6,53.9z"/>
			</g>
			<g>
				<path class="st108" d="M52.4,59.4c0.1,0,0.1,0,0.1-0.1c0-0.1,0-0.1-0.1-0.1c-0.2,0-19.6-1.9-19.9-1.9c0,0-0.1-0.1-0.1-0.2
					c0-0.1,0.1-0.3,0.2-0.3c0.2,0,4.8,0.5,9.2,0.9c9.5,1,9.9,1,10,1c0.1,0,0.1-0.1,0.1-0.2c0.2-0.6,0.6-3.3,0.1-4.2
					c0,0,0-0.1-0.1-0.1l-4.6-0.6l-17.8-2.1c0,0,0,0,0,0c-0.2,0-0.3-0.1-0.3-0.1c0-0.1,0.1-0.2,0.2-0.2c0.1,0,4,0.4,7.7,0.8
					c5.7,0.6,9.4,1.1,9.6,1.1c0.1,0,0.2-0.1,0.3-0.4c0.3-0.7,0.5-2.6-0.1-3.1c0,0-0.1-0.1-3.5-0.4c-2-0.2-4.5-0.5-7-0.7
					c-3.5-0.4-6.8-0.7-7-0.7c-0.3-0.1-0.2-0.6-0.2-0.6c0-0.1,0-0.1-0.1-0.1c-0.1,0-0.1,0-0.1,0.1c0,0-0.1,0.7,0.4,0.8
					c0.2,0.1,2.8,0.3,7,0.7c4.4,0.4,10,1,10.4,1.1c0.2,0.2,0.3,0.7,0.3,1.4c0,0.9-0.2,1.6-0.3,1.7c-0.4,0-5.2-0.6-9.6-1.1
					c-4.7-0.5-7.6-0.8-7.7-0.8c-0.2,0-0.4,0.2-0.4,0.4c0,0.1,0,0.3,0.5,0.4l17.8,2.1l4.6,0.6c0.5,1,0,3.6-0.1,4
					c-0.6,0-5.5-0.6-9.8-1c-5.7-0.6-9.1-1-9.3-0.9c-0.3,0-0.4,0.3-0.4,0.5c0,0.2,0.1,0.4,0.3,0.4C32.8,57.5,51.6,59.4,52.4,59.4
					C52.4,59.4,52.4,59.4,52.4,59.4z"/>
			</g>
			<g>
				<path class="st108" d="M57.3,65.6C57.3,65.5,57.3,65.5,57.3,65.6c1.5-2.9-0.1-5.8-0.1-5.9c0,0,0-0.1,0-0.1c0,0,0-0.1,0.1-0.1
					c0.5-0.3,7.8-5.1,7.8-5.1c0,0,0.1,0,0.1,0c1.2,0.8,0.6,4,0.5,4.1c0,0,0,0,0,0c-0.2,0.3-6.9,6-8.2,7.1c0,0,0,0-0.1,0c0,0,0,0,0,0
					C57.3,65.7,57.3,65.6,57.3,65.6z M65.1,54.7c-0.7,0.5-6.7,4.5-7.7,5c0.1,0.2,0.4,0.9,0.6,1.8c0.2,0.9,0.3,2.3-0.3,3.6
					c3.1-2.6,7.5-6.3,7.7-6.7C65.5,58.2,66,55.4,65.1,54.7z"/>
			</g>
			<g>
				<path class="st108" d="M57.2,59.8c0.1,0,0.1,0,0.1-0.1c0-0.1,0-0.1-0.1-0.1l-4.3-0.4c-0.1,0-0.1,0-0.1,0.1c0,0.1,0,0.1,0.1,0.1
					L57.2,59.8C57.2,59.8,57.2,59.8,57.2,59.8z"/>
			</g>
			<g>
				<path class="st108" d="M57.4,65.7c0.1,0,0.1,0,0.1-0.1c0-0.1,0-0.1-0.1-0.1c-0.9-0.1-21.9-2.1-22.4-2.1c-0.2,0-0.3-0.1-0.3-0.1
					c0-0.1,0.1-0.2,0.2-0.2c0.2,0,5.5,0.5,10.5,1c9.4,0.9,11.5,1.1,11.5,1.1c0.1,0,0.1-0.1,0.2-0.2c0.2-0.6,0.7-3.1-0.2-4.7
					c0,0,0-0.1-0.1-0.1l-21-2.5c-0.1,0-0.1,0-0.1,0.1c0,0.1,0,0.1,0.1,0.1l20.9,2.5c0.9,1.7,0.4,4.2,0.2,4.6
					c-0.6,0-6.3-0.6-11.4-1.1c-6.5-0.6-10.4-1-10.6-1c-0.3,0-0.4,0.2-0.4,0.4c0,0.2,0.1,0.4,0.5,0.4C35.5,63.6,57.2,65.7,57.4,65.7
					C57.4,65.7,57.4,65.7,57.4,65.7z"/>
			</g>
			<g>
				<path class="st108" d="M35.5,63.1c0,0,0.1,0,0.1-0.1c0.1-0.1,1.3-3.1,0.9-5.2c0-0.1-0.1-0.1-0.1-0.1c-0.1,0-0.1,0.1-0.1,0.1
					c0.4,2.1-0.8,5-0.9,5.1C35.3,63,35.4,63,35.5,63.1C35.4,63.1,35.4,63.1,35.5,63.1z"/>
			</g>
			<g>
				<path class="st108" d="M33.8,56.9C33.9,56.9,33.9,56.8,33.8,56.9c0.1,0,0.1-0.1,0.1-0.1c0,0,0-0.1,0-0.2
					c0.1-0.7,0.5-2.9,0.3-4.3c0-0.1-0.1-0.1-0.1-0.1c-0.1,0-0.1,0.1-0.1,0.1c0.2,1.4-0.1,3.5-0.3,4.2c0,0.3,0,0.3,0,0.3
					C33.8,56.8,33.8,56.9,33.8,56.9z"/>
			</g>
		</g>
		<g>
			<path d="M92.8,53.5c-0.3,0.2-0.7,0.3-1,0.5c-0.2,0.1-0.3,0.2-0.4,0.3c-0.1,0.1,0,0.1,0,0.2c0,0.1,0,0.2,0,0.3
				c-0.1,0.2-0.2,0.4-0.5,0.5c-0.3,0.1-0.5,0-0.7,0c-0.2,0-0.3,0-0.4,0c-0.1,0.1-0.3,0.2-0.4,0.3c-0.1,0.1-0.3,0.2-0.4,0.4
				c0,0,0,0.1,0,0c0,0,0-0.1,0-0.1c0,0-0.1,0,0,0c0.1,0,0.2,0,0.2,0c0.3,0,0.7,0,1.1-0.1c0.7-0.2,1.4-0.5,2.1-0.9
				c-0.6,0.5-1.3,0.8-2,1.1c-0.4,0.1-0.8,0.2-1.2,0.2c-0.1,0-0.2,0-0.3,0c0,0-0.1,0-0.1-0.1c-0.1-0.1-0.1-0.2-0.1-0.2
				c0-0.1,0-0.2,0.1-0.2c0.1-0.2,0.3-0.3,0.4-0.5c0.1-0.1,0.3-0.3,0.5-0.4c0.2-0.1,0.5-0.1,0.7-0.1c0.4,0.1,0.6,0.1,0.7-0.2
				c0-0.1,0-0.1,0.1-0.2c0-0.1,0.1-0.3,0.2-0.3c0.2-0.1,0.3-0.2,0.5-0.3C92.1,53.7,92.5,53.6,92.8,53.5z"/>
		</g>
		<g>
			<path class="st109" d="M78.6,23.5c0.5-0.5,0.7-0.5,0.7-0.5C79,23.3,79,23.7,79,23.7c0.1-0.4,0.8-1.2,2.3-2.1c0,0-1.4,0.8-1.8,1.1
				C79,23,78.6,23.5,78.6,23.5z"/>
			<path class="st109" d="M79.8,23.9L80,24c0.8-1,1.6-1.4,1.6-1.4s-0.6,0.3-1,0.7C79.9,23.8,79.8,23.9,79.8,23.9z"/>
			<path class="st109" d="M80.3,24.2L80.3,24.2c0.5-0.6,1-0.8,1-0.8s-0.4,0.2-0.6,0.4C80.3,24.1,80.3,24.2,80.3,24.2z"/>
			<path class="st109" d="M81.3,24.5L81.3,24.5c0.5-0.6,1-0.8,1-0.8s-0.4,0.2-0.6,0.4C81.4,24.4,81.3,24.5,81.3,24.5z"/>
			<path class="st109" d="M84,25.5L84,25.5c0.5-0.6,1-0.8,1-0.8s-0.4,0.2-0.6,0.4C84,25.5,84,25.5,84,25.5z"/>
			<path class="st109" d="M77.2,23.1L77.2,23.1c0.5-0.6,1.5-1.1,1.5-1.1s-0.9,0.5-1.1,0.7C77.3,23,77.2,23.1,77.2,23.1z"/>
			<path class="st109" d="M77.9,23.3L77.9,23.3c0.6-0.6,1.1-0.8,1.1-0.8s-0.4,0.2-0.6,0.4C78,23.2,77.9,23.3,77.9,23.3z"/>
			<path class="st109" d="M76.8,23L76.8,23c0.6-0.6,1.1-0.8,1.1-0.8s-0.4,0.2-0.6,0.4C76.8,22.9,76.8,23,76.8,23z"/>
			<path class="st109" d="M76.2,22.8L76.2,22.8c0.3-0.3,0.5-0.4,0.5-0.4s-0.2,0.1-0.3,0.2C76.2,22.8,76.2,22.8,76.2,22.8z"/>
			<path class="st109" d="M87.7,28L87.7,28c0.6-0.5,1.2-0.6,1.2-0.6s-0.4,0.1-0.7,0.3C87.7,27.9,87.7,28,87.7,28z"/>
			<path class="st109" d="M85.5,26.5L85.5,26.5c0.6-0.5,1.1-0.7,1.1-0.7s-0.4,0.2-0.6,0.3C85.5,26.4,85.5,26.5,85.5,26.5z"/>
			<path class="st109" d="M88.1,28.5L88.1,28.5c0.7-0.5,1.2-0.6,1.2-0.6s-0.4,0.1-0.7,0.3C88.1,28.4,88.1,28.5,88.1,28.5z"/>
			<path class="st109" d="M81.7,24.7c0,0,0.9-0.6,1-0.6c0,0-0.3,0.6-0.3,0.8c0,0,0.7-1.2,2.2-2.1c0,0-1.4,0.8-1.8,1.1
				C82.5,24,81.7,24.7,81.7,24.7z"/>
			<path class="st109" d="M82.9,25.2l0.5-0.3c-0.1,0.1-0.1,0.5-0.1,0.5c0.9-1.5,2.7-2,2.7-2s-1.5,0.5-2.1,1
				C83.6,24.5,82.9,25.2,82.9,25.2z"/>
			<path class="st109" d="M84.6,26c0,0,0.5-0.5,0.7-0.5L85,26.3c0.1-0.3,0.2-1,1.8-1.9c0,0-0.7,0.4-1.2,0.7
				C84.9,25.5,84.6,26,84.6,26z"/>
			<path class="st109" d="M85.9,26.9c0,0,0.3-0.2,0.5-0.2l-0.1,0.5c0.1-0.4,0.8-1.1,2.3-2c0,0-1.4,0.8-1.8,1.1
				C86.5,26.3,85.9,26.9,85.9,26.9z"/>
			<path class="st109" d="M80.7,24.4c0.2-0.1,0.6-0.4,0.6-0.4c-0.2,0.2-0.3,0.5-0.3,0.5c0.1-0.4,1.5-1.4,3.6-2.3c0,0-1.5,0.6-2,0.8
				C81.8,23.4,80.7,24.4,80.7,24.4z"/>
			<path class="st109" d="M86.7,27.4l0.9-0.5c-0.6,0.5-0.6,0.8-0.6,0.8c0.1-0.4,1.2-1.3,3.6-2.1c0,0-1.8,0.4-2.2,0.7
				C87.6,26.7,86.7,27.4,86.7,27.4z"/>
		</g>
		<g>
			<path class="st109" d="M94.2,49.2c0.6-0.3,0.8-0.4,0.8-0.4c-0.4,0.1-0.8-0.1-0.8-0.1c0.4,0.1,1.4-0.2,2.9-1.3c0,0-1.3,1-1.7,1.3
				C94.8,49,94.2,49.2,94.2,49.2z"/>
			<path class="st109" d="M94.8,48.1l0-0.2c1.2-0.3,1.9-0.9,1.9-0.9s-0.5,0.4-1,0.6C94.9,48,94.8,48.1,94.8,48.1z"/>
			<path class="st109" d="M95.1,47.3L95.1,47.3c0.7-0.2,1.2-0.6,1.2-0.6S96,46.9,95.7,47C95.2,47.2,95.1,47.3,95.1,47.3z"/>
			<path class="st109" d="M95.5,45.9L95.5,45.9c0.7-0.2,1.2-0.6,1.2-0.6s-0.3,0.3-0.6,0.4C95.6,45.9,95.5,45.9,95.5,45.9z"/>
			<path class="st109" d="M95.8,43.1L95.8,43.1c0.7-0.3,1.2-0.6,1.2-0.6s-0.3,0.3-0.6,0.4C95.9,43.1,95.8,43.1,95.8,43.1z"/>
			<path class="st109" d="M93.5,50.2L93.5,50.2c0.8-0.1,1.8-0.6,1.8-0.6s-0.9,0.4-1.2,0.5C93.6,50.2,93.5,50.2,93.5,50.2z"/>
			<path class="st109" d="M93.9,49.8L93.9,49.8c0.8-0.2,1.3-0.5,1.3-0.5s-0.3,0.2-0.7,0.3C94,49.8,93.9,49.8,93.9,49.8z"/>
			<path class="st109" d="M95.2,38.5L95.2,38.5c0.7-0.4,1-0.8,1-0.8s-0.3,0.3-0.5,0.5C95.2,38.5,95.2,38.5,95.2,38.5z"/>
			<path class="st109" d="M95.5,41.3L95.5,41.3c0.7-0.3,1.1-0.7,1.1-0.7s-0.3,0.3-0.6,0.4C95.6,41.3,95.5,41.3,95.5,41.3z"/>
			<path class="st109" d="M94.9,37.9L94.9,37.9c0.7-0.4,1.1-0.8,1.1-0.8s-0.3,0.3-0.5,0.5C95,37.9,94.9,37.9,94.9,37.9z"/>
			<path class="st109" d="M95.6,45.3c0,0,0.5-0.3,0.5-0.4c0,0-0.4,0-0.5,0c0,0,0.6,0,1.2-0.5c0,0-0.3,0.3-0.6,0.5
				C96.2,45,95.6,45.3,95.6,45.3z"/>
			<path class="st109" d="M95.7,44.1l0.4-0.3c-0.1,0-0.5,0-0.5,0c1.7-0.3,2.9-1.8,2.9-1.8s-1,1.2-1.7,1.6
				C96.6,43.6,95.7,44.1,95.7,44.1z"/>
			<path class="st109" d="M95.7,42.6c0,0,0.6-0.3,0.7-0.6l-0.9,0.1c0.3,0,1,0.1,2.3-1.1c0,0-0.6,0.6-1,0.9
				C96.2,42.4,95.7,42.6,95.7,42.6z"/>
			<path class="st109" d="M95.4,40.6c0,0,0.8-0.5,0.9-0.6l-1,0.2c0.1,0,1-0.1,2.4-1.3c0,0-0.6,0.8-1.4,1.3
				C95.7,40.5,95.4,40.6,95.4,40.6z"/>
			<path class="st109" d="M95.3,46.6c0.2-0.1,0.6-0.4,0.6-0.4c-0.3,0.1-0.6,0.1-0.6,0.1c0.5,0,1.9-0.9,2.1-1.2c0,0-0.4,0.4-0.9,0.8
				C95.9,46.4,95.3,46.6,95.3,46.6z"/>
			<path class="st109" d="M95.2,39.7l0.8-0.6c-0.7,0.3-1,0.2-1,0.2c0.4,0.1,2.1-1,3.1-2.7c0,0-0.9,1.4-1.2,1.8
				C96,39.3,95.2,39.7,95.2,39.7z"/>
		</g>
		<g>
			<path class="st109" d="M94.6,36.5L94.6,36.5c0.6-0.4,0.9-0.8,0.9-0.8S95.2,36,95,36.2C94.6,36.5,94.6,36.5,94.6,36.5z"/>
			<path class="st109" d="M92.9,34.2L92.9,34.2c0.6-0.4,0.9-0.8,0.9-0.8s-0.2,0.3-0.4,0.5C93,34.2,92.9,34.2,92.9,34.2z"/>
			<path class="st109" d="M89.7,30L89.7,30c0.6-0.4,0.9-0.8,0.9-0.8s-0.2,0.3-0.4,0.5C89.7,29.9,89.7,30,89.7,30z"/>
			<path class="st109" d="M91.8,32.4L91.8,32.4c0.6-0.4,0.8-0.8,0.8-0.8s-0.2,0.3-0.4,0.5C91.8,32.4,91.8,32.4,91.8,32.4z"/>
			<path class="st109" d="M93.9,36c0,0,0.7-0.7,0.7-0.8c0,0-0.6,0.2-0.8,0.2c0,0,1.2-0.4,2.2-1.7c0,0-0.9,1.1-1.2,1.5
				C94.6,35.4,93.9,36,93.9,36z"/>
			<path class="st109" d="M93.2,34.8l0.2-0.2c-0.1,0-0.3,0-0.3,0c1-0.3,1.7-1.2,1.7-1.2s-0.5,0.8-1,1C93.7,34.5,93.2,34.8,93.2,34.8
				z"/>
			<path class="st109" d="M92.4,33.2c0,0,0.4-0.4,0.5-0.6l-0.7,0.2c0.3-0.1,0.9-0.1,1.8-1.5c0,0-0.4,0.6-0.7,1
				C92.8,32.9,92.4,33.2,92.4,33.2z"/>
			<path class="st109" d="M91.4,32.1c0,0,0.2-0.3,0.3-0.4l-0.4,0c0.4,0,1.1-0.5,2.1-1.7c0,0-0.9,1.1-1.3,1.5
				C92,31.6,91.4,32.1,91.4,32.1z"/>
			<path class="st109" d="M94.4,37.3c0.2-0.1,0.4-0.4,0.4-0.4c-0.3,0.1-0.5,0.2-0.5,0.2c0.3,0,1.6-1,2.8-2.7c0,0-0.8,1.2-1.2,1.6
				C95.5,36.6,94.4,37.3,94.4,37.3z"/>
			<path class="st109" d="M90.6,31.2l0.4-0.6c-0.4,0.2-0.6,0.3-0.6,0.3c0.5-0.3,1.2-0.7,1.6-1.3c0,0-0.5,0.7-0.7,0.9
				C90.9,31,90.6,31.2,90.6,31.2z"/>
		</g>
		<path class="st93" d="M71.9,85.3c0,0-0.1,0.8-2.5,2.9c0,0,0.8,0.1,1.1,0.2c0.4,0.2,0.7,1.5,0.8,1.5c0.2-0.1-0.7-1.4-0.2-1.7
			c0.4-0.3,1.1-1.1,1.2-1.3C72.4,86.5,71.9,85.3,71.9,85.3z"/>
		<path class="st93" d="M61.6,87.8c0,0-1.2,0.3-3.9,0.7c-0.1,0,1.6,0.1,2.3,0.2c0.7,0.1,0.7,1.3,0.7,1.3c0,0.8,0.2,0.6,0.2,0.6
			c0.3-0.3-0.6-1.5,0.9-1.7L61.6,87.8z"/>
		<path d="M57.5,97.9c-1.7,0-4.7-0.1-5.1-0.1c0,0-2.5-0.1-2.9-0.5c-0.4-0.3-0.8-0.8-0.8-1.5c0-0.7,0.1-1.4,0.6-1.6
			c0.3-0.1,0.7-0.3,0.8-0.4c0-0.2,0.1-0.9,0.4-1.1c0.3-0.2,1.3-0.8,1.5-0.9c0.1-0.1,0.5-0.7,0.9-1.1c0.4-0.4,1.3-0.9,1.4-1
			c0.1-0.2,0.5-1.2,0.9-1.3c0.7-0.2,1.5-0.1,2.3-0.1c0.3,0,0.6,0.1,0.9,0.1c0.9,0,1.6,0.2,1.7,0.3c0.5,0.2,0.5,1,0.5,1.5
			c0,0.1,0,0.3,0,0.3c1.2-0.1,1.2-1.5,1.2-1.6l0-0.1l0.1,0c0.1,0,1.1,0.1,1.3,0.5c0.2,0.5,0.2,1.4,0.2,1.5c0,0.3,0.2,0.8,0.3,1.1
			c0,0.1,0.1,0.2,0.1,0.2c0,0,0,0.1,0.1,0.2c0.1,0.2,0.3,0.5,0.3,1c0.1,0.6,0,1.1-0.2,1.4c-0.2,0.3-2.4,2.1-2.9,2.3
			c-0.4,0.2-1.8,0.7-2.5,0.7C58.5,97.9,58.1,97.9,57.5,97.9z M56.3,88.6c-0.4,0-0.7,0-1,0.1c-0.3,0.1-0.6,0.8-0.8,1.2l0,0l0,0
			c0,0-1,0.6-1.4,1c-0.4,0.4-0.9,1-0.9,1l0,0c0,0-1.2,0.7-1.5,0.9c-0.2,0.2-0.3,0.8-0.3,1l0,0.1l0,0c0,0-0.5,0.2-0.9,0.4
			c-0.3,0.1-0.4,0.8-0.4,1.4c0,0.6,0.4,1.1,0.7,1.3c0.3,0.2,1.9,0.4,2.8,0.5c0.6,0,5.6,0.1,6.2,0.1c0.6-0.1,1.9-0.5,2.5-0.7
			c0.5-0.2,2.7-2,2.8-2.2c0.2-0.3,0.2-0.7,0.2-1.3c0-0.4-0.2-0.7-0.3-0.9c0-0.1-0.1-0.2-0.1-0.2c0,0,0-0.1-0.1-0.2
			c-0.1-0.3-0.4-0.8-0.3-1.1c0-0.3,0-1-0.2-1.4c-0.1-0.2-0.6-0.3-1-0.4c0,0.4-0.2,1.6-1.5,1.6c-0.1,0-0.1-0.1-0.2-0.5
			c0-0.5-0.1-1.2-0.4-1.4c-0.1,0-0.8-0.2-1.7-0.2c-0.3,0-0.6,0-0.9-0.1C57.1,88.6,56.7,88.6,56.3,88.6z"/>
		<g>
			<path class="st5" d="M72,85.2c0,0,0.3,0,0.5,0.1c0.4,0.3,1,1.1,1.6,1.4c1,0.5,1.4,1.6,1.4,1.6s0.1-0.1,0.7,0
				c1.1,0.2,1.3,3.2,0.8,4.7c-0.5,1.5-1.3,2.8-2,3.5c-0.7,0.7-0.9,1.1-1.8,1.4c-0.9,0.4-1.9,0.4-4.1,0.4c-1.3,0-4.7,0-5.9-0.2
				c-0.6-0.1-0.8-0.6-0.9-1.2c-0.2-1.3,0.9-3.1,1.2-3.4c0.3-0.3,1.9-2.8,2.5-3.2c0.1-0.1,0.1-1.2,0.3-1.4c0.2-0.2,2.8-1,4-0.6
				c0.5,0.2,0.8,1.7,1,1.6c0.6-0.2,1.2-1.5,1.3-2C72.7,87.2,72,85.2,72,85.2z"/>
			<path class="st91" d="M69.1,92.4c-0.2-0.2-0.4,0.1-1,0.1c-0.2,0-2.3,0-2.6,0s-1.3,0-1.3,0l-0.5,0.6c0.9,0.3,3.4,0.1,3.8,0
				c0.4-0.1,1.1-0.2,1.3-0.4C69.1,92.6,69.2,92.5,69.1,92.4z"/>
			<path class="st90" d="M65.6,90.7c0,0,3.4-0.3,4.2-0.2c2.1,0.4,1.9,0.2,2.3-0.4c0.4-0.5,0.8-1.1,1.2-1.7c0.2-0.3-0.3-1.3-0.3-1.3
				s2.1,1.2,2.4,2.7c0,0.2,0.1-0.4,0.1-0.5c0-0.4-0.2-0.8-0.2-1c-0.1-0.8-2.2-2.1-3-2.9c-0.2-0.1-0.3,0-0.3,0s0.6,1.9,0.4,2.6
				c-0.2,0.7-0.5,1.8-1.3,2.1c-0.3,0.1-0.4-1.5-1-1.6c-1.2-0.3-3.7,0.5-3.9,0.6c-0.2,0.1-0.2,0.8-0.4,1.3
				C65.8,90.6,65.6,90.7,65.6,90.7z"/>
			<path class="st90" d="M66.6,96.4c0,0,1.9,0,2.3,0c2.5-0.3,4-1.4,4.3-1.7c0,0-1,0.5-3.1,0.4c-1.4-0.1-5.6,0.2-6.7,0.2
				c-0.3,0-0.6-0.4-0.6-0.4s-0.5,0.9-0.1,1.3c0.3,0.3,0.9,0.1,1.7,0.2C65,96.4,66.6,96.4,66.6,96.4z"/>
			<path class="st90" d="M77.2,90.9c0,0-0.1-1.5-0.5-2.2c-0.4-0.7-1.2-0.4-1.2-0.4l0.2,0.8c0.3-0.1-0.4,3.3-0.6,3.8
				c-0.5,1.4-0.8,1.8-0.8,1.8c1-0.7,1.7-3.2,1.7-3.3C76.6,89,77.2,90.9,77.2,90.9z"/>
			<g>
				<path d="M66.9,96.5c-2.1,0-4.2-0.1-4.4-0.2c-0.3-0.2-0.1-0.8-0.1-0.8c0,0,0,0.5,0.2,0.6c0.3,0.1,7.5,0.3,8.9,0
					c1.8-0.4,2-0.6,3-1.9c1.2-1.5,1.8-5.5,1.8-5.5l0,1c0,0.2-0.4,3.1-1.6,4.6c-1,1.3-1.3,1.6-3.1,2C71,96.5,68.9,96.5,66.9,96.5z"/>
			</g>
			<g>
				<path d="M74.6,93.1c-0.5,1-1,1.6-1,1.6c1.2-1.6,2.1-4.9,2-5.3c0-0.5-0.1-0.9-0.1-0.9c0,0,0.3,0.5,0.3,1.1
					C75.8,90.1,74.8,92.6,74.6,93.1z"/>
			</g>
			<g>
				<path d="M63.2,95.3c-0.2,0-0.4-0.1-0.4-0.1c-0.1-0.2-0.2-0.4-0.1-0.5c0,0,0,0.2,0.3,0.4c0.1,0,0.5,0,0.9,0c0.5,0,2.1,0,2.6,0
					c1,0,5.7-0.3,5.7-0.4c0,0-1.7,0.2-2.2,0.2c-0.2,0-3.7,0.3-4.6,0.2c-0.5,0-1,0-1.5,0C63.6,95.3,63.4,95.3,63.2,95.3z"/>
			</g>
			<g>
				<path d="M67.2,93c-0.5,0-1.3-0.2-1.7-0.2c-0.1,0-0.3-0.1-0.3-0.1c-0.1,0-0.6,0-0.7,0l-0.5,0l0.4-0.1c0.1,0,1.5-0.5,1.9-0.5
					c0.1,0,1.3-0.2,1.9,0c0.6,0.2,0.7,0.5,0.7,0.6c0,0.2-1.6,0.4-1.6,0.4C67.3,93,67.3,93,67.2,93z M65,92.5c0.1,0,0.3,0,0.5,0.1
					c0.5,0.1,1.4,0.3,1.9,0.2c0.6-0.1,1.2-0.2,1.4-0.3c0.1-0.1-0.1-0.3-0.5-0.4C68.1,92,67.3,92,66.9,92C66,92.1,65.5,92.3,65,92.5z
					"/>
			</g>
			<path d="M65.6,90.8c0.3-0.2,0.5-0.3,0.9-0.3c0.4,0,1.4-0.1,2.1,0c0.4,0,1.7,0.1,2.1,0.3c-0.4-0.1-2-0.1-2.6-0.1
				c-0.4,0-1,0.1-1.3,0.1C66.3,90.6,65.9,90.6,65.6,90.8z"/>
			<path d="M69.2,98.5c-0.1,0-0.1,0-0.2,0c-1.2,0-4.7,0-5.9-0.2c-0.7-0.1-0.9-0.7-1-1.3c-0.2-1.3,0.9-3.2,1.2-3.5
				c0.1-0.1,0.3-0.4,0.6-0.8c0.6-0.9,1.5-2.1,2-2.4c0-0.1,0.1-0.3,0.1-0.5c0.1-0.5,0.1-0.7,0.2-0.8c0.2-0.3,2.9-1.1,4.1-0.6
				c0.3,0.1,0.5,0.6,0.7,1.1c0.1,0.2,0.2,0.4,0.3,0.5c0.5-0.2,1.1-1.4,1.2-2c0.1-0.7-0.6-2.5-0.6-2.5l0-0.1c0,0,0.3-0.6,0.8,0
				c0.2,0.2,0.5,0.8,1.4,1.3c0.8,0.5,1.3,1.3,1.4,1.5c0.1,0,0.3,0,0.7,0c0.3,0.1,0.5,0.2,0.6,0.6c0.6,1,0.6,3.2,0.2,4.3
				c-0.5,1.4-1.2,2.8-2,3.6c-0.1,0.1-0.2,0.2-0.3,0.3c-0.5,0.5-0.8,0.8-1.5,1.2C72.4,98.4,71.4,98.5,69.2,98.5z M69.4,88.4
				c-1.3,0-2.9,0.5-3.1,0.7c-0.1,0.1-0.1,0.5-0.1,0.7c-0.1,0.5-0.1,0.6-0.2,0.7c-0.4,0.2-1.3,1.5-1.9,2.4c-0.3,0.4-0.5,0.7-0.6,0.8
				c-0.3,0.2-1.4,2.1-1.2,3.3c0.1,0.5,0.3,1.1,0.8,1.2c1.2,0.2,4.7,0.2,5.9,0.2c2.3,0,3.3-0.1,4.1-0.4c0.7-0.3,1-0.6,1.5-1.1
				c0.1-0.1,0.2-0.2,0.3-0.3c0.8-0.8,1.5-2.1,2-3.5c0.4-1.2,0.3-3.2-0.2-4.1c-0.2-0.3-0.3-0.4-0.5-0.5c-0.5-0.1-0.6,0-0.6,0
				l-0.1,0.2l-0.1-0.2c0,0-0.5-1-1.4-1.6c-0.5-0.3-0.9-0.5-1.4-1.1c-0.1-0.1-0.3-0.3-0.3-0.3c0,0.1,0,0.4,0.1,0.6
				c0.2,0.7,0.4,1.4,0.3,1.8c-0.1,0.6-0.8,2.1-1.4,2.3c-0.2,0.1-0.3-0.2-0.5-0.6c-0.2-0.4-0.4-0.9-0.6-1
				C70,88.4,69.7,88.4,69.4,88.4z"/>
		</g>
		<g>
			<path class="st87" d="M71.6,85.5c-0.3,0.4-1,1.6-2.6,2.7c-1.6,1.2-3.5,1.3-3.9,1.3c-0.4,0-1.1-0.3-1.4-0.8
				c-0.4-0.5-0.9-1.3-0.8-1.7c0.1-0.3,1.3-0.7,1.3-0.7c2.5-0.9,3.4-1.1,4-1.7c0.9-0.8,1.3-1.6,2.1-2.7c0.1-0.1,0.7-0.3,0.9,0.3
				C71.7,83.6,71.9,85.1,71.6,85.5z"/>
			<path d="M65.1,89.8c-0.5,0-1.2-0.3-1.6-0.9l0,0c-0.4-0.6-0.9-1.3-0.8-1.8c0.1-0.3,0.8-0.6,1.5-0.8c0.5-0.2,1-0.4,1.4-0.5
				c1.4-0.5,2.1-0.7,2.6-1.2c0.7-0.6,1.1-1.2,1.5-1.9c0.2-0.2,0.3-0.5,0.5-0.8c0.1-0.1,0.4-0.2,0.7-0.2c0.2,0,0.4,0.1,0.6,0.6
				c0.4,1.3,0.7,2.9,0.3,3.4c-0.1,0.1-0.1,0.2-0.2,0.3c-0.4,0.5-1.1,1.5-2.5,2.5C67.2,89.8,65.1,89.8,65.1,89.8z M70.7,82
				c-0.1,0-0.2,0-0.2,0.1c-0.2,0.3-0.3,0.5-0.5,0.8c-0.5,0.7-0.9,1.4-1.6,2c-0.6,0.5-1.2,0.7-2.7,1.2c-0.4,0.1-0.9,0.3-1.4,0.5
				c-0.6,0.2-1.2,0.5-1.2,0.6c-0.1,0.3,0.4,1.1,0.7,1.5l0,0c0.3,0.5,0.9,0.7,1.3,0.7c0.6,0,2.3-0.2,3.8-1.3c1.3-0.9,2-1.9,2.4-2.4
				c0.1-0.1,0.1-0.2,0.2-0.3c0.2-0.2,0.2-1.2-0.4-3.1c0-0.2-0.1-0.3-0.2-0.3C70.8,82,70.8,82,70.7,82z"/>
		</g>
		<g>
			<path class="st92" d="M69.7,87.5c0,0-0.1-0.6-0.3-1.5c-0.1-0.9-0.5-1.5-0.5-1.6l0.3-0.3c0,0,0.5,1,0.6,1.9
				c0.1,0.9,0.2,1.4,0.2,1.4L69.7,87.5z"/>
		</g>
	</g>
</g>
</svg>
