<?xml version="1.0" encoding="utf-8"?>
<!-- Generator: Adobe Illustrator 22.0.1, SVG Export Plug-In . SVG Version: 6.00 Build 0)  -->
<svg version="1.1" id="Слой_1" xmlns="http://www.w3.org/2000/svg" xmlns:xlink="http://www.w3.org/1999/xlink" x="0px" y="0px"
	 viewBox="0 0 130 100" style="enable-background:new 0 0 130 100;" xml:space="preserve">
<style type="text/css">
	.st0{fill:#A91C8A;}
</style>
<g>
	<g>
		<g>
			<path class="st0" d="M43.4,57.2c0.1-0.2,0.2-0.3,0.3-0.5c0.1-0.2,0.2-0.3,0.3-0.5c0.1-0.2,0.1-0.3,0.1-0.4c0-0.2,0-0.4-0.1-0.5
				c0-0.2-0.2-0.2-0.4-0.2s-0.4,0.1-0.6,0.3c-0.2,0.2-0.3,0.4-0.4,0.6c-0.2,0.4-0.6,0.9-1,1.5c-0.4,0.6-0.9,1.2-1.4,1.8
				c-0.5,0.6-1.1,1.1-1.6,1.5c-0.6,0.4-1.1,0.7-1.5,0.7c-0.3,0-0.5-0.1-0.7-0.4c-0.2-0.3-0.3-0.6-0.4-0.9c-0.1-0.4-0.1-0.7-0.1-1.1
				c0-0.4,0-0.6,0-0.8c0-1.1,0.1-2.1,0.3-3.1c0.1-0.3,0.2-0.6,0.3-0.9c0.1-0.3,0.2-0.7,0.4-1c0.1-0.3,0.2-0.7,0.3-1
				c0.1-0.3,0.1-0.6,0.1-0.8c0-0.5-0.3-0.8-0.8-0.8c-0.8,0-1.3,0.2-1.7,0.7c-0.4,0.4-0.7,1-0.9,1.6c-0.2,0.6-0.4,1.3-0.5,2.1
				c-0.1,0.4-0.1,0.8-0.2,1.1c-0.1,0.2-0.2,0.3-0.3,0.5c-0.3,0.5-0.6,1-1,1.4c-0.3,0.5-0.7,0.9-1.1,1.2c-0.4,0.3-0.9,0.5-1.4,0.5
				c-0.4,0-0.6-0.2-0.8-0.5c-0.2-0.4-0.4-0.8-0.5-1.2c-0.1-0.5-0.2-1-0.2-1.4c0-0.5-0.1-0.9-0.1-1.1c0-1.6,0.1-3.2,0.2-4.8
				c0.2-1.6,0.4-3.1,0.6-4.7c0.1-0.5,0.2-1.1,0.2-1.6c0.1-0.5,0.1-1,0.1-1.6c0-0.3,0-0.6-0.1-1c-0.1-0.3-0.3-0.5-0.7-0.5
				c-0.3,0-0.6,0.1-0.8,0.2c-0.2,0.1-0.4,0.2-0.5,0.4c-0.1,0.2-0.2,0.4-0.3,0.7c-0.1,0.2-0.1,0.5-0.2,0.8c0,0.3-0.1,0.5-0.1,0.7
				c-0.1,0.6-0.4,1.2-0.7,1.8c-0.3,0.6-0.6,1.2-0.8,1.8c-0.6,1.3-1.2,2.6-1.8,3.8c-0.6,1.2-1.2,2.5-1.9,3.8
				c-0.4,0.8-0.9,1.7-1.3,2.5c-0.4,0.8-0.9,1.7-1.4,2.5c-0.1,0.1-0.2,0.2-0.3,0.4c-0.1,0.2-0.2,0.3-0.4,0.5
				c-0.1,0.2-0.3,0.3-0.4,0.4c-0.1,0.1-0.3,0.2-0.4,0.2c-0.2,0-0.3-0.2-0.4-0.7c-0.1-0.4-0.1-0.9-0.2-1.5c0-0.6,0-1.1,0-1.6
				c0-0.5,0-0.8,0-1c0-2.3,0-4.7,0.1-6.9c0.1-2.3,0.1-4.6,0.1-6.9c0-0.2,0-0.6,0-1c0-0.5,0-1-0.1-1.4c0-0.5-0.1-0.9-0.2-1.4
				c-0.1-0.4-0.3-0.7-0.5-0.8c-0.3-0.1-0.6-0.2-1-0.2c-0.2,0-0.4,0-0.7,0.1c-0.3,0.1-0.6,0.2-0.9,0.4c-0.3,0.2-0.5,0.3-0.7,0.5
				c-0.2,0.2-0.3,0.4-0.3,0.6c0,0.1,0,0.2,0,0.2c0.2,0.5,0.3,0.9,0.3,1.4c0,0.5,0.1,1,0.1,1.5c0,0.7-0.1,1.8-0.3,3.1
				c-0.2,1.3-0.5,2.8-0.9,4.4c-0.4,1.6-0.9,3.2-1.4,4.8c-0.6,1.6-1.2,3.1-1.9,4.5c-0.7,1.3-1.5,2.4-2.3,3.3
				c-0.8,0.8-1.7,1.3-2.7,1.3c-0.3,0-0.5,0-0.8-0.1c-0.2-0.1-0.5-0.1-0.8-0.1c-0.2,0-0.3,0.1-0.5,0.2c-0.1,0.1-0.2,0.3-0.2,0.5
				c0,0.2,0.1,0.4,0.2,0.5c0.1,0.1,0.2,0.2,0.4,0.3c0.2,0.1,0.3,0.1,0.5,0.1c0.2,0,0.4,0,0.5,0c1,0,1.9-0.2,2.7-0.7
				c0.8-0.5,1.5-1.1,2.2-1.8c0.7-0.8,1.3-1.6,1.8-2.6c0.5-1,1-2,1.4-3c0.4-1,0.8-2,1.1-3c0.3-1,0.6-1.8,0.8-2.6c0,0,0-0.1,0.1-0.2
				c0-0.1,0.1-0.1,0.1-0.1c0,0,0.1,0,0.1,0.1c0,0.1,0,0.2,0,0.2c0,0.8,0,1.8,0,2.8c0,1,0.1,2.1,0.1,3.1c0.1,1.1,0.2,2.1,0.4,3.1
				c0.2,1,0.4,1.9,0.7,2.6c0.2,0.4,0.4,0.8,0.7,1.1c0.3,0.3,0.7,0.5,1.2,0.5c0.6,0,1.3-0.3,1.9-1c0.7-0.7,1.4-1.5,2-2.5
				s1.3-2.1,2-3.2c0.6-1.2,1.2-2.2,1.7-3.2c0.5-1,0.9-1.8,1.3-2.5c0.4-0.7,0.6-1,0.7-1.1c0,0,0,0.1,0,0.1c0,0.4,0,1,0,1.6
				c0,0.6,0.1,1.3,0.1,2.1c0.1,0.7,0.2,1.5,0.3,2.2c0.2,0.8,0.4,1.4,0.6,2c0.3,0.6,0.6,1.1,1,1.5c0.4,0.4,0.9,0.6,1.5,0.6
				c0.6,0,1.1-0.2,1.7-0.6c0.6-0.4,1.2-0.9,1.7-1.5c0.3-0.3,0.6-0.7,0.9-1.1c0,0.1,0,0.2,0,0.3c0.1,0.7,0.2,1.3,0.5,2
				c0.2,0.6,0.6,1.1,1,1.6c0.4,0.4,1,0.7,1.7,0.7c0.6,0,1.3-0.2,1.9-0.6c0.7-0.4,1.3-0.9,1.9-1.5c0.6-0.6,1.2-1.2,1.7-1.8
				c0.5-0.6,0.9-1.2,1.3-1.7C43.2,57.5,43.3,57.4,43.4,57.2z"/>
		</g>
		<g>
			<path class="st0" d="M36.8,48.4c0.5,0,0.9-0.2,1.2-0.6c0.3-0.4,0.5-0.8,0.5-1.3c0-0.4-0.1-0.7-0.3-0.9c-0.2-0.3-0.5-0.4-0.9-0.4
				c-0.5,0-0.9,0.2-1.2,0.6c-0.3,0.4-0.5,0.8-0.5,1.3c0,0.4,0.1,0.7,0.3,0.9C36.1,48.3,36.4,48.4,36.8,48.4z"/>
		</g>
		<g>
			<path class="st0" d="M66.2,48.4c0.5,0,0.9-0.2,1.2-0.6c0.3-0.4,0.5-0.8,0.5-1.3c0-0.4-0.1-0.7-0.3-0.9c-0.2-0.3-0.5-0.4-0.9-0.4
				c-0.5,0-0.9,0.2-1.2,0.6c-0.3,0.4-0.5,0.8-0.5,1.3c0,0.4,0.1,0.7,0.3,0.9C65.5,48.3,65.8,48.4,66.2,48.4z"/>
		</g>
		<g>
			<path class="st0" d="M101.2,50.7c-0.2-0.5-0.6-0.9-1-1.2c-0.4-0.3-1-0.5-1.6-0.5c-1.1,0-2,0.3-2.8,1c-0.8,0.6-1.5,1.4-2.1,2.4
				c-0.6,0.9-1,1.9-1.3,3c-0.1,0.5-0.2,1-0.3,1.4c-0.2,0.1-0.4,0.3-0.6,0.6c-0.3,0.5-0.8,1.1-1.2,1.7c-0.5,0.6-1.1,1.1-1.7,1.7
				c-0.7,0.5-1.5,0.8-2.4,0.8c-0.7,0-1.4-0.1-2.1-0.3c-0.7-0.2-1.3-0.4-2-0.6c-0.7-0.2-1.3-0.4-2-0.6c-0.7-0.2-1.4-0.3-2.1-0.3
				c0.2-0.6,0.5-1.5,0.7-2.8c0.2-1.3,0.4-2.8,0.7-4.5c0.2-1.7,0.5-3.4,0.8-5.2s0.6-3.4,1-4.9c0.4-1.5,0.8-2.7,1.2-3.7
				c0.4-1,1-1.4,1.5-1.4c0.6,0,1.1,0.2,1.3,0.7c0.2,0.5,0.4,1,0.5,1.6c0.1,0.6,0.2,1.1,0.3,1.6c0.1,0.5,0.3,0.7,0.6,0.7
				c0.3,0,0.5-0.1,0.6-0.2c0.1-0.1,0.1-0.3,0.1-0.6c0-0.5-0.1-1.1-0.2-1.8c-0.1-0.7-0.3-1.3-0.7-1.8c-0.3-0.6-0.7-1-1.1-1.4
				c-0.5-0.4-1-0.6-1.7-0.6c-0.6,0-1.1,0.2-1.6,0.5c-0.5,0.3-1,0.7-1.4,1.1c-0.8,0.8-1.5,2-2,3.3c-0.5,1.4-0.9,2.9-1.2,4.5
				c-0.3,1.6-0.6,3.2-0.7,4.9c-0.2,1.7-0.4,3.2-0.6,4.6c-0.2,1.4-0.4,2.7-0.7,3.7c-0.3,1-0.7,1.7-1.2,2c-0.2,0.1-0.4,0.2-0.7,0.3
				c-0.3,0.1-0.5,0.1-0.8,0.2c-0.2,0.1-0.5,0.2-0.6,0.4c-0.2,0.2-0.2,0.4-0.2,0.8c0,0.2,0,0.4,0.1,0.6c0.1,0.2,0.2,0.4,0.4,0.6
				c0.1,0.2,0.3,0.3,0.5,0.5c0.2,0.1,0.4,0.2,0.5,0.2c0.1,0,0.3,0,0.5-0.1c0.7-0.3,1.4-0.6,2.2-0.9c0.7-0.3,1.5-0.4,2.3-0.4
				c0.7,0,1.4,0.1,2,0.2c0.7,0.1,1.3,0.2,2,0.4c0.7,0.1,1.3,0.2,2,0.4c0.7,0.1,1.3,0.2,2,0.2c0.7,0,1.4-0.2,2-0.5
				c0.6-0.3,1.2-0.7,1.8-1.2c0.6-0.5,1-1,1.5-1.6c0.2-0.2,0.3-0.4,0.4-0.6c0,0.2,0.1,0.5,0.1,0.7c0.1,0.6,0.3,1.1,0.6,1.5
				c0.3,0.4,0.6,0.8,1,1.1c0.4,0.3,1,0.4,1.6,0.4c0.5,0,1-0.1,1.4-0.3c0.5-0.2,0.9-0.4,1.3-0.7c0.7-0.4,1.3-1,1.7-1.6
				c0.5-0.6,0.9-1.3,1.2-2c0.3-0.7,0.5-1.5,0.7-2.3c0.1-0.8,0.2-1.6,0.2-2.3c0-0.5-0.1-1.1-0.2-1.7
				C101.7,51.7,101.5,51.2,101.2,50.7z M100.3,56.3c-0.1,0.6-0.2,1.1-0.4,1.7c-0.2,0.5-0.5,1.1-0.8,1.5c-0.3,0.5-0.7,0.9-1.1,1.2
				c-0.2,0.2-0.5,0.3-0.8,0.5c-0.3,0.1-0.6,0.2-0.9,0.2c-0.4,0-0.6-0.1-0.9-0.3c-0.2-0.2-0.4-0.4-0.5-0.7c-0.1-0.3-0.2-0.6-0.3-0.9
				c0-0.3-0.1-0.7-0.1-0.9c0-0.5,0.1-1.2,0.3-2c0.2-0.8,0.4-1.6,0.8-2.3c0.3-0.8,0.8-1.4,1.3-1.9c0.5-0.5,1.1-0.8,1.7-0.8
				c0.4,0,0.7,0.1,0.9,0.3c0.2,0.2,0.4,0.5,0.6,0.8c0.1,0.3,0.2,0.7,0.3,1c0,0.4,0.1,0.7,0.1,1C100.4,55.1,100.4,55.7,100.3,56.3z"
				/>
		</g>
		<g>
			<path class="st0" d="M129.1,59.8c-0.2-0.3-0.5-0.5-0.7-0.7c-0.7-0.5-1.4-0.9-2.1-1.3c-0.7-0.4-1.4-0.8-2.2-1.2
				c-0.4-0.3-0.9-0.5-1.3-0.7c-0.4-0.2-0.9-0.4-1.4-0.6c1.1-1.1,2.3-2.1,3.4-3.2c1.1-1.1,2.3-2.1,3.5-3.1c0.2-0.2,0.4-0.4,0.6-0.6
				c0.2-0.2,0.3-0.5,0.3-0.7c0-0.2-0.1-0.4-0.2-0.5c-0.2-0.2-0.3-0.3-0.5-0.3c-0.2,0-0.5,0.1-0.7,0.3c-0.2,0.2-0.4,0.4-0.6,0.5
				c-1.1,1-2.2,2-3.2,3c-1.1,1-2.1,2-3.2,3.1c0.2-2.1,0.5-4.1,0.9-6.1c0.4-2,0.8-4,1.2-6c0.2-0.9,0.4-1.8,0.7-2.7
				c0.2-0.9,0.5-1.8,0.8-2.7c0.1-0.3,0.2-0.5,0.2-0.8c0.1-0.3,0.1-0.5,0.1-0.8c0-0.6-0.3-1-0.9-1c-0.8,0-1.5,0.3-1.9,0.8
				c-0.4,0.5-0.8,1.2-1,1.9c-0.5,1.5-0.9,3.1-1.1,4.7c-0.3,1.6-0.6,3.2-0.8,4.8c-0.3,2.1-0.6,4.3-0.8,6.4c-0.2,2.1-0.3,4.3-0.3,6.4
				c0,0.5,0,1,0,1.5c0,0.6,0,1.1,0,1.7c0,0.6,0.1,1.1,0.1,1.7c0,0.6,0.1,1.1,0.2,1.5c0,0.3,0.1,0.5,0.3,0.7c0.1,0.2,0.3,0.3,0.7,0.3
				c0.2,0,0.4-0.1,0.5-0.2c0.1-0.1,0.2-0.3,0.3-0.4c0.1-0.2,0.1-0.3,0.1-0.5c0-0.2,0-0.4,0-0.5c0-0.5,0-1.1,0.1-1.6
				c0-0.5,0.1-1,0.1-1.6c0-0.7,0.1-1.3,0.2-2c0.1-0.7,0.1-1.3,0.3-2c0.4,0.1,0.7,0.3,1,0.4c0.3,0.2,0.7,0.3,1,0.5
				c0.8,0.4,1.6,0.8,2.4,1.2c0.8,0.4,1.6,0.9,2.4,1.2c0.2,0.1,0.4,0.2,0.5,0.2c0.2,0.1,0.4,0.1,0.5,0.1c0.2,0,0.3,0,0.5-0.1
				c0.2-0.1,0.2-0.2,0.2-0.4C129.4,60.4,129.3,60.1,129.1,59.8z"/>
		</g>
		<g>
			<path class="st0" d="M114.2,50.7c-0.2-0.5-0.6-0.9-1-1.2c-0.4-0.3-1-0.5-1.6-0.5c-1.1,0-2,0.3-2.8,1c-0.8,0.6-1.5,1.4-2.1,2.4
				c-0.6,0.9-1,1.9-1.3,3c-0.3,1.1-0.4,2.1-0.4,3c0,0.5,0.1,1.1,0.2,1.6c0.1,0.6,0.3,1.1,0.6,1.5c0.3,0.4,0.6,0.8,1,1.1
				c0.4,0.3,1,0.4,1.6,0.4c0.5,0,1-0.1,1.4-0.3c0.5-0.2,0.9-0.4,1.3-0.7c0.7-0.4,1.3-1,1.7-1.6c0.5-0.6,0.9-1.3,1.2-2
				c0.3-0.7,0.5-1.5,0.7-2.3c0.1-0.8,0.2-1.6,0.2-2.3c0-0.5-0.1-1.1-0.2-1.7C114.6,51.7,114.4,51.2,114.2,50.7z M113.3,56.3
				c-0.1,0.6-0.2,1.1-0.4,1.7c-0.2,0.5-0.5,1.1-0.8,1.5c-0.3,0.5-0.7,0.9-1.1,1.2c-0.2,0.2-0.5,0.3-0.8,0.5
				c-0.3,0.1-0.6,0.2-0.9,0.2c-0.4,0-0.6-0.1-0.9-0.3c-0.2-0.2-0.4-0.4-0.5-0.7c-0.1-0.3-0.2-0.6-0.3-0.9c0-0.3-0.1-0.7-0.1-0.9
				c0-0.5,0.1-1.2,0.3-2c0.2-0.8,0.4-1.6,0.8-2.3c0.3-0.8,0.8-1.4,1.3-1.9c0.5-0.5,1.1-0.8,1.7-0.8c0.4,0,0.7,0.1,0.9,0.3
				c0.2,0.2,0.4,0.5,0.6,0.8c0.1,0.3,0.2,0.7,0.3,1c0,0.4,0.1,0.7,0.1,1C113.4,55.1,113.4,55.7,113.3,56.3z"/>
		</g>
		<g>
			<path class="st0" d="M72.8,57.2c0.1-0.2,0.2-0.3,0.3-0.5c0.1-0.2,0.2-0.3,0.3-0.5c0.1-0.2,0.1-0.3,0.1-0.4c0-0.2,0-0.4-0.1-0.5
				c0-0.2-0.2-0.2-0.4-0.2c-0.2,0-0.4,0.1-0.6,0.3c-0.2,0.2-0.3,0.4-0.4,0.6c-0.2,0.4-0.6,0.9-1,1.5c-0.4,0.6-0.9,1.2-1.4,1.8
				c-0.5,0.6-1.1,1.1-1.6,1.5c-0.6,0.4-1.1,0.7-1.5,0.7c-0.3,0-0.5-0.1-0.7-0.4c-0.2-0.3-0.3-0.6-0.4-0.9c-0.1-0.4-0.1-0.7-0.1-1.1
				c0-0.4,0-0.6,0-0.8c0-1.1,0.1-2.1,0.3-3.1c0.1-0.3,0.2-0.6,0.3-0.9c0.1-0.3,0.2-0.7,0.4-1c0.1-0.3,0.2-0.7,0.3-1
				c0.1-0.3,0.1-0.6,0.1-0.8c0-0.5-0.3-0.8-0.8-0.8c-0.8,0-1.3,0.2-1.7,0.7c-0.4,0.4-0.7,1-0.9,1.6c-0.2,0.6-0.4,1.3-0.5,2.1
				c-0.1,0.8-0.2,1.5-0.2,2.1c-0.1,0.1-0.2,0.2-0.3,0.4c-0.3,0.5-0.8,1.1-1.2,1.7c-0.5,0.6-1.1,1.1-1.7,1.7
				c-0.7,0.5-1.5,0.8-2.4,0.8c-0.7,0-1.4-0.1-2.1-0.3c-0.7-0.2-1.3-0.4-2-0.6c-0.7-0.2-1.3-0.4-2-0.6c-0.7-0.2-1.4-0.3-2.1-0.3
				c0.2-0.6,0.5-1.5,0.7-2.8c0.2-1.3,0.4-2.8,0.7-4.5c0.2-1.7,0.5-3.4,0.8-5.2c0.3-1.8,0.6-3.4,1-4.9c0.4-1.5,0.8-2.7,1.2-3.7
				c0.4-1,1-1.4,1.5-1.4c0.6,0,1.1,0.2,1.3,0.7c0.2,0.5,0.4,1,0.5,1.6c0.1,0.6,0.2,1.1,0.3,1.6c0.1,0.5,0.3,0.7,0.6,0.7
				c0.3,0,0.5-0.1,0.6-0.2c0.1-0.1,0.1-0.3,0.1-0.6c0-0.5-0.1-1.1-0.2-1.8c-0.1-0.7-0.3-1.3-0.7-1.8c-0.3-0.6-0.7-1-1.1-1.4
				c-0.5-0.4-1-0.6-1.7-0.6c-0.6,0-1.1,0.2-1.6,0.5c-0.5,0.3-1,0.7-1.4,1.1c-0.8,0.8-1.5,2-2,3.3c-0.5,1.4-0.9,2.9-1.2,4.5
				c-0.3,1.6-0.6,3.2-0.7,4.9c-0.2,1.7-0.4,3.2-0.6,4.6c-0.2,1.4-0.4,2.7-0.7,3.7c-0.3,1-0.7,1.7-1.2,2c-0.2,0.1-0.4,0.2-0.7,0.3
				c-0.3,0.1-0.5,0.1-0.8,0.2c-0.2,0.1-0.5,0.2-0.6,0.4c-0.2,0.2-0.2,0.4-0.2,0.8c0,0.2,0,0.4,0.1,0.6c0.1,0.2,0.2,0.4,0.4,0.6
				c0.1,0.2,0.3,0.3,0.5,0.5c0.2,0.1,0.4,0.2,0.5,0.2c0.1,0,0.3,0,0.5-0.1c0.7-0.3,1.4-0.6,2.2-0.9c0.7-0.3,1.5-0.4,2.3-0.4
				c0.7,0,1.4,0.1,2,0.2c0.7,0.1,1.3,0.2,2,0.4c0.7,0.1,1.3,0.2,2,0.4c0.7,0.1,1.3,0.2,2,0.2c0.7,0,1.4-0.2,2-0.5
				c0.6-0.3,1.2-0.7,1.8-1.2c0.6-0.5,1-1,1.5-1.6c0.1-0.2,0.3-0.4,0.4-0.6c0.1,0.6,0.2,1.1,0.4,1.6c0.2,0.6,0.6,1.1,1,1.6
				c0.4,0.4,1,0.7,1.7,0.7c0.6,0,1.3-0.2,1.9-0.6c0.7-0.4,1.3-0.9,1.9-1.5c0.6-0.6,1.2-1.2,1.7-1.8c0.5-0.6,0.9-1.2,1.3-1.7
				C72.6,57.5,72.7,57.4,72.8,57.2z"/>
		</g>
	</g>
</g>
</svg>
