<?xml version="1.0" encoding="utf-8"?>
<!-- Generator: Adobe Illustrator 22.0.1, SVG Export Plug-In . SVG Version: 6.00 Build 0)  -->
<svg version="1.1" id="Слой_1" xmlns="http://www.w3.org/2000/svg" xmlns:xlink="http://www.w3.org/1999/xlink" x="0px" y="0px"
	 viewBox="0 0 130 100" style="enable-background:new 0 0 130 100;" xml:space="preserve">
<style type="text/css">
	.st0{fill-rule:evenodd;clip-rule:evenodd;fill:#EE7B12;}
	.st1{fill:#EE7B12;}
</style>
<g>
	<g>
		<path class="st0" d="M41,30.5c0-0.9,0.3-1.8,0.7-2.5c0.4-0.6,0.6-0.8,1.1-1.2c0.3-0.2,0.4-0.3,0.7-0.5c3.3-1.7,6.9,0.8,6.9,3.8
			c0,2.3-0.8,3.7-2.8,4.6c-2.1,1-4.7,0.2-6-1.9C41.2,32.2,41,31.4,41,30.5 M8.1,48.6c-4.5,0-6.3-5.2-3.4-8c1.4-1.4,3.7-1.8,5.5-0.9
			c1.2,0.6,1.7,1.2,2.2,2.3C13.8,45,11.5,48.6,8.1,48.6z M0.6,44.3v-0.9c0.1-0.9,0.3-1.8,0.6-2.6C1.5,40.1,2,39.5,2.5,39
			c3.3-3.2,6.9-3.1,10-5.2c0.4-0.3,1.2-1.1,1.5-1.5c0.7-0.9,2.3-2.2,3.3-2.9c0.6-0.5,1.2-0.8,1.8-1.2c4.1-2.5,9.5-3.8,14.3-3.1
			c0.8,0.1,1.5,0.3,2.2,0.3c0.7,0,1.9-0.3,2.5-0.5c3.5-1,4.1-1.9,8.2-1.9c2.1,0,4,1.1,5.3,2.7c2.6,3.3,1.6,6.7,1.1,10.7
			c-0.7,4.8,0.9,4.7,1,7.3c-0.4-0.1-0.6-0.3-1-0.5c-0.3-0.1-0.7-0.2-1.2-0.2c-4,0-4.2,1.8-5.3,2.5c0-1.6-1.1-4.1-1.9-5.4
			c-1.1-1.7-1.1-1.5-2-2.6c-1.3-1.7-4.1-3.2-6-4c-0.9-0.3-1.9-0.6-3-0.7c-0.6-0.1-1-0.1-1.7-0.1c-2.4-0.3-5.6,0.6-7.4,1.5
			c-6.6,3.3-10.2,10.7-8.2,18c0.3,1,0.6,1.8,1.1,2.7l1.4,2.4c3.5,4.9,11.4,7.8,17.7,5.3c2.1-0.8,5-2.4,6.5-4.3
			c0.9-1.2,1.7-2.3,2.4-3.7c0.2-0.4,0.2-0.7,0.5-0.9c0.1,0.5,0.7,0.9,1.2,1.1c1.7,0.8,3.9,0.2,5.2-0.8c0.9-0.7,1.2-1.4,1.7-2.2
			c0,0,0,0,0.1-0.1c0,0,0,0,0.1-0.1c0,0.9-0.7,3.3-1,4.1c-1.9,5.2-3.8,6.3-4.6,7.8c-1.9,3.4-0.5,8.9-5.1,12.2
			c-2.4,1.7-5.8,1.7-8.3,0.2c-0.5-0.3-0.9-0.5-1.3-0.8c-0.4-0.3-0.8-0.6-1.2-0.9l-2.5-2c-2.6-2-3.4-1.5-6.3-2.4
			c-2-0.7-4-1.6-5.7-2.9c-1.8-1.3-3.1-2.4-4.6-4.1c-1.1-1.2-1.8-2.6-2.7-3.9c-0.3-0.6-0.4-0.8-0.7-1.4c-0.4-1-0.8-2.1-1.4-2.9
			c-1.3-1.6-3.2-2.7-4.6-4.1c-0.4-0.4-0.6-0.6-1-1.1c-0.3-0.4-0.7-0.8-0.9-1.2C1,46.8,0.7,45.6,0.6,44.3z M33.9,69.5
			c0-1.4,0.5-2.4,1.4-3.3c2.8-2.8,8.1-1.4,8.1,3.6c0,1.2-0.6,2.3-1.3,2.9C39.1,75.7,33.9,73.8,33.9,69.5z"/>
		<path class="st0" d="M48.9,52.5c1.8,0,2-1.5,2.4-3.1c0.4-1.8,1-3.9-1-3.9c-0.5,0-0.7,0.1-1,0.3c-1,0.7-1.5,3.9-1.6,5.1
			C47.6,51.7,48.1,52.5,48.9,52.5"/>
		<g>
			<path class="st1" d="M32.9,50.2c-0.9,0.3-1.8,0.4-2.8,0.5c-0.1,0-0.1,0-0.2,0c-0.1,0-0.1,0-0.2,0c-0.1,0-0.2,0-0.3,0
				c-0.1,0-0.2,0-0.2,0c-0.1,0-0.2,0-0.3,0c-0.1,0-0.2,0-0.3,0l-0.6,3.9h-3.1l1.7-11.8h3.8c0.2,0,0.3,0,0.5,0c0.2,0,0.3,0,0.5,0
				c0.7,0,1.3,0.1,1.9,0.3c0.6,0.2,1,0.6,1.4,1.1c0.2,0.3,0.3,0.6,0.4,0.9c0.1,0.3,0.1,0.7,0.1,1c0,0.1,0,0.2,0,0.3
				c0,0.1,0,0.2,0,0.3c0,0.2-0.1,0.5-0.1,0.7c-0.1,0.2-0.1,0.5-0.2,0.7C34.4,49.2,33.7,49.9,32.9,50.2z M29.3,48c0.1,0,0.1,0,0.2,0
				c0.1,0,0.1,0,0.2,0c0.1,0,0.1,0,0.2,0c0,0,0.1,0,0.1,0c0,0,0.1,0,0.1,0c0.5,0,0.9-0.1,1.3-0.3c0.4-0.2,0.7-0.5,0.8-1.1l0-0.1
				c0.1-0.5-0.1-0.9-0.4-1c-0.3-0.2-0.7-0.3-1.2-0.3c-0.1,0-0.1,0-0.2,0c-0.1,0-0.2,0-0.2,0h-0.6L29.1,48C29.1,48,29.2,48,29.3,48z"
				/>
			<path class="st1" d="M38,54.5h-3.1l1.7-11.8h4.4c0.2,0,0.3,0,0.5,0c0.2,0,0.3,0,0.5,0c0.4,0,0.8,0.1,1.3,0.2
				c0.4,0.1,0.8,0.3,1.1,0.5c0.4,0.3,0.7,0.7,0.8,1.2c0.2,0.5,0.2,1,0.2,1.5l0,0.1c-0.1,0.9-0.5,1.7-1,2.2c-0.5,0.6-1.3,0.9-2.2,1.1
				l2.6,4.8h-3.7l-2.1-4.6L38,54.5z M39,48.2c0,0,0.1,0,0.1,0c0,0,0.1,0,0.1,0c0,0,0.1,0,0.1,0c0,0,0,0,0,0c0,0,0,0,0,0
				c0.5,0,1.1-0.1,1.6-0.3c0.5-0.2,0.8-0.6,0.9-1.3l0-0.1c0.1-0.6-0.1-1-0.5-1.2c-0.4-0.2-0.9-0.3-1.4-0.3c-0.1,0-0.1,0-0.2,0
				c-0.1,0-0.1,0-0.2,0h-0.1L39,48.2C38.9,48.2,38.9,48.2,39,48.2z"/>
		</g>
		<g>
			<path class="st1" d="M61,51.1h2.2c-0.2,0.7-0.5,1.4-0.9,2.1c-0.4,0.6-0.9,1.2-1.6,1.6c-0.7,0.4-1.5,0.6-2.4,0.6
				c-0.8,0-1.6-0.2-2.2-0.5c-0.6-0.4-1.1-0.9-1.4-1.6c-0.3-0.7-0.5-1.5-0.5-2.4c0-0.8,0.1-1.7,0.3-2.5c0.2-0.8,0.5-1.6,1-2.3
				c0.4-0.7,1-1.3,1.7-1.7c0.7-0.4,1.6-0.7,2.5-0.7c1.5,0,2.5,0.3,3.1,1c0.6,0.7,0.9,1.5,0.9,2.4c0,0.2,0,0.4-0.1,0.7h-2.2
				c0-0.6-0.1-1-0.4-1.4c-0.2-0.4-0.7-0.5-1.4-0.5c-0.7,0-1.3,0.3-1.8,0.8c-0.5,0.5-0.8,1.2-1,1.9c-0.2,0.7-0.3,1.4-0.3,2
				c0,0.8,0.1,1.4,0.4,2c0.3,0.5,0.7,0.8,1.4,0.8C59.7,53.1,60.5,52.4,61,51.1z"/>
			<path class="st1" d="M67.6,46h-2.9l0.4-2.2h8L72.7,46h-2.9L68.2,55H66L67.6,46z"/>
			<path class="st1" d="M76.7,43.9H79L80.5,55h-2.3L78,52.9h-3.5l-1,2.1h-2.4L76.7,43.9z M75.3,51h2.5l-0.5-4.2L75.3,51z"/>
			<path class="st1" d="M83.5,43.9h4.8c0.9,0,1.6,0.2,1.9,0.6c0.4,0.4,0.6,1,0.6,1.7c0,0.6-0.2,1.2-0.5,1.8
				c-0.3,0.5-0.9,0.9-1.6,1.1l0,0c1.1,0.3,1.6,1.1,1.6,2.3c0,0.7-0.1,1.2-0.4,1.8c-0.3,0.5-0.8,1-1.4,1.3C87.8,54.8,87,55,86,55
				h-4.6L83.5,43.9z M84.6,50.3l-0.5,2.5h2.4c0.4,0,0.7-0.1,1-0.3c0.3-0.2,0.5-0.5,0.5-1c0-0.4-0.1-0.7-0.3-0.9
				c-0.2-0.2-0.5-0.3-1-0.3H84.6z M85.4,46l-0.4,2.2H87c0.3,0,0.6-0.1,0.9-0.3c0.3-0.2,0.4-0.5,0.4-1c0-0.3-0.1-0.5-0.3-0.7
				c-0.2-0.2-0.4-0.2-0.7-0.2H85.4z"/>
			<path class="st1" d="M96.1,55.3c-0.8,0-1.5-0.1-2.1-0.4c-0.6-0.3-1-0.7-1.3-1.1c-0.3-0.5-0.5-1-0.7-1.5c-0.1-0.5-0.2-1-0.2-1.5
				c0-1.2,0.2-2.3,0.7-3.4c0.4-1.1,1.1-2,2-2.7c0.9-0.7,1.9-1.1,3.2-1.1c0.8,0,1.6,0.2,2.2,0.5c0.6,0.3,1.1,0.8,1.5,1.5
				c0.4,0.7,0.5,1.5,0.5,2.5c0,1.2-0.2,2.3-0.6,3.4c-0.4,1.1-1.1,2-1.9,2.7C98.4,54.9,97.3,55.3,96.1,55.3z M96.3,53.1
				c0.6,0,1.1-0.2,1.5-0.5c0.4-0.3,0.7-0.7,1-1.2c0.2-0.5,0.4-1,0.5-1.5c0.1-0.5,0.1-1,0.1-1.4c0-1.9-0.7-2.8-2-2.8
				c-0.8,0-1.4,0.3-1.8,0.8c-0.5,0.5-0.8,1.2-1,1.9c-0.2,0.7-0.3,1.4-0.3,2c0,0.9,0.2,1.6,0.5,2.1C95.1,52.9,95.6,53.1,96.3,53.1z"
				/>
			<path class="st1" d="M103.9,43.9h2.3l-0.5,2.7c-0.1,0.3-0.1,0.6-0.1,0.8c0,0.4,0.1,0.7,0.4,0.8c0.3,0.1,0.7,0.2,1.2,0.2
				c0.5,0,1,0,1.4-0.1l0.8-4.4h2.3l-2,11.1h-2.3l0.8-4.5c-0.6,0.1-1.2,0.1-2,0.1c-0.6,0-1.1-0.1-1.5-0.2c-0.4-0.1-0.8-0.4-1.1-0.7
				c-0.3-0.4-0.4-0.9-0.4-1.6c0-0.3,0-0.7,0.1-1.2L103.9,43.9z"/>
			<path class="st1" d="M115,48.6l3.9-4.7h2.7l-4.6,5.3l2.8,5.8h-2.6l-2.4-5.5h0l-1,5.5h-2.3l2-11.1h2.3L115,48.6L115,48.6z"/>
			<path class="st1" d="M125.3,43.9h2.3l1.6,11.1h-2.3l-0.2-2.1h-3.5l-1,2.1h-2.4L125.3,43.9z M123.9,51h2.5l-0.5-4.2L123.9,51z"/>
		</g>
		<g>
			<path class="st1" d="M56.6,57.2l0.7,2.3h0l1.3-2.3h1.1l-2.1,3.5c-0.4,0.7-0.6,0.9-0.8,1c-0.3,0.3-0.7,0.4-1.1,0.4
				c-0.2,0-0.4,0-0.6-0.1l0.1-0.9c0.2,0.1,0.4,0.1,0.4,0.1c0.2,0,0.4,0,0.5-0.2c0.1-0.1,0.2-0.2,0.2-0.3l-1.2-3.6H56.6z"/>
			<path class="st1" d="M61.6,58.4c0.3,0,0.6,0,0.9,0.2c0.2,0.1,0.3,0.3,0.3,0.6c0,0.3-0.1,0.5-0.2,0.6c-0.2,0.2-0.4,0.2-0.4,0.2
				c0.2,0.1,0.3,0.2,0.4,0.3c0.1,0.2,0.2,0.3,0.2,0.5c0,0.3-0.2,0.7-0.6,0.9c-0.3,0.2-0.7,0.2-1,0.2h-1.9l0.6-3.6H61.6z M60.3,61.5
				H61c0.1,0,0.3,0,0.4-0.1c0.1-0.1,0.2-0.3,0.2-0.4c0-0.2-0.1-0.3-0.1-0.3c-0.1-0.1-0.3-0.1-0.4-0.1h-0.6L60.3,61.5z M60.6,59.9
				h0.5c0.2,0,0.3,0,0.5-0.1c0.1-0.1,0.2-0.2,0.2-0.4c0-0.1,0-0.2-0.1-0.3C61.5,59,61.4,59,61.3,59h-0.6L60.6,59.9z"/>
			<path class="st1" d="M64.3,60.4c0,0.1,0,0.1,0,0.2c0,0.2,0,0.3,0.1,0.5c0.1,0.2,0.3,0.3,0.6,0.3c0.2,0,0.4-0.1,0.6-0.2
				c0.1-0.1,0.2-0.2,0.2-0.4l0.9,0.2c-0.2,0.3-0.4,0.6-0.6,0.7c-0.3,0.2-0.7,0.3-1.2,0.3c-0.4,0-0.9-0.1-1.3-0.5
				c-0.3-0.3-0.4-0.7-0.4-1.2c0-0.6,0.3-1.2,0.6-1.5c0.5-0.5,1-0.5,1.4-0.5c0.5,0,0.9,0.2,1.1,0.4c0.4,0.4,0.5,0.9,0.5,1.3
				c0,0.1,0,0.3,0,0.4H64.3z M65.9,59.8c0,0,0-0.1,0-0.1c0-0.2-0.1-0.7-0.6-0.7c-0.5,0-0.8,0.4-0.8,0.8H65.9z"/>
			<path class="st1" d="M70.3,62.1h-1.1l0.5-2.9H69l-0.1,0.5c-0.2,1.1-0.4,1.7-0.9,2.1c-0.1,0.1-0.4,0.3-0.9,0.3c-0.1,0-0.2,0-0.3,0
				l0.1-0.8c0.4,0,0.6-0.3,0.7-0.4c0.1-0.2,0.2-0.4,0.2-0.7c0.2-0.7,0.2-1,0.2-1l0.1-0.7h2.7L70.3,62.1z"/>
			<path class="st1" d="M72.8,58.4l-0.3,1.7c0,0.2,0,0.3-0.1,0.4c0.1-0.1,0.2-0.2,0.2-0.3l1.2-1.5l0-0.3H75l-0.6,3.6h-1.1l0.3-1.7
				c0-0.1,0-0.1,0.1-0.4c-0.1,0.1-0.2,0.2-0.2,0.3l-1.2,1.4l0,0.3h-1.1l0.6-3.6H72.8z"/>
			<path class="st1" d="M78.5,62.1h-1.1l0.2-1.4c-0.2,0-0.4,0-0.7,0c-0.4,0-0.7,0-1-0.3c-0.2-0.2-0.2-0.4-0.2-0.6c0-0.1,0-0.3,0-0.4
				l0.1-0.9H77l-0.1,0.8c0,0.1,0,0.2,0,0.3c0,0.1,0,0.2,0.1,0.3c0.1,0.1,0.2,0.1,0.4,0.1c0.1,0,0.3,0,0.5,0l0.2-1.5h1.1L78.5,62.1z"
				/>
			<path class="st1" d="M80.5,60.4c0,0.1,0,0.1,0,0.2c0,0.2,0,0.3,0.1,0.5c0.1,0.2,0.3,0.3,0.6,0.3c0.2,0,0.4-0.1,0.6-0.2
				c0.1-0.1,0.2-0.2,0.2-0.4l0.9,0.2c-0.2,0.3-0.4,0.6-0.6,0.7c-0.3,0.2-0.7,0.3-1.2,0.3c-0.4,0-0.9-0.1-1.3-0.5
				c-0.3-0.3-0.4-0.7-0.4-1.2c0-0.6,0.3-1.2,0.6-1.5c0.5-0.5,1-0.5,1.4-0.5c0.5,0,0.9,0.2,1.1,0.4c0.4,0.4,0.5,0.9,0.5,1.3
				c0,0.1,0,0.3,0,0.4H80.5z M82,59.8c0,0,0-0.1,0-0.1c0-0.2-0.1-0.7-0.6-0.7c-0.5,0-0.8,0.4-0.8,0.8H82z"/>
			<path class="st1" d="M85.1,58.4l-0.2,1.4H86l0.2-1.4h1.1l-0.6,3.6h-1.1l0.2-1.5h-1.1l-0.2,1.5h-1.1l0.6-3.6H85.1z"/>
			<path class="st1" d="M89.2,58.4l-0.3,1.7c0,0.2,0,0.3-0.1,0.4c0.1-0.1,0.2-0.2,0.2-0.3l1.2-1.5l0-0.3h1.1l-0.6,3.6h-1.1l0.3-1.7
				c0-0.1,0-0.1,0.1-0.4c-0.1,0.1-0.2,0.2-0.2,0.3l-1.2,1.4l0,0.3h-1.1l0.6-3.6H89.2z"/>
			<path class="st1" d="M93,60.4c0,0.1,0,0.1,0,0.2c0,0.2,0,0.3,0.1,0.5c0.1,0.2,0.3,0.3,0.6,0.3c0.2,0,0.4-0.1,0.6-0.2
				c0.1-0.1,0.2-0.2,0.2-0.4l0.9,0.2c-0.2,0.3-0.4,0.6-0.6,0.7c-0.3,0.2-0.7,0.3-1.2,0.3c-0.4,0-0.9-0.1-1.3-0.5
				c-0.3-0.3-0.4-0.7-0.4-1.2c0-0.6,0.3-1.2,0.6-1.5c0.5-0.5,1-0.5,1.4-0.5c0.5,0,0.9,0.2,1.1,0.4c0.4,0.4,0.5,0.9,0.5,1.3
				c0,0.1,0,0.3,0,0.4H93z M94.6,59.8c0,0,0-0.1,0-0.1c0-0.2-0.1-0.7-0.6-0.7c-0.5,0-0.8,0.4-0.8,0.8H94.6z"/>
			<path class="st1" d="M99.2,58.4L99,59.8h0.2c0.1,0,0.2,0,0.4-0.1c0.2-0.1,0.3-0.4,0.4-0.7c0.1-0.2,0.2-0.5,0.5-0.5h0.9
				c-0.2,0.1-0.3,0.3-0.3,0.4c-0.1,0.2-0.2,0.3-0.3,0.5c-0.1,0.2-0.2,0.3-0.3,0.5c-0.1,0.1-0.2,0.2-0.4,0.3c0.3,0.1,0.4,0.2,0.5,0.5
				c0.1,0.2,0.1,0.3,0.1,0.5c0.1,0.4,0.1,0.5,0.1,0.6c0,0.1,0.1,0.3,0.2,0.4h-1c-0.2,0-0.2-0.1-0.3-0.5c0-0.2-0.1-0.3-0.1-0.4
				c0-0.1-0.1-0.3-0.2-0.4c-0.1-0.1-0.3-0.1-0.4-0.1h-0.3l-0.2,1.5h-1.1l0.6-3.6H99.2z"/>
			<path class="st1" d="M104.6,62.1h-1.1l0.5-2.9h-0.7l-0.1,0.5c-0.2,1.1-0.4,1.7-0.9,2.1c-0.1,0.1-0.4,0.3-0.9,0.3
				c-0.1,0-0.2,0-0.3,0l0.1-0.8c0.4,0,0.6-0.3,0.7-0.4c0.1-0.2,0.2-0.4,0.2-0.7c0.2-0.7,0.2-1,0.2-1l0.1-0.7h2.7L104.6,62.1z"/>
			<path class="st1" d="M107.1,58.4l-0.3,1.7c0,0.2,0,0.3-0.1,0.4c0.1-0.1,0.2-0.2,0.2-0.3l1.2-1.5l0-0.3h1.1l-0.6,3.6h-1.1l0.3-1.7
				c0-0.1,0-0.1,0.1-0.4c-0.1,0.1-0.2,0.2-0.2,0.3l-1.2,1.4l0,0.3h-1.1l0.6-3.6H107.1z"/>
			<path class="st1" d="M111.4,58.4l-0.1,0.6h0c0.2-0.4,0.6-0.7,1.1-0.7c0.3,0,0.6,0.1,0.8,0.3c0.3,0.3,0.4,0.7,0.4,1.1
				c0,0.6-0.1,1.2-0.5,1.7c-0.3,0.4-0.6,0.7-1.2,0.7c-0.2,0-0.4,0-0.6-0.2c-0.1-0.1-0.2-0.2-0.3-0.3h0l-0.3,1.6h-1.1l0.8-4.8H111.4z
				 M111.3,59.6c-0.1,0.3-0.2,0.9-0.2,1.1c0,0.1,0,0.4,0.2,0.5c0.1,0.1,0.2,0.2,0.4,0.2c0.4,0,0.6-0.4,0.7-0.7
				c0.1-0.3,0.2-0.7,0.2-1c0-0.1,0-0.3-0.2-0.5c-0.1-0.1-0.2-0.1-0.4-0.1C111.6,59.1,111.4,59.3,111.3,59.6z"/>
			<path class="st1" d="M115.1,60.4c0,0.1,0,0.1,0,0.2c0,0.2,0,0.3,0.1,0.5c0.1,0.2,0.3,0.3,0.6,0.3c0.2,0,0.4-0.1,0.6-0.2
				c0.1-0.1,0.2-0.2,0.2-0.4l0.9,0.2c-0.2,0.3-0.4,0.6-0.6,0.7c-0.3,0.2-0.7,0.3-1.2,0.3c-0.4,0-0.9-0.1-1.3-0.5
				c-0.3-0.3-0.4-0.7-0.4-1.2c0-0.6,0.3-1.2,0.6-1.5c0.5-0.5,1-0.5,1.4-0.5c0.5,0,0.9,0.2,1.1,0.4c0.4,0.4,0.5,0.9,0.5,1.3
				c0,0.1,0,0.3,0,0.4H115.1z M116.7,59.8c0,0,0-0.1,0-0.1c0-0.2-0.1-0.7-0.6-0.7c-0.5,0-0.8,0.4-0.8,0.8H116.7z"/>
			<path class="st1" d="M119.7,58.4l-0.2,1.4h1.1l0.2-1.4h1.1l-0.6,3.6h-1.1l0.2-1.5h-1.1l-0.2,1.5H118l0.6-3.6H119.7z"/>
			<path class="st1" d="M124.8,59.8c0-0.1,0-0.3-0.1-0.5c-0.1-0.2-0.3-0.3-0.5-0.3c-0.2,0-0.4,0.1-0.5,0.3c-0.2,0.3-0.3,1-0.3,1.4
				c0,0.1,0,0.3,0.1,0.5c0.1,0.2,0.3,0.2,0.5,0.2c0.5,0,0.7-0.5,0.7-0.7l0.8,0.2c-0.1,0.2-0.2,0.5-0.5,0.7c-0.3,0.3-0.7,0.5-1.2,0.5
				c-0.4,0-0.8-0.1-1.1-0.4c-0.3-0.2-0.5-0.6-0.5-1.3c0-0.8,0.3-1.3,0.4-1.4c0.3-0.4,0.7-0.8,1.5-0.8c0.4,0,0.7,0.1,1,0.3
				c0.2,0.1,0.5,0.5,0.5,1L124.8,59.8z"/>
			<path class="st1" d="M126.3,59.3c0.1-0.2,0.2-0.4,0.5-0.6c0.3-0.2,0.7-0.3,1.1-0.3c0.7,0,1,0.2,1.1,0.2c0.3,0.2,0.4,0.5,0.4,0.9
				c0,0.2,0,0.3-0.1,0.5l-0.1,0.5c-0.1,0.6-0.2,1-0.2,1.6h-1c0-0.3,0-0.5,0-0.6c-0.1,0.1-0.2,0.3-0.3,0.4c-0.2,0.1-0.4,0.3-0.8,0.3
				c-0.4,0-0.7-0.2-0.8-0.4c-0.1-0.2-0.2-0.4-0.2-0.7c0-0.2,0.1-0.6,0.5-0.9c0.4-0.2,0.9-0.4,1.8-0.4c0.1,0,0.1,0,0.2,0
				c0-0.1,0-0.2,0-0.3c0-0.1,0-0.2-0.1-0.3c-0.1-0.1-0.3-0.1-0.4-0.1c-0.2,0-0.3,0-0.4,0.1c-0.1,0.1-0.2,0.2-0.3,0.3L126.3,59.3z
				 M127.8,60.3c-0.4,0-0.6,0.1-0.7,0.2c-0.2,0.1-0.3,0.3-0.3,0.5c0,0.3,0.2,0.4,0.4,0.4c0.2,0,0.5-0.1,0.7-0.5
				c0.1-0.2,0.2-0.5,0.2-0.6C128.1,60.3,128,60.3,127.8,60.3z"/>
		</g>
	</g>
</g>
</svg>
