<?xml version="1.0" encoding="utf-8"?>
<!-- Generator: Adobe Illustrator 22.0.1, SVG Export Plug-In . SVG Version: 6.00 Build 0)  -->
<svg version="1.1" id="Слой_1" xmlns="http://www.w3.org/2000/svg" xmlns:xlink="http://www.w3.org/1999/xlink" x="0px" y="0px"
	 viewBox="0 0 130 100" style="enable-background:new 0 0 130 100;" xml:space="preserve">
<style type="text/css">
	.st0{fill:#D40000;}
	.st1{fill:#40A629;}
	.st2{fill:#FFFFFF;stroke:#D40000;stroke-width:0.25;stroke-miterlimit:10;}
</style>
<g>
	<g>
		<g>
			<path class="st0" d="M8.2,59.8c0,0.3,0,0.5-0.1,0.8c-0.1,0.3-0.2,0.6-0.3,0.8c-0.1,0.3-0.3,0.5-0.5,0.7s-0.4,0.4-0.6,0.5
				l-1.7,0.9c-0.3,0.2-0.6,0.2-0.9,0.2c-0.4,0-0.7-0.1-1.1-0.3c-0.3-0.2-0.6-0.5-0.8-0.8c-0.2-0.3-0.4-0.7-0.5-1.1
				c-0.1-0.4-0.2-0.8-0.2-1.1c0-0.3,0.1-0.5,0.2-0.7c0.1-0.2,0.3-0.4,0.5-0.5s0.4-0.3,0.7-0.4c0.2-0.1,0.5-0.2,0.7-0.3
				c0.2-0.1,0.3-0.1,0.5-0.2c0.1,0,0.3-0.1,0.5-0.1c0.4,0,0.7,0.2,0.9,0.5c0.2,0.3,0.3,0.7,0.3,1c0,0.4-0.1,0.7-0.3,1l-1.9,1
				c0.2-0.2,0.3-0.5,0.4-0.8c0.1-0.3,0.2-0.6,0.2-0.9c0-0.3-0.1-0.6-0.2-0.8C3.5,59,3.3,58.9,3,58.9c-0.2,0.2-0.3,0.4-0.3,0.6
				c-0.1,0.2-0.1,0.5-0.1,0.7c0,0.3,0,0.5,0.1,0.8c0.1,0.3,0.2,0.5,0.3,0.8l-0.1-0.1c0.2,0.4,0.6,0.7,1,0.9c0.4,0.2,0.9,0.3,1.3,0.3
				c0.2,0,0.3,0,0.3,0c0.3-0.3,0.5-0.6,0.6-1c0.2-0.4,0.2-0.8,0.2-1.2c0-0.7,0-1.5,0-2.2c0-0.7,0-1.4,0-2.2l0.7-0.4
				c0,0.3,0.1,0.7,0.2,1c0.1,0.3,0.3,0.6,0.4,0.9c0.1,0.3,0.3,0.6,0.4,0.9C8.1,59.1,8.2,59.4,8.2,59.8z M25.8,58.9
				c0,0.1,0,0.4,0,0.7c0,0.4,0,0.7-0.1,1.1c0,0.4-0.1,0.7-0.1,1.1c-0.1,0.3-0.2,0.5-0.3,0.6l-2,1.1c-0.1,0.1-0.2,0.1-0.4,0.1
				c-0.1,0-0.2,0-0.4,0c-0.2,0-0.4,0-0.7-0.1c-0.3,0-0.6-0.1-0.8-0.2c-0.3-0.1-0.5-0.2-0.8-0.3c-0.2-0.1-0.4-0.2-0.5-0.4
				c-0.2-0.3-0.4-0.5-0.6-0.8c-0.2-0.3-0.4-0.6-0.5-0.9c-0.4-0.7-0.8-1.6-1.1-2.6c-0.3-1-0.6-1.9-1-2.9c-0.4-0.9-0.9-1.7-1.4-2.5
				c-0.6-0.7-1.3-1.2-2.3-1.5c-0.3,0.1-0.6,0.1-1,0.2l-0.5,0.3c0.2,1.2,0.4,2.4,0.6,3.6c0.2,1.2,0.3,2.4,0.3,3.7c0,0.2,0,0.4,0,0.5
				c0,0.2-0.1,0.4-0.1,0.5l-3.8,2.1c0.1-0.2,0.1-0.4,0.1-0.7c0-0.2,0-0.4,0-0.7c0-0.4,0-0.8-0.1-1.2c0-0.4-0.1-0.8-0.2-1.2
				c-0.2-1.2-0.3-2.5-0.5-3.7c-0.2-1.2-0.3-2.5-0.5-3.7c-0.1-0.3-0.1-0.7-0.1-1c0-0.3,0-0.7,0-1c0-0.5,0-1,0.1-1.6
				c0-0.6,0.2-1.1,0.3-1.6c0.1-0.3,0.4-0.6,0.7-1c0.4-0.4,0.8-0.7,1.2-1.1c0.4-0.3,0.9-0.7,1.3-1c0.4-0.3,0.8-0.6,1-0.8
				c0.2-0.1,0.3-0.3,0.4-0.4c0.1-0.1,0.3-0.3,0.4-0.4c0.1-0.1,0.3-0.2,0.4-0.2c0.1-0.1,0.3-0.1,0.4-0.2c-0.5-0.1-0.9-0.1-1.4-0.1
				c-1,0-2,0.2-3,0.5c-0.7,0.6-1.4,1.2-2,1.9c-0.6,0.7-1.1,1.5-1.4,2.4c-0.2,0.5-0.4,1.1-0.6,1.7c-0.2,0.7-0.3,1.3-0.3,1.8
				c0,0.2,0,0.3,0,0.4c0,0.1,0.1,0.3,0.1,0.4v0c0.1,0.1,0.1,0.2,0.2,0.3c0.1,0.1,0.2,0.2,0.3,0.2c0.1,0,0.2,0,0.3-0.1
				c0.1-0.1,0.2-0.1,0.3-0.2l0.1,0.1c-0.3,0.2-0.7,0.4-1.1,0.7c-0.5,0.2-0.9,0.3-1.2,0.3c-0.3,0-0.5-0.1-0.8-0.4
				c-0.2-0.3-0.4-0.6-0.5-0.9c-0.1-0.3-0.2-0.7-0.3-1.1c-0.1-0.4-0.1-0.7-0.1-0.9c0-0.3,0-0.5,0.1-0.7c0.2-0.6,0.5-1.2,0.9-1.8
				c0.4-0.6,0.9-1.1,1.4-1.6c0.5-0.5,1-0.9,1.6-1.3c0.6-0.4,1.1-0.8,1.7-1.1c0.6-0.3,1.2-0.7,1.8-1c0.6-0.3,1.2-0.6,1.8-0.9
				s1.2-0.5,1.9-0.6c0.6-0.2,1.3-0.2,2.1-0.2c0.6,0,1.2,0.1,1.7,0.2c0.6,0.2,1,0.4,1.5,0.7c0.4,0.3,0.8,0.7,1,1.2
				c0.3,0.5,0.4,1.1,0.4,1.7c0,0.5-0.1,1.1-0.3,1.7c-0.2,0.6-0.5,1.2-0.9,1.8c-0.3,0.6-0.7,1.2-1.1,1.7c-0.4,0.5-0.8,1-1.2,1.4
				c0.6,0,1.1,0.2,1.6,0.5c0.5,0.3,0.9,0.8,1.2,1.4c0.4,0.6,0.7,1.2,1,1.9c0.3,0.7,0.6,1.4,0.8,2.1c0.3,0.7,0.5,1.4,0.7,2
				c0.2,0.6,0.5,1.1,0.7,1.5c0.2,0.3,0.3,0.5,0.5,0.8c0.2,0.3,0.4,0.5,0.5,0.8c0.1,0.2,0.1,0.4,0.1,0.6c0,0.2,0.1,0.3,0.3,0.5
				c0.1,0.1,0.3,0.2,0.4,0.3c0.2-0.3,0.3-0.7,0.5-1.2c0.2-0.4,0.2-0.9,0.2-1.2c0-0.1,0-0.1,0-0.2c0-0.1,0-0.1,0-0.2l-1.3,0.8
				c-0.1,0-0.3-0.1-0.4-0.3c-0.1-0.2-0.2-0.3-0.3-0.5c-0.1-0.2-0.2-0.4-0.2-0.6c-0.1-0.2-0.1-0.4-0.1-0.5s0.1-0.3,0.2-0.5
				c0.1-0.2,0.3-0.5,0.5-0.7c0.2-0.2,0.4-0.4,0.6-0.6c0.2-0.2,0.4-0.2,0.5-0.2c0.3,0,0.6,0.1,0.8,0.3c0.2,0.2,0.3,0.5,0.5,0.8
				c0.1,0.3,0.2,0.7,0.2,1C25.8,58.3,25.8,58.6,25.8,58.9z M16.6,45c0-1-0.3-1.8-0.9-2.5c-0.6-0.7-1.3-1.1-2.3-1.4
				c-0.5,0.5-0.9,1-1.3,1.4c-0.3,0.4-0.6,0.9-0.8,1.3c-0.2,0.4-0.3,0.9-0.4,1.5c-0.1,0.5-0.1,1.2-0.1,1.9s0.1,1.5,0.2,2.3
				c0.1,0.8,0.2,1.5,0.3,2.2c0.1-0.1,0.2-0.1,0.4-0.3s0.4-0.2,0.6-0.3c0.2-0.1,0.4-0.2,0.6-0.3c0.2-0.1,0.3-0.1,0.4-0.1l0.7-0.4
				c0.1-0.2,0.1-0.3,0.2-0.3c0.3-0.4,0.5-0.7,0.8-1.1c0.3-0.4,0.5-0.8,0.8-1.2c0.2-0.4,0.4-0.9,0.6-1.3C16.6,45.9,16.6,45.4,16.6,45
				z M23.2,41.7c0,0.3-0.1,0.6-0.2,1.1c-0.1,0.4-0.3,0.9-0.6,1.3c-0.2,0.4-0.5,0.9-0.7,1.2c-0.3,0.4-0.5,0.6-0.7,0.8
				c-0.3,0.2-0.6,0.4-0.9,0.5c-0.3,0.2-0.6,0.3-0.9,0.5c0.3-0.3,0.5-0.5,0.8-0.9c0.3-0.3,0.5-0.7,0.7-1.1c0.2-0.4,0.4-0.8,0.5-1.2
				c0.1-0.4,0.2-0.8,0.2-1.1c0-0.2,0-0.4-0.1-0.6c0-0.3-0.1-0.5-0.2-0.8c-0.1-0.3-0.1-0.5-0.2-0.8c-0.1-0.3-0.1-0.5-0.2-0.6l0.8-0.4
				l0.3,0.3l-0.1-0.1c0.1,0.2,0.2,0.3,0.4,0.4c0.2,0.1,0.3,0.1,0.5,0.2c0.2,0.1,0.3,0.2,0.5,0.4C23.1,41.1,23.2,41.4,23.2,41.7z"/>
			<path class="st0" d="M38.6,53.4c-0.2,0.2-0.3,0.4-0.5,0.5c-0.2,0.1-0.4,0.3-0.7,0.5c-0.3,0.2-0.7,0.4-1.4,0.8
				c-0.2,0.1-0.3,0.2-0.5,0.2c-0.2,0.1-0.4,0.1-0.6,0.2c0,0.5-0.1,0.9-0.2,1.2c-0.1,0.3-0.3,0.7-0.5,1.1c-0.1,0.3-0.3,0.6-0.4,0.9
				c-0.1,0.3-0.2,0.6-0.4,0.8c-0.1,0.3-0.3,0.5-0.5,0.7c-0.2,0.2-0.4,0.4-0.7,0.6l-2.5,1.4c-0.2,0.1-0.5,0.2-0.7,0.3
				c-0.3,0.1-0.5,0.1-0.8,0.1c-0.5,0-1-0.2-1.3-0.5c-0.4-0.3-0.7-0.7-0.9-1.2c-0.2-0.5-0.4-1-0.5-1.5c-0.1-0.5-0.1-1-0.1-1.4
				c0-0.7,0.1-1.5,0.3-2.2c0.2-0.7,0.4-1.4,0.7-2.1c0.1-0.3,0.3-0.7,0.6-1.1c0.3-0.4,0.6-0.8,0.9-1.2c0.3-0.4,0.7-0.8,1-1.1
				c0.3-0.3,0.7-0.6,1-0.8c0.1,0,0.2-0.1,0.3-0.2c0.1-0.1,0.3-0.2,0.4-0.3c0.1-0.1,0.3-0.2,0.4-0.3c0.1-0.1,0.2-0.2,0.2-0.2l0.7-0.4
				c0,0.2-0.1,0.3-0.1,0.3c0,0-0.1,0.1-0.3,0.2c-0.4,0.3-0.8,0.6-1.1,1.2c-0.3,0.5-0.6,1.1-0.9,1.7c-0.2,0.6-0.4,1.3-0.6,1.9
				C29,54.2,29,54.8,29,55.2c0,0.7,0.1,1.4,0.2,2.2c0.1,0.8,0.4,1.5,0.7,2.1c0.2,0.3,0.3,0.5,0.6,0.8c0.2,0.3,0.5,0.5,0.8,0.6
				c0.3-0.3,0.7-0.8,1-1.2c0.3-0.5,0.6-0.9,0.7-1.4l0.2-0.1c0.1-0.4,0.2-0.9,0.2-1.4c0.1-0.5,0.1-0.9,0.1-1.4
				c-0.5-0.2-0.9-0.5-1.2-0.9c-0.3-0.4-0.6-0.9-0.7-1.4c-0.2-0.5-0.3-1-0.3-1.6c-0.1-0.6-0.1-1.1-0.1-1.5c0-0.2,0-0.3,0-0.5
				c0-0.2,0.1-0.3,0.3-0.4l1.7-1c0,0,0.1,0,0.1-0.1c0.1,0,0.1,0,0.1,0c0.2,0,0.3,0.1,0.4,0.3c0.1,0.2,0.2,0.4,0.3,0.5
				c0.4,0.8,0.7,1.6,0.8,2.5c0.1,0.8,0.2,1.7,0.1,2.6c0.4,0.2,0.8,0.3,1.2,0.3c0.2,0,0.3,0,0.4,0l0.7-0.9l2-1.2
				C39,52.8,38.8,53.1,38.6,53.4z"/>
			<path class="st0" d="M60.7,56c-0.2,0.5-0.4,1.1-0.7,1.6c-0.1,0.2-0.2,0.5-0.4,0.7c-0.1,0.3-0.3,0.5-0.5,0.8
				c-0.2,0.3-0.3,0.5-0.5,0.8c-0.2,0.3-0.3,0.4-0.5,0.6c-0.1,0.1-0.3,0.2-0.6,0.4c-0.2,0.1-0.5,0.3-0.7,0.4
				c-0.3,0.1-0.5,0.3-0.8,0.4c-0.2,0.1-0.5,0.2-0.6,0.3c0,0-0.1,0.1-0.2,0c-0.1,0-0.2,0-0.2,0L55,61.9L55,62c0,0-0.1-0.1-0.3-0.3
				c-0.2-0.2-0.2-0.3-0.3-0.3c0-0.1-0.1-0.3-0.1-0.7c0-0.4-0.1-0.8-0.1-1.4c0-0.5-0.1-1.1-0.1-1.7c0-0.6-0.1-1.2-0.1-1.8
				c0-0.6-0.1-1.1-0.1-1.5c0-0.4,0-0.7,0-0.8c0-0.3,0-0.7,0-1c0-0.3,0-0.6,0-1c0-0.2,0-0.3,0-0.5c0-0.2,0-0.3-0.1-0.5
				c-0.3,0.3-0.6,0.6-0.9,1c-0.4,0.4-0.7,0.9-1.1,1.3c-0.4,0.5-0.7,0.9-1,1.4c-0.3,0.5-0.5,0.9-0.7,1.2c0,0.6,0.1,1.2,0.1,1.8
				c0,0.6,0,1.2,0.1,1.8c0,0.3,0.1,0.6,0.2,0.9c0.1,0.3,0.1,0.6,0.1,0.9l-3.2,1.7c0-0.3,0-0.7-0.1-1c-0.1-0.3-0.1-0.6-0.1-1
				c0-0.3-0.1-0.6-0.1-0.9c0-0.3,0-0.6,0-0.9c0-0.4,0-1-0.1-1.7c0-0.7-0.1-1.5-0.2-2.2c-0.1-0.8-0.2-1.5-0.2-2.2
				c-0.1-0.7-0.2-1.2-0.3-1.6c-0.5,0.7-1.1,1.4-1.7,2c-0.6,0.6-1.2,1.3-1.7,2v0.3c0,0.8,0,1.7,0.1,2.5c0,0.9,0.1,1.7,0.3,2.5l-3.2,2
				c-0.2-0.9-0.3-1.8-0.3-2.7c0-0.9-0.1-1.8-0.1-2.8c0-0.8,0-1.5,0.1-2.1c0-0.7,0.2-1.4,0.4-2.1c-0.2,0.2-0.4,0.4-0.7,0.6
				c-0.3,0.2-0.5,0.4-0.8,0.6c-0.3,0.2-0.5,0.4-0.7,0.6c-0.2,0.2-0.4,0.5-0.5,0.7l-0.8,0.4c0.2-0.5,0.5-0.9,0.8-1.2
				c0.3-0.3,0.6-0.7,0.9-1.1c0.2-0.3,0.3-0.5,0.5-0.8c0.1-0.3,0.3-0.6,0.4-0.9c0.1-0.3,0.3-0.6,0.5-0.9c0.2-0.3,0.4-0.5,0.7-0.7
				c0.2-0.1,0.4-0.3,0.6-0.4c0.2-0.2,0.3-0.3,0.5-0.6l1.6-1c-0.1,0.3-0.2,0.6-0.2,0.9c0,0.3-0.1,0.6-0.1,0.9c0,0.6,0,1.1,0.1,1.7
				c0,0.6,0,1.1,0,1.7c0.5-0.7,0.9-1.2,1.3-1.6c0.4-0.4,0.8-0.8,1.3-1.1c0.4-0.3,0.9-0.6,1.5-0.9c0.6-0.3,1.2-0.6,2-1.1
				c0.2,0.3,0.4,0.6,0.5,0.9c0.1,0.4,0.2,0.7,0.3,1.1c0.1,0.4,0.1,0.8,0.1,1.2c0,0.4,0,0.8,0.1,1.1c0.3-0.3,0.6-0.6,0.8-0.9
				c0.3-0.3,0.6-0.6,0.8-0.8c0.2-0.2,0.4-0.5,0.6-0.8c0.1-0.3,0.4-0.5,0.7-0.7l2.7-1.5c0.1-0.1,0.2-0.1,0.3-0.1
				c0.2,0,0.4,0.1,0.5,0.4c0.1,0.3,0.2,0.6,0.3,1c0,0.4,0.1,0.7,0.1,1.1c0,0.4,0,0.6,0,0.7c0,0.8,0.1,1.6,0.2,2.4
				c0.1,0.8,0.2,1.6,0.3,2.4c0,0.4,0.1,0.7,0.1,1.1c0,0.4,0,0.7,0,1.1c0,0.2,0,0.4,0,0.7c0,0.2,0.1,0.5,0.1,0.7
				c0.5-0.8,1-1.7,1.5-2.5c0.5-0.8,1-1.7,1.5-2.5l0.8-0.5C61.1,54.9,60.9,55.4,60.7,56z M57.6,52.8c0-0.6,0.1-1.1,0.2-1.6
				c0.1-0.5,0.2-1.1,0.2-1.6c0-0.2,0-0.3,0-0.5c0-0.2-0.1-0.3-0.2-0.4l0.1,0.1c-0.1-0.1-0.1-0.2-0.1-0.3c0-0.1-0.1-0.2-0.2-0.3
				l0.7-0.3c0.3,0.2,0.5,0.5,0.7,0.8c0.2,0.3,0.3,0.6,0.4,1c0.1,0.3,0.2,0.7,0.2,1.1c0,0.4,0.1,0.7,0.1,1L57.6,52.8z"/>
			<path class="st0" d="M73.4,57.7c-0.2,0.7-0.6,1.4-1,2.2c-0.1,0.2-0.2,0.5-0.3,0.7c-0.1,0.2-0.2,0.4-0.5,0.5l-2.5,1.5
				c-0.1,0.1-0.3,0.1-0.5,0.1c-0.4,0-0.7-0.2-0.9-0.5c-0.2-0.3-0.3-0.7-0.4-1.2c-0.1-0.4-0.1-0.9-0.2-1.3c0-0.5-0.1-0.8-0.1-1.1
				c-0.3,0.6-0.7,1.1-1.1,1.6c-0.4,0.4-0.8,0.8-1.2,1.1c-0.4,0.3-0.9,0.6-1.4,0.9c-0.5,0.3-1,0.6-1.6,1c-0.1,0.1-0.2,0.1-0.3,0.2
				c-0.1,0-0.2,0.1-0.3,0.1c-0.3,0-0.5-0.2-0.7-0.5c-0.2-0.3-0.3-0.6-0.3-0.8c0-0.3,0-0.5,0.1-0.8c0.1-0.3,0.2-0.5,0.3-0.7
				c0.4-1.1,1-1.9,1.9-2.6c0.8-0.7,1.7-1.3,2.6-1.9c0.3-0.2,0.7-0.4,1-0.6c0.3-0.2,0.6-0.4,1-0.6v-0.2c-0.3,0-0.7,0.1-1.1,0.2
				c-0.4,0.1-0.7,0.2-1,0.3c-0.4,0.4-0.9,0.8-1.3,1.2c-0.4,0.4-0.9,0.7-1.5,1.1l-0.1-0.1c0.2-0.2,0.4-0.4,0.6-0.6
				c0.2-0.3,0.3-0.5,0.6-0.7c0.2-0.2,0.5-0.4,0.8-0.6c0.3-0.2,0.7-0.4,1-0.6c0.3-0.2,0.7-0.4,1.1-0.5c0.4-0.1,0.7-0.2,1-0.3
				c0-0.2,0-0.4,0.1-0.7c0-0.2,0-0.4,0-0.7c0-0.3,0-0.7-0.1-1c-0.1-0.4-0.2-0.7-0.4-1c-0.2-0.3-0.4-0.6-0.7-0.8
				c-0.3-0.2-0.6-0.3-1-0.3c-0.1,0-0.2,0-0.4,0.1c-0.2,0.3-0.3,0.7-0.4,1.1c-0.1,0.4-0.4,0.7-0.7,0.9c-0.2,0.1-0.4,0.2-0.6,0.4
				c-0.2,0.1-0.5,0.3-0.7,0.4c-0.3,0.1-0.5,0.3-0.7,0.4c-0.2,0.1-0.4,0.2-0.6,0.2c0-0.2-0.1-0.3-0.1-0.3c0-0.4,0.1-0.8,0.4-1
				c0.3-0.2,0.6-0.5,0.9-0.7c0.3-0.3,0.7-0.5,1.1-0.8c0.4-0.3,0.9-0.6,1.4-0.8c0.5-0.2,1-0.4,1.5-0.6c0.5-0.2,1-0.2,1.4-0.2
				c0.5,0,1,0.2,1.3,0.5c0.4,0.3,0.7,0.7,0.9,1.2c0.2,0.5,0.4,1,0.5,1.5c0.1,0.5,0.2,1,0.2,1.4c0,0.3,0,0.6,0,0.9c0,0.3,0,0.6,0,0.9
				c0,0.9,0.1,1.7,0.3,2.6c0.1,0.8,0.2,1.7,0.2,2.5c0.5-0.7,1-1.4,1.5-2c0.5-0.7,0.9-1.4,1.1-2.3l0.8-0.5
				C73.8,56.2,73.6,57,73.4,57.7z M67,55.5c-0.4,0.1-0.9,0.3-1.3,0.6c-0.4,0.3-0.8,0.6-1.2,1c-0.4,0.4-0.7,0.8-1,1.2
				c-0.3,0.4-0.5,0.8-0.7,1.3c-0.1,0.2-0.2,0.5-0.3,0.7c-0.1,0.2-0.1,0.5-0.1,0.7c0,0.2,0.1,0.4,0.2,0.7c0.1,0.3,0.3,0.4,0.5,0.5
				c1-0.9,1.7-1.9,2.3-3.1C66,57.9,66.5,56.7,67,55.5z"/>
			<path class="st0" d="M87.5,61l-3.3,1.7c0,0-0.1-0.1-0.1-0.1c0,0,0-0.1-0.1-0.1c-0.3-0.4-0.4-0.7-0.5-1c-0.1-0.3-0.1-0.7-0.2-1.1
				c-0.1-0.7-0.2-1.4-0.3-2.1c-0.1-0.7-0.2-1.4-0.2-2.1c0-0.6,0-1.2,0-1.8c0-0.6,0-1.2,0-1.8c0-0.4,0-0.9,0-1.3
				c0-0.4-0.1-0.8-0.2-1.2c-0.9,0.7-1.7,1.5-2.5,2.4c-0.8,0.9-1.5,1.8-2.1,2.8c0.1,0.9,0.2,1.8,0.3,2.7c0.1,0.9,0.2,1.8,0.4,2.7
				l-3.4,1.9c-0.2-0.8-0.3-1.7-0.4-2.7c-0.1-1-0.2-1.9-0.2-2.8c0-0.8,0-1.6,0.1-2.3c0.1-0.8,0.2-1.5,0.3-2.3
				c-0.3,0.2-0.6,0.4-0.9,0.7c-0.3,0.3-0.6,0.6-0.9,0.9c-0.3,0.3-0.6,0.7-0.8,1c-0.3,0.4-0.5,0.7-0.6,1l-0.8,0.4
				c0.2-0.3,0.3-0.6,0.4-0.9c0.1-0.3,0.3-0.5,0.4-0.8c0.1-0.2,0.3-0.5,0.5-0.7c0.2-0.2,0.4-0.5,0.6-0.8c0.3-0.4,0.7-0.8,0.9-1.3
				c0.3-0.5,0.6-0.9,0.9-1.3c0.1-0.1,0.2-0.2,0.3-0.3c0.1-0.1,0.2-0.2,0.3-0.3l2.7-1.5c-0.2,0.7-0.3,1.4-0.3,2.1
				c-0.1,0.7-0.1,1.4-0.1,2.1v0.3c0.4-0.6,0.9-1.1,1.4-1.5c0.5-0.5,1.1-0.9,1.7-1.3c0.6-0.4,1.2-0.8,1.9-1.1c0.6-0.3,1.3-0.7,1.8-1
				c0.1-0.1,0.2-0.1,0.3-0.1c0.1,0,0.2-0.1,0.3-0.1c0.4,1.1,0.7,2.3,0.8,3.5c0.1,1.2,0.2,2.4,0.3,3.6c0,0.6,0.1,1.3,0.3,1.9
				c0.1,0.6,0.2,1.3,0.2,1.9c0.2-0.3,0.5-0.6,0.7-0.9c0.3-0.3,0.5-0.6,0.8-0.9c0.3-0.3,0.5-0.6,0.8-0.9c0.2-0.3,0.5-0.6,0.6-1
				l0.8,0.1C90,57.4,88.9,59.3,87.5,61z M88.2,51.3c0,0.7,0,1.4-0.1,2C88,54,88,54.6,88,55.3l-0.7,0.3c0-0.7,0-1.4,0.1-2.1
				c0.1-0.7,0.1-1.4,0.1-2.1c0-0.6,0-1.2-0.1-1.8c-0.1-0.6-0.3-1.2-0.7-1.7l0.6-0.3c0.4,0.5,0.6,1.1,0.7,1.7
				C88.1,50.1,88.2,50.7,88.2,51.3z"/>
			<path class="st0" d="M99.8,57.8c-0.1,0.5-0.2,0.9-0.3,1.3c-0.1,0.4-0.3,0.8-0.6,1.2c-0.3,0.4-0.7,0.7-1.2,1
				c-0.3,0.2-0.6,0.3-0.9,0.6c-0.3,0.2-0.7,0.4-1,0.6c-0.4,0.2-0.7,0.4-1.1,0.5c-0.4,0.1-0.7,0.2-1,0.2c-0.7,0-1.2-0.2-1.7-0.6
				c-0.4-0.4-0.8-0.8-1.1-1.4c-0.3-0.6-0.4-1.2-0.6-1.8c-0.1-0.6-0.2-1.2-0.2-1.7c0-0.7,0.2-1.5,0.5-2.2c0.3-0.7,0.7-1.4,1.2-2
				c0.5-0.6,1-1.2,1.6-1.7c0.6-0.5,1.2-1,1.8-1.3c0.2-0.2,0.4-0.5,0.7-0.8c0.3-0.3,0.7-0.5,1-0.8c0.4-0.2,0.8-0.4,1.1-0.6
				c0.4-0.2,0.7-0.2,1-0.2c0.3,0,0.6,0.1,0.7,0.3c0.1,0.2,0.2,0.4,0.2,0.7c0,0.5-0.1,0.9-0.2,1.4c-0.2,0.4-0.4,0.9-0.7,1.3
				c-0.3,0.4-0.6,0.8-0.9,1.1c-0.3,0.3-0.7,0.7-1,1c-0.6,0.5-1.2,0.9-1.8,1.3c-0.6,0.4-1.3,0.7-1.9,1.1c0,0.2,0,0.4,0,0.6
				s0,0.4,0,0.6c0,0.5,0,0.9,0.1,1.4c0.1,0.5,0.3,0.9,0.5,1.4c0.2,0.4,0.5,0.7,0.9,1c0.4,0.3,0.9,0.4,1.4,0.4
				c0.7-0.7,1.2-1.4,1.7-2.2c0.5-0.8,0.9-1.7,1.2-2.6l0.8-0.4C100.1,56.9,99.9,57.3,99.8,57.8z M97.8,50.3c0-0.2,0-0.3-0.1-0.4
				c0-0.1-0.2-0.2-0.3-0.3c-0.4,0.3-0.9,0.5-1.4,0.7c-0.2,0.2-0.4,0.4-0.5,0.6L95,51.2c-0.3,0.3-0.5,0.7-0.7,1.1
				c-0.2,0.4-0.3,0.8-0.4,1.2c-0.1,0.4-0.2,0.8-0.2,1.3c0,0.4-0.1,0.9-0.1,1.3c0.2-0.1,0.4-0.2,0.5-0.3c0.1-0.1,0.3-0.3,0.5-0.4
				c0.3-0.3,0.7-0.7,1.1-1.1c0.4-0.4,0.7-0.8,1.1-1.2c0.3-0.4,0.6-0.9,0.8-1.3C97.7,51.3,97.8,50.8,97.8,50.3z M97.4,49.6
				c-0.2-0.1-0.3-0.1-0.4-0.1c-0.1,0.1-0.2,0.2-0.3,0.2c-0.1,0.1-0.2,0.2-0.3,0.2c0.2-0.1,0.3-0.1,0.5-0.2
				C97.1,49.6,97.2,49.6,97.4,49.6z M101.8,49.4c0,0.5-0.1,1-0.3,1.5c-0.2,0.5-0.5,1.1-0.8,1.6c-0.3,0.5-0.7,0.9-1.1,1.3
				c-0.4,0.4-0.9,0.7-1.3,0.9c-0.4,0.2-0.9,0.4-1.4,0.5l-0.1-0.1c0.1,0,0.2-0.1,0.3-0.1c0.1,0,0.2-0.1,0.3-0.1
				c0.1,0,0.2-0.1,0.3-0.2c0.1-0.1,0.2-0.2,0.3-0.4c0.1-0.1,0.2-0.3,0.3-0.4c0.1-0.1,0.2-0.2,0.2-0.3c0.2-0.3,0.5-0.6,0.7-0.9
				c0.3-0.3,0.5-0.7,0.8-1.1c0.2-0.4,0.4-0.7,0.6-1.1c0.2-0.4,0.2-0.8,0.2-1.1c0-0.2,0-0.3-0.1-0.5c0-0.1-0.1-0.3-0.2-0.4l0.7-0.3
				C101.6,48.5,101.8,48.9,101.8,49.4z"/>
			<path class="st0" d="M106.1,56c-0.1,0.1-0.2,0.1-0.4,0.2c-0.1,0-0.3,0.1-0.4,0.2c-0.5,0.3-0.9,0.7-1.4,1.3
				c-0.4,0.6-0.8,1.2-1.1,1.8c-0.3,0.7-0.6,1.3-0.8,2c-0.2,0.7-0.3,1.3-0.4,1.8l-2,1.2c0-0.5,0.1-1,0.1-1.4c0.1-0.4,0.2-0.9,0.3-1.3
				c0.2-0.7,0.6-1.3,1.1-2c0.5-0.7,1.1-1.3,1.7-1.9c0.6-0.6,1.3-1.1,2.1-1.5c0.7-0.4,1.4-0.7,2.1-0.9L106.1,56z M114.7,54.2
				c0,0-0.1,0-0.3,0c-0.1,0-0.2,0-0.3,0c-0.4,0-0.8,0-1.2,0.1c-0.4,0.1-0.8,0.2-1.1,0.4c0.1,0.2,0.1,0.4,0.1,0.7
				c0,0.5-0.2,1-0.5,1.6c-0.3,0.6-0.7,1.2-1.2,1.7c-0.5,0.6-1,1.1-1.5,1.6c-0.5,0.5-1,0.8-1.4,1.1l-2.8,1.6
				c-0.1,0.1-0.3,0.1-0.4,0.2c-0.1,0.1-0.3,0.1-0.4,0.1c-0.2,0-0.4-0.1-0.5-0.2c-0.1-0.1-0.3-0.3-0.4-0.4l0,0l-0.1-0.1
				c0-0.6,0.1-1.1,0.3-1.6c0.2-0.5,0.5-0.9,0.8-1.3c0.3-0.4,0.7-0.8,1.1-1.1c0.4-0.4,0.8-0.7,1.2-1.1c0.3-0.3,0.6-0.5,0.9-0.7
				c0.3-0.2,0.6-0.5,1-0.7c-0.2-0.2-0.4-0.5-0.6-0.7c-0.2-0.2-0.5-0.5-0.8-0.7c-0.3-0.2-0.5-0.5-0.8-0.7c-0.3-0.2-0.5-0.4-0.8-0.6
				c-0.7,0.7-1.4,1.3-2.1,1.8c-0.7,0.5-1.5,1-2.4,1.5l-0.1-0.3c0.7-0.5,1.4-1,2.1-1.6c0.7-0.6,1.3-1.2,1.8-1.9
				c-0.2-0.2-0.5-0.4-0.7-0.6c-0.3-0.2-0.4-0.5-0.4-0.8c0-0.4,0.2-0.8,0.5-1.2c0.3-0.4,0.6-0.7,0.9-0.9l3.3-1.9
				c0.1,0,0.1-0.1,0.2-0.1c0,0,0.1,0,0.2,0c0.1,0,0.2,0,0.3,0.1c0.1,0,0.2,0.1,0.4,0.1c-0.2,0.4-0.5,0.9-0.8,1.3
				c-0.3,0.4-0.6,0.9-0.8,1.3c0.2,0.2,0.4,0.4,0.7,0.5c0.2,0.1,0.5,0.3,0.7,0.4c0.2,0.2,0.5,0.4,0.7,0.6c0.3,0.2,0.5,0.5,0.8,0.8
				c0.3,0.3,0.5,0.6,0.7,0.8c0.2,0.3,0.4,0.5,0.5,0.8c0.1,0,0.3-0.1,0.4-0.1c0.1,0,0.2-0.1,0.3-0.1c0.3-0.2,0.5-0.3,0.8-0.4
				c0.2-0.1,0.4-0.2,0.6-0.2c0.2-0.1,0.4-0.1,0.7-0.1c0.2,0,0.5-0.1,0.8-0.1c0,0,0.1,0.1,0.1,0.1L114.7,54.2z M108.7,57.2
				c0-0.3,0-0.5-0.1-0.8c-0.4,0.3-0.8,0.7-1.2,1c-0.4,0.3-0.8,0.7-1.1,1.1c-0.3,0.4-0.6,0.8-0.8,1.3c-0.2,0.5-0.3,1-0.3,1.5h0.1
				c0.2,0.3,0.4,0.4,0.8,0.4c0.2-0.3,0.5-0.6,0.8-1c0.3-0.4,0.6-0.7,0.9-1.1c0.3-0.4,0.5-0.8,0.7-1.2
				C108.6,58,108.7,57.6,108.7,57.2z M112.1,47.2c0,0.3,0,0.5-0.1,0.7c0,0.2-0.1,0.5-0.2,0.7c-0.1,0.2-0.3,0.4-0.6,0.5l-2.4,1.4
				l-0.1-0.1c0.3-0.2,0.6-0.4,0.9-0.7c0.3-0.3,0.6-0.6,0.9-0.9c0.3-0.3,0.5-0.7,0.7-1c0.2-0.4,0.3-0.7,0.3-1.1l0.7-0.4
				C112.1,46.7,112.1,47,112.1,47.2z"/>
			<path class="st0" d="M122,57.8c-0.1,0.4-0.2,0.8-0.3,1.2c-0.1,0.4-0.3,0.8-0.4,1.1c-0.2,0.4-0.4,0.7-0.6,1
				c-0.1,0.1-0.2,0.2-0.4,0.3c-0.2,0.1-0.4,0.2-0.5,0.3c-0.2,0.1-0.4,0.2-0.6,0.3c-0.2,0.1-0.3,0.2-0.5,0.2
				c-0.2,0.1-0.3,0.2-0.5,0.2c-0.2,0.1-0.4,0.1-0.5,0.1c-0.3,0-0.5-0.1-0.7-0.3c-0.2-0.2-0.4-0.5-0.5-0.7c-0.2-0.4-0.3-0.8-0.5-1.1
				c-0.2-0.3-0.3-0.7-0.4-1c-0.1-0.3-0.2-0.7-0.3-1.1c-0.1-0.4-0.1-0.8-0.1-1.3c0-0.4,0-0.9,0.1-1.5c0.1-0.6,0.2-1.1,0.4-1.7
				c0.2-0.6,0.3-1.1,0.5-1.7c0.2-0.5,0.4-1,0.6-1.4c-0.7,0.7-1.4,1.3-2.2,1.8c-0.2,0.1-0.4,0.3-0.6,0.6l-0.8,0.5
				c0.1-0.2,0.2-0.3,0.3-0.5c0.1-0.1,0.2-0.3,0.4-0.4c0.5-0.3,0.9-0.6,1.3-1c0.4-0.4,0.7-0.8,1-1.2c0.3-0.4,0.6-0.7,0.8-1.1
				c0.3-0.3,0.5-0.6,0.8-0.7c0.2-0.1,0.4-0.2,0.6-0.3c0.2-0.1,0.4-0.2,0.6-0.3c-0.3,0.5-0.5,1.1-0.6,1.7c-0.1,0.6-0.2,1.2-0.2,1.8
				c0,0.6,0,1.2,0,1.8c0,0.6,0,1.2,0,1.8c0,0.4,0,0.8,0,1.3c0,0.4,0,0.8,0,1.3c0,0.5,0,0.9,0.1,1.4c0.1,0.4,0.2,0.9,0.3,1.4
				c0,0,0,0.1,0,0.2c0,0.2,0,0.3,0,0.4c0,0.1,0,0.3,0,0.4l-0.1-0.1c0,0.1,0.1,0.2,0.1,0.2c0,0,0.1,0.1,0.2,0.1c0.1,0,0.2,0,0.4-0.1
				c0.5-0.7,1-1.4,1.4-2.2c0.4-0.8,0.8-1.6,1.2-2.3l0.8-0.5C122.3,57.1,122.1,57.5,122,57.8z M122.7,43.5c0,0.2,0,0.5-0.1,0.7
				c-0.1,0.2-0.3,0.4-0.5,0.5l-2.4,1.4c-0.1,0.1-0.3,0.1-0.4,0.2c-0.2,0.1-0.3,0.1-0.5,0.1c-0.2,0-0.4-0.1-0.6-0.3
				c-0.2-0.2-0.2-0.4-0.2-0.6c0-0.2,0-0.4,0.1-0.5c0.1-0.1,0.2-0.3,0.2-0.4l0.7-0.4c0.1-0.1,0.2-0.3,0.5-0.5
				c0.2-0.2,0.5-0.4,0.8-0.6c0.3-0.2,0.6-0.3,0.9-0.4c0.3-0.1,0.5-0.2,0.6-0.2c0.3,0,0.5,0.1,0.7,0.3
				C122.6,43,122.7,43.3,122.7,43.5z M121.3,48c-0.3,0.6-0.6,1.2-0.9,1.9c-0.3,0.7-0.5,1.3-0.7,2c-0.2,0.7-0.3,1.2-0.4,1.7l-0.7,0.4
				c0.1-0.6,0.1-1.1,0.2-1.7c0.1-0.5,0.1-1.1,0.2-1.6c0.1-0.5,0.2-1,0.4-1.5c0.2-0.5,0.4-1,0.7-1.5l2.2-1.2
				C122,46.9,121.7,47.4,121.3,48z"/>
		</g>
	</g>
	<g>
		<g>
			<path class="st0" d="M96,41.8c0,0.2-0.1,0.3-0.1,0.5c0,0.2-0.1,0.3-0.2,0.4c-0.1,0.1-0.2,0.3-0.4,0.4l-1,0.6
				c-0.2,0.1-0.3,0.1-0.5,0.1c-0.2,0-0.4-0.1-0.6-0.2c-0.2-0.1-0.3-0.3-0.4-0.5c-0.1-0.2-0.2-0.4-0.2-0.6c0-0.2-0.1-0.4-0.1-0.6
				c0-0.1,0-0.1,0-0.2c0-0.1,0-0.1,0-0.2c0-0.2,0.1-0.4,0.2-0.6c0.1-0.2,0.3-0.4,0.4-0.6c0.2-0.2,0.4-0.4,0.6-0.6
				c0.2-0.2,0.4-0.3,0.6-0.4c0.2-0.1,0.4-0.2,0.6-0.3c0.2-0.1,0.4-0.2,0.6-0.3c0.1,0,0.2,0,0.2,0.1c0.1,0.1,0.1,0.1,0.1,0.2
				c0,0.1,0,0.1-0.1,0.2c0,0.1-0.1,0.1-0.1,0.2c-0.1,0.1-0.1,0.1-0.2,0.2c-0.1,0-0.2,0.1-0.2,0.1c-0.1,0-0.2,0.1-0.2,0.1
				c-0.1,0-0.2,0.1-0.3,0.1c-0.1,0-0.1,0-0.2,0c-0.1,0-0.1,0-0.2-0.1c-0.1,0-0.1-0.1-0.1-0.1c0,0,0-0.1,0-0.2
				c-0.1,0.1-0.2,0.3-0.3,0.5c-0.1,0.2-0.1,0.4-0.2,0.6c0,0.2-0.1,0.4-0.1,0.6c0,0.2,0,0.4,0,0.6c0,0.2,0,0.3,0.1,0.5
				c0,0.2,0.1,0.3,0.2,0.5c0.1,0.1,0.2,0.3,0.3,0.4c0.1,0.1,0.3,0.1,0.5,0.1h0c0.2-0.2,0.4-0.5,0.6-0.8c0.2-0.3,0.3-0.6,0.4-0.9
				l0.3-0.2C96.1,41.5,96.1,41.6,96,41.8z"/>
			<path class="st0" d="M101.2,42c-0.1,0.3-0.2,0.5-0.4,0.8c0,0.1-0.1,0.2-0.1,0.2c0,0.1-0.1,0.1-0.2,0.2l-0.9,0.6c0,0-0.1,0-0.2,0
				c-0.1,0-0.2-0.1-0.3-0.2c-0.1-0.1-0.1-0.3-0.2-0.4c0-0.2-0.1-0.3-0.1-0.5c0-0.2,0-0.3,0-0.4c-0.1,0.2-0.3,0.4-0.4,0.6
				c-0.1,0.2-0.3,0.3-0.4,0.4c-0.2,0.1-0.3,0.2-0.5,0.3c-0.2,0.1-0.4,0.2-0.6,0.4c0,0-0.1,0-0.1,0.1c0,0-0.1,0-0.1,0
				c-0.1,0-0.2-0.1-0.3-0.2c-0.1-0.1-0.1-0.2-0.1-0.3c0-0.1,0-0.2,0-0.3c0-0.1,0.1-0.2,0.1-0.3c0.1-0.4,0.4-0.7,0.7-0.9
				c0.3-0.2,0.6-0.5,1-0.7c0.1-0.1,0.2-0.1,0.4-0.2c0.1-0.1,0.2-0.1,0.4-0.2V41c-0.1,0-0.3,0-0.4,0.1c-0.1,0-0.3,0.1-0.4,0.1
				c-0.2,0.2-0.3,0.3-0.5,0.4c-0.2,0.1-0.3,0.3-0.5,0.4l0,0c0.1-0.1,0.2-0.1,0.2-0.2c0.1-0.1,0.1-0.2,0.2-0.2
				c0.1-0.1,0.2-0.1,0.3-0.2c0.1-0.1,0.2-0.2,0.4-0.2c0.1-0.1,0.3-0.1,0.4-0.2c0.1-0.1,0.2-0.1,0.4-0.1c0-0.1,0-0.2,0-0.2
				c0-0.1,0-0.2,0-0.2c0-0.1,0-0.2-0.1-0.4c0-0.1-0.1-0.3-0.2-0.4c-0.1-0.1-0.1-0.2-0.2-0.3c-0.1-0.1-0.2-0.1-0.3-0.1
				c0,0-0.1,0-0.2,0c-0.1,0.1-0.1,0.3-0.1,0.4c0,0.1-0.1,0.2-0.3,0.3c-0.1,0-0.1,0.1-0.2,0.1c-0.1,0.1-0.2,0.1-0.3,0.2
				c-0.1,0.1-0.2,0.1-0.3,0.1c-0.1,0-0.2,0.1-0.2,0.1c0-0.1,0-0.1,0-0.1c0-0.2,0.1-0.3,0.2-0.4c0.1-0.1,0.2-0.2,0.3-0.2
				c0.1-0.1,0.3-0.2,0.4-0.3c0.2-0.1,0.3-0.2,0.5-0.3c0.2-0.1,0.3-0.2,0.5-0.2c0.2-0.1,0.3-0.1,0.5-0.1c0.2,0,0.4,0.1,0.5,0.2
				c0.1,0.1,0.2,0.3,0.3,0.4c0.1,0.2,0.1,0.4,0.2,0.5c0,0.2,0.1,0.4,0.1,0.5c0,0.1,0,0.2,0,0.3c0,0.1,0,0.2,0,0.3
				c0,0.3,0,0.6,0.1,0.9c0.1,0.3,0.1,0.6,0.1,0.9c0.2-0.2,0.4-0.5,0.6-0.7c0.2-0.2,0.3-0.5,0.4-0.8l0.3-0.2
				C101.4,41.5,101.3,41.7,101.2,42z M98.9,41.2c-0.2,0-0.3,0.1-0.5,0.2c-0.2,0.1-0.3,0.2-0.4,0.3c-0.1,0.1-0.2,0.3-0.3,0.4
				c-0.1,0.2-0.2,0.3-0.2,0.5c0,0.1-0.1,0.2-0.1,0.3c0,0.1,0,0.2,0,0.3c0,0.1,0,0.2,0.1,0.2c0,0.1,0.1,0.2,0.2,0.2
				c0.3-0.3,0.6-0.7,0.8-1.1C98.6,42,98.8,41.6,98.9,41.2z"/>
			<path class="st0" d="M106.5,38.2c-0.5,0.1-0.9,0.2-1.4,0.3c-0.4,0.1-0.9,0.2-1.4,0.3c-0.3,0-0.6,0-0.8,0.1l0,0.1
				c0.2,0,0.4,0.1,0.6,0.1c0.2,0,0.5,0,0.7-0.1c0.2,0,0.5-0.1,0.7-0.2c0.2-0.1,0.5-0.1,0.7-0.2c0.2,0,0.5-0.1,0.7-0.1l-1.1,0.6
				c-0.3,0-0.5,0-0.8,0c-0.3,0-0.5,0-0.8,0c0,0.1,0.1,0.2,0.2,0.2c0.1,0.1,0.1,0.1,0.1,0.2c0.1,0.2,0.2,0.4,0.2,0.7
				c0,0.3,0,0.5,0,0.7c0,0.7-0.1,1.3-0.3,1.9c-0.2,0.6-0.4,1.2-0.7,1.8l0.1,0.2l-0.8,0.4c-0.2-0.8-0.4-1.5-0.6-2.3
				c-0.1-0.8-0.2-1.5-0.2-2.3c0-0.3,0-0.7,0-1c0-0.3,0.1-0.7,0.1-1c-0.4,0-0.7-0.1-1.1-0.1c0.1,0,0.1-0.1,0.2-0.1
				c0.1,0,0.1-0.1,0.2-0.1c0.1,0,0.3,0,0.4,0c0.1,0,0.3,0,0.4,0c0.1-0.4,0.3-0.7,0.5-1.1c0.2-0.3,0.4-0.7,0.6-1
				c0.1-0.1,0.1-0.2,0.2-0.2c0.1-0.1,0.1-0.2,0.2-0.2l0.7-0.4c0,0,0,0,0.1,0c0.1,0,0.2,0,0.3,0.1c0.1,0.1,0.1,0.2,0.1,0.3
				c0,0.2,0,0.4-0.1,0.6c-0.1,0.2-0.2,0.5-0.3,0.7c-0.1,0.2-0.3,0.4-0.4,0.6c-0.2,0.2-0.3,0.4-0.4,0.5c0.6,0,1.2-0.1,1.8-0.2
				c0.6-0.1,1.2-0.2,1.8-0.2L106.5,38.2z M103.7,41.8c0-0.3,0-0.6-0.1-0.9c0-0.3-0.1-0.6-0.2-0.9c0-0.1-0.1-0.1-0.1-0.2
				c0-0.1,0-0.2-0.1-0.2c0-0.1-0.1-0.1-0.1-0.2c0-0.1-0.1-0.1-0.2-0.2c0,0.4-0.1,0.8-0.1,1.3c0,0.4,0,0.7,0,1.1
				c0,0.4,0.1,0.7,0.1,1.1c0,0.3,0.1,0.6,0.1,0.9c0,0.3,0,0.6,0.1,0.9c0.1-0.4,0.3-0.8,0.4-1.3C103.6,42.6,103.7,42.2,103.7,41.8z
				 M104.1,36c0-0.1,0-0.1-0.1-0.2l0,0c-0.2,0.3-0.4,0.7-0.6,1.2c-0.2,0.4-0.3,0.9-0.4,1.2c0.1-0.1,0.2-0.3,0.3-0.5
				c0.1-0.2,0.2-0.4,0.4-0.6c0.1-0.2,0.2-0.4,0.3-0.6C104.1,36.4,104.1,36.2,104.1,36z"/>
			<path class="st0" d="M110.4,38.2c-0.5,0.1-0.9,0.2-1.4,0.3c-0.4,0.1-0.9,0.2-1.4,0.3c-0.3,0-0.6,0-0.8,0.1l0,0.1
				c0.2,0,0.4,0.1,0.6,0.1c0.2,0,0.5,0,0.7-0.1c0.2,0,0.5-0.1,0.7-0.2c0.2-0.1,0.5-0.1,0.7-0.2c0.2,0,0.5-0.1,0.7-0.1l-1.1,0.6
				c-0.3,0-0.5,0-0.8,0c-0.3,0-0.5,0-0.8,0c0,0.1,0.1,0.2,0.2,0.2c0.1,0.1,0.1,0.1,0.1,0.2c0.1,0.2,0.2,0.4,0.2,0.7
				c0,0.3,0,0.5,0,0.7c0,0.7-0.1,1.3-0.3,1.9c-0.2,0.6-0.4,1.2-0.7,1.8l0.1,0.2l-0.8,0.4c-0.2-0.8-0.4-1.5-0.6-2.3
				c-0.1-0.8-0.2-1.5-0.2-2.3c0-0.3,0-0.7,0-1c0-0.3,0.1-0.7,0.1-1c-0.4,0-0.7-0.1-1.1-0.1c0.1,0,0.1-0.1,0.2-0.1
				c0.1,0,0.1-0.1,0.2-0.1c0.1,0,0.3,0,0.4,0c0.1,0,0.3,0,0.4,0c0.1-0.4,0.3-0.7,0.5-1.1c0.2-0.3,0.4-0.7,0.6-1
				c0.1-0.1,0.1-0.2,0.2-0.2c0.1-0.1,0.1-0.2,0.2-0.2l0.7-0.4c0,0,0,0,0.1,0c0.1,0,0.2,0,0.3,0.1c0.1,0.1,0.1,0.2,0.1,0.3
				c0,0.2,0,0.4-0.1,0.6c-0.1,0.2-0.2,0.5-0.3,0.7c-0.1,0.2-0.3,0.4-0.4,0.6c-0.2,0.2-0.3,0.4-0.4,0.5c0.6,0,1.2-0.1,1.8-0.2
				c0.6-0.1,1.2-0.2,1.8-0.2L110.4,38.2z M107.5,41.8c0-0.3,0-0.6-0.1-0.9c0-0.3-0.1-0.6-0.2-0.9c0-0.1-0.1-0.1-0.1-0.2
				c0-0.1,0-0.2-0.1-0.2c0-0.1-0.1-0.1-0.1-0.2c0-0.1-0.1-0.1-0.2-0.2c0,0.4-0.1,0.8-0.1,1.3c0,0.4,0,0.7,0,1.1
				c0,0.4,0.1,0.7,0.1,1.1c0,0.3,0.1,0.6,0.1,0.9c0,0.3,0,0.6,0.1,0.9c0.1-0.4,0.3-0.8,0.4-1.3C107.4,42.6,107.5,42.2,107.5,41.8z
				 M108,36c0-0.1,0-0.1-0.1-0.2l0,0c-0.2,0.3-0.4,0.7-0.6,1.2c-0.2,0.4-0.3,0.9-0.4,1.2c0.1-0.1,0.2-0.3,0.3-0.5
				c0.1-0.2,0.2-0.4,0.4-0.6c0.1-0.2,0.2-0.4,0.3-0.6C107.9,36.4,108,36.2,108,36z"/>
			<path class="st0" d="M112.3,42c0,0.2-0.1,0.3-0.1,0.5c0,0.1-0.1,0.3-0.2,0.4c-0.1,0.1-0.2,0.3-0.4,0.4c-0.1,0.1-0.2,0.1-0.3,0.2
				c-0.1,0.1-0.2,0.2-0.4,0.2c-0.1,0.1-0.3,0.1-0.4,0.2c-0.1,0-0.3,0.1-0.4,0.1c-0.2,0-0.4-0.1-0.6-0.2c-0.2-0.1-0.3-0.3-0.4-0.5
				c-0.1-0.2-0.2-0.4-0.2-0.6c0-0.2-0.1-0.4-0.1-0.6c0-0.3,0.1-0.5,0.2-0.8c0.1-0.3,0.2-0.5,0.4-0.7c0.2-0.2,0.4-0.4,0.6-0.6
				c0.2-0.2,0.4-0.3,0.6-0.5c0.1-0.1,0.2-0.2,0.3-0.3c0.1-0.1,0.2-0.2,0.4-0.3c0.1-0.1,0.3-0.2,0.4-0.2c0.1-0.1,0.3-0.1,0.4-0.1
				c0.1,0,0.2,0,0.3,0.1c0,0.1,0.1,0.2,0.1,0.3c0,0.2,0,0.3-0.1,0.5c-0.1,0.2-0.1,0.3-0.2,0.5c-0.1,0.1-0.2,0.3-0.3,0.4
				c-0.1,0.1-0.2,0.2-0.4,0.3c-0.2,0.2-0.4,0.3-0.7,0.5c-0.2,0.1-0.5,0.3-0.7,0.4c0,0.1,0,0.1,0,0.2c0,0.1,0,0.1,0,0.2
				c0,0.2,0,0.3,0.1,0.5c0,0.2,0.1,0.3,0.2,0.5c0.1,0.1,0.2,0.3,0.3,0.4c0.1,0.1,0.3,0.1,0.5,0.1c0.2-0.2,0.4-0.5,0.6-0.8
				c0.2-0.3,0.3-0.6,0.4-0.9l0.3-0.2C112.3,41.7,112.3,41.9,112.3,42z M111.5,39.3c0-0.1,0-0.1,0-0.1c0,0-0.1-0.1-0.1-0.1
				c-0.1,0.1-0.3,0.2-0.5,0.3c-0.1,0.1-0.1,0.1-0.2,0.2l-0.2,0.1c-0.1,0.1-0.2,0.2-0.2,0.4c-0.1,0.1-0.1,0.3-0.1,0.4
				c0,0.2-0.1,0.3-0.1,0.5c0,0.2,0,0.3,0,0.5c0.1,0,0.1-0.1,0.2-0.1c0.1,0,0.1-0.1,0.2-0.1c0.1-0.1,0.3-0.2,0.4-0.4
				c0.1-0.1,0.3-0.3,0.4-0.4c0.1-0.2,0.2-0.3,0.3-0.5C111.5,39.7,111.5,39.5,111.5,39.3z M111.4,39c-0.1,0-0.1,0-0.1-0.1
				c0,0-0.1,0.1-0.1,0.1c0,0-0.1,0.1-0.1,0.1c0.1,0,0.1-0.1,0.2-0.1C111.3,39.1,111.3,39.1,111.4,39z M113,39c0,0.2,0,0.4-0.1,0.5
				c-0.1,0.2-0.2,0.4-0.3,0.6c-0.1,0.2-0.3,0.3-0.4,0.5c-0.2,0.1-0.3,0.2-0.5,0.3c-0.1,0.1-0.3,0.1-0.5,0.2l0,0c0,0,0.1,0,0.1,0
				c0,0,0.1,0,0.1,0c0,0,0.1,0,0.1-0.1c0,0,0.1-0.1,0.1-0.1c0,0,0.1-0.1,0.1-0.1c0,0,0.1-0.1,0.1-0.1c0.1-0.1,0.2-0.2,0.3-0.3
				c0.1-0.1,0.2-0.3,0.3-0.4c0.1-0.1,0.2-0.3,0.2-0.4c0.1-0.1,0.1-0.3,0.1-0.4c0-0.1,0-0.1,0-0.2c0,0,0-0.1-0.1-0.2l0.3-0.1
				C112.9,38.7,113,38.8,113,39z"/>
		</g>
	</g>
	<g>
		<path class="st1" d="M75.2,43.8c-0.1,0-0.1,0-0.2-0.1c-0.1,0-0.3,0-0.4-0.2c-0.1-0.2-0.1-0.4,0.1-0.5l0,0c0,0-0.1-0.1-0.1-0.1
			c-0.1-0.2-0.1-0.4,0.1-0.5l0.7-0.6L75.2,42c-0.2,0.1-0.4,0.1-0.5-0.1c-0.1-0.1-0.1-0.3,0-0.5l0.6-0.8l-0.1,0
			c-0.2,0.1-0.4,0-0.5-0.1c-0.1-0.1-0.1-0.2,0-0.3c0-0.1,0-0.2,0-0.3l0,0c0,0,0,0,0,0c-0.1-0.2,0-0.4,0.1-0.5l0.4-0.2
			c0.1-0.1,0.3-0.1,0.5,0.1c0,0,0,0,0.1,0.1l0.2-0.1c0.1-0.1,0.3-0.1,0.4,0l0,0c0.2-0.1,0.4-0.1,0.5,0.1c0.1,0.1,0.1,0.3,0,0.5
			l-0.6,0.8l2.4-1.4c0.2-0.1,0.4-0.1,0.5,0.1c0.1,0.2,0.1,0.4-0.1,0.5l-0.7,0.6l1.5-0.9c0.2-0.1,0.4,0,0.5,0.1
			c0.1,0.2,0.1,0.4-0.1,0.5l0,0c0.1,0,0.1,0.1,0.1,0.1c0.1,0.1,0.1,0.2,0,0.3c0,0.1,0,0.3-0.1,0.4l-0.7,0.6l0.2-0.1
			c0.1-0.1,0.3-0.1,0.5,0.1c0.1,0.1,0.1,0.3,0.1,0.5l-0.3,0.5c0.1,0,0.2,0,0.3,0.1c0.1,0.1,0.1,0.3,0.1,0.4c0.1,0.2,0,0.4-0.2,0.5
			l-0.4,0.2c-0.2,0.1-0.3,0.1-0.5-0.1l-0.1,0.1c-0.1,0.1-0.3,0.1-0.5-0.1c-0.1-0.1-0.1-0.3-0.1-0.5l0.3-0.4l-1.7,1
			c-0.2,0.1-0.4,0.1-0.5-0.1c-0.1-0.2-0.1-0.4,0-0.5l0.7-0.6l-2.2,1.2C75.3,43.8,75.3,43.8,75.2,43.8z"/>
	</g>
	<g>
		<path class="st2" d="M80.4,43.8c-0.1,0-0.1,0-0.2-0.1c-0.1,0-0.3,0-0.4-0.2c-0.1-0.2-0.1-0.4,0.1-0.5l0,0c0,0-0.1-0.1-0.1-0.1
			c-0.1-0.2-0.1-0.4,0.1-0.5l0.7-0.6L80.3,42c-0.2,0.1-0.4,0.1-0.5-0.1c-0.1-0.1-0.1-0.3,0-0.5l0.6-0.8l-0.1,0
			c-0.2,0.1-0.4,0-0.5-0.1c-0.1-0.1-0.1-0.2,0-0.3c0-0.1,0-0.2,0-0.3l0,0c0,0,0,0,0,0c-0.1-0.2,0-0.4,0.1-0.5l0.4-0.2
			c0.1-0.1,0.3-0.1,0.5,0.1c0,0,0,0,0.1,0.1l0.2-0.1c0.1-0.1,0.3-0.1,0.4,0l0,0c0.2-0.1,0.4-0.1,0.5,0.1c0.1,0.1,0.1,0.3,0,0.5
			l-0.6,0.8l2.4-1.4c0.2-0.1,0.4-0.1,0.5,0.1c0.1,0.2,0.1,0.4-0.1,0.5l-0.7,0.6l1.8-1c0.2-0.1,0.4,0,0.5,0.1
			c0.1,0.2,0.1,0.4-0.1,0.5l0,0c0.1,0,0.1,0.1,0.1,0.1c0.1,0.1,0.1,0.2,0,0.3c0,0.1,0,0.3-0.1,0.4l-0.7,0.7l0.3-0.1
			c0.2-0.1,0.3-0.1,0.5,0.1c0.1,0.1,0.1,0.3,0,0.5l-0.4,0.5c0.1,0,0.2,0,0.3,0.1c0.1,0.1,0.1,0.3,0.1,0.5l0,0.1c0,0,0,0,0,0
			c0.1,0.2,0,0.4-0.1,0.5l-0.4,0.2c-0.1,0.1-0.3,0.1-0.5-0.1c0,0-0.1-0.1-0.1-0.1l-0.3,0.2c-0.2,0.1-0.3,0.1-0.5-0.1
			c-0.1-0.1-0.1-0.3,0-0.5l0.3-0.5l-1.8,1c-0.2,0.1-0.4,0.1-0.5-0.1c-0.1-0.2-0.1-0.4,0-0.5l0.7-0.7l-2.2,1.3
			C80.5,43.8,80.4,43.8,80.4,43.8z"/>
	</g>
	<g>
		<path class="st0" d="M85.8,43.8c-0.1,0-0.1,0-0.2-0.1c-0.1,0-0.3,0-0.4-0.2c-0.1-0.2-0.1-0.4,0.1-0.5l0,0c0,0-0.1-0.1-0.1-0.1
			c-0.1-0.2-0.1-0.4,0.1-0.5l0.7-0.6l-0.3,0.2c-0.2,0.1-0.4,0.1-0.5-0.1c-0.1-0.1-0.1-0.3,0-0.5l0.6-0.8l-0.1,0
			c-0.2,0.1-0.4,0-0.5-0.1c-0.1-0.1-0.1-0.2,0-0.3c0-0.1,0-0.2,0-0.3l0,0c0,0,0,0,0,0c-0.1-0.2,0-0.4,0.1-0.5l0.4-0.2
			c0.2-0.1,0.3-0.1,0.5,0.1c0,0,0,0,0.1,0.1l0.2-0.1c0.1-0.1,0.3-0.1,0.4,0l0,0c0.2-0.1,0.4-0.1,0.5,0.1c0.1,0.1,0.1,0.3,0,0.5
			l-0.6,0.8l2.4-1.4c0.2-0.1,0.4-0.1,0.5,0.1c0.1,0.2,0.1,0.4-0.1,0.5L89,40.3l1.5-0.9c0.2-0.1,0.4,0,0.5,0.1
			c0.1,0.2,0.1,0.4-0.1,0.5l0,0c0.1,0,0.1,0.1,0.1,0.1c0.1,0.1,0.1,0.2,0,0.3c0,0.1,0,0.3-0.1,0.4l-0.7,0.6l0.2-0.1
			c0.1-0.1,0.3-0.1,0.5,0.1c0.1,0.1,0.1,0.3,0.1,0.5l-0.3,0.5c0.1,0,0.2,0,0.3,0.1c0.1,0.1,0.1,0.3,0.1,0.4c0.1,0.2,0,0.4-0.2,0.5
			l-0.4,0.2c-0.2,0.1-0.3,0.1-0.5-0.1l-0.1,0.1c-0.1,0.1-0.3,0.1-0.5-0.1c-0.1-0.1-0.1-0.3-0.1-0.5l0.3-0.4l-1.7,1
			c-0.2,0.1-0.4,0.1-0.5-0.1c-0.1-0.2-0.1-0.4,0-0.5l0.7-0.6L86,43.7C85.9,43.8,85.8,43.8,85.8,43.8z"/>
	</g>
	<g>
		<g>
			<path class="st0" d="M126.8,42.3c-1,0-1.8-0.8-1.8-1.8c0-1,0.8-1.8,1.8-1.8s1.8,0.8,1.8,1.8C128.6,41.4,127.8,42.3,126.8,42.3z
				 M126.8,38.9c-0.9,0-1.6,0.7-1.6,1.6c0,0.9,0.7,1.6,1.6,1.6c0.9,0,1.6-0.7,1.6-1.6C128.3,39.6,127.6,38.9,126.8,38.9z"/>
		</g>
		<g>
			<path class="st0" d="M126.4,40.6v0.9h-0.3v-2.2h0.6c0.2,0,0.3,0,0.4,0c0.3,0.1,0.5,0.3,0.5,0.6c0,0.3-0.2,0.5-0.5,0.6l0.6,1h-0.3
				l-0.6-0.9H126.4z M126.4,39.6v0.7h0.3c0.4,0,0.5-0.1,0.5-0.4c0-0.1-0.1-0.2-0.2-0.3c-0.1,0-0.2-0.1-0.4-0.1H126.4z"/>
		</g>
	</g>
</g>
</svg>
