<?xml version="1.0" encoding="utf-8"?>
<!-- Generator: Adobe Illustrator 22.0.1, SVG Export Plug-In . SVG Version: 6.00 Build 0)  -->
<svg version="1.1" id="Слой_1" xmlns="http://www.w3.org/2000/svg" xmlns:xlink="http://www.w3.org/1999/xlink" x="0px" y="0px"
	 viewBox="0 0 130 100" style="enable-background:new 0 0 130 100;" xml:space="preserve">
<style type="text/css">
	.st0{fill:#E80000;}
	.st1{fill:#333333;}
	.st2{fill:#A10000;}
</style>
<g>
	<g>
		<path class="st0" d="M10,58.9L10,58.9l1.6,1.6l-0.1,0.1c-0.5-0.5-1.2-0.1-1.8,0.2l-4.3,2c-0.5,0.2-0.8,0.4-0.6,0.7l-0.1,0.1
			l-1.5-1.6l0.1-0.1c0.2,0.2,0.4,0,0.6-0.4l1.6-3l-3.2,1.4C2.1,59.9,1.8,60,2,60.3l-0.1,0.1l-1.5-1.6l0.1-0.1c0.3,0.2,0.5,0,0.8-0.5
			L3.8,54c0.3-0.4,0.7-1.1,0.3-1.5l0.1-0.1l1.9,2.1L6,54.6c-0.4-0.4-0.8,0-1.2,0.6l-2.6,4l5.7-2.6L8,56.7l-2.8,5.4l4-1.9
			C9.9,59.7,10.5,59.5,10,58.9z"/>
		<path class="st0" d="M16,61.1c2.1,0.6,3.4,2.3,2.8,4.5c-0.6,2.3-2.7,3.2-4.9,2.7c-2.1-0.6-3.4-2.3-2.8-4.5
			C11.7,61.5,13.8,60.5,16,61.1z M14.3,67.6c1.4,0.4,2.5-0.8,2.9-2.2c0.4-1.4,0.2-3.2-1.5-3.6c-1.6-0.4-2.5,0.7-2.9,2.1
			C12.4,65.3,12.6,67.2,14.3,67.6z"/>
		<path class="st0" d="M24.3,61.1c2.1-0.6,4.1,0.3,4.7,2.5c0.6,2.3-0.8,4.1-3,4.7c-2.1,0.5-4.1-0.4-4.7-2.6
			C20.8,63.5,22.2,61.7,24.3,61.1z M26,67.6c1.4-0.4,1.8-1.9,1.5-3.4c-0.4-1.4-1.4-2.9-3-2.4c-1.6,0.4-1.9,1.8-1.5,3.3
			C23.3,66.5,24.3,68.1,26,67.6z"/>
		<path class="st0" d="M34.7,54.2L34.7,54.2l1.4-1.7l0.1,0.1c-0.5,0.6,0,1.2,0.3,1.8l2.3,4.2c0.3,0.5,0.5,0.8,0.8,0.5l0.1,0.1
			l-1.5,1.6l-0.1-0.1c0.2-0.2,0-0.4-0.5-0.6l-3.1-1.3l1.6,3.1c0.2,0.3,0.3,0.6,0.6,0.4l0.1,0.1l-1.5,1.6l-0.1-0.1
			c0.2-0.3-0.1-0.5-0.6-0.7l-4.4-2.2c-0.4-0.2-1.1-0.6-1.5-0.2l-0.1-0.1l1.9-2.1l0.1,0.1c-0.4,0.5,0.1,0.8,0.7,1.1l4.2,2.3l-3-5.5
			l0.1-0.1l5.6,2.4l-2.2-3.8C35.5,54.2,35.2,53.7,34.7,54.2z"/>
	</g>
	<g>
		<g>
			<path class="st1" d="M52.7,48.5c-0.5-0.5-1-0.9-1.5-1.2c-0.5-0.3-1.1-0.4-1.8-0.4h-0.3c-1,0.1-1.7,0.5-2.3,1.2
				c-0.5,0.7-0.8,1.6-0.9,2.4c0,0,0,0.1,0,0.1c0,0,0,0.1,0,0.1c0,0.8,0.2,1.5,0.6,2.2c0.4,0.7,1,1.2,1.8,1.4
				c0.2,0.1,0.4,0.1,0.6,0.1c0.2,0,0.3,0,0.5,0c0.6,0,1.2-0.2,1.7-0.5c0.5-0.3,1-0.7,1.5-1.2v4c-0.2,0.1-0.4,0.2-0.6,0.2
				c-0.2,0.1-0.4,0.1-0.6,0.2c-0.4,0.1-0.8,0.2-1.2,0.2c-0.4,0.1-0.8,0.1-1.2,0.1c-0.1,0-0.2,0-0.2,0c-0.1,0-0.2,0-0.2,0
				c-0.1,0-0.2,0-0.2,0c-0.1,0-0.2,0-0.2,0c-1.8-0.2-3.2-0.9-4.3-2.3c-1.1-1.4-1.6-2.9-1.6-4.7c0-1.7,0.5-3.3,1.6-4.6
				c1.1-1.4,2.5-2.1,4.3-2.4c0.1,0,0.1,0,0.2,0c0.1,0,0.1,0,0.2,0c0.1,0,0.1,0,0.2,0c0.1,0,0.1,0,0.2,0c0.6,0,1.2,0.1,1.9,0.2
				c0.6,0.1,1.2,0.3,1.8,0.6V48.5z"/>
			<path class="st1" d="M59.3,44h4.6l4.7,13.5h-3.7L64.2,55H59l-0.7,2.4h-3.6L59.3,44z M59.8,52.4h3.7L62.1,48
				c-0.1-0.2-0.1-0.4-0.2-0.7c-0.1-0.2-0.1-0.5-0.2-0.7c0-0.1,0-0.2-0.1-0.2c0-0.1,0-0.2,0-0.2c0,0.1,0,0.1-0.1,0.2
				c0,0.1,0,0.2-0.1,0.2c0,0,0,0.1,0,0.1c0,0,0,0,0,0.1c0,0.2-0.1,0.4-0.1,0.6c0,0.2-0.1,0.4-0.2,0.6L59.8,52.4z"/>
			<path class="st1" d="M70.8,44h3.6l5.1,6.9c0.1,0.2,0.3,0.4,0.4,0.6c0.1,0.2,0.2,0.4,0.3,0.7c0.1,0.2,0.2,0.4,0.3,0.6
				c0.1,0.2,0.2,0.4,0.3,0.5c0-0.2,0-0.3-0.1-0.4c0-0.1,0-0.3-0.1-0.4c0-0.3,0-0.6-0.1-0.9c0-0.3,0-0.6,0-0.9V44H84v13.5h-3.5
				l-5.1-7c-0.1-0.2-0.3-0.4-0.4-0.6c-0.1-0.2-0.2-0.5-0.4-0.7c-0.1-0.2-0.2-0.4-0.2-0.5c-0.1-0.2-0.2-0.3-0.2-0.5
				c0.1,0.4,0.1,0.9,0.2,1.3c0,0.5,0.1,0.9,0.1,1.4v6.6h-3.6V44z"/>
			<path class="st1" d="M90.4,44H95l4.7,13.5H96L95.3,55h-5.2l-0.7,2.4h-3.6L90.4,44z M90.9,52.4h3.7L93.2,48
				c-0.1-0.2-0.1-0.4-0.2-0.7c-0.1-0.2-0.1-0.5-0.2-0.7c0-0.1,0-0.2-0.1-0.2c0-0.1,0-0.2,0-0.2c0,0.1,0,0.1-0.1,0.2
				c0,0.1,0,0.2-0.1,0.2c0,0,0,0.1,0,0.1c0,0,0,0,0,0.1c0,0.2-0.1,0.4-0.1,0.6c0,0.2-0.1,0.4-0.2,0.6L90.9,52.4z"/>
			<path class="st1" d="M109.2,57.1c-0.8,0.2-1.6,0.3-2.3,0.3c-0.2,0-0.4,0-0.7,0c-0.2,0-0.4,0-0.6,0h-3.7V44h3.9c0.2,0,0.4,0,0.6,0
				c0.2,0,0.4,0,0.6,0c0.8,0,1.5,0.1,2.3,0.3c0.7,0.2,1.4,0.5,2,0.9c0.8,0.6,1.4,1.3,1.8,2.2c0.4,0.9,0.7,1.8,0.7,2.8
				c0,0.1,0,0.2,0,0.3c0,0.1,0,0.2,0,0.3c0,0,0,0.1,0,0.1c0,0,0,0.1,0,0.1c0,1-0.3,2-0.7,2.9c-0.4,0.9-1.1,1.7-1.9,2.3
				C110.7,56.7,110,57,109.2,57.1z M105.6,54.5c0,0,0.1,0,0.1,0c0.1,0,0.1,0,0.1,0c0,0,0.1,0,0.1,0c0.1,0,0.3,0,0.4,0
				c0.2,0,0.3,0,0.4,0c0.4,0,0.7-0.1,1.1-0.2c0.4-0.1,0.7-0.2,1-0.4c0.5-0.3,0.8-0.8,1-1.3c0.2-0.6,0.3-1.1,0.3-1.7
				c0-0.1,0-0.1,0-0.2c0-0.1,0-0.1,0-0.2c0-0.5-0.2-1.1-0.4-1.6c-0.2-0.5-0.5-0.9-0.9-1.2c-0.3-0.2-0.6-0.4-1-0.5
				c-0.4-0.1-0.7-0.1-1.1-0.1c-0.1,0-0.1,0-0.2,0c-0.1,0-0.2,0-0.2,0h-0.9v7.4C105.5,54.5,105.5,54.5,105.6,54.5z"/>
			<path class="st1" d="M120.2,44h4.6l4.7,13.5h-3.7l-0.7-2.4H120l-0.7,2.4h-3.6L120.2,44z M120.7,52.4h3.7L123,48
				c-0.1-0.2-0.1-0.4-0.2-0.7c-0.1-0.2-0.1-0.5-0.2-0.7c0-0.1,0-0.2-0.1-0.2c0-0.1,0-0.2,0-0.2c0,0.1,0,0.1-0.1,0.2
				c0,0.1,0,0.2-0.1,0.2c0,0,0,0.1,0,0.1c0,0,0,0,0,0.1c0,0.2-0.1,0.4-0.1,0.6c0,0.2-0.1,0.4-0.2,0.6L120.7,52.4z"/>
		</g>
	</g>
	<g>
		<path class="st0" d="M27.5,56.6l10.9-8.4c-0.1,0-3.2-1.3-4.3-1.7l1.9-5l-4.7,1.8L30,39.7l-5.5,5.4c0,0,2.3-8.3,2.3-8.3L24,37.9
			l-3.6-6.4L16.8,38l-2.9-1.4c0,0,1.3,4.8,2,6.9c0.2,0.5,0.3,1,0.5,1.5c0,0-0.1,0-0.1,0c-1.7-1.6-3.4-3.2-5.2-4.9
			c-0.5,1.2-0.9,2.4-1.4,3.6c-1.5-0.6-3-1.2-4.6-1.8c0.7,1.7,1.3,3.2,1.9,4.8c-1.4,0.5-2.7,1.1-4.1,1.6c3.6,2.7,7.1,5.4,10.6,8.1
			c-0.7,0.7-1.3,1.3-1.9,1.9H20v2.1h1.2v-2.1h8.2L27.5,56.6z M20.5,50.4l-3.5,5.1l-8.7-6.6l1.2-0.9l-1.4-2.8l3.2,1.1l0.8-1.5l4.3,4
			l1.7-6.2l1.1,0.8l1.2-2.7l1.4,2.8l0.9-0.8l1.6,5.9l4.2-4l1.1,1.4l2.8-0.7L31.4,48l1.4,0.8c-0.1,0.1-8.5,6.7-8.5,6.7L20.5,50.4z"/>
		<path class="st2" d="M27.5,56.6l1.8,1.8h-8.2v2.1h-0.7v-10l0.1-0.1l3.9,5.1c0,0,8.3-6.6,8.5-6.7L31.4,48l1.2-2.9l-2.8,0.7
			l-1.1-1.4l-4.2,4l-1.6-5.9l-0.9,0.8l-1.4-2.8l-0.1,0.2v-9.3l3.6,6.4l2.8-1.1c0,0-2.3,8.3-2.3,8.3l5.5-5.4l1.3,3.6l4.7-1.8l-1.9,5
			c1.1,0.4,4.2,1.7,4.3,1.7L27.5,56.6z"/>
	</g>
	<g>
		<path class="st0" d="M44.3,64v-3.2l0-0.2c0-0.2,0-0.3-0.1-0.3c-0.1-0.1-0.1-0.1-0.2-0.1c-0.1,0-0.1,0-0.2,0c-0.1,0-0.1,0-0.1,0
			c0,0-0.1,0-0.1,0c-0.1,0-0.1,0-0.1-0.1c0,0,0.1-0.1,0.2-0.1h2.1c0.1,0,0.2,0,0.2,0.1c0,0.1,0,0.1-0.1,0.1c0,0,0,0-0.1,0
			c0,0,0,0-0.1,0c-0.1,0-0.1,0-0.2,0c-0.1,0-0.2,0.1-0.2,0.1c0,0.1-0.1,0.2-0.1,0.3l0,0.2V64l0,0.2c0,0.2,0,0.3,0.1,0.3
			c0,0,0.1,0.1,0.2,0.1c0.1,0,0.1,0,0.2,0c0.1,0,0.2,0,0.2,0.1c0,0-0.1,0.1-0.2,0.1h-2.1c-0.1,0-0.2,0-0.2-0.1
			c0-0.1,0.1-0.1,0.2-0.1c0.1,0,0.2,0,0.2,0c0.1,0,0.2-0.1,0.2-0.1c0,0,0.1-0.2,0.1-0.3L44.3,64z"/>
		<path class="st0" d="M49.8,64.3v-3.7c0-0.2,0-0.3-0.1-0.3c-0.1-0.1-0.1-0.1-0.2-0.1c-0.1,0-0.1,0-0.2,0c-0.1,0-0.1,0-0.1,0
			c0,0-0.1,0-0.1,0c-0.1,0-0.1,0-0.1-0.1c0,0,0.1-0.1,0.2-0.1h1.4l2,4l2.2-4h1.4c0.1,0,0.2,0,0.2,0.1c0,0.1,0,0.1-0.1,0.1
			c0,0,0,0-0.1,0c0,0,0,0-0.1,0c0,0-0.1,0-0.2,0c-0.1,0-0.2,0.1-0.2,0.1c-0.1,0.1-0.1,0.2-0.1,0.3v3.7c0,0.2,0,0.3,0.1,0.3
			c0.1,0.1,0.1,0.1,0.2,0.1c0.1,0,0.1,0,0.2,0c0.1,0,0.2,0,0.2,0.1c0,0-0.1,0.1-0.2,0.1h-2.1c-0.1,0-0.2,0-0.2-0.1
			c0-0.1,0.1-0.1,0.2-0.1c0.1,0,0.2,0,0.2,0c0.1,0,0.2-0.1,0.2-0.1c0-0.1,0.1-0.2,0.1-0.3v-3l0-0.5h0l-2.2,4c0,0.1-0.1,0.1-0.1,0.1
			c-0.1,0-0.1,0-0.1-0.1l-2.2-4.1h0l0,0.5v3.1c0,0.1,0,0.2,0.1,0.3c0.1,0.1,0.2,0.1,0.4,0.1c0.1,0,0.2,0,0.2,0.1
			c0,0-0.1,0.1-0.2,0.1h-1.5c-0.1,0-0.2,0-0.2-0.1c0-0.1,0.1-0.1,0.2-0.1c0.1,0,0.2,0,0.2,0c0.1,0,0.2-0.1,0.2-0.1
			C49.8,64.5,49.8,64.4,49.8,64.3z"/>
		<path class="st0" d="M60.3,64.3v-3.7c0-0.2,0-0.3-0.1-0.3c-0.1-0.1-0.1-0.1-0.2-0.1c-0.1,0-0.1,0-0.2,0c-0.1,0-0.1,0-0.1,0
			c0,0-0.1,0-0.1,0c-0.1,0-0.1,0-0.1-0.1c0,0,0.1-0.1,0.2-0.1h1.4l2,4l2.2-4h1.4c0.1,0,0.2,0,0.2,0.1c0,0.1,0,0.1-0.1,0.1
			c0,0,0,0-0.1,0c0,0,0,0-0.1,0c0,0-0.1,0-0.2,0c-0.1,0-0.2,0.1-0.2,0.1c-0.1,0.1-0.1,0.2-0.1,0.3v3.7c0,0.2,0,0.3,0.1,0.3
			c0.1,0.1,0.1,0.1,0.2,0.1c0.1,0,0.1,0,0.2,0c0.1,0,0.2,0,0.2,0.1c0,0-0.1,0.1-0.2,0.1h-2.1c-0.1,0-0.2,0-0.2-0.1
			c0-0.1,0.1-0.1,0.2-0.1c0.1,0,0.2,0,0.2,0c0.1,0,0.2-0.1,0.2-0.1c0-0.1,0.1-0.2,0.1-0.3v-3l0-0.5h0l-2.2,4c0,0.1-0.1,0.1-0.1,0.1
			c-0.1,0-0.1,0-0.1-0.1l-2.2-4.1h0l0,0.5v3.1c0,0.1,0,0.2,0.1,0.3c0.1,0.1,0.2,0.1,0.4,0.1c0.1,0,0.2,0,0.2,0.1
			c0,0-0.1,0.1-0.2,0.1h-1.5c-0.1,0-0.2,0-0.2-0.1c0-0.1,0.1-0.1,0.2-0.1c0.1,0,0.2,0,0.2,0c0.1,0,0.2-0.1,0.2-0.1
			C60.3,64.5,60.3,64.4,60.3,64.3z"/>
		<path class="st0" d="M70.8,64v-3.2l0-0.2c0-0.2,0-0.3-0.1-0.3c-0.1-0.1-0.1-0.1-0.2-0.1c-0.1,0-0.1,0-0.2,0c-0.1,0-0.1,0-0.1,0
			c0,0-0.1,0-0.1,0c-0.1,0-0.1,0-0.1-0.1c0,0,0.1-0.1,0.2-0.1h2.1c0.1,0,0.2,0,0.2,0.1c0,0.1,0,0.1-0.1,0.1c0,0,0,0-0.1,0
			c0,0,0,0-0.1,0c-0.1,0-0.1,0-0.2,0c-0.1,0-0.2,0.1-0.2,0.1c0,0.1-0.1,0.2-0.1,0.3l0,0.2V64l0,0.2c0,0.2,0,0.3,0.1,0.3
			c0,0,0.1,0.1,0.2,0.1c0.1,0,0.1,0,0.2,0c0.1,0,0.2,0,0.2,0.1c0,0-0.1,0.1-0.2,0.1h-2.1c-0.1,0-0.2,0-0.2-0.1
			c0-0.1,0.1-0.1,0.2-0.1c0.1,0,0.2,0,0.2,0c0.1,0,0.2-0.1,0.2-0.1c0,0,0.1-0.2,0.1-0.3L70.8,64z"/>
		<path class="st0" d="M80.9,60.1v1.5c0,0,0,0.1-0.1,0.1c-0.1,0-0.1,0-0.1-0.1c-0.1-0.2-0.2-0.4-0.3-0.6c-0.1-0.2-0.3-0.4-0.6-0.6
			c-0.3-0.2-0.6-0.3-1-0.3c-0.5,0-0.9,0.1-1.2,0.3c-0.3,0.2-0.6,0.5-0.8,0.9c-0.2,0.4-0.3,0.8-0.3,1.3c0,0.5,0.1,0.9,0.3,1.2
			c0.2,0.4,0.5,0.6,0.8,0.8c0.3,0.2,0.7,0.3,1.1,0.3c0.5,0,0.9-0.1,1.1-0.3c0.2-0.2,0.3-0.6,0.3-1l0-0.2c0-0.2,0-0.3-0.1-0.3
			c0-0.1-0.1-0.1-0.2-0.1c-0.1,0-0.1,0-0.2,0c-0.1,0-0.2,0-0.2-0.1c0,0,0.1-0.1,0.2-0.1h2.1c0.1,0,0.2,0,0.2,0.1
			c0,0.1-0.1,0.1-0.2,0.1c-0.1,0-0.2,0-0.2,0c-0.1,0-0.2,0.1-0.2,0.1c0,0.1-0.1,0.2-0.1,0.3l0,0.2v0.9c0,0,0,0,0,0c0,0,0,0,0,0
			c0,0.1,0,0.1-0.1,0.2c-0.1,0-0.2,0.1-0.4,0.2c-0.2,0.1-0.4,0.1-0.5,0.2c-0.1,0-0.3,0.1-0.5,0.1c-0.2,0-0.5,0-0.7,0
			c-0.8,0-1.5-0.2-2.2-0.6c-0.7-0.4-1-1.1-1-2c0-0.6,0.2-1.1,0.5-1.5c0.3-0.4,0.7-0.7,1.2-0.9s1-0.3,1.5-0.3c0.5,0,1.1,0.1,1.6,0.4
			c0.1,0,0.2,0.1,0.3,0.1l0.2-0.2c0,0,0,0,0,0c0,0,0,0,0,0C80.8,60,80.8,60,80.9,60.1C80.9,60,80.9,60,80.9,60.1z"/>
		<path class="st0" d="M86.2,62.5V64l0,0.2c0,0.1,0,0.3,0.1,0.3c0.1,0.1,0.2,0.1,0.4,0.1c0.1,0,0.2,0,0.2,0.1c0,0-0.1,0.1-0.2,0.1
			h-2.1c-0.1,0-0.2,0-0.2-0.1c0-0.1,0.1-0.1,0.2-0.1c0.1,0,0.2,0,0.2,0c0.1,0,0.2-0.1,0.2-0.1c0,0,0.1-0.2,0.1-0.3l0-0.2v-3.2l0-0.2
			c0-0.2,0-0.3-0.1-0.3c-0.1-0.1-0.1-0.1-0.2-0.1c-0.1,0-0.1,0-0.2,0c-0.1,0-0.1,0-0.1,0c0,0-0.1,0-0.1,0c-0.1,0-0.1,0-0.1-0.1
			c0,0,0.1-0.1,0.2-0.1h2.1c1.6,0,2.4,0.4,2.4,1.3c0,0.6-0.4,1-1.2,1.2v0.1l0.9,1.3c0.2,0.3,0.4,0.5,0.5,0.6
			c0.1,0.1,0.2,0.2,0.3,0.2c0.1,0,0.2,0.1,0.3,0.1c0,0,0.1,0,0.1,0c0,0,0.1,0,0.1,0c0,0,0,0,0,0.1c0,0.1,0,0.1-0.1,0.1h-1.3
			c-0.1,0-0.2-0.1-0.2-0.2l-1.1-1.6c-0.2-0.3-0.4-0.5-0.5-0.5c-0.1-0.1-0.3-0.1-0.6-0.1H86.2z M86.2,60.7v1.6h0.3
			c1.1,0,1.7-0.3,1.7-1c0-0.8-0.5-1.1-1.5-1.1c-0.2,0-0.4,0-0.4,0.1c-0.1,0.1-0.1,0.1-0.1,0.3C86.2,60.6,86.2,60.6,86.2,60.7
			C86.2,60.6,86.2,60.7,86.2,60.7z"/>
		<path class="st0" d="M96.3,63.1h-2.2L93.7,64c-0.1,0.2-0.1,0.3-0.1,0.4c0,0.2,0.2,0.4,0.5,0.4c0.1,0,0.1,0,0.1,0.1s0,0.1-0.1,0.1
			h-1.6c0,0-0.1,0-0.1-0.1c0,0,0-0.1,0.1-0.1c0.1,0,0.3-0.1,0.3-0.2c0.2-0.1,0.4-0.4,0.5-0.7l1.6-3.5l-0.1-0.2c0,0,0,0,0,0
			c0,0,0,0,0.1,0c0,0,0.1,0,0.1-0.1l0.1,0c0.1-0.1,0.2-0.1,0.3-0.2c0,0,0.1-0.1,0.1-0.1c0,0,0.1,0,0.1,0.1l2,4.2
			c0.1,0.3,0.2,0.4,0.3,0.5c0.1,0.1,0.2,0.1,0.3,0.1c0.1,0,0.1,0,0.1,0.1c0,0.1,0,0.1-0.1,0.1h-2.1c0,0-0.1,0-0.1-0.1
			c0-0.1,0-0.1,0.1-0.1c0.3,0,0.5-0.1,0.5-0.3c0-0.1,0-0.2-0.1-0.3L96.3,63.1z M96.2,62.9l-1-2.2l-1,2.2H96.2z"/>
		<path class="st0" d="M104.1,60.2v4.1c0,0.2,0,0.3,0.1,0.3c0.1,0.1,0.1,0.1,0.2,0.1c0.1,0,0.1,0,0.2,0c0.1,0,0.2,0,0.2,0.1
			c0,0-0.1,0.1-0.2,0.1h-2.1c-0.1,0-0.2,0-0.2-0.1c0-0.1,0.1-0.1,0.2-0.1c0.1,0,0.1,0,0.2,0c0.1,0,0.2-0.1,0.2-0.1
			c0.1-0.1,0.1-0.2,0.1-0.3v-4.1h-0.3c-0.5,0-0.9,0.1-1.2,0.2c-0.3,0.1-0.5,0.3-0.6,0.5c-0.1,0.2-0.3,0.3-0.3,0.3
			c-0.1,0-0.1,0-0.1-0.1c0,0,0,0,0,0c0,0,0,0,0,0l0.3-1c0-0.1,0-0.1,0.1-0.1c0,0,0,0,0.1,0c0.1,0,0.1,0,0.1,0s0.1,0,0.1,0
			c0,0,0.1,0,0.1,0c0.1,0,0.1,0,0.2,0h4c0.1,0,0.1,0,0.2,0c0.1,0,0.1,0,0.1,0c0,0,0.1,0,0.1,0c0,0,0.1,0,0.1,0c0.1,0,0.1,0,0.1,0.1
			l0.3,1c0,0,0,0,0,0c0,0.1,0,0.1-0.1,0.1c0,0-0.1,0-0.1-0.1c-0.2-0.2-0.4-0.4-0.7-0.6c-0.3-0.2-0.7-0.2-1.3-0.2H104.1z"/>
		<path class="st0" d="M110.1,64v-3.2l0-0.2c0-0.2,0-0.3-0.1-0.3c-0.1-0.1-0.1-0.1-0.2-0.1c-0.1,0-0.1,0-0.2,0c-0.1,0-0.1,0-0.1,0
			c0,0-0.1,0-0.1,0c-0.1,0-0.1,0-0.1-0.1c0,0,0.1-0.1,0.2-0.1h2.1c0.1,0,0.2,0,0.2,0.1c0,0.1,0,0.1-0.1,0.1c0,0,0,0-0.1,0
			c0,0,0,0-0.1,0c-0.1,0-0.1,0-0.2,0c-0.1,0-0.2,0.1-0.2,0.1c0,0.1-0.1,0.2-0.1,0.3l0,0.2V64l0,0.2c0,0.2,0,0.3,0.1,0.3
			c0,0,0.1,0.1,0.2,0.1c0.1,0,0.1,0,0.2,0c0.1,0,0.2,0,0.2,0.1c0,0-0.1,0.1-0.2,0.1h-2.1c-0.1,0-0.2,0-0.2-0.1
			c0-0.1,0.1-0.1,0.2-0.1c0.1,0,0.2,0,0.2,0c0.1,0,0.2-0.1,0.2-0.1c0,0,0.1-0.2,0.1-0.3L110.1,64z"/>
		<path class="st0" d="M114.7,62.4c0-0.4,0.1-0.9,0.3-1.3c0.2-0.4,0.6-0.7,1-1c0.5-0.3,1-0.4,1.7-0.4c0.6,0,1.2,0.1,1.6,0.4
			c0.5,0.2,0.8,0.6,1,1c0.2,0.4,0.4,0.8,0.4,1.3c0,0.5-0.1,0.9-0.4,1.3c-0.2,0.4-0.6,0.7-1,1c-0.5,0.2-1,0.4-1.6,0.4
			c-0.7,0-1.2-0.1-1.7-0.4c-0.5-0.3-0.8-0.6-1-1S114.7,62.9,114.7,62.4z M115.7,62.4c0,1,0.2,1.6,0.7,1.9c0.5,0.3,0.9,0.5,1.3,0.5
			c0.3,0,0.7-0.1,1-0.2c0.3-0.2,0.6-0.4,0.7-0.8c0.2-0.4,0.3-0.8,0.3-1.4c0-0.6-0.1-1-0.3-1.4c-0.2-0.4-0.4-0.6-0.7-0.8
			c-0.3-0.2-0.6-0.2-1-0.2c-0.4,0-0.9,0.2-1.3,0.5C116,60.8,115.7,61.4,115.7,62.4z"/>
		<path class="st0" d="M124.8,59.9l3.7,3.9v-3.2c0-0.2,0-0.3-0.1-0.3c0-0.1-0.1-0.1-0.2-0.1c-0.1,0-0.1,0-0.2,0c-0.1,0-0.1,0-0.1,0
			c0,0-0.1,0-0.1,0c-0.1,0-0.1,0-0.1-0.1c0,0,0.1-0.1,0.2-0.1h1.5c0.1,0,0.2,0,0.2,0.1c0,0.1,0,0.1-0.1,0.1c0,0-0.1,0-0.1,0
			c0,0,0,0-0.1,0c-0.1,0-0.1,0-0.2,0c-0.1,0-0.2,0.1-0.2,0.1c-0.1,0.1-0.1,0.2-0.1,0.3v4.3c0,0.1-0.1,0.2-0.2,0.2c0,0-0.1,0-0.1-0.1
			l-4-4.1V64l0,0.2c0,0.2,0,0.3,0.1,0.3c0,0,0.1,0.1,0.2,0.1c0.1,0,0.1,0,0.2,0c0.1,0,0.2,0,0.2,0.1c0,0-0.1,0.1-0.2,0.1h-1.5
			c-0.1,0-0.2,0-0.2-0.1c0-0.1,0.1-0.1,0.2-0.1c0.1,0,0.2,0,0.2,0c0.1,0,0.2-0.1,0.2-0.1c0.1-0.1,0.1-0.2,0.1-0.3v-3.7
			c-0.1-0.2-0.3-0.3-0.6-0.5c-0.2-0.1-0.2-0.1-0.2-0.2c0,0,0-0.1,0.1-0.1H124.8z"/>
	</g>
</g>
</svg>
